<?xml version="1.0" encoding="utf-8"?>
<!-- Generator: Adobe Illustrator 23.1.0, SVG Export Plug-In . SVG Version: 6.00 Build 0)  -->
<svg version="1.1" id="Layer_1" xmlns="http://www.w3.org/2000/svg" xmlns:xlink="http://www.w3.org/1999/xlink" x="0px" y="0px"
	 viewBox="0 0 76 24" style="enable-background:new 0 0 76 24;" xml:space="preserve">
<polygon points="-5555,-212.2 -5555,-134.7 -5593.7,-134.7 -5593.7,-212.2 -5671.2,-212.2 -5671.2,-134.7 -5709.9,-134.7 
	-5709.9,-212.2 -5787.3,-212.2 -5787.3,-57.3 -5477.5,-57.3 -5477.5,-212.2 "/>
<g>
	<polygon points="60,8 68,0 76,8 	"/>
	<polygon points="54,12 48,12 48,24 54,24 60,18 	"/>
	<rect x="65" y="12" width="6" height="12"/>
	<polygon points="18,12 18,18 15,18 15,12 9,12 9,18 6,18 6,12 0,12 0,24 24,24 24,12 	"/>
	<path d="M30,24v-6c3.3,0,6-2.7,6-6h6C42,18.6,36.6,24,30,24z"/>
</g>
</svg>
