<svg xmlns="http://www.w3.org/2000/svg" viewBox="0 0 864 504"><defs><style>.cls-1{fill:#f5f1f0;}.cls-2{fill:#fff;}.cls-3{fill:#c4c4c4;}.cls-4{fill:#c7c4c3;}.cls-5{fill:#4c4b4b;}.cls-6{fill:none;}.cls-7{fill:#858282;}</style></defs><title>material-58</title><g id="Layer_1" data-name="Layer 1"><rect class="cls-1" x="156" y="84" width="552" height="421"/><rect class="cls-2" x="156" y="84" width="552" height="120"/><rect class="cls-2" x="156" y="204" width="552" height="72"/><rect class="cls-1" x="156" y="84" width="552" height="36"/><rect class="cls-3" x="672" y="96" width="12" height="12"/><path class="cls-3" d="M634.5,96h15L642,108Z"/><path class="cls-3" d="M660,96h0a6,6,0,0,1,6,6h0a6,6,0,0,1-6,6h0a6,6,0,0,1-6-6h0A6,6,0,0,1,660,96Z"/><path d="M651,153h-9v18h9l9-9Z"/><path d="M676.5,153h-9v18h9Z"/><path d="M597,153v9h-4.5v-9h-9v9H579v-9h-9v18h36V153Z"/><path d="M615,171v-9a9,9,0,0,0,9-9h9A18,18,0,0,1,615,171Z"/><path d="M660,147l12-12,12,12Z"/><rect class="cls-4" x="192" y="144" width="72" height="36"/><rect class="cls-2" x="231" y="147" width="30" height="30"/><path class="cls-5" d="M307.5,163.76V159a7.52,7.52,0,0,0-6-7.35V148.5h-3v3.15a7.52,7.52,0,0,0-6,7.35v4.76l-3,3V171h21v-4.24Zm-15,4.24,3-3v-6a4.5,4.5,0,0,1,9,0v6l3,3Zm4.5,4.5h6a3,3,0,0,1-6,0Z"/><rect class="cls-6" x="282" y="144" width="36" height="36"/><path class="cls-5" d="M237,160.5h12v3H237Zm0,9h12v-3H237Zm0-12h12v-3H237Zm15-3v3h3v-3Zm0,9h3v-3h-3Zm0,6h3v-3h-3Z"/><rect class="cls-6" x="234" y="150" width="24" height="24"/><circle class="cls-7" cx="210.06" cy="159.75" r="2.25"/><path class="cls-7" d="M210.06,173.12l-7.5-7.5V155.38l3.89-3.88h7.23l3.88,3.88v10.24Zm-4.5-8.74,4.5,4.5,4.5-4.5v-7.76l-2.12-2.12h-4.75l-2.13,2.12Z"/><rect class="cls-6" x="198" y="150" width="24" height="24"/><path class="cls-1" d="M660,264.5H552a24.5,24.5,0,0,1,0-49H660a24.5,24.5,0,0,1,0,49Zm-108-48a23.5,23.5,0,0,0,0,47H660a23.5,23.5,0,0,0,0-47Z"/><path class="cls-7" d="M558.62,235.5l-4.5,4.5,4.5,4.5-2.12,2.12-4.5-4.5-4.5,4.5-2.12-2.12,4.5-4.5-4.5-4.5,2.12-2.12,4.5,4.5,4.5-4.5ZM552,228a12,12,0,1,0,12,12A12,12,0,0,0,552,228Z"/><path class="cls-7" d="M589.13,249.83a5.91,5.91,0,0,0,1.72-.24,4.62,4.62,0,0,0,1.37-.68,3.3,3.3,0,0,0,.93-1,2.49,2.49,0,0,0,.34-1.24,1.53,1.53,0,0,0-.33-1,1.64,1.64,0,0,0-1.3-.41H588v-3.8a3.82,3.82,0,0,1,1-2.72,3.46,3.46,0,0,1,2.68-1h2.53l.11,1.52H591.6a2.46,2.46,0,0,0-.81.14,2.27,2.27,0,0,0-.68.42,2.09,2.09,0,0,0-.48.68,2.25,2.25,0,0,0-.19,1v2.33h2.68a3.77,3.77,0,0,1,1.36.21,2.12,2.12,0,0,1,.85.57,2,2,0,0,1,.44.85,4.29,4.29,0,0,1,.13,1,4.4,4.4,0,0,1-.44,1.93,5.06,5.06,0,0,1-1.19,1.56,5.77,5.77,0,0,1-1.77,1.05,6.08,6.08,0,0,1-2.17.38h-1.87a4.89,4.89,0,0,1-3.83-1.51,6,6,0,0,1-1.36-4.16V241.8h1.41v3.8a5.78,5.78,0,0,0,.23,1.72,3.28,3.28,0,0,0,2,2.2,4.8,4.8,0,0,0,1.8.31Z"/><path class="cls-7" d="M594.3,249.83h.44a4.49,4.49,0,0,0,1.85-.35,3.66,3.66,0,0,0,1.26-.94,3.86,3.86,0,0,0,.74-1.33,5.09,5.09,0,0,0,.24-1.56v-5.94h1.43v5.94a6.38,6.38,0,0,1-.4,2.32,5.77,5.77,0,0,1-1.11,1.79,4.87,4.87,0,0,1-1.67,1.16,5.23,5.23,0,0,1-2.07.4h-.55Z"/><path class="cls-7" d="M605.39,246a3.67,3.67,0,0,1-1.1-.17,2.33,2.33,0,0,1-.94-.56,2.75,2.75,0,0,1-.64-1,4.45,4.45,0,0,1-.25-1.62V232.36h1.43v10a2.73,2.73,0,0,0,.41,1.53,1.49,1.49,0,0,0,1.33.6H606c.33,0,.49.25.49.75s-.16.77-.49.77Z"/><path class="cls-7" d="M607.68,244.48a1.94,1.94,0,0,0,1.4-.46,1.66,1.66,0,0,0,.49-1.28v-3H611v3a1.82,1.82,0,0,0,.16.82,1.66,1.66,0,0,0,.43.54,1.52,1.52,0,0,0,.6.29,2.54,2.54,0,0,0,.68.09h.66q.51,0,.51.75c0,.51-.17.77-.51.77h-.7a3.66,3.66,0,0,1-1.48-.3,2.36,2.36,0,0,1-1.12-1.13,2.71,2.71,0,0,1-1.16,1.13,3.24,3.24,0,0,1-1.39.3H606a.4.4,0,0,1-.38-.18,1.1,1.1,0,0,1-.1-.55,1.31,1.31,0,0,1,.1-.59.39.39,0,0,1,.38-.2Zm3,5.68h-1.85v-1.61h1.85Z"/><path class="cls-7" d="M615.51,244.48a2,2,0,0,0,1.37-.46,1.61,1.61,0,0,0,.52-1.28v-3h1.43v3a3.19,3.19,0,0,1-.87,2.41,3.22,3.22,0,0,1-2.36.85h-2.07a.41.41,0,0,1-.39-.18,1.22,1.22,0,0,1-.1-.55,1.46,1.46,0,0,1,.1-.59.41.41,0,0,1,.39-.2Zm2.73-7.59h-1.85v-1.6h1.85Z"/><path class="cls-7" d="M621,232.36h1.43V246H621Z"/><path class="cls-7" d="M667.5,234v12L654,253.5,640.5,246V234l13.5-7.5Zm-16.41-2.45L660,236.5l2.91-1.62L654,229.93Zm1.41,10.88-9-5v6.8l9,5Zm1.5-2.6,2.91-1.61L648,233.27l-2.91,1.61Zm10.5-2.4-3,1.67V242l-3,1.67v-2.9l-3,1.66v6.8l9-5Z"/><rect class="cls-6" x="636" y="222" width="36" height="36"/><path class="cls-1" d="M492,264.5H324a24.5,24.5,0,0,1,0-49H492a24.5,24.5,0,0,1,0,49Zm-168-48a23.5,23.5,0,0,0,0,47H492a23.5,23.5,0,0,0,0-47Z"/><path class="cls-7" d="M330.62,235.5l-4.5,4.5,4.5,4.5-2.12,2.12-4.5-4.5-4.5,4.5-2.12-2.12,4.5-4.5-4.5-4.5,2.12-2.12,4.5,4.5,4.5-4.5ZM324,228a12,12,0,1,0,12,12A12,12,0,0,0,324,228Z"/><path class="cls-7" d="M360.43,249.83a7.08,7.08,0,0,0,1.88-.22,4,4,0,0,0,1.25-.58,2.28,2.28,0,0,0,.69-.82,2.18,2.18,0,0,0,.21-.93,1.45,1.45,0,0,0-.28-.91,1.07,1.07,0,0,0-.93-.37h-3.67l.11-1.52h7.81q.48,0,.48.75c0,.51-.16.77-.48.77h-2.16a1.14,1.14,0,0,1,.38.59,2.83,2.83,0,0,1,.1.8,3.62,3.62,0,0,1-.25,1.27,3.44,3.44,0,0,1-.86,1.28,5,5,0,0,1-1.6,1,6.9,6.9,0,0,1-2.48.39h-2.2a4.89,4.89,0,0,1-3.83-1.51,6,6,0,0,1-1.36-4.16V241.8h1.41v3.8a5.78,5.78,0,0,0,.23,1.72,3.43,3.43,0,0,0,.72,1.33,3.31,3.31,0,0,0,1.25.87,4.64,4.64,0,0,0,1.8.31Z"/><path class="cls-7" d="M373.3,244.48a1.8,1.8,0,0,0,1.37-.41,1.37,1.37,0,0,0,.37-1,3,3,0,0,0-.13-.84,2.69,2.69,0,0,0-.73-1.06l-4.75-4.73v-1.56l7.28-2.88.38,1.43-6.25,2.44,4,4c.73.75,1.37,1.38,1.9,1.9s1,.94,1.38,1.28a10.06,10.06,0,0,0,1,.81,3,3,0,0,0,.72.41,2.28,2.28,0,0,0,.63.17c.2,0,.42,0,.67,0s.49.25.49.75-.17.77-.49.77a5.31,5.31,0,0,1-1.12-.11,3.25,3.25,0,0,1-1-.42,8.24,8.24,0,0,1-1.14-.83c-.41-.36-.9-.82-1.47-1.39a2.56,2.56,0,0,1-.14,1.24,2,2,0,0,1-.61.85,2.6,2.6,0,0,1-.95.49,4,4,0,0,1-1.22.17H367.5a.4.4,0,0,1-.39-.18,1.1,1.1,0,0,1-.1-.55,1.31,1.31,0,0,1,.1-.59.4.4,0,0,1,.39-.2Zm-3.91-12.58,6.6-2.69.26,1.08L369.43,233Z"/><path class="cls-7" d="M383.07,244.48a2,2,0,0,0,1.38-.46,1.64,1.64,0,0,0,.51-1.28v-3h1.43v3a3,3,0,0,1-3.23,3.26h-2.07a.39.39,0,0,1-.38-.18,1.1,1.1,0,0,1-.1-.55,1.31,1.31,0,0,1,.1-.59.38.38,0,0,1,.38-.2Zm2.73-7.59H384v-1.6h1.85Z"/><path class="cls-7" d="M391.92,246a3.44,3.44,0,0,1-1.11-.17,2.24,2.24,0,0,1-.93-.56,2.76,2.76,0,0,1-.65-1,4.69,4.69,0,0,1-.24-1.62V232.36h1.43v10a2.65,2.65,0,0,0,.41,1.53,1.48,1.48,0,0,0,1.33.6h.37q.48,0,.48.75c0,.51-.16.77-.48.77Z"/><path class="cls-7" d="M398.89,244.7c-.38.22-.75.42-1.1.59a6.37,6.37,0,0,1-1.14.4,10.4,10.4,0,0,1-1.36.23,16.61,16.61,0,0,1-1.68.08h-1.08a.39.39,0,0,1-.38-.18,1.1,1.1,0,0,1-.1-.55,1.31,1.31,0,0,1,.1-.59.38.38,0,0,1,.38-.2h1.1c.57,0,1.08,0,1.52,0a10,10,0,0,0,1.21-.18,6.2,6.2,0,0,0,1-.32,6.57,6.57,0,0,0,1-.5l3.72-2.16c-.12-.31-.24-.59-.37-.85a2.3,2.3,0,0,0-.5-.65,2.06,2.06,0,0,0-.73-.4,3.52,3.52,0,0,0-1.1-.15h-4.93l.13-1.51h5a5.4,5.4,0,0,1,1.18.13,2.76,2.76,0,0,1,1.14.56,4.51,4.51,0,0,1,1,1.26,8.55,8.55,0,0,1,.78,2.23Zm.09-9.48h-1.85v-1.61H399Z"/><path class="cls-7" d="M420.08,245.56a6.53,6.53,0,0,1-.38,2.23,5.41,5.41,0,0,1-1.08,1.83,5.18,5.18,0,0,1-4,1.7h-1.29a4.88,4.88,0,0,1-3.83-1.51,6,6,0,0,1-1.37-4.16V241.8h1.41v3.8a6.12,6.12,0,0,0,.23,1.72,3.58,3.58,0,0,0,.73,1.33,3.27,3.27,0,0,0,1.24.87,4.64,4.64,0,0,0,1.8.31h1a4.6,4.6,0,0,0,1.81-.34,3.66,3.66,0,0,0,1.28-.92,3.44,3.44,0,0,0,.77-1.34,5.06,5.06,0,0,0,.26-1.6v-5.92h1.41Zm-5.31-6.34h-1.85v-1.6h1.85Z"/><path class="cls-7" d="M422.67,232.36h1.43V246h-1.43Z"/><path class="cls-7" d="M428.7,249.83a4.3,4.3,0,0,0,1.7-.31,3.57,3.57,0,0,0,2-2.06,5.06,5.06,0,0,0,.3-1.46h-2.2a6,6,0,0,1-1.84-.24,2.6,2.6,0,0,1-1.15-.71,2.46,2.46,0,0,1-.58-1.11,5.91,5.91,0,0,1-.17-1.46,5.08,5.08,0,0,1,.25-1.58,4,4,0,0,1,.7-1.32,3.29,3.29,0,0,1,1.16-.92,3.65,3.65,0,0,1,1.59-.34,4.06,4.06,0,0,1,1.39.24,3.29,3.29,0,0,1,1.16.76,3.51,3.51,0,0,1,.8,1.35,5.79,5.79,0,0,1,.3,2v1.82h2.11a.38.38,0,0,1,.37.19,1.3,1.3,0,0,1,.1.56,1.37,1.37,0,0,1-.1.58.38.38,0,0,1-.37.19h-2.15a6.15,6.15,0,0,1-.43,2.05,5.29,5.29,0,0,1-1.07,1.69,5,5,0,0,1-3.76,1.58H426.5l-.13-1.49Zm-.55-7.44a3.33,3.33,0,0,0,.12,1,1.36,1.36,0,0,0,.42.65,1.86,1.86,0,0,0,.8.37,5.67,5.67,0,0,0,1.28.12h2v-1.65a3.47,3.47,0,0,0-.64-2.33,2.25,2.25,0,0,0-1.76-.7,2,2,0,0,0-1.63.7A2.92,2.92,0,0,0,428.15,242.39Z"/><path class="cls-7" d="M437.92,244.48a1.94,1.94,0,0,0,1.4-.46,1.66,1.66,0,0,0,.49-1.28v-3h1.43v3a1.82,1.82,0,0,0,.16.82,1.66,1.66,0,0,0,.43.54,1.52,1.52,0,0,0,.6.29,2.54,2.54,0,0,0,.68.09h.66c.34,0,.5.25.5.75s-.16.77-.5.77h-.71a3.61,3.61,0,0,1-1.47-.3,2.31,2.31,0,0,1-1.12-1.13,2.66,2.66,0,0,1-1.16,1.13,3.24,3.24,0,0,1-1.39.3h-1.68a.39.39,0,0,1-.38-.18,1.1,1.1,0,0,1-.1-.55,1.31,1.31,0,0,1,.1-.59.38.38,0,0,1,.38-.2Zm1.4,5.63h-1.69v-1.56h1.69Zm2.86,0h-1.67v-1.56h1.67Z"/><path class="cls-7" d="M450.13,244.7c-.38.22-.75.42-1.1.59a6.77,6.77,0,0,1-1.15.4,10,10,0,0,1-1.35.23,16.61,16.61,0,0,1-1.68.08h-1.08a.41.41,0,0,1-.39-.18,1.22,1.22,0,0,1-.1-.55,1.46,1.46,0,0,1,.1-.59.41.41,0,0,1,.39-.2h1.1c.57,0,1.08,0,1.52,0a10,10,0,0,0,1.21-.18,6.51,6.51,0,0,0,1-.32,7.67,7.67,0,0,0,1-.5l3.72-2.16a7.47,7.47,0,0,0-.38-.85,2.27,2.27,0,0,0-.49-.65,2,2,0,0,0-.74-.4,3.44,3.44,0,0,0-1.1-.15H445.7l.14-1.51h5a5.46,5.46,0,0,1,1.18.13,2.76,2.76,0,0,1,1.14.56,4.32,4.32,0,0,1,1,1.26,7.87,7.87,0,0,1,.78,2.23Z"/><path class="cls-7" d="M496.5,228l-2.12-2.12L492,228.26l-1.06,1.06-6.18,6.18H474.62l-2.56-2.56-2.12,2.12,2.56,2.56v6.88L471,246v6h3v-4.76l1.24-1.24H487.5v6h3v-9.26l1.5-1.5,1.76,1.76h4l4.5-4.5-8.12-8.12Zm0,12H495l-3-3-4.5,4.5V243h-12v-4.5H486l6-6,6,6Z"/><rect class="cls-6" x="468" y="222" width="36" height="36"/><path class="cls-1" d="M264,264.5H96a24.5,24.5,0,0,1,0-49H264a24.5,24.5,0,0,1,0,49Zm-168-48a23.5,23.5,0,0,0,0,47H264a23.5,23.5,0,0,0,0-47Z"/><path class="cls-7" d="M102.62,235.5l-4.5,4.5,4.5,4.5-2.12,2.12-4.5-4.5-4.5,4.5-2.12-2.12,4.5-4.5-4.5-4.5,2.12-2.12,4.5,4.5,4.5-4.5ZM96,228a12,12,0,1,0,12,12A12,12,0,0,0,96,228Z"/><path class="cls-7" d="M135.49,240.76a4.52,4.52,0,0,1,.83,1.27,3.21,3.21,0,0,1,.25,1.22,2.55,2.55,0,0,1-.85,2,3.43,3.43,0,0,1-2.41.78h-6.13l-.11-1.52h6.07a2,2,0,0,0,1.33-.39,1.31,1.31,0,0,0,.47-1,1.87,1.87,0,0,0-.15-.68,2.57,2.57,0,0,0-.46-.7l-4.1-4.62,1.13-1.06Z"/><path class="cls-7" d="M141.32,245.65a6.38,6.38,0,0,1-.4,2.32,5.38,5.38,0,0,1-1.09,1.79,4.84,4.84,0,0,1-1.66,1.16,5.18,5.18,0,0,1-2.06.4h-1.3l-.11-1.49h1.08a4.72,4.72,0,0,0,1.89-.35,3.72,3.72,0,0,0,1.3-.94,3.86,3.86,0,0,0,.74-1.33,4.81,4.81,0,0,0,.25-1.56v-5.94h1.41v3.1a1.55,1.55,0,0,0,.51,1.22,2,2,0,0,0,1.36.45h.24q.48,0,.48.75c0,.51-.16.77-.48.77h-.24a2.92,2.92,0,0,1-1.05-.2,1.91,1.91,0,0,1-.87-.68Z"/><path class="cls-7" d="M153,242.85a2.87,2.87,0,0,0,.85,1.28,2.15,2.15,0,0,0,1.29.35h1.45a.37.37,0,0,1,.38.19,1.17,1.17,0,0,1,.1.56,1.23,1.23,0,0,1-.1.58.37.37,0,0,1-.38.19H155a3.31,3.31,0,0,1-1.22-.2,2.43,2.43,0,0,1-.84-.54,2.76,2.76,0,0,1-.57-.8,8.52,8.52,0,0,1-.43-1l-2.14,1.25c-.38.22-.74.42-1.1.59a6.37,6.37,0,0,1-1.14.4,10,10,0,0,1-1.35.23,16.82,16.82,0,0,1-1.69.08h-1.07a.41.41,0,0,1-.39-.18,1.22,1.22,0,0,1-.1-.55,1.46,1.46,0,0,1,.1-.59.41.41,0,0,1,.39-.2h1.1c.57,0,1.07,0,1.51,0a9.71,9.71,0,0,0,1.21-.18,6.32,6.32,0,0,0,1-.32,7.67,7.67,0,0,0,1-.5l3.72-2.16c-.12-.31-.25-.59-.38-.85a2.27,2.27,0,0,0-.49-.65,2.1,2.1,0,0,0-.74-.4,3.44,3.44,0,0,0-1.1-.15h-4.93l.13-1.51h5a5.46,5.46,0,0,1,1.18.13,2.76,2.76,0,0,1,1.14.56,4.32,4.32,0,0,1,1,1.26,7.87,7.87,0,0,1,.78,2.23Zm-3.23,7.31h-1.85v-1.61h1.85Z"/><path class="cls-7" d="M156.94,244.48a1.81,1.81,0,0,0,1.3-.42,1.47,1.47,0,0,0,.44-1.12v-.83a4.27,4.27,0,0,1,1-3,3.51,3.51,0,0,1,2.72-1.07,4.09,4.09,0,0,1,1.58.28,2.92,2.92,0,0,1,1.13.82,3.35,3.35,0,0,1,.67,1.25A5.4,5.4,0,0,1,166,242a4.12,4.12,0,0,1-1,2.94,3.5,3.5,0,0,1-2.7,1.06,4.34,4.34,0,0,1-1.7-.34,2.59,2.59,0,0,1-1.27-1.22,2.6,2.6,0,0,1-.49.81,2.26,2.26,0,0,1-.59.47,2.19,2.19,0,0,1-.65.23,5,5,0,0,1-.65.05h-.35a.41.41,0,0,1-.39-.18,1.22,1.22,0,0,1-.1-.55,1.46,1.46,0,0,1,.1-.59.41.41,0,0,1,.39-.2Zm7.64-2.35a3.15,3.15,0,0,0-.51-1.86,2,2,0,0,0-1.74-.72c-1.52,0-2.29.89-2.29,2.67a2.17,2.17,0,0,0,.63,1.69,2.32,2.32,0,0,0,1.62.57,2.22,2.22,0,0,0,1.7-.61A2.43,2.43,0,0,0,164.58,242.13Z"/><path class="cls-7" d="M179.29,242.35a2.86,2.86,0,0,0,.38,1.54,1.49,1.49,0,0,0,1.36.59h.37a.38.38,0,0,1,.37.19,1.3,1.3,0,0,1,.1.56,1.37,1.37,0,0,1-.1.58.38.38,0,0,1-.37.19H181a3.35,3.35,0,0,1-1.76-.43,2.41,2.41,0,0,1-1-1.55,2.47,2.47,0,0,1-.65.55,3.46,3.46,0,0,1-.82.34,5.12,5.12,0,0,1-.85.17,7.83,7.83,0,0,1-.81,0,3.32,3.32,0,0,1-2.45-.84,3.5,3.5,0,0,1-.85-2.61,5.73,5.73,0,0,1,.23-1.6,4.49,4.49,0,0,1,.7-1.4,3.44,3.44,0,0,1,1.15-1,3.39,3.39,0,0,1,1.64-.37h2.38v-1.52h1.38Zm-3.87,1.32a3.25,3.25,0,0,0,1.82-.46,1.4,1.4,0,0,0,.67-1.17v-3.3h-2.36a2.13,2.13,0,0,0-1.76.76,3.11,3.11,0,0,0-.61,2,2.11,2.11,0,0,0,.57,1.7A2.66,2.66,0,0,0,175.42,243.67Z"/><path class="cls-7" d="M183.32,244.48a2,2,0,0,0,1.37-.46,1.61,1.61,0,0,0,.52-1.28v-3h1.43v3a3.19,3.19,0,0,1-.87,2.41,3.22,3.22,0,0,1-2.36.85h-2.07a.41.41,0,0,1-.39-.18,1.22,1.22,0,0,1-.1-.55,1.46,1.46,0,0,1,.1-.59.41.41,0,0,1,.39-.2Zm.88,5.68h-1.85v-1.61h1.85Z"/><path class="cls-7" d="M192.36,242.61a4.24,4.24,0,0,1,.18-1.25,4.79,4.79,0,0,1,.55-1.21,9.65,9.65,0,0,1,.94-1.28c.38-.44.84-.93,1.37-1.47l-1-1,1-1q1.36,1.36,2.28,2.34a18.42,18.42,0,0,1,1.47,1.77,6.09,6.09,0,0,1,.81,1.47,4.15,4.15,0,0,1,.24,1.42,3.57,3.57,0,0,1-.3,1.46A3.47,3.47,0,0,1,199,245a3.73,3.73,0,0,1-1.27.77,4.27,4.27,0,0,1-1.58.28,4.58,4.58,0,0,1-1.57-.25,3.52,3.52,0,0,1-1.19-.71,3.11,3.11,0,0,1-.77-1.06A3.23,3.23,0,0,1,192.36,242.61Zm6.38-.31a2.91,2.91,0,0,0-.12-.82,3.45,3.45,0,0,0-.41-.85,8.52,8.52,0,0,0-.76-1c-.31-.36-.71-.77-1.2-1.24-.52.51-.95,1-1.28,1.35a6.73,6.73,0,0,0-.76,1.05,3.09,3.09,0,0,0-.35.83,3.2,3.2,0,0,0-.09.75,2,2,0,0,0,.63,1.49,2.47,2.47,0,0,0,1.79.6,3.07,3.07,0,0,0,1-.17,2.65,2.65,0,0,0,.82-.48,2.06,2.06,0,0,0,.52-.69A1.85,1.85,0,0,0,198.74,242.3Z"/><path class="cls-7" d="M204.56,248a5.42,5.42,0,0,1-1.11,1.79,4.84,4.84,0,0,1-1.66,1.16,5.28,5.28,0,0,1-2.08.4h-1.3l-.11-1.49h1.08a4.72,4.72,0,0,0,1.89-.35,3.66,3.66,0,0,0,2-2.27,5.09,5.09,0,0,0,.24-1.56v-5.94H205v5.94A6.38,6.38,0,0,1,204.56,248Z"/><path class="cls-7" d="M210.66,246a3.42,3.42,0,0,1-1.1-.17,2.24,2.24,0,0,1-.93-.56,2.76,2.76,0,0,1-.65-1,4.69,4.69,0,0,1-.24-1.62V232.36h1.43v10a2.65,2.65,0,0,0,.41,1.53,1.48,1.48,0,0,0,1.33.6h.37q.48,0,.48.75c0,.51-.16.77-.48.77Z"/><path class="cls-7" d="M217.64,244.7c-.38.22-.75.42-1.1.59a6.48,6.48,0,0,1-1.15.4,10,10,0,0,1-1.35.23,16.61,16.61,0,0,1-1.68.08h-1.08a.39.39,0,0,1-.38-.18,1.1,1.1,0,0,1-.1-.55,1.31,1.31,0,0,1,.1-.59.38.38,0,0,1,.38-.2h1.1c.57,0,1.08,0,1.52,0a10,10,0,0,0,1.21-.18,6.51,6.51,0,0,0,1-.32,7.67,7.67,0,0,0,1-.5l3.72-2.16c-.12-.31-.24-.59-.37-.85a2.5,2.5,0,0,0-.5-.65,2,2,0,0,0-.74-.4,3.44,3.44,0,0,0-1.1-.15h-4.92l.13-1.51h5a5.4,5.4,0,0,1,1.18.13,2.76,2.76,0,0,1,1.14.56,4.32,4.32,0,0,1,1,1.26,8.17,8.17,0,0,1,.79,2.23Zm-.07,5.46h-1.85v-1.61h1.85Z"/><path class="cls-7" d="M225,232.36h1.43V246H225Z"/><path class="cls-7" d="M265.24,240H250.76l-3.26,3.26v10.13l10.5-2.51,10.5,2.51V243.25Zm.26,9.59-1.14-.27-.69-2.88L258,247.79l-5.67-1.36-.69,2.88-1.14.27v-5.09L252,243h12l1.5,1.5ZM258,238.49a6,6,0,1,0-6-6A6,6,0,0,0,258,238.49Zm0-9a3,3,0,1,1-3,3A3,3,0,0,1,258,229.49Z"/><rect class="cls-6" x="240" y="222" width="36" height="36"/><rect class="cls-2" x="48" y="204" width="108" height="72"/><rect class="cls-4" x="156" y="288" width="552" height="217"/><polygon class="cls-1" points="708.5 505 707.5 505 707.5 84.5 156.5 84.5 156.5 505 155.5 505 155.5 83.5 708.5 83.5 708.5 505"/><path class="cls-2" d="M462,463a6,6,0,1,1,6,6A6,6,0,0,1,462,463Zm30-24v66H384V494l.08-.08V439Zm-12,12H396.08v30.93l24-23.88L450,488l12-12,18,18Z"/></g></svg>