<?xml version="1.0" encoding="utf-8"?>
<!-- Generator: Adobe Illustrator 23.1.0, SVG Export Plug-In . SVG Version: 6.00 Build 0)  -->
<svg version="1.1" xmlns="http://www.w3.org/2000/svg" xmlns:xlink="http://www.w3.org/1999/xlink" x="0px" y="0px"
	 viewBox="0 0 858 504" style="enable-background:new 0 0 858 504;" xml:space="preserve">
<style type="text/css">
	.st0{fill:#DBD4D3;}
	.st1{fill:#FFFFFF;}
	.st2{fill:#242121;}
	.st3{fill:#C7C0BF;}
	.st4{fill:#5C5958;}
	.st5{fill:#FF8873;}
	.st6{fill:#78FFA5;}
	.st7{fill:#907DFF;}
	.st8{fill:#FFE876;}
	.st9{fill:#7BD7FF;}
</style>
<g id="Layer_2">
	<rect y="0" class="st0" width="857.9" height="504"/>
	<g>
		<rect x="856" y="275.5" class="st1" width="2" height="1"/>
		<path class="st1" d="M853,276.5h-4v-1h4V276.5z M846,276.5h-4v-1h4V276.5z M839.1,276.5h-4v-1h4V276.5z M832.1,276.5h-4v-1h4
			V276.5z M825.1,276.5h-4v-1h4V276.5z M818.1,276.5h-4v-1h4V276.5z M811.2,276.5h-4v-1h4V276.5z M804.2,276.5h-4v-1h4V276.5z
			 M797.2,276.5h-4v-1h4V276.5z M790.2,276.5h-4v-1h4V276.5z M783.3,276.5h-4v-1h4V276.5z M776.3,276.5h-4v-1h4V276.5z M769.3,276.5
			h-4v-1h4V276.5z M762.3,276.5h-4v-1h4V276.5z M755.4,276.5h-4v-1h4V276.5z M748.4,276.5h-4v-1h4V276.5z M741.4,276.5h-4v-1h4
			V276.5z M734.4,276.5h-4v-1h4V276.5z M727.5,276.5h-4v-1h4V276.5z M720.5,276.5h-4v-1h4V276.5z M713.5,276.5h-4v-1h4V276.5z
			 M706.5,276.5h-4v-1h4V276.5z M699.6,276.5h-4v-1h4V276.5z M692.6,276.5h-4v-1h4V276.5z M685.6,276.5h-4v-1h4V276.5z M678.6,276.5
			h-4v-1h4V276.5z M671.7,276.5h-4v-1h4V276.5z M664.7,276.5h-4v-1h4V276.5z M657.7,276.5h-4v-1h4V276.5z M650.7,276.5h-4v-1h4
			V276.5z M643.8,276.5h-4v-1h4V276.5z M636.8,276.5h-4v-1h4V276.5z M629.8,276.5h-4v-1h4V276.5z M622.8,276.5h-4v-1h4V276.5z
			 M615.9,276.5h-4v-1h4V276.5z M608.9,276.5h-4v-1h4V276.5z M601.9,276.5h-4v-1h4V276.5z M594.9,276.5h-4v-1h4V276.5z M588,276.5
			h-4v-1h4V276.5z M581,276.5h-4v-1h4V276.5z M574,276.5h-4v-1h4V276.5z M567.1,276.5h-4v-1h4V276.5z M560.1,276.5h-4v-1h4V276.5z
			 M553.1,276.5h-4v-1h4V276.5z M546.1,276.5h-4v-1h4V276.5z M539.2,276.5h-4v-1h4V276.5z M532.2,276.5h-4v-1h4V276.5z M525.2,276.5
			h-4v-1h4V276.5z M518.2,276.5h-4v-1h4V276.5z M511.3,276.5h-4v-1h4V276.5z M504.3,276.5h-4v-1h4V276.5z M497.3,276.5h-4v-1h4
			V276.5z M490.3,276.5h-4v-1h4V276.5z M483.4,276.5h-4v-1h4V276.5z M476.4,276.5h-4v-1h4V276.5z M469.4,276.5h-4v-1h4V276.5z
			 M462.4,276.5h-4v-1h4V276.5z M455.5,276.5h-4v-1h4V276.5z M448.5,276.5h-4v-1h4V276.5z M441.5,276.5h-4v-1h4V276.5z M434.5,276.5
			h-4v-1h4V276.5z M427.6,276.5h-4v-1h4V276.5z M420.6,276.5h-4v-1h4V276.5z M413.6,276.5h-4v-1h4V276.5z M406.6,276.5h-4v-1h4
			V276.5z M399.7,276.5h-4v-1h4V276.5z M392.7,276.5h-4v-1h4V276.5z M385.7,276.5h-4v-1h4V276.5z M378.7,276.5h-4v-1h4V276.5z
			 M371.8,276.5h-4v-1h4V276.5z M364.8,276.5h-4v-1h4V276.5z M357.8,276.5h-4v-1h4V276.5z M350.8,276.5h-4v-1h4V276.5z M343.9,276.5
			h-4v-1h4V276.5z M336.9,276.5h-4v-1h4V276.5z M329.9,276.5h-4v-1h4V276.5z M322.9,276.5h-4v-1h4V276.5z M316,276.5h-4v-1h4V276.5z
			 M309,276.5h-4v-1h4V276.5z M302,276.5h-4v-1h4V276.5z M295,276.5h-4v-1h4V276.5z M288.1,276.5h-4v-1h4V276.5z M281.1,276.5h-4v-1
			h4V276.5z M274.1,276.5h-4v-1h4V276.5z M267.1,276.5h-4v-1h4V276.5z M260.2,276.5h-4v-1h4V276.5z M253.2,276.5h-4v-1h4V276.5z
			 M246.2,276.5h-4v-1h4V276.5z M239.2,276.5h-4v-1h4V276.5z M232.3,276.5h-4v-1h4V276.5z M225.3,276.5h-4v-1h4V276.5z M218.3,276.5
			h-4v-1h4V276.5z M211.3,276.5h-4v-1h4V276.5z M204.4,276.5h-4v-1h4V276.5z M197.4,276.5h-4v-1h4V276.5z M190.4,276.5h-4v-1h4
			V276.5z M183.4,276.5h-4v-1h4V276.5z M176.5,276.5h-4v-1h4V276.5z M169.5,276.5h-4v-1h4V276.5z M162.5,276.5h-4v-1h4V276.5z
			 M155.5,276.5h-4v-1h4V276.5z M148.6,276.5h-4v-1h4V276.5z M141.6,276.5h-4v-1h4V276.5z M134.6,276.5h-4v-1h4V276.5z M127.6,276.5
			h-4v-1h4V276.5z M120.7,276.5h-4v-1h4V276.5z M113.7,276.5h-4v-1h4V276.5z M106.7,276.5h-4v-1h4V276.5z M99.7,276.5h-4v-1h4V276.5
			z M92.8,276.5h-4v-1h4V276.5z M85.8,276.5h-4v-1h4V276.5z M78.8,276.5h-4v-1h4V276.5z M71.9,276.5h-4v-1h4V276.5z M64.9,276.5h-4
			v-1h4V276.5z M57.9,276.5h-4v-1h4V276.5z M50.9,276.5h-4v-1h4V276.5z M44,276.5h-4v-1h4V276.5z M37,276.5h-4v-1h4V276.5z
			 M30,276.5h-4v-1h4V276.5z M23,276.5h-4v-1h4V276.5z M16.1,276.5h-4v-1h4V276.5z M9.1,276.5h-4v-1h4V276.5z"/>
		<rect x="0.1" y="275.5" class="st1" width="2" height="1"/>
	</g>
	<g>
		<rect x="218.5" y="0" class="st1" width="1" height="2"/>
		<path class="st1" d="M219.5,499h-1v-4h1V499z M219.5,492h-1v-4h1V492z M219.5,485h-1v-4h1V485z M219.5,478h-1v-4h1V478z
			 M219.5,471h-1v-4h1V471z M219.5,464h-1v-4h1V464z M219.5,457h-1v-4h1V457z M219.5,450h-1v-4h1V450z M219.5,443h-1v-4h1V443z
			 M219.5,436h-1v-4h1V436z M219.5,429h-1v-4h1V429z M219.5,422h-1v-4h1V422z M219.5,415h-1v-4h1V415z M219.5,408h-1v-4h1V408z
			 M219.5,401h-1v-4h1V401z M219.5,394h-1v-4h1V394z M219.5,387h-1v-4h1V387z M219.5,380h-1v-4h1V380z M219.5,373h-1v-4h1V373z
			 M219.5,366h-1v-4h1V366z M219.5,359h-1v-4h1V359z M219.5,352h-1v-4h1V352z M219.5,345h-1v-4h1V345z M219.5,338h-1v-4h1V338z
			 M219.5,331h-1v-4h1V331z M219.5,324h-1v-4h1V324z M219.5,317h-1v-4h1V317z M219.5,310h-1v-4h1V310z M219.5,303h-1v-4h1V303z
			 M219.5,296h-1v-4h1V296z M219.5,289h-1v-4h1V289z M219.5,282h-1v-4h1V282z M219.5,275h-1v-4h1V275z M219.5,268h-1v-4h1V268z
			 M219.5,261h-1v-4h1V261z M219.5,254h-1v-4h1V254z M219.5,247h-1v-4h1V247z M219.5,240h-1v-4h1V240z M219.5,233h-1v-4h1V233z
			 M219.5,226h-1v-4h1V226z M219.5,219h-1v-4h1V219z M219.5,212h-1v-4h1V212z M219.5,205h-1v-4h1V205z M219.5,198h-1v-4h1V198z
			 M219.5,191h-1v-4h1V191z M219.5,184h-1v-4h1V184z M219.5,177h-1v-4h1V177z M219.5,170h-1v-4h1V170z M219.5,163h-1v-4h1V163z
			 M219.5,156h-1v-4h1V156z M219.5,149h-1v-4h1V149z M219.5,142h-1v-4h1V142z M219.5,135h-1v-4h1V135z M219.5,128h-1v-4h1V128z
			 M219.5,121h-1v-4h1V121z M219.5,114h-1v-4h1V114z M219.5,107h-1v-4h1V107z M219.5,100h-1v-4h1V100z M219.5,93h-1v-4h1V93z
			 M219.5,86h-1v-4h1V86z M219.5,79h-1v-4h1V79z M219.5,72h-1v-4h1V72z M219.5,65h-1v-4h1V65z M219.5,58h-1v-4h1V58z M219.5,51h-1
			v-4h1V51z M219.5,44h-1v-4h1V44z M219.5,37h-1v-4h1V37z M219.5,30h-1v-4h1V30z M219.5,23h-1v-4h1V23z M219.5,16h-1v-4h1V16z
			 M219.5,9h-1V5h1V9z"/>
		<rect x="218.5" y="502" class="st1" width="1" height="2"/>
	</g>
	<g>
		<rect x="638.5" y="0" class="st1" width="1" height="2"/>
		<path class="st1" d="M639.5,499h-1v-4h1V499z M639.5,492h-1v-4h1V492z M639.5,485h-1v-4h1V485z M639.5,478h-1v-4h1V478z
			 M639.5,471h-1v-4h1V471z M639.5,464h-1v-4h1V464z M639.5,457h-1v-4h1V457z M639.5,450h-1v-4h1V450z M639.5,443h-1v-4h1V443z
			 M639.5,436h-1v-4h1V436z M639.5,429h-1v-4h1V429z M639.5,422h-1v-4h1V422z M639.5,415h-1v-4h1V415z M639.5,408h-1v-4h1V408z
			 M639.5,401h-1v-4h1V401z M639.5,394h-1v-4h1V394z M639.5,387h-1v-4h1V387z M639.5,380h-1v-4h1V380z M639.5,373h-1v-4h1V373z
			 M639.5,366h-1v-4h1V366z M639.5,359h-1v-4h1V359z M639.5,352h-1v-4h1V352z M639.5,345h-1v-4h1V345z M639.5,338h-1v-4h1V338z
			 M639.5,331h-1v-4h1V331z M639.5,324h-1v-4h1V324z M639.5,317h-1v-4h1V317z M639.5,310h-1v-4h1V310z M639.5,303h-1v-4h1V303z
			 M639.5,296h-1v-4h1V296z M639.5,289h-1v-4h1V289z M639.5,282h-1v-4h1V282z M639.5,275h-1v-4h1V275z M639.5,268h-1v-4h1V268z
			 M639.5,261h-1v-4h1V261z M639.5,254h-1v-4h1V254z M639.5,247h-1v-4h1V247z M639.5,240h-1v-4h1V240z M639.5,233h-1v-4h1V233z
			 M639.5,226h-1v-4h1V226z M639.5,219h-1v-4h1V219z M639.5,212h-1v-4h1V212z M639.5,205h-1v-4h1V205z M639.5,198h-1v-4h1V198z
			 M639.5,191h-1v-4h1V191z M639.5,184h-1v-4h1V184z M639.5,177h-1v-4h1V177z M639.5,170h-1v-4h1V170z M639.5,163h-1v-4h1V163z
			 M639.5,156h-1v-4h1V156z M639.5,149h-1v-4h1V149z M639.5,142h-1v-4h1V142z M639.5,135h-1v-4h1V135z M639.5,128h-1v-4h1V128z
			 M639.5,121h-1v-4h1V121z M639.5,114h-1v-4h1V114z M639.5,107h-1v-4h1V107z M639.5,100h-1v-4h1V100z M639.5,93h-1v-4h1V93z
			 M639.5,86h-1v-4h1V86z M639.5,79h-1v-4h1V79z M639.5,72h-1v-4h1V72z M639.5,65h-1v-4h1V65z M639.5,58h-1v-4h1V58z M639.5,51h-1
			v-4h1V51z M639.5,44h-1v-4h1V44z M639.5,37h-1v-4h1V37z M639.5,30h-1v-4h1V30z M639.5,23h-1v-4h1V23z M639.5,16h-1v-4h1V16z
			 M639.5,9h-1V5h1V9z"/>
		<rect x="638.5" y="502" class="st1" width="1" height="2"/>
	</g>
</g>
<g id="Layer_1">
	<path class="st1" d="M309,228h-18v48h18c13.2,0,24-10.8,24-24C333,238.8,322.3,228,309,228z M309,264h-6v-24h6c6.6,0,12,5.4,12,12
		S315.6,264,309,264z"/>
	<path class="st1" d="M375,228h-18v48h18c13.2,0,24-10.8,24-24C399,238.8,388.3,228,375,228z M375,264h-6v-24h6c6.6,0,12,5.4,12,12
		S381.6,264,375,264z"/>
	<path class="st1" d="M561.5,246c-5.4-0.5-5.4-3-5.4-3.8c0-1.9,1.7-3.8,4.9-3.8c2.9,0,4.9,1.5,4.9,3.8h12c0-9-7.2-15.8-16.9-15.8
		c-9.5,0-16.9,6.9-16.9,15.8c0,6.6,4.3,14.6,16.3,15.7c2,0.2,6.6,0.9,6.6,3.8c0,0.8-0.2,1.4-0.8,2c-1.1,1.1-3.1,1.7-5.3,1.7
		c-3.4,0-5.9-2-5.9-3.8h-12c0,8.7,8,15.8,17.9,15.8c5.4,0,10.4-1.9,13.8-5.3c2.8-2.8,4.3-6.5,4.3-10.5
		C579,254.9,574.4,247.2,561.5,246z"/>
	<path class="st1" d="M621.5,246c-5.4-0.5-5.4-3-5.4-3.8c0-1.9,1.7-3.8,4.9-3.8c2.9,0,4.9,1.5,4.9,3.8h12c0-9-7.2-15.8-16.9-15.8
		c-9.5,0-16.9,6.9-16.9,15.8c0,6.6,4.3,14.6,16.3,15.7c2,0.2,6.6,0.9,6.6,3.8c0,0.8-0.2,1.4-0.8,2c-1.1,1.1-3.1,1.7-5.3,1.7
		c-3.4,0-5.9-2-5.9-3.8h-12c0,8.7,8,15.8,17.9,15.8c5.4,0,10.4-1.9,13.8-5.3c2.8-2.8,4.3-6.5,4.3-10.5
		C639,254.9,634.4,247.2,621.5,246z"/>
	<polygon class="st1" points="486,276 519,276 519,264 498,264 498,258 519,258 519,246 498,246 498,240 519,240 519,228 486,228 	
		"/>
	<path class="st1" d="M462.2,276l-6.8-18.2c4.1-3,6.7-7.8,6.7-13.3c0-9.1-7.4-16.5-16.5-16.5H423v48h12v-15h8.7l5.6,15H462.2z
		 M435,249v-9h10.5c2.5,0,4.5,2,4.5,4.5s-2,4.5-4.5,4.5H435z"/>
	<path class="st1" d="M252.1,228H237l-18,48h12.8l2.3-6H255l2.3,6h12.8L252.1,228z M238.6,258l6-15.9l6,15.9H238.6z"/>
	<g>
		<rect x="856" y="227.5" class="st1" width="2" height="1"/>
		<path class="st1" d="M853,228.5h-4v-1h4V228.5z M846,228.5h-4v-1h4V228.5z M839.1,228.5h-4v-1h4V228.5z M832.1,228.5h-4v-1h4
			V228.5z M825.1,228.5h-4v-1h4V228.5z M818.1,228.5h-4v-1h4V228.5z M811.2,228.5h-4v-1h4V228.5z M804.2,228.5h-4v-1h4V228.5z
			 M797.2,228.5h-4v-1h4V228.5z M790.2,228.5h-4v-1h4V228.5z M783.3,228.5h-4v-1h4V228.5z M776.3,228.5h-4v-1h4V228.5z M769.3,228.5
			h-4v-1h4V228.5z M762.3,228.5h-4v-1h4V228.5z M755.4,228.5h-4v-1h4V228.5z M748.4,228.5h-4v-1h4V228.5z M741.4,228.5h-4v-1h4
			V228.5z M734.4,228.5h-4v-1h4V228.5z M727.5,228.5h-4v-1h4V228.5z M720.5,228.5h-4v-1h4V228.5z M713.5,228.5h-4v-1h4V228.5z
			 M706.5,228.5h-4v-1h4V228.5z M699.6,228.5h-4v-1h4V228.5z M692.6,228.5h-4v-1h4V228.5z M685.6,228.5h-4v-1h4V228.5z M678.6,228.5
			h-4v-1h4V228.5z M671.7,228.5h-4v-1h4V228.5z M664.7,228.5h-4v-1h4V228.5z M657.7,228.5h-4v-1h4V228.5z M650.7,228.5h-4v-1h4
			V228.5z M643.8,228.5h-4v-1h4V228.5z M636.8,228.5h-4v-1h4V228.5z M629.8,228.5h-4v-1h4V228.5z M622.8,228.5h-4v-1h4V228.5z
			 M615.9,228.5h-4v-1h4V228.5z M608.9,228.5h-4v-1h4V228.5z M601.9,228.5h-4v-1h4V228.5z M594.9,228.5h-4v-1h4V228.5z M588,228.5
			h-4v-1h4V228.5z M581,228.5h-4v-1h4V228.5z M574,228.5h-4v-1h4V228.5z M567.1,228.5h-4v-1h4V228.5z M560.1,228.5h-4v-1h4V228.5z
			 M553.1,228.5h-4v-1h4V228.5z M546.1,228.5h-4v-1h4V228.5z M539.2,228.5h-4v-1h4V228.5z M532.2,228.5h-4v-1h4V228.5z M525.2,228.5
			h-4v-1h4V228.5z M518.2,228.5h-4v-1h4V228.5z M511.3,228.5h-4v-1h4V228.5z M504.3,228.5h-4v-1h4V228.5z M497.3,228.5h-4v-1h4
			V228.5z M490.3,228.5h-4v-1h4V228.5z M483.4,228.5h-4v-1h4V228.5z M476.4,228.5h-4v-1h4V228.5z M469.4,228.5h-4v-1h4V228.5z
			 M462.4,228.5h-4v-1h4V228.5z M455.5,228.5h-4v-1h4V228.5z M448.5,228.5h-4v-1h4V228.5z M441.5,228.5h-4v-1h4V228.5z M434.5,228.5
			h-4v-1h4V228.5z M427.6,228.5h-4v-1h4V228.5z M420.6,228.5h-4v-1h4V228.5z M413.6,228.5h-4v-1h4V228.5z M406.6,228.5h-4v-1h4
			V228.5z M399.7,228.5h-4v-1h4V228.5z M392.7,228.5h-4v-1h4V228.5z M385.7,228.5h-4v-1h4V228.5z M378.7,228.5h-4v-1h4V228.5z
			 M371.8,228.5h-4v-1h4V228.5z M364.8,228.5h-4v-1h4V228.5z M357.8,228.5h-4v-1h4V228.5z M350.8,228.5h-4v-1h4V228.5z M343.9,228.5
			h-4v-1h4V228.5z M336.9,228.5h-4v-1h4V228.5z M329.9,228.5h-4v-1h4V228.5z M322.9,228.5h-4v-1h4V228.5z M316,228.5h-4v-1h4V228.5z
			 M309,228.5h-4v-1h4V228.5z M302,228.5h-4v-1h4V228.5z M295,228.5h-4v-1h4V228.5z M288.1,228.5h-4v-1h4V228.5z M281.1,228.5h-4v-1
			h4V228.5z M274.1,228.5h-4v-1h4V228.5z M267.1,228.5h-4v-1h4V228.5z M260.2,228.5h-4v-1h4V228.5z M253.2,228.5h-4v-1h4V228.5z
			 M246.2,228.5h-4v-1h4V228.5z M239.2,228.5h-4v-1h4V228.5z M232.3,228.5h-4v-1h4V228.5z M225.3,228.5h-4v-1h4V228.5z M218.3,228.5
			h-4v-1h4V228.5z M211.3,228.5h-4v-1h4V228.5z M204.4,228.5h-4v-1h4V228.5z M197.4,228.5h-4v-1h4V228.5z M190.4,228.5h-4v-1h4
			V228.5z M183.4,228.5h-4v-1h4V228.5z M176.5,228.5h-4v-1h4V228.5z M169.5,228.5h-4v-1h4V228.5z M162.5,228.5h-4v-1h4V228.5z
			 M155.5,228.5h-4v-1h4V228.5z M148.6,228.5h-4v-1h4V228.5z M141.6,228.5h-4v-1h4V228.5z M134.6,228.5h-4v-1h4V228.5z M127.6,228.5
			h-4v-1h4V228.5z M120.7,228.5h-4v-1h4V228.5z M113.7,228.5h-4v-1h4V228.5z M106.7,228.5h-4v-1h4V228.5z M99.7,228.5h-4v-1h4V228.5
			z M92.8,228.5h-4v-1h4V228.5z M85.8,228.5h-4v-1h4V228.5z M78.8,228.5h-4v-1h4V228.5z M71.9,228.5h-4v-1h4V228.5z M64.9,228.5h-4
			v-1h4V228.5z M57.9,228.5h-4v-1h4V228.5z M50.9,228.5h-4v-1h4V228.5z M44,228.5h-4v-1h4V228.5z M37,228.5h-4v-1h4V228.5z
			 M30,228.5h-4v-1h4V228.5z M23,228.5h-4v-1h4V228.5z M16.1,228.5h-4v-1h4V228.5z M9.1,228.5h-4v-1h4V228.5z"/>
		<rect x="0.1" y="227.5" class="st1" width="2" height="1"/>
	</g>
	<path class="st3" d="M309,270.5C309,270.5,309,270.5,309,270.5l0-1c0.2,0,0.4,0,0.6,0l0,1C309.4,270.5,309.2,270.5,309,270.5z
		 M312.6,270.1l-0.2-1c1.3-0.3,2.5-0.7,3.7-1.2l0.4,0.9C315.3,269.5,314,269.9,312.6,270.1z M319.2,267.4l-0.6-0.8
		c1.1-0.7,2.1-1.6,3-2.5l0.7,0.7C321.4,265.8,320.4,266.6,319.2,267.4z M324.3,262.4l-0.8-0.6c0.7-1.1,1.3-2.2,1.8-3.4l0.9,0.4
		C325.7,260,325.1,261.2,324.3,262.4z M327.1,255.8l-1-0.2c0.2-1.2,0.4-2.4,0.4-3.6l0-0.3l1,0l0,0.3
		C327.5,253.3,327.4,254.6,327.1,255.8z M326.2,248.8c-0.2-1.3-0.6-2.5-1.1-3.7l0.9-0.4c0.5,1.3,0.9,2.6,1.2,3.9L326.2,248.8z
		 M323.7,242.5c-0.7-1.1-1.5-2.1-2.4-3l0.7-0.7c1,1,1.8,2,2.6,3.2L323.7,242.5z M319,237.7c-1.1-0.7-2.2-1.4-3.4-1.9l0.4-0.9
		c1.3,0.5,2.5,1.2,3.6,2L319,237.7z M312.9,234.9c-1.3-0.3-2.6-0.4-3.9-0.4v-1c1.4,0,2.7,0.2,4.1,0.5L312.9,234.9z"/>
	<path class="st3" d="M375,270.5C375,270.5,375,270.5,375,270.5l0-1c0.2,0,0.4,0,0.6,0l0,1C375.4,270.5,375.2,270.5,375,270.5z
		 M378.6,270.1l-0.2-1c1.3-0.3,2.5-0.7,3.7-1.2l0.4,0.9C381.3,269.5,380,269.9,378.6,270.1z M385.2,267.4l-0.6-0.8
		c1.1-0.7,2.1-1.6,3-2.5l0.7,0.7C387.4,265.8,386.4,266.6,385.2,267.4z M390.3,262.4l-0.8-0.6c0.7-1.1,1.3-2.2,1.8-3.4l0.9,0.4
		C391.7,260,391.1,261.2,390.3,262.4z M393.1,255.8l-1-0.2c0.2-1.2,0.4-2.4,0.4-3.6l0-0.3l1,0l0,0.3
		C393.5,253.3,393.4,254.6,393.1,255.8z M392.2,248.8c-0.2-1.3-0.6-2.5-1.1-3.7l0.9-0.4c0.5,1.3,0.9,2.6,1.2,3.9L392.2,248.8z
		 M389.7,242.5c-0.7-1.1-1.5-2.1-2.4-3l0.7-0.7c1,1,1.8,2,2.6,3.2L389.7,242.5z M385,237.7c-1.1-0.7-2.2-1.4-3.4-1.9l0.4-0.9
		c1.3,0.5,2.5,1.2,3.6,2L385,237.7z M378.9,234.9c-1.3-0.3-2.6-0.4-3.9-0.4v-1c1.4,0,2.7,0.2,4.1,0.5L378.9,234.9z"/>
	<path class="st3" d="M446.5,255.5l-0.1-1c1.3-0.1,2.5-0.5,3.6-1.1l0.5,0.9C449.3,254.9,447.9,255.3,446.5,255.5z M453.1,252.5
		l-0.7-0.7c0.9-0.9,1.7-1.9,2.2-3.1l0.9,0.4C454.9,250.3,454.1,251.5,453.1,252.5z M456.4,246.1l-1-0.1c0.1-0.5,0.1-0.9,0.1-1.4
		c0-0.8-0.1-1.6-0.3-2.4l1-0.2c0.2,0.8,0.3,1.7,0.3,2.6C456.5,245,456.5,245.5,456.4,246.1z M454.2,239.5c-0.6-1.1-1.5-2.1-2.5-2.9
		l0.6-0.8c1.1,0.9,2,1.9,2.7,3.1L454.2,239.5z M449.2,235.2c-1.2-0.5-2.4-0.7-3.7-0.7v-1c1.4,0,2.8,0.3,4.1,0.8L449.2,235.2z"/>
	<path class="st3" d="M347.9,502l-1.4-3.7l0.9-0.4l1.4,3.7L347.9,502z M345.4,495.5l-1.4-3.7l0.9-0.4l1.4,3.7L345.4,495.5z
		 M342.9,488.9l-1.4-3.7l0.9-0.4l1.4,3.7L342.9,488.9z M340.5,482.4l-1.4-3.7l0.9-0.4l1.4,3.7L340.5,482.4z M338,475.8l-1.4-3.7
		l0.9-0.4l1.4,3.7L338,475.8z M335.6,469.3l-1.4-3.7l0.9-0.4l1.4,3.7L335.6,469.3z M333.1,462.7l-1.4-3.7l0.9-0.4l1.4,3.7
		L333.1,462.7z M330.7,456.2l-1.4-3.7l0.9-0.4l1.4,3.7L330.7,456.2z M328.2,449.6l-1.4-3.7l0.9-0.4l1.4,3.7L328.2,449.6z
		 M325.7,443.1l-1.4-3.7l0.9-0.4l1.4,3.7L325.7,443.1z M323.3,436.5l-1.4-3.7l0.9-0.4l1.4,3.7L323.3,436.5z M320.8,430l-1.4-3.7
		l0.9-0.4l1.4,3.7L320.8,430z M318.4,423.4l-1.4-3.7l0.9-0.4l1.4,3.7L318.4,423.4z M315.9,416.8l-1.4-3.7l0.9-0.4l1.4,3.7
		L315.9,416.8z M313.4,410.3l-1.4-3.7l0.9-0.4l1.4,3.7L313.4,410.3z M311,403.7l-1.4-3.7l0.9-0.4l1.4,3.7L311,403.7z M308.5,397.2
		l-1.4-3.7l0.9-0.4l1.4,3.7L308.5,397.2z M306.1,390.6l-1.4-3.7l0.9-0.4l1.4,3.7L306.1,390.6z M303.6,384.1l-1.4-3.7l0.9-0.4
		l1.4,3.7L303.6,384.1z M301.2,377.5l-1.4-3.7l0.9-0.4l1.4,3.7L301.2,377.5z M298.7,371l-1.4-3.7l0.9-0.4l1.4,3.7L298.7,371z
		 M296.2,364.4l-1.4-3.7l0.9-0.4l1.4,3.7L296.2,364.4z M293.8,357.9l-1.4-3.7l0.9-0.4l1.4,3.7L293.8,357.9z M291.3,351.3l-1.4-3.7
		l0.9-0.4l1.4,3.7L291.3,351.3z M288.9,344.7l-1.4-3.7l0.9-0.4l1.4,3.7L288.9,344.7z M286.4,338.2l-1.4-3.7l0.9-0.4l1.4,3.7
		L286.4,338.2z M284,331.6l-1.4-3.7l0.9-0.4l1.4,3.7L284,331.6z M281.5,325.1l-1.4-3.7l0.9-0.4l1.4,3.7L281.5,325.1z M279,318.5
		l-1.4-3.7l0.9-0.4l1.4,3.7L279,318.5z M276.6,312l-1.4-3.7l0.9-0.4l1.4,3.7L276.6,312z M274.1,305.4l-1.4-3.7l0.9-0.4l1.4,3.7
		L274.1,305.4z M271.7,298.9l-1.4-3.7l0.9-0.4l1.4,3.7L271.7,298.9z M269.2,292.3l-1.4-3.7l0.9-0.4l1.4,3.7L269.2,292.3z
		 M266.7,285.8l-1.4-3.7l0.9-0.4l1.4,3.7L266.7,285.8z M264.3,279.2l-1.4-3.7l0.9-0.4l1.4,3.7L264.3,279.2z M261.8,272.6l-1.4-3.7
		l0.9-0.4l1.4,3.7L261.8,272.6z M259.4,266.1l-1.4-3.7l0.9-0.4l1.4,3.7L259.4,266.1z M256.9,259.5l-1.4-3.7l0.9-0.4l1.4,3.7
		L256.9,259.5z M254.5,253l-1.4-3.7l0.9-0.4l1.4,3.7L254.5,253z M252,246.4l-1.4-3.7l0.9-0.4l1.4,3.7L252,246.4z M249.5,239.9
		l-1.4-3.7l0.9-0.4l1.4,3.7L249.5,239.9z M247.1,233.3l-1.4-3.7l0.9-0.4l1.4,3.7L247.1,233.3z M244.6,226.8l-1.4-3.7l0.9-0.4
		l1.4,3.7L244.6,226.8z M242.2,220.2l-1.4-3.7l0.9-0.4l1.4,3.7L242.2,220.2z M239.7,213.7l-1.4-3.7l0.9-0.4l1.4,3.7L239.7,213.7z
		 M237.3,207.1l-1.4-3.7l0.9-0.4l1.4,3.7L237.3,207.1z M234.8,200.6l-1.4-3.7l0.9-0.4l1.4,3.7L234.8,200.6z M232.3,194l-1.4-3.7
		l0.9-0.4l1.4,3.7L232.3,194z M229.9,187.4l-1.4-3.7l0.9-0.4l1.4,3.7L229.9,187.4z M227.4,180.9l-1.4-3.7l0.9-0.4l1.4,3.7
		L227.4,180.9z M225,174.3l-1.4-3.7l0.9-0.4l1.4,3.7L225,174.3z M222.5,167.8l-1.4-3.7l0.9-0.4l1.4,3.7L222.5,167.8z M220,161.2
		l-1.4-3.7l0.9-0.4l1.4,3.7L220,161.2z M217.6,154.7l-1.4-3.7l0.9-0.4l1.4,3.7L217.6,154.7z M215.1,148.1l-1.4-3.7l0.9-0.4l1.4,3.7
		L215.1,148.1z M212.7,141.6l-1.4-3.7l0.9-0.4l1.4,3.7L212.7,141.6z M210.2,135l-1.4-3.7l0.9-0.4l1.4,3.7L210.2,135z M207.8,128.5
		l-1.4-3.7l0.9-0.4l1.4,3.7L207.8,128.5z M205.3,121.9l-1.4-3.7l0.9-0.4l1.4,3.7L205.3,121.9z M202.8,115.3l-1.4-3.7l0.9-0.4
		l1.4,3.7L202.8,115.3z M200.4,108.8L199,105l0.9-0.4l1.4,3.7L200.4,108.8z M197.9,102.2l-1.4-3.7l0.9-0.4l1.4,3.7L197.9,102.2z
		 M195.5,95.7l-1.4-3.7l0.9-0.4l1.4,3.7L195.5,95.7z M193,89.1l-1.4-3.7l0.9-0.4l1.4,3.7L193,89.1z M190.6,82.6l-1.4-3.7l0.9-0.4
		l1.4,3.7L190.6,82.6z M188.1,76l-1.4-3.7l0.9-0.4l1.4,3.7L188.1,76z M185.6,69.5l-1.4-3.7l0.9-0.4l1.4,3.7L185.6,69.5z M183.2,62.9
		l-1.4-3.7l0.9-0.4l1.4,3.7L183.2,62.9z M180.7,56.4l-1.4-3.7l0.9-0.4l1.4,3.7L180.7,56.4z M178.3,49.8l-1.4-3.7l0.9-0.4l1.4,3.7
		L178.3,49.8z M175.8,43.2l-1.4-3.7l0.9-0.4l1.4,3.7L175.8,43.2z M173.4,36.7l-1.4-3.7l0.9-0.4l1.4,3.7L173.4,36.7z M170.9,30.1
		l-1.4-3.7l0.9-0.4l1.4,3.7L170.9,30.1z M168.4,23.6l-1.4-3.7l0.9-0.4l1.4,3.7L168.4,23.6z M166,17l-1.4-3.7l0.9-0.4l1.4,3.7L166,17
		z M163.5,10.5l-1.4-3.7l0.9-0.4l1.4,3.7L163.5,10.5z M161.1,3.9l-1.4-3.7l0.9-0.4l1.4,3.7L161.1,3.9z"/>
	<path class="st3" d="M140.5,503.8l-0.9-0.4l1.4-3.7l0.9,0.4L140.5,503.8z M142.9,497.3l-0.9-0.4l1.4-3.7l0.9,0.4L142.9,497.3z
		 M145.4,490.7l-0.9-0.4l1.4-3.7l0.9,0.4L145.4,490.7z M147.8,484.2l-0.9-0.4l1.4-3.7l0.9,0.4L147.8,484.2z M150.3,477.6l-0.9-0.4
		l1.4-3.7l0.9,0.4L150.3,477.6z M152.8,471.1l-0.9-0.4l1.4-3.7l0.9,0.4L152.8,471.1z M155.2,464.5l-0.9-0.4l1.4-3.7l0.9,0.4
		L155.2,464.5z M157.7,458l-0.9-0.4l1.4-3.7l0.9,0.4L157.7,458z M160.1,451.4l-0.9-0.4l1.4-3.7l0.9,0.4L160.1,451.4z M162.6,444.9
		l-0.9-0.4l1.4-3.7l0.9,0.4L162.6,444.9z M165,438.3l-0.9-0.4l1.4-3.7l0.9,0.4L165,438.3z M167.5,431.7l-0.9-0.4l1.4-3.7l0.9,0.4
		L167.5,431.7z M170,425.2l-0.9-0.4l1.4-3.7l0.9,0.4L170,425.2z M172.4,418.6l-0.9-0.4l1.4-3.7l0.9,0.4L172.4,418.6z M174.9,412.1
		l-0.9-0.4l1.4-3.7l0.9,0.4L174.9,412.1z M177.3,405.5l-0.9-0.4l1.4-3.7l0.9,0.4L177.3,405.5z M179.8,399l-0.9-0.4l1.4-3.7l0.9,0.4
		L179.8,399z M182.3,392.4l-0.9-0.4l1.4-3.7l0.9,0.4L182.3,392.4z M184.7,385.9l-0.9-0.4l1.4-3.7l0.9,0.4L184.7,385.9z M187.2,379.3
		l-0.9-0.4l1.4-3.7l0.9,0.4L187.2,379.3z M189.6,372.8l-0.9-0.4l1.4-3.7l0.9,0.4L189.6,372.8z M192.1,366.2l-0.9-0.4l1.4-3.7
		l0.9,0.4L192.1,366.2z M194.5,359.6l-0.9-0.4l1.4-3.7l0.9,0.4L194.5,359.6z M197,353.1l-0.9-0.4l1.4-3.7l0.9,0.4L197,353.1z
		 M199.5,346.5l-0.9-0.4l1.4-3.7l0.9,0.4L199.5,346.5z M201.9,340l-0.9-0.4l1.4-3.7l0.9,0.4L201.9,340z M204.4,333.4l-0.9-0.4
		l1.4-3.7l0.9,0.4L204.4,333.4z M206.8,326.9l-0.9-0.4l1.4-3.7l0.9,0.4L206.8,326.9z M209.3,320.3l-0.9-0.4l1.4-3.7l0.9,0.4
		L209.3,320.3z M211.7,313.8l-0.9-0.4l1.4-3.7l0.9,0.4L211.7,313.8z M214.2,307.2l-0.9-0.4l1.4-3.7l0.9,0.4L214.2,307.2z
		 M216.7,300.7l-0.9-0.4l1.4-3.7l0.9,0.4L216.7,300.7z M219.1,294.1l-0.9-0.4l1.4-3.7l0.9,0.4L219.1,294.1z M221.6,287.6l-0.9-0.4
		l1.4-3.7l0.9,0.4L221.6,287.6z M224,281l-0.9-0.4l1.4-3.7l0.9,0.4L224,281z M226.5,274.4l-0.9-0.4l1.4-3.7l0.9,0.4L226.5,274.4z
		 M229,267.9l-0.9-0.4l1.4-3.7l0.9,0.4L229,267.9z M231.4,261.3l-0.9-0.4l1.4-3.7l0.9,0.4L231.4,261.3z M233.9,254.8l-0.9-0.4
		l1.4-3.7l0.9,0.4L233.9,254.8z M236.3,248.2l-0.9-0.4l1.4-3.7l0.9,0.4L236.3,248.2z M238.8,241.7l-0.9-0.4l1.4-3.7l0.9,0.4
		L238.8,241.7z M241.2,235.1l-0.9-0.4l1.4-3.7l0.9,0.4L241.2,235.1z M243.7,228.6l-0.9-0.4l1.4-3.7l0.9,0.4L243.7,228.6z M246.2,222
		l-0.9-0.4l1.4-3.7l0.9,0.4L246.2,222z M248.6,215.5l-0.9-0.4l1.4-3.7l0.9,0.4L248.6,215.5z M251.1,208.9l-0.9-0.4l1.4-3.7l0.9,0.4
		L251.1,208.9z M253.5,202.3l-0.9-0.4l1.4-3.7l0.9,0.4L253.5,202.3z M256,195.8l-0.9-0.4l1.4-3.7l0.9,0.4L256,195.8z M258.4,189.2
		l-0.9-0.4l1.4-3.7l0.9,0.4L258.4,189.2z M260.9,182.7l-0.9-0.4l1.4-3.7l0.9,0.4L260.9,182.7z M263.4,176.1l-0.9-0.4l1.4-3.7
		l0.9,0.4L263.4,176.1z M265.8,169.6l-0.9-0.4l1.4-3.7l0.9,0.4L265.8,169.6z M268.3,163l-0.9-0.4l1.4-3.7l0.9,0.4L268.3,163z
		 M270.7,156.5l-0.9-0.4l1.4-3.7l0.9,0.4L270.7,156.5z M273.2,149.9l-0.9-0.4l1.4-3.7l0.9,0.4L273.2,149.9z M275.7,143.4l-0.9-0.4
		l1.4-3.7l0.9,0.4L275.7,143.4z M278.1,136.8l-0.9-0.4l1.4-3.7l0.9,0.4L278.1,136.8z M280.6,130.2l-0.9-0.4l1.4-3.7l0.9,0.4
		L280.6,130.2z M283,123.7l-0.9-0.4l1.4-3.7l0.9,0.4L283,123.7z M285.5,117.1l-0.9-0.4l1.4-3.7l0.9,0.4L285.5,117.1z M287.9,110.6
		l-0.9-0.4l1.4-3.7l0.9,0.4L287.9,110.6z M290.4,104l-0.9-0.4l1.4-3.7l0.9,0.4L290.4,104z M292.9,97.5l-0.9-0.4l1.4-3.7l0.9,0.4
		L292.9,97.5z M295.3,90.9l-0.9-0.4l1.4-3.7l0.9,0.4L295.3,90.9z M297.8,84.4l-0.9-0.4l1.4-3.7l0.9,0.4L297.8,84.4z M300.2,77.8
		l-0.9-0.4l1.4-3.7l0.9,0.4L300.2,77.8z M302.7,71.3l-0.9-0.4l1.4-3.7l0.9,0.4L302.7,71.3z M305.1,64.7l-0.9-0.4l1.4-3.7l0.9,0.4
		L305.1,64.7z M307.6,58.1l-0.9-0.4l1.4-3.7l0.9,0.4L307.6,58.1z M310.1,51.6l-0.9-0.4l1.4-3.7l0.9,0.4L310.1,51.6z M312.5,45
		l-0.9-0.4l1.4-3.7l0.9,0.4L312.5,45z M315,38.5l-0.9-0.4l1.4-3.7l0.9,0.4L315,38.5z M317.4,31.9l-0.9-0.4l1.4-3.7l0.9,0.4
		L317.4,31.9z M319.9,25.4L319,25l1.4-3.7l0.9,0.4L319.9,25.4z M322.4,18.8l-0.9-0.4l1.4-3.7l0.9,0.4L322.4,18.8z M324.8,12.3
		l-0.9-0.4l1.4-3.7l0.9,0.4L324.8,12.3z M327.3,5.7l-0.9-0.4l1.4-3.7l0.9,0.4L327.3,5.7z"/>
	<path class="st3" d="M539.9,502l-1.4-3.7l0.9-0.4l1.4,3.7L539.9,502z M537.5,495.5l-1.4-3.7l0.9-0.4l1.4,3.7L537.5,495.5z
		 M535,488.9l-1.4-3.7l0.9-0.4l1.4,3.7L535,488.9z M532.6,482.4l-1.4-3.7l0.9-0.4l1.4,3.7L532.6,482.4z M530.1,475.8l-1.4-3.7
		l0.9-0.4l1.4,3.7L530.1,475.8z M527.7,469.3l-1.4-3.7l0.9-0.4l1.4,3.7L527.7,469.3z M525.2,462.7l-1.4-3.7l0.9-0.4l1.4,3.7
		L525.2,462.7z M522.7,456.2l-1.4-3.7l0.9-0.4l1.4,3.7L522.7,456.2z M520.3,449.6l-1.4-3.7l0.9-0.4l1.4,3.7L520.3,449.6z
		 M517.8,443.1l-1.4-3.7l0.9-0.4l1.4,3.7L517.8,443.1z M515.4,436.5l-1.4-3.7l0.9-0.4l1.4,3.7L515.4,436.5z M512.9,430l-1.4-3.7
		l0.9-0.4l1.4,3.7L512.9,430z M510.5,423.4l-1.4-3.7l0.9-0.4l1.4,3.7L510.5,423.4z M508,416.8l-1.4-3.7l0.9-0.4l1.4,3.7L508,416.8z
		 M505.5,410.3l-1.4-3.7l0.9-0.4l1.4,3.7L505.5,410.3z M503.1,403.7l-1.4-3.7l0.9-0.4l1.4,3.7L503.1,403.7z M500.6,397.2l-1.4-3.7
		l0.9-0.4l1.4,3.7L500.6,397.2z M498.2,390.6l-1.4-3.7l0.9-0.4l1.4,3.7L498.2,390.6z M495.7,384.1l-1.4-3.7l0.9-0.4l1.4,3.7
		L495.7,384.1z M493.2,377.5l-1.4-3.7l0.9-0.4l1.4,3.7L493.2,377.5z M490.8,371l-1.4-3.7l0.9-0.4l1.4,3.7L490.8,371z M488.3,364.4
		l-1.4-3.7l0.9-0.4l1.4,3.7L488.3,364.4z M485.9,357.9l-1.4-3.7l0.9-0.4l1.4,3.7L485.9,357.9z M483.4,351.3l-1.4-3.7l0.9-0.4
		l1.4,3.7L483.4,351.3z M481,344.7l-1.4-3.7l0.9-0.4l1.4,3.7L481,344.7z M478.5,338.2l-1.4-3.7l0.9-0.4l1.4,3.7L478.5,338.2z
		 M476,331.6l-1.4-3.7l0.9-0.4l1.4,3.7L476,331.6z M473.6,325.1l-1.4-3.7l0.9-0.4l1.4,3.7L473.6,325.1z M471.1,318.5l-1.4-3.7
		l0.9-0.4l1.4,3.7L471.1,318.5z M468.7,312l-1.4-3.7l0.9-0.4l1.4,3.7L468.7,312z M466.2,305.4l-1.4-3.7l0.9-0.4l1.4,3.7L466.2,305.4
		z M463.8,298.9l-1.4-3.7l0.9-0.4l1.4,3.7L463.8,298.9z M461.3,292.3l-1.4-3.7l0.9-0.4l1.4,3.7L461.3,292.3z M458.8,285.8l-1.4-3.7
		l0.9-0.4l1.4,3.7L458.8,285.8z M456.4,279.2l-1.4-3.7l0.9-0.4l1.4,3.7L456.4,279.2z M453.9,272.6l-1.4-3.7l0.9-0.4l1.4,3.7
		L453.9,272.6z M451.5,266.1l-1.4-3.7l0.9-0.4l1.4,3.7L451.5,266.1z M449,259.5l-1.4-3.7l0.9-0.4l1.4,3.7L449,259.5z M446.5,253
		l-1.4-3.7l0.9-0.4l1.4,3.7L446.5,253z M444.1,246.4l-1.4-3.7l0.9-0.4l1.4,3.7L444.1,246.4z M441.6,239.9l-1.4-3.7l0.9-0.4l1.4,3.7
		L441.6,239.9z M439.2,233.3l-1.4-3.7l0.9-0.4l1.4,3.7L439.2,233.3z M436.7,226.8l-1.4-3.7l0.9-0.4l1.4,3.7L436.7,226.8z
		 M434.3,220.2l-1.4-3.7l0.9-0.4l1.4,3.7L434.3,220.2z M431.8,213.7l-1.4-3.7l0.9-0.4l1.4,3.7L431.8,213.7z M429.3,207.1l-1.4-3.7
		l0.9-0.4l1.4,3.7L429.3,207.1z M426.9,200.5l-1.4-3.7l0.9-0.4l1.4,3.7L426.9,200.5z M424.4,194l-1.4-3.7l0.9-0.4l1.4,3.7L424.4,194
		z M422,187.4l-1.4-3.7l0.9-0.4l1.4,3.7L422,187.4z M419.5,180.9l-1.4-3.7l0.9-0.4l1.4,3.7L419.5,180.9z M417.1,174.3l-1.4-3.7
		l0.9-0.4l1.4,3.7L417.1,174.3z M414.6,167.8l-1.4-3.7l0.9-0.4l1.4,3.7L414.6,167.8z M412.1,161.2l-1.4-3.7l0.9-0.4l1.4,3.7
		L412.1,161.2z M409.7,154.7l-1.4-3.7l0.9-0.4l1.4,3.7L409.7,154.7z M407.2,148.1l-1.4-3.7l0.9-0.4l1.4,3.7L407.2,148.1z
		 M404.8,141.6l-1.4-3.7l0.9-0.4l1.4,3.7L404.8,141.6z M402.3,135l-1.4-3.7l0.9-0.4l1.4,3.7L402.3,135z M399.8,128.5l-1.4-3.7
		l0.9-0.4l1.4,3.7L399.8,128.5z M397.4,121.9l-1.4-3.7l0.9-0.4l1.4,3.7L397.4,121.9z M394.9,115.3l-1.4-3.7l0.9-0.4l1.4,3.7
		L394.9,115.3z M392.5,108.8l-1.4-3.7l0.9-0.4l1.4,3.7L392.5,108.8z M390,102.2l-1.4-3.7l0.9-0.4l1.4,3.7L390,102.2z M387.6,95.7
		l-1.4-3.7l0.9-0.4l1.4,3.7L387.6,95.7z M385.1,89.1l-1.4-3.7l0.9-0.4l1.4,3.7L385.1,89.1z M382.6,82.6l-1.4-3.7l0.9-0.4l1.4,3.7
		L382.6,82.6z M380.2,76l-1.4-3.7l0.9-0.4l1.4,3.7L380.2,76z M377.7,69.5l-1.4-3.7l0.9-0.4l1.4,3.7L377.7,69.5z M375.3,62.9
		l-1.4-3.7l0.9-0.4l1.4,3.7L375.3,62.9z M372.8,56.4l-1.4-3.7l0.9-0.4l1.4,3.7L372.8,56.4z M370.4,49.8l-1.4-3.7l0.9-0.4l1.4,3.7
		L370.4,49.8z M367.9,43.2l-1.4-3.7l0.9-0.4l1.4,3.7L367.9,43.2z M365.4,36.7l-1.4-3.7l0.9-0.4l1.4,3.7L365.4,36.7z M363,30.1
		l-1.4-3.7l0.9-0.4l1.4,3.7L363,30.1z M360.5,23.6l-1.4-3.7l0.9-0.4l1.4,3.7L360.5,23.6z M358.1,17l-1.4-3.7l0.9-0.4l1.4,3.7
		L358.1,17z M355.6,10.5l-1.4-3.7l0.9-0.4l1.4,3.7L355.6,10.5z M353.1,3.9l-1.4-3.7l0.9-0.4l1.4,3.7L353.1,3.9z"/>
</g>
</svg>
