<?xml version="1.0" encoding="utf-8"?>
<!-- Generator: Adobe Illustrator 23.1.0, SVG Export Plug-In . SVG Version: 6.00 Build 0)  -->
<svg version="1.1" id="Layer_1" xmlns="http://www.w3.org/2000/svg" xmlns:xlink="http://www.w3.org/1999/xlink" x="0px" y="0px"
	 viewBox="0 0 504 504" style="enable-background:new 0 0 504 504;" xml:space="preserve">
<style type="text/css">
	.st0{fill:#FF8873;}
	.st1{fill:none;stroke:#FFFFFF;stroke-miterlimit:10;stroke-dasharray:4,3;}
	.st2{fill:#FFFFFF;}
	.st3{fill:none;stroke:#FFFFFF;stroke-miterlimit:10;}
	.st4{fill:none;stroke:#FFFFFF;stroke-miterlimit:10;stroke-dasharray:3.9111,2.9333;}
	.st5{fill:none;stroke:#FFFFFF;stroke-miterlimit:10;stroke-dasharray:3.9148,2.9361;}
	.st6{fill:none;stroke:#FFFFFF;stroke-miterlimit:10;stroke-dasharray:3.915,2.9363;}
	.st7{fill:none;stroke:#FFFFFF;stroke-miterlimit:10;stroke-dasharray:3.915,2.9362;}
	.st8{fill:none;stroke:#FFFFFF;stroke-miterlimit:10;stroke-dasharray:3.9149,2.9362;}
</style>
<rect width="504" height="504"/>
<g>
	<rect x="348" y="228" class="st0" width="96" height="48"/>
	<rect x="60" y="228" class="st0" width="96" height="48"/>
	<rect x="228" y="60" class="st0" width="48" height="96"/>
	<rect x="228" y="348" class="st0" width="48" height="96"/>
	<rect x="108" y="108" class="st1" width="288" height="288"/>
	<path class="st1" d="M395.6,396H108.4c-0.2,0-0.4-0.2-0.4-0.4V108.4c0-0.2,0.2-0.4,0.4-0.4h287.2c0.2,0,0.4,0.2,0.4,0.4v287.2
		C396,395.8,395.8,396,395.6,396z"/>
	<path class="st1" d="M252,396L252,396c-79.5,0-144-64.5-144-144l0,0c0-79.5,64.5-144,144-144l0,0c79.5,0,144,64.5,144,144l0,0
		C396,331.5,331.5,396,252,396z"/>
	<g>
		<rect x="228" y="252" class="st2" width="48" height="96"/>
		<polygon class="st2" points="188,220 252,156 316,220 		"/>
	</g>
	<g>
		<g>
			<line class="st3" x1="228" y1="444" x2="230" y2="444"/>
			<line class="st4" x1="232.9" y1="444" x2="272.5" y2="444"/>
			<line class="st3" x1="274" y1="444" x2="276" y2="444"/>
		</g>
	</g>
	<g>
		<g>
			<line class="st3" x1="228" y1="60" x2="230" y2="60"/>
			<line class="st4" x1="232.9" y1="60" x2="272.5" y2="60"/>
			<line class="st3" x1="274" y1="60" x2="276" y2="60"/>
		</g>
	</g>
	<g>
		<g>
			<line class="st3" x1="60" y1="228" x2="60" y2="230"/>
			<line class="st4" x1="60" y1="232.9" x2="60" y2="272.5"/>
			<line class="st3" x1="60" y1="274" x2="60" y2="276"/>
		</g>
	</g>
	<g>
		<g>
			<line class="st3" x1="444" y1="228" x2="444" y2="230"/>
			<line class="st4" x1="444" y1="232.9" x2="444" y2="272.5"/>
			<line class="st3" x1="444" y1="274" x2="444" y2="276"/>
		</g>
	</g>
	<g>
		<g>
			<line class="st3" x1="156" y1="276" x2="154" y2="276"/>
			<line class="st5" x1="151.1" y1="276" x2="63.5" y2="276"/>
			<line class="st3" x1="62" y1="276" x2="60" y2="276"/>
		</g>
	</g>
	<g>
		<g>
			<line class="st3" x1="156" y1="228" x2="154" y2="228"/>
			<line class="st5" x1="151.1" y1="228" x2="63.5" y2="228"/>
			<line class="st3" x1="62" y1="228" x2="60" y2="228"/>
		</g>
	</g>
	<g>
		<g>
			<line class="st3" x1="444" y1="276" x2="442" y2="276"/>
			<line class="st6" x1="439.1" y1="276" x2="351.5" y2="276"/>
			<line class="st3" x1="350" y1="276" x2="348" y2="276"/>
		</g>
	</g>
	<g>
		<g>
			<line class="st3" x1="444" y1="228" x2="442" y2="228"/>
			<line class="st6" x1="439.1" y1="228" x2="351.5" y2="228"/>
			<line class="st3" x1="350" y1="228" x2="348" y2="228"/>
		</g>
	</g>
	<g>
		<g>
			<line class="st3" x1="228" y1="156" x2="228" y2="154"/>
			<line class="st7" x1="228" y1="151.1" x2="228" y2="63.5"/>
			<line class="st3" x1="228" y1="62" x2="228" y2="60"/>
		</g>
	</g>
	<g>
		<g>
			<line class="st3" x1="276" y1="156" x2="276" y2="154"/>
			<line class="st7" x1="276" y1="151.1" x2="276" y2="63.5"/>
			<line class="st3" x1="276" y1="62" x2="276" y2="60"/>
		</g>
	</g>
	<g>
		<g>
			<line class="st3" x1="228" y1="444" x2="228" y2="442"/>
			<line class="st8" x1="228" y1="439.1" x2="228" y2="351.5"/>
			<line class="st3" x1="228" y1="350" x2="228" y2="348"/>
		</g>
	</g>
	<g>
		<g>
			<line class="st3" x1="276" y1="444" x2="276" y2="442"/>
			<line class="st8" x1="276" y1="439.1" x2="276" y2="351.5"/>
			<line class="st3" x1="276" y1="350" x2="276" y2="348"/>
		</g>
	</g>
	<rect x="156" y="156" class="st1" width="192" height="192"/>
	<path class="st1" d="M396,300c0,53-43,96-96,96"/>
	<path class="st1" d="M300,108c53,0,96,43,96,96"/>
	<path class="st1" d="M108,204c0-53,43-96,96-96"/>
	<path class="st1" d="M204,396c-53,0-96-43-96-96"/>
	<path class="st1" d="M396,348c0,26.5-21.5,48-48,48"/>
	<path class="st1" d="M348,108c26.5,0,48,21.5,48,48"/>
	<path class="st1" d="M108,156c0-26.5,21.5-48,48-48"/>
	<path class="st1" d="M156,396c-26.5,0-48-21.5-48-48"/>
</g>
</svg>
