<?xml version="1.0" encoding="utf-8"?>
<!-- Generator: Adobe Illustrator 23.1.0, SVG Export Plug-In . SVG Version: 6.00 Build 0)  -->
<svg version="1.1" xmlns="http://www.w3.org/2000/svg" xmlns:xlink="http://www.w3.org/1999/xlink" x="0px" y="0px"
	 viewBox="0 0 858 504" style="enable-background:new 0 0 858 504;" xml:space="preserve">
<style type="text/css">
	.st0{fill:#DBD4D3;}
	.st1{fill:#FFFFFF;}
	.st2{fill:#242121;}
	.st3{fill:#C7C0BF;}
	.st4{fill:#5C5958;}
	.st5{fill:#FF8873;}
	.st6{fill:#78FFA5;}
	.st7{fill:#907DFF;}
	.st8{fill:#FFE876;}
	.st9{fill:#7BD7FF;}
</style>
<g id="Layer_2">
</g>
<g id="Layer_1">
	<rect y="0" class="st5" width="858" height="504"/>
	<g>
		<polygon class="st1" points="576.1,192 624.1,144 672.1,192 		"/>
		<polygon class="st1" points="540.1,216 504.1,216 504.1,288 540.1,288 576.1,252 		"/>
		<rect x="606.1" y="216" class="st1" width="36" height="72"/>
		<polygon class="st1" points="324.1,216 324.1,252 306.1,252 306.1,216 270.1,216 270.1,252 252.1,252 252.1,216 216.1,216 
			216.1,288 360.1,288 360.1,216 		"/>
		<path class="st1" d="M396.1,288v-36c19.9,0,36-16.1,36-36h36C468.1,255.7,435.8,288,396.1,288z"/>
	</g>
</g>
</svg>
