<?xml version="1.0" encoding="utf-8"?>
<!-- Generator: Adobe Illustrator 23.1.0, SVG Export Plug-In . SVG Version: 6.00 Build 0)  -->
<svg version="1.1" xmlns="http://www.w3.org/2000/svg" xmlns:xlink="http://www.w3.org/1999/xlink" x="0px" y="0px"
	 viewBox="0 0 858 360" style="enable-background:new 0 0 858 360;" xml:space="preserve">
<style type="text/css">
	.st0{fill:#DBD4D3;}
	.st1{fill:#FFFFFF;}
	.st2{fill:#242121;}
	.st3{fill:#C7C0BF;}
	.st4{fill:#5C5958;}
	.st5{fill:#FF8873;}
	.st6{fill:#78FFA5;}
	.st7{fill:#907DFF;}
	.st8{fill:#FFE876;}
	.st9{fill:#7BD7FF;}
</style>
<g id="Layer_2">
	<rect x="0.2" y="0" class="st0" width="857.8" height="360"/>
</g>
<g id="Layer_1">
	<rect x="430" y="180" class="st5" width="36" height="18"/>
	<rect x="391" y="180" class="st5" width="36" height="18"/>
	<polygon class="st1" points="627.9,162 609.9,162 609.9,198 627.9,198 645.9,180 	"/>
	<rect x="660.9" y="162" class="st1" width="18" height="36"/>
	<path class="st1" d="M555.9,198v-18c9.9,0,18-8.1,18-18h18C591.9,181.8,575.8,198,555.9,198z"/>
	<polygon class="st1" points="646,150 670,126 694,150 	"/>
	<g>
		<rect x="0" y="149.5" class="st1" width="2" height="1"/>
		<path class="st1" d="M851.9,150.5h-4v-1h4V150.5z M844.9,150.5h-4v-1h4V150.5z M837.8,150.5h-4v-1h4V150.5z M830.8,150.5h-4v-1h4
			V150.5z M823.8,150.5h-4v-1h4V150.5z M816.8,150.5h-4v-1h4V150.5z M809.8,150.5h-4v-1h4V150.5z M802.7,150.5h-4v-1h4V150.5z
			 M795.7,150.5h-4v-1h4V150.5z M788.7,150.5h-4v-1h4V150.5z M781.7,150.5h-4v-1h4V150.5z M774.6,150.5h-4v-1h4V150.5z M767.6,150.5
			h-4v-1h4V150.5z M760.6,150.5h-4v-1h4V150.5z M753.6,150.5h-4v-1h4V150.5z M746.5,150.5h-4v-1h4V150.5z M739.5,150.5h-4v-1h4
			V150.5z M732.5,150.5h-4v-1h4V150.5z M725.5,150.5h-4v-1h4V150.5z M718.4,150.5h-4v-1h4V150.5z M711.4,150.5h-4v-1h4V150.5z
			 M704.4,150.5h-4v-1h4V150.5z M697.4,150.5h-4v-1h4V150.5z M690.3,150.5h-4v-1h4V150.5z M683.3,150.5h-4v-1h4V150.5z M676.3,150.5
			h-4v-1h4V150.5z M669.3,150.5h-4v-1h4V150.5z M662.3,150.5h-4v-1h4V150.5z M655.2,150.5h-4v-1h4V150.5z M648.2,150.5h-4v-1h4
			V150.5z M641.2,150.5h-4v-1h4V150.5z M634.2,150.5h-4v-1h4V150.5z M627.1,150.5h-4v-1h4V150.5z M620.1,150.5h-4v-1h4V150.5z
			 M613.1,150.5h-4v-1h4V150.5z M606.1,150.5h-4v-1h4V150.5z M599,150.5h-4v-1h4V150.5z M592,150.5h-4v-1h4V150.5z M585,150.5h-4v-1
			h4V150.5z M578,150.5h-4v-1h4V150.5z M570.9,150.5h-4v-1h4V150.5z M563.9,150.5h-4v-1h4V150.5z M556.9,150.5h-4v-1h4V150.5z
			 M549.9,150.5h-4v-1h4V150.5z M542.8,150.5h-4v-1h4V150.5z M535.8,150.5h-4v-1h4V150.5z M528.8,150.5h-4v-1h4V150.5z M521.8,150.5
			h-4v-1h4V150.5z M514.7,150.5h-4v-1h4V150.5z M507.7,150.5h-4v-1h4V150.5z M500.7,150.5h-4v-1h4V150.5z M493.7,150.5h-4v-1h4
			V150.5z M486.7,150.5h-4v-1h4V150.5z M479.6,150.5h-4v-1h4V150.5z M472.6,150.5h-4v-1h4V150.5z M465.6,150.5h-4v-1h4V150.5z
			 M458.6,150.5h-4v-1h4V150.5z M451.5,150.5h-4v-1h4V150.5z M444.5,150.5h-4v-1h4V150.5z M437.5,150.5h-4v-1h4V150.5z M430.5,150.5
			h-4v-1h4V150.5z M423.4,150.5h-4v-1h4V150.5z M416.4,150.5h-4v-1h4V150.5z M409.4,150.5h-4v-1h4V150.5z M402.4,150.5h-4v-1h4
			V150.5z M395.3,150.5h-4v-1h4V150.5z M388.3,150.5h-4v-1h4V150.5z M381.3,150.5h-4v-1h4V150.5z M374.3,150.5h-4v-1h4V150.5z
			 M367.2,150.5h-4v-1h4V150.5z M360.2,150.5h-4v-1h4V150.5z M353.2,150.5h-4v-1h4V150.5z M346.2,150.5h-4v-1h4V150.5z M339.1,150.5
			h-4v-1h4V150.5z M332.1,150.5h-4v-1h4V150.5z M325.1,150.5h-4v-1h4V150.5z M318.1,150.5h-4v-1h4V150.5z M311.1,150.5h-4v-1h4
			V150.5z M304,150.5h-4v-1h4V150.5z M297,150.5h-4v-1h4V150.5z M290,150.5h-4v-1h4V150.5z M283,150.5h-4v-1h4V150.5z M275.9,150.5
			h-4v-1h4V150.5z M268.9,150.5h-4v-1h4V150.5z M261.9,150.5h-4v-1h4V150.5z M254.9,150.5h-4v-1h4V150.5z M247.8,150.5h-4v-1h4
			V150.5z M240.8,150.5h-4v-1h4V150.5z M233.8,150.5h-4v-1h4V150.5z M226.8,150.5h-4v-1h4V150.5z M219.7,150.5h-4v-1h4V150.5z
			 M212.7,150.5h-4v-1h4V150.5z M205.7,150.5h-4v-1h4V150.5z M198.7,150.5h-4v-1h4V150.5z M191.6,150.5h-4v-1h4V150.5z M184.6,150.5
			h-4v-1h4V150.5z M177.6,150.5h-4v-1h4V150.5z M170.6,150.5h-4v-1h4V150.5z M163.5,150.5h-4v-1h4V150.5z M156.5,150.5h-4v-1h4
			V150.5z M149.5,150.5h-4v-1h4V150.5z M142.5,150.5h-4v-1h4V150.5z M135.5,150.5h-4v-1h4V150.5z M128.4,150.5h-4v-1h4V150.5z
			 M121.4,150.5h-4v-1h4V150.5z M114.4,150.5h-4v-1h4V150.5z M107.4,150.5h-4v-1h4V150.5z M100.3,150.5h-4v-1h4V150.5z M93.3,150.5
			h-4v-1h4V150.5z M86.3,150.5h-4v-1h4V150.5z M79.3,150.5h-4v-1h4V150.5z M72.2,150.5h-4v-1h4V150.5z M65.2,150.5h-4v-1h4V150.5z
			 M58.2,150.5h-4v-1h4V150.5z M51.2,150.5h-4v-1h4V150.5z M44.1,150.5h-4v-1h4V150.5z M37.1,150.5h-4v-1h4V150.5z M30.1,150.5h-4
			v-1h4V150.5z M23.1,150.5h-4v-1h4V150.5z M16,150.5h-4v-1h4V150.5z M9,150.5H5v-1h4V150.5z"/>
		<rect x="854.9" y="149.5" class="st1" width="2" height="1"/>
	</g>
	<g>
		<rect x="391" y="179.5" class="st1" width="2" height="1"/>
		<path class="st1" d="M461,180.5h-3.9v-1h3.9V180.5z M454.2,180.5h-3.9v-1h3.9V180.5z M447.4,180.5h-3.9v-1h3.9V180.5z
			 M440.6,180.5h-3.9v-1h3.9V180.5z M433.8,180.5h-3.9v-1h3.9V180.5z M427,180.5h-3.9v-1h3.9V180.5z M420.2,180.5h-3.9v-1h3.9V180.5
			z M413.4,180.5h-3.9v-1h3.9V180.5z M406.6,180.5h-3.9v-1h3.9V180.5z M399.8,180.5h-3.9v-1h3.9V180.5z"/>
		<rect x="464" y="179.5" class="st1" width="2" height="1"/>
	</g>
	<g>
		<rect x="0" y="161.5" class="st1" width="2" height="1"/>
		<path class="st1" d="M851.9,162.5h-4v-1h4V162.5z M844.9,162.5h-4v-1h4V162.5z M837.8,162.5h-4v-1h4V162.5z M830.8,162.5h-4v-1h4
			V162.5z M823.8,162.5h-4v-1h4V162.5z M816.8,162.5h-4v-1h4V162.5z M809.8,162.5h-4v-1h4V162.5z M802.7,162.5h-4v-1h4V162.5z
			 M795.7,162.5h-4v-1h4V162.5z M788.7,162.5h-4v-1h4V162.5z M781.7,162.5h-4v-1h4V162.5z M774.6,162.5h-4v-1h4V162.5z M767.6,162.5
			h-4v-1h4V162.5z M760.6,162.5h-4v-1h4V162.5z M753.6,162.5h-4v-1h4V162.5z M746.5,162.5h-4v-1h4V162.5z M739.5,162.5h-4v-1h4
			V162.5z M732.5,162.5h-4v-1h4V162.5z M725.5,162.5h-4v-1h4V162.5z M718.4,162.5h-4v-1h4V162.5z M711.4,162.5h-4v-1h4V162.5z
			 M704.4,162.5h-4v-1h4V162.5z M697.4,162.5h-4v-1h4V162.5z M690.3,162.5h-4v-1h4V162.5z M683.3,162.5h-4v-1h4V162.5z M676.3,162.5
			h-4v-1h4V162.5z M669.3,162.5h-4v-1h4V162.5z M662.3,162.5h-4v-1h4V162.5z M655.2,162.5h-4v-1h4V162.5z M648.2,162.5h-4v-1h4
			V162.5z M641.2,162.5h-4v-1h4V162.5z M634.2,162.5h-4v-1h4V162.5z M627.1,162.5h-4v-1h4V162.5z M620.1,162.5h-4v-1h4V162.5z
			 M613.1,162.5h-4v-1h4V162.5z M606.1,162.5h-4v-1h4V162.5z M599,162.5h-4v-1h4V162.5z M592,162.5h-4v-1h4V162.5z M585,162.5h-4v-1
			h4V162.5z M578,162.5h-4v-1h4V162.5z M570.9,162.5h-4v-1h4V162.5z M563.9,162.5h-4v-1h4V162.5z M556.9,162.5h-4v-1h4V162.5z
			 M549.9,162.5h-4v-1h4V162.5z M542.8,162.5h-4v-1h4V162.5z M535.8,162.5h-4v-1h4V162.5z M528.8,162.5h-4v-1h4V162.5z M521.8,162.5
			h-4v-1h4V162.5z M514.7,162.5h-4v-1h4V162.5z M507.7,162.5h-4v-1h4V162.5z M500.7,162.5h-4v-1h4V162.5z M493.7,162.5h-4v-1h4
			V162.5z M486.7,162.5h-4v-1h4V162.5z M479.6,162.5h-4v-1h4V162.5z M472.6,162.5h-4v-1h4V162.5z M465.6,162.5h-4v-1h4V162.5z
			 M458.6,162.5h-4v-1h4V162.5z M451.5,162.5h-4v-1h4V162.5z M444.5,162.5h-4v-1h4V162.5z M437.5,162.5h-4v-1h4V162.5z M430.5,162.5
			h-4v-1h4V162.5z M423.4,162.5h-4v-1h4V162.5z M416.4,162.5h-4v-1h4V162.5z M409.4,162.5h-4v-1h4V162.5z M402.4,162.5h-4v-1h4
			V162.5z M395.3,162.5h-4v-1h4V162.5z M388.3,162.5h-4v-1h4V162.5z M381.3,162.5h-4v-1h4V162.5z M374.3,162.5h-4v-1h4V162.5z
			 M367.2,162.5h-4v-1h4V162.5z M360.2,162.5h-4v-1h4V162.5z M353.2,162.5h-4v-1h4V162.5z M346.2,162.5h-4v-1h4V162.5z M339.1,162.5
			h-4v-1h4V162.5z M332.1,162.5h-4v-1h4V162.5z M325.1,162.5h-4v-1h4V162.5z M318.1,162.5h-4v-1h4V162.5z M311.1,162.5h-4v-1h4
			V162.5z M304,162.5h-4v-1h4V162.5z M297,162.5h-4v-1h4V162.5z M290,162.5h-4v-1h4V162.5z M283,162.5h-4v-1h4V162.5z M275.9,162.5
			h-4v-1h4V162.5z M268.9,162.5h-4v-1h4V162.5z M261.9,162.5h-4v-1h4V162.5z M254.9,162.5h-4v-1h4V162.5z M247.8,162.5h-4v-1h4
			V162.5z M240.8,162.5h-4v-1h4V162.5z M233.8,162.5h-4v-1h4V162.5z M226.8,162.5h-4v-1h4V162.5z M219.7,162.5h-4v-1h4V162.5z
			 M212.7,162.5h-4v-1h4V162.5z M205.7,162.5h-4v-1h4V162.5z M198.7,162.5h-4v-1h4V162.5z M191.6,162.5h-4v-1h4V162.5z M184.6,162.5
			h-4v-1h4V162.5z M177.6,162.5h-4v-1h4V162.5z M170.6,162.5h-4v-1h4V162.5z M163.5,162.5h-4v-1h4V162.5z M156.5,162.5h-4v-1h4
			V162.5z M149.5,162.5h-4v-1h4V162.5z M142.5,162.5h-4v-1h4V162.5z M135.5,162.5h-4v-1h4V162.5z M128.4,162.5h-4v-1h4V162.5z
			 M121.4,162.5h-4v-1h4V162.5z M114.4,162.5h-4v-1h4V162.5z M107.4,162.5h-4v-1h4V162.5z M100.3,162.5h-4v-1h4V162.5z M93.3,162.5
			h-4v-1h4V162.5z M86.3,162.5h-4v-1h4V162.5z M79.3,162.5h-4v-1h4V162.5z M72.2,162.5h-4v-1h4V162.5z M65.2,162.5h-4v-1h4V162.5z
			 M58.2,162.5h-4v-1h4V162.5z M51.2,162.5h-4v-1h4V162.5z M44.1,162.5h-4v-1h4V162.5z M37.1,162.5h-4v-1h4V162.5z M30.1,162.5h-4
			v-1h4V162.5z M23.1,162.5h-4v-1h4V162.5z M16,162.5h-4v-1h4V162.5z M9,162.5H5v-1h4V162.5z"/>
		<rect x="854.9" y="161.5" class="st1" width="2" height="1"/>
	</g>
	<g>
		<rect x="426.5" y="358" class="st1" width="1" height="2"/>
		<path class="st1" d="M427.5,355h-1v-4h1V355z M427.5,347.9h-1v-4h1V347.9z M427.5,340.9h-1v-4h1V340.9z M427.5,333.8h-1v-4h1
			V333.8z M427.5,326.7h-1v-4h1V326.7z M427.5,319.7h-1v-4h1V319.7z M427.5,312.6h-1v-4h1V312.6z M427.5,305.6h-1v-4h1V305.6z
			 M427.5,298.5h-1v-4h1V298.5z M427.5,291.4h-1v-4h1V291.4z M427.5,284.4h-1v-4h1V284.4z M427.5,277.3h-1v-4h1V277.3z M427.5,270.3
			h-1v-4h1V270.3z M427.5,263.2h-1v-4h1V263.2z M427.5,256.1h-1v-4h1V256.1z M427.5,249.1h-1v-4h1V249.1z M427.5,242h-1v-4h1V242z
			 M427.5,235h-1v-4h1V235z M427.5,227.9h-1v-4h1V227.9z M427.5,220.8h-1v-4h1V220.8z M427.5,213.8h-1v-4h1V213.8z M427.5,206.7h-1
			v-4h1V206.7z M427.5,199.7h-1v-4h1V199.7z M427.5,192.6h-1v-4h1V192.6z M427.5,185.5h-1v-4h1V185.5z M427.5,178.5h-1v-4h1V178.5z
			 M427.5,171.4h-1v-4h1V171.4z M427.5,164.4h-1v-4h1V164.4z M427.5,157.3h-1v-4h1V157.3z M427.5,150.2h-1v-4h1V150.2z M427.5,143.2
			h-1v-4h1V143.2z M427.5,136.1h-1v-4h1V136.1z M427.5,129.1h-1v-4h1V129.1z M427.5,122h-1v-4h1V122z M427.5,115h-1v-4h1V115z
			 M427.5,107.9h-1v-4h1V107.9z M427.5,100.8h-1v-4h1V100.8z M427.5,93.8h-1v-4h1V93.8z M427.5,86.7h-1v-4h1V86.7z M427.5,79.7h-1
			v-4h1V79.7z M427.5,72.6h-1v-4h1V72.6z M427.5,65.5h-1v-4h1V65.5z M427.5,58.5h-1v-4h1V58.5z M427.5,51.4h-1v-4h1V51.4z
			 M427.5,44.4h-1v-4h1V44.4z M427.5,37.3h-1v-4h1V37.3z M427.5,30.2h-1v-4h1V30.2z M427.5,23.2h-1v-4h1V23.2z M427.5,16.1h-1v-4h1
			V16.1z M427.5,9.1h-1V5h1V9.1z"/>
		<rect x="426.5" y="0" class="st1" width="1" height="2"/>
	</g>
	<g>
		<rect x="429.5" y="358" class="st1" width="1" height="2"/>
		<path class="st1" d="M430.5,355h-1v-4h1V355z M430.5,347.9h-1v-4h1V347.9z M430.5,340.9h-1v-4h1V340.9z M430.5,333.8h-1v-4h1
			V333.8z M430.5,326.7h-1v-4h1V326.7z M430.5,319.7h-1v-4h1V319.7z M430.5,312.6h-1v-4h1V312.6z M430.5,305.6h-1v-4h1V305.6z
			 M430.5,298.5h-1v-4h1V298.5z M430.5,291.4h-1v-4h1V291.4z M430.5,284.4h-1v-4h1V284.4z M430.5,277.3h-1v-4h1V277.3z M430.5,270.3
			h-1v-4h1V270.3z M430.5,263.2h-1v-4h1V263.2z M430.5,256.1h-1v-4h1V256.1z M430.5,249.1h-1v-4h1V249.1z M430.5,242h-1v-4h1V242z
			 M430.5,235h-1v-4h1V235z M430.5,227.9h-1v-4h1V227.9z M430.5,220.8h-1v-4h1V220.8z M430.5,213.8h-1v-4h1V213.8z M430.5,206.7h-1
			v-4h1V206.7z M430.5,199.7h-1v-4h1V199.7z M430.5,192.6h-1v-4h1V192.6z M430.5,185.5h-1v-4h1V185.5z M430.5,178.5h-1v-4h1V178.5z
			 M430.5,171.4h-1v-4h1V171.4z M430.5,164.4h-1v-4h1V164.4z M430.5,157.3h-1v-4h1V157.3z M430.5,150.2h-1v-4h1V150.2z M430.5,143.2
			h-1v-4h1V143.2z M430.5,136.1h-1v-4h1V136.1z M430.5,129.1h-1v-4h1V129.1z M430.5,122h-1v-4h1V122z M430.5,115h-1v-4h1V115z
			 M430.5,107.9h-1v-4h1V107.9z M430.5,100.8h-1v-4h1V100.8z M430.5,93.8h-1v-4h1V93.8z M430.5,86.7h-1v-4h1V86.7z M430.5,79.7h-1
			v-4h1V79.7z M430.5,72.6h-1v-4h1V72.6z M430.5,65.5h-1v-4h1V65.5z M430.5,58.5h-1v-4h1V58.5z M430.5,51.4h-1v-4h1V51.4z
			 M430.5,44.4h-1v-4h1V44.4z M430.5,37.3h-1v-4h1V37.3z M430.5,30.2h-1v-4h1V30.2z M430.5,23.2h-1v-4h1V23.2z M430.5,16.1h-1v-4h1
			V16.1z M430.5,9.1h-1V5h1V9.1z"/>
		<rect x="429.5" y="0" class="st1" width="1" height="2"/>
	</g>
	<g>
		<rect x="465.5" y="358" class="st1" width="1" height="2"/>
		<path class="st1" d="M466.5,355h-1v-4h1V355z M466.5,347.9h-1v-4h1V347.9z M466.5,340.9h-1v-4h1V340.9z M466.5,333.8h-1v-4h1
			V333.8z M466.5,326.7h-1v-4h1V326.7z M466.5,319.7h-1v-4h1V319.7z M466.5,312.6h-1v-4h1V312.6z M466.5,305.6h-1v-4h1V305.6z
			 M466.5,298.5h-1v-4h1V298.5z M466.5,291.4h-1v-4h1V291.4z M466.5,284.4h-1v-4h1V284.4z M466.5,277.3h-1v-4h1V277.3z M466.5,270.3
			h-1v-4h1V270.3z M466.5,263.2h-1v-4h1V263.2z M466.5,256.1h-1v-4h1V256.1z M466.5,249.1h-1v-4h1V249.1z M466.5,242h-1v-4h1V242z
			 M466.5,235h-1v-4h1V235z M466.5,227.9h-1v-4h1V227.9z M466.5,220.8h-1v-4h1V220.8z M466.5,213.8h-1v-4h1V213.8z M466.5,206.7h-1
			v-4h1V206.7z M466.5,199.7h-1v-4h1V199.7z M466.5,192.6h-1v-4h1V192.6z M466.5,185.5h-1v-4h1V185.5z M466.5,178.5h-1v-4h1V178.5z
			 M466.5,171.4h-1v-4h1V171.4z M466.5,164.4h-1v-4h1V164.4z M466.5,157.3h-1v-4h1V157.3z M466.5,150.2h-1v-4h1V150.2z M466.5,143.2
			h-1v-4h1V143.2z M466.5,136.1h-1v-4h1V136.1z M466.5,129.1h-1v-4h1V129.1z M466.5,122h-1v-4h1V122z M466.5,115h-1v-4h1V115z
			 M466.5,107.9h-1v-4h1V107.9z M466.5,100.8h-1v-4h1V100.8z M466.5,93.8h-1v-4h1V93.8z M466.5,86.7h-1v-4h1V86.7z M466.5,79.7h-1
			v-4h1V79.7z M466.5,72.6h-1v-4h1V72.6z M466.5,65.5h-1v-4h1V65.5z M466.5,58.5h-1v-4h1V58.5z M466.5,51.4h-1v-4h1V51.4z
			 M466.5,44.4h-1v-4h1V44.4z M466.5,37.3h-1v-4h1V37.3z M466.5,30.2h-1v-4h1V30.2z M466.5,23.2h-1v-4h1V23.2z M466.5,16.1h-1v-4h1
			V16.1z M466.5,9.1h-1V5h1V9.1z"/>
		<rect x="465.5" y="0" class="st1" width="1" height="2"/>
	</g>
	<g>
		<rect x="390.5" y="358" class="st1" width="1" height="2"/>
		<path class="st1" d="M391.5,355h-1v-4h1V355z M391.5,347.9h-1v-4h1V347.9z M391.5,340.9h-1v-4h1V340.9z M391.5,333.8h-1v-4h1
			V333.8z M391.5,326.7h-1v-4h1V326.7z M391.5,319.7h-1v-4h1V319.7z M391.5,312.6h-1v-4h1V312.6z M391.5,305.6h-1v-4h1V305.6z
			 M391.5,298.5h-1v-4h1V298.5z M391.5,291.4h-1v-4h1V291.4z M391.5,284.4h-1v-4h1V284.4z M391.5,277.3h-1v-4h1V277.3z M391.5,270.3
			h-1v-4h1V270.3z M391.5,263.2h-1v-4h1V263.2z M391.5,256.1h-1v-4h1V256.1z M391.5,249.1h-1v-4h1V249.1z M391.5,242h-1v-4h1V242z
			 M391.5,235h-1v-4h1V235z M391.5,227.9h-1v-4h1V227.9z M391.5,220.8h-1v-4h1V220.8z M391.5,213.8h-1v-4h1V213.8z M391.5,206.7h-1
			v-4h1V206.7z M391.5,199.7h-1v-4h1V199.7z M391.5,192.6h-1v-4h1V192.6z M391.5,185.5h-1v-4h1V185.5z M391.5,178.5h-1v-4h1V178.5z
			 M391.5,171.4h-1v-4h1V171.4z M391.5,164.4h-1v-4h1V164.4z M391.5,157.3h-1v-4h1V157.3z M391.5,150.2h-1v-4h1V150.2z M391.5,143.2
			h-1v-4h1V143.2z M391.5,136.1h-1v-4h1V136.1z M391.5,129.1h-1v-4h1V129.1z M391.5,122h-1v-4h1V122z M391.5,115h-1v-4h1V115z
			 M391.5,107.9h-1v-4h1V107.9z M391.5,100.8h-1v-4h1V100.8z M391.5,93.8h-1v-4h1V93.8z M391.5,86.7h-1v-4h1V86.7z M391.5,79.7h-1
			v-4h1V79.7z M391.5,72.6h-1v-4h1V72.6z M391.5,65.5h-1v-4h1V65.5z M391.5,58.5h-1v-4h1V58.5z M391.5,51.4h-1v-4h1V51.4z
			 M391.5,44.4h-1v-4h1V44.4z M391.5,37.3h-1v-4h1V37.3z M391.5,30.2h-1v-4h1V30.2z M391.5,23.2h-1v-4h1V23.2z M391.5,16.1h-1v-4h1
			V16.1z M391.5,9.1h-1V5h1V9.1z"/>
		<rect x="390.5" y="0" class="st1" width="1" height="2"/>
	</g>
	<g>
		<rect x="0" y="197.5" class="st1" width="2" height="1"/>
		<path class="st1" d="M851.9,198.5h-4v-1h4V198.5z M844.9,198.5h-4v-1h4V198.5z M837.8,198.5h-4v-1h4V198.5z M830.8,198.5h-4v-1h4
			V198.5z M823.8,198.5h-4v-1h4V198.5z M816.8,198.5h-4v-1h4V198.5z M809.8,198.5h-4v-1h4V198.5z M802.7,198.5h-4v-1h4V198.5z
			 M795.7,198.5h-4v-1h4V198.5z M788.7,198.5h-4v-1h4V198.5z M781.7,198.5h-4v-1h4V198.5z M774.6,198.5h-4v-1h4V198.5z M767.6,198.5
			h-4v-1h4V198.5z M760.6,198.5h-4v-1h4V198.5z M753.6,198.5h-4v-1h4V198.5z M746.5,198.5h-4v-1h4V198.5z M739.5,198.5h-4v-1h4
			V198.5z M732.5,198.5h-4v-1h4V198.5z M725.5,198.5h-4v-1h4V198.5z M718.4,198.5h-4v-1h4V198.5z M711.4,198.5h-4v-1h4V198.5z
			 M704.4,198.5h-4v-1h4V198.5z M697.4,198.5h-4v-1h4V198.5z M690.3,198.5h-4v-1h4V198.5z M683.3,198.5h-4v-1h4V198.5z M676.3,198.5
			h-4v-1h4V198.5z M669.3,198.5h-4v-1h4V198.5z M662.3,198.5h-4v-1h4V198.5z M655.2,198.5h-4v-1h4V198.5z M648.2,198.5h-4v-1h4
			V198.5z M641.2,198.5h-4v-1h4V198.5z M634.2,198.5h-4v-1h4V198.5z M627.1,198.5h-4v-1h4V198.5z M620.1,198.5h-4v-1h4V198.5z
			 M613.1,198.5h-4v-1h4V198.5z M606.1,198.5h-4v-1h4V198.5z M599,198.5h-4v-1h4V198.5z M592,198.5h-4v-1h4V198.5z M585,198.5h-4v-1
			h4V198.5z M578,198.5h-4v-1h4V198.5z M570.9,198.5h-4v-1h4V198.5z M563.9,198.5h-4v-1h4V198.5z M556.9,198.5h-4v-1h4V198.5z
			 M549.9,198.5h-4v-1h4V198.5z M542.8,198.5h-4v-1h4V198.5z M535.8,198.5h-4v-1h4V198.5z M528.8,198.5h-4v-1h4V198.5z M521.8,198.5
			h-4v-1h4V198.5z M514.7,198.5h-4v-1h4V198.5z M507.7,198.5h-4v-1h4V198.5z M500.7,198.5h-4v-1h4V198.5z M493.7,198.5h-4v-1h4
			V198.5z M486.7,198.5h-4v-1h4V198.5z M479.6,198.5h-4v-1h4V198.5z M472.6,198.5h-4v-1h4V198.5z M465.6,198.5h-4v-1h4V198.5z
			 M458.6,198.5h-4v-1h4V198.5z M451.5,198.5h-4v-1h4V198.5z M444.5,198.5h-4v-1h4V198.5z M437.5,198.5h-4v-1h4V198.5z M430.5,198.5
			h-4v-1h4V198.5z M423.4,198.5h-4v-1h4V198.5z M416.4,198.5h-4v-1h4V198.5z M409.4,198.5h-4v-1h4V198.5z M402.4,198.5h-4v-1h4
			V198.5z M395.3,198.5h-4v-1h4V198.5z M388.3,198.5h-4v-1h4V198.5z M381.3,198.5h-4v-1h4V198.5z M374.3,198.5h-4v-1h4V198.5z
			 M367.2,198.5h-4v-1h4V198.5z M360.2,198.5h-4v-1h4V198.5z M353.2,198.5h-4v-1h4V198.5z M346.2,198.5h-4v-1h4V198.5z M339.1,198.5
			h-4v-1h4V198.5z M332.1,198.5h-4v-1h4V198.5z M325.1,198.5h-4v-1h4V198.5z M318.1,198.5h-4v-1h4V198.5z M311.1,198.5h-4v-1h4
			V198.5z M304,198.5h-4v-1h4V198.5z M297,198.5h-4v-1h4V198.5z M290,198.5h-4v-1h4V198.5z M283,198.5h-4v-1h4V198.5z M275.9,198.5
			h-4v-1h4V198.5z M268.9,198.5h-4v-1h4V198.5z M261.9,198.5h-4v-1h4V198.5z M254.9,198.5h-4v-1h4V198.5z M247.8,198.5h-4v-1h4
			V198.5z M240.8,198.5h-4v-1h4V198.5z M233.8,198.5h-4v-1h4V198.5z M226.8,198.5h-4v-1h4V198.5z M219.7,198.5h-4v-1h4V198.5z
			 M212.7,198.5h-4v-1h4V198.5z M205.7,198.5h-4v-1h4V198.5z M198.7,198.5h-4v-1h4V198.5z M191.6,198.5h-4v-1h4V198.5z M184.6,198.5
			h-4v-1h4V198.5z M177.6,198.5h-4v-1h4V198.5z M170.6,198.5h-4v-1h4V198.5z M163.5,198.5h-4v-1h4V198.5z M156.5,198.5h-4v-1h4
			V198.5z M149.5,198.5h-4v-1h4V198.5z M142.5,198.5h-4v-1h4V198.5z M135.5,198.5h-4v-1h4V198.5z M128.4,198.5h-4v-1h4V198.5z
			 M121.4,198.5h-4v-1h4V198.5z M114.4,198.5h-4v-1h4V198.5z M107.4,198.5h-4v-1h4V198.5z M100.3,198.5h-4v-1h4V198.5z M93.3,198.5
			h-4v-1h4V198.5z M86.3,198.5h-4v-1h4V198.5z M79.3,198.5h-4v-1h4V198.5z M72.2,198.5h-4v-1h4V198.5z M65.2,198.5h-4v-1h4V198.5z
			 M58.2,198.5h-4v-1h4V198.5z M51.2,198.5h-4v-1h4V198.5z M44.1,198.5h-4v-1h4V198.5z M37.1,198.5h-4v-1h4V198.5z M30.1,198.5h-4
			v-1h4V198.5z M23.1,198.5h-4v-1h4V198.5z M16,198.5h-4v-1h4V198.5z M9,198.5H5v-1h4V198.5z"/>
		<rect x="854.9" y="197.5" class="st1" width="2" height="1"/>
	</g>
	<polygon class="st1" points="519.9,162 519.9,180 510.9,180 510.9,162 492.9,162 492.9,180 483.9,180 483.9,162 465.9,162 
		465.9,198 537.9,198 537.9,162 	"/>
	<rect x="427" y="162" class="st1" width="3" height="36"/>
	<g>
		<path class="st1" d="M177.2,181.7V198h-11.6v-48h19.1c3.7,0,6.9,0.7,9.7,2s5,3.3,6.6,5.8c1.5,2.5,2.3,5.3,2.3,8.5
			c0,4.7-1.7,8.4-5,11.2s-7.9,4.2-13.8,4.2H177.2z M177.2,172.8h7.6c2.2,0,3.9-0.6,5.1-1.7s1.8-2.7,1.8-4.7c0-2.2-0.6-4-1.8-5.4
			c-1.2-1.3-2.9-2-4.9-2h-7.7V172.8z"/>
		<path class="st1" d="M229.2,198c-0.4-0.7-0.7-1.8-1.1-3.2c-2,2.6-4.9,3.9-8.6,3.9c-3.4,0-6.2-1-8.6-3c-2.4-2-3.5-4.6-3.5-7.7
			c0-3.9,1.4-6.8,4.3-8.8s7-3,12.5-3h3.4v-1.9c0-3.3-1.4-4.9-4.3-4.9c-2.6,0-4,1.3-4,3.9h-11.1c0-3.4,1.5-6.2,4.4-8.4
			s6.7-3.2,11.2-3.2c4.5,0,8.1,1.1,10.8,3.3c2.6,2.2,4,5.3,4.1,9.1v15.8c0,3.3,0.5,5.8,1.5,7.5v0.6H229.2z M222.2,190.7
			c1.4,0,2.5-0.3,3.4-0.9c0.9-0.6,1.6-1.3,2-2v-5.7h-3.2c-3.9,0-5.8,1.7-5.8,5.2c0,1,0.3,1.8,1,2.5
			C220.3,190.4,221.2,190.7,222.2,190.7z"/>
		<path class="st1" d="M266.5,172.4l-3.7-0.3c-3.5,0-5.7,1.1-6.7,3.3V198H245v-35.7h10.4l0.4,4.6c1.9-3.5,4.5-5.2,7.8-5.2
			c1.2,0,2.2,0.1,3.1,0.4L266.5,172.4z"/>
		<path class="st1" d="M283.4,153.5v8.9h5.9v7.7h-5.9v16.3c0,1.3,0.2,2.3,0.7,2.8c0.5,0.5,1.4,0.8,2.9,0.8c1.1,0,2-0.1,2.8-0.2v7.9
			c-2,0.6-4.1,1-6.3,1c-3.8,0-6.6-0.9-8.5-2.7c-1.8-1.8-2.7-4.5-2.7-8.2v-17.7h-4.5v-7.7h4.5v-8.9H283.4z"/>
		<path class="st1" d="M303.9,162.3l0.4,4.2c2.5-3.2,5.9-4.8,10.2-4.8c3.7,0,6.5,1.1,8.3,3.3c1.8,2.2,2.8,5.6,2.9,10v23h-11.1v-22.5
			c0-1.8-0.4-3.1-1.1-4c-0.7-0.8-2-1.3-4-1.3c-2.2,0-3.8,0.9-4.8,2.6V198h-11.1v-35.7H303.9z"/>
		<path class="st1" d="M349,198.7c-5.5,0-9.9-1.6-13.3-4.9s-5.1-7.5-5.1-12.7v-0.9c0-3.6,0.7-6.9,2-9.7c1.4-2.8,3.3-4.9,5.9-6.5
			c2.6-1.5,5.7-2.3,9.2-2.3c5,0,9,1.6,11.9,4.7c2.9,3.1,4.4,7.4,4.4,13v4.3h-22.1c0.4,2,1.3,3.6,2.6,4.7c1.3,1.1,3.1,1.7,5.2,1.7
			c3.5,0,6.3-1.2,8.2-3.7l5.1,6c-1.4,1.9-3.3,3.4-5.9,4.6C354.6,198.1,351.9,198.7,349,198.7z M347.7,170.2c-3.3,0-5.2,2.2-5.8,6.5
			h11.2v-0.9c0-1.8-0.4-3.2-1.4-4.1C350.9,170.7,349.5,170.2,347.7,170.2z"/>
		<path class="st1" d="M390.1,172.4l-3.7-0.3c-3.5,0-5.7,1.1-6.7,3.3V198h-11.1v-35.7H379l0.4,4.6c1.9-3.5,4.5-5.2,7.8-5.2
			c1.2,0,2.2,0.1,3.1,0.4L390.1,172.4z"/>
	</g>
</g>
</svg>
