<?xml version="1.0" encoding="utf-8"?>
<!-- Generator: Adobe Illustrator 23.1.0, SVG Export Plug-In . SVG Version: 6.00 Build 0)  -->
<svg version="1.1" xmlns="http://www.w3.org/2000/svg" xmlns:xlink="http://www.w3.org/1999/xlink" x="0px" y="0px"
	 viewBox="0 0 858 504" style="enable-background:new 0 0 858 504;" xml:space="preserve">
<style type="text/css">
	.st0{fill:#DBD4D3;}
	.st1{fill:#FFFFFF;}
	.st2{fill:#242121;}
	.st3{fill:#C7C0BF;}
	.st4{fill:#5C5958;}
	.st5{fill:#FF8873;}
	.st6{fill:#78FFA5;}
	.st7{fill:#907DFF;}
	.st8{fill:#FFE876;}
	.st9{fill:#7BD7FF;}
</style>
<g id="Layer_2">
	<rect x="0" y="0" class="st0" width="857.9" height="504"/>
	<g>
		<path class="st1" d="M332.9,359.7l-8.9,24h6.4l1.1-3h10.3l1.1,3h6.4l-8.9-24H332.9z M333.8,374.7l2.9-7.9l2.9,7.9H333.8z"/>
		<path class="st1" d="M368.9,359.7h-9v24h9c6.6,0,12-5.4,12-12S375.6,359.7,368.9,359.7z M368.9,377.7h-3v-12h3c3.3,0,6,2.7,6,6
			S372.2,377.7,368.9,377.7z"/>
		<path class="st1" d="M401.9,359.7h-9v24h9c6.6,0,12-5.4,12-12S408.6,359.7,401.9,359.7z M401.9,377.7h-3v-12h3c3.3,0,6,2.7,6,6
			S405.2,377.7,401.9,377.7z"/>
		<path class="st1" d="M495.3,368.2c-2.8-0.3-2.8-1.3-2.8-1.7c0-1.1,1.3-1.7,2.5-1.7c1.5,0,2.5,0.9,2.5,1.7h6c0-4.2-3.8-7.7-8.5-7.7
			c-4.8,0-8.5,3.4-8.5,7.7c0,1.6,0.6,6.8,8.1,7.6c1.6,0.2,3.3,1,3.3,2.1c0,1.1-1.4,2.1-3,2.1s-3-1-3-2.1h-6c0,4.5,4,8.1,9,8.1
			s9-3.6,9-8.1C503.9,372.1,500.4,368.8,495.3,368.2z"/>
		<path class="st1" d="M525.3,368.2c-2.8-0.3-2.8-1.3-2.8-1.7c0-1.1,1.3-1.7,2.5-1.7c1.5,0,2.5,0.9,2.5,1.7h6c0-4.2-3.8-7.7-8.5-7.7
			c-4.8,0-8.5,3.4-8.5,7.7c0,1.6,0.6,6.8,8.1,7.6c1.6,0.2,3.3,1,3.3,2.1c0,1.1-1.4,2.1-3,2.1s-3-1-3-2.1h-6c0,4.5,4,8.1,9,8.1
			s9-3.6,9-8.1C533.9,372.1,530.4,368.8,525.3,368.2z"/>
		<path class="st1" d="M445.4,367.9c0-4.5-3.7-8.3-8.3-8.3h-11.3v12v1.5v3v7.5h6v-7.5h3.3l3.5,7.5h6.6l-4-8.6
			C443.8,373.6,445.4,371,445.4,367.9z M431.9,365.7h5.3c1.2,0,2.3,1,2.3,2.3s-1,2.3-2.3,2.3h-5.3V365.7z"/>
		<polygon class="st1" points="457.4,383.7 473.9,383.7 473.9,377.7 463.4,377.7 463.4,374.7 473.9,374.7 473.9,368.7 463.4,368.7 
			463.4,365.7 473.9,365.7 473.9,359.7 457.4,359.7 		"/>
	</g>
</g>
<g id="Layer_1">
	<rect x="360" y="287.7" class="st5" width="36" height="72"/>
	<rect x="180" y="324" class="st5" width="72" height="36"/>
	<rect x="252" y="324" class="st5" width="72" height="36"/>
	<rect x="534" y="324" class="st5" width="72" height="36"/>
	<rect x="606" y="324" class="st5" width="72" height="36"/>
	<g>
		<rect x="323.6" y="0" class="st1" width="1" height="2"/>
		<path class="st1" d="M324.6,499h-1v-4h1V499z M324.6,492h-1v-4h1V492z M324.6,485h-1v-4h1V485z M324.6,478h-1v-4h1V478z
			 M324.6,471h-1v-4h1V471z M324.6,464h-1v-4h1V464z M324.6,457h-1v-4h1V457z M324.6,450h-1v-4h1V450z M324.6,443h-1v-4h1V443z
			 M324.6,436h-1v-4h1V436z M324.6,429h-1v-4h1V429z M324.6,422h-1v-4h1V422z M324.6,415h-1v-4h1V415z M324.6,408h-1v-4h1V408z
			 M324.6,401h-1v-4h1V401z M324.6,394h-1v-4h1V394z M324.6,387h-1v-4h1V387z M324.6,380h-1v-4h1V380z M324.6,373h-1v-4h1V373z
			 M324.6,366h-1v-4h1V366z M324.6,359h-1v-4h1V359z M324.6,352h-1v-4h1V352z M324.6,345h-1v-4h1V345z M324.6,338h-1v-4h1V338z
			 M324.6,331h-1v-4h1V331z M324.6,324h-1v-4h1V324z M324.6,317h-1v-4h1V317z M324.6,310h-1v-4h1V310z M324.6,303h-1v-4h1V303z
			 M324.6,296h-1v-4h1V296z M324.6,289h-1v-4h1V289z M324.6,282h-1v-4h1V282z M324.6,275h-1v-4h1V275z M324.6,268h-1v-4h1V268z
			 M324.6,261h-1v-4h1V261z M324.6,254h-1v-4h1V254z M324.6,247h-1v-4h1V247z M324.6,240h-1v-4h1V240z M324.6,233h-1v-4h1V233z
			 M324.6,226h-1v-4h1V226z M324.6,219h-1v-4h1V219z M324.6,212h-1v-4h1V212z M324.6,205h-1v-4h1V205z M324.6,198h-1v-4h1V198z
			 M324.6,191h-1v-4h1V191z M324.6,184h-1v-4h1V184z M324.6,177h-1v-4h1V177z M324.6,170h-1v-4h1V170z M324.6,163h-1v-4h1V163z
			 M324.6,156h-1v-4h1V156z M324.6,149h-1v-4h1V149z M324.6,142h-1v-4h1V142z M324.6,135h-1v-4h1V135z M324.6,128h-1v-4h1V128z
			 M324.6,121h-1v-4h1V121z M324.6,114h-1v-4h1V114z M324.6,107h-1v-4h1V107z M324.6,100h-1v-4h1V100z M324.6,93h-1v-4h1V93z
			 M324.6,86h-1v-4h1V86z M324.6,79h-1v-4h1V79z M324.6,72h-1v-4h1V72z M324.6,65h-1v-4h1V65z M324.6,58h-1v-4h1V58z M324.6,51h-1
			v-4h1V51z M324.6,44h-1v-4h1V44z M324.6,37h-1v-4h1V37z M324.6,30h-1v-4h1V30z M324.6,23h-1v-4h1V23z M324.6,16h-1v-4h1V16z
			 M324.6,9h-1V5h1V9z"/>
		<rect x="323.6" y="502" class="st1" width="1" height="2"/>
	</g>
	<g>
		<rect x="533.6" y="0" class="st1" width="1" height="2"/>
		<path class="st1" d="M534.6,499h-1v-4h1V499z M534.6,492h-1v-4h1V492z M534.6,485h-1v-4h1V485z M534.6,478h-1v-4h1V478z
			 M534.6,471h-1v-4h1V471z M534.6,464h-1v-4h1V464z M534.6,457h-1v-4h1V457z M534.6,450h-1v-4h1V450z M534.6,443h-1v-4h1V443z
			 M534.6,436h-1v-4h1V436z M534.6,429h-1v-4h1V429z M534.6,422h-1v-4h1V422z M534.6,415h-1v-4h1V415z M534.6,408h-1v-4h1V408z
			 M534.6,401h-1v-4h1V401z M534.6,394h-1v-4h1V394z M534.6,387h-1v-4h1V387z M534.6,380h-1v-4h1V380z M534.6,373h-1v-4h1V373z
			 M534.6,366h-1v-4h1V366z M534.6,359h-1v-4h1V359z M534.6,352h-1v-4h1V352z M534.6,345h-1v-4h1V345z M534.6,338h-1v-4h1V338z
			 M534.6,331h-1v-4h1V331z M534.6,324h-1v-4h1V324z M534.6,317h-1v-4h1V317z M534.6,310h-1v-4h1V310z M534.6,303h-1v-4h1V303z
			 M534.6,296h-1v-4h1V296z M534.6,289h-1v-4h1V289z M534.6,282h-1v-4h1V282z M534.6,275h-1v-4h1V275z M534.6,268h-1v-4h1V268z
			 M534.6,261h-1v-4h1V261z M534.6,254h-1v-4h1V254z M534.6,247h-1v-4h1V247z M534.6,240h-1v-4h1V240z M534.6,233h-1v-4h1V233z
			 M534.6,226h-1v-4h1V226z M534.6,219h-1v-4h1V219z M534.6,212h-1v-4h1V212z M534.6,205h-1v-4h1V205z M534.6,198h-1v-4h1V198z
			 M534.6,191h-1v-4h1V191z M534.6,184h-1v-4h1V184z M534.6,177h-1v-4h1V177z M534.6,170h-1v-4h1V170z M534.6,163h-1v-4h1V163z
			 M534.6,156h-1v-4h1V156z M534.6,149h-1v-4h1V149z M534.6,142h-1v-4h1V142z M534.6,135h-1v-4h1V135z M534.6,128h-1v-4h1V128z
			 M534.6,121h-1v-4h1V121z M534.6,114h-1v-4h1V114z M534.6,107h-1v-4h1V107z M534.6,100h-1v-4h1V100z M534.6,93h-1v-4h1V93z
			 M534.6,86h-1v-4h1V86z M534.6,79h-1v-4h1V79z M534.6,72h-1v-4h1V72z M534.6,65h-1v-4h1V65z M534.6,58h-1v-4h1V58z M534.6,51h-1
			v-4h1V51z M534.6,44h-1v-4h1V44z M534.6,37h-1v-4h1V37z M534.6,30h-1v-4h1V30z M534.6,23h-1v-4h1V23z M534.6,16h-1v-4h1V16z
			 M534.6,9h-1V5h1V9z"/>
		<rect x="533.6" y="502" class="st1" width="1" height="2"/>
	</g>
	<polygon class="st1" points="540,216 504,216 504,288 540,288 576,252 	"/>
	<rect x="606" y="216" class="st1" width="36" height="72"/>
	<polygon class="st1" points="324,216 324,252 306,252 306,216 270,216 270,252 252,252 252,216 216,216 216,288 360,288 360,216 	
		"/>
	<path class="st1" d="M396,288v-36c19.9,0,36-16.1,36-36h36C468,255.7,435.7,288,396,288z"/>
	<g>
		<rect x="856" y="287.2" class="st1" width="2" height="1"/>
		<path class="st1" d="M853,288.2h-4v-1h4V288.2z M846,288.2h-4v-1h4V288.2z M839.1,288.2h-4v-1h4V288.2z M832.1,288.2h-4v-1h4
			V288.2z M825.1,288.2h-4v-1h4V288.2z M818.1,288.2h-4v-1h4V288.2z M811.2,288.2h-4v-1h4V288.2z M804.2,288.2h-4v-1h4V288.2z
			 M797.2,288.2h-4v-1h4V288.2z M790.2,288.2h-4v-1h4V288.2z M783.3,288.2h-4v-1h4V288.2z M776.3,288.2h-4v-1h4V288.2z M769.3,288.2
			h-4v-1h4V288.2z M762.3,288.2h-4v-1h4V288.2z M755.4,288.2h-4v-1h4V288.2z M748.4,288.2h-4v-1h4V288.2z M741.4,288.2h-4v-1h4
			V288.2z M734.4,288.2h-4v-1h4V288.2z M727.5,288.2h-4v-1h4V288.2z M720.5,288.2h-4v-1h4V288.2z M713.5,288.2h-4v-1h4V288.2z
			 M706.5,288.2h-4v-1h4V288.2z M699.6,288.2h-4v-1h4V288.2z M692.6,288.2h-4v-1h4V288.2z M685.6,288.2h-4v-1h4V288.2z M678.6,288.2
			h-4v-1h4V288.2z M671.7,288.2h-4v-1h4V288.2z M664.7,288.2h-4v-1h4V288.2z M657.7,288.2h-4v-1h4V288.2z M650.7,288.2h-4v-1h4
			V288.2z M643.8,288.2h-4v-1h4V288.2z M636.8,288.2h-4v-1h4V288.2z M629.8,288.2h-4v-1h4V288.2z M622.8,288.2h-4v-1h4V288.2z
			 M615.9,288.2h-4v-1h4V288.2z M608.9,288.2h-4v-1h4V288.2z M601.9,288.2h-4v-1h4V288.2z M594.9,288.2h-4v-1h4V288.2z M588,288.2
			h-4v-1h4V288.2z M581,288.2h-4v-1h4V288.2z M574,288.2h-4v-1h4V288.2z M567.1,288.2h-4v-1h4V288.2z M560.1,288.2h-4v-1h4V288.2z
			 M553.1,288.2h-4v-1h4V288.2z M546.1,288.2h-4v-1h4V288.2z M539.2,288.2h-4v-1h4V288.2z M532.2,288.2h-4v-1h4V288.2z M525.2,288.2
			h-4v-1h4V288.2z M518.2,288.2h-4v-1h4V288.2z M511.3,288.2h-4v-1h4V288.2z M504.3,288.2h-4v-1h4V288.2z M497.3,288.2h-4v-1h4
			V288.2z M490.3,288.2h-4v-1h4V288.2z M483.4,288.2h-4v-1h4V288.2z M476.4,288.2h-4v-1h4V288.2z M469.4,288.2h-4v-1h4V288.2z
			 M462.4,288.2h-4v-1h4V288.2z M455.5,288.2h-4v-1h4V288.2z M448.5,288.2h-4v-1h4V288.2z M441.5,288.2h-4v-1h4V288.2z M434.5,288.2
			h-4v-1h4V288.2z M427.6,288.2h-4v-1h4V288.2z M420.6,288.2h-4v-1h4V288.2z M413.6,288.2h-4v-1h4V288.2z M406.6,288.2h-4v-1h4
			V288.2z M399.7,288.2h-4v-1h4V288.2z M392.7,288.2h-4v-1h4V288.2z M385.7,288.2h-4v-1h4V288.2z M378.7,288.2h-4v-1h4V288.2z
			 M371.8,288.2h-4v-1h4V288.2z M364.8,288.2h-4v-1h4V288.2z M357.8,288.2h-4v-1h4V288.2z M350.8,288.2h-4v-1h4V288.2z M343.9,288.2
			h-4v-1h4V288.2z M336.9,288.2h-4v-1h4V288.2z M329.9,288.2h-4v-1h4V288.2z M322.9,288.2h-4v-1h4V288.2z M316,288.2h-4v-1h4V288.2z
			 M309,288.2h-4v-1h4V288.2z M302,288.2h-4v-1h4V288.2z M295,288.2h-4v-1h4V288.2z M288.1,288.2h-4v-1h4V288.2z M281.1,288.2h-4v-1
			h4V288.2z M274.1,288.2h-4v-1h4V288.2z M267.1,288.2h-4v-1h4V288.2z M260.2,288.2h-4v-1h4V288.2z M253.2,288.2h-4v-1h4V288.2z
			 M246.2,288.2h-4v-1h4V288.2z M239.2,288.2h-4v-1h4V288.2z M232.3,288.2h-4v-1h4V288.2z M225.3,288.2h-4v-1h4V288.2z M218.3,288.2
			h-4v-1h4V288.2z M211.3,288.2h-4v-1h4V288.2z M204.4,288.2h-4v-1h4V288.2z M197.4,288.2h-4v-1h4V288.2z M190.4,288.2h-4v-1h4
			V288.2z M183.4,288.2h-4v-1h4V288.2z M176.5,288.2h-4v-1h4V288.2z M169.5,288.2h-4v-1h4V288.2z M162.5,288.2h-4v-1h4V288.2z
			 M155.5,288.2h-4v-1h4V288.2z M148.6,288.2h-4v-1h4V288.2z M141.6,288.2h-4v-1h4V288.2z M134.6,288.2h-4v-1h4V288.2z M127.6,288.2
			h-4v-1h4V288.2z M120.7,288.2h-4v-1h4V288.2z M113.7,288.2h-4v-1h4V288.2z M106.7,288.2h-4v-1h4V288.2z M99.8,288.2h-4v-1h4V288.2
			z M92.8,288.2h-4v-1h4V288.2z M85.8,288.2h-4v-1h4V288.2z M78.8,288.2h-4v-1h4V288.2z M71.9,288.2h-4v-1h4V288.2z M64.9,288.2h-4
			v-1h4V288.2z M57.9,288.2h-4v-1h4V288.2z M50.9,288.2h-4v-1h4V288.2z M44,288.2h-4v-1h4V288.2z M37,288.2h-4v-1h4V288.2z
			 M30,288.2h-4v-1h4V288.2z M23,288.2h-4v-1h4V288.2z M16.1,288.2h-4v-1h4V288.2z M9.1,288.2h-4v-1h4V288.2z"/>
		<rect x="0.1" y="287.2" class="st1" width="2" height="1"/>
	</g>
	<g>
		<rect x="856" y="359.2" class="st1" width="2" height="1"/>
		<path class="st1" d="M853,360.2h-4v-1h4V360.2z M846,360.2h-4v-1h4V360.2z M839.1,360.2h-4v-1h4V360.2z M832.1,360.2h-4v-1h4
			V360.2z M825.1,360.2h-4v-1h4V360.2z M818.1,360.2h-4v-1h4V360.2z M811.2,360.2h-4v-1h4V360.2z M804.2,360.2h-4v-1h4V360.2z
			 M797.2,360.2h-4v-1h4V360.2z M790.2,360.2h-4v-1h4V360.2z M783.3,360.2h-4v-1h4V360.2z M776.3,360.2h-4v-1h4V360.2z M769.3,360.2
			h-4v-1h4V360.2z M762.3,360.2h-4v-1h4V360.2z M755.4,360.2h-4v-1h4V360.2z M748.4,360.2h-4v-1h4V360.2z M741.4,360.2h-4v-1h4
			V360.2z M734.4,360.2h-4v-1h4V360.2z M727.5,360.2h-4v-1h4V360.2z M720.5,360.2h-4v-1h4V360.2z M713.5,360.2h-4v-1h4V360.2z
			 M706.5,360.2h-4v-1h4V360.2z M699.6,360.2h-4v-1h4V360.2z M692.6,360.2h-4v-1h4V360.2z M685.6,360.2h-4v-1h4V360.2z M678.6,360.2
			h-4v-1h4V360.2z M671.7,360.2h-4v-1h4V360.2z M664.7,360.2h-4v-1h4V360.2z M657.7,360.2h-4v-1h4V360.2z M650.7,360.2h-4v-1h4
			V360.2z M643.8,360.2h-4v-1h4V360.2z M636.8,360.2h-4v-1h4V360.2z M629.8,360.2h-4v-1h4V360.2z M622.8,360.2h-4v-1h4V360.2z
			 M615.9,360.2h-4v-1h4V360.2z M608.9,360.2h-4v-1h4V360.2z M601.9,360.2h-4v-1h4V360.2z M594.9,360.2h-4v-1h4V360.2z M588,360.2
			h-4v-1h4V360.2z M581,360.2h-4v-1h4V360.2z M574,360.2h-4v-1h4V360.2z M567.1,360.2h-4v-1h4V360.2z M560.1,360.2h-4v-1h4V360.2z
			 M553.1,360.2h-4v-1h4V360.2z M546.1,360.2h-4v-1h4V360.2z M539.2,360.2h-4v-1h4V360.2z M532.2,360.2h-4v-1h4V360.2z M525.2,360.2
			h-4v-1h4V360.2z M518.2,360.2h-4v-1h4V360.2z M511.3,360.2h-4v-1h4V360.2z M504.3,360.2h-4v-1h4V360.2z M497.3,360.2h-4v-1h4
			V360.2z M490.3,360.2h-4v-1h4V360.2z M483.4,360.2h-4v-1h4V360.2z M476.4,360.2h-4v-1h4V360.2z M469.4,360.2h-4v-1h4V360.2z
			 M462.4,360.2h-4v-1h4V360.2z M455.5,360.2h-4v-1h4V360.2z M448.5,360.2h-4v-1h4V360.2z M441.5,360.2h-4v-1h4V360.2z M434.5,360.2
			h-4v-1h4V360.2z M427.6,360.2h-4v-1h4V360.2z M420.6,360.2h-4v-1h4V360.2z M413.6,360.2h-4v-1h4V360.2z M406.6,360.2h-4v-1h4
			V360.2z M399.7,360.2h-4v-1h4V360.2z M392.7,360.2h-4v-1h4V360.2z M385.7,360.2h-4v-1h4V360.2z M378.7,360.2h-4v-1h4V360.2z
			 M371.8,360.2h-4v-1h4V360.2z M364.8,360.2h-4v-1h4V360.2z M357.8,360.2h-4v-1h4V360.2z M350.8,360.2h-4v-1h4V360.2z M343.9,360.2
			h-4v-1h4V360.2z M336.9,360.2h-4v-1h4V360.2z M329.9,360.2h-4v-1h4V360.2z M322.9,360.2h-4v-1h4V360.2z M316,360.2h-4v-1h4V360.2z
			 M309,360.2h-4v-1h4V360.2z M302,360.2h-4v-1h4V360.2z M295,360.2h-4v-1h4V360.2z M288.1,360.2h-4v-1h4V360.2z M281.1,360.2h-4v-1
			h4V360.2z M274.1,360.2h-4v-1h4V360.2z M267.1,360.2h-4v-1h4V360.2z M260.2,360.2h-4v-1h4V360.2z M253.2,360.2h-4v-1h4V360.2z
			 M246.2,360.2h-4v-1h4V360.2z M239.2,360.2h-4v-1h4V360.2z M232.3,360.2h-4v-1h4V360.2z M225.3,360.2h-4v-1h4V360.2z M218.3,360.2
			h-4v-1h4V360.2z M211.3,360.2h-4v-1h4V360.2z M204.4,360.2h-4v-1h4V360.2z M197.4,360.2h-4v-1h4V360.2z M190.4,360.2h-4v-1h4
			V360.2z M183.4,360.2h-4v-1h4V360.2z M176.5,360.2h-4v-1h4V360.2z M169.5,360.2h-4v-1h4V360.2z M162.5,360.2h-4v-1h4V360.2z
			 M155.5,360.2h-4v-1h4V360.2z M148.6,360.2h-4v-1h4V360.2z M141.6,360.2h-4v-1h4V360.2z M134.6,360.2h-4v-1h4V360.2z M127.6,360.2
			h-4v-1h4V360.2z M120.7,360.2h-4v-1h4V360.2z M113.7,360.2h-4v-1h4V360.2z M106.7,360.2h-4v-1h4V360.2z M99.8,360.2h-4v-1h4V360.2
			z M92.8,360.2h-4v-1h4V360.2z M85.8,360.2h-4v-1h4V360.2z M78.8,360.2h-4v-1h4V360.2z M71.9,360.2h-4v-1h4V360.2z M64.9,360.2h-4
			v-1h4V360.2z M57.9,360.2h-4v-1h4V360.2z M50.9,360.2h-4v-1h4V360.2z M44,360.2h-4v-1h4V360.2z M37,360.2h-4v-1h4V360.2z
			 M30,360.2h-4v-1h4V360.2z M23,360.2h-4v-1h4V360.2z M16.1,360.2h-4v-1h4V360.2z M9.1,360.2h-4v-1h4V360.2z"/>
		<rect x="0.1" y="359.2" class="st1" width="2" height="1"/>
	</g>
	<g>
		<rect x="856" y="323.5" class="st1" width="2" height="1"/>
		<path class="st1" d="M853,324.5h-4v-1h4V324.5z M845.9,324.5h-4v-1h4V324.5z M838.9,324.5h-4v-1h4V324.5z M831.8,324.5h-4v-1h4
			V324.5z M824.8,324.5h-4v-1h4V324.5z M817.8,324.5h-4v-1h4V324.5z M810.7,324.5h-4v-1h4V324.5z M803.7,324.5h-4v-1h4V324.5z
			 M796.6,324.5h-4v-1h4V324.5z M789.6,324.5h-4v-1h4V324.5z M782.5,324.5h-4v-1h4V324.5z M775.5,324.5h-4v-1h4V324.5z M768.5,324.5
			h-4v-1h4V324.5z M761.4,324.5h-4v-1h4V324.5z M754.4,324.5h-4v-1h4V324.5z M747.3,324.5h-4v-1h4V324.5z M740.3,324.5h-4v-1h4
			V324.5z M733.2,324.5h-4v-1h4V324.5z M726.2,324.5h-4v-1h4V324.5z M719.1,324.5h-4v-1h4V324.5z M712.1,324.5h-4v-1h4V324.5z
			 M705.1,324.5h-4v-1h4V324.5z M698,324.5h-4v-1h4V324.5z M691,324.5h-4v-1h4V324.5z M683.9,324.5h-4v-1h4V324.5z M676.9,324.5h-4
			v-1h4V324.5z M669.8,324.5h-4v-1h4V324.5z M662.8,324.5h-4v-1h4V324.5z M655.7,324.5h-4v-1h4V324.5z M648.7,324.5h-4v-1h4V324.5z
			 M641.7,324.5h-4v-1h4V324.5z M634.6,324.5h-4v-1h4V324.5z M627.6,324.5h-4v-1h4V324.5z M620.5,324.5h-4v-1h4V324.5z M613.5,324.5
			h-4v-1h4V324.5z M606.4,324.5h-4v-1h4V324.5z M599.4,324.5h-4v-1h4V324.5z M592.4,324.5h-4v-1h4V324.5z M585.3,324.5h-4v-1h4
			V324.5z M578.3,324.5h-4v-1h4V324.5z M571.2,324.5h-4v-1h4V324.5z M564.2,324.5h-4v-1h4V324.5z M557.1,324.5h-4v-1h4V324.5z
			 M550.1,324.5h-4v-1h4V324.5z M543,324.5h-4v-1h4V324.5z"/>
		<rect x="534" y="323.5" class="st1" width="2" height="1"/>
	</g>
	<g>
		<rect x="322" y="323.5" class="st1" width="2" height="1"/>
		<path class="st1" d="M319,324.5h-4v-1h4V324.5z M311.9,324.5h-4v-1h4V324.5z M304.9,324.5h-4v-1h4V324.5z M297.8,324.5h-4v-1h4
			V324.5z M290.8,324.5h-4v-1h4V324.5z M283.8,324.5h-4v-1h4V324.5z M276.7,324.5h-4v-1h4V324.5z M269.7,324.5h-4v-1h4V324.5z
			 M262.6,324.5h-4v-1h4V324.5z M255.6,324.5h-4v-1h4V324.5z M248.5,324.5h-4v-1h4V324.5z M241.5,324.5h-4v-1h4V324.5z M234.5,324.5
			h-4v-1h4V324.5z M227.4,324.5h-4v-1h4V324.5z M220.4,324.5h-4v-1h4V324.5z M213.3,324.5h-4v-1h4V324.5z M206.3,324.5h-4v-1h4
			V324.5z M199.2,324.5h-4v-1h4V324.5z M192.2,324.5h-4v-1h4V324.5z M185.1,324.5h-4v-1h4V324.5z M178.1,324.5h-4v-1h4V324.5z
			 M171.1,324.5h-4v-1h4V324.5z M164,324.5h-4v-1h4V324.5z M157,324.5h-4v-1h4V324.5z M149.9,324.5h-4v-1h4V324.5z M142.9,324.5h-4
			v-1h4V324.5z M135.8,324.5h-4v-1h4V324.5z M128.8,324.5h-4v-1h4V324.5z M121.7,324.5h-4v-1h4V324.5z M114.7,324.5h-4v-1h4V324.5z
			 M107.7,324.5h-4v-1h4V324.5z M100.6,324.5h-4v-1h4V324.5z M93.6,324.5h-4v-1h4V324.5z M86.5,324.5h-4v-1h4V324.5z M79.5,324.5h-4
			v-1h4V324.5z M72.4,324.5h-4v-1h4V324.5z M65.4,324.5h-4v-1h4V324.5z M58.4,324.5h-4v-1h4V324.5z M51.3,324.5h-4v-1h4V324.5z
			 M44.3,324.5h-4v-1h4V324.5z M37.2,324.5h-4v-1h4V324.5z M30.2,324.5h-4v-1h4V324.5z M23.1,324.5h-4v-1h4V324.5z M16.1,324.5h-4
			v-1h4V324.5z M9,324.5H5v-1h4V324.5z"/>
		<rect x="0" y="323.5" class="st1" width="2" height="1"/>
	</g>
	<polygon class="st1" points="576.1,192 624.1,144 672.1,192 	"/>
	<g>
		<rect x="856" y="215.2" class="st1" width="2" height="1"/>
		<path class="st1" d="M853,216.2h-4v-1h4V216.2z M846,216.2h-4v-1h4V216.2z M839.1,216.2h-4v-1h4V216.2z M832.1,216.2h-4v-1h4
			V216.2z M825.1,216.2h-4v-1h4V216.2z M818.1,216.2h-4v-1h4V216.2z M811.2,216.2h-4v-1h4V216.2z M804.2,216.2h-4v-1h4V216.2z
			 M797.2,216.2h-4v-1h4V216.2z M790.2,216.2h-4v-1h4V216.2z M783.3,216.2h-4v-1h4V216.2z M776.3,216.2h-4v-1h4V216.2z M769.3,216.2
			h-4v-1h4V216.2z M762.3,216.2h-4v-1h4V216.2z M755.4,216.2h-4v-1h4V216.2z M748.4,216.2h-4v-1h4V216.2z M741.4,216.2h-4v-1h4
			V216.2z M734.4,216.2h-4v-1h4V216.2z M727.5,216.2h-4v-1h4V216.2z M720.5,216.2h-4v-1h4V216.2z M713.5,216.2h-4v-1h4V216.2z
			 M706.5,216.2h-4v-1h4V216.2z M699.6,216.2h-4v-1h4V216.2z M692.6,216.2h-4v-1h4V216.2z M685.6,216.2h-4v-1h4V216.2z M678.6,216.2
			h-4v-1h4V216.2z M671.7,216.2h-4v-1h4V216.2z M664.7,216.2h-4v-1h4V216.2z M657.7,216.2h-4v-1h4V216.2z M650.7,216.2h-4v-1h4
			V216.2z M643.8,216.2h-4v-1h4V216.2z M636.8,216.2h-4v-1h4V216.2z M629.8,216.2h-4v-1h4V216.2z M622.8,216.2h-4v-1h4V216.2z
			 M615.9,216.2h-4v-1h4V216.2z M608.9,216.2h-4v-1h4V216.2z M601.9,216.2h-4v-1h4V216.2z M594.9,216.2h-4v-1h4V216.2z M588,216.2
			h-4v-1h4V216.2z M581,216.2h-4v-1h4V216.2z M574,216.2h-4v-1h4V216.2z M567.1,216.2h-4v-1h4V216.2z M560.1,216.2h-4v-1h4V216.2z
			 M553.1,216.2h-4v-1h4V216.2z M546.1,216.2h-4v-1h4V216.2z M539.2,216.2h-4v-1h4V216.2z M532.2,216.2h-4v-1h4V216.2z M525.2,216.2
			h-4v-1h4V216.2z M518.2,216.2h-4v-1h4V216.2z M511.3,216.2h-4v-1h4V216.2z M504.3,216.2h-4v-1h4V216.2z M497.3,216.2h-4v-1h4
			V216.2z M490.3,216.2h-4v-1h4V216.2z M483.4,216.2h-4v-1h4V216.2z M476.4,216.2h-4v-1h4V216.2z M469.4,216.2h-4v-1h4V216.2z
			 M462.4,216.2h-4v-1h4V216.2z M455.5,216.2h-4v-1h4V216.2z M448.5,216.2h-4v-1h4V216.2z M441.5,216.2h-4v-1h4V216.2z M434.5,216.2
			h-4v-1h4V216.2z M427.6,216.2h-4v-1h4V216.2z M420.6,216.2h-4v-1h4V216.2z M413.6,216.2h-4v-1h4V216.2z M406.6,216.2h-4v-1h4
			V216.2z M399.7,216.2h-4v-1h4V216.2z M392.7,216.2h-4v-1h4V216.2z M385.7,216.2h-4v-1h4V216.2z M378.7,216.2h-4v-1h4V216.2z
			 M371.8,216.2h-4v-1h4V216.2z M364.8,216.2h-4v-1h4V216.2z M357.8,216.2h-4v-1h4V216.2z M350.8,216.2h-4v-1h4V216.2z M343.9,216.2
			h-4v-1h4V216.2z M336.9,216.2h-4v-1h4V216.2z M329.9,216.2h-4v-1h4V216.2z M322.9,216.2h-4v-1h4V216.2z M316,216.2h-4v-1h4V216.2z
			 M309,216.2h-4v-1h4V216.2z M302,216.2h-4v-1h4V216.2z M295,216.2h-4v-1h4V216.2z M288.1,216.2h-4v-1h4V216.2z M281.1,216.2h-4v-1
			h4V216.2z M274.1,216.2h-4v-1h4V216.2z M267.1,216.2h-4v-1h4V216.2z M260.2,216.2h-4v-1h4V216.2z M253.2,216.2h-4v-1h4V216.2z
			 M246.2,216.2h-4v-1h4V216.2z M239.2,216.2h-4v-1h4V216.2z M232.3,216.2h-4v-1h4V216.2z M225.3,216.2h-4v-1h4V216.2z M218.3,216.2
			h-4v-1h4V216.2z M211.3,216.2h-4v-1h4V216.2z M204.4,216.2h-4v-1h4V216.2z M197.4,216.2h-4v-1h4V216.2z M190.4,216.2h-4v-1h4
			V216.2z M183.4,216.2h-4v-1h4V216.2z M176.5,216.2h-4v-1h4V216.2z M169.5,216.2h-4v-1h4V216.2z M162.5,216.2h-4v-1h4V216.2z
			 M155.5,216.2h-4v-1h4V216.2z M148.6,216.2h-4v-1h4V216.2z M141.6,216.2h-4v-1h4V216.2z M134.6,216.2h-4v-1h4V216.2z M127.6,216.2
			h-4v-1h4V216.2z M120.7,216.2h-4v-1h4V216.2z M113.7,216.2h-4v-1h4V216.2z M106.7,216.2h-4v-1h4V216.2z M99.8,216.2h-4v-1h4V216.2
			z M92.8,216.2h-4v-1h4V216.2z M85.8,216.2h-4v-1h4V216.2z M78.8,216.2h-4v-1h4V216.2z M71.9,216.2h-4v-1h4V216.2z M64.9,216.2h-4
			v-1h4V216.2z M57.9,216.2h-4v-1h4V216.2z M50.9,216.2h-4v-1h4V216.2z M44,216.2h-4v-1h4V216.2z M37,216.2h-4v-1h4V216.2z
			 M30,216.2h-4v-1h4V216.2z M23,216.2h-4v-1h4V216.2z M16.1,216.2h-4v-1h4V216.2z M9.1,216.2h-4v-1h4V216.2z"/>
		<rect x="0.1" y="215.2" class="st1" width="2" height="1"/>
	</g>
	<g>
		<rect x="641.5" y="0" class="st1" width="1" height="2"/>
		<path class="st1" d="M642.5,499h-1v-4h1V499z M642.5,492h-1v-4h1V492z M642.5,485h-1v-4h1V485z M642.5,478h-1v-4h1V478z
			 M642.5,471h-1v-4h1V471z M642.5,464h-1v-4h1V464z M642.5,457h-1v-4h1V457z M642.5,450h-1v-4h1V450z M642.5,443h-1v-4h1V443z
			 M642.5,436h-1v-4h1V436z M642.5,429h-1v-4h1V429z M642.5,422h-1v-4h1V422z M642.5,415h-1v-4h1V415z M642.5,408h-1v-4h1V408z
			 M642.5,401h-1v-4h1V401z M642.5,394h-1v-4h1V394z M642.5,387h-1v-4h1V387z M642.5,380h-1v-4h1V380z M642.5,373h-1v-4h1V373z
			 M642.5,366h-1v-4h1V366z M642.5,359h-1v-4h1V359z M642.5,352h-1v-4h1V352z M642.5,345h-1v-4h1V345z M642.5,338h-1v-4h1V338z
			 M642.5,331h-1v-4h1V331z M642.5,324h-1v-4h1V324z M642.5,317h-1v-4h1V317z M642.5,310h-1v-4h1V310z M642.5,303h-1v-4h1V303z
			 M642.5,296h-1v-4h1V296z M642.5,289h-1v-4h1V289z M642.5,282h-1v-4h1V282z M642.5,275h-1v-4h1V275z M642.5,268h-1v-4h1V268z
			 M642.5,261h-1v-4h1V261z M642.5,254h-1v-4h1V254z M642.5,247h-1v-4h1V247z M642.5,240h-1v-4h1V240z M642.5,233h-1v-4h1V233z
			 M642.5,226h-1v-4h1V226z M642.5,219h-1v-4h1V219z M642.5,212h-1v-4h1V212z M642.5,205h-1v-4h1V205z M642.5,198h-1v-4h1V198z
			 M642.5,191h-1v-4h1V191z M642.5,184h-1v-4h1V184z M642.5,177h-1v-4h1V177z M642.5,170h-1v-4h1V170z M642.5,163h-1v-4h1V163z
			 M642.5,156h-1v-4h1V156z M642.5,149h-1v-4h1V149z M642.5,142h-1v-4h1V142z M642.5,135h-1v-4h1V135z M642.5,128h-1v-4h1V128z
			 M642.5,121h-1v-4h1V121z M642.5,114h-1v-4h1V114z M642.5,107h-1v-4h1V107z M642.5,100h-1v-4h1V100z M642.5,93h-1v-4h1V93z
			 M642.5,86h-1v-4h1V86z M642.5,79h-1v-4h1V79z M642.5,72h-1v-4h1V72z M642.5,65h-1v-4h1V65z M642.5,58h-1v-4h1V58z M642.5,51h-1
			v-4h1V51z M642.5,44h-1v-4h1V44z M642.5,37h-1v-4h1V37z M642.5,30h-1v-4h1V30z M642.5,23h-1v-4h1V23z M642.5,16h-1v-4h1V16z
			 M642.5,9h-1V5h1V9z"/>
		<rect x="641.5" y="502" class="st1" width="1" height="2"/>
	</g>
	<g>
		<rect x="677.5" y="324" class="st1" width="1" height="2"/>
		<path class="st1" d="M678.5,499h-1v-4h1V499z M678.5,492.1h-1v-4h1V492.1z M678.5,485.2h-1v-4h1V485.2z M678.5,478.3h-1v-4h1
			V478.3z M678.5,471.3h-1v-4h1V471.3z M678.5,464.4h-1v-4h1V464.4z M678.5,457.5h-1v-4h1V457.5z M678.5,450.6h-1v-4h1V450.6z
			 M678.5,443.7h-1v-4h1V443.7z M678.5,436.7h-1v-4h1V436.7z M678.5,429.8h-1v-4h1V429.8z M678.5,422.9h-1v-4h1V422.9z M678.5,416
			h-1v-4h1V416z M678.5,409.1h-1v-4h1V409.1z M678.5,402.1h-1v-4h1V402.1z M678.5,395.2h-1v-4h1V395.2z M678.5,388.3h-1v-4h1V388.3z
			 M678.5,381.4h-1v-4h1V381.4z M678.5,374.4h-1v-4h1V374.4z M678.5,367.5h-1v-4h1V367.5z M678.5,360.6h-1v-4h1V360.6z M678.5,353.7
			h-1v-4h1V353.7z M678.5,346.8h-1v-4h1V346.8z M678.5,339.8h-1v-4h1V339.8z M678.5,332.9h-1v-4h1V332.9z"/>
		<rect x="677.5" y="502" class="st1" width="1" height="2"/>
	</g>
	<g>
		<rect x="179.5" y="324" class="st1" width="1" height="2"/>
		<path class="st1" d="M180.5,499h-1v-4h1V499z M180.5,492.1h-1v-4h1V492.1z M180.5,485.2h-1v-4h1V485.2z M180.5,478.3h-1v-4h1
			V478.3z M180.5,471.3h-1v-4h1V471.3z M180.5,464.4h-1v-4h1V464.4z M180.5,457.5h-1v-4h1V457.5z M180.5,450.6h-1v-4h1V450.6z
			 M180.5,443.7h-1v-4h1V443.7z M180.5,436.7h-1v-4h1V436.7z M180.5,429.8h-1v-4h1V429.8z M180.5,422.9h-1v-4h1V422.9z M180.5,416
			h-1v-4h1V416z M180.5,409.1h-1v-4h1V409.1z M180.5,402.1h-1v-4h1V402.1z M180.5,395.2h-1v-4h1V395.2z M180.5,388.3h-1v-4h1V388.3z
			 M180.5,381.4h-1v-4h1V381.4z M180.5,374.4h-1v-4h1V374.4z M180.5,367.5h-1v-4h1V367.5z M180.5,360.6h-1v-4h1V360.6z M180.5,353.7
			h-1v-4h1V353.7z M180.5,346.8h-1v-4h1V346.8z M180.5,339.8h-1v-4h1V339.8z M180.5,332.9h-1v-4h1V332.9z"/>
		<rect x="179.5" y="502" class="st1" width="1" height="2"/>
	</g>
	<g>
		<rect x="251.5" y="324" class="st1" width="1" height="2"/>
		<path class="st1" d="M252.5,354.9h-1v-4.1h1V354.9z M252.5,347.7h-1v-4.1h1V347.7z M252.5,340.5h-1v-4.1h1V340.5z M252.5,333.2h-1
			v-4.1h1V333.2z"/>
		<rect x="251.5" y="358" class="st1" width="1" height="2"/>
	</g>
	<g>
		<rect x="605.5" y="324" class="st1" width="1" height="2"/>
		<path class="st1" d="M606.5,354.9h-1v-4.1h1V354.9z M606.5,347.7h-1v-4.1h1V347.7z M606.5,340.5h-1v-4.1h1V340.5z M606.5,333.2h-1
			v-4.1h1V333.2z"/>
		<rect x="605.5" y="358" class="st1" width="1" height="2"/>
	</g>
	<g>
		<rect x="395.5" y="288" class="st1" width="1" height="2"/>
		<path class="st1" d="M396.5,354.9h-1v-4.1h1V354.9z M396.5,347.7h-1v-4.1h1V347.7z M396.5,340.5h-1v-4.1h1V340.5z M396.5,333.3h-1
			v-4.1h1V333.3z M396.5,326.1h-1v-4.1h1V326.1z M396.5,318.8h-1v-4.1h1V318.8z M396.5,311.6h-1v-4.1h1V311.6z M396.5,304.4h-1v-4.1
			h1V304.4z M396.5,297.2h-1v-4.1h1V297.2z"/>
		<rect x="395.5" y="358" class="st1" width="1" height="2"/>
	</g>
	<g>
		<rect x="359.5" y="288" class="st1" width="1" height="2"/>
		<path class="st1" d="M360.5,354.9h-1v-4.1h1V354.9z M360.5,347.7h-1v-4.1h1V347.7z M360.5,340.5h-1v-4.1h1V340.5z M360.5,333.3h-1
			v-4.1h1V333.3z M360.5,326.1h-1v-4.1h1V326.1z M360.5,318.8h-1v-4.1h1V318.8z M360.5,311.6h-1v-4.1h1V311.6z M360.5,304.4h-1v-4.1
			h1V304.4z M360.5,297.2h-1v-4.1h1V297.2z"/>
		<rect x="359.5" y="358" class="st1" width="1" height="2"/>
	</g>
	<g>
		<rect x="215.5" y="0" class="st1" width="1" height="2"/>
		<path class="st1" d="M216.5,499h-1v-4h1V499z M216.5,492h-1v-4h1V492z M216.5,485h-1v-4h1V485z M216.5,478h-1v-4h1V478z
			 M216.5,471h-1v-4h1V471z M216.5,464h-1v-4h1V464z M216.5,457h-1v-4h1V457z M216.5,450h-1v-4h1V450z M216.5,443h-1v-4h1V443z
			 M216.5,436h-1v-4h1V436z M216.5,429h-1v-4h1V429z M216.5,422h-1v-4h1V422z M216.5,415h-1v-4h1V415z M216.5,408h-1v-4h1V408z
			 M216.5,401h-1v-4h1V401z M216.5,394h-1v-4h1V394z M216.5,387h-1v-4h1V387z M216.5,380h-1v-4h1V380z M216.5,373h-1v-4h1V373z
			 M216.5,366h-1v-4h1V366z M216.5,359h-1v-4h1V359z M216.5,352h-1v-4h1V352z M216.5,345h-1v-4h1V345z M216.5,338h-1v-4h1V338z
			 M216.5,331h-1v-4h1V331z M216.5,324h-1v-4h1V324z M216.5,317h-1v-4h1V317z M216.5,310h-1v-4h1V310z M216.5,303h-1v-4h1V303z
			 M216.5,296h-1v-4h1V296z M216.5,289h-1v-4h1V289z M216.5,282h-1v-4h1V282z M216.5,275h-1v-4h1V275z M216.5,268h-1v-4h1V268z
			 M216.5,261h-1v-4h1V261z M216.5,254h-1v-4h1V254z M216.5,247h-1v-4h1V247z M216.5,240h-1v-4h1V240z M216.5,233h-1v-4h1V233z
			 M216.5,226h-1v-4h1V226z M216.5,219h-1v-4h1V219z M216.5,212h-1v-4h1V212z M216.5,205h-1v-4h1V205z M216.5,198h-1v-4h1V198z
			 M216.5,191h-1v-4h1V191z M216.5,184h-1v-4h1V184z M216.5,177h-1v-4h1V177z M216.5,170h-1v-4h1V170z M216.5,163h-1v-4h1V163z
			 M216.5,156h-1v-4h1V156z M216.5,149h-1v-4h1V149z M216.5,142h-1v-4h1V142z M216.5,135h-1v-4h1V135z M216.5,128h-1v-4h1V128z
			 M216.5,121h-1v-4h1V121z M216.5,114h-1v-4h1V114z M216.5,107h-1v-4h1V107z M216.5,100h-1v-4h1V100z M216.5,93h-1v-4h1V93z
			 M216.5,86h-1v-4h1V86z M216.5,79h-1v-4h1V79z M216.5,72h-1v-4h1V72z M216.5,65h-1v-4h1V65z M216.5,58h-1v-4h1V58z M216.5,51h-1
			v-4h1V51z M216.5,44h-1v-4h1V44z M216.5,37h-1v-4h1V37z M216.5,30h-1v-4h1V30z M216.5,23h-1v-4h1V23z M216.5,16h-1v-4h1V16z
			 M216.5,9h-1V5h1V9z"/>
		<rect x="215.5" y="502" class="st1" width="1" height="2"/>
	</g>
</g>
</svg>
