<?xml version="1.0" encoding="utf-8"?>
<!-- Generator: Adobe Illustrator 23.1.0, SVG Export Plug-In . SVG Version: 6.00 Build 0)  -->
<svg version="1.1" xmlns="http://www.w3.org/2000/svg" xmlns:xlink="http://www.w3.org/1999/xlink" x="0px" y="0px"
	 viewBox="0 0 858 504" style="enable-background:new 0 0 858 504;" xml:space="preserve">
<style type="text/css">
	.st0{fill:#DBD4D3;}
	.st1{fill:#FFFFFF;}
	.st2{fill:#242121;}
	.st3{fill:#C7C0BF;}
	.st4{fill:#5C5958;}
	.st5{fill:#FF8873;}
	.st6{fill:#78FFA5;}
	.st7{fill:#907DFF;}
	.st8{fill:#FFE876;}
	.st9{fill:#7BD7FF;}
</style>
<g id="Layer_2">
	<rect x="0" y="0" class="st3" width="857.8" height="504"/>
</g>
<g id="Layer_1">
	<rect x="72" y="72" class="st0" width="714" height="360"/>
	<rect x="504" y="143.7" class="st5" width="36" height="72"/>
	<rect x="504" y="71.7" class="st5" width="36" height="72"/>
	<rect x="642.1" y="215.7" class="st5" width="72" height="36"/>
	<rect x="714.1" y="215.7" class="st5" width="72" height="36"/>
	<rect x="360" y="359.7" class="st5" width="36" height="72"/>
	<rect x="360.1" y="287.7" class="st5" width="36" height="72"/>
	<rect x="72" y="252" class="st5" width="72" height="36"/>
	<rect x="144" y="252" class="st5" width="72" height="36"/>
	<polygon class="st1" points="540.1,216 504.1,216 504.1,288 540.1,288 576.1,252 	"/>
	<rect x="606.1" y="216" class="st1" width="36" height="72"/>
	<polygon class="st1" points="324.1,216 324.1,252 306.1,252 306.1,216 270.1,216 270.1,252 252.1,252 252.1,216 216.1,216 
		216.1,288 360.1,288 360.1,216 	"/>
	<path class="st1" d="M396.1,288v-36c19.9,0,36-16.1,36-36h36C468.1,255.7,435.8,288,396.1,288z"/>
	<g>
		<rect x="504" y="143.2" class="st1" width="2" height="1"/>
		<path class="st1" d="M509.1,144.2v-1l4.1,0v1L509.1,144.2z M516.3,144.2v-1l4.1,0v1L516.3,144.2z M523.5,144.2v-1l4.1,0v1
			L523.5,144.2z M530.8,144.2v-1l4.1,0v1L530.8,144.2z"/>
		<rect x="538" y="143.2" class="st1" width="2" height="1"/>
	</g>
	<g>
		<rect x="856" y="215.5" class="st1" width="2" height="1"/>
		<path class="st1" d="M853,216.5h-4v-1h4V216.5z M846,216.5h-4v-1h4V216.5z M839.1,216.5h-4v-1h4V216.5z M832.1,216.5h-4v-1h4
			V216.5z M825.1,216.5h-4v-1h4V216.5z M818.1,216.5h-4v-1h4V216.5z M811.1,216.5h-4v-1h4V216.5z M804.2,216.5h-4v-1h4V216.5z
			 M797.2,216.5h-4v-1h4V216.5z M790.2,216.5h-4v-1h4V216.5z M783.2,216.5h-4v-1h4V216.5z M776.3,216.5h-4v-1h4V216.5z M769.3,216.5
			h-4v-1h4V216.5z M762.3,216.5h-4v-1h4V216.5z M755.3,216.5h-4v-1h4V216.5z M748.3,216.5h-4v-1h4V216.5z M741.4,216.5h-4v-1h4
			V216.5z M734.4,216.5h-4v-1h4V216.5z M727.4,216.5h-4v-1h4V216.5z M720.4,216.5h-4v-1h4V216.5z M713.5,216.5h-4v-1h4V216.5z
			 M706.5,216.5h-4v-1h4V216.5z M699.5,216.5h-4v-1h4V216.5z M692.5,216.5h-4v-1h4V216.5z M685.6,216.5h-4v-1h4V216.5z M678.6,216.5
			h-4v-1h4V216.5z M671.6,216.5h-4v-1h4V216.5z M664.6,216.5h-4v-1h4V216.5z M657.6,216.5h-4v-1h4V216.5z M650.7,216.5h-4v-1h4
			V216.5z M643.7,216.5h-4v-1h4V216.5z M636.7,216.5h-4v-1h4V216.5z M629.7,216.5h-4v-1h4V216.5z M622.8,216.5h-4v-1h4V216.5z
			 M615.8,216.5h-4v-1h4V216.5z M608.8,216.5h-4v-1h4V216.5z M601.8,216.5h-4v-1h4V216.5z M594.8,216.5h-4v-1h4V216.5z M587.9,216.5
			h-4v-1h4V216.5z M580.9,216.5h-4v-1h4V216.5z M573.9,216.5h-4v-1h4V216.5z M566.9,216.5h-4v-1h4V216.5z M560,216.5h-4v-1h4V216.5z
			 M553,216.5h-4v-1h4V216.5z M546,216.5h-4v-1h4V216.5z M539,216.5h-4v-1h4V216.5z M532.1,216.5h-4v-1h4V216.5z M525.1,216.5h-4v-1
			h4V216.5z M518.1,216.5h-4v-1h4V216.5z M511.1,216.5h-4v-1h4V216.5z M504.1,216.5h-4v-1h4V216.5z M497.2,216.5h-4v-1h4V216.5z
			 M490.2,216.5h-4v-1h4V216.5z M483.2,216.5h-4v-1h4V216.5z M476.2,216.5h-4v-1h4V216.5z M469.3,216.5h-4v-1h4V216.5z M462.3,216.5
			h-4v-1h4V216.5z M455.3,216.5h-4v-1h4V216.5z M448.3,216.5h-4v-1h4V216.5z M441.3,216.5h-4v-1h4V216.5z M434.4,216.5h-4v-1h4
			V216.5z M427.4,216.5h-4v-1h4V216.5z M420.4,216.5h-4v-1h4V216.5z M413.4,216.5h-4v-1h4V216.5z M406.5,216.5h-4v-1h4V216.5z
			 M399.5,216.5h-4v-1h4V216.5z M392.5,216.5h-4v-1h4V216.5z M385.5,216.5h-4v-1h4V216.5z M378.6,216.5h-4v-1h4V216.5z M371.6,216.5
			h-4v-1h4V216.5z M364.6,216.5h-4v-1h4V216.5z M357.6,216.5h-4v-1h4V216.5z M350.6,216.5h-4v-1h4V216.5z M343.7,216.5h-4v-1h4
			V216.5z M336.7,216.5h-4v-1h4V216.5z M329.7,216.5h-4v-1h4V216.5z M322.7,216.5h-4v-1h4V216.5z M315.8,216.5h-4v-1h4V216.5z
			 M308.8,216.5h-4v-1h4V216.5z M301.8,216.5h-4v-1h4V216.5z M294.8,216.5h-4v-1h4V216.5z M287.8,216.5h-4v-1h4V216.5z M280.9,216.5
			h-4v-1h4V216.5z M273.9,216.5h-4v-1h4V216.5z M266.9,216.5h-4v-1h4V216.5z M259.9,216.5h-4v-1h4V216.5z M253,216.5h-4v-1h4V216.5z
			 M246,216.5h-4v-1h4V216.5z M239,216.5h-4v-1h4V216.5z M232,216.5h-4v-1h4V216.5z M225,216.5h-4v-1h4V216.5z"/>
		<rect x="216.1" y="215.5" class="st1" width="2" height="1"/>
	</g>
	<g>
		<rect x="856" y="251.5" class="st1" width="2" height="1"/>
		<path class="st1" d="M853,252.5h-4v-1h4V252.5z M846,252.5h-4v-1h4V252.5z M839.1,252.5h-4v-1h4V252.5z M832.1,252.5h-4v-1h4
			V252.5z M825.1,252.5h-4v-1h4V252.5z M818.2,252.5h-4v-1h4V252.5z M811.2,252.5h-4v-1h4V252.5z M804.2,252.5h-4v-1h4V252.5z
			 M797.3,252.5h-4v-1h4V252.5z M790.3,252.5h-4v-1h4V252.5z M783.3,252.5h-4v-1h4V252.5z M776.4,252.5h-4v-1h4V252.5z M769.4,252.5
			h-4v-1h4V252.5z M762.4,252.5h-4v-1h4V252.5z M755.5,252.5h-4v-1h4V252.5z M748.5,252.5h-4v-1h4V252.5z M741.5,252.5h-4v-1h4
			V252.5z M734.6,252.5h-4v-1h4V252.5z M727.6,252.5h-4v-1h4V252.5z M720.6,252.5h-4v-1h4V252.5z M713.7,252.5h-4v-1h4V252.5z
			 M706.7,252.5h-4v-1h4V252.5z M699.7,252.5h-4v-1h4V252.5z M692.8,252.5h-4v-1h4V252.5z M685.8,252.5h-4v-1h4V252.5z M678.8,252.5
			h-4v-1h4V252.5z M671.9,252.5h-4v-1h4V252.5z M664.9,252.5h-4v-1h4V252.5z M657.9,252.5h-4v-1h4V252.5z M651,252.5h-4v-1h4V252.5z
			"/>
		<rect x="642" y="251.5" class="st1" width="2" height="1"/>
	</g>
	<g>
		<rect x="214" y="251.5" class="st1" width="2" height="1"/>
		<path class="st1" d="M211,252.5h-4v-1h4V252.5z M204,252.5h-4v-1h4V252.5z M197.1,252.5h-4v-1h4V252.5z M190.1,252.5h-4v-1h4
			V252.5z M183.2,252.5h-4v-1h4V252.5z M176.2,252.5h-4v-1h4V252.5z M169.2,252.5h-4v-1h4V252.5z M162.3,252.5h-4v-1h4V252.5z
			 M155.3,252.5h-4v-1h4V252.5z M148.3,252.5h-4v-1h4V252.5z M141.4,252.5h-4v-1h4V252.5z M134.4,252.5h-4v-1h4V252.5z M127.4,252.5
			h-4v-1h4V252.5z M120.5,252.5h-4v-1h4V252.5z M113.5,252.5h-4v-1h4V252.5z M106.5,252.5h-4v-1h4V252.5z M99.6,252.5h-4v-1h4V252.5
			z M92.6,252.5h-4v-1h4V252.5z M85.6,252.5h-4v-1h4V252.5z M78.7,252.5h-4v-1h4V252.5z M71.7,252.5h-4v-1h4V252.5z M64.7,252.5h-4
			v-1h4V252.5z M57.8,252.5h-4v-1h4V252.5z M50.8,252.5h-4v-1h4V252.5z M43.8,252.5h-4v-1h4V252.5z M36.9,252.5h-4v-1h4V252.5z
			 M29.9,252.5h-4v-1h4V252.5z M22.9,252.5h-4v-1h4V252.5z M16,252.5h-4v-1h4V252.5z M9,252.5H5v-1h4V252.5z"/>
		<rect x="0" y="251.5" class="st1" width="2" height="1"/>
	</g>
	<g>
		<rect x="640.1" y="287.5" class="st1" width="2" height="1"/>
		<path class="st1" d="M637.1,288.5h-4v-1h4V288.5z M630.1,288.5h-4v-1h4V288.5z M623.1,288.5h-4v-1h4V288.5z M616.1,288.5h-4v-1h4
			V288.5z M609.2,288.5h-4v-1h4V288.5z M602.2,288.5h-4v-1h4V288.5z M595.2,288.5h-4v-1h4V288.5z M588.2,288.5h-4v-1h4V288.5z
			 M581.3,288.5h-4v-1h4V288.5z M574.3,288.5h-4v-1h4V288.5z M567.3,288.5h-4v-1h4V288.5z M560.3,288.5h-4v-1h4V288.5z M553.3,288.5
			h-4v-1h4V288.5z M546.4,288.5h-4v-1h4V288.5z M539.4,288.5h-4v-1h4V288.5z M532.4,288.5h-4v-1h4V288.5z M525.4,288.5h-4v-1h4
			V288.5z M518.4,288.5h-4v-1h4V288.5z M511.5,288.5h-4v-1h4V288.5z M504.5,288.5h-4v-1h4V288.5z M497.5,288.5h-4v-1h4V288.5z
			 M490.5,288.5h-4v-1h4V288.5z M483.6,288.5h-4v-1h4V288.5z M476.6,288.5h-4v-1h4V288.5z M469.6,288.5h-4v-1h4V288.5z M462.6,288.5
			h-4v-1h4V288.5z M455.6,288.5h-4v-1h4V288.5z M448.7,288.5h-4v-1h4V288.5z M441.7,288.5h-4v-1h4V288.5z M434.7,288.5h-4v-1h4
			V288.5z M427.7,288.5h-4v-1h4V288.5z M420.7,288.5h-4v-1h4V288.5z M413.8,288.5h-4v-1h4V288.5z M406.8,288.5h-4v-1h4V288.5z
			 M399.8,288.5h-4v-1h4V288.5z M392.8,288.5h-4v-1h4V288.5z M385.9,288.5h-4v-1h4V288.5z M378.9,288.5h-4v-1h4V288.5z M371.9,288.5
			h-4v-1h4V288.5z M364.9,288.5h-4v-1h4V288.5z M357.9,288.5h-4v-1h4V288.5z M351,288.5h-4v-1h4V288.5z M344,288.5h-4v-1h4V288.5z
			 M337,288.5h-4v-1h4V288.5z M330,288.5h-4v-1h4V288.5z M323.1,288.5h-4v-1h4V288.5z M316.1,288.5h-4v-1h4V288.5z M309.1,288.5h-4
			v-1h4V288.5z M302.1,288.5h-4v-1h4V288.5z M295.1,288.5h-4v-1h4V288.5z M288.2,288.5h-4v-1h4V288.5z M281.2,288.5h-4v-1h4V288.5z
			 M274.2,288.5h-4v-1h4V288.5z M267.2,288.5h-4v-1h4V288.5z M260.2,288.5h-4v-1h4V288.5z M253.3,288.5h-4v-1h4V288.5z M246.3,288.5
			h-4v-1h4V288.5z M239.3,288.5h-4v-1h4V288.5z M232.3,288.5h-4v-1h4V288.5z M225.4,288.5h-4v-1h4V288.5z M218.4,288.5h-4v-1h4
			V288.5z M211.4,288.5h-4v-1h4V288.5z M204.4,288.5h-4v-1h4V288.5z M197.4,288.5h-4v-1h4V288.5z M190.5,288.5h-4v-1h4V288.5z
			 M183.5,288.5h-4v-1h4V288.5z M176.5,288.5h-4v-1h4V288.5z M169.5,288.5h-4v-1h4V288.5z M162.5,288.5h-4v-1h4V288.5z M155.6,288.5
			h-4v-1h4V288.5z M148.6,288.5h-4v-1h4V288.5z M141.6,288.5h-4v-1h4V288.5z M134.6,288.5h-4v-1h4V288.5z M127.7,288.5h-4v-1h4
			V288.5z M120.7,288.5h-4v-1h4V288.5z M113.7,288.5h-4v-1h4V288.5z M106.7,288.5h-4v-1h4V288.5z M99.7,288.5h-4v-1h4V288.5z
			 M92.8,288.5h-4v-1h4V288.5z M85.8,288.5h-4v-1h4V288.5z M78.8,288.5h-4v-1h4V288.5z M71.8,288.5h-4v-1h4V288.5z M64.8,288.5h-4
			v-1h4V288.5z M57.9,288.5h-4v-1h4V288.5z M50.9,288.5h-4v-1h4V288.5z M43.9,288.5h-4v-1h4V288.5z M36.9,288.5h-4v-1h4V288.5z
			 M30,288.5h-4v-1h4V288.5z M23,288.5h-4v-1h4V288.5z M16,288.5h-4v-1h4V288.5z M9,288.5H5v-1h4V288.5z"/>
		<rect x="0" y="287.5" class="st1" width="2" height="1"/>
	</g>
	<path class="st1" d="M396,360.2h-4v-1h4V360.2z M389,360.2h-4v-1h4V360.2z M382,360.2h-4v-1h4V360.2z M375,360.2h-4v-1h4V360.2z
		 M368,360.2h-4v-1h4V360.2z M361,360.2h-0.9v-1h0.9V360.2z"/>
	<path class="st1" d="M144.5,287.3h-1v-4h1V287.3z M144.5,280.3h-1v-4h1V280.3z M144.5,273.3h-1v-4h1V273.3z M144.5,266.3h-1v-4h1
		V266.3z M144.5,259.3h-1v-4h1V259.3z M144.5,252.3h-1v-1h1V252.3z"/>
	<path class="st1" d="M714.6,251.7h-1v-4h1V251.7z M714.6,244.7h-1v-4h1V244.7z M714.6,237.7h-1v-4h1V237.7z M714.6,230.7h-1v-4h1
		V230.7z M714.6,223.7h-1v-4h1V223.7z M714.6,216.7h-1v-1h1V216.7z"/>
	<g>
		<rect x="215.5" y="0" class="st1" width="1" height="2"/>
		<path class="st1" d="M216.5,283h-1v-4h1V283z M216.5,276h-1v-4h1V276z M216.5,268.9h-1v-4h1V268.9z M216.5,261.9h-1v-4h1V261.9z
			 M216.5,254.9h-1v-4h1V254.9z M216.5,247.9h-1v-4h1V247.9z M216.5,240.8h-1v-4h1V240.8z M216.5,233.8h-1v-4h1V233.8z M216.5,226.8
			h-1v-4h1V226.8z M216.5,219.8h-1v-4h1V219.8z M216.5,212.7h-1v-4h1V212.7z M216.5,205.7h-1v-4h1V205.7z M216.5,198.7h-1v-4h1
			V198.7z M216.5,191.7h-1v-4h1V191.7z M216.5,184.6h-1v-4h1V184.6z M216.5,177.6h-1v-4h1V177.6z M216.5,170.6h-1v-4h1V170.6z
			 M216.5,163.6h-1v-4h1V163.6z M216.5,156.5h-1v-4h1V156.5z M216.5,149.5h-1v-4h1V149.5z M216.5,142.5h-1v-4h1V142.5z M216.5,135.5
			h-1v-4h1V135.5z M216.5,128.4h-1v-4h1V128.4z M216.5,121.4h-1v-4h1V121.4z M216.5,114.4h-1v-4h1V114.4z M216.5,107.4h-1v-4h1
			V107.4z M216.5,100.3h-1v-4h1V100.3z M216.5,93.3h-1v-4h1V93.3z M216.5,86.3h-1v-4h1V86.3z M216.5,79.3h-1v-4h1V79.3z M216.5,72.2
			h-1v-4h1V72.2z M216.5,65.2h-1v-4h1V65.2z M216.5,58.2h-1v-4h1V58.2z M216.5,51.2h-1v-4h1V51.2z M216.5,44.1h-1v-4h1V44.1z
			 M216.5,37.1h-1v-4h1V37.1z M216.5,30.1h-1v-4h1V30.1z M216.5,23.1h-1v-4h1V23.1z M216.5,16h-1v-4h1V16z M216.5,9h-1V5h1V9z"/>
		<rect x="215.5" y="286" class="st1" width="1" height="2"/>
	</g>
	<g>
		<rect x="395.5" y="287.3" class="st1" width="1" height="2"/>
		<path class="st1" d="M396.5,499h-1v-4h1V499z M396.5,492h-1v-4h1V492z M396.5,485h-1v-4h1V485z M396.5,478h-1v-4h1V478z
			 M396.5,471h-1v-4h1V471z M396.5,464.1h-1v-4h1V464.1z M396.5,457.1h-1v-4h1V457.1z M396.5,450.1h-1v-4h1V450.1z M396.5,443.1h-1
			v-4h1V443.1z M396.5,436.1h-1v-4h1V436.1z M396.5,429.1h-1v-4h1V429.1z M396.5,422.1h-1v-4h1V422.1z M396.5,415.1h-1v-4h1V415.1z
			 M396.5,408.1h-1v-4h1V408.1z M396.5,401.2h-1v-4h1V401.2z M396.5,394.2h-1v-4h1V394.2z M396.5,387.2h-1v-4h1V387.2z M396.5,380.2
			h-1v-4h1V380.2z M396.5,373.2h-1v-4h1V373.2z M396.5,366.2h-1v-4h1V366.2z M396.5,359.2h-1v-4h1V359.2z M396.5,352.2h-1v-4h1
			V352.2z M396.5,345.2h-1v-4h1V345.2z M396.5,338.3h-1v-4h1V338.3z M396.5,331.3h-1v-4h1V331.3z M396.5,324.3h-1v-4h1V324.3z
			 M396.5,317.3h-1v-4h1V317.3z M396.5,310.3h-1v-4h1V310.3z M396.5,303.3h-1v-4h1V303.3z M396.5,296.3h-1v-4h1V296.3z"/>
		<rect x="395.5" y="502" class="st1" width="1" height="2"/>
	</g>
	<g>
		<rect x="359.5" y="287.3" class="st1" width="1" height="2"/>
		<path class="st1" d="M360.5,499h-1v-4h1V499z M360.5,492h-1v-4h1V492z M360.5,485h-1v-4h1V485z M360.5,478h-1v-4h1V478z
			 M360.5,471h-1v-4h1V471z M360.5,464.1h-1v-4h1V464.1z M360.5,457.1h-1v-4h1V457.1z M360.5,450.1h-1v-4h1V450.1z M360.5,443.1h-1
			v-4h1V443.1z M360.5,436.1h-1v-4h1V436.1z M360.5,429.1h-1v-4h1V429.1z M360.5,422.1h-1v-4h1V422.1z M360.5,415.1h-1v-4h1V415.1z
			 M360.5,408.1h-1v-4h1V408.1z M360.5,401.2h-1v-4h1V401.2z M360.5,394.2h-1v-4h1V394.2z M360.5,387.2h-1v-4h1V387.2z M360.5,380.2
			h-1v-4h1V380.2z M360.5,373.2h-1v-4h1V373.2z M360.5,366.2h-1v-4h1V366.2z M360.5,359.2h-1v-4h1V359.2z M360.5,352.2h-1v-4h1
			V352.2z M360.5,345.2h-1v-4h1V345.2z M360.5,338.3h-1v-4h1V338.3z M360.5,331.3h-1v-4h1V331.3z M360.5,324.3h-1v-4h1V324.3z
			 M360.5,317.3h-1v-4h1V317.3z M360.5,310.3h-1v-4h1V310.3z M360.5,303.3h-1v-4h1V303.3z M360.5,296.3h-1v-4h1V296.3z"/>
		<rect x="359.5" y="502" class="st1" width="1" height="2"/>
	</g>
	<g>
		<rect x="539.5" y="0" class="st1" width="1" height="2"/>
		<path class="st1" d="M540.5,211h-1v-4h1V211z M540.5,204h-1v-4h1V204z M540.5,197.1h-1v-4h1V197.1z M540.5,190.1h-1v-4h1V190.1z
			 M540.5,183.1h-1v-4h1V183.1z M540.5,176.2h-1v-4h1V176.2z M540.5,169.2h-1v-4h1V169.2z M540.5,162.2h-1v-4h1V162.2z M540.5,155.3
			h-1v-4h1V155.3z M540.5,148.3h-1v-4h1V148.3z M540.5,141.3h-1v-4h1V141.3z M540.5,134.4h-1v-4h1V134.4z M540.5,127.4h-1v-4h1
			V127.4z M540.5,120.4h-1v-4h1V120.4z M540.5,113.5h-1v-4h1V113.5z M540.5,106.5h-1v-4h1V106.5z M540.5,99.5h-1v-4h1V99.5z
			 M540.5,92.6h-1v-4h1V92.6z M540.5,85.6h-1v-4h1V85.6z M540.5,78.6h-1v-4h1V78.6z M540.5,71.7h-1v-4h1V71.7z M540.5,64.7h-1v-4h1
			V64.7z M540.5,57.7h-1v-4h1V57.7z M540.5,50.8h-1v-4h1V50.8z M540.5,43.8h-1v-4h1V43.8z M540.5,36.8h-1v-4h1V36.8z M540.5,29.9h-1
			v-4h1V29.9z M540.5,22.9h-1v-4h1V22.9z M540.5,15.9h-1v-4h1V15.9z M540.5,9h-1V5h1V9z"/>
		<rect x="539.5" y="214" class="st1" width="1" height="2"/>
	</g>
	<g>
		<rect x="503.5" y="0" class="st1" width="1" height="2"/>
		<path class="st1" d="M504.5,211h-1v-4h1V211z M504.5,204h-1v-4h1V204z M504.5,197.1h-1v-4h1V197.1z M504.5,190.1h-1v-4h1V190.1z
			 M504.5,183.1h-1v-4h1V183.1z M504.5,176.2h-1v-4h1V176.2z M504.5,169.2h-1v-4h1V169.2z M504.5,162.2h-1v-4h1V162.2z M504.5,155.3
			h-1v-4h1V155.3z M504.5,148.3h-1v-4h1V148.3z M504.5,141.3h-1v-4h1V141.3z M504.5,134.4h-1v-4h1V134.4z M504.5,127.4h-1v-4h1
			V127.4z M504.5,120.4h-1v-4h1V120.4z M504.5,113.5h-1v-4h1V113.5z M504.5,106.5h-1v-4h1V106.5z M504.5,99.5h-1v-4h1V99.5z
			 M504.5,92.6h-1v-4h1V92.6z M504.5,85.6h-1v-4h1V85.6z M504.5,78.6h-1v-4h1V78.6z M504.5,71.7h-1v-4h1V71.7z M504.5,64.7h-1v-4h1
			V64.7z M504.5,57.7h-1v-4h1V57.7z M504.5,50.8h-1v-4h1V50.8z M504.5,43.8h-1v-4h1V43.8z M504.5,36.8h-1v-4h1V36.8z M504.5,29.9h-1
			v-4h1V29.9z M504.5,22.9h-1v-4h1V22.9z M504.5,15.9h-1v-4h1V15.9z M504.5,9h-1V5h1V9z"/>
		<rect x="503.5" y="214" class="st1" width="1" height="2"/>
	</g>
	<g>
		<rect x="641.5" y="215.7" class="st1" width="1" height="2"/>
		<path class="st1" d="M642.5,499h-1v-4h1V499z M642.5,492h-1v-4h1V492z M642.5,484.9h-1v-4h1V484.9z M642.5,477.9h-1v-4h1V477.9z
			 M642.5,470.9h-1v-4h1V470.9z M642.5,463.8h-1v-4h1V463.8z M642.5,456.8h-1v-4h1V456.8z M642.5,449.8h-1v-4h1V449.8z M642.5,442.7
			h-1v-4h1V442.7z M642.5,435.7h-1v-4h1V435.7z M642.5,428.7h-1v-4h1V428.7z M642.5,421.6h-1v-4h1V421.6z M642.5,414.6h-1v-4h1
			V414.6z M642.5,407.6h-1v-4h1V407.6z M642.5,400.5h-1v-4h1V400.5z M642.5,393.5h-1v-4h1V393.5z M642.5,386.5h-1v-4h1V386.5z
			 M642.5,379.4h-1v-4h1V379.4z M642.5,372.4h-1v-4h1V372.4z M642.5,365.4h-1v-4h1V365.4z M642.5,358.3h-1v-4h1V358.3z M642.5,351.3
			h-1v-4h1V351.3z M642.5,344.3h-1v-4h1V344.3z M642.5,337.2h-1v-4h1V337.2z M642.5,330.2h-1v-4h1V330.2z M642.5,323.2h-1v-4h1
			V323.2z M642.5,316.1h-1v-4h1V316.1z M642.5,309.1h-1v-4h1V309.1z M642.5,302.1h-1v-4h1V302.1z M642.5,295h-1v-4h1V295z
			 M642.5,288h-1v-4h1V288z M642.5,281h-1v-4h1V281z M642.5,273.9h-1v-4h1V273.9z M642.5,266.9h-1v-4h1V266.9z M642.5,259.9h-1v-4h1
			V259.9z M642.5,252.8h-1v-4h1V252.8z M642.5,245.8h-1v-4h1V245.8z M642.5,238.8h-1v-4h1V238.8z M642.5,231.7h-1v-4h1V231.7z
			 M642.5,224.7h-1v-4h1V224.7z"/>
		<rect x="641.5" y="502" class="st1" width="1" height="2"/>
	</g>
	<polygon class="st1" points="576.1,192 624.1,144 672.1,192 	"/>
</g>
</svg>
