<?xml version="1.0" encoding="utf-8"?>
<!-- Generator: Adobe Illustrator 23.1.0, SVG Export Plug-In . SVG Version: 6.00 Build 0)  -->
<svg version="1.1" xmlns="http://www.w3.org/2000/svg" xmlns:xlink="http://www.w3.org/1999/xlink" x="0px" y="0px"
	 viewBox="0 0 858 504" style="enable-background:new 0 0 858 504;" xml:space="preserve">
<style type="text/css">
	.st0{fill:#DBD4D3;}
	.st1{fill:none;stroke:#FFFFFF;stroke-miterlimit:10;}
	.st2{fill:none;stroke:#FFFFFF;stroke-miterlimit:10;stroke-dasharray:3.9855,2.9891;}
	.st3{fill:none;stroke:#FFFFFF;stroke-miterlimit:10;stroke-dasharray:4,3;}
	.st4{fill:#242121;}
	.st5{fill:#FFFFFF;}
	.st6{fill:#C7C0BF;}
	.st7{fill:#5C5958;}
	.st8{fill:#FF8873;}
	.st9{fill:none;stroke:#FFFFFF;stroke-miterlimit:10;stroke-dasharray:3.986,2.9895;}
	.st10{fill:none;stroke:#FFFFFF;stroke-miterlimit:10;stroke-dasharray:3.9947,2.996;}
	.st11{fill:none;stroke:#FFFFFF;stroke-miterlimit:10;stroke-dasharray:3.9772,2.9829;}
	.st12{fill:none;stroke:#FFFFFF;stroke-miterlimit:10;stroke-dasharray:4.0053,3.004;}
	.st13{fill:none;stroke:#FFFFFF;stroke-miterlimit:10;stroke-dasharray:3.2941,2.4706;}
	.st14{fill:none;stroke:#FFFFFF;stroke-miterlimit:10;stroke-dasharray:4.0047,3.0036;}
	.st15{fill:none;stroke:#FFFFFF;stroke-miterlimit:10;stroke-dasharray:3.9781,2.9836;}
	.st16{fill:none;stroke:#FFFFFF;stroke-miterlimit:10;stroke-dasharray:4.0498,3.0373;}
	.st17{fill:none;stroke:#FFFFFF;stroke-miterlimit:10;stroke-dasharray:3.9941,2.9956;}
	.st18{fill:none;stroke:#C7C0BF;stroke-miterlimit:10;stroke-dasharray:4,3;}
	.st19{fill:none;stroke:#FFFFFF;stroke-miterlimit:10;stroke-dasharray:4.0252,3.0189;}
	.st20{fill:none;stroke:#FFFFFF;stroke-miterlimit:10;stroke-dasharray:3.9551,2.9663;}
	.st21{fill:none;stroke:#FFFFFF;stroke-miterlimit:10;stroke-dasharray:4.129,3.0968;}
	.st22{fill:none;stroke:#FFFFFF;stroke-miterlimit:10;stroke-dasharray:4.1212,3.0909;}
	.st23{fill:none;stroke:#FFFFFF;stroke-miterlimit:10;stroke-dasharray:4.0137,3.0103;}
	.st24{fill:none;stroke:#FFFFFF;stroke-miterlimit:10;stroke-dasharray:3.8904,2.9178;}
	.st25{fill:none;stroke:#FFFFFF;stroke-miterlimit:10;stroke-dasharray:4.034,3.0255;}
	.st26{fill:none;stroke:#FFFFFF;stroke-miterlimit:10;stroke-dasharray:3.987,2.9903;}
	.st27{fill:none;stroke:#FFFFFF;stroke-miterlimit:10;stroke-dasharray:3.9812,2.9859;}
	.st28{fill:none;stroke:#FFFFFF;stroke-miterlimit:10;stroke-dasharray:3.9804,2.9853;}
	.st29{fill:none;stroke:#FFFFFF;stroke-miterlimit:10;stroke-dasharray:3.9877,2.9908;}
	.st30{fill:none;stroke:#FFFFFF;stroke-miterlimit:10;stroke-dasharray:4.0141,3.0106;}
	.st31{fill:none;stroke:#FFFFFF;stroke-miterlimit:10;stroke-dasharray:3.9937,2.9953;}
	.st32{fill:none;stroke:#FFFFFF;stroke-miterlimit:10;stroke-dasharray:4.0188,3.0141;}
	.st33{fill:none;stroke:#FFFFFF;stroke-miterlimit:10;stroke-dasharray:3.9111,2.9333;}
	.st34{fill:none;stroke:#FFFFFF;stroke-miterlimit:10;stroke-dasharray:3.9148,2.9361;}
	.st35{fill:none;stroke:#FFFFFF;stroke-miterlimit:10;stroke-dasharray:3.915,2.9363;}
	.st36{fill:none;stroke:#FFFFFF;stroke-miterlimit:10;stroke-dasharray:3.915,2.9362;}
	.st37{fill:none;stroke:#FFFFFF;stroke-miterlimit:10;stroke-dasharray:3.9149,2.9362;}
	.st38{fill:#78FFA5;}
	.st39{fill:#907DFF;}
	.st40{fill:#FFE876;}
	.st41{fill:#7BD7FF;}
</style>
<g id="Layer_2">
	<rect class="st5" width="858" height="504"/>
</g>
<g id="Layer_1">
	<g>
		<polygon points="477,348 489,336 501,348 		"/>
		<polygon points="468,354 459,354 459,372 468,372 477,363 		"/>
		<rect x="484.5" y="354" width="9" height="18"/>
		<polygon points="414,354 414,363 409.5,363 409.5,354 400.5,354 400.5,363 396,363 396,354 387,354 387,372 423,372 423,354 		"/>
		<path d="M432,372v-9c5,0,9-4,9-9h9C450,363.9,442,372,432,372z"/>
	</g>
	<g>
		<path d="M252,228l-17.9,48h12.8l2.2-6h20.7l2.2,6h12.8L267,228H252z M253.6,258l5.9-15.8l5.9,15.8H253.6z"/>
		<path d="M324,228h-18v48h18c13.2,0,24-10.8,24-24S337.2,228,324,228z M324,264h-6v-24h6c6.6,0,12,5.4,12,12
			C336,258.6,330.6,264,324,264z"/>
		<path d="M390,228h-18v48h18c13.2,0,24-10.8,24-24S403.2,228,390,228z M390,264h-6v-24h6c6.6,0,12,5.4,12,12
			C402,258.6,396.6,264,390,264z"/>
		<path d="M576.6,245.1c-5.6-0.6-5.6-2.6-5.6-3.3c0-2.1,2.6-3.3,5-3.3c2.9,0,5,1.7,5,3.3h12c0-8.4-7.6-15.3-17-15.3
			c-9.5,0-17,6.7-17,15.3c0,3.2,1.2,13.6,16.3,15.3c3.2,0.4,6.7,2,6.7,4.2c0,2.2-2.8,4.2-6,4.2s-6-2-6-4.2h-12
			c0,8.9,8.1,16.2,18,16.2c9.9,0,18-7.3,18-16.2C594,252.9,586.8,246.3,576.6,245.1z"/>
		<path d="M636.6,245.1c-5.6-0.6-5.6-2.6-5.6-3.3c0-2.1,2.6-3.3,5-3.3c2.9,0,5,1.7,5,3.3h12c0-8.4-7.6-15.3-17-15.3
			c-9.5,0-17,6.7-17,15.3c0,3.2,1.2,13.6,16.3,15.3c3.2,0.4,6.7,2,6.7,4.2c0,2.2-2.8,4.2-6,4.2s-6-2-6-4.2h-12
			c0,8.9,8.1,16.2,18,16.2s18-7.3,18-16.2C654,252.9,646.8,246.3,636.6,245.1z"/>
		<path d="M477,244.5c0-9.1-7.4-16.5-16.5-16.5H438v24v3v6v15h12v-15h6.5l6.9,15h13.2l-7.9-17.2C473.6,255.9,477,250.6,477,244.5z
			 M450,240h10.5c2.5,0,4.5,2,4.5,4.5s-2,4.5-4.5,4.5H450V240z"/>
		<polygon points="501,276 534,276 534,264 513,264 513,258 534,258 534,246 513,246 513,240 534,240 534,228 501,228 		"/>
	</g>
</g>
<g id="Isolation_Mode">
</g>
</svg>
