<?xml version="1.0" encoding="utf-8"?>
<!-- Generator: Adobe Illustrator 23.1.0, SVG Export Plug-In . SVG Version: 6.00 Build 0)  -->
<svg version="1.1" xmlns="http://www.w3.org/2000/svg" xmlns:xlink="http://www.w3.org/1999/xlink" x="0px" y="0px"
	 viewBox="0 0 858 504" style="enable-background:new 0 0 858 504;" xml:space="preserve">
<style type="text/css">
	.st0{fill:#DBD4D3;}
	.st1{fill:#FFFFFF;}
	.st2{fill:#242121;}
	.st3{fill:#C7C0BF;}
	.st4{fill:#5C5958;}
	.st5{fill:#FF8873;}
	.st6{fill:#78FFA5;}
	.st7{fill:#907DFF;}
	.st8{fill:#FFE876;}
	.st9{fill:#7BD7FF;}
</style>
<g id="Layer_2">
</g>
<g id="Layer_1">
	<path class="st5" d="M429,396L429,396c-79.5,0-144-64.5-144-144v0c0-79.5,64.5-144,144-144h0c79.5,0,144,64.5,144,144v0
		C573,331.5,508.5,396,429,396z"/>
	<path class="st5" d="M477,396h-96c-53,0-96-43-96-96v-96c0-53,43-96,96-96h96c53,0,96,43,96,96v96C573,353,530,396,477,396z"/>
	<path class="st5" d="M525,396H333c-26.5,0-48-21.5-48-48V156c0-26.5,21.5-48,48-48h192c26.5,0,48,21.5,48,48v192
		C573,374.5,551.5,396,525,396z"/>
	<path class="st5" d="M572.6,396H285.4c-0.2,0-0.4-0.2-0.4-0.4V108.4c0-0.2,0.2-0.4,0.4-0.4h287.2c0.2,0,0.4,0.2,0.4,0.4v287.2
		C573,395.8,572.8,396,572.6,396z"/>
	<g>
		<rect x="405" y="252" class="st1" width="48" height="96"/>
		<polygon class="st1" points="365,220 429,156 493,220 		"/>
	</g>
</g>
</svg>
