<?xml version="1.0" encoding="utf-8"?>
<!-- Generator: Adobe Illustrator 23.1.0, SVG Export Plug-In . SVG Version: 6.00 Build 0)  -->
<svg version="1.1" xmlns="http://www.w3.org/2000/svg" xmlns:xlink="http://www.w3.org/1999/xlink" x="0px" y="0px"
	 viewBox="0 0 858 504" style="enable-background:new 0 0 858 504;" xml:space="preserve">
<style type="text/css">
	.st0{fill:#DBD4D3;}
	.st1{fill:none;stroke:#FFFFFF;stroke-miterlimit:10;}
	.st2{fill:none;stroke:#FFFFFF;stroke-miterlimit:10;stroke-dasharray:3.9855,2.9891;}
	.st3{fill:none;stroke:#FFFFFF;stroke-miterlimit:10;stroke-dasharray:4,3;}
	.st4{fill:#242121;}
	.st5{fill:#FFFFFF;}
	.st6{fill:#C7C0BF;}
	.st7{fill:#5C5958;}
	.st8{fill:#FF8873;}
	.st9{fill:none;stroke:#FFFFFF;stroke-miterlimit:10;stroke-dasharray:3.986,2.9895;}
	.st10{fill:none;stroke:#FFFFFF;stroke-miterlimit:10;stroke-dasharray:3.9947,2.996;}
	.st11{fill:none;stroke:#FFFFFF;stroke-miterlimit:10;stroke-dasharray:3.9772,2.9829;}
	.st12{fill:none;stroke:#FFFFFF;stroke-miterlimit:10;stroke-dasharray:4.0053,3.004;}
	.st13{fill:none;stroke:#FFFFFF;stroke-miterlimit:10;stroke-dasharray:3.2941,2.4706;}
	.st14{fill:none;stroke:#FFFFFF;stroke-miterlimit:10;stroke-dasharray:4.0047,3.0036;}
	.st15{fill:none;stroke:#FFFFFF;stroke-miterlimit:10;stroke-dasharray:3.9781,2.9836;}
	.st16{fill:none;stroke:#FFFFFF;stroke-miterlimit:10;stroke-dasharray:4.0498,3.0373;}
	.st17{fill:none;stroke:#FFFFFF;stroke-miterlimit:10;stroke-dasharray:3.9941,2.9956;}
	.st18{fill:none;stroke:#C7C0BF;stroke-miterlimit:10;stroke-dasharray:4,3;}
	.st19{fill:none;stroke:#FFFFFF;stroke-miterlimit:10;stroke-dasharray:4.0252,3.0189;}
	.st20{fill:none;stroke:#FFFFFF;stroke-miterlimit:10;stroke-dasharray:3.9551,2.9663;}
	.st21{fill:none;stroke:#FFFFFF;stroke-miterlimit:10;stroke-dasharray:4.129,3.0968;}
	.st22{fill:none;stroke:#FFFFFF;stroke-miterlimit:10;stroke-dasharray:4.1212,3.0909;}
	.st23{fill:none;stroke:#FFFFFF;stroke-miterlimit:10;stroke-dasharray:4.0137,3.0103;}
	.st24{fill:none;stroke:#FFFFFF;stroke-miterlimit:10;stroke-dasharray:3.8904,2.9178;}
	.st25{fill:none;stroke:#FFFFFF;stroke-miterlimit:10;stroke-dasharray:4.034,3.0255;}
	.st26{fill:none;stroke:#FFFFFF;stroke-miterlimit:10;stroke-dasharray:3.987,2.9903;}
	.st27{fill:none;stroke:#FFFFFF;stroke-miterlimit:10;stroke-dasharray:3.9812,2.9859;}
	.st28{fill:none;stroke:#FFFFFF;stroke-miterlimit:10;stroke-dasharray:3.9804,2.9853;}
	.st29{fill:none;stroke:#FFFFFF;stroke-miterlimit:10;stroke-dasharray:3.9877,2.9908;}
	.st30{fill:none;stroke:#FFFFFF;stroke-miterlimit:10;stroke-dasharray:4.0141,3.0106;}
	.st31{fill:none;stroke:#FFFFFF;stroke-miterlimit:10;stroke-dasharray:3.9937,2.9953;}
	.st32{fill:none;stroke:#FFFFFF;stroke-miterlimit:10;stroke-dasharray:4.0188,3.0141;}
	.st33{fill:none;stroke:#FFFFFF;stroke-miterlimit:10;stroke-dasharray:3.9111,2.9333;}
	.st34{fill:none;stroke:#FFFFFF;stroke-miterlimit:10;stroke-dasharray:3.9148,2.9361;}
	.st35{fill:none;stroke:#FFFFFF;stroke-miterlimit:10;stroke-dasharray:3.915,2.9363;}
	.st36{fill:none;stroke:#FFFFFF;stroke-miterlimit:10;stroke-dasharray:3.915,2.9362;}
	.st37{fill:none;stroke:#FFFFFF;stroke-miterlimit:10;stroke-dasharray:3.9149,2.9362;}
	.st38{fill:#78FFA5;}
	.st39{fill:#907DFF;}
	.st40{fill:#FFE876;}
	.st41{fill:#7BD7FF;}
</style>
<g id="Layer_2">
	<rect x="0" class="st5" width="858" height="504"/>
</g>
<g id="Layer_1">
	<g>
		<polygon points="576.1,192 624.1,144 672.1,192 		"/>
		<polygon points="540,216 504,216 504,288 540,288 576,252 		"/>
		<rect x="606" y="216" width="36" height="72"/>
		<polygon points="324,216 324,252 306,252 306,216 270,216 270,252 252,252 252,216 216,216 216,288 360,288 360,216 		"/>
		<path d="M396,288v-36c19.9,0,36-16.1,36-36h36C468,255.7,435.7,288,396,288z"/>
	</g>
	<g>
		<path d="M332.9,359.7l-8.9,24h6.4l1.1-3h10.3l1.1,3h6.4l-8.9-24H332.9z M333.8,374.7l2.9-7.9l2.9,7.9H333.8z"/>
		<path d="M368.9,359.7h-9v24h9c6.6,0,12-5.4,12-12S375.6,359.7,368.9,359.7z M368.9,377.7h-3v-12h3c3.3,0,6,2.7,6,6
			S372.2,377.7,368.9,377.7z"/>
		<path d="M401.9,359.7h-9v24h9c6.6,0,12-5.4,12-12S408.6,359.7,401.9,359.7z M401.9,377.7h-3v-12h3c3.3,0,6,2.7,6,6
			S405.2,377.7,401.9,377.7z"/>
		<path d="M495.3,368.2c-2.8-0.3-2.8-1.3-2.8-1.7c0-1.1,1.3-1.7,2.5-1.7c1.5,0,2.5,0.9,2.5,1.7h6c0-4.2-3.8-7.7-8.5-7.7
			c-4.8,0-8.5,3.4-8.5,7.7c0,1.6,0.6,6.8,8.1,7.6c1.6,0.2,3.3,1,3.3,2.1c0,1.1-1.4,2.1-3,2.1s-3-1-3-2.1h-6c0,4.5,4,8.1,9,8.1
			s9-3.6,9-8.1C503.9,372.1,500.4,368.8,495.3,368.2z"/>
		<path d="M525.3,368.2c-2.8-0.3-2.8-1.3-2.8-1.7c0-1.1,1.3-1.7,2.5-1.7c1.5,0,2.5,0.9,2.5,1.7h6c0-4.2-3.8-7.7-8.5-7.7
			c-4.8,0-8.5,3.4-8.5,7.7c0,1.6,0.6,6.8,8.1,7.6c1.6,0.2,3.3,1,3.3,2.1c0,1.1-1.4,2.1-3,2.1s-3-1-3-2.1h-6c0,4.5,4,8.1,9,8.1
			s9-3.6,9-8.1C533.9,372.1,530.4,368.8,525.3,368.2z"/>
		<path d="M445.4,367.9c0-4.5-3.7-8.3-8.3-8.3h-11.3v12v1.5v3v7.5h6v-7.5h3.3l3.5,7.5h6.6l-4-8.6C443.8,373.6,445.4,371,445.4,367.9
			z M431.9,365.7h5.3c1.2,0,2.3,1,2.3,2.3s-1,2.3-2.3,2.3h-5.3V365.7z"/>
		<polygon points="457.4,383.7 473.9,383.7 473.9,377.7 463.4,377.7 463.4,374.7 473.9,374.7 473.9,368.7 463.4,368.7 463.4,365.7 
			473.9,365.7 473.9,359.7 457.4,359.7 		"/>
	</g>
</g>
<g id="Isolation_Mode">
</g>
</svg>
