<?xml version="1.0" encoding="utf-8"?>
<!-- Generator: Adobe Illustrator 23.1.0, SVG Export Plug-In . SVG Version: 6.00 Build 0)  -->
<svg version="1.1" xmlns="http://www.w3.org/2000/svg" xmlns:xlink="http://www.w3.org/1999/xlink" x="0px" y="0px"
	 viewBox="0 0 858 504" style="enable-background:new 0 0 858 504;" xml:space="preserve">
<style type="text/css">
	.st0{fill:#DBD4D3;}
	.st1{fill:#FFFFFF;}
	.st2{fill:#242121;}
	.st3{fill:#C7C0BF;}
	.st4{fill:#5C5958;}
	.st5{fill:#FF8873;}
	.st6{fill:#78FFA5;}
	.st7{fill:#907DFF;}
	.st8{fill:#FFE876;}
	.st9{fill:#7BD7FF;}
</style>
<g id="Layer_2">
	<rect x="0" y="0" width="858" height="504"/>
</g>
<g id="Layer_1">
	<path class="st1" d="M309,228h-18v48h18c13.2,0,24-10.8,24-24C333,238.8,322.3,228,309,228z M309,264h-6v-24h6c6.6,0,12,5.4,12,12
		S315.6,264,309,264z"/>
	<path class="st1" d="M375,228h-18v48h18c13.2,0,24-10.8,24-24C399,238.8,388.3,228,375,228z M375,264h-6v-24h6c6.6,0,12,5.4,12,12
		S381.6,264,375,264z"/>
	<path class="st1" d="M561.5,246c-5.4-0.5-5.4-3-5.4-3.8c0-1.9,1.7-3.8,4.9-3.8c2.9,0,4.9,1.5,4.9,3.8h12c0-9-7.2-15.8-16.9-15.8
		c-9.5,0-16.9,6.9-16.9,15.8c0,6.6,4.3,14.6,16.3,15.7c2,0.2,6.6,0.9,6.6,3.8c0,0.8-0.2,1.4-0.8,2c-1.1,1.1-3.1,1.7-5.3,1.7
		c-3.4,0-5.9-2-5.9-3.8h-12c0,8.7,8,15.8,17.9,15.8c5.4,0,10.4-1.9,13.8-5.3c2.8-2.8,4.3-6.5,4.3-10.5
		C579,254.9,574.4,247.2,561.5,246z"/>
	<path class="st1" d="M621.5,246c-5.4-0.5-5.4-3-5.4-3.8c0-1.9,1.7-3.8,4.9-3.8c2.9,0,4.9,1.5,4.9,3.8h12c0-9-7.2-15.8-16.9-15.8
		c-9.5,0-16.9,6.9-16.9,15.8c0,6.6,4.3,14.6,16.3,15.7c2,0.2,6.6,0.9,6.6,3.8c0,0.8-0.2,1.4-0.8,2c-1.1,1.1-3.1,1.7-5.3,1.7
		c-3.4,0-5.9-2-5.9-3.8h-12c0,8.7,8,15.8,17.9,15.8c5.4,0,10.4-1.9,13.8-5.3c2.8-2.8,4.3-6.5,4.3-10.5
		C639,254.9,634.4,247.2,621.5,246z"/>
	<polygon class="st1" points="486,276 519,276 519,264 498,264 498,258 519,258 519,246 498,246 498,240 519,240 519,228 486,228 	
		"/>
	<path class="st1" d="M462.2,276l-6.8-18.2c4.1-3,6.7-7.8,6.7-13.3c0-9.1-7.4-16.5-16.5-16.5H423v48h12v-15h8.7l5.6,15H462.2z
		 M435,249v-9h10.5c2.5,0,4.5,2,4.5,4.5s-2,4.5-4.5,4.5H435z"/>
	<path class="st1" d="M252.1,228H237l-18,48h12.8l2.3-6H255l2.3,6h12.8L252.1,228z M238.6,258l6-15.9l6,15.9H238.6z"/>
</g>
</svg>
