<?xml version="1.0" encoding="utf-8"?>
<!-- Generator: Adobe Illustrator 23.1.0, SVG Export Plug-In . SVG Version: 6.00 Build 0)  -->
<svg version="1.1" id="Layer_1" xmlns="http://www.w3.org/2000/svg" xmlns:xlink="http://www.w3.org/1999/xlink" x="0px" y="0px"
	 viewBox="0 0 858 504" style="enable-background:new 0 0 858 504;" xml:space="preserve">
<style type="text/css">
	.st0{fill:#FFFFFF;}
</style>
<rect class="st0" width="858" height="504"/>
<g>
	<g>
		<polygon points="576.1,192 624.1,144 672.1,192 		"/>
		<polygon points="540.1,216 504.1,216 504.1,288 540.1,288 576.1,252 		"/>
		<rect x="606.1" y="216" width="36" height="72"/>
		<polygon points="324.1,216 324.1,252 306.1,252 306.1,216 270.1,216 270.1,252 252.1,252 252.1,216 216.1,216 216.1,288 
			360.1,288 360.1,216 		"/>
		<path d="M396.1,288v-36c19.9,0,36-16.1,36-36h36C468.1,255.7,435.8,288,396.1,288z"/>
	</g>
</g>
</svg>
