<?xml version="1.0" encoding="utf-8"?>
<!-- Generator: Adobe Illustrator 23.1.0, SVG Export Plug-In . SVG Version: 6.00 Build 0)  -->
<svg version="1.1" xmlns="http://www.w3.org/2000/svg" xmlns:xlink="http://www.w3.org/1999/xlink" x="0px" y="0px"
	 viewBox="0 0 858 360" style="enable-background:new 0 0 858 360;" xml:space="preserve">
<style type="text/css">
	.st0{fill:#DBD4D3;}
	.st1{fill:none;stroke:#FFFFFF;stroke-miterlimit:10;}
	.st2{fill:none;stroke:#FFFFFF;stroke-miterlimit:10;stroke-dasharray:3.9855,2.9891;}
	.st3{fill:none;stroke:#FFFFFF;stroke-miterlimit:10;stroke-dasharray:4,3;}
	.st4{fill:#242121;}
	.st5{fill:#FFFFFF;}
	.st6{fill:#C7C0BF;}
	.st7{fill:#5C5958;}
	.st8{fill:#FF8873;}
	.st9{fill:none;stroke:#FFFFFF;stroke-miterlimit:10;stroke-dasharray:3.986,2.9895;}
	.st10{fill:none;stroke:#FFFFFF;stroke-miterlimit:10;stroke-dasharray:3.9947,2.996;}
	.st11{fill:none;stroke:#FFFFFF;stroke-miterlimit:10;stroke-dasharray:3.9772,2.9829;}
	.st12{fill:none;stroke:#FFFFFF;stroke-miterlimit:10;stroke-dasharray:4.0053,3.004;}
	.st13{fill:none;stroke:#FFFFFF;stroke-miterlimit:10;stroke-dasharray:3.2941,2.4706;}
	.st14{fill:none;stroke:#FFFFFF;stroke-miterlimit:10;stroke-dasharray:4.0047,3.0036;}
	.st15{fill:none;stroke:#FFFFFF;stroke-miterlimit:10;stroke-dasharray:3.9781,2.9836;}
	.st16{fill:none;stroke:#FFFFFF;stroke-miterlimit:10;stroke-dasharray:4.0498,3.0373;}
	.st17{fill:none;stroke:#FFFFFF;stroke-miterlimit:10;stroke-dasharray:3.9941,2.9956;}
	.st18{fill:none;stroke:#C7C0BF;stroke-miterlimit:10;stroke-dasharray:4,3;}
	.st19{fill:none;stroke:#FFFFFF;stroke-miterlimit:10;stroke-dasharray:4.0252,3.0189;}
	.st20{fill:none;stroke:#FFFFFF;stroke-miterlimit:10;stroke-dasharray:3.9551,2.9663;}
	.st21{fill:none;stroke:#FFFFFF;stroke-miterlimit:10;stroke-dasharray:4.129,3.0968;}
	.st22{fill:none;stroke:#FFFFFF;stroke-miterlimit:10;stroke-dasharray:4.1212,3.0909;}
	.st23{fill:none;stroke:#FFFFFF;stroke-miterlimit:10;stroke-dasharray:4.0137,3.0103;}
	.st24{fill:none;stroke:#FFFFFF;stroke-miterlimit:10;stroke-dasharray:3.8904,2.9178;}
	.st25{fill:none;stroke:#FFFFFF;stroke-miterlimit:10;stroke-dasharray:4.034,3.0255;}
	.st26{fill:none;stroke:#FFFFFF;stroke-miterlimit:10;stroke-dasharray:3.987,2.9903;}
	.st27{fill:none;stroke:#FFFFFF;stroke-miterlimit:10;stroke-dasharray:3.9812,2.9859;}
	.st28{fill:none;stroke:#FFFFFF;stroke-miterlimit:10;stroke-dasharray:3.9804,2.9853;}
	.st29{fill:none;stroke:#FFFFFF;stroke-miterlimit:10;stroke-dasharray:3.9877,2.9908;}
	.st30{fill:none;stroke:#FFFFFF;stroke-miterlimit:10;stroke-dasharray:4.0141,3.0106;}
	.st31{fill:none;stroke:#FFFFFF;stroke-miterlimit:10;stroke-dasharray:3.9937,2.9953;}
	.st32{fill:none;stroke:#FFFFFF;stroke-miterlimit:10;stroke-dasharray:4.0188,3.0141;}
	.st33{fill:none;stroke:#FFFFFF;stroke-miterlimit:10;stroke-dasharray:3.9111,2.9333;}
	.st34{fill:none;stroke:#FFFFFF;stroke-miterlimit:10;stroke-dasharray:4.0589,3.0442;}
	.st35{fill:none;stroke:#FFFFFF;stroke-miterlimit:10;stroke-dasharray:4.0534,3.04;}
	.st36{fill:none;stroke:#FFFFFF;stroke-miterlimit:10;stroke-dasharray:4.0801,3.06;}
	.st37{fill:none;stroke:#FFFFFF;stroke-miterlimit:10;stroke-dasharray:4.0533,3.04;}
	.st38{fill:#78FFA5;}
	.st39{fill:#907DFF;}
	.st40{fill:#FFE876;}
	.st41{fill:#7BD7FF;}
	.st42{fill:none;stroke:#000000;stroke-width:2;stroke-miterlimit:10;}
</style>
<g id="Layer_2">
	<rect y="0" width="858" height="360.7"/>
</g>
<g id="Layer_1">
	<polygon class="st5" points="627.9,162 609.9,162 609.9,198 627.9,198 645.9,180 	"/>
	<rect x="660.9" y="162" class="st5" width="18" height="36"/>
	<path class="st5" d="M555.9,198v-18c9.9,0,18-8.1,18-18h18C591.9,181.8,575.8,198,555.9,198z"/>
	<polygon class="st5" points="646,150 670,126 694,150 	"/>
	<polygon class="st5" points="519.9,162 519.9,180 510.9,180 510.9,162 492.9,162 492.9,180 483.9,180 483.9,162 465.9,162 
		465.9,198 537.9,198 537.9,162 	"/>
	<rect x="427" y="162" class="st5" width="3" height="36"/>
	<g>
		<path class="st5" d="M177.2,181.7V198h-11.6v-48h19.1c3.7,0,6.9,0.7,9.7,2s5,3.3,6.6,5.8c1.5,2.5,2.3,5.3,2.3,8.5
			c0,4.7-1.7,8.4-5,11.2s-7.9,4.2-13.8,4.2H177.2z M177.2,172.8h7.6c2.2,0,3.9-0.6,5.1-1.7s1.8-2.7,1.8-4.7c0-2.2-0.6-4-1.8-5.4
			c-1.2-1.3-2.9-2-4.9-2h-7.7V172.8z"/>
		<path class="st5" d="M229.2,198c-0.4-0.7-0.7-1.8-1.1-3.2c-2,2.6-4.9,3.9-8.6,3.9c-3.4,0-6.2-1-8.6-3c-2.4-2-3.5-4.6-3.5-7.7
			c0-3.9,1.4-6.8,4.3-8.8s7-3,12.5-3h3.4v-1.9c0-3.3-1.4-4.9-4.3-4.9c-2.6,0-4,1.3-4,3.9h-11.1c0-3.4,1.5-6.2,4.4-8.4
			s6.7-3.2,11.2-3.2c4.5,0,8.1,1.1,10.8,3.3c2.6,2.2,4,5.3,4.1,9.1v15.8c0,3.3,0.5,5.8,1.5,7.5v0.6H229.2z M222.2,190.7
			c1.4,0,2.5-0.3,3.4-0.9c0.9-0.6,1.6-1.3,2-2v-5.7h-3.2c-3.9,0-5.8,1.7-5.8,5.2c0,1,0.3,1.8,1,2.5
			C220.3,190.4,221.2,190.7,222.2,190.7z"/>
		<path class="st5" d="M266.5,172.4l-3.7-0.3c-3.5,0-5.7,1.1-6.7,3.3V198H245v-35.7h10.4l0.4,4.6c1.9-3.5,4.5-5.2,7.8-5.2
			c1.2,0,2.2,0.1,3.1,0.4L266.5,172.4z"/>
		<path class="st5" d="M283.4,153.5v8.9h5.9v7.7h-5.9v16.3c0,1.3,0.2,2.3,0.7,2.8c0.5,0.5,1.4,0.8,2.9,0.8c1.1,0,2-0.1,2.8-0.2v7.9
			c-2,0.6-4.1,1-6.3,1c-3.8,0-6.6-0.9-8.5-2.7c-1.8-1.8-2.7-4.5-2.7-8.2v-17.7h-4.5v-7.7h4.5v-8.9H283.4z"/>
		<path class="st5" d="M303.9,162.3l0.4,4.2c2.5-3.2,5.9-4.8,10.2-4.8c3.7,0,6.5,1.1,8.3,3.3c1.8,2.2,2.8,5.6,2.9,10v23h-11.1v-22.5
			c0-1.8-0.4-3.1-1.1-4c-0.7-0.8-2-1.3-4-1.3c-2.2,0-3.8,0.9-4.8,2.6V198h-11.1v-35.7H303.9z"/>
		<path class="st5" d="M349,198.7c-5.5,0-9.9-1.6-13.3-4.9s-5.1-7.5-5.1-12.7v-0.9c0-3.6,0.7-6.9,2-9.7c1.4-2.8,3.3-4.9,5.9-6.5
			c2.6-1.5,5.7-2.3,9.2-2.3c5,0,9,1.6,11.9,4.7c2.9,3.1,4.4,7.4,4.4,13v4.3h-22.1c0.4,2,1.3,3.6,2.6,4.7c1.3,1.1,3.1,1.7,5.2,1.7
			c3.5,0,6.3-1.2,8.2-3.7l5.1,6c-1.4,1.9-3.3,3.4-5.9,4.6C354.6,198.1,351.9,198.7,349,198.7z M347.7,170.2c-3.3,0-5.2,2.2-5.8,6.5
			h11.2v-0.9c0-1.8-0.4-3.2-1.4-4.1C350.9,170.7,349.5,170.2,347.7,170.2z"/>
		<path class="st5" d="M390.1,172.4l-3.7-0.3c-3.5,0-5.7,1.1-6.7,3.3V198h-11.1v-35.7H379l0.4,4.6c1.9-3.5,4.5-5.2,7.8-5.2
			c1.2,0,2.2,0.1,3.1,0.4L390.1,172.4z"/>
	</g>
</g>
</svg>
