<?xml version="1.0" encoding="utf-8"?>
<!-- Generator: Adobe Illustrator 23.1.0, SVG Export Plug-In . SVG Version: 6.00 Build 0)  -->
<svg version="1.1" xmlns="http://www.w3.org/2000/svg" xmlns:xlink="http://www.w3.org/1999/xlink" x="0px" y="0px"
	 viewBox="0 0 858 504" style="enable-background:new 0 0 858 504;" xml:space="preserve">
<style type="text/css">
	.st0{fill:#DBD4D3;}
	.st1{fill:none;stroke:#FFFFFF;stroke-miterlimit:10;}
	.st2{fill:none;stroke:#FFFFFF;stroke-miterlimit:10;stroke-dasharray:3.9855,2.9891;}
	.st3{fill:none;stroke:#FFFFFF;stroke-miterlimit:10;stroke-dasharray:4,3;}
	.st4{fill:#242121;}
	.st5{fill:#FFFFFF;}
	.st6{fill:#C7C0BF;}
	.st7{fill:#5C5958;}
	.st8{fill:#FF8873;}
	.st9{fill:none;stroke:#FFFFFF;stroke-miterlimit:10;stroke-dasharray:3.986,2.9895;}
	.st10{fill:none;stroke:#FFFFFF;stroke-miterlimit:10;stroke-dasharray:3.9947,2.996;}
	.st11{fill:none;stroke:#FFFFFF;stroke-miterlimit:10;stroke-dasharray:3.9772,2.9829;}
	.st12{fill:none;stroke:#FFFFFF;stroke-miterlimit:10;stroke-dasharray:4.0053,3.004;}
	.st13{fill:none;stroke:#FFFFFF;stroke-miterlimit:10;stroke-dasharray:3.2941,2.4706;}
	.st14{fill:none;stroke:#FFFFFF;stroke-miterlimit:10;stroke-dasharray:4.0047,3.0036;}
	.st15{fill:none;stroke:#FFFFFF;stroke-miterlimit:10;stroke-dasharray:3.9781,2.9836;}
	.st16{fill:none;stroke:#FFFFFF;stroke-miterlimit:10;stroke-dasharray:4.0498,3.0373;}
	.st17{fill:none;stroke:#FFFFFF;stroke-miterlimit:10;stroke-dasharray:3.9941,2.9956;}
	.st18{fill:none;stroke:#C7C0BF;stroke-miterlimit:10;stroke-dasharray:4,3;}
	.st19{fill:none;stroke:#FFFFFF;stroke-miterlimit:10;stroke-dasharray:4.0252,3.0189;}
	.st20{fill:none;stroke:#FFFFFF;stroke-miterlimit:10;stroke-dasharray:3.9551,2.9663;}
	.st21{fill:none;stroke:#FFFFFF;stroke-miterlimit:10;stroke-dasharray:4.129,3.0968;}
	.st22{fill:none;stroke:#FFFFFF;stroke-miterlimit:10;stroke-dasharray:4.1212,3.0909;}
	.st23{fill:none;stroke:#FFFFFF;stroke-miterlimit:10;stroke-dasharray:4.0137,3.0103;}
	.st24{fill:none;stroke:#FFFFFF;stroke-miterlimit:10;stroke-dasharray:3.8904,2.9178;}
	.st25{fill:none;stroke:#FFFFFF;stroke-miterlimit:10;stroke-dasharray:4.034,3.0255;}
	.st26{fill:none;stroke:#FFFFFF;stroke-miterlimit:10;stroke-dasharray:3.987,2.9903;}
	.st27{fill:none;stroke:#FFFFFF;stroke-miterlimit:10;stroke-dasharray:3.9812,2.9859;}
	.st28{fill:none;stroke:#FFFFFF;stroke-miterlimit:10;stroke-dasharray:3.9804,2.9853;}
	.st29{fill:none;stroke:#FFFFFF;stroke-miterlimit:10;stroke-dasharray:3.9877,2.9908;}
	.st30{fill:none;stroke:#FFFFFF;stroke-miterlimit:10;stroke-dasharray:4.0141,3.0106;}
	.st31{fill:none;stroke:#FFFFFF;stroke-miterlimit:10;stroke-dasharray:3.9937,2.9953;}
	.st32{fill:none;stroke:#FFFFFF;stroke-miterlimit:10;stroke-dasharray:4.0188,3.0141;}
	.st33{fill:none;stroke:#FFFFFF;stroke-miterlimit:10;stroke-dasharray:3.9111,2.9333;}
	.st34{fill:none;stroke:#FFFFFF;stroke-miterlimit:10;stroke-dasharray:3.9148,2.9361;}
	.st35{fill:none;stroke:#FFFFFF;stroke-miterlimit:10;stroke-dasharray:3.915,2.9363;}
	.st36{fill:none;stroke:#FFFFFF;stroke-miterlimit:10;stroke-dasharray:3.915,2.9362;}
	.st37{fill:none;stroke:#FFFFFF;stroke-miterlimit:10;stroke-dasharray:3.9149,2.9362;}
	.st38{fill:#78FFA5;}
	.st39{fill:#907DFF;}
	.st40{fill:#FFE876;}
	.st41{fill:#7BD7FF;}
</style>
<g id="Layer_2">
	<rect x="0" class="st5" width="858" height="504"/>
</g>
<g id="Layer_1">
	<g>
		<path d="M674.5,193H573.7l50.4-50.4L674.5,193z M578.5,191h91.2l-45.6-45.6L578.5,191z"/>
		<path d="M540.5,289h-37.4v-74h37.4l37,37L540.5,289z M505.1,287h34.6l35-35l-35-35h-34.6V287z"/>
		<path d="M643.1,289h-38v-74h38V289z M607.1,287h34v-70h-34V287z"/>
		<path d="M361.1,289h-146v-74h38v36h16v-36h38v36h16v-36h38V289z M217.1,287h142v-70h-34v36h-20v-36h-34v36h-20v-36h-34V287z"/>
		<path d="M396.1,289h-1v-38h1c19.3,0,35-15.7,35-35v-1h38v1C469.1,256.3,436.3,289,396.1,289z M397.1,253v34
			c38.4-0.5,69.5-31.6,70-70h-34C432.5,236.6,416.7,252.5,397.1,253z"/>
	</g>
</g>
<g id="Isolation_Mode">
</g>
</svg>
