<?xml version="1.0" encoding="utf-8"?>
<!-- Generator: Adobe Illustrator 23.1.0, SVG Export Plug-In . SVG Version: 6.00 Build 0)  -->
<svg version="1.1" xmlns="http://www.w3.org/2000/svg" xmlns:xlink="http://www.w3.org/1999/xlink" x="0px" y="0px"
	 viewBox="0 0 858 504" style="enable-background:new 0 0 858 504;" xml:space="preserve">
<style type="text/css">
	.st0{fill:#DBD4D3;}
	.st1{fill:#FFFFFF;}
	.st2{fill:#242121;}
	.st3{fill:#C7C0BF;}
	.st4{fill:#5C5958;}
	.st5{fill:#FF8873;}
	.st6{fill:#78FFA5;}
	.st7{fill:#907DFF;}
	.st8{fill:#FFE876;}
	.st9{fill:#7BD7FF;}
</style>
<g id="Layer_2">
	<rect x="0.1" y="0" width="857.9" height="504"/>
</g>
<g id="Layer_1">
	<polygon class="st1" points="576.1,192 624.1,144 672.1,192 	"/>
	<polygon class="st1" points="540,216 504,216 504,288 540,288 576,252 	"/>
	<rect x="606" y="216" class="st5" width="36" height="72"/>
	<polygon class="st1" points="324,216 324,252 306,252 306,216 270,216 270,252 252,252 252,216 216,216 216,288 360,288 360,216 	
		"/>
	<path class="st1" d="M396,288v-36c19.9,0,36-16.1,36-36h36C468,255.7,435.7,288,396,288z"/>
</g>
</svg>
