<?xml version="1.0" encoding="utf-8"?>
<!-- Generator: Adobe Illustrator 23.1.0, SVG Export Plug-In . SVG Version: 6.00 Build 0)  -->
<svg version="1.1" xmlns="http://www.w3.org/2000/svg" xmlns:xlink="http://www.w3.org/1999/xlink" x="0px" y="0px"
	 viewBox="0 0 858 504" style="enable-background:new 0 0 858 504;" xml:space="preserve">
<style type="text/css">
	.st0{fill:#DBD4D3;}
	.st1{fill:#FFFFFF;}
	.st2{fill:#242121;}
	.st3{fill:#C7C0BF;}
	.st4{fill:#5C5958;}
	.st5{fill:#FF8873;}
	.st6{fill:#78FFA5;}
	.st7{fill:#907DFF;}
	.st8{fill:#FFE876;}
	.st9{fill:#7BD7FF;}
</style>
<g id="Layer_2">
	<rect x="0" y="0" class="st0" width="858" height="504"/>
</g>
<g id="Layer_1">
	<g>
		<rect x="856" y="215.5" class="st1" width="2" height="1"/>
		<path class="st1" d="M853,216.5h-4v-1h4V216.5z M846,216.5h-4v-1h4V216.5z M839.1,216.5h-4v-1h4V216.5z M832.1,216.5h-4v-1h4
			V216.5z M825.1,216.5h-4v-1h4V216.5z M818.1,216.5h-4v-1h4V216.5z M811.2,216.5h-4v-1h4V216.5z M804.2,216.5h-4v-1h4V216.5z
			 M797.2,216.5h-4v-1h4V216.5z M790.2,216.5h-4v-1h4V216.5z M783.3,216.5h-4v-1h4V216.5z M776.3,216.5h-4v-1h4V216.5z M769.3,216.5
			h-4v-1h4V216.5z M762.3,216.5h-4v-1h4V216.5z M755.4,216.5h-4v-1h4V216.5z M748.4,216.5h-4v-1h4V216.5z M741.4,216.5h-4v-1h4
			V216.5z M734.4,216.5h-4v-1h4V216.5z M727.5,216.5h-4v-1h4V216.5z M720.5,216.5h-4v-1h4V216.5z M713.5,216.5h-4v-1h4V216.5z
			 M706.5,216.5h-4v-1h4V216.5z M699.5,216.5h-4v-1h4V216.5z M692.6,216.5h-4v-1h4V216.5z M685.6,216.5h-4v-1h4V216.5z M678.6,216.5
			h-4v-1h4V216.5z M671.6,216.5h-4v-1h4V216.5z M664.7,216.5h-4v-1h4V216.5z M657.7,216.5h-4v-1h4V216.5z M650.7,216.5h-4v-1h4
			V216.5z M643.7,216.5h-4v-1h4V216.5z M636.8,216.5h-4v-1h4V216.5z M629.8,216.5h-4v-1h4V216.5z M622.8,216.5h-4v-1h4V216.5z
			 M615.8,216.5h-4v-1h4V216.5z M608.9,216.5h-4v-1h4V216.5z M601.9,216.5h-4v-1h4V216.5z M594.9,216.5h-4v-1h4V216.5z M587.9,216.5
			h-4v-1h4V216.5z M581,216.5h-4v-1h4V216.5z M574,216.5h-4v-1h4V216.5z M567,216.5h-4v-1h4V216.5z M560,216.5h-4v-1h4V216.5z
			 M553.1,216.5h-4v-1h4V216.5z M546.1,216.5h-4v-1h4V216.5z M539.1,216.5h-4v-1h4V216.5z M532.1,216.5h-4v-1h4V216.5z M525.2,216.5
			h-4v-1h4V216.5z M518.2,216.5h-4v-1h4V216.5z M511.2,216.5h-4v-1h4V216.5z M504.2,216.5h-4v-1h4V216.5z M497.3,216.5h-4v-1h4
			V216.5z M490.3,216.5h-4v-1h4V216.5z M483.3,216.5h-4v-1h4V216.5z M476.3,216.5h-4v-1h4V216.5z M469.4,216.5h-4v-1h4V216.5z
			 M462.4,216.5h-4v-1h4V216.5z M455.4,216.5h-4v-1h4V216.5z M448.4,216.5h-4v-1h4V216.5z M441.5,216.5h-4v-1h4V216.5z M434.5,216.5
			h-4v-1h4V216.5z M427.5,216.5h-4v-1h4V216.5z M420.5,216.5h-4v-1h4V216.5z M413.6,216.5h-4v-1h4V216.5z M406.6,216.5h-4v-1h4
			V216.5z M399.6,216.5h-4v-1h4V216.5z M392.6,216.5h-4v-1h4V216.5z M385.7,216.5h-4v-1h4V216.5z M378.7,216.5h-4v-1h4V216.5z
			 M371.7,216.5h-4v-1h4V216.5z M364.7,216.5h-4v-1h4V216.5z M357.8,216.5h-4v-1h4V216.5z M350.8,216.5h-4v-1h4V216.5z M343.8,216.5
			h-4v-1h4V216.5z M336.8,216.5h-4v-1h4V216.5z M329.8,216.5h-4v-1h4V216.5z M322.9,216.5h-4v-1h4V216.5z M315.9,216.5h-4v-1h4
			V216.5z M308.9,216.5h-4v-1h4V216.5z M301.9,216.5h-4v-1h4V216.5z M295,216.5h-4v-1h4V216.5z M288,216.5h-4v-1h4V216.5z
			 M281,216.5h-4v-1h4V216.5z M274,216.5h-4v-1h4V216.5z M267.1,216.5h-4v-1h4V216.5z M260.1,216.5h-4v-1h4V216.5z M253.1,216.5h-4
			v-1h4V216.5z M246.1,216.5h-4v-1h4V216.5z M239.2,216.5h-4v-1h4V216.5z M232.2,216.5h-4v-1h4V216.5z M225.2,216.5h-4v-1h4V216.5z
			 M218.2,216.5h-4v-1h4V216.5z M211.3,216.5h-4v-1h4V216.5z M204.3,216.5h-4v-1h4V216.5z M197.3,216.5h-4v-1h4V216.5z M190.3,216.5
			h-4v-1h4V216.5z M183.4,216.5h-4v-1h4V216.5z M176.4,216.5h-4v-1h4V216.5z M169.4,216.5h-4v-1h4V216.5z M162.4,216.5h-4v-1h4
			V216.5z M155.5,216.5h-4v-1h4V216.5z M148.5,216.5h-4v-1h4V216.5z M141.5,216.5h-4v-1h4V216.5z M134.5,216.5h-4v-1h4V216.5z
			 M127.6,216.5h-4v-1h4V216.5z M120.6,216.5h-4v-1h4V216.5z M113.6,216.5h-4v-1h4V216.5z M106.6,216.5h-4v-1h4V216.5z M99.7,216.5
			h-4v-1h4V216.5z M92.7,216.5h-4v-1h4V216.5z M85.7,216.5h-4v-1h4V216.5z M78.7,216.5h-4v-1h4V216.5z M71.8,216.5h-4v-1h4V216.5z
			 M64.8,216.5h-4v-1h4V216.5z M57.8,216.5h-4v-1h4V216.5z M50.8,216.5h-4v-1h4V216.5z M43.9,216.5h-4v-1h4V216.5z M36.9,216.5h-4
			v-1h4V216.5z M29.9,216.5h-4v-1h4V216.5z M22.9,216.5h-4v-1h4V216.5z M16,216.5h-4v-1h4V216.5z M9,216.5H5v-1h4V216.5z"/>
		<rect x="0" y="215.5" class="st1" width="2" height="1"/>
	</g>
	<g>
		<rect x="395.6" y="0.3" class="st1" width="1" height="2"/>
		<path class="st1" d="M396.6,498.7h-1v-4h1V498.7z M396.6,491.7h-1v-4h1V491.7z M396.6,484.7h-1v-4h1V484.7z M396.6,477.7h-1v-4h1
			V477.7z M396.6,470.7h-1v-4h1V470.7z M396.6,463.7h-1v-4h1V463.7z M396.6,456.7h-1v-4h1V456.7z M396.6,449.7h-1v-4h1V449.7z
			 M396.6,442.7h-1v-4h1V442.7z M396.6,435.8h-1v-4h1V435.8z M396.6,428.8h-1v-4h1V428.8z M396.6,421.8h-1v-4h1V421.8z M396.6,414.8
			h-1v-4h1V414.8z M396.6,407.8h-1v-4h1V407.8z M396.6,400.8h-1v-4h1V400.8z M396.6,393.8h-1v-4h1V393.8z M396.6,386.8h-1v-4h1
			V386.8z M396.6,379.8h-1v-4h1V379.8z M396.6,372.8h-1v-4h1V372.8z M396.6,365.8h-1v-4h1V365.8z M396.6,358.9h-1v-4h1V358.9z
			 M396.6,351.9h-1v-4h1V351.9z M396.6,344.9h-1v-4h1V344.9z M396.6,337.9h-1v-4h1V337.9z M396.6,330.9h-1v-4h1V330.9z M396.6,323.9
			h-1v-4h1V323.9z M396.6,316.9h-1v-4h1V316.9z M396.6,309.9h-1v-4h1V309.9z M396.6,302.9h-1v-4h1V302.9z M396.6,295.9h-1v-4h1
			V295.9z M396.6,289h-1v-4h1V289z M396.6,282h-1v-4h1V282z M396.6,275h-1v-4h1V275z M396.6,268h-1v-4h1V268z M396.6,261h-1v-4h1
			V261z M396.6,254h-1v-4h1V254z M396.6,247h-1v-4h1V247z M396.6,240h-1v-4h1V240z M396.6,233h-1v-4h1V233z M396.6,226h-1v-4h1V226z
			 M396.6,219h-1v-4h1V219z M396.6,212.1h-1v-4h1V212.1z M396.6,205.1h-1v-4h1V205.1z M396.6,198.1h-1v-4h1V198.1z M396.6,191.1h-1
			v-4h1V191.1z M396.6,184.1h-1v-4h1V184.1z M396.6,177.1h-1v-4h1V177.1z M396.6,170.1h-1v-4h1V170.1z M396.6,163.1h-1v-4h1V163.1z
			 M396.6,156.1h-1v-4h1V156.1z M396.6,149.1h-1v-4h1V149.1z M396.6,142.1h-1v-4h1V142.1z M396.6,135.2h-1v-4h1V135.2z M396.6,128.2
			h-1v-4h1V128.2z M396.6,121.2h-1v-4h1V121.2z M396.6,114.2h-1v-4h1V114.2z M396.6,107.2h-1v-4h1V107.2z M396.6,100.2h-1v-4h1
			V100.2z M396.6,93.2h-1v-4h1V93.2z M396.6,86.2h-1v-4h1V86.2z M396.6,79.2h-1v-4h1V79.2z M396.6,72.2h-1v-4h1V72.2z M396.6,65.2
			h-1v-4h1V65.2z M396.6,58.3h-1v-4h1V58.3z M396.6,51.3h-1v-4h1V51.3z M396.6,44.3h-1v-4h1V44.3z M396.6,37.3h-1v-4h1V37.3z
			 M396.6,30.3h-1v-4h1V30.3z M396.6,23.3h-1v-4h1V23.3z M396.6,16.3h-1v-4h1V16.3z M396.6,9.3h-1v-4h1V9.3z"/>
		<rect x="395.6" y="501.7" class="st1" width="1" height="2"/>
	</g>
	<g>
		<rect x="359.6" y="0.3" class="st1" width="1" height="2"/>
		<path class="st1" d="M360.6,498.7h-1v-4h1V498.7z M360.6,491.7h-1v-4h1V491.7z M360.6,484.7h-1v-4h1V484.7z M360.6,477.7h-1v-4h1
			V477.7z M360.6,470.7h-1v-4h1V470.7z M360.6,463.7h-1v-4h1V463.7z M360.6,456.7h-1v-4h1V456.7z M360.6,449.7h-1v-4h1V449.7z
			 M360.6,442.7h-1v-4h1V442.7z M360.6,435.8h-1v-4h1V435.8z M360.6,428.8h-1v-4h1V428.8z M360.6,421.8h-1v-4h1V421.8z M360.6,414.8
			h-1v-4h1V414.8z M360.6,407.8h-1v-4h1V407.8z M360.6,400.8h-1v-4h1V400.8z M360.6,393.8h-1v-4h1V393.8z M360.6,386.8h-1v-4h1
			V386.8z M360.6,379.8h-1v-4h1V379.8z M360.6,372.8h-1v-4h1V372.8z M360.6,365.8h-1v-4h1V365.8z M360.6,358.9h-1v-4h1V358.9z
			 M360.6,351.9h-1v-4h1V351.9z M360.6,344.9h-1v-4h1V344.9z M360.6,337.9h-1v-4h1V337.9z M360.6,330.9h-1v-4h1V330.9z M360.6,323.9
			h-1v-4h1V323.9z M360.6,316.9h-1v-4h1V316.9z M360.6,309.9h-1v-4h1V309.9z M360.6,302.9h-1v-4h1V302.9z M360.6,295.9h-1v-4h1
			V295.9z M360.6,289h-1v-4h1V289z M360.6,282h-1v-4h1V282z M360.6,275h-1v-4h1V275z M360.6,268h-1v-4h1V268z M360.6,261h-1v-4h1
			V261z M360.6,254h-1v-4h1V254z M360.6,247h-1v-4h1V247z M360.6,240h-1v-4h1V240z M360.6,233h-1v-4h1V233z M360.6,226h-1v-4h1V226z
			 M360.6,219h-1v-4h1V219z M360.6,212.1h-1v-4h1V212.1z M360.6,205.1h-1v-4h1V205.1z M360.6,198.1h-1v-4h1V198.1z M360.6,191.1h-1
			v-4h1V191.1z M360.6,184.1h-1v-4h1V184.1z M360.6,177.1h-1v-4h1V177.1z M360.6,170.1h-1v-4h1V170.1z M360.6,163.1h-1v-4h1V163.1z
			 M360.6,156.1h-1v-4h1V156.1z M360.6,149.1h-1v-4h1V149.1z M360.6,142.1h-1v-4h1V142.1z M360.6,135.2h-1v-4h1V135.2z M360.6,128.2
			h-1v-4h1V128.2z M360.6,121.2h-1v-4h1V121.2z M360.6,114.2h-1v-4h1V114.2z M360.6,107.2h-1v-4h1V107.2z M360.6,100.2h-1v-4h1
			V100.2z M360.6,93.2h-1v-4h1V93.2z M360.6,86.2h-1v-4h1V86.2z M360.6,79.2h-1v-4h1V79.2z M360.6,72.2h-1v-4h1V72.2z M360.6,65.2
			h-1v-4h1V65.2z M360.6,58.3h-1v-4h1V58.3z M360.6,51.3h-1v-4h1V51.3z M360.6,44.3h-1v-4h1V44.3z M360.6,37.3h-1v-4h1V37.3z
			 M360.6,30.3h-1v-4h1V30.3z M360.6,23.3h-1v-4h1V23.3z M360.6,16.3h-1v-4h1V16.3z M360.6,9.3h-1v-4h1V9.3z"/>
		<rect x="359.6" y="501.7" class="st1" width="1" height="2"/>
	</g>
	<g>
		<rect x="856" y="251.5" class="st1" width="2" height="1"/>
		<path class="st1" d="M853,252.5h-4v-1h4V252.5z M846,252.5h-4v-1h4V252.5z M839.1,252.5h-4v-1h4V252.5z M832.1,252.5h-4v-1h4
			V252.5z M825.1,252.5h-4v-1h4V252.5z M818.1,252.5h-4v-1h4V252.5z M811.2,252.5h-4v-1h4V252.5z M804.2,252.5h-4v-1h4V252.5z
			 M797.2,252.5h-4v-1h4V252.5z M790.2,252.5h-4v-1h4V252.5z M783.3,252.5h-4v-1h4V252.5z M776.3,252.5h-4v-1h4V252.5z M769.3,252.5
			h-4v-1h4V252.5z M762.3,252.5h-4v-1h4V252.5z M755.4,252.5h-4v-1h4V252.5z M748.4,252.5h-4v-1h4V252.5z M741.4,252.5h-4v-1h4
			V252.5z M734.4,252.5h-4v-1h4V252.5z M727.5,252.5h-4v-1h4V252.5z M720.5,252.5h-4v-1h4V252.5z M713.5,252.5h-4v-1h4V252.5z
			 M706.5,252.5h-4v-1h4V252.5z M699.5,252.5h-4v-1h4V252.5z M692.6,252.5h-4v-1h4V252.5z M685.6,252.5h-4v-1h4V252.5z M678.6,252.5
			h-4v-1h4V252.5z M671.6,252.5h-4v-1h4V252.5z M664.7,252.5h-4v-1h4V252.5z M657.7,252.5h-4v-1h4V252.5z M650.7,252.5h-4v-1h4
			V252.5z M643.7,252.5h-4v-1h4V252.5z M636.8,252.5h-4v-1h4V252.5z M629.8,252.5h-4v-1h4V252.5z M622.8,252.5h-4v-1h4V252.5z
			 M615.8,252.5h-4v-1h4V252.5z M608.9,252.5h-4v-1h4V252.5z M601.9,252.5h-4v-1h4V252.5z M594.9,252.5h-4v-1h4V252.5z M587.9,252.5
			h-4v-1h4V252.5z M581,252.5h-4v-1h4V252.5z M574,252.5h-4v-1h4V252.5z M567,252.5h-4v-1h4V252.5z M560,252.5h-4v-1h4V252.5z
			 M553.1,252.5h-4v-1h4V252.5z M546.1,252.5h-4v-1h4V252.5z M539.1,252.5h-4v-1h4V252.5z M532.1,252.5h-4v-1h4V252.5z M525.2,252.5
			h-4v-1h4V252.5z M518.2,252.5h-4v-1h4V252.5z M511.2,252.5h-4v-1h4V252.5z M504.2,252.5h-4v-1h4V252.5z M497.3,252.5h-4v-1h4
			V252.5z M490.3,252.5h-4v-1h4V252.5z M483.3,252.5h-4v-1h4V252.5z M476.3,252.5h-4v-1h4V252.5z M469.4,252.5h-4v-1h4V252.5z
			 M462.4,252.5h-4v-1h4V252.5z M455.4,252.5h-4v-1h4V252.5z M448.4,252.5h-4v-1h4V252.5z M441.5,252.5h-4v-1h4V252.5z M434.5,252.5
			h-4v-1h4V252.5z M427.5,252.5h-4v-1h4V252.5z M420.5,252.5h-4v-1h4V252.5z M413.6,252.5h-4v-1h4V252.5z M406.6,252.5h-4v-1h4
			V252.5z M399.6,252.5h-4v-1h4V252.5z M392.6,252.5h-4v-1h4V252.5z M385.7,252.5h-4v-1h4V252.5z M378.7,252.5h-4v-1h4V252.5z
			 M371.7,252.5h-4v-1h4V252.5z M364.7,252.5h-4v-1h4V252.5z M357.8,252.5h-4v-1h4V252.5z M350.8,252.5h-4v-1h4V252.5z M343.8,252.5
			h-4v-1h4V252.5z M336.8,252.5h-4v-1h4V252.5z M329.8,252.5h-4v-1h4V252.5z M322.9,252.5h-4v-1h4V252.5z M315.9,252.5h-4v-1h4
			V252.5z M308.9,252.5h-4v-1h4V252.5z M301.9,252.5h-4v-1h4V252.5z M295,252.5h-4v-1h4V252.5z M288,252.5h-4v-1h4V252.5z
			 M281,252.5h-4v-1h4V252.5z M274,252.5h-4v-1h4V252.5z M267.1,252.5h-4v-1h4V252.5z M260.1,252.5h-4v-1h4V252.5z M253.1,252.5h-4
			v-1h4V252.5z M246.1,252.5h-4v-1h4V252.5z M239.2,252.5h-4v-1h4V252.5z M232.2,252.5h-4v-1h4V252.5z M225.2,252.5h-4v-1h4V252.5z
			 M218.2,252.5h-4v-1h4V252.5z M211.3,252.5h-4v-1h4V252.5z M204.3,252.5h-4v-1h4V252.5z M197.3,252.5h-4v-1h4V252.5z M190.3,252.5
			h-4v-1h4V252.5z M183.4,252.5h-4v-1h4V252.5z M176.4,252.5h-4v-1h4V252.5z M169.4,252.5h-4v-1h4V252.5z M162.4,252.5h-4v-1h4
			V252.5z M155.5,252.5h-4v-1h4V252.5z M148.5,252.5h-4v-1h4V252.5z M141.5,252.5h-4v-1h4V252.5z M134.5,252.5h-4v-1h4V252.5z
			 M127.6,252.5h-4v-1h4V252.5z M120.6,252.5h-4v-1h4V252.5z M113.6,252.5h-4v-1h4V252.5z M106.6,252.5h-4v-1h4V252.5z M99.7,252.5
			h-4v-1h4V252.5z M92.7,252.5h-4v-1h4V252.5z M85.7,252.5h-4v-1h4V252.5z M78.7,252.5h-4v-1h4V252.5z M71.8,252.5h-4v-1h4V252.5z
			 M64.8,252.5h-4v-1h4V252.5z M57.8,252.5h-4v-1h4V252.5z M50.8,252.5h-4v-1h4V252.5z M43.9,252.5h-4v-1h4V252.5z M36.9,252.5h-4
			v-1h4V252.5z M29.9,252.5h-4v-1h4V252.5z M22.9,252.5h-4v-1h4V252.5z M16,252.5h-4v-1h4V252.5z M9,252.5H5v-1h4V252.5z"/>
		<rect x="0" y="251.5" class="st1" width="2" height="1"/>
	</g>
	<g>
		<circle class="st0" cx="396.1" cy="216" r="72"/>
		<path class="st1" d="M396.1,288.5C396.1,288.5,396.1,288.5,396.1,288.5c-0.7,0-1.5,0-2.2,0l0-1c0.7,0,1.4,0,2.2,0c0,0,0,0,0,0
			c0.6,0,1.2,0,1.8,0l0,1C397.3,288.5,396.7,288.5,396.1,288.5z M400.9,288.3l-0.1-1c1.3-0.1,2.6-0.2,3.9-0.4l0.1,1
			C403.5,288.1,402.2,288.3,400.9,288.3z M390.9,288.3c-1.3-0.1-2.7-0.2-4-0.4l0.1-1c1.3,0.2,2.6,0.3,3.9,0.4L390.9,288.3z
			 M407.8,287.6l-0.2-1c1.3-0.2,2.6-0.5,3.9-0.7l0.2,1C410.5,287.1,409.1,287.3,407.8,287.6z M383.9,287.5c-1.3-0.2-2.6-0.5-3.9-0.8
			l0.2-1c1.3,0.3,2.6,0.5,3.9,0.8L383.9,287.5z M414.7,286.1l-0.3-1c1.3-0.3,2.5-0.7,3.8-1.1l0.3,1
			C417.3,285.4,416,285.8,414.7,286.1z M377.1,286c-1.3-0.3-2.6-0.7-3.8-1.2l0.3-0.9c1.2,0.4,2.5,0.8,3.8,1.1L377.1,286z M421.4,284
			L421,283c1.2-0.5,2.5-1,3.7-1.5l0.4,0.9C423.8,283,422.6,283.5,421.4,284z M370.4,283.8c-1.2-0.5-2.5-1-3.7-1.5l0.4-0.9
			c1.2,0.5,2.4,1,3.7,1.5L370.4,283.8z M427.8,281.2l-0.4-0.9c1.2-0.6,2.4-1.2,3.5-1.8l0.5,0.9C430.2,280,429,280.6,427.8,281.2z
			 M364,281c-1.2-0.6-2.4-1.2-3.5-1.9l0.5-0.9c1.1,0.6,2.3,1.3,3.5,1.9L364,281z M433.9,277.9l-0.5-0.9c1.1-0.7,2.2-1.4,3.3-2.2
			l0.6,0.8C436.2,276.4,435,277.2,433.9,277.9z M357.8,277.6c-1.1-0.7-2.3-1.4-3.3-2.2l0.6-0.8c1.1,0.8,2.2,1.5,3.3,2.2L357.8,277.6
			z M439.7,273.9l-0.6-0.8c1-0.8,2.1-1.6,3.1-2.5l0.6,0.8C441.8,272.3,440.8,273.1,439.7,273.9z M352.1,273.6
			c-1.1-0.8-2.1-1.7-3.1-2.5l0.7-0.8c1,0.9,2,1.7,3.1,2.5L352.1,273.6z M445.1,269.4l-0.7-0.7c1-0.9,1.9-1.8,2.8-2.7l0.7,0.7
			C447,267.6,446,268.5,445.1,269.4z M346.7,269.1c-1-0.9-1.9-1.8-2.9-2.8l0.7-0.7c0.9,0.9,1.9,1.9,2.8,2.8L346.7,269.1z M450,264.5
			l-0.7-0.7c0.9-1,1.7-2,2.6-3l0.8,0.6C451.8,262.4,450.9,263.5,450,264.5z M341.8,264.1c-0.9-1-1.7-2-2.6-3.1l0.8-0.6
			c0.8,1,1.7,2,2.5,3L341.8,264.1z M454.4,259l-0.8-0.6c0.8-1.1,1.5-2.1,2.3-3.2l0.8,0.5C456,256.9,455.2,258,454.4,259z
			 M337.4,258.6c-0.8-1.1-1.5-2.2-2.3-3.3l0.8-0.5c0.7,1.1,1.5,2.2,2.2,3.3L337.4,258.6z M458.3,253.2l-0.9-0.5
			c0.7-1.1,1.3-2.3,1.9-3.4l0.9,0.5C459.7,250.9,459,252.1,458.3,253.2z M333.6,252.8c-0.7-1.1-1.3-2.3-1.9-3.5l0.9-0.5
			c0.6,1.2,1.2,2.3,1.9,3.4L333.6,252.8z M461.6,247l-0.9-0.4c0.6-1.2,1.1-2.4,1.6-3.6l0.9,0.4C462.7,244.6,462.2,245.8,461.6,247z
			 M330.3,246.6c-0.6-1.2-1.1-2.4-1.6-3.7l0.9-0.4c0.5,1.2,1,2.4,1.6,3.6L330.3,246.6z M464.3,240.5l-0.9-0.3
			c0.4-1.2,0.9-2.5,1.2-3.8l1,0.3C465.2,238,464.8,239.3,464.3,240.5z M327.7,240.1c-0.4-1.3-0.9-2.5-1.2-3.8l1-0.3
			c0.4,1.3,0.8,2.5,1.2,3.8L327.7,240.1z M466.4,233.8l-1-0.2c0.3-1.3,0.6-2.6,0.9-3.9l1,0.2C467,231.2,466.7,232.5,466.4,233.8z
			 M325.7,233.4c-0.3-1.3-0.6-2.6-0.9-3.9l1-0.2c0.2,1.3,0.5,2.6,0.8,3.9L325.7,233.4z M467.7,227l-1-0.2c0.2-1.3,0.4-2.6,0.5-3.9
			l1,0.1C468.1,224.3,467.9,225.7,467.7,227z M324.3,226.6c-0.2-1.3-0.3-2.7-0.5-4l1-0.1c0.1,1.3,0.3,2.6,0.5,3.9L324.3,226.6z
			 M468.5,220l-1-0.1c0.1-1.3,0.1-2.6,0.1-3.9l0-0.2h1l0,0.1C468.6,217.3,468.5,218.7,468.5,220z M323.7,219.6
			c-0.1-1.2-0.1-2.4-0.1-3.6l0-0.4l1,0l0,0.4c0,1.2,0,2.4,0.1,3.5L323.7,219.6z M467.5,212.9c-0.1-1.3-0.1-2.6-0.3-3.9l1-0.1
			c0.1,1.3,0.2,2.7,0.3,4L467.5,212.9z M324.7,212.6l-1,0c0.1-1.3,0.2-2.7,0.3-4l1,0.1C324.8,210,324.7,211.3,324.7,212.6z
			 M466.9,206c-0.2-1.3-0.4-2.6-0.7-3.9l1-0.2c0.3,1.3,0.5,2.6,0.7,3.9L466.9,206z M325.3,205.7l-1-0.1c0.2-1.3,0.4-2.6,0.7-3.9
			l1,0.2C325.7,203.1,325.5,204.5,325.3,205.7z M465.6,199.2c-0.3-1.3-0.7-2.6-1-3.8l1-0.3c0.4,1.3,0.7,2.6,1,3.9L465.6,199.2z
			 M326.6,199l-1-0.2c0.3-1.3,0.7-2.6,1.1-3.9l1,0.3C327.3,196.4,326.9,197.7,326.6,199z M463.7,192.6c-0.4-1.2-0.9-2.5-1.4-3.7
			l0.9-0.4c0.5,1.2,1,2.5,1.4,3.7L463.7,192.6z M328.6,192.3l-0.9-0.3c0.4-1.3,0.9-2.5,1.4-3.7l0.9,0.4
			C329.5,189.9,329,191.1,328.6,192.3z M461.1,186.2c-0.5-1.2-1.1-2.4-1.7-3.5l0.9-0.5c0.6,1.2,1.2,2.4,1.8,3.6L461.1,186.2z
			 M331.2,185.9l-0.9-0.4c0.6-1.2,1.2-2.4,1.8-3.6l0.9,0.5C332.3,183.5,331.7,184.7,331.2,185.9z M457.9,180.1
			c-0.7-1.1-1.4-2.3-2.1-3.4l0.8-0.6c0.7,1.1,1.4,2.3,2.1,3.4L457.9,180.1z M334.4,179.8l-0.9-0.5c0.7-1.1,1.4-2.3,2.1-3.4l0.8,0.6
			C335.8,177.5,335.1,178.7,334.4,179.8z M454.1,174.3c-0.8-1.1-1.6-2.1-2.4-3.1l0.8-0.6c0.8,1,1.6,2.1,2.4,3.2L454.1,174.3z
			 M338.2,174l-0.8-0.6c0.8-1.1,1.6-2.1,2.4-3.2l0.8,0.6C339.8,171.9,339,173,338.2,174z M449.9,168.9c-0.9-1-1.8-2-2.7-2.9l0.7-0.7
			c0.9,1,1.8,1.9,2.7,2.9L449.9,168.9z M342.5,168.6l-0.7-0.7c0.9-1,1.8-2,2.7-2.9l0.7,0.7C344.3,166.7,343.4,167.6,342.5,168.6z
			 M445.1,163.9c-1-0.9-1.9-1.8-2.9-2.6l0.6-0.8c1,0.9,2,1.8,3,2.7L445.1,163.9z M347.3,163.7l-0.7-0.7c1-0.9,2-1.8,3-2.6l0.6,0.8
			C349.3,161.9,348.3,162.8,347.3,163.7z M439.8,159.4c-1-0.8-2.1-1.6-3.2-2.3l0.6-0.8c1.1,0.8,2.2,1.6,3.2,2.4L439.8,159.4z
			 M352.6,159.2l-0.6-0.8c1.1-0.8,2.1-1.6,3.2-2.3l0.6,0.8C354.7,157.6,353.6,158.4,352.6,159.2z M434.1,155.5
			c-1.1-0.7-2.3-1.4-3.4-2l0.5-0.9c1.2,0.6,2.3,1.3,3.4,2L434.1,155.5z M358.3,155.3l-0.5-0.8c1.1-0.7,2.3-1.4,3.4-2l0.5,0.9
			C360.5,153.9,359.4,154.6,358.3,155.3z M428.1,152.1c-1.2-0.6-2.4-1.2-3.6-1.7l0.4-0.9c1.2,0.5,2.4,1.1,3.6,1.7L428.1,152.1z
			 M364.3,151.9l-0.4-0.9c1.2-0.6,2.4-1.2,3.6-1.7l0.4,0.9C366.7,150.8,365.5,151.3,364.3,151.9z M421.8,149.3
			c-1.2-0.5-2.5-0.9-3.7-1.3l0.3-1c1.3,0.4,2.5,0.9,3.8,1.3L421.8,149.3z M370.6,149.2l-0.4-0.9c1.2-0.5,2.5-0.9,3.8-1.3l0.3,1
			C373.1,148.3,371.8,148.7,370.6,149.2z M415.2,147.1c-1.3-0.4-2.6-0.7-3.8-0.9l0.2-1c1.3,0.3,2.6,0.6,3.9,1L415.2,147.1z
			 M377.2,147l-0.3-1c1.3-0.4,2.6-0.7,3.9-0.9l0.2,1C379.7,146.4,378.4,146.7,377.2,147z M408.5,145.6c-1.3-0.2-2.6-0.4-3.9-0.6
			l0.1-1c1.3,0.2,2.7,0.4,4,0.6L408.5,145.6z M383.9,145.5l-0.2-1c1.3-0.2,2.6-0.4,4-0.6l0.1,1C386.5,145.1,385.2,145.3,383.9,145.5
			z M401.6,144.7c-1.3-0.1-2.6-0.2-3.9-0.2l0-1c1.3,0,2.7,0.1,4,0.2L401.6,144.7z M390.8,144.7l-0.1-1c1.3-0.1,2.7-0.2,4-0.2l0,1
			C393.4,144.5,392.1,144.6,390.8,144.7z"/>
	</g>
	<polygon class="st1" points="540.1,216 504.1,216 504.1,288 540.1,288 576.1,252 	"/>
	<rect x="606.1" y="216" class="st1" width="36" height="72"/>
	<path class="st1" d="M396.1,288v-36c19.9,0,36-16.1,36-36h36C468.1,255.7,435.8,288,396.1,288z"/>
	<g>
		<rect x="641.6" y="0.3" class="st1" width="1" height="2"/>
		<path class="st1" d="M642.6,498.7h-1v-4h1V498.7z M642.6,491.7h-1v-4h1V491.7z M642.6,484.7h-1v-4h1V484.7z M642.6,477.7h-1v-4h1
			V477.7z M642.6,470.7h-1v-4h1V470.7z M642.6,463.7h-1v-4h1V463.7z M642.6,456.7h-1v-4h1V456.7z M642.6,449.7h-1v-4h1V449.7z
			 M642.6,442.7h-1v-4h1V442.7z M642.6,435.8h-1v-4h1V435.8z M642.6,428.8h-1v-4h1V428.8z M642.6,421.8h-1v-4h1V421.8z M642.6,414.8
			h-1v-4h1V414.8z M642.6,407.8h-1v-4h1V407.8z M642.6,400.8h-1v-4h1V400.8z M642.6,393.8h-1v-4h1V393.8z M642.6,386.8h-1v-4h1
			V386.8z M642.6,379.8h-1v-4h1V379.8z M642.6,372.8h-1v-4h1V372.8z M642.6,365.8h-1v-4h1V365.8z M642.6,358.9h-1v-4h1V358.9z
			 M642.6,351.9h-1v-4h1V351.9z M642.6,344.9h-1v-4h1V344.9z M642.6,337.9h-1v-4h1V337.9z M642.6,330.9h-1v-4h1V330.9z M642.6,323.9
			h-1v-4h1V323.9z M642.6,316.9h-1v-4h1V316.9z M642.6,309.9h-1v-4h1V309.9z M642.6,302.9h-1v-4h1V302.9z M642.6,295.9h-1v-4h1
			V295.9z M642.6,289h-1v-4h1V289z M642.6,282h-1v-4h1V282z M642.6,275h-1v-4h1V275z M642.6,268h-1v-4h1V268z M642.6,261h-1v-4h1
			V261z M642.6,254h-1v-4h1V254z M642.6,247h-1v-4h1V247z M642.6,240h-1v-4h1V240z M642.6,233h-1v-4h1V233z M642.6,226h-1v-4h1V226z
			 M642.6,219h-1v-4h1V219z M642.6,212.1h-1v-4h1V212.1z M642.6,205.1h-1v-4h1V205.1z M642.6,198.1h-1v-4h1V198.1z M642.6,191.1h-1
			v-4h1V191.1z M642.6,184.1h-1v-4h1V184.1z M642.6,177.1h-1v-4h1V177.1z M642.6,170.1h-1v-4h1V170.1z M642.6,163.1h-1v-4h1V163.1z
			 M642.6,156.1h-1v-4h1V156.1z M642.6,149.1h-1v-4h1V149.1z M642.6,142.1h-1v-4h1V142.1z M642.6,135.2h-1v-4h1V135.2z M642.6,128.2
			h-1v-4h1V128.2z M642.6,121.2h-1v-4h1V121.2z M642.6,114.2h-1v-4h1V114.2z M642.6,107.2h-1v-4h1V107.2z M642.6,100.2h-1v-4h1
			V100.2z M642.6,93.2h-1v-4h1V93.2z M642.6,86.2h-1v-4h1V86.2z M642.6,79.2h-1v-4h1V79.2z M642.6,72.2h-1v-4h1V72.2z M642.6,65.2
			h-1v-4h1V65.2z M642.6,58.3h-1v-4h1V58.3z M642.6,51.3h-1v-4h1V51.3z M642.6,44.3h-1v-4h1V44.3z M642.6,37.3h-1v-4h1V37.3z
			 M642.6,30.3h-1v-4h1V30.3z M642.6,23.3h-1v-4h1V23.3z M642.6,16.3h-1v-4h1V16.3z M642.6,9.3h-1v-4h1V9.3z"/>
		<rect x="641.6" y="501.7" class="st1" width="1" height="2"/>
	</g>
	<g>
		<rect x="605.6" y="501.7" class="st1" width="1" height="2"/>
		<path class="st1" d="M606.6,498.7h-1v-4h1V498.7z M606.6,491.7h-1v-4h1V491.7z M606.6,484.7h-1v-4h1V484.7z M606.6,477.7h-1v-4h1
			V477.7z M606.6,470.7h-1v-4h1V470.7z M606.6,463.7h-1v-4h1V463.7z M606.6,456.7h-1v-4h1V456.7z M606.6,449.7h-1v-4h1V449.7z
			 M606.6,442.7h-1v-4h1V442.7z M606.6,435.8h-1v-4h1V435.8z M606.6,428.8h-1v-4h1V428.8z M606.6,421.8h-1v-4h1V421.8z M606.6,414.8
			h-1v-4h1V414.8z M606.6,407.8h-1v-4h1V407.8z M606.6,400.8h-1v-4h1V400.8z M606.6,393.8h-1v-4h1V393.8z M606.6,386.8h-1v-4h1
			V386.8z M606.6,379.8h-1v-4h1V379.8z M606.6,372.8h-1v-4h1V372.8z M606.6,365.8h-1v-4h1V365.8z M606.6,358.9h-1v-4h1V358.9z
			 M606.6,351.9h-1v-4h1V351.9z M606.6,344.9h-1v-4h1V344.9z M606.6,337.9h-1v-4h1V337.9z M606.6,330.9h-1v-4h1V330.9z M606.6,323.9
			h-1v-4h1V323.9z M606.6,316.9h-1v-4h1V316.9z M606.6,309.9h-1v-4h1V309.9z M606.6,302.9h-1v-4h1V302.9z M606.6,295.9h-1v-4h1
			V295.9z M606.6,289h-1v-4h1V289z M606.6,282h-1v-4h1V282z M606.6,275h-1v-4h1V275z M606.6,268h-1v-4h1V268z M606.6,261h-1v-4h1
			V261z M606.6,254h-1v-4h1V254z M606.6,247h-1v-4h1V247z M606.6,240h-1v-4h1V240z M606.6,233h-1v-4h1V233z M606.6,226h-1v-4h1V226z
			 M606.6,219h-1v-4h1V219z M606.6,212.1h-1v-4h1V212.1z M606.6,205.1h-1v-4h1V205.1z M606.6,198.1h-1v-4h1V198.1z M606.6,191.1h-1
			v-4h1V191.1z M606.6,184.1h-1v-4h1V184.1z M606.6,177.1h-1v-4h1V177.1z M606.6,170.1h-1v-4h1V170.1z M606.6,163.1h-1v-4h1V163.1z
			 M606.6,156.1h-1v-4h1V156.1z M606.6,149.1h-1v-4h1V149.1z M606.6,142.1h-1v-4h1V142.1z M606.6,135.2h-1v-4h1V135.2z M606.6,128.2
			h-1v-4h1V128.2z M606.6,121.2h-1v-4h1V121.2z M606.6,114.2h-1v-4h1V114.2z M606.6,107.2h-1v-4h1V107.2z M606.6,100.2h-1v-4h1
			V100.2z M606.6,93.2h-1v-4h1V93.2z M606.6,86.2h-1v-4h1V86.2z M606.6,79.2h-1v-4h1V79.2z M606.6,72.2h-1v-4h1V72.2z M606.6,65.2
			h-1v-4h1V65.2z M606.6,58.3h-1v-4h1V58.3z M606.6,51.3h-1v-4h1V51.3z M606.6,44.3h-1v-4h1V44.3z M606.6,37.3h-1v-4h1V37.3z
			 M606.6,30.3h-1v-4h1V30.3z M606.6,23.3h-1v-4h1V23.3z M606.6,16.3h-1v-4h1V16.3z M606.6,9.3h-1v-4h1V9.3z"/>
		<rect x="605.6" y="0.3" class="st1" width="1" height="2"/>
	</g>
	<g>
		<rect x="503.6" y="0.3" class="st1" width="1" height="2"/>
		<path class="st1" d="M504.6,498.7h-1v-4h1V498.7z M504.6,491.7h-1v-4h1V491.7z M504.6,484.7h-1v-4h1V484.7z M504.6,477.7h-1v-4h1
			V477.7z M504.6,470.7h-1v-4h1V470.7z M504.6,463.7h-1v-4h1V463.7z M504.6,456.7h-1v-4h1V456.7z M504.6,449.7h-1v-4h1V449.7z
			 M504.6,442.7h-1v-4h1V442.7z M504.6,435.8h-1v-4h1V435.8z M504.6,428.8h-1v-4h1V428.8z M504.6,421.8h-1v-4h1V421.8z M504.6,414.8
			h-1v-4h1V414.8z M504.6,407.8h-1v-4h1V407.8z M504.6,400.8h-1v-4h1V400.8z M504.6,393.8h-1v-4h1V393.8z M504.6,386.8h-1v-4h1
			V386.8z M504.6,379.8h-1v-4h1V379.8z M504.6,372.8h-1v-4h1V372.8z M504.6,365.8h-1v-4h1V365.8z M504.6,358.9h-1v-4h1V358.9z
			 M504.6,351.9h-1v-4h1V351.9z M504.6,344.9h-1v-4h1V344.9z M504.6,337.9h-1v-4h1V337.9z M504.6,330.9h-1v-4h1V330.9z M504.6,323.9
			h-1v-4h1V323.9z M504.6,316.9h-1v-4h1V316.9z M504.6,309.9h-1v-4h1V309.9z M504.6,302.9h-1v-4h1V302.9z M504.6,295.9h-1v-4h1
			V295.9z M504.6,289h-1v-4h1V289z M504.6,282h-1v-4h1V282z M504.6,275h-1v-4h1V275z M504.6,268h-1v-4h1V268z M504.6,261h-1v-4h1
			V261z M504.6,254h-1v-4h1V254z M504.6,247h-1v-4h1V247z M504.6,240h-1v-4h1V240z M504.6,233h-1v-4h1V233z M504.6,226h-1v-4h1V226z
			 M504.6,219h-1v-4h1V219z M504.6,212.1h-1v-4h1V212.1z M504.6,205.1h-1v-4h1V205.1z M504.6,198.1h-1v-4h1V198.1z M504.6,191.1h-1
			v-4h1V191.1z M504.6,184.1h-1v-4h1V184.1z M504.6,177.1h-1v-4h1V177.1z M504.6,170.1h-1v-4h1V170.1z M504.6,163.1h-1v-4h1V163.1z
			 M504.6,156.1h-1v-4h1V156.1z M504.6,149.1h-1v-4h1V149.1z M504.6,142.1h-1v-4h1V142.1z M504.6,135.2h-1v-4h1V135.2z M504.6,128.2
			h-1v-4h1V128.2z M504.6,121.2h-1v-4h1V121.2z M504.6,114.2h-1v-4h1V114.2z M504.6,107.2h-1v-4h1V107.2z M504.6,100.2h-1v-4h1
			V100.2z M504.6,93.2h-1v-4h1V93.2z M504.6,86.2h-1v-4h1V86.2z M504.6,79.2h-1v-4h1V79.2z M504.6,72.2h-1v-4h1V72.2z M504.6,65.2
			h-1v-4h1V65.2z M504.6,58.3h-1v-4h1V58.3z M504.6,51.3h-1v-4h1V51.3z M504.6,44.3h-1v-4h1V44.3z M504.6,37.3h-1v-4h1V37.3z
			 M504.6,30.3h-1v-4h1V30.3z M504.6,23.3h-1v-4h1V23.3z M504.6,16.3h-1v-4h1V16.3z M504.6,9.3h-1v-4h1V9.3z"/>
		<rect x="503.6" y="501.7" class="st1" width="1" height="2"/>
	</g>
	<g>
		<rect x="467.6" y="0.3" class="st1" width="1" height="2"/>
		<path class="st1" d="M468.6,498.7h-1v-4h1V498.7z M468.6,491.7h-1v-4h1V491.7z M468.6,484.7h-1v-4h1V484.7z M468.6,477.7h-1v-4h1
			V477.7z M468.6,470.7h-1v-4h1V470.7z M468.6,463.7h-1v-4h1V463.7z M468.6,456.7h-1v-4h1V456.7z M468.6,449.7h-1v-4h1V449.7z
			 M468.6,442.7h-1v-4h1V442.7z M468.6,435.8h-1v-4h1V435.8z M468.6,428.8h-1v-4h1V428.8z M468.6,421.8h-1v-4h1V421.8z M468.6,414.8
			h-1v-4h1V414.8z M468.6,407.8h-1v-4h1V407.8z M468.6,400.8h-1v-4h1V400.8z M468.6,393.8h-1v-4h1V393.8z M468.6,386.8h-1v-4h1
			V386.8z M468.6,379.8h-1v-4h1V379.8z M468.6,372.8h-1v-4h1V372.8z M468.6,365.8h-1v-4h1V365.8z M468.6,358.9h-1v-4h1V358.9z
			 M468.6,351.9h-1v-4h1V351.9z M468.6,344.9h-1v-4h1V344.9z M468.6,337.9h-1v-4h1V337.9z M468.6,330.9h-1v-4h1V330.9z M468.6,323.9
			h-1v-4h1V323.9z M468.6,316.9h-1v-4h1V316.9z M468.6,309.9h-1v-4h1V309.9z M468.6,302.9h-1v-4h1V302.9z M468.6,295.9h-1v-4h1
			V295.9z M468.6,289h-1v-4h1V289z M468.6,282h-1v-4h1V282z M468.6,275h-1v-4h1V275z M468.6,268h-1v-4h1V268z M468.6,261h-1v-4h1
			V261z M468.6,254h-1v-4h1V254z M468.6,247h-1v-4h1V247z M468.6,240h-1v-4h1V240z M468.6,233h-1v-4h1V233z M468.6,226h-1v-4h1V226z
			 M468.6,219h-1v-4h1V219z M468.6,212.1h-1v-4h1V212.1z M468.6,205.1h-1v-4h1V205.1z M468.6,198.1h-1v-4h1V198.1z M468.6,191.1h-1
			v-4h1V191.1z M468.6,184.1h-1v-4h1V184.1z M468.6,177.1h-1v-4h1V177.1z M468.6,170.1h-1v-4h1V170.1z M468.6,163.1h-1v-4h1V163.1z
			 M468.6,156.1h-1v-4h1V156.1z M468.6,149.1h-1v-4h1V149.1z M468.6,142.1h-1v-4h1V142.1z M468.6,135.2h-1v-4h1V135.2z M468.6,128.2
			h-1v-4h1V128.2z M468.6,121.2h-1v-4h1V121.2z M468.6,114.2h-1v-4h1V114.2z M468.6,107.2h-1v-4h1V107.2z M468.6,100.2h-1v-4h1
			V100.2z M468.6,93.2h-1v-4h1V93.2z M468.6,86.2h-1v-4h1V86.2z M468.6,79.2h-1v-4h1V79.2z M468.6,72.2h-1v-4h1V72.2z M468.6,65.2
			h-1v-4h1V65.2z M468.6,58.3h-1v-4h1V58.3z M468.6,51.3h-1v-4h1V51.3z M468.6,44.3h-1v-4h1V44.3z M468.6,37.3h-1v-4h1V37.3z
			 M468.6,30.3h-1v-4h1V30.3z M468.6,23.3h-1v-4h1V23.3z M468.6,16.3h-1v-4h1V16.3z M468.6,9.3h-1v-4h1V9.3z"/>
		<rect x="467.6" y="501.7" class="st1" width="1" height="2"/>
	</g>
	<g>
		<rect x="215.6" y="-0.3" class="st1" width="1" height="2"/>
		<path class="st1" d="M216.6,499.3h-1v-4h1V499.3z M216.6,492.3h-1v-4h1V492.3z M216.6,485.3h-1v-4h1V485.3z M216.6,478.3h-1v-4h1
			V478.3z M216.6,471.3h-1v-4h1V471.3z M216.6,464.3h-1v-4h1V464.3z M216.6,457.3h-1v-4h1V457.3z M216.6,450.3h-1v-4h1V450.3z
			 M216.6,443.3h-1v-4h1V443.3z M216.6,436.2h-1v-4h1V436.2z M216.6,429.2h-1v-4h1V429.2z M216.6,422.2h-1v-4h1V422.2z M216.6,415.2
			h-1v-4h1V415.2z M216.6,408.2h-1v-4h1V408.2z M216.6,401.2h-1v-4h1V401.2z M216.6,394.2h-1v-4h1V394.2z M216.6,387.2h-1v-4h1
			V387.2z M216.6,380.2h-1v-4h1V380.2z M216.6,373.2h-1v-4h1V373.2z M216.6,366.2h-1v-4h1V366.2z M216.6,359.1h-1v-4h1V359.1z
			 M216.6,352.1h-1v-4h1V352.1z M216.6,345.1h-1v-4h1V345.1z M216.6,338.1h-1v-4h1V338.1z M216.6,331.1h-1v-4h1V331.1z M216.6,324.1
			h-1v-4h1V324.1z M216.6,317.1h-1v-4h1V317.1z M216.6,310.1h-1v-4h1V310.1z M216.6,303.1h-1v-4h1V303.1z M216.6,296.1h-1v-4h1
			V296.1z M216.6,289h-1v-4h1V289z M216.6,282h-1v-4h1V282z M216.6,275h-1v-4h1V275z M216.6,268h-1v-4h1V268z M216.6,261h-1v-4h1
			V261z M216.6,254h-1v-4h1V254z M216.6,247h-1v-4h1V247z M216.6,240h-1v-4h1V240z M216.6,233h-1v-4h1V233z M216.6,226h-1v-4h1V226z
			 M216.6,219h-1v-4h1V219z M216.6,211.9h-1v-4h1V211.9z M216.6,204.9h-1v-4h1V204.9z M216.6,197.9h-1v-4h1V197.9z M216.6,190.9h-1
			v-4h1V190.9z M216.6,183.9h-1v-4h1V183.9z M216.6,176.9h-1v-4h1V176.9z M216.6,169.9h-1v-4h1V169.9z M216.6,162.9h-1v-4h1V162.9z
			 M216.6,155.9h-1v-4h1V155.9z M216.6,148.9h-1v-4h1V148.9z M216.6,141.9h-1v-4h1V141.9z M216.6,134.8h-1v-4h1V134.8z M216.6,127.8
			h-1v-4h1V127.8z M216.6,120.8h-1v-4h1V120.8z M216.6,113.8h-1v-4h1V113.8z M216.6,106.8h-1v-4h1V106.8z M216.6,99.8h-1v-4h1V99.8z
			 M216.6,92.8h-1v-4h1V92.8z M216.6,85.8h-1v-4h1V85.8z M216.6,78.8h-1v-4h1V78.8z M216.6,71.8h-1v-4h1V71.8z M216.6,64.8h-1v-4h1
			V64.8z M216.6,57.7h-1v-4h1V57.7z M216.6,50.7h-1v-4h1V50.7z M216.6,43.7h-1v-4h1V43.7z M216.6,36.7h-1v-4h1V36.7z M216.6,29.7h-1
			v-4h1V29.7z M216.6,22.7h-1v-4h1V22.7z M216.6,15.7h-1v-4h1V15.7z M216.6,8.7h-1v-4h1V8.7z"/>
		<rect x="215.6" y="502.3" class="st1" width="1" height="2"/>
	</g>
	<g>
		<rect x="575.6" y="0.3" class="st1" width="1" height="2"/>
		<path class="st1" d="M576.6,498.7h-1v-4h1V498.7z M576.6,491.7h-1v-4h1V491.7z M576.6,484.7h-1v-4h1V484.7z M576.6,477.7h-1v-4h1
			V477.7z M576.6,470.7h-1v-4h1V470.7z M576.6,463.7h-1v-4h1V463.7z M576.6,456.7h-1v-4h1V456.7z M576.6,449.7h-1v-4h1V449.7z
			 M576.6,442.7h-1v-4h1V442.7z M576.6,435.8h-1v-4h1V435.8z M576.6,428.8h-1v-4h1V428.8z M576.6,421.8h-1v-4h1V421.8z M576.6,414.8
			h-1v-4h1V414.8z M576.6,407.8h-1v-4h1V407.8z M576.6,400.8h-1v-4h1V400.8z M576.6,393.8h-1v-4h1V393.8z M576.6,386.8h-1v-4h1
			V386.8z M576.6,379.8h-1v-4h1V379.8z M576.6,372.8h-1v-4h1V372.8z M576.6,365.8h-1v-4h1V365.8z M576.6,358.9h-1v-4h1V358.9z
			 M576.6,351.9h-1v-4h1V351.9z M576.6,344.9h-1v-4h1V344.9z M576.6,337.9h-1v-4h1V337.9z M576.6,330.9h-1v-4h1V330.9z M576.6,323.9
			h-1v-4h1V323.9z M576.6,316.9h-1v-4h1V316.9z M576.6,309.9h-1v-4h1V309.9z M576.6,302.9h-1v-4h1V302.9z M576.6,295.9h-1v-4h1
			V295.9z M576.6,289h-1v-4h1V289z M576.6,282h-1v-4h1V282z M576.6,275h-1v-4h1V275z M576.6,268h-1v-4h1V268z M576.6,261h-1v-4h1
			V261z M576.6,254h-1v-4h1V254z M576.6,247h-1v-4h1V247z M576.6,240h-1v-4h1V240z M576.6,233h-1v-4h1V233z M576.6,226h-1v-4h1V226z
			 M576.6,219h-1v-4h1V219z M576.6,212.1h-1v-4h1V212.1z M576.6,205.1h-1v-4h1V205.1z M576.6,198.1h-1v-4h1V198.1z M576.6,191.1h-1
			v-4h1V191.1z M576.6,184.1h-1v-4h1V184.1z M576.6,177.1h-1v-4h1V177.1z M576.6,170.1h-1v-4h1V170.1z M576.6,163.1h-1v-4h1V163.1z
			 M576.6,156.1h-1v-4h1V156.1z M576.6,149.1h-1v-4h1V149.1z M576.6,142.1h-1v-4h1V142.1z M576.6,135.2h-1v-4h1V135.2z M576.6,128.2
			h-1v-4h1V128.2z M576.6,121.2h-1v-4h1V121.2z M576.6,114.2h-1v-4h1V114.2z M576.6,107.2h-1v-4h1V107.2z M576.6,100.2h-1v-4h1
			V100.2z M576.6,93.2h-1v-4h1V93.2z M576.6,86.2h-1v-4h1V86.2z M576.6,79.2h-1v-4h1V79.2z M576.6,72.2h-1v-4h1V72.2z M576.6,65.2
			h-1v-4h1V65.2z M576.6,58.3h-1v-4h1V58.3z M576.6,51.3h-1v-4h1V51.3z M576.6,44.3h-1v-4h1V44.3z M576.6,37.3h-1v-4h1V37.3z
			 M576.6,30.3h-1v-4h1V30.3z M576.6,23.3h-1v-4h1V23.3z M576.6,16.3h-1v-4h1V16.3z M576.6,9.3h-1v-4h1V9.3z"/>
		<rect x="575.6" y="501.7" class="st1" width="1" height="2"/>
	</g>
	<g>
		<polyline class="st0" points="324.1,0 324.1,252 306.1,252 306.1,0 		"/>
		<g>
			<rect x="323.6" y="0" class="st1" width="1" height="2"/>
			<path class="st1" d="M324.6,247h-1v-4h1V247z M324.6,240h-1v-4h1V240z M324.6,233h-1v-4h1V233z M324.6,226h-1v-4h1V226z
				 M324.6,219h-1v-4h1V219z M324.6,212h-1v-4h1V212z M324.6,205h-1v-4h1V205z M324.6,198h-1v-4h1V198z M324.6,191h-1v-4h1V191z
				 M324.6,184h-1v-4h1V184z M324.6,177h-1v-4h1V177z M324.6,170h-1v-4h1V170z M324.6,163h-1v-4h1V163z M324.6,156h-1v-4h1V156z
				 M324.6,149h-1v-4h1V149z M324.6,142h-1v-4h1V142z M324.6,135h-1v-4h1V135z M324.6,128h-1v-4h1V128z M324.6,121h-1v-4h1V121z
				 M324.6,114h-1v-4h1V114z M324.6,107h-1v-4h1V107z M324.6,100h-1v-4h1V100z M324.6,93h-1v-4h1V93z M324.6,86h-1v-4h1V86z
				 M324.6,79h-1v-4h1V79z M324.6,72h-1v-4h1V72z M324.6,65h-1v-4h1V65z M324.6,58h-1v-4h1V58z M324.6,51h-1v-4h1V51z M324.6,44h-1
				v-4h1V44z M324.6,37h-1v-4h1V37z M324.6,30h-1v-4h1V30z M324.6,23h-1v-4h1V23z M324.6,16h-1v-4h1V16z M324.6,9h-1V5h1V9z"/>
			<polygon class="st1" points="324.6,252.5 322.1,252.5 322.1,251.5 323.6,251.5 323.6,250 324.6,250 			"/>
			<path class="st1" d="M319.6,252.5h-3.3v-1h3.3V252.5z M313.8,252.5h-3.3v-1h3.3V252.5z"/>
			<polygon class="st1" points="308.1,252.5 305.6,252.5 305.6,250 306.6,250 306.6,251.5 308.1,251.5 			"/>
			<path class="st1" d="M306.6,247h-1v-4h1V247z M306.6,240h-1v-4h1V240z M306.6,233h-1v-4h1V233z M306.6,226h-1v-4h1V226z
				 M306.6,219h-1v-4h1V219z M306.6,212h-1v-4h1V212z M306.6,205h-1v-4h1V205z M306.6,198h-1v-4h1V198z M306.6,191h-1v-4h1V191z
				 M306.6,184h-1v-4h1V184z M306.6,177h-1v-4h1V177z M306.6,170h-1v-4h1V170z M306.6,163h-1v-4h1V163z M306.6,156h-1v-4h1V156z
				 M306.6,149h-1v-4h1V149z M306.6,142h-1v-4h1V142z M306.6,135h-1v-4h1V135z M306.6,128h-1v-4h1V128z M306.6,121h-1v-4h1V121z
				 M306.6,114h-1v-4h1V114z M306.6,107h-1v-4h1V107z M306.6,100h-1v-4h1V100z M306.6,93h-1v-4h1V93z M306.6,86h-1v-4h1V86z
				 M306.6,79h-1v-4h1V79z M306.6,72h-1v-4h1V72z M306.6,65h-1v-4h1V65z M306.6,58h-1v-4h1V58z M306.6,51h-1v-4h1V51z M306.6,44h-1
				v-4h1V44z M306.6,37h-1v-4h1V37z M306.6,30h-1v-4h1V30z M306.6,23h-1v-4h1V23z M306.6,16h-1v-4h1V16z M306.6,9h-1V5h1V9z"/>
			<rect x="305.6" y="0" class="st1" width="1" height="2"/>
		</g>
	</g>
	<g>
		<polyline class="st0" points="270.1,0 270.1,252 252.1,252 252.1,0 		"/>
		<g>
			<rect x="269.6" y="0" class="st1" width="1" height="2"/>
			<path class="st1" d="M270.6,247h-1v-4h1V247z M270.6,240h-1v-4h1V240z M270.6,233h-1v-4h1V233z M270.6,226h-1v-4h1V226z
				 M270.6,219h-1v-4h1V219z M270.6,212h-1v-4h1V212z M270.6,205h-1v-4h1V205z M270.6,198h-1v-4h1V198z M270.6,191h-1v-4h1V191z
				 M270.6,184h-1v-4h1V184z M270.6,177h-1v-4h1V177z M270.6,170h-1v-4h1V170z M270.6,163h-1v-4h1V163z M270.6,156h-1v-4h1V156z
				 M270.6,149h-1v-4h1V149z M270.6,142h-1v-4h1V142z M270.6,135h-1v-4h1V135z M270.6,128h-1v-4h1V128z M270.6,121h-1v-4h1V121z
				 M270.6,114h-1v-4h1V114z M270.6,107h-1v-4h1V107z M270.6,100h-1v-4h1V100z M270.6,93h-1v-4h1V93z M270.6,86h-1v-4h1V86z
				 M270.6,79h-1v-4h1V79z M270.6,72h-1v-4h1V72z M270.6,65h-1v-4h1V65z M270.6,58h-1v-4h1V58z M270.6,51h-1v-4h1V51z M270.6,44h-1
				v-4h1V44z M270.6,37h-1v-4h1V37z M270.6,30h-1v-4h1V30z M270.6,23h-1v-4h1V23z M270.6,16h-1v-4h1V16z M270.6,9h-1V5h1V9z"/>
			<polygon class="st1" points="270.6,252.5 268.1,252.5 268.1,251.5 269.6,251.5 269.6,250 270.6,250 			"/>
			<path class="st1" d="M265.6,252.5h-3.3v-1h3.3V252.5z M259.8,252.5h-3.3v-1h3.3V252.5z"/>
			<polygon class="st1" points="254.1,252.5 251.6,252.5 251.6,250 252.6,250 252.6,251.5 254.1,251.5 			"/>
			<path class="st1" d="M252.6,247h-1v-4h1V247z M252.6,240h-1v-4h1V240z M252.6,233h-1v-4h1V233z M252.6,226h-1v-4h1V226z
				 M252.6,219h-1v-4h1V219z M252.6,212h-1v-4h1V212z M252.6,205h-1v-4h1V205z M252.6,198h-1v-4h1V198z M252.6,191h-1v-4h1V191z
				 M252.6,184h-1v-4h1V184z M252.6,177h-1v-4h1V177z M252.6,170h-1v-4h1V170z M252.6,163h-1v-4h1V163z M252.6,156h-1v-4h1V156z
				 M252.6,149h-1v-4h1V149z M252.6,142h-1v-4h1V142z M252.6,135h-1v-4h1V135z M252.6,128h-1v-4h1V128z M252.6,121h-1v-4h1V121z
				 M252.6,114h-1v-4h1V114z M252.6,107h-1v-4h1V107z M252.6,100h-1v-4h1V100z M252.6,93h-1v-4h1V93z M252.6,86h-1v-4h1V86z
				 M252.6,79h-1v-4h1V79z M252.6,72h-1v-4h1V72z M252.6,65h-1v-4h1V65z M252.6,58h-1v-4h1V58z M252.6,51h-1v-4h1V51z M252.6,44h-1
				v-4h1V44z M252.6,37h-1v-4h1V37z M252.6,30h-1v-4h1V30z M252.6,23h-1v-4h1V23z M252.6,16h-1v-4h1V16z M252.6,9h-1V5h1V9z"/>
			<rect x="251.6" y="0" class="st1" width="1" height="2"/>
		</g>
	</g>
	<polygon class="st1" points="576.1,192 624.1,144 672.1,192 	"/>
	<g>
		<rect x="856.8" y="376" transform="matrix(0.707 -0.7072 0.7072 0.707 -15.4697 716.6779)" class="st1" width="1" height="2"/>
		<path class="st1" d="M854.1,374.5l-2.8-2.8l0.7-0.7l2.8,2.8L854.1,374.5z M849.1,369.6l-2.8-2.8l0.7-0.7l2.8,2.8L849.1,369.6z
			 M844.2,364.6l-2.8-2.8l0.7-0.7l2.8,2.8L844.2,364.6z M839.2,359.7l-2.8-2.8l0.7-0.7l2.8,2.8L839.2,359.7z M834.3,354.7l-2.8-2.8
			l0.7-0.7l2.8,2.8L834.3,354.7z M829.3,349.8l-2.8-2.8l0.7-0.7l2.8,2.8L829.3,349.8z M824.3,344.8l-2.8-2.8l0.7-0.7l2.8,2.8
			L824.3,344.8z M819.4,339.8l-2.8-2.8l0.7-0.7l2.8,2.8L819.4,339.8z M814.4,334.9l-2.8-2.8l0.7-0.7l2.8,2.8L814.4,334.9z
			 M809.5,329.9l-2.8-2.8l0.7-0.7l2.8,2.8L809.5,329.9z M804.5,325l-2.8-2.8l0.7-0.7l2.8,2.8L804.5,325z M799.6,320l-2.8-2.8
			l0.7-0.7l2.8,2.8L799.6,320z M794.6,315.1l-2.8-2.8l0.7-0.7l2.8,2.8L794.6,315.1z M789.7,310.1l-2.8-2.8l0.7-0.7l2.8,2.8
			L789.7,310.1z M784.7,305.2l-2.8-2.8l0.7-0.7l2.8,2.8L784.7,305.2z M779.7,300.2l-2.8-2.8l0.7-0.7l2.8,2.8L779.7,300.2z
			 M774.8,295.2l-2.8-2.8l0.7-0.7l2.8,2.8L774.8,295.2z M769.8,290.3l-2.8-2.8l0.7-0.7l2.8,2.8L769.8,290.3z M764.9,285.3l-2.8-2.8
			l0.7-0.7l2.8,2.8L764.9,285.3z M759.9,280.4l-2.8-2.8l0.7-0.7l2.8,2.8L759.9,280.4z M755,275.4l-2.8-2.8l0.7-0.7l2.8,2.8
			L755,275.4z M750,270.5l-2.8-2.8l0.7-0.7l2.8,2.8L750,270.5z M745.1,265.5l-2.8-2.8l0.7-0.7l2.8,2.8L745.1,265.5z M740.1,260.6
			l-2.8-2.8l0.7-0.7l2.8,2.8L740.1,260.6z M735.1,255.6l-2.8-2.8l0.7-0.7l2.8,2.8L735.1,255.6z M730.2,250.6l-2.8-2.8l0.7-0.7
			l2.8,2.8L730.2,250.6z M725.2,245.7l-2.8-2.8l0.7-0.7l2.8,2.8L725.2,245.7z M720.3,240.7l-2.8-2.8l0.7-0.7l2.8,2.8L720.3,240.7z
			 M715.3,235.8l-2.8-2.8l0.7-0.7l2.8,2.8L715.3,235.8z M710.4,230.8l-2.8-2.8l0.7-0.7l2.8,2.8L710.4,230.8z M705.4,225.9l-2.8-2.8
			l0.7-0.7l2.8,2.8L705.4,225.9z M700.5,220.9l-2.8-2.8l0.7-0.7l2.8,2.8L700.5,220.9z M695.5,216l-2.8-2.8l0.7-0.7l2.8,2.8
			L695.5,216z M690.5,211l-2.8-2.8l0.7-0.7l2.8,2.8L690.5,211z M685.6,206l-2.8-2.8l0.7-0.7l2.8,2.8L685.6,206z M680.6,201.1
			l-2.8-2.8l0.7-0.7l2.8,2.8L680.6,201.1z M675.7,196.1l-2.8-2.8l0.7-0.7l2.8,2.8L675.7,196.1z M670.7,191.2l-2.8-2.8l0.7-0.7
			l2.8,2.8L670.7,191.2z M665.8,186.2l-2.8-2.8l0.7-0.7l2.8,2.8L665.8,186.2z M660.8,181.3l-2.8-2.8l0.7-0.7l2.8,2.8L660.8,181.3z
			 M655.9,176.3l-2.8-2.8l0.7-0.7l2.8,2.8L655.9,176.3z M650.9,171.4l-2.8-2.8l0.7-0.7l2.8,2.8L650.9,171.4z M645.9,166.4l-2.8-2.8
			l0.7-0.7l2.8,2.8L645.9,166.4z M641,161.4l-2.8-2.8l0.7-0.7l2.8,2.8L641,161.4z M636,156.5l-2.8-2.8l0.7-0.7l2.8,2.8L636,156.5z
			 M631.1,151.5l-2.8-2.8l0.7-0.7l2.8,2.8L631.1,151.5z M626.1,146.6l-2.8-2.8l0.7-0.7l2.8,2.8L626.1,146.6z M621.2,141.6l-2.8-2.8
			l0.7-0.7l2.8,2.8L621.2,141.6z M616.2,136.7l-2.8-2.8l0.7-0.7l2.8,2.8L616.2,136.7z M611.3,131.7l-2.8-2.8l0.7-0.7l2.8,2.8
			L611.3,131.7z M606.3,126.8l-2.8-2.8l0.7-0.7l2.8,2.8L606.3,126.8z M601.3,121.8l-2.8-2.8l0.7-0.7l2.8,2.8L601.3,121.8z
			 M596.4,116.8l-2.8-2.8l0.7-0.7l2.8,2.8L596.4,116.8z M591.4,111.9l-2.8-2.8l0.7-0.7l2.8,2.8L591.4,111.9z M586.5,106.9l-2.8-2.8
			l0.7-0.7l2.8,2.8L586.5,106.9z M581.5,102l-2.8-2.8l0.7-0.7l2.8,2.8L581.5,102z M576.6,97l-2.8-2.8l0.7-0.7l2.8,2.8L576.6,97z
			 M571.6,92.1l-2.8-2.8l0.7-0.7l2.8,2.8L571.6,92.1z M566.7,87.1l-2.8-2.8l0.7-0.7l2.8,2.8L566.7,87.1z M561.7,82.2l-2.8-2.8
			l0.7-0.7l2.8,2.8L561.7,82.2z M556.7,77.2l-2.8-2.8l0.7-0.7l2.8,2.8L556.7,77.2z M551.8,72.2l-2.8-2.8l0.7-0.7l2.8,2.8L551.8,72.2
			z M546.8,67.3l-2.8-2.8l0.7-0.7l2.8,2.8L546.8,67.3z M541.9,62.3l-2.8-2.8l0.7-0.7l2.8,2.8L541.9,62.3z M536.9,57.4l-2.8-2.8
			l0.7-0.7l2.8,2.8L536.9,57.4z M532,52.4l-2.8-2.8l0.7-0.7l2.8,2.8L532,52.4z M527,47.5l-2.8-2.8l0.7-0.7l2.8,2.8L527,47.5z
			 M522.1,42.5l-2.8-2.8l0.7-0.7l2.8,2.8L522.1,42.5z M517.1,37.6l-2.8-2.8L515,34l2.8,2.8L517.1,37.6z M512.1,32.6l-2.8-2.8
			l0.7-0.7l2.8,2.8L512.1,32.6z M507.2,27.6l-2.8-2.8l0.7-0.7l2.8,2.8L507.2,27.6z M502.2,22.7l-2.8-2.8l0.7-0.7l2.8,2.8L502.2,22.7
			z M497.3,17.7l-2.8-2.8l0.7-0.7L498,17L497.3,17.7z M492.3,12.8l-2.8-2.8l0.7-0.7l2.8,2.8L492.3,12.8z M487.4,7.8L484.5,5l0.7-0.7
			l2.8,2.8L487.4,7.8z"/>
		<rect x="481.6" y="0.8" transform="matrix(0.707 -0.7072 0.7072 0.707 139.9458 341.4226)" class="st1" width="1" height="2"/>
	</g>
	<g>
		<rect x="575.8" y="190.8" transform="matrix(0.7072 -0.707 0.707 0.7072 33.6437 463.8201)" class="st1" width="2" height="1"/>
		<path class="st1" d="M579.9,188.8l-0.7-0.7l2.8-2.8l0.7,0.7L579.9,188.8z M584.9,183.9l-0.7-0.7l2.8-2.8l0.7,0.7L584.9,183.9z
			 M589.8,179l-0.7-0.7l2.8-2.8l0.7,0.7L589.8,179z M594.7,174.1l-0.7-0.7l2.8-2.8l0.7,0.7L594.7,174.1z M599.6,169.1l-0.7-0.7
			l2.8-2.8l0.7,0.7L599.6,169.1z M604.6,164.2l-0.7-0.7l2.8-2.8l0.7,0.7L604.6,164.2z M609.5,159.3l-0.7-0.7l2.8-2.8l0.7,0.7
			L609.5,159.3z M614.4,154.4l-0.7-0.7l2.8-2.8l0.7,0.7L614.4,154.4z M619.3,149.4l-0.7-0.7l2.8-2.8l0.7,0.7L619.3,149.4z
			 M624.3,144.5l-0.7-0.7l2.8-2.8l0.7,0.7L624.3,144.5z M629.2,139.6l-0.7-0.7l2.8-2.8l0.7,0.7L629.2,139.6z M634.1,134.7l-0.7-0.7
			l2.8-2.8l0.7,0.7L634.1,134.7z M639,129.8l-0.7-0.7l2.8-2.8l0.7,0.7L639,129.8z M643.9,124.8l-0.7-0.7l2.8-2.8l0.7,0.7
			L643.9,124.8z M648.9,119.9l-0.7-0.7l2.8-2.8l0.7,0.7L648.9,119.9z M653.8,115l-0.7-0.7l2.8-2.8l0.7,0.7L653.8,115z M658.7,110.1
			l-0.7-0.7l2.8-2.8l0.7,0.7L658.7,110.1z M663.6,105.1l-0.7-0.7l2.8-2.8l0.7,0.7L663.6,105.1z M668.6,100.2l-0.7-0.7l2.8-2.8
			l0.7,0.7L668.6,100.2z M673.5,95.3l-0.7-0.7l2.8-2.8l0.7,0.7L673.5,95.3z M678.4,90.4l-0.7-0.7l2.8-2.8l0.7,0.7L678.4,90.4z
			 M683.3,85.5l-0.7-0.7l2.8-2.8l0.7,0.7L683.3,85.5z M688.2,80.5l-0.7-0.7l2.8-2.8l0.7,0.7L688.2,80.5z M693.2,75.6l-0.7-0.7
			l2.8-2.8l0.7,0.7L693.2,75.6z M698.1,70.7l-0.7-0.7l2.8-2.8l0.7,0.7L698.1,70.7z M703,65.8l-0.7-0.7l2.8-2.8l0.7,0.7L703,65.8z
			 M707.9,60.8l-0.7-0.7l2.8-2.8l0.7,0.7L707.9,60.8z M712.9,55.9l-0.7-0.7l2.8-2.8l0.7,0.7L712.9,55.9z M717.8,51l-0.7-0.7l2.8-2.8
			l0.7,0.7L717.8,51z M722.7,46.1l-0.7-0.7l2.8-2.8l0.7,0.7L722.7,46.1z M727.6,41.1l-0.7-0.7l2.8-2.8l0.7,0.7L727.6,41.1z
			 M732.6,36.2l-0.7-0.7l2.8-2.8l0.7,0.7L732.6,36.2z M737.5,31.3l-0.7-0.7l2.8-2.8l0.7,0.7L737.5,31.3z M742.4,26.4l-0.7-0.7
			l2.8-2.8l0.7,0.7L742.4,26.4z M747.3,21.5l-0.7-0.7l2.8-2.8l0.7,0.7L747.3,21.5z M752.2,16.5l-0.7-0.7l2.8-2.8l0.7,0.7L752.2,16.5
			z M757.2,11.6l-0.7-0.7l2.8-2.8l0.7,0.7L757.2,11.6z M762.1,6.7L761.4,6l2.8-2.8l0.7,0.7L762.1,6.7z"/>
		<rect x="766.4" y="0.2" transform="matrix(0.7072 -0.707 0.707 0.7072 224.2027 542.7625)" class="st1" width="2" height="1"/>
	</g>
	<g>
		<rect x="856" y="287.5" class="st1" width="2" height="1"/>
		<path class="st1" d="M853,288.5h-4v-1h4V288.5z M846,288.5h-4v-1h4V288.5z M839.1,288.5h-4v-1h4V288.5z M832.1,288.5h-4v-1h4
			V288.5z M825.1,288.5h-4v-1h4V288.5z M818.1,288.5h-4v-1h4V288.5z M811.2,288.5h-4v-1h4V288.5z M804.2,288.5h-4v-1h4V288.5z
			 M797.2,288.5h-4v-1h4V288.5z M790.2,288.5h-4v-1h4V288.5z M783.3,288.5h-4v-1h4V288.5z M776.3,288.5h-4v-1h4V288.5z M769.3,288.5
			h-4v-1h4V288.5z M762.3,288.5h-4v-1h4V288.5z M755.4,288.5h-4v-1h4V288.5z M748.4,288.5h-4v-1h4V288.5z M741.4,288.5h-4v-1h4
			V288.5z M734.4,288.5h-4v-1h4V288.5z M727.5,288.5h-4v-1h4V288.5z M720.5,288.5h-4v-1h4V288.5z M713.5,288.5h-4v-1h4V288.5z
			 M706.5,288.5h-4v-1h4V288.5z M699.5,288.5h-4v-1h4V288.5z M692.6,288.5h-4v-1h4V288.5z M685.6,288.5h-4v-1h4V288.5z M678.6,288.5
			h-4v-1h4V288.5z M671.6,288.5h-4v-1h4V288.5z M664.7,288.5h-4v-1h4V288.5z M657.7,288.5h-4v-1h4V288.5z M650.7,288.5h-4v-1h4
			V288.5z M643.7,288.5h-4v-1h4V288.5z M636.8,288.5h-4v-1h4V288.5z M629.8,288.5h-4v-1h4V288.5z M622.8,288.5h-4v-1h4V288.5z
			 M615.8,288.5h-4v-1h4V288.5z M608.9,288.5h-4v-1h4V288.5z M601.9,288.5h-4v-1h4V288.5z M594.9,288.5h-4v-1h4V288.5z M587.9,288.5
			h-4v-1h4V288.5z M581,288.5h-4v-1h4V288.5z M574,288.5h-4v-1h4V288.5z M567,288.5h-4v-1h4V288.5z M560,288.5h-4v-1h4V288.5z
			 M553.1,288.5h-4v-1h4V288.5z M546.1,288.5h-4v-1h4V288.5z M539.1,288.5h-4v-1h4V288.5z M532.1,288.5h-4v-1h4V288.5z M525.2,288.5
			h-4v-1h4V288.5z M518.2,288.5h-4v-1h4V288.5z M511.2,288.5h-4v-1h4V288.5z M504.2,288.5h-4v-1h4V288.5z M497.3,288.5h-4v-1h4
			V288.5z M490.3,288.5h-4v-1h4V288.5z M483.3,288.5h-4v-1h4V288.5z M476.3,288.5h-4v-1h4V288.5z M469.4,288.5h-4v-1h4V288.5z
			 M462.4,288.5h-4v-1h4V288.5z M455.4,288.5h-4v-1h4V288.5z M448.4,288.5h-4v-1h4V288.5z M441.5,288.5h-4v-1h4V288.5z M434.5,288.5
			h-4v-1h4V288.5z M427.5,288.5h-4v-1h4V288.5z M420.5,288.5h-4v-1h4V288.5z M413.6,288.5h-4v-1h4V288.5z M406.6,288.5h-4v-1h4
			V288.5z M399.6,288.5h-4v-1h4V288.5z M392.6,288.5h-4v-1h4V288.5z M385.7,288.5h-4v-1h4V288.5z M378.7,288.5h-4v-1h4V288.5z
			 M371.7,288.5h-4v-1h4V288.5z M364.7,288.5h-4v-1h4V288.5z M357.8,288.5h-4v-1h4V288.5z M350.8,288.5h-4v-1h4V288.5z M343.8,288.5
			h-4v-1h4V288.5z M336.8,288.5h-4v-1h4V288.5z M329.8,288.5h-4v-1h4V288.5z M322.9,288.5h-4v-1h4V288.5z M315.9,288.5h-4v-1h4
			V288.5z M308.9,288.5h-4v-1h4V288.5z M301.9,288.5h-4v-1h4V288.5z M295,288.5h-4v-1h4V288.5z M288,288.5h-4v-1h4V288.5z
			 M281,288.5h-4v-1h4V288.5z M274,288.5h-4v-1h4V288.5z M267.1,288.5h-4v-1h4V288.5z M260.1,288.5h-4v-1h4V288.5z M253.1,288.5h-4
			v-1h4V288.5z M246.1,288.5h-4v-1h4V288.5z M239.2,288.5h-4v-1h4V288.5z M232.2,288.5h-4v-1h4V288.5z M225.2,288.5h-4v-1h4V288.5z
			 M218.2,288.5h-4v-1h4V288.5z M211.3,288.5h-4v-1h4V288.5z M204.3,288.5h-4v-1h4V288.5z M197.3,288.5h-4v-1h4V288.5z M190.3,288.5
			h-4v-1h4V288.5z M183.4,288.5h-4v-1h4V288.5z M176.4,288.5h-4v-1h4V288.5z M169.4,288.5h-4v-1h4V288.5z M162.4,288.5h-4v-1h4
			V288.5z M155.5,288.5h-4v-1h4V288.5z M148.5,288.5h-4v-1h4V288.5z M141.5,288.5h-4v-1h4V288.5z M134.5,288.5h-4v-1h4V288.5z
			 M127.6,288.5h-4v-1h4V288.5z M120.6,288.5h-4v-1h4V288.5z M113.6,288.5h-4v-1h4V288.5z M106.6,288.5h-4v-1h4V288.5z M99.7,288.5
			h-4v-1h4V288.5z M92.7,288.5h-4v-1h4V288.5z M85.7,288.5h-4v-1h4V288.5z M78.7,288.5h-4v-1h4V288.5z M71.8,288.5h-4v-1h4V288.5z
			 M64.8,288.5h-4v-1h4V288.5z M57.8,288.5h-4v-1h4V288.5z M50.8,288.5h-4v-1h4V288.5z M43.9,288.5h-4v-1h4V288.5z M36.9,288.5h-4
			v-1h4V288.5z M29.9,288.5h-4v-1h4V288.5z M22.9,288.5h-4v-1h4V288.5z M16,288.5h-4v-1h4V288.5z M9,288.5H5v-1h4V288.5z"/>
		<rect x="0" y="287.5" class="st1" width="2" height="1"/>
	</g>
	<polygon class="st1" points="324.1,216 324.1,252 306.1,252 306.1,216 270.1,216 270.1,252 252.1,252 252.1,216 216.1,216 
		216.1,288 360.1,288 360.1,216 	"/>
	<g>
		<circle class="st0" cx="396.1" cy="216" r="36.1"/>
		<path class="st1" d="M396.1,252.6L396.1,252.6c-1.4,0-2.8-0.1-4.1-0.2l0.1-1c1.3,0.1,2.6,0.2,4,0.2L396.1,252.6z M399.2,252.5
			l-0.1-1c1.3-0.1,2.7-0.3,4-0.6l0.2,1C401.9,252.2,400.5,252.4,399.2,252.5z M389,251.9c-1.3-0.3-2.7-0.6-4-1l0.3-1
			c1.3,0.4,2.6,0.7,3.9,1L389,251.9z M406.2,251.2l-0.3-1c1.3-0.4,2.5-0.8,3.8-1.3l0.4,0.9C408.8,250.3,407.5,250.8,406.2,251.2z
			 M382.1,249.8c-1.3-0.5-2.5-1.1-3.7-1.8l0.5-0.9c1.2,0.6,2.4,1.2,3.6,1.7L382.1,249.8z M412.9,248.5l-0.5-0.9
			c1.2-0.6,2.3-1.3,3.4-2l0.6,0.8C415.3,247.2,414.1,247.9,412.9,248.5z M375.8,246.5c-1.1-0.8-2.2-1.6-3.3-2.5l0.6-0.8
			c1,0.9,2.1,1.7,3.2,2.4L375.8,246.5z M418.9,244.6l-0.6-0.8c1-0.8,2-1.7,3-2.7l0.7,0.7C421,242.8,420,243.8,418.9,244.6z
			 M370.2,241.9c-1-1-1.9-2-2.7-3.1l0.8-0.6c0.8,1,1.7,2,2.7,3L370.2,241.9z M424,239.6l-0.8-0.6c0.9-1,1.7-2.1,2.4-3.2l0.8,0.6
			C425.8,237.5,424.9,238.6,424,239.6z M365.7,236.4c-0.8-1.1-1.5-2.3-2.1-3.5l0.9-0.5c0.6,1.2,1.3,2.3,2,3.4L365.7,236.4z
			 M428.1,233.7l-0.9-0.5c0.6-1.2,1.2-2.4,1.7-3.6l0.9,0.4C429.4,231.3,428.8,232.5,428.1,233.7z M362.3,230.1
			c-0.5-1.3-1-2.6-1.4-3.9l1-0.3c0.4,1.3,0.8,2.5,1.3,3.8L362.3,230.1z M431,227.1l-1-0.3c0.4-1.3,0.7-2.6,1-3.9l1,0.2
			C431.7,224.5,431.4,225.8,431,227.1z M360.2,223.2c-0.3-1.3-0.5-2.7-0.6-4.1l1-0.1c0.1,1.3,0.3,2.7,0.6,4L360.2,223.2z
			 M432.4,220.1l-1-0.1c0.1-1.3,0.2-2.7,0.2-4l1-0.1l0,0.1C432.7,217.4,432.6,218.7,432.4,220.1z M359.8,216l-0.3,0
			c0-1.3,0.1-2.7,0.2-4l1,0.1c-0.1,1.3-0.2,2.6-0.2,3.9L359.8,216z M431.5,212.9c-0.1-1.3-0.3-2.7-0.6-3.9l1-0.2
			c0.3,1.3,0.5,2.7,0.6,4.1L431.5,212.9z M361.1,209.1l-1-0.2c0.3-1.3,0.6-2.7,1-4l1,0.3C361.7,206.5,361.4,207.8,361.1,209.1z
			 M430.3,206c-0.4-1.3-0.8-2.5-1.3-3.8l0.9-0.4c0.5,1.3,1,2.6,1.4,3.9L430.3,206z M363.1,202.4l-0.9-0.4c0.5-1.3,1.1-2.5,1.8-3.7
			l0.9,0.5C364.2,200,363.6,201.2,363.1,202.4z M427.7,199.5c-0.6-1.2-1.3-2.3-2-3.4l0.8-0.6c0.8,1.1,1.5,2.3,2.1,3.5L427.7,199.5z
			 M366.4,196.3l-0.8-0.6c0.8-1.1,1.6-2.2,2.5-3.3l0.8,0.6C368,194.1,367.2,195.2,366.4,196.3z M423.8,193.7c-0.8-1-1.7-2-2.7-3
			l0.7-0.7c1,1,1.9,2,2.7,3L423.8,193.7z M370.8,190.9l-0.7-0.7c1-1,2-1.9,3.1-2.7l0.6,0.8C372.8,189,371.8,189.9,370.8,190.9z
			 M419,188.7c-1-0.9-2.1-1.7-3.2-2.4l0.6-0.8c1.1,0.8,2.2,1.6,3.3,2.5L419,188.7z M376.2,186.4l-0.6-0.8c1.1-0.8,2.3-1.5,3.5-2.1
			l0.5,0.9C378.5,185,377.3,185.7,376.2,186.4z M413.2,184.8c-1.2-0.6-2.4-1.2-3.6-1.7l0.4-0.9c1.3,0.5,2.5,1.1,3.7,1.8L413.2,184.8
			z M382.4,183.1l-0.4-0.9c1.3-0.5,2.6-1,3.9-1.4l0.3,1C384.8,182.2,383.6,182.6,382.4,183.1z M406.8,182c-1.3-0.4-2.6-0.7-3.9-1
			l0.2-1c1.3,0.3,2.7,0.6,4,1L406.8,182z M389,181.1l-0.2-1c1.3-0.3,2.7-0.5,4.1-0.6l0.1,1C391.7,180.6,390.3,180.8,389,181.1z
			 M400,180.6c-1.3-0.1-2.6-0.2-3.9-0.2l-0.1,0l0-1l0.1,0c1.3,0,2.7,0.1,4,0.2L400,180.6z"/>
	</g>
	<g>
		
			<rect x="323.7" y="502.9" transform="matrix(0.7071 -0.7071 0.7071 0.7071 -260.8227 377.0094)" class="st1" width="2" height="1"/>
		<path class="st1" d="M327.9,500.9l-0.7-0.7l2.8-2.8l0.7,0.7L327.9,500.9z M332.8,496l-0.7-0.7l2.8-2.8l0.7,0.7L332.8,496z
			 M337.8,491l-0.7-0.7l2.8-2.8l0.7,0.7L337.8,491z M342.7,486.1l-0.7-0.7l2.8-2.8l0.7,0.7L342.7,486.1z M347.7,481.1l-0.7-0.7
			l2.8-2.8l0.7,0.7L347.7,481.1z M352.6,476.2l-0.7-0.7l2.8-2.8l0.7,0.7L352.6,476.2z M357.5,471.2l-0.7-0.7l2.8-2.8l0.7,0.7
			L357.5,471.2z M362.5,466.3l-0.7-0.7l2.8-2.8l0.7,0.7L362.5,466.3z M367.4,461.4l-0.7-0.7l2.8-2.8l0.7,0.7L367.4,461.4z
			 M372.4,456.4l-0.7-0.7l2.8-2.8l0.7,0.7L372.4,456.4z M377.3,451.5l-0.7-0.7l2.8-2.8l0.7,0.7L377.3,451.5z M382.3,446.5l-0.7-0.7
			l2.8-2.8l0.7,0.7L382.3,446.5z M387.2,441.6l-0.7-0.7l2.8-2.8l0.7,0.7L387.2,441.6z M392.1,436.6l-0.7-0.7l2.8-2.8l0.7,0.7
			L392.1,436.6z M397.1,431.7l-0.7-0.7l2.8-2.8l0.7,0.7L397.1,431.7z M402,426.8l-0.7-0.7l2.8-2.8l0.7,0.7L402,426.8z M407,421.8
			l-0.7-0.7l2.8-2.8l0.7,0.7L407,421.8z M411.9,416.9l-0.7-0.7l2.8-2.8l0.7,0.7L411.9,416.9z M416.9,411.9l-0.7-0.7l2.8-2.8l0.7,0.7
			L416.9,411.9z M421.8,407l-0.7-0.7l2.8-2.8l0.7,0.7L421.8,407z M426.7,402l-0.7-0.7l2.8-2.8l0.7,0.7L426.7,402z M431.7,397.1
			l-0.7-0.7l2.8-2.8l0.7,0.7L431.7,397.1z M436.6,392.2l-0.7-0.7l2.8-2.8l0.7,0.7L436.6,392.2z M441.6,387.2l-0.7-0.7l2.8-2.8
			l0.7,0.7L441.6,387.2z M446.5,382.3l-0.7-0.7l2.8-2.8l0.7,0.7L446.5,382.3z M451.4,377.3l-0.7-0.7l2.8-2.8l0.7,0.7L451.4,377.3z
			 M456.4,372.4l-0.7-0.7l2.8-2.8l0.7,0.7L456.4,372.4z M461.3,367.4l-0.7-0.7l2.8-2.8l0.7,0.7L461.3,367.4z M466.3,362.5l-0.7-0.7
			l2.8-2.8l0.7,0.7L466.3,362.5z M471.2,357.6l-0.7-0.7l2.8-2.8l0.7,0.7L471.2,357.6z M476.2,352.6l-0.7-0.7l2.8-2.8l0.7,0.7
			L476.2,352.6z M481.1,347.7l-0.7-0.7l2.8-2.8l0.7,0.7L481.1,347.7z M486,342.7l-0.7-0.7l2.8-2.8l0.7,0.7L486,342.7z M491,337.8
			l-0.7-0.7l2.8-2.8l0.7,0.7L491,337.8z M495.9,332.8l-0.7-0.7l2.8-2.8l0.7,0.7L495.9,332.8z M500.9,327.9l-0.7-0.7l2.8-2.8l0.7,0.7
			L500.9,327.9z M505.8,323l-0.7-0.7l2.8-2.8l0.7,0.7L505.8,323z M510.8,318l-0.7-0.7l2.8-2.8l0.7,0.7L510.8,318z M515.7,313.1
			l-0.7-0.7l2.8-2.8l0.7,0.7L515.7,313.1z M520.6,308.1l-0.7-0.7l2.8-2.8l0.7,0.7L520.6,308.1z M525.6,303.2l-0.7-0.7l2.8-2.8
			l0.7,0.7L525.6,303.2z M530.5,298.3l-0.7-0.7l2.8-2.8l0.7,0.7L530.5,298.3z M535.5,293.3l-0.7-0.7l2.8-2.8l0.7,0.7L535.5,293.3z
			 M540.4,288.4l-0.7-0.7l2.8-2.8l0.7,0.7L540.4,288.4z M545.4,283.4l-0.7-0.7l2.8-2.8l0.7,0.7L545.4,283.4z M550.3,278.5l-0.7-0.7
			l2.8-2.8l0.7,0.7L550.3,278.5z M555.2,273.5l-0.7-0.7l2.8-2.8l0.7,0.7L555.2,273.5z M560.2,268.6l-0.7-0.7l2.8-2.8l0.7,0.7
			L560.2,268.6z M565.1,263.7l-0.7-0.7l2.8-2.8l0.7,0.7L565.1,263.7z M570.1,258.7l-0.7-0.7l2.8-2.8l0.7,0.7L570.1,258.7z"/>
		<polygon class="st1" points="575,253.8 574.3,253.1 575.4,252 574.3,250.9 575,250.2 576.8,252 		"/>
		<path class="st1" d="M572.2,248.8l-2.8-2.8l0.7-0.7l2.8,2.8L572.2,248.8z M567.2,243.9l-2.8-2.8l0.7-0.7l2.8,2.8L567.2,243.9z
			 M562.3,238.9l-2.8-2.8l0.7-0.7l2.8,2.8L562.3,238.9z M557.4,234l-2.8-2.8l0.7-0.7l2.8,2.8L557.4,234z M552.4,229.1l-2.8-2.8
			l0.7-0.7l2.8,2.8L552.4,229.1z M547.5,224.1l-2.8-2.8l0.7-0.7l2.8,2.8L547.5,224.1z M542.5,219.2l-2.8-2.8l0.7-0.7l2.8,2.8
			L542.5,219.2z M537.6,214.2l-2.8-2.8l0.7-0.7l2.8,2.8L537.6,214.2z M532.6,209.3l-2.8-2.8l0.7-0.7l2.8,2.8L532.6,209.3z
			 M527.7,204.3l-2.8-2.8l0.7-0.7l2.8,2.8L527.7,204.3z M522.8,199.4l-2.8-2.8l0.7-0.7l2.8,2.8L522.8,199.4z M517.8,194.5l-2.8-2.8
			l0.7-0.7l2.8,2.8L517.8,194.5z M512.9,189.5l-2.8-2.8l0.7-0.7l2.8,2.8L512.9,189.5z M507.9,184.6l-2.8-2.8l0.7-0.7l2.8,2.8
			L507.9,184.6z M503,179.6l-2.8-2.8l0.7-0.7l2.8,2.8L503,179.6z M498,174.7l-2.8-2.8l0.7-0.7l2.8,2.8L498,174.7z M493.1,169.7
			l-2.8-2.8l0.7-0.7l2.8,2.8L493.1,169.7z M488.2,164.8l-2.8-2.8l0.7-0.7l2.8,2.8L488.2,164.8z M483.2,159.9l-2.8-2.8l0.7-0.7
			l2.8,2.8L483.2,159.9z M478.3,154.9l-2.8-2.8l0.7-0.7l2.8,2.8L478.3,154.9z M473.3,150l-2.8-2.8l0.7-0.7l2.8,2.8L473.3,150z
			 M468.4,145l-2.8-2.8l0.7-0.7l2.8,2.8L468.4,145z M463.5,140.1l-2.8-2.8l0.7-0.7l2.8,2.8L463.5,140.1z M458.5,135.1l-2.8-2.8
			l0.7-0.7l2.8,2.8L458.5,135.1z M453.6,130.2l-2.8-2.8l0.7-0.7l2.8,2.8L453.6,130.2z M448.6,125.3l-2.8-2.8l0.7-0.7l2.8,2.8
			L448.6,125.3z M443.7,120.3l-2.8-2.8l0.7-0.7l2.8,2.8L443.7,120.3z M438.7,115.4l-2.8-2.8l0.7-0.7l2.8,2.8L438.7,115.4z
			 M433.8,110.4l-2.8-2.8l0.7-0.7l2.8,2.8L433.8,110.4z M428.9,105.5l-2.8-2.8l0.7-0.7l2.8,2.8L428.9,105.5z M423.9,100.5l-2.8-2.8
			l0.7-0.7l2.8,2.8L423.9,100.5z M419,95.6l-2.8-2.8l0.7-0.7l2.8,2.8L419,95.6z M414,90.7l-2.8-2.8l0.7-0.7l2.8,2.8L414,90.7z
			 M409.1,85.7l-2.8-2.8l0.7-0.7l2.8,2.8L409.1,85.7z M404.1,80.8l-2.8-2.8l0.7-0.7l2.8,2.8L404.1,80.8z M399.2,75.8l-2.8-2.8
			l0.7-0.7l2.8,2.8L399.2,75.8z M394.3,70.9l-2.8-2.8l0.7-0.7l2.8,2.8L394.3,70.9z M389.3,65.9l-2.8-2.8l0.7-0.7l2.8,2.8L389.3,65.9
			z M384.4,61l-2.8-2.8l0.7-0.7l2.8,2.8L384.4,61z M379.4,56.1l-2.8-2.8l0.7-0.7l2.8,2.8L379.4,56.1z M374.5,51.1l-2.8-2.8l0.7-0.7
			l2.8,2.8L374.5,51.1z M369.5,46.2l-2.8-2.8l0.7-0.7l2.8,2.8L369.5,46.2z M364.6,41.2l-2.8-2.8l0.7-0.7l2.8,2.8L364.6,41.2z
			 M359.7,36.3l-2.8-2.8l0.7-0.7l2.8,2.8L359.7,36.3z M354.7,31.4l-2.8-2.8l0.7-0.7l2.8,2.8L354.7,31.4z M349.8,26.4l-2.8-2.8
			l0.7-0.7l2.8,2.8L349.8,26.4z M344.8,21.5l-2.8-2.8l0.7-0.7l2.8,2.8L344.8,21.5z M339.9,16.5l-2.8-2.8l0.7-0.7l2.8,2.8L339.9,16.5
			z M334.9,11.6l-2.8-2.8l0.7-0.7l2.8,2.8L334.9,11.6z M330,6.6l-2.8-2.8l0.7-0.7l2.8,2.8L330,6.6z"/>
		<rect x="324.2" y="-0.4" transform="matrix(0.7071 -0.7071 0.7071 0.7071 94.6555 229.7888)" class="st1" width="1" height="2"/>
	</g>
</g>
</svg>
