<svg xmlns="http://www.w3.org/2000/svg" viewBox="0 0 858 504">
  <title>material-56</title>
  <g id="Layer_2" data-name="Layer 2">
    <rect width="858" height="504"/>
  </g>
  <g id="Layer_1" data-name="Layer 1">
    <rect x="114" y="258" width="240" height="120" style="fill: #fff"/>
    <rect x="114" y="126" width="90" height="120" style="fill: #fff"/>
    <rect x="204" y="126" width="150" height="120" style="fill: #ff8873"/>
    <rect x="222" y="144" width="114" height="12" style="fill: #fff"/>
    <rect x="288" y="162" width="48" height="6" style="fill: #fff"/>
    <rect x="222" y="222" width="18" height="6" style="fill: #fff"/>
    <rect x="246" y="222" width="18" height="6" style="fill: #fff"/>
    <rect x="222" y="276" width="114" height="12"/>
    <rect x="288" y="294" width="48" height="6"/>
    <rect x="132" y="354" width="18" height="6"/>
    <rect x="156" y="354" width="18" height="6"/>
    <rect x="639" y="111" width="90" height="120" transform="translate(855 -513) rotate(90)" style="fill: #fff"/>
    <rect x="603" y="237" width="162" height="120" transform="translate(981 -387) rotate(90)" style="fill: #ff8873"/>
    <rect x="636" y="228" width="96" height="12" style="fill: #fff"/>
    <rect x="684" y="246" width="48" height="6" style="fill: #fff"/>
    <rect x="636" y="264" width="96" height="6" style="fill: #fff"/>
    <rect x="648" y="276" width="84" height="6" style="fill: #fff"/>
    <rect x="642" y="288" width="90" height="6" style="fill: #fff"/>
    <rect x="654" y="300" width="78" height="6" style="fill: #fff"/>
    <rect x="636" y="312" width="96" height="6" style="fill: #fff"/>
    <rect x="648" y="324" width="84" height="6" style="fill: #fff"/>
    <rect x="636" y="360" width="18" height="6" style="fill: #fff"/>
    <rect x="660" y="360" width="18" height="6" style="fill: #fff"/>
    <rect x="426" y="192" width="252" height="120" transform="translate(804 -300) rotate(90)" style="fill: #fff"/>
    <rect x="504" y="138" width="96" height="12"/>
    <rect x="552" y="156" width="48" height="6"/>
    <rect x="504" y="360" width="18" height="6"/>
    <rect x="528" y="360" width="18" height="6"/>
    <rect x="683.75" y="378" width="0.5" height="42" style="fill: #fff"/>
    <rect x="672" y="414" width="24" height="24" transform="translate(1110 -258) rotate(90)" style="fill: #fff"/>
    <path d="M685.26,430.5h-1.65v-8l-2.44.84v-1.4l3.88-1.43h.21Z"/>
    <rect x="551.75" y="378" width="0.5" height="42" style="fill: #fff"/>
    <rect x="540" y="414" width="24" height="24" transform="translate(978 -126) rotate(90)" style="fill: #fff"/>
    <path d="M555.46,430.5h-6.69v-1.14l3.31-3.62a8.17,8.17,0,0,0,1-1.33,2.12,2.12,0,0,0,.31-1.08,1.67,1.67,0,0,0-.4-1.15,1.41,1.41,0,0,0-1.08-.44,1.6,1.6,0,0,0-1.25.5,1.88,1.88,0,0,0-.44,1.34h-1.66a3.25,3.25,0,0,1,.41-1.64,2.86,2.86,0,0,1,1.18-1.13,3.77,3.77,0,0,1,1.78-.4,3.34,3.34,0,0,1,2.28.73,2.5,2.5,0,0,1,.84,2,3.39,3.39,0,0,1-.42,1.56,8.63,8.63,0,0,1-1.38,1.86l-2.43,2.6h4.62Z"/>
    <rect x="227.75" y="378" width="0.5" height="42" style="fill: #fff"/>
    <rect x="216" y="414" width="24" height="24" transform="translate(654 198) rotate(90)" style="fill: #fff"/>
    <path d="M230.39,427h1.23v1.34h-1.23v2.21h-1.67v-2.21h-4.3l0-1,4.29-6.72h1.72Zm-4.27,0h2.6V422.8l-.12.21Z"/>
    <rect x="354" y="185.75" width="42" height="0.5" style="fill: #fff"/>
    <rect x="390" y="174" width="24" height="24" transform="translate(588 -216) rotate(90)" style="fill: #fff"/>
    <path d="M400.69,184.76h1a1.78,1.78,0,0,0,1.21-.39,1.42,1.42,0,0,0,.45-1.13,1.53,1.53,0,0,0-.37-1.1,1.48,1.48,0,0,0-1.14-.4,1.57,1.57,0,0,0-1.1.39,1.28,1.28,0,0,0-.43,1h-1.66a2.54,2.54,0,0,1,.4-1.4,2.81,2.81,0,0,1,1.14-1,3.75,3.75,0,0,1,1.63-.35,3.43,3.43,0,0,1,2.34.75,2.61,2.61,0,0,1,.85,2.08,2.07,2.07,0,0,1-.43,1.26,2.59,2.59,0,0,1-1.1.89,2.34,2.34,0,0,1,1.68,2.32,2.67,2.67,0,0,1-.92,2.13,3.58,3.58,0,0,1-2.42.8,3.54,3.54,0,0,1-2.35-.77,2.53,2.53,0,0,1-.92-2h1.66a1.4,1.4,0,0,0,.44,1.07,1.7,1.7,0,0,0,1.19.41,1.76,1.76,0,0,0,1.22-.41,1.83,1.83,0,0,0,0-2.4,2,2,0,0,0-1.38-.42h-1Z"/>
    <path d="M660.7,192H643l33.75-32.14L696.86,180l8-8L725,192Zm44-35.56A6.44,6.44,0,1,0,711.1,150,6.43,6.43,0,0,0,704.66,156.44Z" style="fill: #dbd4d3"/>
    <path d="M528.7,273H511l33.75-32.14L564.86,261l8-8L593,273Zm44-35.56A6.44,6.44,0,1,0,579.1,231,6.43,6.43,0,0,0,572.66,237.44Z" style="fill: #dbd4d3"/>
    <path d="M210.7,339H193l33.75-32.14L246.86,327l8-8L275,339Zm44-35.56A6.44,6.44,0,1,0,261.1,297,6.43,6.43,0,0,0,254.66,303.44Z" style="fill: #dbd4d3"/>
    <path d="M141.36,201.89H128l25.55-24.32,15.2,15.2,6.08-6.08L190,201.89ZM174.64,175a4.87,4.87,0,1,0,4.87-4.87A4.87,4.87,0,0,0,174.64,175Z" style="fill: #dbd4d3"/>
  </g>
</svg>
