<svg xmlns="http://www.w3.org/2000/svg" viewBox="0 0 258 504">
  <title>material-65</title>
  <g id="Layer_1" data-name="Layer 1">
    <rect width="258" height="504" style="fill: #c7c0bf"/>
    <path d="M69.29,305.8H24l86.47-82.35,51.47,51.47,20.59-20.59L234,305.8Zm112.64-91.11a16.49,16.49,0,1,0,16.49-16.49A16.49,16.49,0,0,0,181.93,214.69Z" style="fill: #f5eceb"/>
    <g>
      <rect x="139" y="444" width="119" height="60" style="fill: none"/>
      <g>
        <polygon points="223 464 231 456 239 464 223 464"/>
        <polygon points="217 468 211 468 211 480 217 480 223 474 217 468"/>
        <rect x="228" y="468" width="6" height="12"/>
        <polygon points="181 468 181 474 178 474 178 468 172 468 172 474 169 474 169 468 163 468 163 480 187 480 187 468 181 468"/>
        <path d="M193,480v-6a6,6,0,0,0,6-6h6A12,12,0,0,1,193,480Z"/>
      </g>
    </g>
    <g>
      <path d="M89.31,44.46a7.42,7.42,0,0,1-1.48,2.38,6.75,6.75,0,0,1-5,2.18H81l-.14-3.16h1.21a5.86,5.86,0,0,0,2.22-.37,4.1,4.1,0,0,0,1.5-1,3.81,3.81,0,0,0,.84-1.39,5.09,5.09,0,0,0,.26-1.59v-8h3v8A7.81,7.81,0,0,1,89.31,44.46Z"/>
      <path d="M92.63,24h3V42h-3Z"/>
      <path d="M102.23,41.54a8.23,8.23,0,0,1-.52,2.92,7.5,7.5,0,0,1-1.44,2.38A6.49,6.49,0,0,1,95.36,49H93.53l-.15-3.16H94.6a5.86,5.86,0,0,0,2.22-.37,4,4,0,0,0,1.49-1,3.56,3.56,0,0,0,.84-1.39,4.83,4.83,0,0,0,.27-1.59v-8h3V37a1.7,1.7,0,0,0,.57,1.4,2.18,2.18,0,0,0,1.44.46h.31c.43,0,.64.51.64,1.54s-.21,1.65-.64,1.65h-.31a3.67,3.67,0,0,1-1.17-.19,1.9,1.9,0,0,1-1-.77Z"/>
      <path d="M107.3,38.81h.82l.65,0,.59.08.64.15a6.93,6.93,0,0,1-1.61-.91,3.75,3.75,0,0,1-.91-1,3.17,3.17,0,0,1-.42-1.21,9,9,0,0,1-.1-1.43,4.86,4.86,0,0,1,.3-1.63,4.44,4.44,0,0,1,.91-1.5,4.87,4.87,0,0,1,1.53-1.11,4.77,4.77,0,0,1,2.1-.43,6.84,6.84,0,0,1,2,.29,3.73,3.73,0,0,1,1.58,1,4.31,4.31,0,0,1,1,1.75,8.64,8.64,0,0,1,.36,2.68V37a4.89,4.89,0,0,1-1.34,3.67A5.9,5.9,0,0,1,111.22,42h-6.53a.49.49,0,0,1-.5-.39,3.68,3.68,0,0,1-.14-1.15,4.16,4.16,0,0,1,.14-1.24.5.5,0,0,1,.5-.41Zm3.77-11.48h-3V24.48h3Zm.61,5.71a1.78,1.78,0,0,0-1.51.65,2.26,2.26,0,0,0-.49,1.38,2.76,2.76,0,0,0,.1.77,1.79,1.79,0,0,0,.48.74,5.63,5.63,0,0,0,1.13.81,17.13,17.13,0,0,0,2.09,1,2,2,0,0,0,.36-.79,3.87,3.87,0,0,0,.13-1v-.76a3.68,3.68,0,0,0-.49-2A2,2,0,0,0,111.68,33Zm3.54-5.71h-3V24.48h3Z"/>
      <path d="M125.79,42a5.35,5.35,0,0,1-1.56-.22,3.09,3.09,0,0,1-1.29-.74,3.75,3.75,0,0,1-.87-1.37,6.23,6.23,0,0,1-.32-2.14V24h3V36.81a2.29,2.29,0,0,0,.42,1.46,1.5,1.5,0,0,0,1.26.54h.67c.43,0,.64.51.64,1.54s-.21,1.65-.64,1.65Z"/>
      <path d="M139.79,37.8a2.08,2.08,0,0,0,.93.81,3.66,3.66,0,0,0,1.28.2h1.62a.51.51,0,0,1,.51.39,4.07,4.07,0,0,1,.13,1.15,4.61,4.61,0,0,1-.13,1.24.52.52,0,0,1-.51.41h-1.77a5.27,5.27,0,0,1-1.64-.23,3.69,3.69,0,0,1-1.16-.63,3.09,3.09,0,0,1-.78-.94,8.61,8.61,0,0,1-.54-1.22l-2.35,1.4a10.86,10.86,0,0,1-1.53.76,10.28,10.28,0,0,1-1.6.5,15.29,15.29,0,0,1-1.84.27c-.67.06-1.43.09-2.3.09h-1.05a.51.51,0,0,1-.51-.39,4.07,4.07,0,0,1-.13-1.15,4.61,4.61,0,0,1,.13-1.24.52.52,0,0,1,.51-.41h1.16c.72,0,1.36,0,1.94,0s1.11-.09,1.59-.16a8,8,0,0,0,1.34-.34,6.64,6.64,0,0,0,1.28-.59l3.68-2.12a6.41,6.41,0,0,0-.39-.66,1.51,1.51,0,0,0-.46-.48,1.92,1.92,0,0,0-.68-.29,4.39,4.39,0,0,0-1.05-.1h-6.15l.18-3.2h6.44a5.49,5.49,0,0,1,1.6.24,3.72,3.72,0,0,1,1.51.88,6.43,6.43,0,0,1,1.31,1.83,13,13,0,0,1,1,3.09Zm-4,10.41h-3.28v-3h3.28Z"/>
      <path d="M145.65,38.81a1.69,1.69,0,0,0,1.94-1.88V33.5h3v3.43a1.64,1.64,0,0,0,.62,1.44,2.46,2.46,0,0,0,1.47.44h.75c.45,0,.67.51.67,1.54s-.22,1.65-.67,1.65h-.84a5.35,5.35,0,0,1-2-.36A3.37,3.37,0,0,1,149,40.17a3.7,3.7,0,0,1-1.56,1.47,4.52,4.52,0,0,1-1.8.36h-2a.51.51,0,0,1-.51-.39,4.07,4.07,0,0,1-.13-1.15,4.61,4.61,0,0,1,.13-1.24.52.52,0,0,1,.51-.41Zm4.81-8.7h-3.27v-3h3.27Z"/>
      <path d="M156.09,38.81A1.69,1.69,0,0,0,158,36.93V33.5h3v3.63a4.94,4.94,0,0,1-1.22,3.64A4.59,4.59,0,0,1,156.35,42h-2.93a.49.49,0,0,1-.5-.39,3.68,3.68,0,0,1-.14-1.15,4.16,4.16,0,0,1,.14-1.24.5.5,0,0,1,.5-.41Zm.32,9.28h-3V45.25h3Zm4.18,0h-3V45.25h3Z"/>
      <path d="M163.8,24h3V42h-3Z"/>
      <path d="M177.46,44.46A7.42,7.42,0,0,1,176,46.84,6.75,6.75,0,0,1,171,49h-1.83L169,45.86h1.22a5.86,5.86,0,0,0,2.22-.37,4,4,0,0,0,1.49-1,3.71,3.71,0,0,0,.85-1.39,5.09,5.09,0,0,0,.26-1.59v-8h3v8A7.81,7.81,0,0,1,177.46,44.46Z"/>
      <path d="M190.72,34.75a6.31,6.31,0,0,1,1.15,1.78,4.59,4.59,0,0,1,.36,1.73,3.91,3.91,0,0,1-.27,1.46,3.28,3.28,0,0,1-.83,1.19,3.89,3.89,0,0,1-1.38.8,5.79,5.79,0,0,1-1.9.29h-7.74L180,38.81h7.39c.95,0,1.42-.36,1.42-1.07a1.64,1.64,0,0,0-.49-1.08L183.36,31l2.29-2.15Z"/>
      <path d="M202.83,41.54a8,8,0,0,1-.53,2.92,7.3,7.3,0,0,1-1.43,2.38A6.49,6.49,0,0,1,196,49h-1.83L194,45.86h1.22a5.86,5.86,0,0,0,2.22-.37,4,4,0,0,0,1.49-1,3.56,3.56,0,0,0,.84-1.39,4.82,4.82,0,0,0,.26-1.59v-8h3V37a1.7,1.7,0,0,0,.57,1.4,2.17,2.17,0,0,0,1.43.46h.32c.43,0,.64.51.64,1.54s-.21,1.65-.64,1.65H205a3.66,3.66,0,0,1-1.16-.19,1.9,1.9,0,0,1-1-.77Z"/>
      <path d="M207.32,38.81a1.69,1.69,0,0,0,2-1.88V33.5h3v3.43a1.62,1.62,0,0,0,.63,1.44,2.41,2.41,0,0,0,1.46.44h.75c.45,0,.67.51.67,1.54s-.22,1.65-.67,1.65h-.84a5.35,5.35,0,0,1-2-.36,3.3,3.3,0,0,1-1.56-1.47,3.78,3.78,0,0,1-1.57,1.47,4.52,4.52,0,0,1-1.8.36h-2a.49.49,0,0,1-.5-.39,3.68,3.68,0,0,1-.14-1.15,4.16,4.16,0,0,1,.14-1.24.5.5,0,0,1,.5-.41Zm2.5-8.7h-3V27.27h3Zm4.14,0h-3V27.27h3Z"/>
      <path d="M217.12,38.81a1.69,1.69,0,0,0,1.95-1.88V33.5h3v3.43a1.62,1.62,0,0,0,.63,1.44,2.41,2.41,0,0,0,1.46.44h.76c.44,0,.66.51.66,1.54S225.34,42,224.9,42h-.85a5.35,5.35,0,0,1-2-.36,3.3,3.3,0,0,1-1.56-1.47,3.78,3.78,0,0,1-1.57,1.47,4.52,4.52,0,0,1-1.8.36h-2a.49.49,0,0,1-.5-.39,3.73,3.73,0,0,1-.13-1.15,4.23,4.23,0,0,1,.13-1.24.5.5,0,0,1,.5-.41Zm2.27,9.28h-3V45.25h3Zm4.17,0h-3V45.25h3Z"/>
      <path d="M227.56,38.81a1.69,1.69,0,0,0,1.95-1.88V33.5h3v3.63a5,5,0,0,1-1.21,3.64A4.63,4.63,0,0,1,227.82,42H224.9a.49.49,0,0,1-.51-.39,3.73,3.73,0,0,1-.13-1.15,4.23,4.23,0,0,1,.13-1.24.5.5,0,0,1,.51-.41Zm.84-8.7h-3V27.27h3Zm4.15,0h-3V27.27h3Z"/>
      <path d="M169.45,70.75a6.49,6.49,0,0,1,1.14,1.78,4.61,4.61,0,0,1,.37,1.73,3.91,3.91,0,0,1-.28,1.46,3.17,3.17,0,0,1-.83,1.19,3.8,3.8,0,0,1-1.38.8,5.77,5.77,0,0,1-1.89.29h-7.75l-.14-3.19h7.39c.95,0,1.42-.36,1.42-1.07a1.64,1.64,0,0,0-.49-1.08L162.08,67l2.29-2.15Z"/>
      <path d="M176.23,77.54a8.1,8.1,0,0,1-.52,2.93,7.73,7.73,0,0,1-1.43,2.37,6.66,6.66,0,0,1-2.18,1.6,6.56,6.56,0,0,1-2.74.58h-1.83l-.14-3.16h1.22a5.84,5.84,0,0,0,2.21-.37,4.1,4.1,0,0,0,1.5-1,3.81,3.81,0,0,0,.84-1.39,5.09,5.09,0,0,0,.26-1.59v-8h3V73a1.73,1.73,0,0,0,.56,1.4,2.2,2.2,0,0,0,1.44.46h.32c.42,0,.63.51.63,1.54S179.12,78,178.7,78h-.32a3.57,3.57,0,0,1-1.16-.19,1.88,1.88,0,0,1-1-.77Z"/>
      <path d="M180.73,74.81a1.69,1.69,0,0,0,1.94-1.88V69.5h3v3.43a1.64,1.64,0,0,0,.62,1.44,2.44,2.44,0,0,0,1.47.44h.75c.44,0,.67.51.67,1.54S188.94,78,188.5,78h-.84a5.32,5.32,0,0,1-2-.36,3.37,3.37,0,0,1-1.57-1.47,3.7,3.7,0,0,1-1.56,1.47,4.56,4.56,0,0,1-1.8.36h-2a.51.51,0,0,1-.51-.39,3.73,3.73,0,0,1-.13-1.15,4.23,4.23,0,0,1,.13-1.24.52.52,0,0,1,.51-.41ZM183,84.09h-3V81.25h3Zm4.18,0h-3V81.25h3Z"/>
      <path d="M195.69,74.81a1.49,1.49,0,0,0,1.09-.32,1.09,1.09,0,0,0,.3-.78,2.34,2.34,0,0,0-.16-.86,2.52,2.52,0,0,0-.68-.91l-5.48-5.48V63.15l9.6-3.62.67,2.95-7.4,2.73,4.26,4.32a15.68,15.68,0,0,1,1.19,1.32,6.89,6.89,0,0,1,.73,1.13,4.57,4.57,0,0,1,.36,1.08,5.73,5.73,0,0,1,.1,1.11,4.16,4.16,0,0,1-.33,1.74,3.18,3.18,0,0,1-.9,1.19,3.57,3.57,0,0,1-1.33.68A6,6,0,0,1,196,78H188.5a.51.51,0,0,1-.51-.39,3.73,3.73,0,0,1-.13-1.15,4.23,4.23,0,0,1,.13-1.24.52.52,0,0,1,.51-.41Zm-5.07-16.12,8.73-3.31.46,2.09L190.76,61Z"/>
      <path d="M211.23,81.86a10.61,10.61,0,0,0,2.14-.18,4,4,0,0,0,1.36-.49,1.91,1.91,0,0,0,.73-.77,2.25,2.25,0,0,0,.21-1,1.6,1.6,0,0,0-.32-1,1.24,1.24,0,0,0-1.07-.44H210.1l.18-3.19h10.06c.43,0,.64.51.64,1.54s-.21,1.65-.64,1.65h-2.49a1.34,1.34,0,0,1,.5.75,4.16,4.16,0,0,1,.13,1.14A4.63,4.63,0,0,1,217,83.23a6.19,6.19,0,0,1-2.11,1.28,9.07,9.07,0,0,1-3.24.51h-3.07a6.45,6.45,0,0,1-5-2,7.9,7.9,0,0,1-1.8-5.48v-5.2h2.93v5.08a6.83,6.83,0,0,0,.23,1.83,3.79,3.79,0,0,0,.74,1.39,3.41,3.41,0,0,0,1.34.9,5.65,5.65,0,0,0,2,.32Z"/>
      <path d="M220.6,74.81a2.64,2.64,0,0,0,1.54-.39,1.46,1.46,0,0,0,.55-1.29v-.64a6.78,6.78,0,0,1,.33-2.15,5,5,0,0,1,1-1.68,4.71,4.71,0,0,1,1.56-1.09,5.15,5.15,0,0,1,2-.39,5.31,5.31,0,0,1,2.1.39,4.2,4.2,0,0,1,1.53,1.11,4.92,4.92,0,0,1,.92,1.69,6.78,6.78,0,0,1,.32,2.15,5.73,5.73,0,0,1-1.32,4A4.61,4.61,0,0,1,227.56,78a5.65,5.65,0,0,1-2.22-.45,3.28,3.28,0,0,1-1.61-1.44,2.89,2.89,0,0,1-1.42,1.51,4.31,4.31,0,0,1-1.71.38h-.26a.51.51,0,0,1-.51-.39,4.07,4.07,0,0,1-.13-1.15,4.61,4.61,0,0,1,.13-1.24.52.52,0,0,1,.51-.41Zm9-2.09a2.86,2.86,0,0,0-.45-1.65,1.79,1.79,0,0,0-1.61-.67,1.85,1.85,0,0,0-1.58.65,2.81,2.81,0,0,0-.48,1.7,2.05,2.05,0,0,0,.55,1.54,2.1,2.1,0,0,0,1.51.52A1.84,1.84,0,0,0,229.62,72.72Z"/>
    </g>
    <g>
      <path d="M100,98.79a2.72,2.72,0,0,1,.5.77,1.91,1.91,0,0,1,.16.75,1.59,1.59,0,0,1-.52,1.21,2.11,2.11,0,0,1-1.48.48H94.91l-.06-.93h3.72a1.25,1.25,0,0,0,.82-.24.82.82,0,0,0,.29-.64,1.06,1.06,0,0,0-.1-.42,1.38,1.38,0,0,0-.28-.43l-2.51-2.83.69-.65Z"/>
      <path d="M103.59,101.78a4,4,0,0,1-.24,1.43,3.38,3.38,0,0,1-.67,1.1,3.17,3.17,0,0,1-1,.71,3.27,3.27,0,0,1-1.27.25H99.6l-.07-.92h.66a2.73,2.73,0,0,0,1.16-.22,2.16,2.16,0,0,0,.8-.57,2.29,2.29,0,0,0,.46-.82,3,3,0,0,0,.15-1V98.14h.86V100a.94.94,0,0,0,.32.75,1.19,1.19,0,0,0,.83.28h.15c.19,0,.29.15.29.46s-.1.47-.29.47h-.15a1.77,1.77,0,0,1-.64-.12,1.21,1.21,0,0,1-.54-.42Z"/>
      <path d="M105.94,101.07a1.22,1.22,0,0,0,.87-.29,1,1,0,0,0,.29-.78V98.14H108V100a1.06,1.06,0,0,0,.1.5.89.89,0,0,0,.27.33.82.82,0,0,0,.36.18,1.47,1.47,0,0,0,.42.06h.4c.21,0,.31.15.31.46s-.1.47-.31.47h-.43a2.26,2.26,0,0,1-.9-.18,1.46,1.46,0,0,1-.69-.7,1.75,1.75,0,0,1-.71.7,2.07,2.07,0,0,1-.86.18h-1a.25.25,0,0,1-.24-.11.71.71,0,0,1-.06-.34.84.84,0,0,1,.06-.36.24.24,0,0,1,.24-.12Zm.87,3.45h-1v-1h1Zm1.75,0h-1v-1h1Z"/>
      <path d="M113.1,101.07a1.08,1.08,0,0,0,.83-.25.84.84,0,0,0,.23-.6,1.63,1.63,0,0,0-.08-.51,1.58,1.58,0,0,0-.44-.65l-2.92-2.91v-1l4.47-1.77.23.87-3.83,1.5L114,98.25c.21.22.39.42.53.6a3.16,3.16,0,0,1,.33.52,1.54,1.54,0,0,1,.16.47,2.54,2.54,0,0,1,0,.49,1.79,1.79,0,0,1-.15.75,1.19,1.19,0,0,1-.4.51,1.71,1.71,0,0,1-.6.31,2.71,2.71,0,0,1-.77.1h-3.65a.25.25,0,0,1-.23-.11.71.71,0,0,1-.06-.34.84.84,0,0,1,.06-.36.24.24,0,0,1,.23-.12Zm-2.41-7.72,4-1.65.17.66-4.19,1.69Z"/>
      <path d="M121,104.35a4.15,4.15,0,0,0,1.15-.14,2.62,2.62,0,0,0,.77-.35,1.39,1.39,0,0,0,.42-.5,1.33,1.33,0,0,0,.13-.58.92.92,0,0,0-.17-.55.66.66,0,0,0-.57-.23h-2.26l.07-.93h4.79c.2,0,.3.15.3.46s-.1.47-.3.47H124a.7.7,0,0,1,.23.36,1.87,1.87,0,0,1,.07.49,2.36,2.36,0,0,1-.16.78,2.16,2.16,0,0,1-.53.79,2.82,2.82,0,0,1-1,.6,4,4,0,0,1-1.52.25h-1.35a3,3,0,0,1-2.35-.93,3.71,3.71,0,0,1-.84-2.56V99.42h.87v2.34a3.51,3.51,0,0,0,.14,1,2.17,2.17,0,0,0,.44.82,2.12,2.12,0,0,0,.77.53,2.78,2.78,0,0,0,1.1.19Z"/>
      <path d="M125.56,101.07a1.11,1.11,0,0,0,.79-.26.9.9,0,0,0,.27-.69v-.51a2.66,2.66,0,0,1,.6-1.84,2.15,2.15,0,0,1,1.67-.66,2.4,2.4,0,0,1,1,.18,1.79,1.79,0,0,1,.7.5,2.1,2.1,0,0,1,.41.77,3.31,3.31,0,0,1,.14,1,2.55,2.55,0,0,1-.61,1.81,2.18,2.18,0,0,1-1.66.65,2.65,2.65,0,0,1-1-.21A1.57,1.57,0,0,1,127,101a1.58,1.58,0,0,1-.3.5,1.39,1.39,0,0,1-.37.29,1.3,1.3,0,0,1-.39.14l-.4,0h-.22a.24.24,0,0,1-.23-.11.59.59,0,0,1-.07-.34.7.7,0,0,1,.07-.36.23.23,0,0,1,.23-.12Zm4.68-1.45a1.94,1.94,0,0,0-.31-1.14,1.22,1.22,0,0,0-1.06-.44c-.94,0-1.41.55-1.41,1.64a1.34,1.34,0,0,0,.39,1,1.41,1.41,0,0,0,1,.35,1.35,1.35,0,0,0,1-.38A1.49,1.49,0,0,0,130.24,99.62Z"/>
      <path d="M137,103.21a3.43,3.43,0,0,1-.69,1.1,3.07,3.07,0,0,1-1,.71,3.31,3.31,0,0,1-1.27.25h-.8l-.07-.92h.67a2.76,2.76,0,0,0,1.16-.22,2.12,2.12,0,0,0,.79-.57,2.29,2.29,0,0,0,.46-.82,3,3,0,0,0,.15-1V98.14h.87v3.64A4,4,0,0,1,137,103.21Z"/>
      <path d="M139,93.63h.87V102H139Z"/>
      <path d="M143,101.78a4,4,0,0,1-.24,1.43,3.4,3.4,0,0,1-.68,1.1,3.13,3.13,0,0,1-1,.71,3.31,3.31,0,0,1-1.27.25H139l-.06-.92h.66a2.76,2.76,0,0,0,1.16-.22,2.12,2.12,0,0,0,.79-.57,2.15,2.15,0,0,0,.46-.82,3,3,0,0,0,.15-1V98.14h.87V100a.93.93,0,0,0,.31.75,1.19,1.19,0,0,0,.83.28h.15c.2,0,.3.15.3.46s-.1.47-.3.47h-.15a1.81,1.81,0,0,1-.64-.12,1.13,1.13,0,0,1-.53-.42Z"/>
      <path d="M146.64,101.07h1.14a6.36,6.36,0,0,1-1.21-.51,2.79,2.79,0,0,1-.67-.53,1.31,1.31,0,0,1-.29-.59,3.84,3.84,0,0,1-.06-.71,2.15,2.15,0,0,1,.15-.77,2.21,2.21,0,0,1,.44-.71,2.29,2.29,0,0,1,1.69-.72,3,3,0,0,1,.93.14,1.93,1.93,0,0,1,.73.46,2,2,0,0,1,.47.81,3.92,3.92,0,0,1,.17,1.23v.6a2.15,2.15,0,0,1-.63,1.64,2.84,2.84,0,0,1-2,.59h-3.16a.25.25,0,0,1-.23-.11.71.71,0,0,1-.06-.34.84.84,0,0,1,.06-.36.24.24,0,0,1,.23-.12Zm1.14-3.61a1.28,1.28,0,0,0-.59.13,1.4,1.4,0,0,0-.44.31,1.11,1.11,0,0,0-.28.43,1.44,1.44,0,0,0-.1.5,1.86,1.86,0,0,0,.06.48.86.86,0,0,0,.29.44,3.28,3.28,0,0,0,.74.47,10.77,10.77,0,0,0,1.37.56,1.31,1.31,0,0,0,.43-1.07v-.45a2.3,2.3,0,0,0-.33-1.32A1.32,1.32,0,0,0,147.78,97.46Zm-.3-2.29H146.4v-1h1.08Zm1.72,0h-1.08v-1h1.08Z"/>
      <path d="M155.68,102a2.2,2.2,0,0,1-.68-.1,1.3,1.3,0,0,1-.57-.35,1.63,1.63,0,0,1-.4-.64,2.79,2.79,0,0,1-.15-1V93.63h.88v6.13a1.63,1.63,0,0,0,.25.94.92.92,0,0,0,.81.37h.23c.2,0,.3.15.3.46s-.1.47-.3.47Z"/>
      <path d="M161.9,100.07a1.68,1.68,0,0,0,.52.78,1.26,1.26,0,0,0,.79.22h.89a.27.27,0,0,1,.24.11.79.79,0,0,1,.06.35.84.84,0,0,1-.06.36.27.27,0,0,1-.24.11h-1a2,2,0,0,1-.75-.12,1.5,1.5,0,0,1-.51-.33,1.8,1.8,0,0,1-.35-.5,5.23,5.23,0,0,1-.27-.62l-1.3.77a7.59,7.59,0,0,1-.68.36,3.86,3.86,0,0,1-.7.25,6.23,6.23,0,0,1-.83.14c-.3,0-.65,0-1,0h-.66a.25.25,0,0,1-.23-.11.71.71,0,0,1-.06-.34.84.84,0,0,1,.06-.36.24.24,0,0,1,.23-.12h.68a8.62,8.62,0,0,0,.93,0,5.1,5.1,0,0,0,.74-.1,4,4,0,0,0,.64-.2,3.82,3.82,0,0,0,.6-.31l2.29-1.32c-.08-.19-.15-.36-.23-.52a1.38,1.38,0,0,0-.31-.4,1.22,1.22,0,0,0-.45-.25,2.13,2.13,0,0,0-.67-.09h-3l.08-.93h3.07a3.69,3.69,0,0,1,.72.08,1.71,1.71,0,0,1,.7.35,2.51,2.51,0,0,1,.62.77,4.92,4.92,0,0,1,.48,1.37Zm-2,4.48h-1.13v-1h1.13Z"/>
      <path d="M165.12,101.07a1.22,1.22,0,0,0,.87-.29,1,1,0,0,0,.3-.78V98.14h.87V100a1.2,1.2,0,0,0,.1.5.89.89,0,0,0,.27.33.87.87,0,0,0,.36.18,1.52,1.52,0,0,0,.42.06h.41c.2,0,.31.15.31.46s-.11.47-.31.47h-.44a2.26,2.26,0,0,1-.9-.18,1.46,1.46,0,0,1-.69-.7,1.69,1.69,0,0,1-.71.7,2,2,0,0,1-.86.18h-1a.25.25,0,0,1-.24-.11.71.71,0,0,1-.06-.34.84.84,0,0,1,.06-.36.24.24,0,0,1,.24-.12Zm2.07-4.66h-1.13v-1h1.13Z"/>
      <path d="M169.93,101.07a1.25,1.25,0,0,0,.85-.29,1,1,0,0,0,.31-.78V98.14H172V100a1.82,1.82,0,0,1-2,2h-1.27a.25.25,0,0,1-.24-.11.71.71,0,0,1-.06-.34.84.84,0,0,1,.06-.36.24.24,0,0,1,.24-.12Zm-.08,3.45h-1v-1h1Zm1.76,0h-1v-1h1Z"/>
      <path d="M173.66,93.63h.88V102h-.88Z"/>
      <path d="M180.64,103.21a3.24,3.24,0,0,1-.68,1.1,3.17,3.17,0,0,1-1,.71,3.34,3.34,0,0,1-1.27.25h-.8l-.07-.92h.66a2.73,2.73,0,0,0,1.16-.22,2.16,2.16,0,0,0,.8-.57,2.29,2.29,0,0,0,.46-.82,3,3,0,0,0,.15-1V98.14h.86v3.64A3.83,3.83,0,0,1,180.64,103.21Z"/>
      <path d="M187.37,98.79a2.57,2.57,0,0,1,.51.77,2.09,2.09,0,0,1,.15.75,1.56,1.56,0,0,1-.52,1.21A2.08,2.08,0,0,1,186,102h-3.77l-.07-.93h3.73a1.22,1.22,0,0,0,.81-.24.8.8,0,0,0,.3-.64,1.26,1.26,0,0,0-.1-.42,1.58,1.58,0,0,0-.28-.43l-2.51-2.83.68-.65Z"/>
      <path d="M194.1,101.78a4,4,0,0,1-.25,1.43,3.38,3.38,0,0,1-.67,1.1,3.17,3.17,0,0,1-1,.71,3.26,3.26,0,0,1-1.26.25h-.8l-.07-.92h.66a2.73,2.73,0,0,0,1.16-.22,2.16,2.16,0,0,0,.8-.57,2.29,2.29,0,0,0,.46-.82,3,3,0,0,0,.15-1V98.14h.86V100a.94.94,0,0,0,.32.75,1.19,1.19,0,0,0,.83.28h.15c.2,0,.29.15.29.46s-.09.47-.29.47h-.15a1.77,1.77,0,0,1-.64-.12,1.13,1.13,0,0,1-.53-.42Z"/>
      <path d="M196.44,101.07a1.22,1.22,0,0,0,.87-.29,1,1,0,0,0,.3-.78V98.14h.87V100a1.2,1.2,0,0,0,.1.5.89.89,0,0,0,.27.33.87.87,0,0,0,.36.18,1.52,1.52,0,0,0,.42.06H200c.2,0,.31.15.31.46s-.11.47-.31.47h-.44a2.26,2.26,0,0,1-.9-.18,1.46,1.46,0,0,1-.69-.7,1.69,1.69,0,0,1-.71.7,2,2,0,0,1-.86.18h-1a.25.25,0,0,1-.24-.11.71.71,0,0,1-.06-.34.84.84,0,0,1,.06-.36.24.24,0,0,1,.24-.12Zm1.14-4.66H196.5v-1h1.08Zm1.71,0h-1.08v-1h1.08Z"/>
      <path d="M201.06,101.07a1.22,1.22,0,0,0,.87-.29,1,1,0,0,0,.29-.78V98.14h.88V100a1.06,1.06,0,0,0,.1.5,1,1,0,0,0,.26.33.85.85,0,0,0,.37.18,1.42,1.42,0,0,0,.42.06h.4c.21,0,.31.15.31.46s-.1.47-.31.47h-.43a2.23,2.23,0,0,1-.9-.18,1.46,1.46,0,0,1-.69-.7,1.75,1.75,0,0,1-.71.7,2.07,2.07,0,0,1-.86.18h-1a.25.25,0,0,1-.24-.11.71.71,0,0,1-.06-.34.84.84,0,0,1,.06-.36.24.24,0,0,1,.24-.12Zm.87,3.45h-1v-1h1Zm1.75,0h-1v-1h1Z"/>
      <path d="M205.87,101.07a1.21,1.21,0,0,0,.84-.29A1,1,0,0,0,207,100V98.14h.88V100a1.84,1.84,0,0,1-2,2h-1.27a.25.25,0,0,1-.23-.11.71.71,0,0,1-.06-.34.84.84,0,0,1,.06-.36.24.24,0,0,1,.23-.12Zm.46-4.66h-1.08v-1h1.08Zm1.71,0H207v-1H208Z"/>
      <path d="M213.56,102a2.48,2.48,0,0,1-.95-.17,1.72,1.72,0,0,1-.65-.45,1.77,1.77,0,0,1-.36-.66,2.63,2.63,0,0,1-.12-.8V98.11h.87v1.61a1.48,1.48,0,0,0,.31,1,1.37,1.37,0,0,0,1.09.37h4.6a1.21,1.21,0,0,0,.86-.29,1,1,0,0,0,.31-.78V98.14h.87v2a2,2,0,0,1-.15.8,2,2,0,0,1-.42.59,1.67,1.67,0,0,1-.61.37,2.19,2.19,0,0,1-.73.12Zm2.89,2.55h-1.13v-1h1.13Z"/>
      <path d="M223.88,102a2.2,2.2,0,0,1-.68-.1,1.3,1.3,0,0,1-.57-.35,1.63,1.63,0,0,1-.4-.64,2.79,2.79,0,0,1-.15-1V93.63H223v6.13a1.63,1.63,0,0,0,.25.94.92.92,0,0,0,.81.37h.23c.2,0,.3.15.3.46s-.1.47-.3.47Z"/>
      <path d="M224.74,101.07a1.26,1.26,0,0,0,.88-.29,1,1,0,0,0,.32-.78V98.14h.88V100a1.06,1.06,0,0,0,.1.5,1,1,0,0,0,.65.51,1.52,1.52,0,0,0,.42.06,1.44,1.44,0,0,0,1-.29,1,1,0,0,0,.33-.78V98.14h.88V100a1,1,0,0,0,.33.83,1.24,1.24,0,0,0,.75.24,1.13,1.13,0,0,0,.81-.29,1,1,0,0,0,.31-.78V98.14h.88V100a2,2,0,0,1-.54,1.48,1.94,1.94,0,0,1-1.44.52,2.26,2.26,0,0,1-.9-.18,1.46,1.46,0,0,1-.69-.7,1.57,1.57,0,0,1-.75.7,2.5,2.5,0,0,1-.94.18,2.4,2.4,0,0,1-1-.18,1.46,1.46,0,0,1-.71-.7,1.58,1.58,0,0,1-.73.7,2.31,2.31,0,0,1-.91.18h-.44a.25.25,0,0,1-.23-.11.71.71,0,0,1-.06-.34.84.84,0,0,1,.06-.36.24.24,0,0,1,.23-.12Z"/>
    </g>
  </g>
</svg>
