<svg xmlns="http://www.w3.org/2000/svg" viewBox="0 0 858 504"><defs><style>.cls-1{fill:#c7c0bf;}.cls-2{fill:#f5eceb;}.cls-3{fill:#fff;}</style></defs><title>material-71</title><g id="Layer_2" data-name="Layer 2"><rect width="858" height="504"/></g><g id="Layer_1" data-name="Layer 1"><rect class="cls-1" x="237" y="59.67" width="384" height="384.33"/><path class="cls-2" d="M340.13,408.28H272.72l128.7-122.57L478,362.31l30.64-30.64,76.61,76.61ZM507.79,272.66a24.54,24.54,0,1,0,24.54-24.54A24.53,24.53,0,0,0,507.79,272.66Z"/><path class="cls-3" d="M370,125.52a11.25,11.25,0,0,1-2.2,3.54,10.27,10.27,0,0,1-3.33,2.37,9.85,9.85,0,0,1-4.12.86H357.6l-.21-4.7h1.81a9,9,0,0,0,3.3-.54,6,6,0,0,0,2.22-1.45,5.4,5.4,0,0,0,1.26-2.07,7.68,7.68,0,0,0,.38-2.37v-12h4.41v12A11.85,11.85,0,0,1,370,125.52Z"/><path class="cls-3" d="M374.91,95.09h4.4v26.76h-4.4Z"/><path class="cls-3" d="M389.2,121.16a12.05,12.05,0,0,1-.78,4.36,11.28,11.28,0,0,1-2.14,3.54,9.7,9.7,0,0,1-3.24,2.37,9.55,9.55,0,0,1-4.07.86h-2.72l-.22-4.7h1.81a9,9,0,0,0,3.31-.54,6.16,6.16,0,0,0,2.22-1.45,5.51,5.51,0,0,0,1.25-2.07,7.4,7.4,0,0,0,.39-2.37v-12h4.4v5.14a2.52,2.52,0,0,0,.84,2.07,3.27,3.27,0,0,0,2.14.69h.48c.63,0,.94.76.94,2.29s-.31,2.46-.94,2.46h-.48a5.49,5.49,0,0,1-1.73-.28,2.87,2.87,0,0,1-1.46-1.15Z"/><path class="cls-3" d="M396.75,117.1l1.21,0,1,.07a8.1,8.1,0,0,1,.88.13l.95.21a10.2,10.2,0,0,1-2.39-1.36,5.36,5.36,0,0,1-1.36-1.53,5,5,0,0,1-.63-1.79,14.09,14.09,0,0,1-.15-2.14,7.1,7.1,0,0,1,.45-2.41,6.81,6.81,0,0,1,1.36-2.25,7.18,7.18,0,0,1,5.4-2.29,9.92,9.92,0,0,1,3,.44,5.61,5.61,0,0,1,2.35,1.42,6.45,6.45,0,0,1,1.54,2.61,12.74,12.74,0,0,1,.54,4v2.21a7.28,7.28,0,0,1-2,5.46q-2,2-6.32,2h-9.72a.74.74,0,0,1-.75-.58,5.74,5.74,0,0,1-.19-1.71,6.5,6.5,0,0,1,.19-1.85.75.75,0,0,1,.75-.61ZM402.36,100h-4.49V95.78h4.49Zm.91,8.5a2.66,2.66,0,0,0-2.25,1,3.34,3.34,0,0,0-.73,2,4.26,4.26,0,0,0,.15,1.15,2.66,2.66,0,0,0,.71,1.1,9.2,9.2,0,0,0,1.68,1.21,27.19,27.19,0,0,0,3.11,1.46,3.09,3.09,0,0,0,.54-1.18,6,6,0,0,0,.2-1.49v-1.12a5.48,5.48,0,0,0-.74-3A2.9,2.9,0,0,0,403.27,108.51Zm5.26-8.5H404V95.78h4.49Z"/><path class="cls-3" d="M424.21,121.85a8.3,8.3,0,0,1-2.3-.32,4.72,4.72,0,0,1-1.93-1.11,5.38,5.38,0,0,1-1.29-2,9,9,0,0,1-.48-3.17V95.09h4.41v19a3.49,3.49,0,0,0,.62,2.18,2.23,2.23,0,0,0,1.88.8h1c.64,0,.95.76.95,2.29s-.31,2.46-.95,2.46Z"/><path class="cls-3" d="M445.06,115.59a3,3,0,0,0,1.38,1.21,5.3,5.3,0,0,0,1.9.3h2.42a.75.75,0,0,1,.75.58,5.68,5.68,0,0,1,.2,1.71,6.43,6.43,0,0,1-.2,1.85.75.75,0,0,1-.75.61h-2.63a7.58,7.58,0,0,1-2.44-.35,5.69,5.69,0,0,1-1.73-.92,4.81,4.81,0,0,1-1.16-1.41,10.74,10.74,0,0,1-.8-1.81l-3.5,2.07a18.16,18.16,0,0,1-2.29,1.15,16,16,0,0,1-2.37.73,21.12,21.12,0,0,1-2.74.41c-1,.09-2.14.13-3.43.13h-1.56a.74.74,0,0,1-.75-.58,5.68,5.68,0,0,1-.2-1.71,6.43,6.43,0,0,1,.2-1.85.75.75,0,0,1,.75-.61h1.73c1.06,0,2,0,2.89-.06s1.65-.13,2.35-.24a12.31,12.31,0,0,0,2-.5,10.09,10.09,0,0,0,1.9-.88l5.48-3.15c-.2-.38-.39-.71-.58-1a2.74,2.74,0,0,0-.69-.71,3.3,3.3,0,0,0-1-.43,6.59,6.59,0,0,0-1.55-.15h-9.15l.26-4.75h9.58a8.6,8.6,0,0,1,2.4.35,5.69,5.69,0,0,1,2.24,1.31,9.47,9.47,0,0,1,1.94,2.72,19.1,19.1,0,0,1,1.49,4.6Zm-5.91,15.5h-4.88v-4.41h4.88Z"/><path class="cls-3" d="M453.78,117.1c1.93,0,2.89-.93,2.89-2.8v-5.1h4.45v5.1a2.43,2.43,0,0,0,.93,2.15,3.65,3.65,0,0,0,2.18.65h1.12c.66,0,1,.76,1,2.29s-.33,2.46-1,2.46H464.1a7.87,7.87,0,0,1-3-.54,5,5,0,0,1-2.33-2.18,5.64,5.64,0,0,1-2.33,2.18,6.72,6.72,0,0,1-2.68.54h-3a.75.75,0,0,1-.76-.58,5.74,5.74,0,0,1-.19-1.71,6.5,6.5,0,0,1,.19-1.85.76.76,0,0,1,.76-.61ZM461,104.15h-4.88v-4.4H461Z"/><path class="cls-3" d="M469.32,117.1c1.93,0,2.89-.93,2.89-2.8v-5.1h4.4v5.4A7.37,7.37,0,0,1,474.8,120a6.82,6.82,0,0,1-5.09,1.84h-4.36a.75.75,0,0,1-.76-.58,5.74,5.74,0,0,1-.19-1.71,6.5,6.5,0,0,1,.19-1.85.75.75,0,0,1,.76-.61Zm.47,13.81h-4.44v-4.23h4.44Zm6.22,0h-4.45v-4.23H476Z"/><path class="cls-3" d="M480.8,95.09h4.4v26.76h-4.4Z"/><path class="cls-3" d="M501.12,125.52a11.07,11.07,0,0,1-2.2,3.54,10.13,10.13,0,0,1-3.32,2.37,9.88,9.88,0,0,1-4.12.86h-2.72l-.22-4.7h1.81a9,9,0,0,0,3.31-.54,6.16,6.16,0,0,0,2.22-1.45,5.51,5.51,0,0,0,1.25-2.07,7.4,7.4,0,0,0,.39-2.37v-12h4.4v12A11.85,11.85,0,0,1,501.12,125.52Z"/><path class="cls-3" d="M520.87,111.06a9.67,9.67,0,0,1,1.7,2.65,6.78,6.78,0,0,1,.54,2.57,5.6,5.6,0,0,1-.41,2.18,4.72,4.72,0,0,1-1.23,1.77,5.86,5.86,0,0,1-2.05,1.19,8.44,8.44,0,0,1-2.82.43H505.07l-.21-4.75h11c1.41,0,2.12-.53,2.12-1.6a2.43,2.43,0,0,0-.74-1.59l-7.33-8.38,3.41-3.19Z"/><path class="cls-3" d="M538.88,121.16a12.05,12.05,0,0,1-.78,4.36,11.26,11.26,0,0,1-2.13,3.54,9.91,9.91,0,0,1-3.24,2.37,9.57,9.57,0,0,1-4.08.86h-2.72l-.21-4.7h1.81a9,9,0,0,0,3.3-.54,6,6,0,0,0,2.22-1.45,5.4,5.4,0,0,0,1.26-2.07,7.68,7.68,0,0,0,.38-2.37v-12h4.41v5.14a2.52,2.52,0,0,0,.84,2.07,3.24,3.24,0,0,0,2.13.69h.48c.63,0,1,.76,1,2.29s-.32,2.46-1,2.46h-.48a5.43,5.43,0,0,1-1.72-.28,2.85,2.85,0,0,1-1.47-1.15Z"/><path class="cls-3" d="M545.57,117.1c1.93,0,2.89-.93,2.89-2.8v-5.1h4.45v5.1a2.43,2.43,0,0,0,.93,2.15,3.65,3.65,0,0,0,2.18.65h1.12c.66,0,1,.76,1,2.29s-.33,2.46-1,2.46h-1.25a7.87,7.87,0,0,1-3-.54,5,5,0,0,1-2.33-2.18,5.64,5.64,0,0,1-2.33,2.18,6.72,6.72,0,0,1-2.68.54h-3a.75.75,0,0,1-.76-.58,6.1,6.1,0,0,1-.19-1.71,6.89,6.89,0,0,1,.19-1.85.76.76,0,0,1,.76-.61Zm3.71-12.95h-4.49V99.92h4.49Zm6.18,0H551V99.92h4.49Z"/><path class="cls-3" d="M560.16,117.1c1.93,0,2.89-.93,2.89-2.8v-5.1h4.45v5.1a2.43,2.43,0,0,0,.93,2.15,3.63,3.63,0,0,0,2.18.65h1.12c.66,0,1,.76,1,2.29s-.33,2.46-1,2.46h-1.25a7.87,7.87,0,0,1-3-.54,5,5,0,0,1-2.33-2.18,5.64,5.64,0,0,1-2.33,2.18,6.72,6.72,0,0,1-2.68.54h-3a.75.75,0,0,1-.76-.58,5.74,5.74,0,0,1-.19-1.71,6.5,6.5,0,0,1,.19-1.85.75.75,0,0,1,.76-.61Zm3.37,13.81h-4.45v-4.23h4.45Zm6.21,0H565.3v-4.23h4.44Z"/><path class="cls-3" d="M575.7,117.1c1.93,0,2.89-.93,2.89-2.8v-5.1H583v5.4a7.37,7.37,0,0,1-1.81,5.41,6.82,6.82,0,0,1-5.09,1.84h-4.36a.75.75,0,0,1-.76-.58,5.74,5.74,0,0,1-.19-1.71,6.5,6.5,0,0,1,.19-1.85.75.75,0,0,1,.76-.61ZM577,104.15h-4.49V99.92H577Zm6.17,0h-4.49V99.92h4.49Z"/><path class="cls-3" d="M489.2,164.64a9.72,9.72,0,0,1,1.71,2.65,6.78,6.78,0,0,1,.54,2.57A5.79,5.79,0,0,1,491,172a5,5,0,0,1-1.23,1.77,5.76,5.76,0,0,1-2.06,1.19,8.44,8.44,0,0,1-2.82.43H473.4l-.21-4.75h11c1.41,0,2.12-.53,2.12-1.59a2.49,2.49,0,0,0-.73-1.6l-7.34-8.37,3.41-3.2Z"/><path class="cls-3" d="M499.3,174.74a12.05,12.05,0,0,1-.78,4.36,11.26,11.26,0,0,1-2.13,3.54,9.77,9.77,0,0,1-3.24,2.37,9.57,9.57,0,0,1-4.08.87h-2.72l-.21-4.71H488a9,9,0,0,0,3.3-.54,6.1,6.1,0,0,0,2.22-1.44,5.52,5.52,0,0,0,1.26-2.08,7.63,7.63,0,0,0,.38-2.37v-12h4.41v5.14a2.52,2.52,0,0,0,.84,2.07,3.24,3.24,0,0,0,2.13.69H503c.63,0,.95.77.95,2.29s-.32,2.46-.95,2.46h-.48a5.43,5.43,0,0,1-1.72-.28A2.88,2.88,0,0,1,499.3,174Z"/><path class="cls-3" d="M506,170.68c1.93,0,2.89-.93,2.89-2.8v-5.1h4.45v5.1a2.46,2.46,0,0,0,.93,2.16,3.69,3.69,0,0,0,2.18.64h1.12c.66,0,1,.77,1,2.29s-.33,2.46-1,2.46h-1.25a7.87,7.87,0,0,1-3-.54,5,5,0,0,1-2.33-2.18,5.58,5.58,0,0,1-2.33,2.18,6.72,6.72,0,0,1-2.68.54h-3a.75.75,0,0,1-.76-.58,5.74,5.74,0,0,1-.19-1.71,6.5,6.5,0,0,1,.19-1.85.75.75,0,0,1,.76-.61Zm3.37,13.81h-4.45v-4.23h4.45Zm6.21,0h-4.44v-4.23h4.44Z"/><path class="cls-3" d="M528.26,170.68a2.22,2.22,0,0,0,1.62-.47,1.65,1.65,0,0,0,.45-1.17,3.74,3.74,0,0,0-.23-1.27,3.91,3.91,0,0,0-1-1.36l-8.15-8.16v-4.92l14.28-5.39,1,4.4-11,4.06,6.34,6.43a21.86,21.86,0,0,1,1.77,2,9.78,9.78,0,0,1,1.08,1.68,6.43,6.43,0,0,1,.54,1.6,9,9,0,0,1,.15,1.66,6.17,6.17,0,0,1-.49,2.59,5,5,0,0,1-1.34,1.77,5.52,5.52,0,0,1-2,1,9.3,9.3,0,0,1-2.48.32H517.56a.75.75,0,0,1-.76-.58,5.74,5.74,0,0,1-.19-1.71,6.5,6.5,0,0,1,.19-1.85.75.75,0,0,1,.76-.61Zm-7.55-24,13-4.92.69,3.11-13.46,5.18Z"/><path class="cls-3" d="M551.4,181.17a16.51,16.51,0,0,0,3.17-.26,6.19,6.19,0,0,0,2-.73,2.88,2.88,0,0,0,1.08-1.15,3.3,3.3,0,0,0,.32-1.44,2.51,2.51,0,0,0-.47-1.51,1.86,1.86,0,0,0-1.6-.65h-6.22l.26-4.75h15c.63,0,.95.77.95,2.29s-.32,2.46-.95,2.46h-3.71a2.06,2.06,0,0,1,.75,1.12,6.26,6.26,0,0,1,.2,1.69,7.07,7.07,0,0,1-2.22,5,9.39,9.39,0,0,1-3.16,1.9,13.52,13.52,0,0,1-4.81.76h-4.57a9.58,9.58,0,0,1-7.51-3q-2.68-3-2.68-8.16V167h4.36v7.56a9.59,9.59,0,0,0,.35,2.72,5.16,5.16,0,0,0,1.1,2.07,5,5,0,0,0,2,1.34,8.51,8.51,0,0,0,3,.47Z"/><path class="cls-3" d="M565.34,170.68a3.9,3.9,0,0,0,2.29-.58,2.21,2.21,0,0,0,.82-1.92v-1a9.88,9.88,0,0,1,.49-3.19,7,7,0,0,1,1.45-2.51,6.6,6.6,0,0,1,2.31-1.62,7.81,7.81,0,0,1,3-.58,8.05,8.05,0,0,1,3.13.58,6.2,6.2,0,0,1,2.27,1.64,7.45,7.45,0,0,1,1.38,2.53,10.51,10.51,0,0,1,.47,3.19,8.56,8.56,0,0,1-2,6,6.87,6.87,0,0,1-5.33,2.14,8.29,8.29,0,0,1-3.3-.67,4.85,4.85,0,0,1-2.4-2.13,4.38,4.38,0,0,1-2.11,2.24,6.5,6.5,0,0,1-2.55.56H565a.74.74,0,0,1-.75-.58,5.68,5.68,0,0,1-.2-1.71,6.43,6.43,0,0,1,.2-1.85.75.75,0,0,1,.75-.61Zm13.42-3.1a4.32,4.32,0,0,0-.67-2.47,2.67,2.67,0,0,0-2.39-1,2.72,2.72,0,0,0-2.35,1,4.15,4.15,0,0,0-.72,2.53,3,3,0,0,0,.82,2.29,3.18,3.18,0,0,0,2.25.77Q578.76,170.68,578.76,167.58Z"/><path class="cls-3" d="M386,206.37a4.15,4.15,0,0,1,.76,1.15,3.11,3.11,0,0,1,.23,1.12,2.35,2.35,0,0,1-.78,1.8,3.15,3.15,0,0,1-2.2.71h-5.6l-.1-1.38h5.54a1.85,1.85,0,0,0,1.22-.37,1.15,1.15,0,0,0,.43-.94,1.67,1.67,0,0,0-.14-.62,2,2,0,0,0-.42-.65L381.24,203l1-1Z"/><path class="cls-3" d="M391.37,210.83A6,6,0,0,1,391,213a5,5,0,0,1-1,1.64,4.56,4.56,0,0,1-1.51,1,4.64,4.64,0,0,1-1.88.37h-1.19l-.1-1.36h1a4.31,4.31,0,0,0,1.73-.32,3.32,3.32,0,0,0,1.87-2.07,4.55,4.55,0,0,0,.22-1.43v-5.42h1.29v2.83a1.4,1.4,0,0,0,.47,1.11,1.79,1.79,0,0,0,1.24.42h.22c.29,0,.44.22.44.68s-.15.7-.44.7h-.22a2.68,2.68,0,0,1-1-.18,1.76,1.76,0,0,1-.79-.62Z"/><path class="cls-3" d="M394.86,209.77a1.79,1.79,0,0,0,1.29-.43,1.54,1.54,0,0,0,.44-1.16v-2.77h1.31v2.77a1.65,1.65,0,0,0,.15.74,1.43,1.43,0,0,0,.93.76,2.18,2.18,0,0,0,.63.09h.6c.31,0,.46.22.46.68s-.15.7-.46.7h-.64a3.32,3.32,0,0,1-1.35-.27,2.18,2.18,0,0,1-1-1,2.46,2.46,0,0,1-1.05,1,3.06,3.06,0,0,1-1.28.27h-1.52A.35.35,0,0,1,393,211a.94.94,0,0,1-.1-.5,1.1,1.1,0,0,1,.1-.54.35.35,0,0,1,.35-.18Zm1.29,5.14H394.6v-1.43h1.55Zm2.61,0h-1.52v-1.43h1.52Z"/><path class="cls-3" d="M405.51,209.77a1.65,1.65,0,0,0,1.25-.38,1.24,1.24,0,0,0,.34-.89,2.77,2.77,0,0,0-.12-.76,2.38,2.38,0,0,0-.66-1L402,202.45V201l6.65-2.63.34,1.31-5.71,2.23,3.64,3.64a11,11,0,0,1,.79.9,4.58,4.58,0,0,1,.49.76,2.33,2.33,0,0,1,.25.71,4.11,4.11,0,0,1,.06.72,2.76,2.76,0,0,1-.21,1.12,2.09,2.09,0,0,1-.6.77,2.54,2.54,0,0,1-.9.45,4.16,4.16,0,0,1-1.15.15h-5.42a.35.35,0,0,1-.35-.16,1.06,1.06,0,0,1-.09-.5,1.25,1.25,0,0,1,.09-.54.35.35,0,0,1,.35-.18Zm-3.57-11.5,6-2.45.25,1L402,199.32Z"/><path class="cls-3" d="M417.29,214.65a6.5,6.5,0,0,0,1.72-.2,3.4,3.4,0,0,0,1.13-.54,1.82,1.82,0,0,0,.63-.74,2,2,0,0,0,.19-.85,1.36,1.36,0,0,0-.25-.83,1,1,0,0,0-.85-.34H416.5l.1-1.38h7.14c.29,0,.44.22.44.68s-.15.7-.44.7h-2a1.13,1.13,0,0,1,.35.54,2.75,2.75,0,0,1,.09.73,3.41,3.41,0,0,1-.23,1.16,3.2,3.2,0,0,1-.78,1.17,4.38,4.38,0,0,1-1.47.9,6.19,6.19,0,0,1-2.26.36h-2a4.48,4.48,0,0,1-3.5-1.38,5.49,5.49,0,0,1-1.24-3.8v-3.52H412v3.48a5.47,5.47,0,0,0,.21,1.57,3.18,3.18,0,0,0,.67,1.21,3.09,3.09,0,0,0,1.13.8,4.52,4.52,0,0,0,1.65.28Z"/><path class="cls-3" d="M424.06,209.77a1.61,1.61,0,0,0,1.18-.39,1.33,1.33,0,0,0,.41-1v-.76a3.91,3.91,0,0,1,.89-2.74,3.2,3.2,0,0,1,2.48-1,3.83,3.83,0,0,1,1.45.26,2.67,2.67,0,0,1,1,.74,3.19,3.19,0,0,1,.62,1.15,5.15,5.15,0,0,1,.2,1.46,3.77,3.77,0,0,1-.91,2.7,3.22,3.22,0,0,1-2.47,1,4,4,0,0,1-1.55-.31,2.33,2.33,0,0,1-1.16-1.12,2.44,2.44,0,0,1-.44.75,2.12,2.12,0,0,1-.55.43,1.72,1.72,0,0,1-.59.2,3.07,3.07,0,0,1-.59.05h-.32a.35.35,0,0,1-.35-.16,1,1,0,0,1-.1-.5,1.23,1.23,0,0,1,.1-.54.35.35,0,0,1,.35-.18Zm7-2.15a2.85,2.85,0,0,0-.46-1.7,1.81,1.81,0,0,0-1.59-.66c-1.39,0-2.09.81-2.09,2.44a2,2,0,0,0,.57,1.54,2.13,2.13,0,0,0,1.48.53,2,2,0,0,0,1.56-.57A2.22,2.22,0,0,0,431,207.62Z"/><path class="cls-3" d="M441.13,213a5.06,5.06,0,0,1-1,1.64,4.56,4.56,0,0,1-1.51,1,4.8,4.8,0,0,1-1.9.37h-1.19l-.1-1.36h1a4.26,4.26,0,0,0,1.72-.32,3.32,3.32,0,0,0,1.19-.86,3.44,3.44,0,0,0,.68-1.21,4.55,4.55,0,0,0,.22-1.43v-5.42h1.29v5.42A6,6,0,0,1,441.13,213Z"/><path class="cls-3" d="M444,198.69h1.31v12.46H444Z"/><path class="cls-3" d="M450.08,210.83a6,6,0,0,1-.36,2.12,5,5,0,0,1-1,1.64,4.56,4.56,0,0,1-1.51,1,4.64,4.64,0,0,1-1.88.37h-1.19l-.1-1.36h1a4.31,4.31,0,0,0,1.73-.32,3.32,3.32,0,0,0,1.87-2.07,4.55,4.55,0,0,0,.22-1.43v-5.42h1.29v2.83a1.4,1.4,0,0,0,.47,1.11,1.79,1.79,0,0,0,1.24.42h.22c.29,0,.44.22.44.68s-.15.7-.44.7h-.22a2.68,2.68,0,0,1-1-.18,1.76,1.76,0,0,1-.79-.62Z"/><path class="cls-3" d="M455.44,209.77h.9a7.05,7.05,0,0,1,.79,0,10,10,0,0,1-1.8-.77,3.79,3.79,0,0,1-1-.78,1.86,1.86,0,0,1-.43-.88,4.84,4.84,0,0,1-.09-1.05,3.17,3.17,0,0,1,.22-1.15,3.12,3.12,0,0,1,.65-1,3.33,3.33,0,0,1,1.06-.77,3.26,3.26,0,0,1,1.46-.31,4.36,4.36,0,0,1,1.39.21,2.8,2.8,0,0,1,1.07.68,3.07,3.07,0,0,1,.7,1.2,5.72,5.72,0,0,1,.26,1.83v.91a3.16,3.16,0,0,1-.94,2.43,4.15,4.15,0,0,1-2.94.88h-4.7a.35.35,0,0,1-.35-.16.94.94,0,0,1-.1-.5,1.1,1.1,0,0,1,.1-.54.35.35,0,0,1,.35-.18Zm1.69-5.37a2.05,2.05,0,0,0-.87.18,2.34,2.34,0,0,0-.67.46,2,2,0,0,0-.55,1.39,3.22,3.22,0,0,0,.08.71,1.37,1.37,0,0,0,.44.67,5.14,5.14,0,0,0,1.1.7,16.44,16.44,0,0,0,2,.83,2,2,0,0,0,.64-1.6v-.67a3.4,3.4,0,0,0-.5-2A2,2,0,0,0,457.13,204.4Zm-.44-3.42h-1.61v-1.42h1.61Zm2.55,0h-1.61v-1.42h1.61Z"/><path class="cls-3" d="M468.82,211.15a3.37,3.37,0,0,1-1-.15,2.06,2.06,0,0,1-.85-.51,2.54,2.54,0,0,1-.6-1,4.38,4.38,0,0,1-.22-1.47v-9.37h1.31v9.13a2.42,2.42,0,0,0,.37,1.39,1.36,1.36,0,0,0,1.22.56h.34c.29,0,.44.22.44.68s-.15.7-.44.7Z"/><path class="cls-3" d="M478.09,208.28a2.57,2.57,0,0,0,.77,1.16,1.9,1.9,0,0,0,1.18.33h1.32a.34.34,0,0,1,.35.17,1.11,1.11,0,0,1,.09.51,1.17,1.17,0,0,1-.09.53.36.36,0,0,1-.35.17h-1.42a3,3,0,0,1-1.12-.18,2.12,2.12,0,0,1-.76-.49,2.79,2.79,0,0,1-.53-.73,9,9,0,0,1-.39-.93L475.19,210c-.35.2-.68.37-1,.53a5.41,5.41,0,0,1-1.05.37,9.8,9.8,0,0,1-1.23.21,14.14,14.14,0,0,1-1.54.07h-1A.35.35,0,0,1,469,211a.94.94,0,0,1-.1-.5,1.1,1.1,0,0,1,.1-.54.35.35,0,0,1,.35-.18h1c.52,0,1,0,1.39-.06a6.91,6.91,0,0,0,1.1-.16,5.54,5.54,0,0,0,.95-.29,6.4,6.4,0,0,0,.9-.46l3.4-2a8,8,0,0,0-.34-.77,2,2,0,0,0-.46-.59,1.75,1.75,0,0,0-.67-.38,3.52,3.52,0,0,0-1-.13h-4.5l.12-1.38h4.56a5.08,5.08,0,0,1,1.07.12,2.56,2.56,0,0,1,1,.51,4.17,4.17,0,0,1,.92,1.15,7.22,7.22,0,0,1,.71,2Zm-3,6.67h-1.68v-1.47h1.68Z"/><path class="cls-3" d="M482.89,209.77a1.82,1.82,0,0,0,1.29-.43,1.54,1.54,0,0,0,.44-1.16v-2.77h1.3v2.77a1.65,1.65,0,0,0,.15.74,1.39,1.39,0,0,0,.4.49,1.38,1.38,0,0,0,.54.27,2.16,2.16,0,0,0,.62.09h.6c.31,0,.47.22.47.68s-.16.7-.47.7h-.64a3.31,3.31,0,0,1-1.34-.27,2.18,2.18,0,0,1-1-1,2.57,2.57,0,0,1-1.05,1,3.09,3.09,0,0,1-1.28.27h-1.53A.36.36,0,0,1,481,211a1.06,1.06,0,0,1-.09-.5A1.25,1.25,0,0,1,481,210a.36.36,0,0,1,.35-.18Zm3.07-6.94h-1.68v-1.46H486Z"/><path class="cls-3" d="M490,209.77a1.83,1.83,0,0,0,1.26-.43,1.49,1.49,0,0,0,.47-1.16v-2.77h1.31v2.77a2.94,2.94,0,0,1-.8,2.2,3,3,0,0,1-2.16.77h-1.89a.36.36,0,0,1-.35-.16,1.06,1.06,0,0,1-.09-.5,1.25,1.25,0,0,1,.09-.54.36.36,0,0,1,.35-.18Zm-.12,5.14h-1.55v-1.43h1.55Zm2.61,0H491v-1.43h1.52Z"/><path class="cls-3" d="M495.59,198.69h1.3v12.46h-1.3Z"/><path class="cls-3" d="M506,213a5.06,5.06,0,0,1-1,1.64,4.56,4.56,0,0,1-1.51,1,4.8,4.8,0,0,1-1.9.37h-1.19l-.1-1.36h1a4.31,4.31,0,0,0,1.73-.32,3.32,3.32,0,0,0,1.87-2.07,4.55,4.55,0,0,0,.22-1.43v-5.42h1.29v5.42A6,6,0,0,1,506,213Z"/><path class="cls-3" d="M516,206.37a4.15,4.15,0,0,1,.76,1.15,3.11,3.11,0,0,1,.23,1.12,2.35,2.35,0,0,1-.78,1.8,3.15,3.15,0,0,1-2.2.71h-5.6l-.1-1.38h5.54a1.87,1.87,0,0,0,1.22-.37,1.15,1.15,0,0,0,.43-.94,1.67,1.67,0,0,0-.14-.62,2.19,2.19,0,0,0-.42-.65L511.2,203l1-1Z"/><path class="cls-3" d="M526,210.83a6,6,0,0,1-.36,2.12,4.87,4.87,0,0,1-1,1.64,4.56,4.56,0,0,1-1.51,1,4.64,4.64,0,0,1-1.88.37h-1.19l-.1-1.36h1a4.26,4.26,0,0,0,1.72-.32,3.32,3.32,0,0,0,1.19-.86,3.44,3.44,0,0,0,.68-1.21,4.55,4.55,0,0,0,.22-1.43v-5.42h1.29v2.83a1.4,1.4,0,0,0,.47,1.11,1.79,1.79,0,0,0,1.24.42H528c.29,0,.44.22.44.68s-.15.7-.44.7h-.22a2.68,2.68,0,0,1-1-.18,1.76,1.76,0,0,1-.79-.62Z"/><path class="cls-3" d="M529.5,209.77a1.79,1.79,0,0,0,1.29-.43,1.54,1.54,0,0,0,.44-1.16v-2.77h1.31v2.77a1.65,1.65,0,0,0,.15.74,1.43,1.43,0,0,0,.93.76,2.18,2.18,0,0,0,.63.09h.6c.31,0,.46.22.46.68s-.15.7-.46.7h-.64a3.32,3.32,0,0,1-1.35-.27,2.18,2.18,0,0,1-1-1,2.51,2.51,0,0,1-1.05,1,3.06,3.06,0,0,1-1.28.27H528a.38.38,0,0,1-.36-.16,1.06,1.06,0,0,1-.09-.5,1.25,1.25,0,0,1,.09-.54.37.37,0,0,1,.36-.18Zm1.69-6.94h-1.61v-1.42h1.61Zm2.55,0h-1.6v-1.42h1.6Z"/><path class="cls-3" d="M536.38,209.77a1.78,1.78,0,0,0,1.28-.43,1.51,1.51,0,0,0,.44-1.16v-2.77h1.31v2.77a1.65,1.65,0,0,0,.15.74,1.37,1.37,0,0,0,.39.49,1.35,1.35,0,0,0,.55.27,2.11,2.11,0,0,0,.62.09h.6c.31,0,.46.22.46.68s-.15.7-.46.7h-.64a3.39,3.39,0,0,1-1.35-.27,2.17,2.17,0,0,1-1-1,2.53,2.53,0,0,1-1.06,1,3,3,0,0,1-1.27.27h-1.53a.35.35,0,0,1-.35-.16,1.06,1.06,0,0,1-.09-.5,1.25,1.25,0,0,1,.09-.54.35.35,0,0,1,.35-.18Zm1.28,5.14h-1.55v-1.43h1.55Zm2.61,0h-1.52v-1.43h1.52Z"/><path class="cls-3" d="M543.53,209.77a1.85,1.85,0,0,0,1.26-.43,1.49,1.49,0,0,0,.47-1.16v-2.77h1.3v2.77a2.93,2.93,0,0,1-.79,2.2,3,3,0,0,1-2.16.77h-1.89a.36.36,0,0,1-.35-.16,1.06,1.06,0,0,1-.09-.5,1.25,1.25,0,0,1,.09-.54.36.36,0,0,1,.35-.18Zm.68-6.94H542.6v-1.42h1.61Zm2.55,0h-1.6v-1.42h1.6Z"/><path class="cls-3" d="M554.92,211.15a3.61,3.61,0,0,1-1.42-.25,2.71,2.71,0,0,1-1-.67,2.51,2.51,0,0,1-.54-1,3.83,3.83,0,0,1-.17-1.18v-2.7h1.28v2.4a2.18,2.18,0,0,0,.47,1.45,2,2,0,0,0,1.62.56h6.85a1.82,1.82,0,0,0,1.28-.43,1.51,1.51,0,0,0,.45-1.16v-2.77h1.31v3a2.92,2.92,0,0,1-.23,1.18,2.61,2.61,0,0,1-.63.89,2.58,2.58,0,0,1-.9.54,3.3,3.3,0,0,1-1.1.18Zm4.28,3.8h-1.69v-1.47h1.69Z"/><path class="cls-3" d="M570.21,211.15a3.32,3.32,0,0,1-1-.15,2.16,2.16,0,0,1-.86-.51,2.66,2.66,0,0,1-.59-1,4.14,4.14,0,0,1-.22-1.47v-9.37h1.31v9.13a2.42,2.42,0,0,0,.37,1.39,1.34,1.34,0,0,0,1.21.56h.34c.3,0,.45.22.45.68s-.15.7-.45.7Z"/><path class="cls-3" d="M571.5,209.77a1.9,1.9,0,0,0,1.31-.43,1.47,1.47,0,0,0,.48-1.16v-2.77h1.3v2.77a1.65,1.65,0,0,0,.15.74,1.39,1.39,0,0,0,.4.49,1.5,1.5,0,0,0,.57.27,2.28,2.28,0,0,0,.63.09,2.17,2.17,0,0,0,1.44-.43,1.47,1.47,0,0,0,.49-1.16v-2.77h1.31v2.77a1.39,1.39,0,0,0,.49,1.23,1.84,1.84,0,0,0,1.11.36,1.73,1.73,0,0,0,1.22-.43,1.51,1.51,0,0,0,.45-1.16v-2.77h1.31v2.77a2.72,2.72,0,0,1-2.94,3,3.31,3.31,0,0,1-1.34-.27,2.18,2.18,0,0,1-1-1,2.28,2.28,0,0,1-1.11,1,3.75,3.75,0,0,1-1.4.27,3.68,3.68,0,0,1-1.43-.27,2.16,2.16,0,0,1-1-1,2.38,2.38,0,0,1-1.09,1,3.47,3.47,0,0,1-1.36.27h-.65a.36.36,0,0,1-.35-.16,1.06,1.06,0,0,1-.09-.5,1.25,1.25,0,0,1,.09-.54.36.36,0,0,1,.35-.18Z"/></g></svg>