<svg xmlns="http://www.w3.org/2000/svg" viewBox="0 0 429 252">
  <title>Artboard 1 copy 59</title>
  <g id="Isolation_Mode" data-name="Isolation Mode">
    <g>
      <path d="M86.3,133.07c-1.06,0-1.59-.56-1.59-1.69a2,2,0,0,1,.38-1.35,2,2,0,0,1,2.4,0,1.94,1.94,0,0,1,.39,1.35C87.88,132.51,87.35,133.07,86.3,133.07ZM87.45,116c0,1.2,0,2.26,0,3.17s0,1.76-.09,2.55-.07,1.56-.12,2.29-.11,1.52-.18,2.36H85.61c-.07-.84-.13-1.63-.19-2.36s-.12-1.49-.17-2.29-.08-1.64-.1-2.55,0-2,0-3.17v-4.54h2.34Z"/>
      <path d="M99.26,130.59a3.92,3.92,0,0,0,1.33-.2,2.74,2.74,0,0,0,.88-.5,2.1,2.1,0,0,0,.51-.67,1.81,1.81,0,0,0,.16-.68,4.26,4.26,0,0,0-.15-1c-.09-.41-.27-1-.52-1.8s-.61-1.85-1.08-3.17-1.07-3-1.82-5.08l2.2-.9,3.85,11a5.82,5.82,0,0,0,1.33,2.31,3.11,3.11,0,0,0,2.13.68h.5c.53,0,.79.41.79,1.22s-.26,1.26-.79,1.26h-.5a5.86,5.86,0,0,1-2.27-.45,4.45,4.45,0,0,1-2-2,3.86,3.86,0,0,1-1.89,2,6.46,6.46,0,0,1-2.47.46H91.73l-.18-2.48Z"/>
      <path d="M111.32,130.59a3.19,3.19,0,0,0,2.3-.76,2.73,2.73,0,0,0,.79-2.08v-5h2.34v5a3,3,0,0,0,.27,1.33,2.58,2.58,0,0,0,.71.88,2.62,2.62,0,0,0,1,.49,4.56,4.56,0,0,0,1.11.14h1.08c.55,0,.83.41.83,1.22s-.28,1.26-.83,1.26h-1.15a6,6,0,0,1-2.41-.48,3.9,3.9,0,0,1-1.84-1.86,4.47,4.47,0,0,1-1.89,1.86,5.48,5.48,0,0,1-2.28.48h-2.74a.66.66,0,0,1-.63-.28,1.93,1.93,0,0,1-.16-.9,2.26,2.26,0,0,1,.16-1,.65.65,0,0,1,.63-.32Zm2.3,9.22h-2.77v-2.56h2.77Zm4.68,0h-2.74v-2.56h2.74Z"/>
      <path d="M122.19,130.59a3.4,3.4,0,0,0,2.36-.76,2.65,2.65,0,0,0,.84-2.08v-5h2.34v5a3,3,0,0,0,.27,1.33,2.49,2.49,0,0,0,.72.88,2.88,2.88,0,0,0,1,.49,4.81,4.81,0,0,0,1.14.14,3.83,3.83,0,0,0,2.57-.76,2.59,2.59,0,0,0,.88-2.08v-5h2.34v5a2.53,2.53,0,0,0,.88,2.21,3.37,3.37,0,0,0,2,.63,3,3,0,0,0,2.21-.76,2.76,2.76,0,0,0,.78-2.08v-5h2.34v5a3,3,0,0,0,.27,1.33,2.76,2.76,0,0,0,.68.88,2.57,2.57,0,0,0,1,.49,4.45,4.45,0,0,0,1.08.14h.68a.64.64,0,0,1,.63.31,2,2,0,0,1,.16.91,2.13,2.13,0,0,1-.16,1,.65.65,0,0,1-.63.3h-.68a6.08,6.08,0,0,1-2.42-.48,3.88,3.88,0,0,1-1.83-1.86,4.43,4.43,0,0,1-1.93,1.86,5.3,5.3,0,0,1-2.14.48,5.85,5.85,0,0,1-2.38-.48,3.86,3.86,0,0,1-1.79-1.86,4.14,4.14,0,0,1-2,1.86,6.73,6.73,0,0,1-2.5.48,6.6,6.6,0,0,1-2.56-.48,3.83,3.83,0,0,1-1.87-1.86,4.18,4.18,0,0,1-2,1.86,6.25,6.25,0,0,1-2.44.48h-1.16a.66.66,0,0,1-.63-.28,1.93,1.93,0,0,1-.16-.9,2.26,2.26,0,0,1,.16-1,.65.65,0,0,1,.63-.32Zm12.45-12.42h-2.87v-2.56h2.87Zm2.31-4.32h-2.88v-2.52H137Zm2.27,4.32h-2.88v-2.56h2.88Z"/>
      <path d="M158,130.59a3,3,0,0,0,2.24-.67,2.3,2.3,0,0,0,.61-1.6,4.86,4.86,0,0,0-.22-1.37,4.27,4.27,0,0,0-1.19-1.72l-7.77-7.74v-2.56l11.91-4.72.62,2.34-10.23,4,6.52,6.52q1.8,1.83,3.11,3.09c.88.84,1.63,1.54,2.25,2.11a19.38,19.38,0,0,0,1.59,1.31,6.35,6.35,0,0,0,1.18.69,4.37,4.37,0,0,0,1,.27c.32,0,.69.05,1.1.05s.79.41.79,1.22-.26,1.26-.79,1.26a8.37,8.37,0,0,1-1.84-.18,5.61,5.61,0,0,1-1.64-.68,13.81,13.81,0,0,1-1.85-1.37c-.67-.57-1.48-1.33-2.41-2.27a4.37,4.37,0,0,1-.24,2,3.31,3.31,0,0,1-1,1.38,4.28,4.28,0,0,1-1.56.81,7.06,7.06,0,0,1-2,.27h-9.72a.66.66,0,0,1-.63-.28,1.93,1.93,0,0,1-.16-.9,2.26,2.26,0,0,1,.16-1,.65.65,0,0,1,.63-.32Z"/>
      <path d="M214.44,130.59a3.24,3.24,0,0,0,2.25-.76,2.65,2.65,0,0,0,.84-2.08v-5h2.34v5a5.26,5.26,0,0,1-1.42,3.94,5.33,5.33,0,0,1-3.87,1.38h-44a.66.66,0,0,1-.63-.28,2.07,2.07,0,0,1-.16-.9,2.42,2.42,0,0,1,.16-1,.65.65,0,0,1,.63-.32Zm4.46-12.42h-3v-2.63h3Z"/>
      <path d="M229.88,110.75h2.34v22.32h-2.34Z"/>
      <path d="M240.12,136.3a8.91,8.91,0,0,1-1.82,2.93,7.84,7.84,0,0,1-2.72,1.89,8.63,8.63,0,0,1-3.4.67h-2.12l-.18-2.45h1.76a7.49,7.49,0,0,0,3.1-.58,5.88,5.88,0,0,0,2.12-1.53,6.26,6.26,0,0,0,1.23-2.18,8.29,8.29,0,0,0,.39-2.55v-9.72h2.31v9.72A10.28,10.28,0,0,1,240.12,136.3Z"/>
      <path d="M255.62,133.07a5.94,5.94,0,0,1-1.8-.27,3.74,3.74,0,0,1-1.53-.91,4.57,4.57,0,0,1-1.06-1.71,7.51,7.51,0,0,1-.4-2.65V110.75h2.34V127.1a4.33,4.33,0,0,0,.67,2.5,2.42,2.42,0,0,0,2.17,1h.62c.52,0,.79.41.79,1.22s-.27,1.26-.79,1.26Z"/>
      <path d="M256.63,133.07a.65.65,0,0,1-.63-.28,1.91,1.91,0,0,1-.17-.9,2.24,2.24,0,0,1,.17-1,.64.64,0,0,1,.63-.32h6.91a8.52,8.52,0,0,1-2.72-2.27,5,5,0,0,1-1-3.13,6.22,6.22,0,0,1,.44-2.29,5.34,5.34,0,0,1,1.26-1.92,6.2,6.2,0,0,1,2-1.33,6.69,6.69,0,0,1,2.69-.51,6,6,0,0,1,2.57.51,5.33,5.33,0,0,1,1.84,1.35,5.59,5.59,0,0,1,1.09,1.89A6.42,6.42,0,0,1,272,125c0,2.21-1.12,4.07-3.38,5.58H275a3.32,3.32,0,0,0,2.18-.65,2.07,2.07,0,0,0,.77-1.69,2.93,2.93,0,0,0-.23-1.1,4.51,4.51,0,0,0-.81-1.24l-6.52-7.56,1.73-1.62,6.63,7.7a8.72,8.72,0,0,1,1.33,2.16,5.53,5.53,0,0,1,.39,2,4.23,4.23,0,0,1-1.38,3.23,5.58,5.58,0,0,1-3.91,1.27h-4c-1.1,0-2.08,0-2.93-.09a5.82,5.82,0,0,1-2-.45,4.63,4.63,0,0,1-1.24.33c-.49.07-1,.12-1.51.16s-1,0-1.51,0h-5.38Zm9.28-11.52a3.7,3.7,0,0,0-2.86,1.16,4,4,0,0,0-1.06,2.8,3.32,3.32,0,0,0,.4,1.66,5.44,5.44,0,0,0,1,1.3,7.38,7.38,0,0,0,1.35,1c.5.29,1,.54,1.46.76.36-.22.76-.46,1.19-.74a5.85,5.85,0,0,0,1.19-1,5.33,5.33,0,0,0,.9-1.29,3.51,3.51,0,0,0,.36-1.59,4.13,4.13,0,0,0-1-3A3.75,3.75,0,0,0,265.91,121.55Z"/>
      <path d="M296.48,127.1a4.66,4.66,0,0,0,.61,2.52,2.42,2.42,0,0,0,2.23,1h.61a.61.61,0,0,1,.6.31,2,2,0,0,1,.16.91,2.13,2.13,0,0,1-.16,1,.62.62,0,0,1-.6.3h-.61a5.54,5.54,0,0,1-2.88-.7,4,4,0,0,1-1.69-2.54,3.7,3.7,0,0,1-1.06.9,6,6,0,0,1-1.33.56,8.76,8.76,0,0,1-1.41.27,12.27,12.27,0,0,1-1.31.07,5.51,5.51,0,0,1-4-1.36,5.84,5.84,0,0,1-1.38-4.29,8.86,8.86,0,0,1,.38-2.61,7.16,7.16,0,0,1,1.13-2.28,5.48,5.48,0,0,1,1.89-1.62,5.55,5.55,0,0,1,2.68-.62h3.89v-2.48h2.27Zm-6.37,2.16a5.16,5.16,0,0,0,3-.76,2.25,2.25,0,0,0,1.1-1.91v-5.4h-3.85a3.49,3.49,0,0,0-2.88,1.25,5,5,0,0,0-1,3.29,3.39,3.39,0,0,0,.94,2.77A4.16,4.16,0,0,0,290.11,129.26Z"/>
      <path d="M300.51,130.59a3,3,0,0,0,2.12-.68,2.43,2.43,0,0,0,.72-1.84V126.7a7,7,0,0,1,1.61-4.89A5.68,5.68,0,0,1,309.4,120a5.39,5.39,0,0,1,4.43,1.8,7.06,7.06,0,0,1,1.48,4.61v1.12a2.92,2.92,0,0,0,.79,2.37,3,3,0,0,0,2,.65h.61a.64.64,0,0,1,.63.31,2,2,0,0,1,.16.91,2.13,2.13,0,0,1-.16,1,.65.65,0,0,1-.63.3h-.61a6.2,6.2,0,0,1-1.14-.1,4,4,0,0,1-1.08-.4,3.39,3.39,0,0,1-.95-.81,5,5,0,0,1-.76-1.35,4.83,4.83,0,0,1-2.28,2.14,7.18,7.18,0,0,1-2.68.52,6.88,6.88,0,0,1-2.74-.55,4.22,4.22,0,0,1-2.05-2,4.34,4.34,0,0,1-.79,1.33,3.76,3.76,0,0,1-1,.77,3.33,3.33,0,0,1-1.06.36,6.6,6.6,0,0,1-1.06.09h-.58a.66.66,0,0,1-.63-.28,2.07,2.07,0,0,1-.16-.9,2.42,2.42,0,0,1,.16-1,.65.65,0,0,1,.63-.32ZM313,126.74a5.08,5.08,0,0,0-.83-3,3.24,3.24,0,0,0-2.84-1.17c-2.5,0-3.74,1.45-3.74,4.35a3.56,3.56,0,0,0,1,2.77,3.77,3.77,0,0,0,2.65.94,3.68,3.68,0,0,0,2.79-1A4,4,0,0,0,313,126.74Z"/>
      <path d="M319.63,130.59a3.11,3.11,0,0,0,2.28-.76,2.76,2.76,0,0,0,.78-2.08v-17H325v17a3,3,0,0,0,.27,1.33,2.55,2.55,0,0,0,.7.88,2.69,2.69,0,0,0,1,.49,4.58,4.58,0,0,0,1.12.14h.5a.64.64,0,0,1,.63.31,2,2,0,0,1,.16.91,2.13,2.13,0,0,1-.16,1,.65.65,0,0,1-.63.3H328a6.06,6.06,0,0,1-2.41-.48,3.84,3.84,0,0,1-1.83-1.86,4.26,4.26,0,0,1-1.89,1.86,5.62,5.62,0,0,1-2.25.48h-.94a.66.66,0,0,1-.63-.28,1.93,1.93,0,0,1-.16-.9,2.26,2.26,0,0,1,.16-1,.65.65,0,0,1,.63-.32Z"/>
      <path d="M338.09,130.59a2.93,2.93,0,0,0,2.23-.67,2.26,2.26,0,0,0,.62-1.6,4.86,4.86,0,0,0-.22-1.37,4.27,4.27,0,0,0-1.19-1.72l-7.77-7.74v-2.56l11.91-4.72.62,2.34-10.23,4,6.52,6.52c.57.6,1.05,1.14,1.42,1.62a8.15,8.15,0,0,1,.88,1.36,4.59,4.59,0,0,1,.43,1.26,6.77,6.77,0,0,1,.11,1.3,4.76,4.76,0,0,1-.38,2A3.55,3.55,0,0,1,342,132a4.65,4.65,0,0,1-1.62.81,7.37,7.37,0,0,1-2.05.27h-9.72a.66.66,0,0,1-.63-.28,1.93,1.93,0,0,1-.16-.9,2.26,2.26,0,0,1,.16-1,.65.65,0,0,1,.63-.32Z"/>
    </g>
  </g>
</svg>
