<svg xmlns="http://www.w3.org/2000/svg" viewBox="0 0 429 252">
  <title>Artboard 1 copy 58</title>
  <g id="Isolation_Mode" data-name="Isolation Mode">
    <g>
      <path d="M96.31,111H85.42v29.61H78.1V111H67.36v-5.94h29Z"/>
      <path d="M125.78,120.81a19.15,19.15,0,0,0-2.54-.19q-4,0-5.25,2.71v17.28h-7V114.2h6.66l.2,3.15a6.52,6.52,0,0,1,5.88-3.64,7.5,7.5,0,0,1,2.2.31Z"/>
      <path d="M156.25,140.61a7.72,7.72,0,0,1-.71-2.37,8.52,8.52,0,0,1-6.66,2.86,9.38,9.38,0,0,1-6.44-2.25,7.2,7.2,0,0,1-2.55-5.66,7.49,7.49,0,0,1,3.11-6.45q3.12-2.23,9-2.27h3.25V123a4.39,4.39,0,0,0-.94-2.93,3.72,3.72,0,0,0-3-1.1,4.22,4.22,0,0,0-2.8.86,2.91,2.91,0,0,0-1,2.34h-7.05a7.11,7.11,0,0,1,1.41-4.25,9.39,9.39,0,0,1,4-3.06,14.58,14.58,0,0,1,5.81-1.11,11.56,11.56,0,0,1,7.75,2.45,8.61,8.61,0,0,1,2.87,6.9v11.45a12.5,12.5,0,0,0,1,5.69v.41Zm-5.84-4.91a6.09,6.09,0,0,0,2.88-.69,4.67,4.67,0,0,0,2-1.87V128.6h-2.64q-5.3,0-5.64,3.66l0,.42a2.81,2.81,0,0,0,.92,2.17A3.61,3.61,0,0,0,150.41,135.7Z"/>
      <path d="M191.23,135.41a4.67,4.67,0,0,0,3.18-1.07,3.81,3.81,0,0,0,1.27-2.86h6.61a9,9,0,0,1-1.46,4.92,9.66,9.66,0,0,1-4,3.47,12.32,12.32,0,0,1-5.52,1.23,11.47,11.47,0,0,1-8.94-3.6q-3.27-3.6-3.27-10v-.46q0-6.11,3.25-9.74a11.31,11.31,0,0,1,8.91-3.64,11.09,11.09,0,0,1,7.94,2.82,9.94,9.94,0,0,1,3,7.5h-6.61a4.91,4.91,0,0,0-1.27-3.35,4.74,4.74,0,0,0-6.95.51c-.84,1.2-1.26,3.15-1.26,5.83v.74q0,4.08,1.25,5.87A4.29,4.29,0,0,0,191.23,135.41Z"/>
      <path d="M228.42,130l-2.54,2.54v8.05h-7.06v-37.5h7.06v20.78l1.36-1.76L234,114.2h8.47l-9.55,11,10.38,15.4H235.2Z"/>
      <path d="M258,107.36a3.45,3.45,0,0,1,1.06-2.61,4.57,4.57,0,0,1,5.78,0,3.73,3.73,0,0,1,0,5.25,4.53,4.53,0,0,1-5.73,0A3.47,3.47,0,0,1,258,107.36Zm7.5,33.25H258.4V114.2h7.08Z"/>
      <path d="M290.28,114.2l.22,3a9.23,9.23,0,0,1,7.59-3.54c2.8,0,4.89.82,6.25,2.46s2.07,4.1,2.1,7.38v17.06h-7.05V123.72a4.57,4.57,0,0,0-1-3.26,4.35,4.35,0,0,0-3.25-1A4.85,4.85,0,0,0,290.7,122v18.63h-7.06V114.2Z"/>
      <path d="M323.26,127.21q0-6.08,2.9-9.79a9.36,9.36,0,0,1,7.8-3.71,8.21,8.21,0,0,1,6.76,3l.29-2.49h6.4v25.53a11.3,11.3,0,0,1-1.58,6,10.06,10.06,0,0,1-4.43,3.91,15.63,15.63,0,0,1-6.69,1.34,14.37,14.37,0,0,1-5.66-1.16,10,10,0,0,1-4.17-3l3.12-4.3a8.27,8.27,0,0,0,6.4,3,6.05,6.05,0,0,0,4.37-1.5,5.63,5.63,0,0,0,1.56-4.26v-1.42a8.17,8.17,0,0,1-6.42,2.76,9.35,9.35,0,0,1-7.7-3.72q-2.94-3.72-2.95-9.88Zm7.06.52a9.64,9.64,0,0,0,1.44,5.64,4.59,4.59,0,0,0,4,2,4.91,4.91,0,0,0,4.61-2.42V121.87a4.89,4.89,0,0,0-4.57-2.43,4.63,4.63,0,0,0-4,2.08Q330.32,123.6,330.32,127.73Z"/>
    </g>
  </g>
</svg>
