<svg xmlns="http://www.w3.org/2000/svg" viewBox="0 0 426 252">
  <title>material-39</title>
  <g id="Isolation_Mode" data-name="Isolation Mode">
    <g>
      <path d="M306.22,116.64c1.94,0,3.28-.39,4-1.17a3.5,3.5,0,0,0,1.09-2.34,8.15,8.15,0,0,0-.25-1.71c-.17-.69-.5-1.83-1-3.41s-1.23-3.77-2.2-6.55-2.3-6.42-4-10.92L312,87.12l8.59,24a10.32,10.32,0,0,0,2.38,4.21,6,6,0,0,0,4.29,1.3h1.08c1.22,0,1.84,1.47,1.84,4.41,0,3.17-.62,4.76-1.84,4.76h-1.08a14.41,14.41,0,0,1-5.29-1,10.21,10.21,0,0,1-4.63-4.26,9.46,9.46,0,0,1-4.38,4.13,14.33,14.33,0,0,1-5.71,1.13H289.3l-.42-9.17Z"/>
      <path d="M330.23,116.64q5.67,0,5.67-5.42V74.12h8.5v37.1a4.72,4.72,0,0,0,1.79,4.16,7.3,7.3,0,0,0,4.3,1.26h1.33c1.22,0,1.84,1.47,1.84,4.41,0,3.17-.62,4.76-1.84,4.76h-1.67a15.58,15.58,0,0,1-5.75-1,9.45,9.45,0,0,1-4.58-4.21,9.77,9.77,0,0,1-4.38,4.21,13.14,13.14,0,0,1-5.21,1h-1.92a1.45,1.45,0,0,1-1.46-1.13,11,11,0,0,1-.37-3.29,12.71,12.71,0,0,1,.37-3.59,1.45,1.45,0,0,1,1.46-1.16Z"/>
      <path d="M359.49,116.64c3.72,0,5.59-1.81,5.59-5.42v-9.84h8.5V111.8q0,6.92-3.5,10.46t-9.84,3.55h-8.42a1.45,1.45,0,0,1-1.46-1.13,11,11,0,0,1-.37-3.29,12.71,12.71,0,0,1,.37-3.59,1.45,1.45,0,0,1,1.46-1.16Zm4.34,27h-9.42v-8.51h9.42Z"/>
    </g>
    <g>
      <path d="M311.31,183.26a9.53,9.53,0,0,1-1.95,3.14,8.49,8.49,0,0,1-2.91,2,9.32,9.32,0,0,1-3.65.71h-2.27l-.2-2.62h1.89a8.13,8.13,0,0,0,3.32-.62,6.37,6.37,0,0,0,2.28-1.64,6.62,6.62,0,0,0,1.31-2.33,9,9,0,0,0,.43-2.74V168.77H312v10.42A11,11,0,0,1,311.31,183.26Z"/>
      <path d="M316.89,155.88h2.5v21.26h5.25a3.46,3.46,0,0,0,2.34-.75,2.61,2.61,0,0,0,.86-2.06V155.88h2.51v18.64a5.73,5.73,0,0,1-.42,2.26,5,5,0,0,1-1.16,1.66,4.88,4.88,0,0,1-1.74,1,6.61,6.61,0,0,1-2.16.35h-8Z"/>
      <path d="M338.65,186.52a7.74,7.74,0,0,0,3-.54,6.45,6.45,0,0,0,2.18-1.47,6.28,6.28,0,0,0,1.35-2.14,8.41,8.41,0,0,0,.54-2.56h-3.86a10.5,10.5,0,0,1-3.24-.43,4.58,4.58,0,0,1-2-1.23,4.46,4.46,0,0,1-1-2,10.63,10.63,0,0,1-.29-2.57,9.13,9.13,0,0,1,.42-2.78,7.33,7.33,0,0,1,1.24-2.31,5.91,5.91,0,0,1,2-1.6,6.27,6.27,0,0,1,2.8-.6,7.05,7.05,0,0,1,2.43.42,5.53,5.53,0,0,1,2.05,1.34,6.38,6.38,0,0,1,1.41,2.35,10.52,10.52,0,0,1,.52,3.49v3.2h3.7a.66.66,0,0,1,.64.33,2.29,2.29,0,0,1,.17,1,2.38,2.38,0,0,1-.17,1,.66.66,0,0,1-.64.33H348.1a10.74,10.74,0,0,1-.75,3.58,9.26,9.26,0,0,1-1.87,3,8.79,8.79,0,0,1-6.6,2.78h-4.09l-.23-2.62Zm-1-13a5.83,5.83,0,0,0,.21,1.66,2.46,2.46,0,0,0,.74,1.14,3.3,3.3,0,0,0,1.41.65,9.86,9.86,0,0,0,2.23.21h3.48v-2.89a6.06,6.06,0,0,0-1.12-4.09,4,4,0,0,0-3.09-1.23,3.46,3.46,0,0,0-2.85,1.23A5.1,5.1,0,0,0,337.68,173.48Z"/>
      <path d="M362.07,177.14a3.18,3.18,0,0,0,2.39-.71,2.44,2.44,0,0,0,.65-1.72,5.17,5.17,0,0,0-.23-1.46,4.72,4.72,0,0,0-1.27-1.86l-8.33-8.29v-2.74l12.77-5.05.65,2.5-11,4.29,7,7a20.41,20.41,0,0,1,1.52,1.74,8.77,8.77,0,0,1,.95,1.46,5.27,5.27,0,0,1,.46,1.35,7.74,7.74,0,0,1,.12,1.39,5.2,5.2,0,0,1-.41,2.14,3.86,3.86,0,0,1-1.14,1.49,5.21,5.21,0,0,1-1.73.87,8.07,8.07,0,0,1-2.2.29H351.88a.71.71,0,0,1-.67-.31,2,2,0,0,1-.18-1,2.34,2.34,0,0,1,.18-1,.68.68,0,0,1,.67-.35Zm-6.87-22.07,11.57-4.7.47,1.89-12,4.82Z"/>
      <path d="M375.86,183.26a9.7,9.7,0,0,1-1.95,3.14,8.49,8.49,0,0,1-2.91,2,9.35,9.35,0,0,1-3.65.71h-2.28l-.19-2.62h1.89a8.16,8.16,0,0,0,3.32-.62,6.37,6.37,0,0,0,2.28-1.64,6.62,6.62,0,0,0,1.31-2.33,9,9,0,0,0,.42-2.74V168.77h2.47v10.42A11.25,11.25,0,0,1,375.86,183.26Z"/>
    </g>
  </g>
</svg>
