<svg xmlns="http://www.w3.org/2000/svg" viewBox="0 0 426 252">
  <title>material-37</title>
  <g id="Isolation_Mode" data-name="Isolation Mode">
    <g>
      <g>
        <path d="M53.29,125.81V66.54H74.05q10.78,0,16.37,4.13T96,82.78a13.4,13.4,0,0,1-2.23,7.67,13,13,0,0,1-6.23,4.87,12.48,12.48,0,0,1,7.18,4.6,13.57,13.57,0,0,1,2.63,8.46q0,8.55-5.46,13t-15.55,4.48ZM65.5,91.37h9q9.24-.16,9.24-7.37,0-4-2.34-5.8t-7.39-1.77H65.5Zm0,8.63v16H76a10.08,10.08,0,0,0,6.73-2.06,7,7,0,0,0,2.43-5.68q0-8.15-8.43-8.26Z"/>
        <path d="M103.89,103.38a26.05,26.05,0,0,1,2.53-11.69,18.5,18.5,0,0,1,7.26-7.94,21.21,21.21,0,0,1,11-2.8q8.92,0,14.56,5.45t6.29,14.82l.08,3q0,10.14-5.66,16.26t-15.19,6.13q-9.52,0-15.2-6.11t-5.68-16.6Zm11.77.83c0,4.19.78,7.39,2.36,9.6a8.47,8.47,0,0,0,13.43,0c1.6-2.19,2.4-5.68,2.4-10.5q0-6.15-2.4-9.54a7.81,7.81,0,0,0-6.76-3.38A7.67,7.67,0,0,0,118,93.79Q115.65,97.17,115.66,104.21Z"/>
        <path d="M165.28,125.81H153.47V63.28h11.81Z"/>
        <path d="M173.14,103.46q0-10.3,4.62-16.41A15,15,0,0,1,190.4,81,13.5,13.5,0,0,1,201,85.75V63.28h11.81v62.53H202.2l-.57-4.69a13.83,13.83,0,0,1-11.32,5.5,14.93,14.93,0,0,1-12.47-6.13Q173.13,114.37,173.14,103.46Zm11.76.87q0,6.19,2.16,9.5a7,7,0,0,0,6.27,3.31,7.87,7.87,0,0,0,7.69-4.61V95.12a7.76,7.76,0,0,0-7.61-4.61Q184.91,90.51,184.9,104.33Z"/>
      </g>
      <g>
        <path d="M63.42,168.56h-8V180H53.12V152.57H62a10.17,10.17,0,0,1,6.86,2.13,8.13,8.13,0,0,1,.92,10.59,8,8,0,0,1-4.14,2.79l6.85,11.67V180H70.05Zm-8-1.95h7.11a6.58,6.58,0,0,0,4.69-1.67,6.27,6.27,0,0,0-.08-8.81,7.65,7.65,0,0,0-5.18-1.6H55.45Z"/>
        <path d="M85,180.38a8.74,8.74,0,0,1-8-4.85,11.14,11.14,0,0,1-1.16-5.14v-.81A12,12,0,0,1,77,164.29a9,9,0,0,1,3.18-3.7,7.84,7.84,0,0,1,4.41-1.35,7.34,7.34,0,0,1,5.88,2.53,10.24,10.24,0,0,1,2.18,6.93V170H78.14v.43a8.58,8.58,0,0,0,2,5.78,6.36,6.36,0,0,0,5,2.3,7.33,7.33,0,0,0,3.19-.66,6.94,6.94,0,0,0,2.51-2.11l1.42,1.08A8.24,8.24,0,0,1,85,180.38Zm-.41-19.22A5.62,5.62,0,0,0,80.33,163a8.6,8.6,0,0,0-2.12,5H90.44v-.25A7.42,7.42,0,0,0,88.76,163,5.18,5.18,0,0,0,84.62,161.16Z"/>
        <path d="M96.17,169.62A12.21,12.21,0,0,1,98.29,162a6.82,6.82,0,0,1,5.75-2.8,7.08,7.08,0,0,1,6.33,3.31l.11-2.93h2.11v20a8.62,8.62,0,0,1-2.2,6.23,7.89,7.89,0,0,1-6,2.3,9.13,9.13,0,0,1-4.06-1,7.87,7.87,0,0,1-3-2.54l1.26-1.35a7.13,7.13,0,0,0,5.69,2.94,5.81,5.81,0,0,0,4.41-1.67,6.62,6.62,0,0,0,1.63-4.63v-2.56a7.27,7.27,0,0,1-6.31,3,6.82,6.82,0,0,1-5.69-2.83,12.32,12.32,0,0,1-2.14-7.63Zm2.28.4a10.66,10.66,0,0,0,1.56,6.15,5.05,5.05,0,0,0,4.41,2.25,6,6,0,0,0,5.89-3.73v-9.48a6.32,6.32,0,0,0-2.28-3,6.08,6.08,0,0,0-3.57-1,5.11,5.11,0,0,0-4.43,2.23C99,164.92,98.45,167.11,98.45,170Z"/>
        <path d="M131.58,177.42q-2,3-6.5,3a6.28,6.28,0,0,1-5-1.9,8.26,8.26,0,0,1-1.73-5.6V159.62h2.24v13q0,5.82,4.71,5.82,4.89,0,6.2-4V159.62h2.26V180h-2.19Z"/>
        <path d="M142.19,180h-2.26V151.06h2.26Z"/>
        <path d="M161.18,180a10.41,10.41,0,0,1-.43-2.84,7.83,7.83,0,0,1-3,2.38,9.23,9.23,0,0,1-3.89.84,6.82,6.82,0,0,1-4.75-1.64,5.32,5.32,0,0,1-1.82-4.15,5.45,5.45,0,0,1,2.48-4.71,11.93,11.93,0,0,1,6.9-1.73h4.09v-2.32a4.48,4.48,0,0,0-1.35-3.44,5.6,5.6,0,0,0-3.93-1.25,6.11,6.11,0,0,0-3.9,1.21,3.57,3.57,0,0,0-1.54,2.9l-2.26,0A5.24,5.24,0,0,1,150,161a8.7,8.7,0,0,1,5.56-1.78,8,8,0,0,1,5.37,1.7,6.12,6.12,0,0,1,2,4.76v9.65a12,12,0,0,0,.62,4.42V180Zm-7.08-1.62a7.57,7.57,0,0,0,4-1.09,6.47,6.47,0,0,0,2.59-2.92v-4.49h-4a10.14,10.14,0,0,0-5.28,1.24,3.69,3.69,0,0,0-1.9,3.28,3.63,3.63,0,0,0,1.27,2.85A4.82,4.82,0,0,0,154.1,178.38Z"/>
        <path d="M178.4,161.54a8.31,8.31,0,0,0-1.53-.13,5.55,5.55,0,0,0-3.57,1.17,6.54,6.54,0,0,0-2.08,3.42v14H169V159.62h2.2l0,3.24a6,6,0,0,1,5.75-3.62,3.8,3.8,0,0,1,1.49.24Z"/>
      </g>
    </g>
  </g>
</svg>
