<svg xmlns="http://www.w3.org/2000/svg" viewBox="0 0 429 252">
  <title>Artboard 1 copy 61</title>
  <g id="Isolation_Mode" data-name="Isolation Mode">
    <g>
      <g>
        <path d="M98.73,129.57a1.72,1.72,0,0,0,.6-.09,1.21,1.21,0,0,0,.39-.22.89.89,0,0,0,.22-.3.72.72,0,0,0,.07-.3,2.24,2.24,0,0,0-.06-.44c0-.18-.12-.44-.23-.8s-.27-.82-.48-1.4l-.81-2.26,1-.4,1.71,4.88a2.51,2.51,0,0,0,.59,1,1.32,1.32,0,0,0,.94.31h.23c.23,0,.35.18.35.54s-.12.56-.35.56h-.23a2.45,2.45,0,0,1-1-.2,1.92,1.92,0,0,1-.88-.87,1.71,1.71,0,0,1-.84.86,2.87,2.87,0,0,1-1.1.21H95.39l-.08-1.1Z"/>
        <path d="M104.09,129.57a1.42,1.42,0,0,0,1-.34,1.23,1.23,0,0,0,.35-.93v-2.2h1v2.2a1.34,1.34,0,0,0,.12.6,1.1,1.1,0,0,0,.31.39,1.12,1.12,0,0,0,.44.21,1.57,1.57,0,0,0,.49.07h.48c.25,0,.37.18.37.54s-.12.56-.37.56h-.51a2.69,2.69,0,0,1-1.07-.21,1.74,1.74,0,0,1-.82-.83,2,2,0,0,1-.84.83,2.45,2.45,0,0,1-1,.21h-1.21a.29.29,0,0,1-.28-.13.79.79,0,0,1-.07-.4,1,1,0,0,1,.07-.43.29.29,0,0,1,.28-.14Zm1,4.09h-1.23v-1.13h1.23Zm2.08,0H106v-1.13h1.22Z"/>
        <path d="M108.77,129.57a1.4,1.4,0,0,0,1-.34,1.2,1.2,0,0,0,.37-.93v-7.55h1v7.55a2.17,2.17,0,0,1-2.34,2.37h-.48a.29.29,0,0,1-.28-.13.79.79,0,0,1-.07-.4,1,1,0,0,1,.07-.43.29.29,0,0,1,.28-.14Z"/>
        <path d="M114.61,133.46a3.19,3.19,0,0,0,1.24-.23,2.7,2.7,0,0,0,.9-.61,2.54,2.54,0,0,0,.56-.88,3.46,3.46,0,0,0,.22-1.07h-1.6a4.55,4.55,0,0,1-1.34-.17,1.84,1.84,0,0,1-1.26-1.32,4.38,4.38,0,0,1-.12-1.07,3.64,3.64,0,0,1,.18-1.15,3.15,3.15,0,0,1,.51-1,2.47,2.47,0,0,1,.84-.66,2.54,2.54,0,0,1,1.16-.25,3.1,3.1,0,0,1,1,.17,2.38,2.38,0,0,1,.85.56,2.64,2.64,0,0,1,.58,1,4.14,4.14,0,0,1,.22,1.45v1.33h1.53a.28.28,0,0,1,.27.13.89.89,0,0,1,.07.41,1,1,0,0,1-.07.43.28.28,0,0,1-.27.13h-1.56a4.67,4.67,0,0,1-.32,1.49,3.71,3.71,0,0,1-.77,1.23,3.77,3.77,0,0,1-1.19.84,3.64,3.64,0,0,1-1.55.31H113l-.1-1.08Zm-.4-5.41a2.84,2.84,0,0,0,.08.69,1,1,0,0,0,.31.47,1.42,1.42,0,0,0,.58.27,4.06,4.06,0,0,0,.93.09h1.44v-1.2a2.51,2.51,0,0,0-.46-1.7,1.65,1.65,0,0,0-1.28-.51,1.45,1.45,0,0,0-1.19.51A2.1,2.1,0,0,0,114.21,128.05Z"/>
        <path d="M121.53,129.57a1.41,1.41,0,0,0,1-.34,1.14,1.14,0,0,0,.38-.93v-2.2h1v2.2a2.15,2.15,0,0,1-2.35,2.37h-1.51a.3.3,0,0,1-.28-.13.92.92,0,0,1-.07-.4,1.16,1.16,0,0,1,.07-.43.3.3,0,0,1,.28-.14Zm.55-5.52H120.8v-1.14h1.28Zm2,0h-1.28v-1.14h1.28Z"/>
        <path d="M130.53,130.67a2.63,2.63,0,0,1-.8-.12,1.54,1.54,0,0,1-.68-.41,2,2,0,0,1-.48-.76,3.53,3.53,0,0,1-.17-1.17v-7.46h1V128a2,2,0,0,0,.29,1.11,1.09,1.09,0,0,0,1,.44H131q.36,0,.36.54c0,.38-.12.56-.36.56Z"/>
        <path d="M132.41,129.57a1.41,1.41,0,0,0,1-.34,1.18,1.18,0,0,0,.38-.93v-2.2h1v2.2a2.15,2.15,0,0,1-2.35,2.37H131a.3.3,0,0,1-.28-.13.92.92,0,0,1-.07-.4,1.16,1.16,0,0,1,.07-.43.3.3,0,0,1,.28-.14Zm.64,4.13h-1.34v-1.17h1.34Z"/>
        <path d="M144.22,133.46a5.26,5.26,0,0,0,1.37-.16,2.69,2.69,0,0,0,.9-.43,1.48,1.48,0,0,0,.51-.59,1.64,1.64,0,0,0,.15-.68,1.12,1.12,0,0,0-.2-.66.79.79,0,0,0-.68-.27H143.6l.08-1.1h5.68c.23,0,.35.18.35.54s-.12.56-.35.56h-1.57a.87.87,0,0,1,.28.43,2.1,2.1,0,0,1,.07.58,2.73,2.73,0,0,1-.18.93,2.48,2.48,0,0,1-.63.93,3.71,3.71,0,0,1-1.16.72,5,5,0,0,1-1.8.28h-1.6a3.54,3.54,0,0,1-2.79-1.1,4.36,4.36,0,0,1-1-3v-2.8h1v2.76a4.39,4.39,0,0,0,.17,1.25,2.47,2.47,0,0,0,.53,1,2.44,2.44,0,0,0,.9.63,3.47,3.47,0,0,0,1.32.23Z"/>
        <path d="M153.58,129.57a1.3,1.3,0,0,0,1-.3,1,1,0,0,0,.28-.71,2.49,2.49,0,0,0-.1-.61,1.93,1.93,0,0,0-.53-.77l-3.45-3.44v-1.13l5.29-2.1.27,1-4.54,1.78,2.9,2.89q.8.82,1.38,1.38c.39.37.72.69,1,.94s.51.44.7.58a2.47,2.47,0,0,0,.53.3,1.36,1.36,0,0,0,.46.12,3.48,3.48,0,0,0,.49,0c.23,0,.35.18.35.54s-.12.56-.35.56a3.35,3.35,0,0,1-.82-.08,2.45,2.45,0,0,1-.73-.3,5.94,5.94,0,0,1-.82-.61c-.3-.26-.66-.59-1.07-1a2,2,0,0,1-.11.91,1.52,1.52,0,0,1-.44.61,1.89,1.89,0,0,1-.69.36,3.19,3.19,0,0,1-.89.12h-4.32a.29.29,0,0,1-.28-.13.79.79,0,0,1-.07-.4,1,1,0,0,1,.07-.43.29.29,0,0,1,.28-.14Zm-2.85-9.15,4.8-2,.2.79-5,2Z"/>
        <path d="M160.46,129.57a1.42,1.42,0,0,0,1-.34,1.23,1.23,0,0,0,.35-.93v-2.2h1v2.2a1.34,1.34,0,0,0,.12.6,1.1,1.1,0,0,0,.31.39,1.15,1.15,0,0,0,.43.21,1.68,1.68,0,0,0,.5.07h.48c.24,0,.37.18.37.54s-.13.56-.37.56h-.51a2.74,2.74,0,0,1-1.08-.21,1.72,1.72,0,0,1-.81-.83,2.07,2.07,0,0,1-.84.83,2.52,2.52,0,0,1-1,.21h-1.21c-.14,0-.24,0-.28-.13a.77.77,0,0,1-.08-.4,1,1,0,0,1,.08-.43.28.28,0,0,1,.28-.14Zm1.35-5.52h-1.28v-1.14h1.28Zm2,0h-1.28v-1.14h1.28Z"/>
        <path d="M169.34,129.73c-.28.16-.54.3-.8.42a4.76,4.76,0,0,1-.83.3,8.65,8.65,0,0,1-1,.17c-.36,0-.77,0-1.23,0h-.78a.29.29,0,0,1-.28-.13.79.79,0,0,1-.07-.4,1,1,0,0,1,.07-.43.29.29,0,0,1,.28-.14h.8c.41,0,.78,0,1.1,0a7.13,7.13,0,0,0,.88-.13,5.08,5.08,0,0,0,.75-.23,4.92,4.92,0,0,0,.72-.37l2.71-1.57c-.09-.22-.18-.43-.27-.61a1.78,1.78,0,0,0-.36-.48,1.74,1.74,0,0,0-.54-.29,2.57,2.57,0,0,0-.8-.11h-3.58l.09-1.1h3.63a3.67,3.67,0,0,1,.86.1,2.06,2.06,0,0,1,.83.4,3.27,3.27,0,0,1,.74.92,6.05,6.05,0,0,1,.57,1.62Zm.07-6.9h-1.35v-1.17h1.35Z"/>
        <path d="M176.85,130.67a2.63,2.63,0,0,1-.8-.12,1.54,1.54,0,0,1-.68-.41,2,2,0,0,1-.48-.76,3.53,3.53,0,0,1-.17-1.17v-7.46h1V128a2,2,0,0,0,.29,1.11,1.09,1.09,0,0,0,1,.44h.27q.36,0,.36.54c0,.38-.12.56-.36.56Z"/>
        <path d="M177.87,129.57a1.49,1.49,0,0,0,1-.34,1.17,1.17,0,0,0,.37-.93v-2.2h1v2.2a1.34,1.34,0,0,0,.12.6,1.12,1.12,0,0,0,.32.39,1.32,1.32,0,0,0,.45.21,1.75,1.75,0,0,0,.51.07,1.67,1.67,0,0,0,1.14-.34,1.15,1.15,0,0,0,.39-.93v-2.2h1v2.2a1.15,1.15,0,0,0,.39,1,1.57,1.57,0,0,0,.89.28,1.34,1.34,0,0,0,1-.34,1.2,1.2,0,0,0,.36-.93v-2.2h1v2.2a2.15,2.15,0,0,1-2.34,2.37,2.72,2.72,0,0,1-1.07-.21,1.72,1.72,0,0,1-.81-.83,1.86,1.86,0,0,1-.89.83,3,3,0,0,1-1.11.21,3,3,0,0,1-1.14-.21,1.71,1.71,0,0,1-.83-.83,1.91,1.91,0,0,1-.87.83,2.81,2.81,0,0,1-1.08.21h-.52a.29.29,0,0,1-.28-.13.79.79,0,0,1-.07-.4,1,1,0,0,1,.07-.43.29.29,0,0,1,.28-.14Z"/>
        <path d="M202.13,130.67a2.22,2.22,0,0,1-.76-.14,1.41,1.41,0,0,1-.64-.5v.35a4.67,4.67,0,0,1-.27,1.6,3.93,3.93,0,0,1-.77,1.32,3.68,3.68,0,0,1-2.86,1.24h-1a3.53,3.53,0,0,1-2.78-1.1,4.36,4.36,0,0,1-1-3v-2.8h1v2.76a4.39,4.39,0,0,0,.17,1.25,2.47,2.47,0,0,0,.53,1,2.44,2.44,0,0,0,.9.63,3.45,3.45,0,0,0,1.31.23h.71a3.29,3.29,0,0,0,1.31-.25,2.82,2.82,0,0,0,.94-.67,2.74,2.74,0,0,0,.56-1,3.82,3.82,0,0,0,.18-1.17v-4.3h1v2.25a1.11,1.11,0,0,0,.37.89,1.44,1.44,0,0,0,1,.33h.17c.24,0,.35.18.35.54s-.11.56-.35.56Zm-5.22-4.93h-1.34v-1.16h1.34Z"/>
        <path d="M203.52,129.57a1.4,1.4,0,0,0,1-.34,1.19,1.19,0,0,0,.35-.93v-2.2h1v2.2a1.34,1.34,0,0,0,.12.6,1.12,1.12,0,0,0,.32.39,1.08,1.08,0,0,0,.43.21,1.61,1.61,0,0,0,.49.07h.48c.25,0,.37.18.37.54s-.12.56-.37.56h-.51a2.72,2.72,0,0,1-1.07-.21,1.78,1.78,0,0,1-.82-.83,2,2,0,0,1-.84.83,2.44,2.44,0,0,1-1,.21H202.3a.29.29,0,0,1-.28-.13.79.79,0,0,1-.07-.4,1,1,0,0,1,.07-.43.29.29,0,0,1,.28-.14Zm1.34-5.52h-1.28v-1.14h1.28Zm2,0h-1.28v-1.14h1.28Z"/>
        <path d="M208,129.57a1.27,1.27,0,0,0,.94-.31,1,1,0,0,0,.32-.81v-.61a3.12,3.12,0,0,1,.72-2.18,2.52,2.52,0,0,1,2-.78,2.91,2.91,0,0,1,1.15.21,2.17,2.17,0,0,1,.83.59,2.58,2.58,0,0,1,.49.91,4.24,4.24,0,0,1,.16,1.17,3,3,0,0,1-.73,2.14,2.51,2.51,0,0,1-2,.77,3,3,0,0,1-1.23-.25,1.81,1.81,0,0,1-.93-.88,2.19,2.19,0,0,1-.35.59,1.68,1.68,0,0,1-.44.34,1.31,1.31,0,0,1-.47.16,2.56,2.56,0,0,1-.47,0h-.26a.29.29,0,0,1-.28-.13.92.92,0,0,1-.07-.4,1.16,1.16,0,0,1,.07-.43.29.29,0,0,1,.28-.14Zm5.55-1.71a2.28,2.28,0,0,0-.37-1.36A1.44,1.44,0,0,0,212,126c-1.11,0-1.66.65-1.66,1.94a1.6,1.6,0,0,0,.45,1.23,1.67,1.67,0,0,0,1.18.42,1.62,1.62,0,0,0,1.24-.45A1.78,1.78,0,0,0,213.58,127.86Z"/>
        <path d="M224.43,130.67a2.61,2.61,0,0,1-1.78-.58,2.17,2.17,0,0,1-.67-1.71v-1a2.55,2.55,0,0,1,.13-.88,1.56,1.56,0,0,1,.46-.67h-.67a2.07,2.07,0,0,0-1.52.5,1.76,1.76,0,0,0-.51,1.3v6.88h-1v-6.91a3,3,0,0,1,.19-1.07,2.75,2.75,0,0,1,.59-.91,2.59,2.59,0,0,1,1-.63,3.45,3.45,0,0,1,1.34-.24h2.9a2.82,2.82,0,0,1,1.08.19,1.84,1.84,0,0,1,.71.49,1.82,1.82,0,0,1,.39.69,2.71,2.71,0,0,1,.12.79v1.41a2.55,2.55,0,0,1-.2,1.05,2,2,0,0,1-.57.72,2.38,2.38,0,0,1-.86.42A4.08,4.08,0,0,1,224.43,130.67Zm.11-1.1a1.84,1.84,0,0,0,1.16-.33,1.2,1.2,0,0,0,.43-1v-1.06a1.45,1.45,0,0,0-.31-.91,1.18,1.18,0,0,0-1-.38h-.58a1.18,1.18,0,0,0-1,.39,1.54,1.54,0,0,0-.3,1v.94a1.33,1.33,0,0,0,.39,1A1.71,1.71,0,0,0,224.54,129.57Z"/>
        <path d="M230.37,133.46a3.22,3.22,0,0,0,1.24-.23,2.63,2.63,0,0,0,1.46-1.49,3.46,3.46,0,0,0,.22-1.07h-1.6a4.55,4.55,0,0,1-1.34-.17,1.88,1.88,0,0,1-.83-.52,1.78,1.78,0,0,1-.43-.8,4.38,4.38,0,0,1-.12-1.07,3.64,3.64,0,0,1,.18-1.15,3.15,3.15,0,0,1,.51-1,2.37,2.37,0,0,1,.84-.66,2.54,2.54,0,0,1,1.16-.25,3.1,3.1,0,0,1,1,.17,2.38,2.38,0,0,1,.85.56,2.64,2.64,0,0,1,.58,1,4.38,4.38,0,0,1,.22,1.45v1.33h1.53a.28.28,0,0,1,.27.13.89.89,0,0,1,.07.41,1,1,0,0,1-.07.43.28.28,0,0,1-.27.13h-1.56a4.67,4.67,0,0,1-.32,1.49,3.71,3.71,0,0,1-.77,1.23,3.77,3.77,0,0,1-1.19.84,3.67,3.67,0,0,1-1.55.31h-1.7l-.09-1.08Zm-.41-5.41a2.4,2.4,0,0,0,.09.69,1,1,0,0,0,.31.47,1.42,1.42,0,0,0,.58.27,4.06,4.06,0,0,0,.93.09h1.44v-1.2a2.5,2.5,0,0,0-.47-1.7,1.62,1.62,0,0,0-1.28-.51,1.44,1.44,0,0,0-1.18.51A2.11,2.11,0,0,0,230,128.05Z"/>
        <path d="M236.43,129.57a1.49,1.49,0,0,0,1-.34,1.17,1.17,0,0,0,.37-.93v-2.2h1v2.2a1.34,1.34,0,0,0,.12.6,1.12,1.12,0,0,0,.32.39,1.32,1.32,0,0,0,.45.21,1.75,1.75,0,0,0,.51.07,1.67,1.67,0,0,0,1.14-.34,1.15,1.15,0,0,0,.39-.93v-2.2h1v2.2a1.15,1.15,0,0,0,.39,1,1.54,1.54,0,0,0,.89.28,1.35,1.35,0,0,0,1-.34,1.26,1.26,0,0,0,.34-.93v-2.2h1v2.2a1.34,1.34,0,0,0,.12.6,1.19,1.19,0,0,0,.3.39,1.08,1.08,0,0,0,.43.21,1.59,1.59,0,0,0,.48.07h.3a.29.29,0,0,1,.28.13.89.89,0,0,1,.07.41,1,1,0,0,1-.07.43.29.29,0,0,1-.28.13h-.3a2.77,2.77,0,0,1-1.08-.21,1.72,1.72,0,0,1-.81-.83,2,2,0,0,1-.86.83,2.37,2.37,0,0,1-1,.21,2.64,2.64,0,0,1-1.06-.21,1.73,1.73,0,0,1-.79-.83,1.91,1.91,0,0,1-.89.83,3,3,0,0,1-1.11.21,3,3,0,0,1-1.14-.21,1.71,1.71,0,0,1-.83-.83,1.91,1.91,0,0,1-.87.83,2.81,2.81,0,0,1-1.08.21h-.52a.29.29,0,0,1-.28-.13.79.79,0,0,1-.07-.4,1,1,0,0,1,.07-.43.29.29,0,0,1,.28-.14Z"/>
        <path d="M249.36,129.57a1.4,1.4,0,0,0,1-.34,1.19,1.19,0,0,0,.35-.93v-2.2h1v2.2a1.34,1.34,0,0,0,.12.6,1.12,1.12,0,0,0,.32.39,1.08,1.08,0,0,0,.43.21,1.61,1.61,0,0,0,.49.07h.48c.25,0,.37.18.37.54s-.12.56-.37.56h-.51a2.72,2.72,0,0,1-1.07-.21,1.78,1.78,0,0,1-.82-.83,2,2,0,0,1-.84.83,2.44,2.44,0,0,1-1,.21h-1.22a.29.29,0,0,1-.28-.13.79.79,0,0,1-.07-.4,1,1,0,0,1,.07-.43.29.29,0,0,1,.28-.14Zm.91,4.09H249v-1.13h1.28Zm1,1.92H250v-1.13h1.28Zm1-1.92H251v-1.13h1.28Z"/>
        <path d="M255.05,129.57a1.41,1.41,0,0,0,1-.34,1.18,1.18,0,0,0,.38-.93v-2.2h1v2.2a2.15,2.15,0,0,1-2.35,2.37h-1.51a.29.29,0,0,1-.28-.13.79.79,0,0,1-.07-.4,1,1,0,0,1,.07-.43.29.29,0,0,1,.28-.14Zm-.09,4.09h-1.24v-1.13H255Zm2.08,0h-1.22v-1.13H257Z"/>
        <path d="M259.47,120.75h1v9.92h-1Z"/>
        <path d="M270.56,130.67a2.61,2.61,0,0,1-1.78-.58,2.14,2.14,0,0,1-.67-1.71v-1a2.55,2.55,0,0,1,.13-.88,1.56,1.56,0,0,1,.46-.67H268a2.07,2.07,0,0,0-1.52.5,1.76,1.76,0,0,0-.51,1.3v6.88h-1v-6.91a3,3,0,0,1,.2-1.07,2.75,2.75,0,0,1,.59-.91,2.51,2.51,0,0,1,1-.63,3.45,3.45,0,0,1,1.34-.24H271A2.9,2.9,0,0,1,272,125a1.84,1.84,0,0,1,.71.49,1.82,1.82,0,0,1,.39.69,2.71,2.71,0,0,1,.12.79v1.41a2.4,2.4,0,0,1-.21,1.05,2,2,0,0,1-.57.72,2.34,2.34,0,0,1-.85.42A4.08,4.08,0,0,1,270.56,130.67Zm.11-1.1a1.86,1.86,0,0,0,1.16-.33,1.19,1.19,0,0,0,.42-1v-1.06a1.44,1.44,0,0,0-.3-.91,1.19,1.19,0,0,0-1-.38h-.57a1.16,1.16,0,0,0-1,.39,1.54,1.54,0,0,0-.3,1v.94a1.33,1.33,0,0,0,.39,1A1.71,1.71,0,0,0,270.67,129.57Z"/>
        <path d="M276.55,132.1a4,4,0,0,1-.81,1.31,3.56,3.56,0,0,1-1.21.84,3.76,3.76,0,0,1-1.51.29h-.94l-.08-1.08h.78a3.43,3.43,0,0,0,1.38-.26,2.65,2.65,0,0,0,.94-.68,2.58,2.58,0,0,0,.54-1,3.56,3.56,0,0,0,.18-1.13V126.1h1v4.32A4.53,4.53,0,0,1,276.55,132.1Z"/>
        <path d="M280.09,133.46a3.19,3.19,0,0,0,1.24-.23,2.65,2.65,0,0,0,.91-.61,2.7,2.7,0,0,0,.56-.88,3.77,3.77,0,0,0,.22-1.07h-1.6a4.55,4.55,0,0,1-1.34-.17,1.91,1.91,0,0,1-.84-.52,1.86,1.86,0,0,1-.42-.8,4.38,4.38,0,0,1-.12-1.07,3.64,3.64,0,0,1,.18-1.15,2.77,2.77,0,0,1,.51-1,2.29,2.29,0,0,1,.84-.66,2.51,2.51,0,0,1,1.16-.25,3.1,3.1,0,0,1,1,.17,2.26,2.26,0,0,1,.84.56,2.65,2.65,0,0,1,.59,1,4.4,4.4,0,0,1,.21,1.45v1.33h1.54a.25.25,0,0,1,.26.13.87.87,0,0,1,.08.41.94.94,0,0,1-.08.43.25.25,0,0,1-.26.13H284a4.4,4.4,0,0,1-.31,1.49,3.91,3.91,0,0,1-.78,1.23,3.62,3.62,0,0,1-2.73,1.15h-1.7l-.09-1.08Zm-.4-5.41a2.4,2.4,0,0,0,.09.69,1,1,0,0,0,.3.47,1.47,1.47,0,0,0,.59.27,3.94,3.94,0,0,0,.93.09H283v-1.2a2.5,2.5,0,0,0-.47-1.7,1.64,1.64,0,0,0-1.28-.51,1.43,1.43,0,0,0-1.18.51A2.11,2.11,0,0,0,279.69,128.05Z"/>
        <path d="M286,129.57a1.4,1.4,0,0,0,1-.34,1.2,1.2,0,0,0,.37-.93v-7.55h1v7.55a2.17,2.17,0,0,1-2.34,2.37h-.48a.29.29,0,0,1-.28-.13.79.79,0,0,1-.07-.4,1,1,0,0,1,.07-.43.29.29,0,0,1,.28-.14Z"/>
        <path d="M92.35,149.87a2.67,2.67,0,0,1-.8-.12,1.6,1.6,0,0,1-.68-.41,2,2,0,0,1-.47-.76,3.27,3.27,0,0,1-.18-1.17V140h1v7.27a2,2,0,0,0,.3,1.11,1.09,1.09,0,0,0,1,.44h.27c.23,0,.35.18.35.54s-.12.56-.35.56Z"/>
        <path d="M94.24,148.77a1.41,1.41,0,0,0,1-.34,1.18,1.18,0,0,0,.38-.93v-2.2h1v2.2a2.17,2.17,0,0,1-2.36,2.37H92.8a.29.29,0,0,1-.28-.13.79.79,0,0,1-.07-.4,1,1,0,0,1,.07-.43.29.29,0,0,1,.28-.14Zm.64,4.13H93.54v-1.17h1.34Z"/>
        <path d="M102.33,152.66a3.24,3.24,0,0,0,1.25-.23,2.63,2.63,0,0,0,1.46-1.49,3.46,3.46,0,0,0,.22-1.07h-1.6a4.55,4.55,0,0,1-1.34-.17,1.88,1.88,0,0,1-.83-.52,1.78,1.78,0,0,1-.43-.8,4.38,4.38,0,0,1-.12-1.07,3.64,3.64,0,0,1,.18-1.15,3.15,3.15,0,0,1,.51-1,2.37,2.37,0,0,1,.84-.66,2.54,2.54,0,0,1,1.16-.25,3.1,3.1,0,0,1,1,.17,2.38,2.38,0,0,1,.85.56,2.64,2.64,0,0,1,.58,1,4.38,4.38,0,0,1,.22,1.45v2.18a4.57,4.57,0,0,1-.27,1.56,3.75,3.75,0,0,1-.76,1.32,3.68,3.68,0,0,1-1.21.91,3.84,3.84,0,0,1-1.62.33h-1.69l-.1-1.08Zm-.39-5.41a2.42,2.42,0,0,0,.08.69,1,1,0,0,0,.31.47,1.42,1.42,0,0,0,.58.27,4.06,4.06,0,0,0,.93.09h1.44v-1.2a2.5,2.5,0,0,0-.47-1.7,1.61,1.61,0,0,0-1.27-.51,1.45,1.45,0,0,0-1.19.51A2.1,2.1,0,0,0,101.94,147.25Z"/>
        <path d="M111.39,149.87a.72.72,0,0,1-.58-.21,1,1,0,0,1-.19-.7c0-.52,0-.94,0-1.26a1.82,1.82,0,0,1,.2-.76.86.86,0,0,1,.43-.41,4,4,0,0,1,.8-.23V147a1.92,1.92,0,0,0-.42.13.47.47,0,0,0-.23.18.61.61,0,0,0-.1.32c0,.13,0,.31,0,.54a.88.88,0,0,1,.64.19.93.93,0,0,1,.19.65C112.16,149.59,111.9,149.87,111.39,149.87Z"/>
        <path d="M116.51,149.87a2.78,2.78,0,0,1-1.13-.2,2.16,2.16,0,0,1-.77-.53,2.25,2.25,0,0,1-.43-.79,3.24,3.24,0,0,1-.13-.94v-2.15h1v1.91a1.74,1.74,0,0,0,.37,1.16,1.62,1.62,0,0,0,1.29.44h5.46a1.41,1.41,0,0,0,1-.34,1.2,1.2,0,0,0,.36-.93v-2.2h1v2.35a2.35,2.35,0,0,1-.19.94,2.25,2.25,0,0,1-.49.71,2.19,2.19,0,0,1-.72.43,2.84,2.84,0,0,1-.88.14Zm2.46,3h-1.28v-1.13H119Zm1,1.92h-1.28v-1.13H120Zm1-1.92h-1.28v-1.13H121Z"/>
        <path d="M128.73,149.87a2.72,2.72,0,0,1-.8-.12,1.66,1.66,0,0,1-.68-.41,2.1,2.1,0,0,1-.47-.76,3.53,3.53,0,0,1-.17-1.17V140h1v7.27a2,2,0,0,0,.29,1.11,1.09,1.09,0,0,0,1,.44h.27q.36,0,.36.54c0,.38-.12.56-.36.56Z"/>
        <path d="M133.81,148.93c-.28.16-.55.3-.8.42a5.19,5.19,0,0,1-.84.3,7.93,7.93,0,0,1-1,.17c-.36,0-.76.05-1.22.05h-.79a.29.29,0,0,1-.28-.13.79.79,0,0,1-.07-.4,1,1,0,0,1,.07-.43.29.29,0,0,1,.28-.14h.8c.42,0,.79,0,1.11,0a7.13,7.13,0,0,0,.88-.13,5.94,5.94,0,0,0,.75-.23,6.18,6.18,0,0,0,.72-.37l2.7-1.57a4.3,4.3,0,0,0-.27-.61,1.78,1.78,0,0,0-.36-.48,1.54,1.54,0,0,0-.54-.29,2.57,2.57,0,0,0-.8-.11h-3.58l.1-1.1h3.63a3.58,3.58,0,0,1,.85.1,2,2,0,0,1,.84.4,3.25,3.25,0,0,1,.73.92,6.05,6.05,0,0,1,.57,1.62Zm-.53,3.93H132v-1.13h1.28Zm1,1.92H133v-1.13h1.28Zm1-1.92H134v-1.13h1.28Z"/>
        <path d="M149.57,148.77a1.4,1.4,0,0,0,1-.34,1.23,1.23,0,0,0,.35-.93v-2.2h1v2.2a1.34,1.34,0,0,0,.12.6,1.22,1.22,0,0,0,.31.39,1.19,1.19,0,0,0,.44.21,1.79,1.79,0,0,0,.51.07h.25c.14,0,.24,0,.28.13a.87.87,0,0,1,.08.41.94.94,0,0,1-.08.43c0,.09-.14.13-.28.13h-.28a2.74,2.74,0,0,1-1.08-.21,1.75,1.75,0,0,1-.83-.83,1.86,1.86,0,0,1-.84.83,2.5,2.5,0,0,1-1,.21h-5.68a2.75,2.75,0,0,1-1.13-.2,2.07,2.07,0,0,1-.77-.53,2.1,2.1,0,0,1-.43-.79,3.24,3.24,0,0,1-.14-.94v-2.15h1v1.91a1.79,1.79,0,0,0,.36,1.16,1.64,1.64,0,0,0,1.3.44Zm-3.25-4.88H145v-1.14h1.28Zm2,0h-1.28v-1.14h1.28Z"/>
        <path d="M154.33,148.77a13.16,13.16,0,0,0,1.48-.09,4.45,4.45,0,0,0,1.52-.46l-2.39-3.08.59-1.09h4.12a2.23,2.23,0,0,1,1.2.3,1.18,1.18,0,0,1,.57.91,1.36,1.36,0,0,1,0,.2v.19a2.16,2.16,0,0,1-.12.45,2.55,2.55,0,0,1-.32.55,8.52,8.52,0,0,1-.64.73c-.27.27-.63.59-1.07,1a2.15,2.15,0,0,0,.48.24,1.93,1.93,0,0,0,.5.13,5.2,5.2,0,0,0,.59,0h1.89c.23,0,.35.18.35.54s-.12.56-.35.56h-2.3a4.27,4.27,0,0,1-.82-.11,3,3,0,0,1-.73-.27,3.08,3.08,0,0,1-.68-.52,5,5,0,0,1-1.77.74,11.39,11.39,0,0,1-2,.17h-.79a.3.3,0,0,1-.28-.13.92.92,0,0,1-.07-.4,1.16,1.16,0,0,1,.07-.43.3.3,0,0,1,.28-.14Zm6-3a.56.56,0,0,0-.25-.48,1.33,1.33,0,0,0-.74-.17h-3.22l2.23,2.88,1-.82a7.09,7.09,0,0,0,.61-.59,1.73,1.73,0,0,0,.32-.45A.87.87,0,0,0,160.35,145.74Z"/>
        <path d="M164,148.77a1.4,1.4,0,0,0,1-.34,1.23,1.23,0,0,0,.35-.93v-2.2h1v2.2a1.34,1.34,0,0,0,.12.6,1.22,1.22,0,0,0,.31.39,1.19,1.19,0,0,0,.44.21,1.61,1.61,0,0,0,.49.07h.48c.25,0,.37.18.37.54s-.12.56-.37.56h-.51a2.72,2.72,0,0,1-1.07-.21,1.78,1.78,0,0,1-.82-.83,2,2,0,0,1-.84.83,2.44,2.44,0,0,1-1,.21h-1.22a.29.29,0,0,1-.28-.13.79.79,0,0,1-.07-.4,1,1,0,0,1,.07-.43.29.29,0,0,1,.28-.14Zm2.44-5.52h-1.34v-1.17h1.34Z"/>
        <path d="M172.25,148.72c.48-.87.94-1.62,1.36-2.24a10.33,10.33,0,0,1,1.24-1.51,4.35,4.35,0,0,1,1.15-.85,2.64,2.64,0,0,1,3.13.63,2.81,2.81,0,0,1,.57,1,3.36,3.36,0,0,1,.2,1.2,3.28,3.28,0,0,1-.17,1.07,2.68,2.68,0,0,1-1.41,1.62,3,3,0,0,1-1.28.25h-4.45a3,3,0,0,1-1.14-.21,1.75,1.75,0,0,1-.83-.83,1.82,1.82,0,0,1-.87.83,2.88,2.88,0,0,1-1.08.21h-.45a.29.29,0,0,1-.28-.13.79.79,0,0,1-.07-.4,1,1,0,0,1,.07-.43.29.29,0,0,1,.28-.14h.51a1.49,1.49,0,0,0,1.05-.34,1.18,1.18,0,0,0,.38-.93v-2.2h1v2.2a1.18,1.18,0,0,0,.29.83A1.33,1.33,0,0,0,172.25,148.72Zm6.61-1.79a2.2,2.2,0,0,0-.13-.78,2,2,0,0,0-.38-.62,1.69,1.69,0,0,0-1.28-.57,2.63,2.63,0,0,0-1.77.9,13.61,13.61,0,0,0-2,2.91h3.81a2.12,2.12,0,0,0,.66-.11,1.59,1.59,0,0,0,.58-.33,1.72,1.72,0,0,0,.4-.58A2,2,0,0,0,178.86,146.93Z"/>
        <path d="M186.84,151.3a4,4,0,0,1-.81,1.31,3.56,3.56,0,0,1-1.21.84,3.76,3.76,0,0,1-1.51.29h-.94l-.08-1.08h.78a3.43,3.43,0,0,0,1.38-.26,2.62,2.62,0,0,0,1.48-1.65,3.56,3.56,0,0,0,.18-1.13V145.3h1v4.32A4.53,4.53,0,0,1,186.84,151.3Zm.36-8.05h-1.35v-1.17h1.35Z"/>
        <path d="M189.15,140h1v9.92h-1Z"/>
        <path d="M200.24,149.87a2.61,2.61,0,0,1-1.78-.58,2.14,2.14,0,0,1-.67-1.71v-1a2.55,2.55,0,0,1,.13-.88,1.56,1.56,0,0,1,.46-.67h-.67a2.07,2.07,0,0,0-1.52.5,1.76,1.76,0,0,0-.51,1.3v6.88h-1v-6.91a3,3,0,0,1,.2-1.07,2.75,2.75,0,0,1,.59-.91,2.51,2.51,0,0,1,1-.63,3.45,3.45,0,0,1,1.34-.24h2.9a2.9,2.9,0,0,1,1.08.19,1.84,1.84,0,0,1,.71.49,1.82,1.82,0,0,1,.39.69,2.71,2.71,0,0,1,.12.79v1.41a2.4,2.4,0,0,1-.21,1,1.9,1.9,0,0,1-.56.72,2.38,2.38,0,0,1-.86.42A4.08,4.08,0,0,1,200.24,149.87Zm.11-1.1a1.84,1.84,0,0,0,1.16-.33,1.19,1.19,0,0,0,.42-1v-1.06a1.44,1.44,0,0,0-.3-.91,1.19,1.19,0,0,0-1-.38h-.57a1.16,1.16,0,0,0-1,.39,1.54,1.54,0,0,0-.3,1v.94a1.33,1.33,0,0,0,.39,1A1.71,1.71,0,0,0,200.35,148.77Z"/>
        <path d="M206.17,152.66a3.15,3.15,0,0,0,1.24-.23,2.65,2.65,0,0,0,.91-.61,2.7,2.7,0,0,0,.56-.88,3.46,3.46,0,0,0,.22-1.07h-1.6a4.55,4.55,0,0,1-1.34-.17,1.82,1.82,0,0,1-.83-.52,1.78,1.78,0,0,1-.43-.8,4.38,4.38,0,0,1-.12-1.07,3.64,3.64,0,0,1,.18-1.15,3,3,0,0,1,.51-1,2.29,2.29,0,0,1,.84-.66,2.54,2.54,0,0,1,1.16-.25,3.1,3.1,0,0,1,1,.17,2.38,2.38,0,0,1,.85.56,2.64,2.64,0,0,1,.58,1,4.38,4.38,0,0,1,.22,1.45v1.33h1.53a.28.28,0,0,1,.27.13,1,1,0,0,1,.07.41,1.12,1.12,0,0,1-.07.43.28.28,0,0,1-.27.13h-1.57a4.4,4.4,0,0,1-.31,1.49,3.69,3.69,0,0,1-2,2.07,3.67,3.67,0,0,1-1.55.31h-1.7l-.09-1.08Zm-.4-5.41a2.4,2.4,0,0,0,.09.69,1,1,0,0,0,.31.47,1.36,1.36,0,0,0,.58.27,3.94,3.94,0,0,0,.93.09h1.44v-1.2a2.5,2.5,0,0,0-.47-1.7,1.64,1.64,0,0,0-1.28-.51,1.44,1.44,0,0,0-1.18.51A2.11,2.11,0,0,0,205.77,147.25Z"/>
        <path d="M213.18,148.77v-1.63a5.09,5.09,0,0,1,.13-1.16,3.31,3.31,0,0,1,.42-1.06,2.59,2.59,0,0,1,.8-.78,2.46,2.46,0,0,1,1.27-.3,2.62,2.62,0,0,1,1,.19,2.12,2.12,0,0,1,.76.53,2.08,2.08,0,0,1,.46.79,3.16,3.16,0,0,1,.15,1,3,3,0,0,1-.32,1.36,3.46,3.46,0,0,1-.87,1.08,4.47,4.47,0,0,1-1.3.75,5.09,5.09,0,0,1-1.57.31V151a1.74,1.74,0,0,0,.32,1.21,1.34,1.34,0,0,0,.83.41l1.52-2a8.93,8.93,0,0,1,.93-1,3.38,3.38,0,0,1,.77-.57,2,2,0,0,1,.78-.23,8.5,8.5,0,0,1,.93,0,.29.29,0,0,1,.28.13,1,1,0,0,1,.07.41,1.12,1.12,0,0,1-.07.43.29.29,0,0,1-.28.13q-.48,0-.84,0a2.23,2.23,0,0,0-.7.2,3.28,3.28,0,0,0-.69.52,9.46,9.46,0,0,0-.81,1l-1.6,2.16a3,3,0,0,1-1-.14,2,2,0,0,1-.76-.46,2.49,2.49,0,0,1-.51-.82,3.59,3.59,0,0,1-.19-1.22v-1.23h-1.52a.29.29,0,0,1-.28-.13.79.79,0,0,1-.07-.4,1,1,0,0,1,.07-.43.29.29,0,0,1,.28-.14Zm1,0a4.54,4.54,0,0,0,1.35-.22,3.3,3.3,0,0,0,1-.53,2.24,2.24,0,0,0,.57-.72,1.85,1.85,0,0,0,.2-.8,1.76,1.76,0,0,0-.37-1.17,1.34,1.34,0,0,0-1.11-.45,1.41,1.41,0,0,0-1.19.56,2.67,2.67,0,0,0-.42,1.62Z"/>
        <path d="M223.31,148.77a3.9,3.9,0,0,1-1.22-1.08,2.39,2.39,0,0,1-.44-1.42,2.58,2.58,0,0,1,.2-1,2.65,2.65,0,0,1,.56-.87,2.8,2.8,0,0,1,.91-.61,2.84,2.84,0,0,1,1.19-.23,2.6,2.6,0,0,1,1.15.23,2.45,2.45,0,0,1,.83.61,2.73,2.73,0,0,1,.49.84,2.94,2.94,0,0,1,.17,1,3,3,0,0,1-1.5,2.59h2.92q.36,0,.36.54c0,.38-.12.56-.36.56H226.8c-.49,0-.93,0-1.31,0a2.22,2.22,0,0,1-.9-.2,2.28,2.28,0,0,1-.55.15l-.67.07-.68,0h-2.45a.29.29,0,0,1-.28-.13.77.77,0,0,1-.08-.4,1,1,0,0,1,.08-.43.29.29,0,0,1,.28-.14Zm1.09-4.13a1.63,1.63,0,0,0-1.27.51,1.79,1.79,0,0,0-.46,1.25,1.54,1.54,0,0,0,.18.75,2.21,2.21,0,0,0,.44.61,2.71,2.71,0,0,0,.59.47,5.16,5.16,0,0,0,.65.35,4.82,4.82,0,0,0,.53-.35,3.23,3.23,0,0,0,.52-.46,2.42,2.42,0,0,0,.4-.6,1.64,1.64,0,0,0,.16-.72,1.82,1.82,0,0,0-.46-1.31A1.68,1.68,0,0,0,224.4,144.64Zm.8-2.66h-1.35v-1.16h1.35Z"/>
        <path d="M228.83,148.77a1.27,1.27,0,0,0,.94-.31,1,1,0,0,0,.32-.81V147a3.16,3.16,0,0,1,.71-2.18,2.56,2.56,0,0,1,2-.78,2.91,2.91,0,0,1,1.15.21,2.17,2.17,0,0,1,.83.59,2.58,2.58,0,0,1,.49.91,4.24,4.24,0,0,1,.16,1.17,3,3,0,0,1-.72,2.14,2.55,2.55,0,0,1-2,.77,3,3,0,0,1-1.23-.25,1.81,1.81,0,0,1-.93-.88,2.19,2.19,0,0,1-.35.59,1.68,1.68,0,0,1-.44.34,1.31,1.31,0,0,1-.47.16,2.56,2.56,0,0,1-.47,0h-.26a.29.29,0,0,1-.28-.13.92.92,0,0,1-.07-.4,1.16,1.16,0,0,1,.07-.43.29.29,0,0,1,.28-.14Zm5.55-1.71a2.28,2.28,0,0,0-.37-1.36,1.44,1.44,0,0,0-1.26-.52c-1.11,0-1.66.65-1.66,1.94a1.6,1.6,0,0,0,.45,1.23,1.69,1.69,0,0,0,1.18.42,1.64,1.64,0,0,0,1.24-.45A1.78,1.78,0,0,0,234.38,147.06Z"/>
        <path d="M239.53,149.87a2.72,2.72,0,0,1-.8-.12,1.66,1.66,0,0,1-.68-.41,2.1,2.1,0,0,1-.47-.76,3.27,3.27,0,0,1-.18-1.17V140h1v7.27a2,2,0,0,0,.29,1.11,1.09,1.09,0,0,0,1,.44H240c.23,0,.35.18.35.54s-.12.56-.35.56Z"/>
        <path d="M241.42,148.77a1.41,1.41,0,0,0,1-.34,1.18,1.18,0,0,0,.38-.93v-2.2h1v2.2a2.35,2.35,0,0,1-.63,1.76,2.39,2.39,0,0,1-1.73.61H240a.29.29,0,0,1-.28-.13.79.79,0,0,1-.07-.4,1,1,0,0,1,.07-.43.29.29,0,0,1,.28-.14Zm2-5.52h-1.34v-1.17h1.34Z"/>
        <path d="M253.23,152.66a5.31,5.31,0,0,0,1.37-.16,2.79,2.79,0,0,0,.9-.43,1.46,1.46,0,0,0,.5-.59,1.51,1.51,0,0,0,.16-.68,1.12,1.12,0,0,0-.2-.66.8.8,0,0,0-.68-.27H252.6l.08-1.1h5.69c.23,0,.35.18.35.54s-.12.56-.35.56H256.8a.87.87,0,0,1,.28.43,2.1,2.1,0,0,1,.07.58,2.53,2.53,0,0,1-.19.93,2.57,2.57,0,0,1-.62.93,3.65,3.65,0,0,1-1.17.72,4.93,4.93,0,0,1-1.8.28h-1.6a3.53,3.53,0,0,1-2.78-1.1,4.36,4.36,0,0,1-1-3v-2.8h1v2.76a4.39,4.39,0,0,0,.17,1.25,2.47,2.47,0,0,0,.53,1,2.44,2.44,0,0,0,.9.63,3.41,3.41,0,0,0,1.31.23Z"/>
        <path d="M262.59,148.77a1.3,1.3,0,0,0,1-.3,1,1,0,0,0,.27-.71,2.43,2.43,0,0,0-.09-.61,2,2,0,0,0-.53-.77l-3.46-3.44v-1.13l5.3-2.1.27,1-4.54,1.78,2.89,2.89a8.48,8.48,0,0,1,.63.72,4.2,4.2,0,0,1,.4.61,2.18,2.18,0,0,1,.19.56,3.58,3.58,0,0,1,0,.58,2.21,2.21,0,0,1-.17.89,1.59,1.59,0,0,1-.47.61,2.21,2.21,0,0,1-.72.36,3.31,3.31,0,0,1-.92.12h-4.31a.3.3,0,0,1-.29-.13.92.92,0,0,1-.07-.4,1.16,1.16,0,0,1,.07-.43.31.31,0,0,1,.29-.14Zm-2.85-9.15,4.8-2,.19.79-5,2Z"/>
        <path d="M272.68,146.06a3.41,3.41,0,0,1,.61.92,2.44,2.44,0,0,1,.18.89,1.85,1.85,0,0,1-.62,1.43,2.47,2.47,0,0,1-1.75.57h-4.46l-.08-1.1H271a1.48,1.48,0,0,0,1-.29.93.93,0,0,0,.35-.75,1.25,1.25,0,0,0-.12-.5,1.59,1.59,0,0,0-.33-.51l-3-3.36.82-.77Z"/>
        <path d="M277.5,149.87a2.67,2.67,0,0,1-.8-.12,1.6,1.6,0,0,1-.68-.41,2,2,0,0,1-.47-.76,3.27,3.27,0,0,1-.18-1.17V140h1v7.27a2,2,0,0,0,.3,1.11,1.09,1.09,0,0,0,1,.44H278c.23,0,.35.18.35.54s-.12.56-.35.56Z"/>
        <path d="M278.52,148.77a1.49,1.49,0,0,0,1.05-.34,1.18,1.18,0,0,0,.38-.93v-2.2h1v2.2a1.34,1.34,0,0,0,.12.6,1,1,0,0,0,.32.39,1.17,1.17,0,0,0,.45.21,2,2,0,0,0,1.64-.27,1.13,1.13,0,0,0,.4-.93v-2.2h1v2.2a1.15,1.15,0,0,0,.39,1,1.54,1.54,0,0,0,.89.28,1.33,1.33,0,0,0,1-.34,1.2,1.2,0,0,0,.36-.93v-2.2h1v2.2a2.15,2.15,0,0,1-2.33,2.37,2.69,2.69,0,0,1-1.07-.21,1.74,1.74,0,0,1-.82-.83,1.82,1.82,0,0,1-.89.83,3,3,0,0,1-1.11.21,3,3,0,0,1-1.14-.21,1.75,1.75,0,0,1-.83-.83,1.85,1.85,0,0,1-.86.83,2.86,2.86,0,0,1-1.09.21H278a.29.29,0,0,1-.28-.13.79.79,0,0,1-.07-.4,1,1,0,0,1,.07-.43.29.29,0,0,1,.28-.14Z"/>
        <path d="M110.18,169.07a.74.74,0,0,1-.59-.21,1.11,1.11,0,0,1-.18-.7c0-.52,0-.94,0-1.26a1.83,1.83,0,0,1,.19-.76.88.88,0,0,1,.44-.41,3.76,3.76,0,0,1,.8-.23v.71a1.92,1.92,0,0,0-.42.13.49.49,0,0,0-.24.18.71.71,0,0,0-.09.32c0,.13,0,.31,0,.54a.88.88,0,0,1,.64.19.89.89,0,0,1,.19.65C110.94,168.79,110.69,169.07,110.18,169.07Z"/>
        <path d="M121,168a1.42,1.42,0,0,0,1-.34,1.23,1.23,0,0,0,.35-.93v-2.2h1v2.2a1.34,1.34,0,0,0,.12.6,1.22,1.22,0,0,0,.31.39,1.19,1.19,0,0,0,.44.21,1.79,1.79,0,0,0,.51.07H125a.29.29,0,0,1,.28.13.87.87,0,0,1,.08.41.94.94,0,0,1-.08.43.29.29,0,0,1-.28.13h-.29a2.72,2.72,0,0,1-1.07-.21,1.71,1.71,0,0,1-.83-.83,1.86,1.86,0,0,1-.84.83,2.52,2.52,0,0,1-1,.21h-5.68a2.73,2.73,0,0,1-1.12-.2,2.07,2.07,0,0,1-.77-.53,2.1,2.1,0,0,1-.43-.79,3.24,3.24,0,0,1-.14-.94v-2.15h1v1.91a1.79,1.79,0,0,0,.36,1.16,1.64,1.64,0,0,0,1.3.44Zm-3.24-4.88h-1.28V162h1.28Zm2,0h-1.28V162h1.28Z"/>
        <path d="M125.6,168a1.49,1.49,0,0,0,1.05-.34,1.17,1.17,0,0,0,.37-.93v-2.2h1v2.2a1.34,1.34,0,0,0,.12.6,1.12,1.12,0,0,0,.32.39,1.32,1.32,0,0,0,.45.21,1.75,1.75,0,0,0,.51.07,1.67,1.67,0,0,0,1.14-.34,1.15,1.15,0,0,0,.39-.93v-2.2h1v2.2a1.15,1.15,0,0,0,.39,1,1.54,1.54,0,0,0,.89.28,1.34,1.34,0,0,0,1-.34,1.2,1.2,0,0,0,.36-.93v-2.2h1v2.2a2.15,2.15,0,0,1-2.34,2.37,2.72,2.72,0,0,1-1.07-.21,1.72,1.72,0,0,1-.81-.83,1.91,1.91,0,0,1-.89.83,3,3,0,0,1-1.11.21,3,3,0,0,1-1.14-.21,1.71,1.71,0,0,1-.83-.83,1.91,1.91,0,0,1-.87.83,2.81,2.81,0,0,1-1.08.21H125a.29.29,0,0,1-.28-.13.92.92,0,0,1-.07-.4,1.16,1.16,0,0,1,.07-.43A.29.29,0,0,1,125,168Z"/>
        <path d="M137.68,159.15h1v9.92h-1Z"/>
        <path d="M148.81,162.14V161l5.32-2.1.25,1-4.53,1.78,2.88,2.89c.55.55,1,1,1.4,1.38s.71.69,1,.94a8,8,0,0,0,.71.58,2.51,2.51,0,0,0,.54.3,1.37,1.37,0,0,0,.45.12,3.68,3.68,0,0,0,.49,0,.29.29,0,0,1,.28.13.89.89,0,0,1,.07.41,1,1,0,0,1-.07.43.29.29,0,0,1-.28.13,3.37,3.37,0,0,1-.81-.08,2.35,2.35,0,0,1-.73-.3,6,6,0,0,1-.83-.61c-.3-.26-.65-.59-1.07-1a2,2,0,0,1-.1.91,1.46,1.46,0,0,1-.45.61,2,2,0,0,1-.7.36,3.17,3.17,0,0,1-.88.12h-6.09a2.75,2.75,0,0,1-1.13-.2,2.07,2.07,0,0,1-.77-.53,2.1,2.1,0,0,1-.43-.79,3.24,3.24,0,0,1-.14-.94v-2.15h1v1.91a1.73,1.73,0,0,0,.37,1.17,1.67,1.67,0,0,0,1.29.43h5.78a1.3,1.3,0,0,0,1-.3,1,1,0,0,0,.27-.71,1.75,1.75,0,0,0-.64-1.38Z"/>
        <path d="M158.53,168a1.4,1.4,0,0,0,1-.34,1.19,1.19,0,0,0,.35-.93v-2.2h1v2.2a1.34,1.34,0,0,0,.12.6,1.12,1.12,0,0,0,.32.39,1.08,1.08,0,0,0,.43.21,1.61,1.61,0,0,0,.49.07h.48c.25,0,.37.18.37.54s-.12.56-.37.56h-.51a2.72,2.72,0,0,1-1.07-.21,1.78,1.78,0,0,1-.82-.83,2,2,0,0,1-.84.83,2.44,2.44,0,0,1-1,.21h-1.22a.29.29,0,0,1-.28-.13.79.79,0,0,1-.07-.4,1,1,0,0,1,.07-.43.29.29,0,0,1,.28-.14Zm1,4.09h-1.23v-1.13h1.23Zm2.08,0h-1.22v-1.13h1.22Z"/>
        <path d="M165.49,168h.71c.2,0,.41,0,.63,0a7.81,7.81,0,0,1-1.43-.61,3,3,0,0,1-.79-.62,1.6,1.6,0,0,1-.35-.7,4.32,4.32,0,0,1-.07-.84,2.5,2.5,0,0,1,.18-.91,2.46,2.46,0,0,1,.52-.84,2.78,2.78,0,0,1,.84-.62,2.7,2.7,0,0,1,1.16-.24,3.5,3.5,0,0,1,1.11.17,2,2,0,0,1,.85.54,2.37,2.37,0,0,1,.56,1,4.36,4.36,0,0,1,.21,1.45v.72a2.54,2.54,0,0,1-.75,1.94,3.31,3.31,0,0,1-2.34.7h-3.75a.29.29,0,0,1-.28-.13.92.92,0,0,1-.07-.4,1.16,1.16,0,0,1,.07-.43.29.29,0,0,1,.28-.14Zm1.34-4.27a1.59,1.59,0,0,0-.7.14,1.81,1.81,0,0,0-.52.37,1.4,1.4,0,0,0-.33.51,1.51,1.51,0,0,0-.11.59,2.62,2.62,0,0,0,.06.57,1.09,1.09,0,0,0,.35.53,4.67,4.67,0,0,0,.88.56,12,12,0,0,0,1.62.66,1.58,1.58,0,0,0,.51-1.28v-.53a2.65,2.65,0,0,0-.4-1.56A1.57,1.57,0,0,0,166.83,163.7Zm.74-2.69h-1.35v-1.17h1.35Z"/>
        <path d="M171.61,159.15h1v9.92h-1Z"/>
        <path d="M176.43,168.82a4.74,4.74,0,0,1-.29,1.68,3.85,3.85,0,0,1-.8,1.31,3.62,3.62,0,0,1-1.2.84,3.72,3.72,0,0,1-1.5.29h-.95l-.08-1.08h.79a3.35,3.35,0,0,0,1.37-.26,2.69,2.69,0,0,0,.95-.68,2.88,2.88,0,0,0,.54-1,3.56,3.56,0,0,0,.18-1.13V164.5h1v2.25a1.12,1.12,0,0,0,.38.89,1.43,1.43,0,0,0,1,.33H178c.23,0,.35.18.35.54s-.12.56-.35.56h-.18a2.27,2.27,0,0,1-.76-.14,1.38,1.38,0,0,1-.63-.5Z"/>
        <path d="M182.22,168a1.3,1.3,0,0,0,1-.3,1,1,0,0,0,.28-.71,2.49,2.49,0,0,0-.1-.61,1.93,1.93,0,0,0-.53-.77l-3.45-3.44V161l5.29-2.1.27,1-4.54,1.78,2.9,2.89q.38.4.63.72a5.07,5.07,0,0,1,.39.61,1.86,1.86,0,0,1,.19.56,3.58,3.58,0,0,1,.05.58,2.21,2.21,0,0,1-.17.89,1.59,1.59,0,0,1-.47.61,2,2,0,0,1-.72.36,3.28,3.28,0,0,1-.91.12H178a.29.29,0,0,1-.28-.13.79.79,0,0,1-.07-.4,1,1,0,0,1,.07-.43A.29.29,0,0,1,178,168Zm-2.85-9.15,4.8-2,.2.79-5,2Z"/>
        <path d="M197.47,168.75a4.85,4.85,0,0,1-.27,1.63,3.75,3.75,0,0,1-.79,1.32,3.8,3.8,0,0,1-1.24.91,3.91,3.91,0,0,1-1.64.33h-.94a3.53,3.53,0,0,1-2.78-1.1,4.32,4.32,0,0,1-1-3V166h1v2.76A4.07,4.07,0,0,0,190,170a2.35,2.35,0,0,0,1.43,1.6,3.41,3.41,0,0,0,1.31.23h.7a3.34,3.34,0,0,0,1.32-.25,2.78,2.78,0,0,0,.93-.67,2.6,2.6,0,0,0,.56-1,3.82,3.82,0,0,0,.19-1.17v-4.3h1Zm-3.86-4.61h-1.34V163h1.34Z"/>
        <path d="M201.6,169.07a2.63,2.63,0,0,1-.8-.12,1.54,1.54,0,0,1-.68-.41,1.86,1.86,0,0,1-.47-.76,3.27,3.27,0,0,1-.18-1.17v-7.46h1v7.27a2,2,0,0,0,.3,1.11,1.07,1.07,0,0,0,1,.44h.28c.23,0,.35.18.35.54s-.12.56-.35.56Z"/>
        <path d="M206.67,168.13c-.28.16-.54.3-.8.42a5.08,5.08,0,0,1-.83.3,8.46,8.46,0,0,1-1,.17c-.35,0-.76,0-1.22,0h-.78c-.14,0-.24,0-.28-.13a.77.77,0,0,1-.08-.4,1,1,0,0,1,.08-.43.28.28,0,0,1,.28-.14h.8c.41,0,.78,0,1.1,0a7.13,7.13,0,0,0,.88-.13,5.08,5.08,0,0,0,.75-.23,4.92,4.92,0,0,0,.72-.37l2.71-1.57a5.82,5.82,0,0,0-.28-.61,1.44,1.44,0,0,0-.36-.48,1.58,1.58,0,0,0-.53-.29,2.57,2.57,0,0,0-.8-.11h-3.59l.1-1.1h3.63a3.73,3.73,0,0,1,.86.1,2.06,2.06,0,0,1,.83.4,3.27,3.27,0,0,1,.74.92,6.45,6.45,0,0,1,.56,1.62Z"/>
        <path d="M212.05,159.15h1v9.92h-1Z"/>
        <path d="M216.86,168.82a4.53,4.53,0,0,1-.29,1.68,3.7,3.7,0,0,1-.8,1.31,3.62,3.62,0,0,1-1.2.84,3.68,3.68,0,0,1-1.5.29h-.94l-.09-1.08h.79a3.43,3.43,0,0,0,1.38-.26,2.62,2.62,0,0,0,1.48-1.65,3.56,3.56,0,0,0,.18-1.13V164.5h1v2.25a1.12,1.12,0,0,0,.38.89,1.43,1.43,0,0,0,1,.33h.18c.23,0,.35.18.35.54s-.12.56-.35.56h-.18a2.27,2.27,0,0,1-.76-.14,1.38,1.38,0,0,1-.63-.5Z"/>
        <path d="M220,159.15h1v6.07c0,.41,0,.8,0,1.16a12,12,0,0,1,1.77-2.26,3.65,3.65,0,0,1,1.64-1,2.82,2.82,0,0,1,.91,0,2.34,2.34,0,0,1,1,.3,2.66,2.66,0,0,1,.75.67,3.17,3.17,0,0,1,.49.93,3.68,3.68,0,0,1,0,2.18,2.87,2.87,0,0,1-.52.94,2.7,2.7,0,0,1-.88.68,2.94,2.94,0,0,1-1.27.25h-6.43a.29.29,0,0,1-.28-.13.79.79,0,0,1-.07-.4,1,1,0,0,1,.07-.43.29.29,0,0,1,.28-.14H220Zm6.67,7a2.21,2.21,0,0,0-.14-.78,1.83,1.83,0,0,0-.37-.62,1.69,1.69,0,0,0-1.28-.57,2.55,2.55,0,0,0-1.75.9A14.82,14.82,0,0,0,221,168h3.88a2.08,2.08,0,0,0,.66-.11,1.64,1.64,0,0,0,.57-.33,1.87,1.87,0,0,0,.4-.58A2,2,0,0,0,226.67,166.13Z"/>
        <path d="M234.63,170.5a4,4,0,0,1-.81,1.31,3.56,3.56,0,0,1-1.21.84,3.76,3.76,0,0,1-1.51.29h-.94l-.08-1.08h.78a3.43,3.43,0,0,0,1.38-.26,2.65,2.65,0,0,0,.94-.68,2.58,2.58,0,0,0,.54-1,3.56,3.56,0,0,0,.18-1.13V164.5h1v4.32A4.53,4.53,0,0,1,234.63,170.5Zm.36-8.05h-1.35v-1.17H235Z"/>
        <path d="M236.94,159.15h1v9.92h-1Z"/>
        <path d="M242.37,166.61a3.34,3.34,0,0,1,.12-.91,3.81,3.81,0,0,1,.4-.88,6.53,6.53,0,0,1,.69-.93c.28-.32.61-.68,1-1.07l-.73-.76.7-.75c.66.66,1.21,1.23,1.66,1.71a12.69,12.69,0,0,1,1.07,1.28,4.4,4.4,0,0,1,.58,1.07,2.94,2.94,0,0,1,.18,1,2.48,2.48,0,0,1-.22,1.06,2.43,2.43,0,0,1-.6.85,2.88,2.88,0,0,1-.92.56,3.14,3.14,0,0,1-1.16.2,3.39,3.39,0,0,1-1.13-.18,2.67,2.67,0,0,1-.87-.51,2.31,2.31,0,0,1-.57-.78A2.46,2.46,0,0,1,242.37,166.61Zm4.63-.23a2,2,0,0,0-.38-1.21,5.74,5.74,0,0,0-.55-.71c-.23-.27-.52-.57-.87-.91a13.17,13.17,0,0,0-.94,1,4.88,4.88,0,0,0-.55.76,2.47,2.47,0,0,0-.26.6,2.64,2.64,0,0,0-.06.55,1.47,1.47,0,0,0,.45,1.08,1.84,1.84,0,0,0,1.31.44,2.06,2.06,0,0,0,1.33-.47,1.58,1.58,0,0,0,.39-.51A1.39,1.39,0,0,0,247,166.38Z"/>
        <path d="M255.61,165.26a3.14,3.14,0,0,1,.6.92,2.26,2.26,0,0,1,.19.89,1.85,1.85,0,0,1-.62,1.43,2.47,2.47,0,0,1-1.75.57h-4.47l-.08-1.1h4.42a1.48,1.48,0,0,0,1-.29.92.92,0,0,0,.34-.75,1.23,1.23,0,0,0-.11-.5,1.63,1.63,0,0,0-.34-.51l-3-3.36.81-.77Z"/>
        <path d="M260.43,169.07a2.63,2.63,0,0,1-.8-.12,1.6,1.6,0,0,1-.68-.41,1.86,1.86,0,0,1-.47-.76,3.27,3.27,0,0,1-.18-1.17v-7.46h1v7.27a2,2,0,0,0,.3,1.11,1.07,1.07,0,0,0,1,.44h.28c.23,0,.35.18.35.54s-.12.56-.35.56Z"/>
        <path d="M264,168a3.9,3.9,0,0,1-1.22-1.08,2.39,2.39,0,0,1-.44-1.42,2.75,2.75,0,0,1,.19-1,2.85,2.85,0,0,1,.57-.87A2.8,2.8,0,0,1,264,163a2.84,2.84,0,0,1,1.19-.23,2.6,2.6,0,0,1,1.15.23,2.45,2.45,0,0,1,.83.61,2.73,2.73,0,0,1,.49.84,2.94,2.94,0,0,1,.17,1,3,3,0,0,1-1.5,2.59h2.92c.24,0,.35.18.35.54s-.11.56-.35.56h-1.77c-.49,0-.93,0-1.31,0a2.22,2.22,0,0,1-.9-.2,2.42,2.42,0,0,1-.55.15l-.68.07-.67,0h-2.45c-.14,0-.24,0-.28-.13a.77.77,0,0,1-.08-.4,1,1,0,0,1,.08-.43.28.28,0,0,1,.28-.14Zm1.09-4.13a1.63,1.63,0,0,0-1.27.51,1.79,1.79,0,0,0-.46,1.25,1.66,1.66,0,0,0,.17.75,2.71,2.71,0,0,0,.44.61,3,3,0,0,0,.6.47,5.06,5.06,0,0,0,.64.35,6.08,6.08,0,0,0,.54-.35,3.23,3.23,0,0,0,.52-.46,2.73,2.73,0,0,0,.4-.6,1.64,1.64,0,0,0,.16-.72,1.82,1.82,0,0,0-.46-1.31A1.68,1.68,0,0,0,265,163.84Zm.8-2.66h-1.35V160h1.35Z"/>
        <path d="M270.43,168a1.38,1.38,0,0,0,1-.34,1.19,1.19,0,0,0,.35-.93v-2.2h1v2.2a1.34,1.34,0,0,0,.12.6,1.12,1.12,0,0,0,.32.39,1.08,1.08,0,0,0,.43.21,1.63,1.63,0,0,0,.5.07h.47c.25,0,.37.18.37.54s-.12.56-.37.56h-.51a2.72,2.72,0,0,1-1.07-.21,1.78,1.78,0,0,1-.82-.83,2,2,0,0,1-.84.83,2.44,2.44,0,0,1-1,.21h-1.22a.29.29,0,0,1-.28-.13.79.79,0,0,1-.07-.4,1,1,0,0,1,.07-.43.29.29,0,0,1,.28-.14Zm1.34-5.52h-1.28v-1.14h1.28Zm2,0h-1.28v-1.14h1.28Z"/>
        <path d="M275.26,168a1.49,1.49,0,0,0,1.05-.34,1.17,1.17,0,0,0,.37-.93v-2.2h1v2.2a1.34,1.34,0,0,0,.12.6,1.12,1.12,0,0,0,.32.39,1.32,1.32,0,0,0,.45.21,1.79,1.79,0,0,0,.51.07,1.67,1.67,0,0,0,1.14-.34,1.15,1.15,0,0,0,.39-.93v-2.2h1v2.2a1.15,1.15,0,0,0,.39,1,1.57,1.57,0,0,0,.89.28,1.34,1.34,0,0,0,1-.34,1.2,1.2,0,0,0,.36-.93v-2.2h1v2.2a2.15,2.15,0,0,1-2.34,2.37,2.72,2.72,0,0,1-1.07-.21,1.72,1.72,0,0,1-.81-.83,1.86,1.86,0,0,1-.89.83,3,3,0,0,1-1.11.21,3,3,0,0,1-1.14-.21,1.71,1.71,0,0,1-.83-.83,1.9,1.9,0,0,1-.86.83,2.9,2.9,0,0,1-1.09.21h-.52a.3.3,0,0,1-.28-.13.92.92,0,0,1-.07-.4,1.16,1.16,0,0,1,.07-.43.3.3,0,0,1,.28-.14Z"/>
        <path d="M287.34,159.15h1v9.92h-1Z"/>
        <path d="M75,189.7a4,4,0,0,1-.81,1.31,3.56,3.56,0,0,1-1.21.84,3.73,3.73,0,0,1-1.51.29h-.94l-.08-1.08h.78a3.43,3.43,0,0,0,1.38-.26,2.65,2.65,0,0,0,.94-.68,2.75,2.75,0,0,0,.55-1,3.86,3.86,0,0,0,.17-1.13V183.7h1V188A4.53,4.53,0,0,1,75,189.7Z"/>
        <path d="M83,184.46a3.41,3.41,0,0,1,.61.92,2.44,2.44,0,0,1,.18.89,1.85,1.85,0,0,1-.62,1.43,2.47,2.47,0,0,1-1.75.57H76.93l-.08-1.1h4.41a1.48,1.48,0,0,0,1-.29.93.93,0,0,0,.35-.75,1.25,1.25,0,0,0-.12-.5,1.59,1.59,0,0,0-.33-.51l-3-3.36L80,181Z"/>
        <path d="M93.29,185.62a2,2,0,0,0,.28,1.12,1.09,1.09,0,0,0,1,.43h.27a.25.25,0,0,1,.26.13.87.87,0,0,1,.08.41.94.94,0,0,1-.08.43.25.25,0,0,1-.26.13h-.27a2.45,2.45,0,0,1-1.28-.31,1.78,1.78,0,0,1-.75-1.13,1.56,1.56,0,0,1-.48.4,2.38,2.38,0,0,1-.59.25,3.39,3.39,0,0,1-.62.12l-.59,0a2.42,2.42,0,0,1-1.78-.61,2.57,2.57,0,0,1-.62-1.9A4.17,4.17,0,0,1,88,184a3.06,3.06,0,0,1,.51-1,2.68,2.68,0,0,1,.84-.72,2.46,2.46,0,0,1,1.19-.27h1.73v-1.1h1Zm-2.83,1a2.37,2.37,0,0,0,1.34-.34,1,1,0,0,0,.49-.85V183H90.58a1.59,1.59,0,0,0-1.29.55,2.32,2.32,0,0,0-.44,1.47,1.53,1.53,0,0,0,.41,1.23A1.9,1.9,0,0,0,90.46,186.58Z"/>
        <path d="M95.25,187.17a1.36,1.36,0,0,0,1-.34,1.23,1.23,0,0,0,.35-.93v-7.55h1v7.55a1.34,1.34,0,0,0,.12.6,1.1,1.1,0,0,0,.31.39,1.15,1.15,0,0,0,.43.21,1.68,1.68,0,0,0,.5.07h.22a.29.29,0,0,1,.28.13.89.89,0,0,1,.07.41,1,1,0,0,1-.07.43.29.29,0,0,1-.28.13H99a2.72,2.72,0,0,1-1.07-.21,1.72,1.72,0,0,1-.81-.83,2,2,0,0,1-.84.83,2.53,2.53,0,0,1-1,.21h-.42a.29.29,0,0,1-.28-.13.79.79,0,0,1-.07-.4,1,1,0,0,1,.07-.43.29.29,0,0,1,.28-.14Z"/>
        <path d="M106.16,186a2.11,2.11,0,0,0,.61.93,1.56,1.56,0,0,0,.94.26h1.06a.29.29,0,0,1,.28.13,1,1,0,0,1,.07.41,1.12,1.12,0,0,1-.07.43.29.29,0,0,1-.28.13h-1.14a2.56,2.56,0,0,1-.89-.14,2,2,0,0,1-.61-.39,2.3,2.3,0,0,1-.41-.59,6.16,6.16,0,0,1-.31-.73l-1.56.91a8.85,8.85,0,0,1-.8.42,4.76,4.76,0,0,1-.83.3,8.28,8.28,0,0,1-1,.17c-.36,0-.77.05-1.23.05h-.78a.29.29,0,0,1-.28-.13.79.79,0,0,1-.07-.4,1,1,0,0,1,.07-.43.29.29,0,0,1,.28-.14h.8c.42,0,.78,0,1.1,0A6.6,6.6,0,0,0,102,187a5.62,5.62,0,0,0,.76-.23,6.18,6.18,0,0,0,.72-.37l2.7-1.57a5.85,5.85,0,0,0-.27-.61,1.78,1.78,0,0,0-.36-.48,1.54,1.54,0,0,0-.54-.29,2.57,2.57,0,0,0-.8-.11h-3.58l.09-1.1h3.64a3.64,3.64,0,0,1,.85.1,2,2,0,0,1,.83.4,3.1,3.1,0,0,1,.74.92,6.05,6.05,0,0,1,.57,1.62Zm-2.35,5.32h-1.35v-1.17h1.35Z"/>
        <path d="M109,187.17a1.31,1.31,0,0,0,1-.31,1.07,1.07,0,0,0,.32-.81v-.61a3.11,3.11,0,0,1,.71-2.18,2.52,2.52,0,0,1,2-.78,3,3,0,0,1,1.16.21,2.13,2.13,0,0,1,.82.59,2.58,2.58,0,0,1,.49.91,4.24,4.24,0,0,1,.16,1.17,3,3,0,0,1-.72,2.14,2.55,2.55,0,0,1-2,.77,3,3,0,0,1-1.23-.25,1.81,1.81,0,0,1-.93-.88,2,2,0,0,1-.35.59,1.65,1.65,0,0,1-.43.34,1.36,1.36,0,0,1-.48.16,2.56,2.56,0,0,1-.47,0h-.25a.29.29,0,0,1-.28-.13.77.77,0,0,1-.08-.4,1,1,0,0,1,.08-.43.29.29,0,0,1,.28-.14Zm5.55-1.71a2.35,2.35,0,0,0-.36-1.36,1.47,1.47,0,0,0-1.27-.52c-1.11,0-1.66.65-1.66,1.94a1.6,1.6,0,0,0,.45,1.23,1.69,1.69,0,0,0,1.18.42,1.61,1.61,0,0,0,1.24-.45A1.78,1.78,0,0,0,114.57,185.46Z"/>
        <path d="M121.28,191.06a3.19,3.19,0,0,0,1.24-.23,2.52,2.52,0,0,0,.9-.61,2.54,2.54,0,0,0,.56-.88,3.46,3.46,0,0,0,.23-1.07h-1.6a4.58,4.58,0,0,1-1.35-.17,1.81,1.81,0,0,1-1.25-1.32,4.38,4.38,0,0,1-.12-1.07,4,4,0,0,1,.17-1.15,3.15,3.15,0,0,1,.51-1,2.47,2.47,0,0,1,.84-.66,2.57,2.57,0,0,1,1.16-.25,3.06,3.06,0,0,1,1,.17,2.29,2.29,0,0,1,.85.56,2.51,2.51,0,0,1,.58,1,4.14,4.14,0,0,1,.22,1.45V188a4.82,4.82,0,0,1-.26,1.56,3.91,3.91,0,0,1-.76,1.32,3.72,3.72,0,0,1-1.22.91,3.83,3.83,0,0,1-1.61.33h-1.7l-.1-1.08Zm-.4-5.41a2.4,2.4,0,0,0,.09.69,1,1,0,0,0,.3.47,1.42,1.42,0,0,0,.58.27,4.06,4.06,0,0,0,.93.09h1.44V186a2.51,2.51,0,0,0-.46-1.7,1.65,1.65,0,0,0-1.28-.51,1.46,1.46,0,0,0-1.19.51A2.16,2.16,0,0,0,120.88,185.65Z"/>
        <path d="M134.86,185.62a2.11,2.11,0,0,0,.27,1.12,1.12,1.12,0,0,0,1,.43h.27a.26.26,0,0,1,.26.13.89.89,0,0,1,.07.41,1,1,0,0,1-.07.43.26.26,0,0,1-.26.13h-.27a2.45,2.45,0,0,1-1.28-.31,1.75,1.75,0,0,1-.76-1.13,1.41,1.41,0,0,1-.47.4,2.38,2.38,0,0,1-.59.25,3.56,3.56,0,0,1-.62.12l-.59,0A2.4,2.4,0,0,1,130,187a2.57,2.57,0,0,1-.62-1.9,4.17,4.17,0,0,1,.17-1.16,3.23,3.23,0,0,1,.5-1,2.92,2.92,0,0,1,.84-.72,2.53,2.53,0,0,1,1.2-.27h1.72v-1.1h1Zm-2.83,1a2.37,2.37,0,0,0,1.34-.34,1,1,0,0,0,.48-.85V183h-1.71a1.58,1.58,0,0,0-1.28.55,2.26,2.26,0,0,0-.45,1.47,1.49,1.49,0,0,0,.42,1.23A1.9,1.9,0,0,0,132,186.58Z"/>
        <path d="M136.65,187.17a1.31,1.31,0,0,0,.95-.31,1.07,1.07,0,0,0,.32-.81v-.61a3.16,3.16,0,0,1,.71-2.18,2.55,2.55,0,0,1,2-.78,3,3,0,0,1,1.15.21,2.13,2.13,0,0,1,.82.59,2.58,2.58,0,0,1,.49.91,3.9,3.9,0,0,1,.16,1.17,3,3,0,0,1-.72,2.14,2.53,2.53,0,0,1-2,.77,3.11,3.11,0,0,1-1.23-.25,1.88,1.88,0,0,1-.93-.88,1.78,1.78,0,0,1-.35.59,1.65,1.65,0,0,1-.43.34,1.38,1.38,0,0,1-.47.16,2.74,2.74,0,0,1-.48,0h-.25a.29.29,0,0,1-.28-.13.79.79,0,0,1-.07-.4,1,1,0,0,1,.07-.43.29.29,0,0,1,.28-.14Zm5.56-1.71a2.35,2.35,0,0,0-.37-1.36,1.47,1.47,0,0,0-1.27-.52c-1.11,0-1.66.65-1.66,1.94a1.57,1.57,0,0,0,.46,1.23,1.65,1.65,0,0,0,1.17.42,1.61,1.61,0,0,0,1.24-.45A1.78,1.78,0,0,0,142.21,185.46Z"/>
        <path d="M147.36,188.27a2.63,2.63,0,0,1-.8-.12,1.6,1.6,0,0,1-.68-.41,1.86,1.86,0,0,1-.47-.76,3.27,3.27,0,0,1-.18-1.17v-7.46h1v7.27a2,2,0,0,0,.3,1.11,1.07,1.07,0,0,0,1,.44h.28c.23,0,.35.18.35.54s-.12.56-.35.56Z"/>
        <path d="M149.25,187.17a1.43,1.43,0,0,0,1-.34,1.17,1.17,0,0,0,.37-.93v-2.2h1v2.2a2.15,2.15,0,0,1-2.35,2.37h-1.5c-.14,0-.24,0-.28-.13a.77.77,0,0,1-.08-.4,1,1,0,0,1,.08-.43.28.28,0,0,1,.28-.14Zm2-5.52h-1.34v-1.17h1.34Z"/>
        <path d="M155,189.7a4,4,0,0,1-.81,1.31,3.56,3.56,0,0,1-1.21.84,3.73,3.73,0,0,1-1.51.29h-.94l-.08-1.08h.78a3.43,3.43,0,0,0,1.38-.26,2.65,2.65,0,0,0,.94-.68,2.58,2.58,0,0,0,.54-1,3.56,3.56,0,0,0,.18-1.13V183.7h1V188A4.53,4.53,0,0,1,155,189.7Zm.36-8H154v-1.17h1.34Z"/>
        <path d="M158.49,191.06a3.15,3.15,0,0,0,1.24-.23,2.65,2.65,0,0,0,.91-.61,2.7,2.7,0,0,0,.56-.88,3.46,3.46,0,0,0,.22-1.07h-1.6a4.55,4.55,0,0,1-1.34-.17,1.88,1.88,0,0,1-.83-.52,1.78,1.78,0,0,1-.43-.8,4.38,4.38,0,0,1-.12-1.07,3.64,3.64,0,0,1,.18-1.15,3,3,0,0,1,.51-1,2.29,2.29,0,0,1,.84-.66,2.54,2.54,0,0,1,1.16-.25,3.1,3.1,0,0,1,1,.17,2.38,2.38,0,0,1,.85.56,2.64,2.64,0,0,1,.58,1,4.38,4.38,0,0,1,.22,1.45V188a4.57,4.57,0,0,1-.27,1.56,3.75,3.75,0,0,1-.76,1.32,3.68,3.68,0,0,1-1.21.91,3.84,3.84,0,0,1-1.62.33h-1.7l-.09-1.08Zm-.4-5.41a2.4,2.4,0,0,0,.09.69,1,1,0,0,0,.31.47,1.36,1.36,0,0,0,.58.27,3.94,3.94,0,0,0,.93.09h1.44V186a2.5,2.5,0,0,0-.47-1.7,1.64,1.64,0,0,0-1.28-.51,1.44,1.44,0,0,0-1.18.51A2.11,2.11,0,0,0,158.09,185.65Z"/>
        <path d="M162.51,191.06h.3a3.25,3.25,0,0,0,1.35-.26,2.66,2.66,0,0,0,.92-.68,2.7,2.7,0,0,0,.53-1,3.56,3.56,0,0,0,.18-1.13V183.7h1V188a4.53,4.53,0,0,1-.3,1.68,3.85,3.85,0,0,1-.8,1.31,3.64,3.64,0,0,1-2.72,1.13h-.42Z"/>
        <path d="M176.46,185.62a2.11,2.11,0,0,0,.27,1.12,1.1,1.1,0,0,0,1,.43H178a.26.26,0,0,1,.26.13.89.89,0,0,1,.07.41,1,1,0,0,1-.07.43.26.26,0,0,1-.26.13h-.28a2.42,2.42,0,0,1-1.27-.31,1.75,1.75,0,0,1-.76-1.13,1.41,1.41,0,0,1-.47.4,2.38,2.38,0,0,1-.59.25,3.56,3.56,0,0,1-.62.12l-.59,0a2.4,2.4,0,0,1-1.78-.61,2.57,2.57,0,0,1-.62-1.9,4.17,4.17,0,0,1,.17-1.16,3.23,3.23,0,0,1,.5-1,2.92,2.92,0,0,1,.84-.72,2.52,2.52,0,0,1,1.19-.27h1.73v-1.1h1Zm-2.83,1a2.31,2.31,0,0,0,1.33-.34,1,1,0,0,0,.49-.85V183h-1.71a1.58,1.58,0,0,0-1.28.55A2.26,2.26,0,0,0,172,185a1.49,1.49,0,0,0,.42,1.23A1.9,1.9,0,0,0,173.63,186.58Z"/>
        <path d="M182.22,187.17a1.3,1.3,0,0,0,1-.3,1,1,0,0,0,.27-.71,2.43,2.43,0,0,0-.09-.61,1.93,1.93,0,0,0-.53-.77l-3.45-3.44v-1.13l5.29-2.1.27,1-4.54,1.78,2.9,2.89q.79.83,1.38,1.38c.39.37.72.69,1,.94s.51.44.7.58a2.47,2.47,0,0,0,.53.3,1.36,1.36,0,0,0,.46.12,3.43,3.43,0,0,0,.48,0q.36,0,.36.54c0,.38-.12.56-.36.56a3.32,3.32,0,0,1-.81-.08,2.35,2.35,0,0,1-.73-.3,5.94,5.94,0,0,1-.82-.61c-.3-.26-.66-.59-1.07-1a2,2,0,0,1-.11.91,1.52,1.52,0,0,1-.44.61,1.89,1.89,0,0,1-.69.36,3.19,3.19,0,0,1-.89.12H178a.29.29,0,0,1-.28-.13.77.77,0,0,1-.08-.4,1,1,0,0,1,.08-.43.29.29,0,0,1,.28-.14Z"/>
        <path d="M188.3,187.17a1.38,1.38,0,0,0,1-.34,1.22,1.22,0,0,0,.34-.93v-7.55h1v7.55a1.34,1.34,0,0,0,.12.6,1.22,1.22,0,0,0,.31.39,1.19,1.19,0,0,0,.44.21,1.57,1.57,0,0,0,.49.07h.23a.3.3,0,0,1,.28.13,1,1,0,0,1,.07.41,1.12,1.12,0,0,1-.07.43.3.3,0,0,1-.28.13H192a2.69,2.69,0,0,1-1.07-.21,1.74,1.74,0,0,1-.82-.83,1.86,1.86,0,0,1-.84.83,2.49,2.49,0,0,1-1,.21h-.42a.27.27,0,0,1-.27-.13.77.77,0,0,1-.08-.4,1,1,0,0,1,.08-.43.27.27,0,0,1,.27-.14Z"/>
        <path d="M193.72,187.17a1.41,1.41,0,0,0,1-.34,1.14,1.14,0,0,0,.38-.93v-2.2h1v2.2a2.15,2.15,0,0,1-2.35,2.37h-1.5c-.14,0-.24,0-.28-.13a.77.77,0,0,1-.08-.4,1,1,0,0,1,.08-.43.28.28,0,0,1,.28-.14Zm.65,4.13H193v-1.17h1.35Z"/>
        <path d="M209,188a4.85,4.85,0,0,1-.27,1.63,4.07,4.07,0,0,1-.79,1.32,3.8,3.8,0,0,1-1.24.91,3.91,3.91,0,0,1-1.64.33h-.94a3.55,3.55,0,0,1-2.79-1.1,4.36,4.36,0,0,1-1-3v-2.8h1V188a4.41,4.41,0,0,0,.16,1.25,2.6,2.6,0,0,0,.53,1,2.4,2.4,0,0,0,.91.63,3.41,3.41,0,0,0,1.31.23h.7a3.29,3.29,0,0,0,1.31-.25,2.72,2.72,0,0,0,.94-.67,2.6,2.6,0,0,0,.56-1,3.82,3.82,0,0,0,.18-1.17v-4.3h1Zm-3.86-4.61h-1.34v-1.16h1.34Z"/>
        <path d="M212.19,191.06a3.19,3.19,0,0,0,1.24-.23,2.52,2.52,0,0,0,.9-.61,2.4,2.4,0,0,0,.56-.88,3.46,3.46,0,0,0,.23-1.07h-1.6a4.63,4.63,0,0,1-1.35-.17,1.81,1.81,0,0,1-1.25-1.32,4.38,4.38,0,0,1-.12-1.07,4,4,0,0,1,.17-1.15,3.15,3.15,0,0,1,.51-1,2.41,2.41,0,0,1,.85-.66,2.5,2.5,0,0,1,1.15-.25,3.06,3.06,0,0,1,1,.17,2.29,2.29,0,0,1,.85.56,2.51,2.51,0,0,1,.58,1,4.14,4.14,0,0,1,.22,1.45v1.33h1.54a.27.27,0,0,1,.26.13.89.89,0,0,1,.07.41,1,1,0,0,1-.07.43.27.27,0,0,1-.26.13h-1.57a4.66,4.66,0,0,1-.31,1.49A3.91,3.91,0,0,1,215,191a3.84,3.84,0,0,1-1.18.84,3.7,3.7,0,0,1-1.55.31h-1.7l-.1-1.08Zm-.4-5.41a2.4,2.4,0,0,0,.09.69,1,1,0,0,0,.3.47,1.47,1.47,0,0,0,.59.27,3.91,3.91,0,0,0,.92.09h1.44V186a2.51,2.51,0,0,0-.46-1.7,1.65,1.65,0,0,0-1.28-.51,1.43,1.43,0,0,0-1.18.51A2.11,2.11,0,0,0,211.79,185.65Z"/>
        <path d="M218.89,187.17a1.42,1.42,0,0,0,1-.34,1.23,1.23,0,0,0,.35-.93v-2.2h1v2.2a1.34,1.34,0,0,0,.12.6,1.1,1.1,0,0,0,.31.39,1.15,1.15,0,0,0,.43.21,1.68,1.68,0,0,0,.5.07h.48c.24,0,.37.18.37.54s-.13.56-.37.56h-.51a2.74,2.74,0,0,1-1.08-.21,1.72,1.72,0,0,1-.81-.83,2.07,2.07,0,0,1-.84.83,2.48,2.48,0,0,1-1,.21h-1.21a.29.29,0,0,1-.28-.13.77.77,0,0,1-.08-.4,1,1,0,0,1,.08-.43.29.29,0,0,1,.28-.14Zm1.35-5.52H219v-1.14h1.28Zm2,0H221v-1.14h1.28Z"/>
        <path d="M223.4,187.17a1.31,1.31,0,0,0,.95-.31,1.07,1.07,0,0,0,.32-.81v-.61a3.16,3.16,0,0,1,.71-2.18,2.55,2.55,0,0,1,2-.78,3,3,0,0,1,1.15.21,2.13,2.13,0,0,1,.82.59,2.58,2.58,0,0,1,.49.91,3.9,3.9,0,0,1,.16,1.17,3,3,0,0,1-.72,2.14,2.53,2.53,0,0,1-2,.77,3.11,3.11,0,0,1-1.23-.25,1.88,1.88,0,0,1-.93-.88,1.78,1.78,0,0,1-.35.59,1.65,1.65,0,0,1-.43.34,1.38,1.38,0,0,1-.47.16,2.74,2.74,0,0,1-.48,0h-.25a.29.29,0,0,1-.28-.13.79.79,0,0,1-.07-.4,1,1,0,0,1,.07-.43.29.29,0,0,1,.28-.14Zm5.56-1.71a2.35,2.35,0,0,0-.37-1.36,1.47,1.47,0,0,0-1.27-.52c-1.11,0-1.66.65-1.66,1.94a1.57,1.57,0,0,0,.46,1.23,1.65,1.65,0,0,0,1.17.42,1.61,1.61,0,0,0,1.24-.45A1.74,1.74,0,0,0,229,185.46Z"/>
        <path d="M235.66,191.06a3.19,3.19,0,0,0,1.24-.23,2.52,2.52,0,0,0,.9-.61,2.57,2.57,0,0,0,.57-.88,3.77,3.77,0,0,0,.22-1.07H237a4.67,4.67,0,0,1-1.35-.17,1.94,1.94,0,0,1-.83-.52,1.86,1.86,0,0,1-.42-.8,4.38,4.38,0,0,1-.12-1.07,3.64,3.64,0,0,1,.18-1.15,2.77,2.77,0,0,1,.51-1,2.29,2.29,0,0,1,.84-.66,2.51,2.51,0,0,1,1.16-.25,3,3,0,0,1,1,.17,2.21,2.21,0,0,1,.85.56,2.65,2.65,0,0,1,.59,1,4.4,4.4,0,0,1,.21,1.45V188a4.56,4.56,0,0,1-.26,1.56,3.91,3.91,0,0,1-.76,1.32,3.72,3.72,0,0,1-1.22.91,3.83,3.83,0,0,1-1.61.33h-1.7l-.1-1.08Zm-.4-5.41a2.4,2.4,0,0,0,.09.69,1,1,0,0,0,.3.47,1.47,1.47,0,0,0,.59.27,3.91,3.91,0,0,0,.92.09h1.44V186a2.51,2.51,0,0,0-.46-1.7,1.65,1.65,0,0,0-1.28-.51,1.43,1.43,0,0,0-1.18.51A2.11,2.11,0,0,0,235.26,185.65Z"/>
        <path d="M246.19,188.27a2.63,2.63,0,0,1-.8-.12,1.6,1.6,0,0,1-.68-.41,1.86,1.86,0,0,1-.47-.76,3.27,3.27,0,0,1-.18-1.17v-7.46h1v7.27a2,2,0,0,0,.3,1.11,1.08,1.08,0,0,0,1,.44h.27c.23,0,.35.18.35.54s-.12.56-.35.56Z"/>
        <path d="M246.64,188.27c-.14,0-.24,0-.28-.13a.79.79,0,0,1-.07-.4,1,1,0,0,1,.07-.43.28.28,0,0,1,.28-.14h3.07a3.93,3.93,0,0,1-1.21-1,2.23,2.23,0,0,1-.46-1.39,2.76,2.76,0,0,1,.2-1,2.42,2.42,0,0,1,.56-.85,2.75,2.75,0,0,1,.88-.6,3,3,0,0,1,1.2-.22,2.7,2.7,0,0,1,1.14.22,2.39,2.39,0,0,1,.82.6,2.51,2.51,0,0,1,.48.84,2.83,2.83,0,0,1,.16.95,2.94,2.94,0,0,1-1.5,2.48h2.83a1.48,1.48,0,0,0,1-.29.93.93,0,0,0,.35-.75,1.37,1.37,0,0,0-.11-.49,1.85,1.85,0,0,0-.36-.55l-2.9-3.36.77-.72,3,3.42a4,4,0,0,1,.59,1,2.33,2.33,0,0,1,.17.88,1.84,1.84,0,0,1-.61,1.43,2.47,2.47,0,0,1-1.74.57h-1.76c-.49,0-.92,0-1.3,0a2.41,2.41,0,0,1-.91-.2,2.16,2.16,0,0,1-.55.15l-.67.07-.67,0h-2.39Zm4.12-5.12a1.66,1.66,0,0,0-1.27.51,1.81,1.81,0,0,0-.47,1.25,1.5,1.5,0,0,0,.18.74,2.18,2.18,0,0,0,.44.57,4.27,4.27,0,0,0,.6.45c.22.13.44.24.65.34l.53-.33a2.75,2.75,0,0,0,.53-.44,2.39,2.39,0,0,0,.4-.58,1.47,1.47,0,0,0,.16-.7,1.84,1.84,0,0,0-.47-1.31A1.65,1.65,0,0,0,250.76,183.15Z"/>
        <path d="M260.72,188a4.74,4.74,0,0,1-.29,1.68,3.85,3.85,0,0,1-.8,1.31,3.62,3.62,0,0,1-1.2.84,3.73,3.73,0,0,1-1.51.29H256l-.08-1.08h.78a3.36,3.36,0,0,0,1.38-.26,2.65,2.65,0,0,0,.94-.68,2.75,2.75,0,0,0,.55-1,3.56,3.56,0,0,0,.17-1.13V183.7h1V186a1.09,1.09,0,0,0,.38.89,1.42,1.42,0,0,0,1,.33h.18c.23,0,.35.18.35.54s-.12.56-.35.56h-.18a2.22,2.22,0,0,1-.76-.14,1.38,1.38,0,0,1-.63-.5Z"/>
        <path d="M266.51,187.17a1.3,1.3,0,0,0,1-.3,1,1,0,0,0,.27-.71,2.43,2.43,0,0,0-.09-.61,2,2,0,0,0-.53-.77l-3.46-3.44v-1.13l5.3-2.1.27,1-4.54,1.78,2.89,2.89c.54.55,1,1,1.39,1.38s.72.69,1,.94a8.09,8.09,0,0,0,.7.58,2.25,2.25,0,0,0,.53.3,1.37,1.37,0,0,0,.45.12,3.68,3.68,0,0,0,.49,0c.24,0,.35.18.35.54s-.11.56-.35.56a3.27,3.27,0,0,1-.81-.08,2.35,2.35,0,0,1-.73-.3,6,6,0,0,1-.83-.61c-.29-.26-.65-.59-1.07-1a2,2,0,0,1-.1.91,1.52,1.52,0,0,1-.44.61,1.94,1.94,0,0,1-.7.36,3.14,3.14,0,0,1-.89.12h-4.32a.3.3,0,0,1-.28-.13.92.92,0,0,1-.07-.4,1.16,1.16,0,0,1,.07-.43.3.3,0,0,1,.28-.14ZM263.66,178l4.8-2,.19.79-5,2Z"/>
        <path d="M273.61,187.17a1.41,1.41,0,0,0,1-.34,1.18,1.18,0,0,0,.38-.93v-2.2h1v2.2a2.35,2.35,0,0,1-.63,1.76,2.38,2.38,0,0,1-1.72.61h-1.51a.29.29,0,0,1-.28-.13.79.79,0,0,1-.07-.4,1,1,0,0,1,.07-.43.29.29,0,0,1,.28-.14Zm0,4.09h-1.28v-1.13h1.28Zm1,1.92h-1.28v-1.13h1.28Zm1-1.92h-1.28v-1.13h1.28Z"/>
        <path d="M280.16,188.27a2.63,2.63,0,0,1-.8-.12,1.54,1.54,0,0,1-.68-.41,2,2,0,0,1-.48-.76,3.53,3.53,0,0,1-.17-1.17v-7.46h1v7.27a2,2,0,0,0,.29,1.11,1.09,1.09,0,0,0,1,.44h.27q.36,0,.36.54c0,.38-.12.56-.36.56Z"/>
        <path d="M285.23,187.33c-.28.16-.55.3-.8.42a5.44,5.44,0,0,1-.83.3,8.46,8.46,0,0,1-1,.17c-.36,0-.76.05-1.22.05h-.79a.29.29,0,0,1-.28-.13.92.92,0,0,1-.07-.4,1.16,1.16,0,0,1,.07-.43.29.29,0,0,1,.28-.14h.8c.42,0,.79,0,1.11,0a7.13,7.13,0,0,0,.88-.13,5.48,5.48,0,0,0,.75-.23,4.92,4.92,0,0,0,.72-.37l2.7-1.57a4.3,4.3,0,0,0-.27-.61,1.44,1.44,0,0,0-.36-.48,1.58,1.58,0,0,0-.53-.29,2.62,2.62,0,0,0-.8-.11H282l.1-1.1h3.63a3.73,3.73,0,0,1,.86.1,2.06,2.06,0,0,1,.83.4,3.25,3.25,0,0,1,.73.92,6.05,6.05,0,0,1,.57,1.62Zm-.53,3.93h-1.28v-1.13h1.28Zm1,1.92h-1.28v-1.13h1.28Zm1-1.92h-1.28v-1.13h1.28Z"/>
        <path d="M100,207.47c-.51,0-.77-.28-.77-.85s.26-.84.77-.84.77.28.77.84S100.48,207.47,100,207.47Z"/>
        <path d="M110.77,206.37a1.4,1.4,0,0,0,1-.34,1.19,1.19,0,0,0,.35-.93v-2.2h1v2.2a1.34,1.34,0,0,0,.12.6,1.12,1.12,0,0,0,.32.39,1.08,1.08,0,0,0,.43.21,1.79,1.79,0,0,0,.51.07h.25c.14,0,.24,0,.28.13a.87.87,0,0,1,.08.41.94.94,0,0,1-.08.43c0,.09-.14.13-.28.13h-.28a2.74,2.74,0,0,1-1.08-.21,1.75,1.75,0,0,1-.83-.83,1.86,1.86,0,0,1-.84.83,2.5,2.5,0,0,1-1,.21h-5.68a2.75,2.75,0,0,1-1.13-.2,2.07,2.07,0,0,1-.77-.53,2.1,2.1,0,0,1-.43-.79,3.24,3.24,0,0,1-.14-.94v-2.15h1v1.91a1.79,1.79,0,0,0,.36,1.16,1.64,1.64,0,0,0,1.3.44Zm-3.25-4.88h-1.28v-1.14h1.28Zm2,0h-1.28v-1.14h1.28Z"/>
        <path d="M115.39,206.37a1.49,1.49,0,0,0,1-.34,1.17,1.17,0,0,0,.37-.93v-2.2h1v2.2a1.34,1.34,0,0,0,.12.6,1.12,1.12,0,0,0,.32.39,1.32,1.32,0,0,0,.45.21,1.79,1.79,0,0,0,.51.07,1.67,1.67,0,0,0,1.14-.34,1.15,1.15,0,0,0,.39-.93v-2.2h1v2.2a1.15,1.15,0,0,0,.39,1,1.57,1.57,0,0,0,.89.28,1.34,1.34,0,0,0,1-.34,1.2,1.2,0,0,0,.36-.93v-2.2h1v2.2a2.15,2.15,0,0,1-2.34,2.37,2.72,2.72,0,0,1-1.07-.21,1.72,1.72,0,0,1-.81-.83,1.86,1.86,0,0,1-.89.83,3,3,0,0,1-1.11.21,3,3,0,0,1-1.14-.21,1.71,1.71,0,0,1-.83-.83,1.87,1.87,0,0,1-.87.83,2.81,2.81,0,0,1-1.08.21h-.52a.27.27,0,0,1-.27-.13.77.77,0,0,1-.08-.4,1,1,0,0,1,.08-.43.27.27,0,0,1,.27-.14Z"/>
        <path d="M127.47,197.55h1v9.92h-1Z"/>
        <path d="M138.56,207.47a2.61,2.61,0,0,1-1.78-.58,2.14,2.14,0,0,1-.67-1.71v-1a2.55,2.55,0,0,1,.13-.88,1.56,1.56,0,0,1,.46-.67H136a2.07,2.07,0,0,0-1.52.5,1.76,1.76,0,0,0-.51,1.3v6.88h-1v-6.91a3,3,0,0,1,.2-1.07,2.75,2.75,0,0,1,.59-.91,2.51,2.51,0,0,1,1-.63,3.45,3.45,0,0,1,1.34-.24H139a2.86,2.86,0,0,1,1.08.19,1.84,1.84,0,0,1,.71.49,1.82,1.82,0,0,1,.39.69,2.71,2.71,0,0,1,.12.79v1.41a2.4,2.4,0,0,1-.21,1,1.9,1.9,0,0,1-.56.72,2.38,2.38,0,0,1-.86.42A4.08,4.08,0,0,1,138.56,207.47Zm.11-1.1a1.84,1.84,0,0,0,1.16-.33,1.19,1.19,0,0,0,.42-1V204a1.44,1.44,0,0,0-.3-.91,1.19,1.19,0,0,0-1-.38h-.57a1.18,1.18,0,0,0-1,.39,1.54,1.54,0,0,0-.3,1V205a1.33,1.33,0,0,0,.39,1A1.71,1.71,0,0,0,138.67,206.37Z"/>
        <path d="M144.55,208.9a4,4,0,0,1-.81,1.31,3.56,3.56,0,0,1-1.21.84,3.73,3.73,0,0,1-1.51.29h-.94l-.08-1.08h.78a3.4,3.4,0,0,0,1.38-.26,2.65,2.65,0,0,0,.94-.68,2.75,2.75,0,0,0,.55-1,3.86,3.86,0,0,0,.17-1.13V202.9h1v4.32A4.53,4.53,0,0,1,144.55,208.9Zm.36-8.05h-1.34v-1.17h1.34Z"/>
        <path d="M146.86,197.55h1v8.82h2.18a1.48,1.48,0,0,0,1-.31,1.09,1.09,0,0,0,.36-.86v-7.65h1v7.73a2.35,2.35,0,0,1-.18.94,2,2,0,0,1-1.2,1.11,2.93,2.93,0,0,1-.9.14h-3.31Z"/>
        <path d="M162.29,204.82a2.11,2.11,0,0,0,.27,1.12,1.09,1.09,0,0,0,1,.43h.27a.28.28,0,0,1,.27.13,1,1,0,0,1,.07.41,1.12,1.12,0,0,1-.07.43.28.28,0,0,1-.27.13h-.27a2.45,2.45,0,0,1-1.28-.31,1.78,1.78,0,0,1-.75-1.13,1.64,1.64,0,0,1-.47.4,2.63,2.63,0,0,1-.6.25,3.24,3.24,0,0,1-.62.12l-.58,0a2.43,2.43,0,0,1-1.79-.61,2.57,2.57,0,0,1-.61-1.9,4.16,4.16,0,0,1,.16-1.16,3.26,3.26,0,0,1,.51-1,2.68,2.68,0,0,1,.84-.72,2.46,2.46,0,0,1,1.19-.27h1.73v-1.1h1Zm-2.84,1a2.37,2.37,0,0,0,1.34-.34,1,1,0,0,0,.49-.85v-2.4h-1.71a1.56,1.56,0,0,0-1.28.55,2.26,2.26,0,0,0-.45,1.47,1.53,1.53,0,0,0,.41,1.23A1.9,1.9,0,0,0,159.45,205.78Z"/>
        <path d="M168.05,206.37a1.3,1.3,0,0,0,1-.3,1,1,0,0,0,.27-.71,2.09,2.09,0,0,0-.1-.61,2,2,0,0,0-.52-.77l-3.46-3.44v-1.13l5.3-2.1.27,1-4.55,1.78,2.9,2.89a8.48,8.48,0,0,1,.63.72,3.4,3.4,0,0,1,.39.61,2.22,2.22,0,0,1,.2.56,3.6,3.6,0,0,1,0,.58,2.21,2.21,0,0,1-.16.89,1.61,1.61,0,0,1-.48.61,2,2,0,0,1-.72.36,3.23,3.23,0,0,1-.91.12h-4.32a.29.29,0,0,1-.28-.13.79.79,0,0,1-.07-.4,1,1,0,0,1,.07-.43.29.29,0,0,1,.28-.14Z"/>
        <path d="M183.29,207.15a4.85,4.85,0,0,1-.27,1.63,3.83,3.83,0,0,1-2,2.23,3.94,3.94,0,0,1-1.64.33h-1a3.53,3.53,0,0,1-2.78-1.1,4.36,4.36,0,0,1-1-3v-2.8h1v2.76a4.39,4.39,0,0,0,.17,1.25,2.47,2.47,0,0,0,.53,1,2.44,2.44,0,0,0,.9.63,3.45,3.45,0,0,0,1.31.23h.71a3.29,3.29,0,0,0,1.31-.25,2.82,2.82,0,0,0,.94-.67,2.74,2.74,0,0,0,.56-1,3.82,3.82,0,0,0,.18-1.17v-4.3h1Zm-3.85-4.61h-1.35v-1.16h1.35Z"/>
        <path d="M187.42,207.47a2.67,2.67,0,0,1-.8-.12,1.66,1.66,0,0,1-.68-.41,2,2,0,0,1-.47-.76,3.27,3.27,0,0,1-.18-1.17v-7.46h1v7.27a2,2,0,0,0,.3,1.11,1.09,1.09,0,0,0,1,.44h.27c.23,0,.35.18.35.54s-.12.56-.35.56Z"/>
        <path d="M189.09,206.37a1.4,1.4,0,0,0,1-.34,1.23,1.23,0,0,0,.35-.93v-2.2h1v2.2a1.34,1.34,0,0,0,.12.6,1.22,1.22,0,0,0,.31.39,1.19,1.19,0,0,0,.44.21,1.61,1.61,0,0,0,.49.07h.48c.25,0,.37.18.37.54s-.12.56-.37.56h-.51a2.72,2.72,0,0,1-1.07-.21,1.74,1.74,0,0,1-.82-.83,2,2,0,0,1-.84.83,2.44,2.44,0,0,1-1,.21h-1.22a.29.29,0,0,1-.28-.13.79.79,0,0,1-.07-.4,1,1,0,0,1,.07-.43.29.29,0,0,1,.28-.14Zm2.44-5.52h-1.34v-1.17h1.34Z"/>
        <path d="M200.27,205.18a2.11,2.11,0,0,0,.62.93,1.53,1.53,0,0,0,.93.26h1.06a.29.29,0,0,1,.28.13.89.89,0,0,1,.07.41,1,1,0,0,1-.07.43.29.29,0,0,1-.28.13h-1.14a2.56,2.56,0,0,1-.89-.14,1.83,1.83,0,0,1-.6-.39,2.1,2.1,0,0,1-.42-.59,6.16,6.16,0,0,1-.31-.73l-1.55.91c-.28.16-.55.3-.8.42a5.19,5.19,0,0,1-.84.3,7.93,7.93,0,0,1-1,.17c-.36,0-.77.05-1.22.05h-.79a.29.29,0,0,1-.28-.13.79.79,0,0,1-.07-.4,1,1,0,0,1,.07-.43.29.29,0,0,1,.28-.14h.8c.42,0,.79,0,1.11,0a7.13,7.13,0,0,0,.88-.13,5.94,5.94,0,0,0,.75-.23,6.18,6.18,0,0,0,.72-.37l2.7-1.57a4.3,4.3,0,0,0-.27-.61,1.78,1.78,0,0,0-.36-.48,1.54,1.54,0,0,0-.54-.29,2.57,2.57,0,0,0-.8-.11h-3.58l.1-1.1h3.63a3.64,3.64,0,0,1,.85.1,2.1,2.1,0,0,1,.84.4,3.25,3.25,0,0,1,.73.92,6.05,6.05,0,0,1,.57,1.62Zm-2.83,5.28h-1.28v-1.13h1.28Zm1,1.92h-1.28v-1.13h1.28Zm1-1.92h-1.28v-1.13h1.28Z"/>
        <path d="M204.32,206.37a1.43,1.43,0,0,0,1-.34,1.17,1.17,0,0,0,.37-.93v-2.2h1v2.2a2.15,2.15,0,0,1-2.35,2.37h-1.5a.29.29,0,0,1-.28-.13.79.79,0,0,1-.07-.4,1,1,0,0,1,.07-.43.29.29,0,0,1,.28-.14Zm2-5.52H205v-1.17h1.34Z"/>
        <path d="M209.58,198a1.59,1.59,0,0,0-.49.07c-.12,0-.22.17-.31.38l-.33.72-.69-.3.41-.93a3.64,3.64,0,0,1,.28-.47.91.91,0,0,1,.27-.28.86.86,0,0,1,.36-.13,3.18,3.18,0,0,1,.47,0h2.94l0,1Zm.27,1.76h1v7.73h-1Z"/>
        <path d="M218.4,207.22a4.74,4.74,0,0,1-.29,1.68,3.85,3.85,0,0,1-.8,1.31,3.62,3.62,0,0,1-1.2.84,3.73,3.73,0,0,1-1.51.29h-.94l-.08-1.08h.79a3.35,3.35,0,0,0,1.37-.26,2.56,2.56,0,0,0,.94-.68,2.75,2.75,0,0,0,.55-1,3.56,3.56,0,0,0,.17-1.13V202.9h1v2.25a1.11,1.11,0,0,0,.37.89,1.44,1.44,0,0,0,1,.33H220q.36,0,.36.54c0,.38-.12.56-.36.56h-.17a2.22,2.22,0,0,1-.76-.14,1.38,1.38,0,0,1-.63-.5Z"/>
        <path d="M221.53,197.55h1v6.07c0,.39,0,.78,0,1.16a11.42,11.42,0,0,1,1.85-2.35,3.58,3.58,0,0,1,1.71-.94,2.07,2.07,0,0,1,.35,0l.34,0a2.3,2.3,0,0,1,1,.31,3,3,0,0,1,.78.67,3,3,0,0,1,.49.94,3.42,3.42,0,0,1,.18,1.12,2.6,2.6,0,0,1-.37,1.39,1.2,1.2,0,0,0,.68.38,4.66,4.66,0,0,0,.89.07h.22a.29.29,0,0,1,.28.13.89.89,0,0,1,.07.41,1,1,0,0,1-.07.43.29.29,0,0,1-.28.13h-.73a1.88,1.88,0,0,1-.52-.08,2.17,2.17,0,0,1-.53-.21,1.93,1.93,0,0,1-.5-.42,2.76,2.76,0,0,1-.84.52,2.88,2.88,0,0,1-1.13.2H220a.27.27,0,0,1-.27-.13.77.77,0,0,1-.08-.4,1,1,0,0,1,.08-.43.27.27,0,0,1,.27-.14h1.57Zm6.68,7a2.21,2.21,0,0,0-.14-.78,1.85,1.85,0,0,0-.38-.62,1.76,1.76,0,0,0-.56-.42,1.72,1.72,0,0,0-.72-.15,2.57,2.57,0,0,0-1.75.9,15.24,15.24,0,0,0-2.12,2.91h3.89a2.06,2.06,0,0,0,.65-.11,1.47,1.47,0,0,0,.57-.33,1.72,1.72,0,0,0,.4-.58A2,2,0,0,0,228.21,204.53Z"/>
        <path d="M231.23,206.37a1.49,1.49,0,0,0,1.05-.34,1.17,1.17,0,0,0,.37-.93v-2.2h1v2.2a1.34,1.34,0,0,0,.12.6,1.12,1.12,0,0,0,.32.39,1.32,1.32,0,0,0,.45.21,1.73,1.73,0,0,0,.5.07,1.68,1.68,0,0,0,1.15-.34,1.15,1.15,0,0,0,.39-.93v-2.2h1v2.2a1.15,1.15,0,0,0,.39,1,1.54,1.54,0,0,0,.89.28,1.34,1.34,0,0,0,1-.34,1.2,1.2,0,0,0,.36-.93v-2.2h1v2.2a2.15,2.15,0,0,1-2.34,2.37,2.72,2.72,0,0,1-1.07-.21,1.78,1.78,0,0,1-.82-.83,1.84,1.84,0,0,1-.88.83,3.05,3.05,0,0,1-1.12.21,3,3,0,0,1-1.13-.21,1.71,1.71,0,0,1-.83-.83,1.91,1.91,0,0,1-.87.83,2.81,2.81,0,0,1-1.08.21h-.52a.29.29,0,0,1-.28-.13.79.79,0,0,1-.07-.4,1,1,0,0,1,.07-.43.29.29,0,0,1,.28-.14Z"/>
        <path d="M247,210.26a3.19,3.19,0,0,0,1.24-.23,2.52,2.52,0,0,0,.9-.61,2.54,2.54,0,0,0,.56-.88,3.78,3.78,0,0,0,.23-1.07h-1.6a4.58,4.58,0,0,1-1.35-.17,1.81,1.81,0,0,1-1.25-1.32,4.38,4.38,0,0,1-.12-1.07,3.64,3.64,0,0,1,.17-1.15,3.15,3.15,0,0,1,.51-1,2.41,2.41,0,0,1,.85-.66,2.5,2.5,0,0,1,1.15-.25,3.06,3.06,0,0,1,1,.17,2.38,2.38,0,0,1,.85.56,2.51,2.51,0,0,1,.58,1,4.14,4.14,0,0,1,.22,1.45v2.18a4.82,4.82,0,0,1-.26,1.56,3.91,3.91,0,0,1-.76,1.32,3.72,3.72,0,0,1-1.22.91,3.84,3.84,0,0,1-1.62.33h-1.69l-.1-1.08Zm-.4-5.41a2.4,2.4,0,0,0,.09.69.93.93,0,0,0,.3.47,1.49,1.49,0,0,0,.58.27,4.06,4.06,0,0,0,.93.09h1.44v-1.2a2.51,2.51,0,0,0-.46-1.7,1.65,1.65,0,0,0-1.28-.51,1.46,1.46,0,0,0-1.19.51A2.16,2.16,0,0,0,246.59,204.85Z"/>
        <path d="M263.76,207.15a4.62,4.62,0,0,1-.28,1.63,3.88,3.88,0,0,1-.78,1.32,3.8,3.8,0,0,1-1.24.91,3.94,3.94,0,0,1-1.64.33h-.94a3.54,3.54,0,0,1-2.79-1.1,4.36,4.36,0,0,1-1-3v-2.8h1v2.76a4.39,4.39,0,0,0,.17,1.25,2.47,2.47,0,0,0,.53,1,2.44,2.44,0,0,0,.9.63,3.47,3.47,0,0,0,1.32.23h.7a3.29,3.29,0,0,0,1.31-.25,2.72,2.72,0,0,0,.94-.67,2.6,2.6,0,0,0,.56-1,3.82,3.82,0,0,0,.18-1.17v-4.3h1Zm-3.86-4.61h-1.34v-1.16h1.34Z"/>
        <path d="M267,210.26a3.19,3.19,0,0,0,1.24-.23,2.52,2.52,0,0,0,.9-.61,2.54,2.54,0,0,0,.56-.88,3.78,3.78,0,0,0,.23-1.07h-1.6a4.58,4.58,0,0,1-1.35-.17,1.81,1.81,0,0,1-1.25-1.32,4.38,4.38,0,0,1-.12-1.07,3.64,3.64,0,0,1,.17-1.15,3.15,3.15,0,0,1,.51-1,2.41,2.41,0,0,1,.85-.66,2.5,2.5,0,0,1,1.15-.25,3.06,3.06,0,0,1,1,.17,2.38,2.38,0,0,1,.85.56,2.51,2.51,0,0,1,.58,1,4.14,4.14,0,0,1,.22,1.45v1.33h1.54a.27.27,0,0,1,.26.13.89.89,0,0,1,.07.41,1,1,0,0,1-.07.43.27.27,0,0,1-.26.13h-1.57a4.66,4.66,0,0,1-.31,1.49,3.91,3.91,0,0,1-.78,1.23,3.84,3.84,0,0,1-1.18.84,3.71,3.71,0,0,1-1.56.31h-1.69l-.1-1.08Zm-.4-5.41a2.4,2.4,0,0,0,.09.69.93.93,0,0,0,.3.47,1.49,1.49,0,0,0,.58.27,4.06,4.06,0,0,0,.93.09h1.44v-1.2a2.51,2.51,0,0,0-.46-1.7,1.65,1.65,0,0,0-1.28-.51,1.46,1.46,0,0,0-1.19.51A2.16,2.16,0,0,0,266.59,204.85Z"/>
        <path d="M273.69,206.37a1.42,1.42,0,0,0,1-.34,1.23,1.23,0,0,0,.35-.93v-2.2h1v2.2a1.34,1.34,0,0,0,.12.6,1.1,1.1,0,0,0,.31.39,1.15,1.15,0,0,0,.43.21,1.68,1.68,0,0,0,.5.07H278c.24,0,.37.18.37.54s-.13.56-.37.56h-.51a2.69,2.69,0,0,1-1.07-.21,1.69,1.69,0,0,1-.82-.83,2.07,2.07,0,0,1-.84.83,2.52,2.52,0,0,1-1,.21h-1.21c-.14,0-.24,0-.28-.13a.79.79,0,0,1-.07-.4,1,1,0,0,1,.07-.43.28.28,0,0,1,.28-.14Zm1.35-5.52h-1.28v-1.14H275Zm2,0h-1.28v-1.14h1.28Z"/>
        <path d="M278.52,206.37a1.49,1.49,0,0,0,1.05-.34,1.18,1.18,0,0,0,.38-.93v-2.2h1v2.2a1.34,1.34,0,0,0,.12.6,1,1,0,0,0,.32.39,1.17,1.17,0,0,0,.45.21,2,2,0,0,0,1.64-.27,1.13,1.13,0,0,0,.4-.93v-2.2h1v2.2a1.15,1.15,0,0,0,.39,1,1.54,1.54,0,0,0,.89.28,1.33,1.33,0,0,0,1-.34,1.2,1.2,0,0,0,.36-.93v-2.2h1v2.2a2.15,2.15,0,0,1-2.33,2.37,2.69,2.69,0,0,1-1.07-.21,1.74,1.74,0,0,1-.82-.83,1.82,1.82,0,0,1-.89.83,3,3,0,0,1-1.11.21,3,3,0,0,1-1.14-.21,1.75,1.75,0,0,1-.83-.83,1.85,1.85,0,0,1-.86.83,2.86,2.86,0,0,1-1.09.21H278a.29.29,0,0,1-.28-.13.79.79,0,0,1-.07-.4,1,1,0,0,1,.07-.43.29.29,0,0,1,.28-.14Z"/>
      </g>
      <g>
        <path d="M291.24,81a4.14,4.14,0,0,1-.25,1.5,3.27,3.27,0,0,1-.7,1.14,3.17,3.17,0,0,1-1.05.72,3.34,3.34,0,0,1-1.32.25h-.79l-.07-.73h.71a3.19,3.19,0,0,0,1.26-.23,2.63,2.63,0,0,0,.88-.64,2.78,2.78,0,0,0,.5-.93,3.58,3.58,0,0,0,.16-1.08V77.28h.7v2.11a1,1,0,0,0,.34.81,1.28,1.28,0,0,0,.92.31h.15c.21,0,.31.12.31.37s-.1.37-.31.37h-.15a1.76,1.76,0,0,1-.71-.14,1.28,1.28,0,0,1-.58-.46Z"/>
        <path d="M293.78,80.51a1.38,1.38,0,0,0,1-.32,1.1,1.1,0,0,0,.34-.85V77.28h.7v2.06a1.33,1.33,0,0,0,.11.56,1,1,0,0,0,.29.36,1.16,1.16,0,0,0,.4.2,2.3,2.3,0,0,0,.45.05h.46c.21,0,.32.12.32.37s-.11.37-.32.37H297a2.23,2.23,0,0,1-.92-.19,1.51,1.51,0,0,1-.7-.73,1.71,1.71,0,0,1-.73.73,2.09,2.09,0,0,1-.89.19h-1.1a.27.27,0,0,1-.24-.09.45.45,0,0,1-.06-.26.57.57,0,0,1,.06-.29.25.25,0,0,1,.24-.1ZM295,75.43h-1v-.84h1Zm1.68,0h-1v-.84h1Z"/>
        <path d="M298.59,80.51a1.41,1.41,0,0,0,1-.32,1.14,1.14,0,0,0,.34-.85V77.28h.7v2.06a1.33,1.33,0,0,0,.11.56.94.94,0,0,0,.29.36,1.08,1.08,0,0,0,.4.2,2.28,2.28,0,0,0,.44.05h.47c.21,0,.32.12.32.37s-.11.37-.32.37h-.48a2.2,2.2,0,0,1-.92-.19,1.47,1.47,0,0,1-.7-.73,1.76,1.76,0,0,1-.73.73,2.11,2.11,0,0,1-.9.19H297.5a.27.27,0,0,1-.24-.09.38.38,0,0,1-.07-.26.48.48,0,0,1,.07-.29.25.25,0,0,1,.24-.1Zm.83,3.24h-.93v-.84h.93Zm1.72,0h-.91v-.84h.91Z"/>
        <path d="M303.56,80.51a1.38,1.38,0,0,0,.95-.32,1.06,1.06,0,0,0,.37-.85V77.28h.68v2a1.91,1.91,0,0,1-.53,1.43,2,2,0,0,1-1.43.51h-1.28a.29.29,0,0,1-.25-.09.45.45,0,0,1-.06-.26.57.57,0,0,1,.06-.29.27.27,0,0,1,.25-.1Zm.49-5.08h-1v-.84h1Zm1.68,0h-1v-.84h1Z"/>
        <path d="M310.65,83.91a2.9,2.9,0,0,0,1.14-.21,2.44,2.44,0,0,0,.85-.57,2.49,2.49,0,0,0,.53-.85,3.15,3.15,0,0,0,.22-1h-1.58a3.89,3.89,0,0,1-1.18-.15,1.7,1.7,0,0,1-.73-.44,1.68,1.68,0,0,1-.37-.7,3.76,3.76,0,0,1-.1-.92,3.72,3.72,0,0,1,.14-1,2.43,2.43,0,0,1,.45-.84,2.12,2.12,0,0,1,.72-.57,2.18,2.18,0,0,1,1-.22,2.58,2.58,0,0,1,.88.15,2.17,2.17,0,0,1,.75.49,2.48,2.48,0,0,1,.51.84,3.89,3.89,0,0,1,.19,1.26v1.36h1.42c.12,0,.19,0,.23.1a.43.43,0,0,1,.07.27.43.43,0,0,1-.07.28.25.25,0,0,1-.23.09h-1.45a4.08,4.08,0,0,1-.27,1.31,3.37,3.37,0,0,1-.68,1.07,3,3,0,0,1-1,.74,3.25,3.25,0,0,1-1.35.27h-1.51l-.09-.73ZM310.1,79a2.73,2.73,0,0,0,.08.69,1,1,0,0,0,.3.46,1.47,1.47,0,0,0,.59.27,4.62,4.62,0,0,0,.92.08h1.4v-1.2a2.53,2.53,0,0,0-.45-1.67,1.63,1.63,0,0,0-1.26-.52,1.44,1.44,0,0,0-1.17.52A2.17,2.17,0,0,0,310.1,79Z"/>
        <path d="M316,80.51a1.45,1.45,0,0,0,1-.32,1.08,1.08,0,0,0,.36-.85V77.28h.7v2.06a1.19,1.19,0,0,0,.12.56,1,1,0,0,0,.31.36,1.35,1.35,0,0,0,.42.2,2.5,2.5,0,0,0,.47.05,1.64,1.64,0,0,0,1.08-.32,1.07,1.07,0,0,0,.38-.85V77.28h.7v2.06a1.34,1.34,0,0,0,.1.56,1,1,0,0,0,.27.36,1.16,1.16,0,0,0,.4.2,2.31,2.31,0,0,0,.46.05,1.32,1.32,0,0,0,.92-.32,1.11,1.11,0,0,0,.35-.85V77.28h.7v2a1.88,1.88,0,0,1-.54,1.43,2,2,0,0,1-1.42.51,2.3,2.3,0,0,1-.95-.19,1.45,1.45,0,0,1-.69-.73,1.63,1.63,0,0,1-.77.73,2.57,2.57,0,0,1-1,.19,2.53,2.53,0,0,1-1-.19,1.43,1.43,0,0,1-.7-.73,1.63,1.63,0,0,1-.77.73,2.45,2.45,0,0,1-1,.19h-.4a.27.27,0,0,1-.24-.09.45.45,0,0,1-.06-.26.57.57,0,0,1,.06-.29.25.25,0,0,1,.24-.1Z"/>
      </g>
      <g>
        <path d="M195.47,54.11c-.69,0-1-.36-1-1.09s.35-1.12,1-1.12,1,.37,1,1.12S196.16,54.11,195.47,54.11Z"/>
        <path d="M205.07,49.72a3.89,3.89,0,0,1,.68,1.07,2.86,2.86,0,0,1,.22,1,2.26,2.26,0,0,1-.18.9,2.14,2.14,0,0,1-.52.72,2.48,2.48,0,0,1-.83.48,3.43,3.43,0,0,1-1.15.18h-4.94l-.09-1.58h4.81a1.34,1.34,0,0,0,.88-.26.87.87,0,0,0,.31-.68,1.34,1.34,0,0,0-.42-.91L200.64,47l1.15-1.08Z"/>
        <path d="M210,53.83a5.12,5.12,0,0,1-.33,1.86,4.35,4.35,0,0,1-.89,1.47,3.77,3.77,0,0,1-1.35,1,4.16,4.16,0,0,1-1.7.34h-1.1l-.09-1.57h.83a3.58,3.58,0,0,0,1.47-.26A2.71,2.71,0,0,0,208.4,55a3.67,3.67,0,0,0,.18-1.14V48.91h1.47v2.36a1.17,1.17,0,0,0,.39.93,1.53,1.53,0,0,0,1,.33h.19c.27,0,.4.26.4.77s-.13.81-.4.81h-.19a2.25,2.25,0,0,1-.8-.14,1.44,1.44,0,0,1-.66-.52Z"/>
        <path d="M213,52.53c.93,0,1.4-.44,1.4-1.31V48.91h1.48v2.31a1.41,1.41,0,0,0,.12.61,1,1,0,0,0,.31.4,1.42,1.42,0,0,0,.46.23,1.88,1.88,0,0,0,.53.07h.51c.27,0,.41.26.41.77s-.14.81-.41.81h-.56a3.12,3.12,0,0,1-1.22-.23,1.94,1.94,0,0,1-.94-.92,2.19,2.19,0,0,1-.95.92,2.7,2.7,0,0,1-1.14.23h-1.32a.3.3,0,0,1-.31-.19,1.54,1.54,0,0,1-.08-.56,1.88,1.88,0,0,1,.08-.63.31.31,0,0,1,.31-.2Zm1.28,5.15h-1.61V56.17h1.61Zm2.45,0h-1.59V56.17h1.59Z"/>
        <path d="M222.38,52.53a1.23,1.23,0,0,0,.92-.27.93.93,0,0,0,.25-.67,1.7,1.7,0,0,0-.61-1.33l-3.67-3.65V45l6-2.3.35,1.47L220.73,46l3,3c.28.3.52.57.71.81a4.23,4.23,0,0,1,.44.7,2.5,2.5,0,0,1,.22.65,3,3,0,0,1,.07.67,2.47,2.47,0,0,1-.2,1,1.84,1.84,0,0,1-.54.71,2.2,2.2,0,0,1-.82.42,3.8,3.8,0,0,1-1,.13h-4.77a.3.3,0,0,1-.31-.19,1.54,1.54,0,0,1-.08-.56,1.88,1.88,0,0,1,.08-.63.31.31,0,0,1,.31-.2Zm-3.17-10.17,5.4-2.12.26,1.08-5.6,2.21Z"/>
        <path d="M233,56.9a5.91,5.91,0,0,0,1.43-.14,2.83,2.83,0,0,0,.94-.4,1.5,1.5,0,0,0,.52-.58,1.65,1.65,0,0,0,.15-.69,1.13,1.13,0,0,0-.21-.69.85.85,0,0,0-.73-.29h-2.8l.09-1.58h6.33c.27,0,.4.26.4.77s-.13.81-.4.81H237a1,1,0,0,1,.31.49,2.24,2.24,0,0,1,.08.67,3,3,0,0,1-.21,1,2.89,2.89,0,0,1-.71,1,4.07,4.07,0,0,1-1.31.81,5.57,5.57,0,0,1-2,.32h-1.86a4,4,0,0,1-3.13-1.24,4.92,4.92,0,0,1-1.12-3.4V50.64h1.46v3.13a3.54,3.54,0,0,0,.7,2.27,2.8,2.8,0,0,0,2.31.86Z"/>
        <path d="M238.91,52.53c.91,0,1.36-.38,1.36-1.15v-.56a3.45,3.45,0,0,1,.81-2.42,2.8,2.8,0,0,1,2.22-.89,3.23,3.23,0,0,1,1.29.24,2.5,2.5,0,0,1,.94.68,2.86,2.86,0,0,1,.57,1,4.57,4.57,0,0,1,.19,1.32,3.47,3.47,0,0,1-.81,2.46,2.92,2.92,0,0,1-2.24.87,3.36,3.36,0,0,1-1.37-.28,2,2,0,0,1-1-.94,2.2,2.2,0,0,1-.39.62,2.09,2.09,0,0,1-.49.38,1.75,1.75,0,0,1-.53.18,3.4,3.4,0,0,1-.53,0h-.24a.3.3,0,0,1-.31-.19,1.35,1.35,0,0,1-.08-.56,1.65,1.65,0,0,1,.08-.63.31.31,0,0,1,.31-.2Zm5.94-1.64a2.21,2.21,0,0,0-.35-1.29,1.73,1.73,0,0,0-2.43,0,2.13,2.13,0,0,0-.39,1.37,1.52,1.52,0,0,0,.44,1.18,1.86,1.86,0,0,0,2.33,0A1.76,1.76,0,0,0,244.85,50.89Z"/>
        <path d="M254.21,55.69a4.54,4.54,0,0,1-.9,1.47,4,4,0,0,1-1.37,1,4.25,4.25,0,0,1-1.71.34h-1.1L249,56.9h.83a3.56,3.56,0,0,0,1.46-.26,2.59,2.59,0,0,0,1-.69,2.77,2.77,0,0,0,.57-1,3.67,3.67,0,0,0,.18-1.14V48.91h1.48v4.92A4.92,4.92,0,0,1,254.21,55.69Z"/>
        <path d="M256.74,43h1.48V54.11h-1.48Z"/>
        <path d="M262.58,53.83a5.12,5.12,0,0,1-.33,1.86,4.35,4.35,0,0,1-.89,1.47,4,4,0,0,1-1.35,1,4.16,4.16,0,0,1-1.7.34h-1.1l-.09-1.57H258a3.61,3.61,0,0,0,1.47-.26,2.75,2.75,0,0,0,1-.69,2.9,2.9,0,0,0,.56-1,3.67,3.67,0,0,0,.18-1.14V48.91h1.48v2.36a1.17,1.17,0,0,0,.39.93,1.48,1.48,0,0,0,1,.33h.2c.27,0,.4.26.4.77s-.13.81-.4.81H264a2.2,2.2,0,0,1-.79-.14,1.44,1.44,0,0,1-.66-.52Z"/>
        <path d="M266.61,52.53h.84a7.31,7.31,0,0,1,.74.06,6.44,6.44,0,0,1-1.33-.62,2.52,2.52,0,0,1-.73-.67,1.9,1.9,0,0,1-.32-.76,6.56,6.56,0,0,1-.07-.94,3,3,0,0,1,.19-1,3,3,0,0,1,.57-1,2.93,2.93,0,0,1,2.25-1,4.19,4.19,0,0,1,1.27.18,2.27,2.27,0,0,1,1,.6,2.87,2.87,0,0,1,.63,1.1,5.27,5.27,0,0,1,.22,1.65v.86A2.91,2.91,0,0,1,271,53.3a3.69,3.69,0,0,1-2.64.81h-4.14a.3.3,0,0,1-.31-.19,1.33,1.33,0,0,1-.09-.56,1.61,1.61,0,0,1,.09-.63.31.31,0,0,1,.31-.2ZM268.3,45h-1.64V43.49h1.64Zm.38,3.29a1.54,1.54,0,0,0-.67.13,1.48,1.48,0,0,0-.49.36,1.32,1.32,0,0,0-.31.49,1.63,1.63,0,0,0-.1.57,2.47,2.47,0,0,0,.06.56,1.19,1.19,0,0,0,.35.54,3.65,3.65,0,0,0,.85.56,13.63,13.63,0,0,0,1.59.68,1.31,1.31,0,0,0,.33-.54,2.25,2.25,0,0,0,.11-.74v-.54a2.58,2.58,0,0,0-.38-1.51A1.53,1.53,0,0,0,268.68,48.3Zm2-3.29h-1.64V43.49h1.64Z"/>
        <path d="M286.15,53.7a5.42,5.42,0,0,1-.31,1.86,4.69,4.69,0,0,1-.89,1.52,4,4,0,0,1-1.41,1,4.4,4.4,0,0,1-1.85.37h-1.1a4,4,0,0,1-3.13-1.24,4.92,4.92,0,0,1-1.12-3.4V50.64h1.46v3.13a3.54,3.54,0,0,0,.7,2.27,2.8,2.8,0,0,0,2.31.86h.79a3.5,3.5,0,0,0,1.4-.25,2.61,2.61,0,0,0,1-.68,2.85,2.85,0,0,0,.56-1,4,4,0,0,0,.18-1.21V48.91h1.45Zm-4.28-5.13h-1.76V47h1.76Z"/>
        <path d="M290.8,54.11a3.24,3.24,0,0,1-.94-.13,1.82,1.82,0,0,1-.78-.46,2.29,2.29,0,0,1-.53-.86,3.82,3.82,0,0,1-.2-1.32V43h1.48V51a1.93,1.93,0,0,0,.29,1.1,1.11,1.11,0,0,0,.95.41h.36c.26,0,.39.26.39.77s-.13.81-.39.81Z"/>
        <path d="M296,52.53a1.21,1.21,0,0,0,.91-.27.94.94,0,0,0,.26-.67,2.21,2.21,0,0,0-.1-.6,2,2,0,0,0-.52-.73l-3.67-3.65V45l6-2.3.34,1.47L294.38,46l3,3c.58.58,1.07,1.07,1.49,1.47s.77.74,1.07,1a7.15,7.15,0,0,0,.78.61,3.7,3.7,0,0,0,.6.33,1.75,1.75,0,0,0,.54.12l.6,0a.3.3,0,0,1,.31.19,1.63,1.63,0,0,1,.08.58,1.89,1.89,0,0,1-.08.62.3.3,0,0,1-.31.19,5.49,5.49,0,0,1-.95-.07,2.8,2.8,0,0,1-.84-.29,5.3,5.3,0,0,1-.9-.61c-.32-.26-.7-.61-1.13-1a2,2,0,0,1-.2.92,1.84,1.84,0,0,1-.52.62,2.32,2.32,0,0,1-.76.36,3.89,3.89,0,0,1-.93.11h-4.77a.31.31,0,0,1-.32-.19,1.54,1.54,0,0,1-.08-.56,1.88,1.88,0,0,1,.08-.63.32.32,0,0,1,.32-.2Z"/>
        <path d="M302.66,52.53c.91,0,1.37-.38,1.37-1.15v-.56a3.45,3.45,0,0,1,.8-2.42,2.8,2.8,0,0,1,2.22-.89,3.28,3.28,0,0,1,1.3.24,2.55,2.55,0,0,1,.93.68,2.72,2.72,0,0,1,.57,1,4.25,4.25,0,0,1,.19,1.32,3.47,3.47,0,0,1-.81,2.46,2.89,2.89,0,0,1-2.23.87,3.44,3.44,0,0,1-1.38-.28,2,2,0,0,1-1-.94,2,2,0,0,1-.39.62,2.09,2.09,0,0,1-.49.38,1.66,1.66,0,0,1-.53.18,3.32,3.32,0,0,1-.53,0h-.23a.31.31,0,0,1-.32-.19,1.54,1.54,0,0,1-.08-.56,1.88,1.88,0,0,1,.08-.63.32.32,0,0,1,.32-.2Zm5.94-1.64a2.21,2.21,0,0,0-.35-1.29,1.39,1.39,0,0,0-1.23-.51,1.43,1.43,0,0,0-1.2.49,2.13,2.13,0,0,0-.39,1.37,1.52,1.52,0,0,0,.44,1.18,1.61,1.61,0,0,0,1.13.4,1.56,1.56,0,0,0,1.2-.42A1.71,1.71,0,0,0,308.6,50.89Z"/>
        <path d="M325.75,54.11A2.24,2.24,0,0,1,325,54a1.44,1.44,0,0,1-.66-.52v.32A5.49,5.49,0,0,1,324,55.6a4.5,4.5,0,0,1-.87,1.49,4.05,4.05,0,0,1-1.39,1,4.38,4.38,0,0,1-1.84.37h-1.1a4,4,0,0,1-3.13-1.24,4.88,4.88,0,0,1-1.12-3.4V50.64H316v3.13a3.48,3.48,0,0,0,.7,2.27,2.79,2.79,0,0,0,2.3.86h.8a3.45,3.45,0,0,0,1.39-.25,2.61,2.61,0,0,0,1-.68,2.71,2.71,0,0,0,.56-1,4,4,0,0,0,.18-1.21V48.91h1.46v2.36a1.14,1.14,0,0,0,.4.93,1.51,1.51,0,0,0,1,.33h.2c.28,0,.42.26.42.77s-.14.81-.42.81Zm-5.68-5.54H318.3V47h1.77Z"/>
        <path d="M327.59,52.53a1.45,1.45,0,0,0,1-.34,1.28,1.28,0,0,0,.37-1V48.91h1.47v2.38a2.8,2.8,0,0,1-.73,2.09,2.71,2.71,0,0,1-2,.73H326a.3.3,0,0,1-.31-.19,1.35,1.35,0,0,1-.08-.56,1.65,1.65,0,0,1,.08-.63.31.31,0,0,1,.31-.2Zm0,5.15H326V56.17h1.61Zm2.44,0h-1.58V56.17h1.58Z"/>
        <path d="M332.65,43h1.47V54.11h-1.47Z"/>
        <path d="M342.29,55.69a4.74,4.74,0,0,1-.91,1.47,4,4,0,0,1-1.37,1,4.25,4.25,0,0,1-1.71.34h-1.1l-.09-1.57h.83a3.61,3.61,0,0,0,1.47-.26,2.75,2.75,0,0,0,1-.69,2.9,2.9,0,0,0,.56-1,3.67,3.67,0,0,0,.18-1.14V48.91h1.48v4.92A5.12,5.12,0,0,1,342.29,55.69Z"/>
        <path d="M351.1,49.72a3.89,3.89,0,0,1,.68,1.07,2.86,2.86,0,0,1,.22,1,2.26,2.26,0,0,1-.18.9,2.14,2.14,0,0,1-.52.72,2.48,2.48,0,0,1-.83.48,3.45,3.45,0,0,1-1.16.18h-4.93l-.09-1.58h4.81a1.34,1.34,0,0,0,.88-.26.87.87,0,0,0,.31-.68,1.34,1.34,0,0,0-.42-.91L346.67,47l1.15-1.08Z"/>
        <path d="M360.11,53.83a5.12,5.12,0,0,1-.32,1.86,4.52,4.52,0,0,1-.89,1.47,4,4,0,0,1-1.35,1,4.16,4.16,0,0,1-1.7.34h-1.1l-.09-1.57h.83a3.65,3.65,0,0,0,1.47-.26,2.75,2.75,0,0,0,1-.69,2.9,2.9,0,0,0,.56-1,3.67,3.67,0,0,0,.18-1.14V48.91h1.48v2.36a1.19,1.19,0,0,0,.38.93,1.53,1.53,0,0,0,1,.33h.2c.26,0,.4.26.4.77s-.14.81-.4.81h-.2a2.2,2.2,0,0,1-.79-.14,1.46,1.46,0,0,1-.67-.52Z"/>
        <path d="M363.08,52.53c.94,0,1.41-.44,1.41-1.31V48.91H366v2.31a1.41,1.41,0,0,0,.12.61,1,1,0,0,0,.32.4,1.33,1.33,0,0,0,.46.23,1.88,1.88,0,0,0,.53.07h.5c.28,0,.41.26.41.77s-.13.81-.41.81h-.56a3.07,3.07,0,0,1-1.21-.23,2,2,0,0,1-.95-.92,2.17,2.17,0,0,1-.94.92,2.78,2.78,0,0,1-1.15.23h-1.31a.29.29,0,0,1-.31-.19,1.33,1.33,0,0,1-.09-.56,1.61,1.61,0,0,1,.09-.63.3.3,0,0,1,.31-.2Zm1.53-5.83H363V45.19h1.63Zm2.42,0h-1.64V45.19H367Z"/>
        <path d="M369.2,52.53c.94,0,1.41-.44,1.41-1.31V48.91h1.47v2.31a1.41,1.41,0,0,0,.12.61,1,1,0,0,0,.32.4,1.37,1.37,0,0,0,.45.23,2,2,0,0,0,.54.07h.5c.28,0,.41.26.41.77s-.13.81-.41.81h-.56a3.07,3.07,0,0,1-1.21-.23,2,2,0,0,1-.95-.92,2.17,2.17,0,0,1-.94.92,2.78,2.78,0,0,1-1.15.23h-1.31a.29.29,0,0,1-.31-.19,1.33,1.33,0,0,1-.09-.56,1.61,1.61,0,0,1,.09-.63.3.3,0,0,1,.31-.2Zm1.28,5.15h-1.6V56.17h1.6Zm2.45,0h-1.58V56.17h1.58Z"/>
        <path d="M375.65,52.53a1.4,1.4,0,0,0,1-.34,1.24,1.24,0,0,0,.37-1V48.91h1.48v2.38a2.8,2.8,0,0,1-.73,2.09,2.72,2.72,0,0,1-2,.73H374a.29.29,0,0,1-.31-.19,1.33,1.33,0,0,1-.09-.56,1.61,1.61,0,0,1,.09-.63.3.3,0,0,1,.31-.2Zm.57-5.83h-1.63V45.19h1.63Zm2.42,0H377V45.19h1.64Z"/>
      </g>
    </g>
  </g>
</svg>
