<svg xmlns="http://www.w3.org/2000/svg" viewBox="0 0 429 252">
  <title>Artboard 1 copy 56</title>
  <g id="Isolation_Mode" data-name="Isolation Mode">
    <g>
      <path d="M50.8,140.61V105.06H61.74a16.61,16.61,0,0,1,8.39,2.12,14.71,14.71,0,0,1,5.77,6A18.47,18.47,0,0,1,78,122v1.64a18.56,18.56,0,0,1-2,8.81,14.6,14.6,0,0,1-5.75,6,16.67,16.67,0,0,1-8.38,2.15ZM58.13,111v23.73h3.54a8,8,0,0,0,6.57-2.81q2.27-2.8,2.32-8V122c0-3.62-.75-6.35-2.25-8.22A7.94,7.94,0,0,0,61.74,111Z"/>
      <path d="M112.5,123.64a21.45,21.45,0,0,1-1.86,9.21,13.9,13.9,0,0,1-5.31,6.1,14.69,14.69,0,0,1-7.92,2.15A14.87,14.87,0,0,1,89.52,139a14.14,14.14,0,0,1-5.37-6.07,20.75,20.75,0,0,1-1.92-9.07v-1.76a21.36,21.36,0,0,1,1.89-9.24,14.13,14.13,0,0,1,5.34-6.13,15.72,15.72,0,0,1,15.8,0,14.21,14.21,0,0,1,5.35,6.13,21.3,21.3,0,0,1,1.89,9.22ZM105.08,122c0-3.72-.67-6.56-2-8.49a7.07,7.07,0,0,0-11.4,0c-1.33,1.91-2,4.72-2,8.41v1.73c0,3.63.66,6.45,2,8.45a6.5,6.5,0,0,0,5.76,3,6.42,6.42,0,0,0,5.66-2.89q2-2.89,2-8.43Z"/>
      <path d="M146.73,140.61H139.4l-14.25-23.39v23.39h-7.33V105.06h7.33l14.28,23.44V105.06h7.3Z"/>
      <path d="M154.69,116l-3.32-1.93a13.05,13.05,0,0,0,2.17-6.81v-4.13h5.61v3.79a11.08,11.08,0,0,1-1.22,4.76A13,13,0,0,1,154.69,116Z"/>
      <path d="M191.36,111H180.47v29.61h-7.33V111H162.4v-5.94h29Z"/>
      <path d="M225,131.29a3.75,3.75,0,0,0-1.47-3.19,19,19,0,0,0-5.27-2.34,38.78,38.78,0,0,1-6-2.43q-6.06-3.27-6.05-8.82a8.61,8.61,0,0,1,1.62-5.14,10.58,10.58,0,0,1,4.66-3.52,17.5,17.5,0,0,1,6.83-1.27A15.92,15.92,0,0,1,226,106a10.77,10.77,0,0,1,4.63,3.89,10.18,10.18,0,0,1,1.65,5.71H225a4.8,4.8,0,0,0-1.53-3.79,6.31,6.31,0,0,0-4.33-1.36,6.71,6.71,0,0,0-4.17,1.14,3.57,3.57,0,0,0-1.49,3,3.42,3.42,0,0,0,1.75,2.9,19.47,19.47,0,0,0,5.14,2.2q6.24,1.88,9.1,4.66a9.28,9.28,0,0,1,2.86,6.94,8.58,8.58,0,0,1-3.49,7.24q-3.5,2.63-9.4,2.62a18.12,18.12,0,0,1-7.47-1.5,11.75,11.75,0,0,1-5.14-4.12,10.53,10.53,0,0,1-1.77-6h7.35q0,5.88,7,5.88a6.79,6.79,0,0,0,4.07-1.06A3.44,3.44,0,0,0,225,131.29Z"/>
      <path d="M266.19,140.61h-7.33V125.38H244.58v15.23h-7.33V105.06h7.33v14.41h14.28V105.06h7.33Z"/>
      <path d="M301.78,123.64a21.6,21.6,0,0,1-1.85,9.21,14,14,0,0,1-5.31,6.1,15.7,15.7,0,0,1-15.81,0,14.14,14.14,0,0,1-5.37-6.07,20.75,20.75,0,0,1-1.93-9.07v-1.76a21.36,21.36,0,0,1,1.89-9.24,14.09,14.09,0,0,1,5.35-6.13,15.7,15.7,0,0,1,15.79,0,14.15,14.15,0,0,1,5.35,6.13,21.3,21.3,0,0,1,1.89,9.22ZM294.36,122c0-3.72-.67-6.56-2-8.49a7.07,7.07,0,0,0-11.4,0c-1.34,1.91-2,4.72-2,8.41v1.73q0,5.44,2,8.45a6.52,6.52,0,0,0,5.76,3,6.45,6.45,0,0,0,5.67-2.89c1.32-1.93,2-4.74,2-8.43Z"/>
      <path d="M334,105.06v23.42a12,12,0,0,1-3.65,9.23q-3.66,3.39-10,3.39t-9.88-3.3a11.77,11.77,0,0,1-3.74-9.05V105.06h7.33v23.47c0,2.32.55,4,1.67,5.09a6.42,6.42,0,0,0,4.62,1.6q6.18,0,6.28-6.5V105.06Z"/>
      <path d="M366.77,111H355.88v29.61h-7.32V111H337.82v-5.94h28.95Z"/>
      <path d="M374.73,133.56a4,4,0,0,1,2.87,1.05,3.82,3.82,0,0,1,0,5.34,4,4,0,0,1-2.87,1.05,3.91,3.91,0,0,1-2.84-1.05,3.51,3.51,0,0,1-1.09-2.66,3.57,3.57,0,0,1,1.09-2.67A3.87,3.87,0,0,1,374.73,133.56Zm2.93-3.86H371.8L371,105.06h7.52Z"/>
    </g>
  </g>
</svg>
