<svg xmlns="http://www.w3.org/2000/svg" viewBox="0 0 429 252">
  <title>Artboard 1 copy 57</title>
  <g id="Isolation_Mode" data-name="Isolation Mode">
    <g>
      <path d="M122.3,128.77a12.55,12.55,0,0,1-4.24,9q-3.81,3.3-10.07,3.3-6.83,0-10.75-4.6t-3.92-12.64v-2.17a21.19,21.19,0,0,1,1.81-9,13.52,13.52,0,0,1,5.16-6,14.48,14.48,0,0,1,7.8-2.08q6.15,0,9.91,3.29a13.51,13.51,0,0,1,4.35,9.26H115a7.45,7.45,0,0,0-1.92-5,7.12,7.12,0,0,0-5-1.55,6.22,6.22,0,0,0-5.48,2.63q-1.81,2.63-1.87,8.14V124c0,3.85.58,6.65,1.75,8.43a6.11,6.11,0,0,0,5.5,2.66,7.25,7.25,0,0,0,5.07-1.55,7.07,7.07,0,0,0,1.92-4.8Z" style="fill: #ff8873"/>
      <path d="M156.31,123.64a21.45,21.45,0,0,1-1.86,9.21,13.9,13.9,0,0,1-5.31,6.1,15.68,15.68,0,0,1-15.8,0,14.1,14.1,0,0,1-5.38-6.07,20.89,20.89,0,0,1-1.92-9.07v-1.76a21.36,21.36,0,0,1,1.89-9.24,14.13,14.13,0,0,1,5.34-6.13,15.72,15.72,0,0,1,15.8,0,14.15,14.15,0,0,1,5.35,6.13,21.3,21.3,0,0,1,1.89,9.22ZM148.89,122c0-3.72-.67-6.56-2-8.49a7.08,7.08,0,0,0-11.41,0c-1.33,1.91-2,4.72-2,8.41v1.73q0,5.44,2,8.45a7,7,0,0,0,11.43.11q2-2.89,2-8.43Z" style="fill: #4160f7"/>
      <path d="M169,134.73h15.55v5.88H161.63V105.06H169Z" style="fill: #4160f7"/>
      <path d="M216.34,123.64a21.6,21.6,0,0,1-1.85,9.21,14,14,0,0,1-5.31,6.1,15.7,15.7,0,0,1-15.81,0,14.14,14.14,0,0,1-5.37-6.07,20.89,20.89,0,0,1-1.93-9.07v-1.76a21.36,21.36,0,0,1,1.89-9.24,14.15,14.15,0,0,1,5.35-6.13,15.7,15.7,0,0,1,15.79,0,14.09,14.09,0,0,1,5.35,6.13,21.3,21.3,0,0,1,1.89,9.22ZM208.92,122c0-3.72-.67-6.56-2-8.49a7.07,7.07,0,0,0-11.4,0c-1.34,1.91-2,4.72-2,8.41v1.73q0,5.44,2,8.45a6.52,6.52,0,0,0,5.77,3,6.45,6.45,0,0,0,5.66-2.89q2-2.89,2-8.43Z" style="fill: #43c462"/>
      <path d="M234.83,127.6H229v13h-7.32V105.06h13.2q6.3,0,9.72,2.81a9.69,9.69,0,0,1,3.42,7.94,10.92,10.92,0,0,1-1.58,6.06,10.74,10.74,0,0,1-4.77,3.87l7.69,14.53v.34h-7.86ZM229,121.67h5.91a6,6,0,0,0,4.27-1.41,5,5,0,0,0,1.51-3.87,5.37,5.37,0,0,0-1.42-4,6,6,0,0,0-4.39-1.44H229Z" style="fill: #e8d577"/>
      <path d="M275,126.09H260.9v14.52h-7.32V105.06h23.14V111H260.9v9.18H275Z" style="fill: #844dc4"/>
      <path d="M307.87,105.06v23.42a12,12,0,0,1-3.65,9.23q-3.64,3.39-10,3.39t-9.89-3.3a11.73,11.73,0,0,1-3.73-9.05V105.06H288v23.47q0,3.48,1.67,5.09a6.46,6.46,0,0,0,4.63,1.6q6.18,0,6.27-6.5V105.06Z" style="fill: #e5b385"/>
      <path d="M321.2,134.73h15.55v5.88H313.88V105.06h7.32Z" style="fill: #e5b385"/>
    </g>
  </g>
</svg>
