<svg xmlns="http://www.w3.org/2000/svg" viewBox="0 0 426 252">
  <title>material-38</title>
  <g id="Isolation_Mode" data-name="Isolation Mode">
    <g>
      <path d="M64.45,66.54l15.23,43,15.14-43h16v59.27H98.61V109.6l1.22-28-16,44.17H75.45l-16-44.13,1.22,27.92v16.21H48.5V66.54Z"/>
      <path d="M141,126.62q-9.69,0-15.78-5.94t-6.08-15.84V103.7a26.56,26.56,0,0,1,2.56-11.86A18.75,18.75,0,0,1,129,83.78,20.34,20.34,0,0,1,139.72,81q9,0,14.23,5.69t5.19,16.17v4.8h-28a10.94,10.94,0,0,0,3.44,6.92,10.41,10.41,0,0,0,7.27,2.61,12.7,12.7,0,0,0,10.62-4.93l5.78,6.47a17.55,17.55,0,0,1-7.16,5.84A23.46,23.46,0,0,1,141,126.62Zm-1.35-36.19A7.37,7.37,0,0,0,134,92.8a12.26,12.26,0,0,0-2.78,6.79h16.36v-.94a8.76,8.76,0,0,0-2.12-6.07A7.57,7.57,0,0,0,139.68,90.43Z"/>
      <path d="M164,103.46q0-10.3,4.63-16.41A15,15,0,0,1,181.24,81a13.51,13.51,0,0,1,10.63,4.8V63.28h11.8v62.53H193.05l-.57-4.69a13.83,13.83,0,0,1-11.32,5.5,14.93,14.93,0,0,1-12.47-6.13Q164,114.37,164,103.46Zm11.77.87q0,6.19,2.16,9.5a7,7,0,0,0,6.27,3.31,7.87,7.87,0,0,0,7.69-4.61V95.12a7.76,7.76,0,0,0-7.61-4.61Q175.74,90.51,175.75,104.33Z"/>
      <path d="M212.71,70.36A5.79,5.79,0,0,1,214.48,66a7.63,7.63,0,0,1,9.63,0,6.22,6.22,0,0,1,0,8.75,7.55,7.55,0,0,1-9.57,0A5.81,5.81,0,0,1,212.71,70.36Zm12.5,55.45H213.4v-44h11.81Z"/>
      <path d="M261.28,121.33q-4.36,5.3-12,5.29-7.09,0-10.81-4.07t-3.81-11.93V81.76h11.77v28.49q0,6.89,6.27,6.89,6,0,8.22-4.16V81.76h11.8v44.05H261.6Z"/>
      <path d="M292.58,81.76l.37,4.93A15.47,15.47,0,0,1,305.61,81q8.5,0,11.68,6.71,4.63-6.72,13.23-6.71,7.17,0,10.67,4.17t3.5,12.56v28.13H332.88V97.72c0-2.5-.49-4.32-1.46-5.48s-2.7-1.73-5.17-1.73a7.35,7.35,0,0,0-7.33,5l0,30.25H307.19v-28q0-3.83-1.5-5.54t-5.13-1.71a7.65,7.65,0,0,0-7.25,4.15v31.15H281.55v-44Z"/>
    </g>
    <g>
      <path d="M51.49,178H65v2H49.15V152.57h2.34Z"/>
      <path d="M68.82,153.73a1.55,1.55,0,0,1,.41-1.08,1.68,1.68,0,0,1,2.27,0,1.48,1.48,0,0,1,.43,1.08,1.46,1.46,0,0,1-.43,1.07,1.71,1.71,0,0,1-2.27,0A1.52,1.52,0,0,1,68.82,153.73ZM71.48,180H69.22V159.62h2.26Z"/>
      <path d="M76.69,169.62A12.27,12.27,0,0,1,78.81,162a6.85,6.85,0,0,1,5.76-2.8,7.1,7.1,0,0,1,6.33,3.31l.11-2.93h2.11v20a8.62,8.62,0,0,1-2.2,6.23,7.89,7.89,0,0,1-6,2.3,9.1,9.1,0,0,1-4.06-1,7.9,7.9,0,0,1-3-2.54l1.27-1.35a7.13,7.13,0,0,0,5.69,2.94,5.77,5.77,0,0,0,4.4-1.67,6.58,6.58,0,0,0,1.64-4.63v-2.56a7.29,7.29,0,0,1-6.31,3,6.81,6.81,0,0,1-5.69-2.83,12.32,12.32,0,0,1-2.15-7.63ZM79,170a10.66,10.66,0,0,0,1.57,6.15A5.05,5.05,0,0,0,85,178.42a6,6,0,0,0,5.89-3.73v-9.48a6.32,6.32,0,0,0-2.28-3,6.09,6.09,0,0,0-3.58-1,5.1,5.1,0,0,0-4.42,2.23C79.5,164.92,79,167.11,79,170Z"/>
      <path d="M101.24,163.06a7.93,7.93,0,0,1,2.85-2.82,7.37,7.37,0,0,1,3.78-1,6.07,6.07,0,0,1,4.88,1.85,8.28,8.28,0,0,1,1.62,5.53V180h-2.24V166.61a6.19,6.19,0,0,0-1.16-4.07,4.5,4.5,0,0,0-3.64-1.34,5.69,5.69,0,0,0-3.7,1.31,7.66,7.66,0,0,0-2.39,3.53v14H99V151.06h2.24Z"/>
      <path d="M123.68,154.4v5.22h4.22v1.84h-4.22v13.6a4.27,4.27,0,0,0,.61,2.53,2.39,2.39,0,0,0,2,.83,15.22,15.22,0,0,0,1.82-.19l.1,1.83a7.42,7.42,0,0,1-2.41.32,4,4,0,0,1-3.38-1.35,6.37,6.37,0,0,1-1-4v-13.6h-3.75v-1.84h3.75V154.4Z"/>
    </g>
  </g>
</svg>
