<svg xmlns="http://www.w3.org/2000/svg" viewBox="0 0 858 504">
  <title>Artboard 1 copy 46</title>
  <g id="Isolation_Mode" data-name="Isolation Mode">
    <rect width="858" height="504"/>
    <g>
      <path d="M96.73,124.19h15.71v2.27H94V94.65h2.71Z" style="fill: #fff"/>
      <path d="M116.83,96a1.76,1.76,0,0,1,.48-1.25,1.7,1.7,0,0,1,1.31-.51,1.76,1.76,0,0,1,1.32.51,1.73,1.73,0,0,1,.49,1.25,1.67,1.67,0,0,1-.49,1.24,1.79,1.79,0,0,1-1.32.5,1.73,1.73,0,0,1-1.31-.5A1.7,1.7,0,0,1,116.83,96Zm3.08,30.47h-2.62V102.82h2.62Z" style="fill: #fff"/>
      <path d="M126,114.42q0-5.55,2.46-8.79a7.9,7.9,0,0,1,6.67-3.25,8.21,8.21,0,0,1,7.34,3.85l.13-3.41H145V126a10,10,0,0,1-2.56,7.23,9.15,9.15,0,0,1-6.92,2.66,10.58,10.58,0,0,1-4.71-1.1,9.25,9.25,0,0,1-3.53-2.94l1.46-1.57a8.29,8.29,0,0,0,6.6,3.41,6.69,6.69,0,0,0,5.11-1.94,7.64,7.64,0,0,0,1.9-5.36v-3a8.43,8.43,0,0,1-7.31,3.49,7.89,7.89,0,0,1-6.6-3.27q-2.49-3.28-2.49-8.85Zm2.64.46a12.39,12.39,0,0,0,1.81,7.13,5.88,5.88,0,0,0,5.12,2.61,7,7,0,0,0,6.83-4.32v-11a7.39,7.39,0,0,0-2.64-3.46,7.07,7.07,0,0,0-4.15-1.19,5.93,5.93,0,0,0-5.13,2.58C129.21,109,128.6,111.51,128.6,114.88Z" style="fill: #fff"/>
      <path d="M154.42,106.82a9.25,9.25,0,0,1,3.3-3.28,8.65,8.65,0,0,1,4.39-1.16c2.54,0,4.42.72,5.66,2.14s1.86,3.57,1.88,6.43v15.51h-2.6V110.92a7.17,7.17,0,0,0-1.34-4.71,5.26,5.26,0,0,0-4.23-1.55,6.59,6.59,0,0,0-4.29,1.51,8.94,8.94,0,0,0-2.77,4.1v16.19h-2.6V92.9h2.6Z" style="fill: #fff"/>
      <path d="M180.44,96.77v6h4.89V105h-4.89v15.77a5,5,0,0,0,.71,2.93,2.75,2.75,0,0,0,2.37,1,15.61,15.61,0,0,0,2.12-.22l.11,2.13a8.77,8.77,0,0,1-2.8.36,4.67,4.67,0,0,1-3.91-1.56,7.38,7.38,0,0,1-1.22-4.6V105h-4.35v-2.14h4.35v-6Z" style="fill: #fff"/>
    </g>
    <g>
      <path d="M481.84,113.59h-7.47v12.87h-4.21V94.65h10.53q5.37,0,8.26,2.45t2.9,7.12a8.6,8.6,0,0,1-1.61,5.18,9.54,9.54,0,0,1-4.46,3.29l7.47,13.5v.27h-4.5Zm-7.47-3.43h6.45a7.27,7.27,0,0,0,5-1.62,5.47,5.47,0,0,0,1.84-4.33,5.74,5.74,0,0,0-1.76-4.53,7.41,7.41,0,0,0-5.08-1.6h-6.42Z" style="fill: #fff"/>
      <path d="M506.9,126.89a10.34,10.34,0,0,1-7.82-3.15,11.73,11.73,0,0,1-3-8.45v-.74a14.13,14.13,0,0,1,1.35-6.28,10.43,10.43,0,0,1,3.76-4.32,9.38,9.38,0,0,1,5.23-1.57,8.86,8.86,0,0,1,7.16,3q2.57,3,2.56,8.69v1.69h-16a8.35,8.35,0,0,0,2,5.64,6.4,6.4,0,0,0,5,2.16,7.1,7.1,0,0,0,3.63-.88,9,9,0,0,0,2.59-2.31l2.47,1.92A9.93,9.93,0,0,1,506.9,126.89Zm-.5-21.19a5.43,5.43,0,0,0-4.11,1.78,8.63,8.63,0,0,0-2.05,5h11.84v-.31a7.72,7.72,0,0,0-1.66-4.77A5.08,5.08,0,0,0,506.4,105.7Z" style="fill: #fff"/>
      <path d="M519.83,114.44q0-5.52,2.56-8.79a8.8,8.8,0,0,1,13.52-.21l.2-2.62h3.69v23.07a9.62,9.62,0,0,1-2.72,7.23,10,10,0,0,1-7.31,2.64,12.12,12.12,0,0,1-5-1.09,8.62,8.62,0,0,1-3.74-3l2.1-2.43a7.9,7.9,0,0,0,6.36,3.21,6.19,6.19,0,0,0,4.6-1.66,6.32,6.32,0,0,0,1.65-4.67v-2a8.33,8.33,0,0,1-6.62,2.79,8.07,8.07,0,0,1-6.72-3.34C520.69,121.32,519.83,118.29,519.83,114.44Zm4.07.46a10.6,10.6,0,0,0,1.63,6.28,5.35,5.35,0,0,0,4.59,2.28,5.92,5.92,0,0,0,5.62-3.47V109.2a6,6,0,0,0-5.57-3.39,5.36,5.36,0,0,0-4.61,2.3Q523.9,110.41,523.9,114.9Z" style="fill: #fff"/>
      <path d="M560.49,124.12c-1.58,1.85-3.88,2.77-6.93,2.77a7.33,7.33,0,0,1-5.75-2.19c-1.32-1.47-2-3.63-2-6.5V102.82h4v15.27c0,3.58,1.45,5.37,4.37,5.37,3.08,0,5.14-1.15,6.16-3.45V102.82h4v23.64h-3.85Z" style="fill: #fff"/>
      <path d="M575,126.46h-4V92.9h4Z" style="fill: #fff"/>
      <path d="M596,126.46a8.79,8.79,0,0,1-.57-2.49,9,9,0,0,1-6.73,2.92,8.31,8.31,0,0,1-5.73-2,6.38,6.38,0,0,1-2.24-5,6.66,6.66,0,0,1,2.81-5.73q2.81-2,7.89-2h3.93v-1.86a4.57,4.57,0,0,0-1.26-3.38,5.13,5.13,0,0,0-3.74-1.25,5.85,5.85,0,0,0-3.62,1.09,3.22,3.22,0,0,0-1.47,2.64h-4.06a5.57,5.57,0,0,1,1.26-3.42,8.7,8.7,0,0,1,3.4-2.61,11.49,11.49,0,0,1,4.73-1,9.29,9.29,0,0,1,6.4,2.05,7.34,7.34,0,0,1,2.41,5.62v10.88a13.19,13.19,0,0,0,.83,5.18v.35Zm-6.71-3.08a7.09,7.09,0,0,0,3.61-1,5.86,5.86,0,0,0,2.46-2.55V115h-3.16q-7.43,0-7.43,4.35a3.68,3.68,0,0,0,1.27,3A4.88,4.88,0,0,0,589.3,123.38Z" style="fill: #fff"/>
      <path d="M617.18,106.45a11.3,11.3,0,0,0-2-.16,5.33,5.33,0,0,0-5.4,3.39v16.78h-4V102.82h3.93l.07,2.73a6.29,6.29,0,0,1,5.64-3.17,4.2,4.2,0,0,1,1.79.31Z" style="fill: #fff"/>
    </g>
    <g>
      <path d="M100.4,286.19l9.17,24.38,9.16-24.38h7.14V318h-5.5V307.51l.54-14L111.52,318h-4l-9.37-24.49.55,14V318H93.23V286.19Z" style="fill: #fff"/>
      <path d="M142.3,318.44a11,11,0,0,1-8.18-3.18,11.54,11.54,0,0,1-3.14-8.47v-.65a14.22,14.22,0,0,1,1.37-6.33,10.42,10.42,0,0,1,3.83-4.33,10.1,10.1,0,0,1,5.51-1.55,9.26,9.26,0,0,1,7.46,3.08c1.75,2.05,2.63,5,2.63,8.71v2.14H136.33a7.08,7.08,0,0,0,2,4.63,5.85,5.85,0,0,0,4.31,1.71,7.18,7.18,0,0,0,6-2.95l2.86,2.73a9.61,9.61,0,0,1-3.79,3.29A11.88,11.88,0,0,1,142.3,318.44Zm-.63-20.25a4.46,4.46,0,0,0-3.53,1.53,7.85,7.85,0,0,0-1.72,4.26h10.12v-.4a6.49,6.49,0,0,0-1.42-4A4.43,4.43,0,0,0,141.67,298.19Z" style="fill: #fff"/>
      <path d="M154.9,306a14,14,0,0,1,2.54-8.77,8.1,8.1,0,0,1,6.79-3.31,7.69,7.69,0,0,1,6.07,2.62V284.44h5.31V318h-4.8l-.27-2.45a7.79,7.79,0,0,1-6.35,2.89,8.08,8.08,0,0,1-6.72-3.35Q154.9,311.76,154.9,306Zm5.31.46a9.79,9.79,0,0,0,1.39,5.62,4.49,4.49,0,0,0,3.94,2,5,5,0,0,0,4.76-2.9v-10.1a4.92,4.92,0,0,0-4.71-2.84,4.52,4.52,0,0,0-4,2.05Q160.22,302.36,160.21,306.47Z" style="fill: #fff"/>
      <path d="M181.16,288.22a2.82,2.82,0,0,1,.78-2,3.45,3.45,0,0,1,4.44,0,2.78,2.78,0,0,1,.79,2,2.7,2.7,0,0,1-.79,2,3.48,3.48,0,0,1-4.44,0A2.73,2.73,0,0,1,181.16,288.22ZM186.8,318h-5.31V294.36h5.31Z" style="fill: #fff"/>
      <path d="M206.9,315.68a8.24,8.24,0,0,1-6.65,2.76,7.34,7.34,0,0,1-5.82-2.25q-2-2.25-2-6.51V294.36h5.3v15.25q0,4.5,3.74,4.5t5.22-2.77v-17H212V318h-5Z" style="fill: #fff"/>
      <path d="M222.43,294.36l.15,2.47a8.49,8.49,0,0,1,6.82-2.9q4.74,0,6.49,3.62a8.38,8.38,0,0,1,7.25-3.62q3.92,0,5.82,2.16c1.27,1.44,1.93,3.57,2,6.38V318h-5.31V302.62a4.68,4.68,0,0,0-1-3.3,4.29,4.29,0,0,0-3.25-1.05,4.4,4.4,0,0,0-3,1,5.07,5.07,0,0,0-1.61,2.54l0,16.21h-5.3V302.45q-.12-4.18-4.26-4.18a4.69,4.69,0,0,0-4.53,2.6V318h-5.3V294.36Z" style="fill: #fff"/>
    </g>
    <g>
      <path d="M473.81,318V286.19H485q5.79,0,8.78,2.22a7.57,7.57,0,0,1,3,6.5,7.2,7.2,0,0,1-1.2,4.12,7.07,7.07,0,0,1-3.35,2.61,6.73,6.73,0,0,1,3.86,2.47,7.27,7.27,0,0,1,1.41,4.54c0,3.06-1,5.37-2.93,7s-4.73,2.37-8.34,2.4Zm6.55-18.48h4.85q5-.09,5-4a3.66,3.66,0,0,0-1.25-3.11,6.65,6.65,0,0,0-4-.95h-4.59Zm0,4.63v8.59H486a5.38,5.38,0,0,0,3.61-1.11,3.77,3.77,0,0,0,1.3-3.05c0-2.91-1.5-4.39-4.52-4.43Z" style="fill: #fff"/>
      <path d="M501,306a14.09,14.09,0,0,1,1.36-6.27,9.94,9.94,0,0,1,3.9-4.26,11.44,11.44,0,0,1,5.91-1.5,10.77,10.77,0,0,1,7.81,2.92,11.75,11.75,0,0,1,3.37,8l.05,1.61a12.37,12.37,0,0,1-3,8.73,11.76,11.76,0,0,1-16.31,0C502,313,501,310,501,306.25Zm6.32.45a8.76,8.76,0,0,0,1.27,5.15,4.54,4.54,0,0,0,7.2,0Q517,309.82,517,306a8.75,8.75,0,0,0-1.29-5.12,4.16,4.16,0,0,0-3.62-1.81,4.11,4.11,0,0,0-3.58,1.8C507.7,302,507.28,303.89,507.28,306.41Z" style="fill: #fff"/>
      <path d="M533.91,318h-6.34V284.44h6.34Z" style="fill: #fff"/>
      <path d="M538.12,306c0-3.69.83-6.62,2.48-8.81a8.07,8.07,0,0,1,6.79-3.27,7.26,7.26,0,0,1,5.7,2.57V284.44h6.33V318h-5.7l-.3-2.51a7.46,7.46,0,0,1-6.08,2.95,8,8,0,0,1-6.69-3.29C539,313,538.12,309.91,538.12,306Zm6.32.47a9.24,9.24,0,0,0,1.16,5.09,3.75,3.75,0,0,0,3.36,1.78,4.23,4.23,0,0,0,4.13-2.48v-9.34a4.17,4.17,0,0,0-4.09-2.47Q544.44,299.06,544.44,306.48Z" style="fill: #fff"/>
    </g>
    <g>
      <path d="M99.17,167.63H92.92L91.5,171.5H90.28l5.22-13.77h1.1l5.21,13.77H100.6Zm-5.89-1h5.53L96,159.15Z" style="fill: #fff"/>
      <path d="M110,171.5a5.5,5.5,0,0,1-.21-1.43,4,4,0,0,1-1.52,1.2,4.7,4.7,0,0,1-2,.42,3.44,3.44,0,0,1-2.38-.82,2.7,2.7,0,0,1-.92-2.08,2.75,2.75,0,0,1,1.25-2.37,6,6,0,0,1,3.46-.87h2.06v-1.16a2.26,2.26,0,0,0-.68-1.73,2.79,2.79,0,0,0-2-.63,3.06,3.06,0,0,0-2,.61,1.79,1.79,0,0,0-.78,1.45h-1.13a2.65,2.65,0,0,1,1.13-2.11,4.36,4.36,0,0,1,2.79-.89,4,4,0,0,1,2.71.85,3.11,3.11,0,0,1,1,2.39v4.84a6.27,6.27,0,0,0,.31,2.23v.11Zm-3.55-.81a3.88,3.88,0,0,0,2-.55,3.29,3.29,0,0,0,1.3-1.47v-2.25h-2a5.06,5.06,0,0,0-2.65.62,1.87,1.87,0,0,0-.95,1.65,1.83,1.83,0,0,0,.64,1.43A2.39,2.39,0,0,0,106.48,170.69Z" style="fill: #fff"/>
      <path d="M114.21,171.5V157.73h4.07a5.28,5.28,0,0,1,3.36.91,3.25,3.25,0,0,1,1.14,2.69,3,3,0,0,1-.58,1.86,3.13,3.13,0,0,1-1.59,1.13,3.34,3.34,0,0,1,1.93,1.19,3.27,3.27,0,0,1,.74,2.11,3.59,3.59,0,0,1-1.18,2.85,4.81,4.81,0,0,1-3.28,1Zm1.17-7.6h3.18a3.49,3.49,0,0,0,2.25-.68,2.36,2.36,0,0,0,.8-1.92,2.31,2.31,0,0,0-.83-2,4.09,4.09,0,0,0-2.5-.63h-2.9Zm0,1v5.63h3.49a3.55,3.55,0,0,0,2.37-.76,2.66,2.66,0,0,0,.87-2.11,2.58,2.58,0,0,0-.83-2,3.4,3.4,0,0,0-2.32-.74Z" style="fill: #fff"/>
      <path d="M134.06,166.49a6.11,6.11,0,0,1-1.06,3.79,3.39,3.39,0,0,1-2.85,1.41,3.67,3.67,0,0,1-3.23-1.59l0,1.4h-1.06V157h1.13v5.78a3.54,3.54,0,0,1,3.19-1.67,3.42,3.42,0,0,1,2.87,1.38,6.21,6.21,0,0,1,1.06,3.86Zm-1.14-.2a5.38,5.38,0,0,0-.78-3.13,2.56,2.56,0,0,0-2.21-1.1,3.16,3.16,0,0,0-1.85.53,3.3,3.3,0,0,0-1.14,1.57v4.62a3,3,0,0,0,3,1.93,2.52,2.52,0,0,0,2.19-1.11A5.67,5.67,0,0,0,132.92,166.29Z" style="fill: #fff"/>
      <path d="M146.57,167.21a4.9,4.9,0,0,1-1.55,3.33,5.2,5.2,0,0,1-3.52,1.15,4.88,4.88,0,0,1-2.71-.77,5,5,0,0,1-1.82-2.17,7.73,7.73,0,0,1-.65-3.21v-1.79a7.79,7.79,0,0,1,.64-3.25,4.94,4.94,0,0,1,1.85-2.19,5.09,5.09,0,0,1,2.78-.77,4.94,4.94,0,0,1,3.49,1.19,5,5,0,0,1,1.49,3.3H145.4q-.43-3.51-3.81-3.51a3.63,3.63,0,0,0-3,1.4,6.11,6.11,0,0,0-1.11,3.88v1.68a6.09,6.09,0,0,0,1.09,3.81,3.49,3.49,0,0,0,2.92,1.42,3.86,3.86,0,0,0,2.75-.88,4.21,4.21,0,0,0,1.15-2.62Z" style="fill: #fff"/>
      <path d="M152.92,170.73a3,3,0,0,0,2-.66,2.39,2.39,0,0,0,.87-1.73h1.08a3.19,3.19,0,0,1-.58,1.71,3.69,3.69,0,0,1-1.44,1.2,4.29,4.29,0,0,1-1.91.44,4,4,0,0,1-3.19-1.4,5.64,5.64,0,0,1-1.18-3.77v-.34a6.43,6.43,0,0,1,.53-2.67,4,4,0,0,1,1.52-1.8,4.21,4.21,0,0,1,2.31-.63,4,4,0,0,1,2.78,1,3.69,3.69,0,0,1,1.16,2.64h-1.08a2.77,2.77,0,0,0-.87-1.94,3.08,3.08,0,0,0-4.37.37,5,5,0,0,0-.85,3.1v.33a4.93,4.93,0,0,0,.85,3.06A2.84,2.84,0,0,0,152.92,170.73Z" style="fill: #fff"/>
      <path d="M159.38,171.5V157.73h3.85a6.05,6.05,0,0,1,3,.77,5.31,5.31,0,0,1,2.09,2.21,7,7,0,0,1,.75,3.27v1.27a7,7,0,0,1-.74,3.27,5.27,5.27,0,0,1-2.11,2.2,6.12,6.12,0,0,1-3.12.78Zm1.16-12.79v11.81h2.61a4.46,4.46,0,0,0,3.49-1.45,5.55,5.55,0,0,0,1.32-3.9V164a5.42,5.42,0,0,0-1.3-3.81,4.43,4.43,0,0,0-3.41-1.44Z" style="fill: #fff"/>
      <path d="M171.34,166.29a6.17,6.17,0,0,1,1.07-3.8,3.43,3.43,0,0,1,2.89-1.41,3.56,3.56,0,0,1,3.16,1.63V157h1.12V171.5h-1.06l0-1.36a3.67,3.67,0,0,1-3.2,1.55,3.43,3.43,0,0,1-2.85-1.42,6.22,6.22,0,0,1-1.09-3.85Zm1.15.2a5.4,5.4,0,0,0,.78,3.09,2.57,2.57,0,0,0,2.22,1.13,3.06,3.06,0,0,0,3-1.85v-4.8a3,3,0,0,0-3-2,2.57,2.57,0,0,0-2.23,1.12A5.72,5.72,0,0,0,172.49,166.49Z" style="fill: #fff"/>
      <path d="M190.43,164.9H184v5.62h7.41v1h-8.57V157.73h8.52v1H184v5.2h6.44Z" style="fill: #fff"/>
      <path d="M197.37,171.69a4.51,4.51,0,0,1-2.36-.64,4.42,4.42,0,0,1-1.65-1.8,5.55,5.55,0,0,1-.58-2.57v-.41a6.07,6.07,0,0,1,.57-2.66,4.53,4.53,0,0,1,1.59-1.86,3.94,3.94,0,0,1,2.22-.67,3.68,3.68,0,0,1,3,1.27,5.16,5.16,0,0,1,1.1,3.47v.64H193.9v.22a4.33,4.33,0,0,0,1,2.9,3.18,3.18,0,0,0,2.51,1.15,3.73,3.73,0,0,0,1.61-.33,3.54,3.54,0,0,0,1.26-1.06l.71.54A4.12,4.12,0,0,1,197.37,171.69Zm-.21-9.65A2.81,2.81,0,0,0,195,163a4.29,4.29,0,0,0-1.07,2.51h6.14v-.12a3.75,3.75,0,0,0-.84-2.4A2.61,2.61,0,0,0,197.16,162Z" style="fill: #fff"/>
      <path d="M211.26,165.06h-6.42v6.44h-1.17V157.73h8.54v1h-7.37v5.36h6.42Z" style="fill: #fff"/>
      <path d="M215.12,171.5v-9.31h-1.69v-.92h1.69V160a3.41,3.41,0,0,1,.8-2.42,2.92,2.92,0,0,1,2.23-.84,4.58,4.58,0,0,1,1.2.16l-.09.94a4.17,4.17,0,0,0-1-.11,1.83,1.83,0,0,0-1.45.58,2.39,2.39,0,0,0-.53,1.65v1.28h2.45v.92h-2.45v9.31Z" style="fill: #fff"/>
      <path d="M230.93,169.86a3.9,3.9,0,0,1-1.9,1.35,8.22,8.22,0,0,1-2.89.48,5.36,5.36,0,0,1-2.88-.78,5.12,5.12,0,0,1-1.94-2.19,7.36,7.36,0,0,1-.7-3.25v-1.75a6.66,6.66,0,0,1,1.44-4.52,4.89,4.89,0,0,1,3.89-1.66,5.15,5.15,0,0,1,3.42,1.08,4.48,4.48,0,0,1,1.55,3h-1.17a3.55,3.55,0,0,0-1.23-2.3,3.93,3.93,0,0,0-2.56-.79,3.75,3.75,0,0,0-3.06,1.38,5.93,5.93,0,0,0-1.12,3.87v1.63a6.88,6.88,0,0,0,.53,2.77,4.21,4.21,0,0,0,1.54,1.87,4.05,4.05,0,0,0,2.29.67,6.32,6.32,0,0,0,2.58-.48,2.69,2.69,0,0,0,1-.73V166h-3.7v-1h4.87Z" style="fill: #fff"/>
      <path d="M233.51,166.29a6.18,6.18,0,0,1,1.06-3.81,3.42,3.42,0,0,1,2.89-1.4,3.56,3.56,0,0,1,3.18,1.66l.06-1.47h1.06v10a4.32,4.32,0,0,1-1.11,3.13,4,4,0,0,1-3,1.16,4.56,4.56,0,0,1-2-.48,4.08,4.08,0,0,1-1.53-1.27l.64-.68a3.59,3.59,0,0,0,2.86,1.47,2.9,2.9,0,0,0,2.21-.84,3.32,3.32,0,0,0,.82-2.32v-1.28a3.67,3.67,0,0,1-3.17,1.51,3.39,3.39,0,0,1-2.85-1.42,6.18,6.18,0,0,1-1.08-3.83Zm1.14.2a5.32,5.32,0,0,0,.79,3.09,2.54,2.54,0,0,0,2.21,1.13,3,3,0,0,0,3-1.88v-4.76a3.23,3.23,0,0,0-1.14-1.49,3.06,3.06,0,0,0-1.8-.52,2.56,2.56,0,0,0-2.22,1.12A5.71,5.71,0,0,0,234.65,166.49Z" style="fill: #fff"/>
      <path d="M255.18,171.5H254v-6.6h-7.86v6.6H245V157.73h1.17v6.18H254v-6.18h1.18Z" style="fill: #fff"/>
      <path d="M259.54,163a4,4,0,0,1,1.43-1.42,3.67,3.67,0,0,1,1.9-.5,3.11,3.11,0,0,1,2.45.92,4.25,4.25,0,0,1,.81,2.78v6.72H265v-6.73a3.1,3.1,0,0,0-.58-2,2.27,2.27,0,0,0-1.83-.67,2.86,2.86,0,0,0-1.86.66,3.94,3.94,0,0,0-1.19,1.77v7h-1.13V157h1.13Z" style="fill: #fff"/>
      <path d="M270.73,171.5h-1.17V157.73h1.17Z" style="fill: #fff"/>
      <path d="M274.13,158.31a.76.76,0,0,1,.21-.54.85.85,0,0,1,1.14,0,.79.79,0,1,1-1.35.54Zm1.34,13.19h-1.14V161.27h1.14Z" style="fill: #fff"/>
      <path d="M284.89,157.73h1.17v9.67a4.32,4.32,0,0,1-1.13,3.13,4,4,0,0,1-3,1.16,4.25,4.25,0,0,1-3.09-1.05,3.94,3.94,0,0,1-1.07-2.93h1.16a3,3,0,0,0,.78,2.24,3.11,3.11,0,0,0,2.22.76,2.83,2.83,0,0,0,2.14-.87,3.41,3.41,0,0,0,.85-2.37Z" style="fill: #fff"/>
      <path d="M290.42,161.27v11.45a3.14,3.14,0,0,1-.68,2.17,2.6,2.6,0,0,1-2,.74,3,3,0,0,1-1-.17l0-.93a3.06,3.06,0,0,0,.85.12c1.12,0,1.68-.65,1.68-1.94V161.27Zm-.56-3.72a.75.75,0,0,1,.58.22.8.8,0,0,1,0,1.08.78.78,0,0,1-.58.21.73.73,0,0,1-.56-.21.83.83,0,0,1,0-1.08A.7.7,0,0,1,289.86,157.55Z" style="fill: #fff"/>
      <path d="M297,164.66l-1.93,1.91v4.93h-1.17V157.73h1.17v7.42l7.05-7.42h1.47l-5.77,6.13L304,171.5h-1.42Z" style="fill: #fff"/>
      <path d="M308.27,166.35l-1.3,1.24v3.91h-1.13V157H307v9.3l1.07-1.15,3.92-3.85h1.43L309,165.58l4.72,5.92h-1.35Z" style="fill: #fff"/>
      <path d="M316.76,170.52h6.8v1h-8V157.73h1.17Z" style="fill: #fff"/>
      <path d="M326.8,171.5h-1.14V157h1.14Z" style="fill: #fff"/>
      <path d="M331.68,157.73l5.08,12.15,5.1-12.15h1.55V171.5h-1.16v-6l.09-6.14-5.13,12.14h-.9l-5.1-12.1.09,6.07v6h-1.16V157.73Z" style="fill: #fff"/>
      <path d="M347.67,161.27l0,1.66a3.78,3.78,0,0,1,1.42-1.39,3.89,3.89,0,0,1,1.89-.46,2.88,2.88,0,0,1,3.08,2,3.89,3.89,0,0,1,1.46-1.47,4.13,4.13,0,0,1,2-.51c2.19,0,3.31,1.19,3.36,3.59v6.83H359.8v-6.74a3.06,3.06,0,0,0-.59-2,2.42,2.42,0,0,0-1.9-.66,3,3,0,0,0-2.06.79,2.82,2.82,0,0,0-.94,1.88v6.77h-1.13v-6.83a2.79,2.79,0,0,0-.62-2,2.48,2.48,0,0,0-1.88-.65,2.83,2.83,0,0,0-1.83.61,3.63,3.63,0,0,0-1.14,1.81v7h-1.13V161.27Z" style="fill: #fff"/>
      <path d="M374.32,171.5h-1.16l-7.92-11.79V171.5h-1.17V157.73h1.17l7.93,11.79V157.73h1.15Z" style="fill: #fff"/>
      <path d="M378.63,161.27l0,1.75a4,4,0,0,1,1.44-1.45,3.74,3.74,0,0,1,1.9-.49,3.1,3.1,0,0,1,2.45.92,4.19,4.19,0,0,1,.81,2.78v6.72h-1.12v-6.73a3.1,3.1,0,0,0-.59-2,2.27,2.27,0,0,0-1.83-.67,2.83,2.83,0,0,0-1.85.66,3.88,3.88,0,0,0-1.2,1.77v7h-1.13V161.27Z" style="fill: #fff"/>
      <path d="M101.92,188.61a8,8,0,0,1-.66,3.34,5,5,0,0,1-1.88,2.21,5.1,5.1,0,0,1-2.82.77,4.89,4.89,0,0,1-3.89-1.72,6.9,6.9,0,0,1-1.49-4.66v-1.42a7.83,7.83,0,0,1,.67-3.33,5,5,0,0,1,4.7-3,5.16,5.16,0,0,1,2.8.77,5,5,0,0,1,1.88,2.17,7.8,7.8,0,0,1,.69,3.24Zm-1.17-1.5a6.06,6.06,0,0,0-1.12-3.89,4,4,0,0,0-6.14,0,6.13,6.13,0,0,0-1.14,3.95v1.44a6.07,6.07,0,0,0,1.13,3.88,4.06,4.06,0,0,0,6.17,0,6.24,6.24,0,0,0,1.1-3.94Z" style="fill: #fff"/>
      <path d="M104,189.48a6,6,0,0,1,.57-2.66,4.31,4.31,0,0,1,4-2.5,4.2,4.2,0,0,1,3.31,1.44,5.53,5.53,0,0,1,1.27,3.79v.24a6.08,6.08,0,0,1-.57,2.67,4.32,4.32,0,0,1-1.62,1.83,4.38,4.38,0,0,1-2.37.64,4.2,4.2,0,0,1-3.31-1.43,5.49,5.49,0,0,1-1.27-3.8Zm1.14.31a4.6,4.6,0,0,0,1,3,3.21,3.21,0,0,0,5,0,4.75,4.75,0,0,0,1-3.11v-.21a5.23,5.23,0,0,0-.43-2.15,3.54,3.54,0,0,0-1.22-1.51,3.2,3.2,0,0,0-1.8-.53,3,3,0,0,0-2.47,1.18,4.81,4.81,0,0,0-1,3.11Z" style="fill: #fff"/>
      <path d="M116.86,189.14v5.61H115.7V181h4.69a5,5,0,0,1,3.39,1.1,3.82,3.82,0,0,1,1.25,3,3.77,3.77,0,0,1-1.2,3,5.06,5.06,0,0,1-3.47,1.06Zm0-1h3.53a3.74,3.74,0,0,0,2.58-.8,2.87,2.87,0,0,0,.89-2.25,3,3,0,0,0-.88-2.28,3.56,3.56,0,0,0-2.51-.86h-3.61Z" style="fill: #fff"/>
      <path d="M135.59,189.73a6.14,6.14,0,0,1-1.06,3.8,3.35,3.35,0,0,1-2.84,1.4,3.78,3.78,0,0,1-3.21-1.47v5.22h-1.13V184.51h1.05l.06,1.45a3.65,3.65,0,0,1,3.21-1.64,3.43,3.43,0,0,1,2.88,1.39,6.37,6.37,0,0,1,1,3.86Zm-1.13-.2a5.24,5.24,0,0,0-.81-3.09,2.57,2.57,0,0,0-2.24-1.13,3,3,0,0,0-2.93,1.95v4.91a3,3,0,0,0,1.16,1.35,3.36,3.36,0,0,0,1.79.46,2.58,2.58,0,0,0,2.23-1.14A5.76,5.76,0,0,0,134.46,189.53Z" style="fill: #fff"/>
      <path d="M148.5,188.61a8,8,0,0,1-.69,3.43,5,5,0,0,1-2,2.2l2.5,2.19-.8.72-2.81-2.43a6.07,6.07,0,0,1-1.58.21,5.1,5.1,0,0,1-2.8-.77,5.17,5.17,0,0,1-1.89-2.2,7.58,7.58,0,0,1-.68-3.29v-1.54a8,8,0,0,1,.66-3.33,5.14,5.14,0,0,1,1.89-2.23,5,5,0,0,1,2.8-.79,5.16,5.16,0,0,1,2.83.78,5.08,5.08,0,0,1,1.88,2.22,7.84,7.84,0,0,1,.67,3.34Zm-1.16-1.5a6.07,6.07,0,0,0-1.13-3.89,4,4,0,0,0-6.14,0,6.13,6.13,0,0,0-1.14,3.95v1.44a6.13,6.13,0,0,0,1.13,3.88,4.05,4.05,0,0,0,6.16,0,6.15,6.15,0,0,0,1.12-3.93Z" style="fill: #fff"/>
      <path d="M150.75,189.53a6.13,6.13,0,0,1,1.07-3.8,3.45,3.45,0,0,1,2.91-1.41,3.55,3.55,0,0,1,3.14,1.58l.06-1.39H159v14.17h-1.13v-5.2a3.75,3.75,0,0,1-3.15,1.45,3.45,3.45,0,0,1-2.88-1.41,6.2,6.2,0,0,1-1.08-3.83Zm1.15.2a5.26,5.26,0,0,0,.8,3.12,2.57,2.57,0,0,0,2.22,1.13,3.08,3.08,0,0,0,2.94-1.77v-5a3.4,3.4,0,0,0-1.18-1.42,3.09,3.09,0,0,0-1.75-.49,2.58,2.58,0,0,0-2.23,1.13A5.73,5.73,0,0,0,151.9,189.73Z" style="fill: #fff"/>
      <path d="M167.42,189h-4v5.75h-1.17V181h4.47a5.1,5.1,0,0,1,3.44,1.07,4.09,4.09,0,0,1,.47,5.32,4,4,0,0,1-2.09,1.4l3.45,5.86v.13h-1.24Zm-4-1H167a3.33,3.33,0,0,0,2.36-.83,3.15,3.15,0,0,0,0-4.43,3.87,3.87,0,0,0-2.6-.8h-3.28Z" style="fill: #fff"/>
      <path d="M179,185.48a3.87,3.87,0,0,0-.77-.07,2.76,2.76,0,0,0-1.79.59,3.28,3.28,0,0,0-1,1.72v7h-1.12V184.51h1.1l0,1.63a3,3,0,0,1,2.89-1.82,1.69,1.69,0,0,1,.74.13Z" style="fill: #fff"/>
      <path d="M188.88,191.36a2.24,2.24,0,0,0-.8-1.81,8.44,8.44,0,0,0-2.94-1.27A10.43,10.43,0,0,1,182,187a3.17,3.17,0,0,1-.09-5.2,5.31,5.31,0,0,1,3.32-1,5.54,5.54,0,0,1,2.45.53,4,4,0,0,1,1.68,1.48,3.85,3.85,0,0,1,.6,2.11H188.8a2.9,2.9,0,0,0-1-2.27,3.72,3.72,0,0,0-2.59-.86,4.12,4.12,0,0,0-2.52.7,2.22,2.22,0,0,0-.93,1.85,2.08,2.08,0,0,0,.84,1.71,7.89,7.89,0,0,0,2.69,1.17,12.7,12.7,0,0,1,2.81,1.05,4,4,0,0,1,1.44,1.3,3.28,3.28,0,0,1,.48,1.79,3.09,3.09,0,0,1-1.3,2.61,5.5,5.5,0,0,1-3.43,1,6.66,6.66,0,0,1-2.67-.52,4,4,0,0,1-1.84-1.45,3.77,3.77,0,0,1-.63-2.15h1.16a2.77,2.77,0,0,0,1.09,2.3,4.62,4.62,0,0,0,2.89.84,4.32,4.32,0,0,0,2.59-.71A2.21,2.21,0,0,0,188.88,191.36Z" style="fill: #fff"/>
      <path d="M198.42,192.14a1.61,1.61,0,0,0-.67-1.35,5.33,5.33,0,0,0-2-.8,9,9,0,0,1-2.11-.66,2.75,2.75,0,0,1-1.12-.91,2.32,2.32,0,0,1-.36-1.31,2.43,2.43,0,0,1,1-2,4.12,4.12,0,0,1,2.59-.79,4.19,4.19,0,0,1,2.75.85,2.71,2.71,0,0,1,1,2.21h-1.13a1.85,1.85,0,0,0-.75-1.5,3,3,0,0,0-1.9-.59,3,3,0,0,0-1.79.49,1.55,1.55,0,0,0-.68,1.29,1.4,1.4,0,0,0,.56,1.19,5.94,5.94,0,0,0,2.06.77,10.34,10.34,0,0,1,2.23.75,2.83,2.83,0,0,1,1.1,1,2.43,2.43,0,0,1,.36,1.35,2.45,2.45,0,0,1-1.05,2.07,4.41,4.41,0,0,1-2.72.77,4.55,4.55,0,0,1-2.9-.86,2.67,2.67,0,0,1-1.11-2.19h1.13a2,2,0,0,0,.84,1.55,3.4,3.4,0,0,0,2,.55,3.22,3.22,0,0,0,1.91-.52A1.58,1.58,0,0,0,198.42,192.14Z" style="fill: #fff"/>
      <path d="M211.71,182H207v12.79h-1.16V182h-4.71v-1h10.59Z" style="fill: #fff"/>
      <path d="M215.43,181.89v2.62h2.12v.93h-2.12v6.83a2.07,2.07,0,0,0,.31,1.26,1.19,1.19,0,0,0,1,.42,7.25,7.25,0,0,0,.91-.09l0,.92a3.93,3.93,0,0,1-1.21.15,2,2,0,0,1-1.69-.67,3.15,3.15,0,0,1-.53-2v-6.83h-1.88v-.93h1.88v-2.62Z" style="fill: #fff"/>
      <path d="M229.65,181v9.41a4.76,4.76,0,0,1-.62,2.42,4.06,4.06,0,0,1-1.7,1.58,5.57,5.57,0,0,1-2.53.55,5,5,0,0,1-3.49-1.18,4.36,4.36,0,0,1-1.36-3.29V181h1.16v9.32a3.59,3.59,0,0,0,1,2.7,4.26,4.26,0,0,0,5.39,0,3.59,3.59,0,0,0,1-2.69V181Z" style="fill: #fff"/>
      <path d="M239.21,193.45a3.67,3.67,0,0,1-3.26,1.48,3.15,3.15,0,0,1-2.49-1,4.12,4.12,0,0,1-.87-2.81v-6.66h1.13V191c0,1.95.78,2.92,2.36,2.92a2.9,2.9,0,0,0,3.11-2v-7.41h1.14v10.24h-1.1Z" style="fill: #fff"/>
      <path d="M247.69,193l.07.3.09-.3L252.18,181h1.28l-5.13,13.78h-1.12L242.09,181h1.26Z" style="fill: #fff"/>
      <path d="M258.3,193.19l3.11-8.68h1.16l-3.82,10.24h-.92L254,184.51h1.16Z" style="fill: #fff"/>
      <path d="M267.24,191l.42,2.14.52-2,3-10.15h1.05l2.95,10.15.51,2.07.46-2.16L278.62,181h1.2l-3.53,13.78h-1.12L272.05,184l-.35-1.36-.34,1.36-3.2,10.78h-1.11L263.53,181h1.19Z" style="fill: #fff"/>
      <path d="M284.24,192.39l.17.88.23-.93,2.46-7.83h1l2.43,7.77.26,1.08.22-1,2.1-7.85h1.17l-3,10.24h-1l-2.63-8.12-.13-.56-.12.57-2.58,8.11h-1l-3-10.24h1.17Z" style="fill: #fff"/>
      <path d="M300.85,186.8l3.88-5.83h1.39l-4.56,6.8,4.7,7h-1.4l-4-6-4,6h-1.38l4.71-7-4.57-6.8H297Z" style="fill: #fff"/>
      <path d="M311.47,188.66l2.76-4.15h1.34l-3.47,5,3.62,5.22h-1.33l-2.91-4.34-2.92,4.34h-1.33l3.61-5.22-3.47-5h1.33Z" style="fill: #fff"/>
      <path d="M322,188.48l4.21-7.51h1.35l-5,8.59v5.19h-1.16v-5.19l-5-8.59h1.38Z" style="fill: #fff"/>
      <path d="M332.32,193.12l3-8.61h1.22l-4.37,12-.23.53a2.74,2.74,0,0,1-2.6,1.86,3.11,3.11,0,0,1-.87-.13v-.94l.59.06a2.15,2.15,0,0,0,1.35-.41,3.2,3.2,0,0,0,.87-1.42l.5-1.38-3.85-10.15h1.23Z" style="fill: #fff"/>
      <path d="M339.07,193.76h8.5v1h-9.91v-.88L345.83,182H337.9v-1h9.37v.83Z" style="fill: #fff"/>
      <path d="M350.62,193.79h6.64v1h-8v-.84l6.2-8.41h-6v-1h7.45v.85Z" style="fill: #fff"/>
      <path d="M96.56,218H95.43V205.58L91.68,207v-1.06l4.69-1.74h.19Z" style="fill: #fff"/>
      <path d="M110.66,218H102v-.87l4.72-5.35a12.56,12.56,0,0,0,1.63-2.23,3.77,3.77,0,0,0,.45-1.72,2.76,2.76,0,0,0-.76-2.06A2.87,2.87,0,0,0,106,205a3,3,0,0,0-2.25.88,3.22,3.22,0,0,0-.86,2.31h-1.12a4.35,4.35,0,0,1,.52-2.12,3.86,3.86,0,0,1,1.5-1.5A4.44,4.44,0,0,1,106,204a4.16,4.16,0,0,1,3,1,3.55,3.55,0,0,1,1.07,2.71,4.6,4.6,0,0,1-.6,2.11,15.74,15.74,0,0,1-2.12,2.85L103.42,217h7.24Z" style="fill: #fff"/>
      <path d="M115.28,210.49h1.18a3.94,3.94,0,0,0,1.7-.34,2.66,2.66,0,0,0,1.11-1,2.48,2.48,0,0,0,.38-1.39,2.83,2.83,0,0,0-.74-2.07,2.91,2.91,0,0,0-2.15-.74,3.07,3.07,0,0,0-2.17.78,2.63,2.63,0,0,0-.85,2.05h-1.13a3.67,3.67,0,0,1,.54-2,3.53,3.53,0,0,1,1.49-1.37,4.65,4.65,0,0,1,2.12-.48,4.12,4.12,0,0,1,2.95,1,3.68,3.68,0,0,1,1.08,2.8,3,3,0,0,1-.63,1.83,3.76,3.76,0,0,1-1.73,1.26,3.49,3.49,0,0,1,1.95,1.23,3.36,3.36,0,0,1,.66,2.09,3.71,3.71,0,0,1-1.15,2.84,4.33,4.33,0,0,1-3.08,1.08,5.13,5.13,0,0,1-2.26-.49,3.83,3.83,0,0,1-1.59-1.38,3.77,3.77,0,0,1-.56-2.05h1.13a2.76,2.76,0,0,0,.92,2.14,3.4,3.4,0,0,0,2.36.83,3.27,3.27,0,0,0,2.28-.76,2.78,2.78,0,0,0,.82-2.18,2.59,2.59,0,0,0-.89-2.11,4,4,0,0,0-2.6-.72h-1.14Z" style="fill: #fff"/>
      <path d="M130.46,213.56h2.14v.95h-2.14V218h-1.14v-3.48h-6.48v-.64l6.38-9.65h1.24Zm-6.23,0h5.09v-7.87l-.5.87Z" style="fill: #fff"/>
      <path d="M135,210.94l.68-6.72h6.88v1.05h-5.91l-.48,4.65a4.51,4.51,0,0,1,2.59-.75,3.82,3.82,0,0,1,3,1.21,4.57,4.57,0,0,1,1.11,3.22,4.88,4.88,0,0,1-1.08,3.38,3.87,3.87,0,0,1-3,1.2,4.17,4.17,0,0,1-2.91-1,4.1,4.1,0,0,1-1.28-2.81h1.09a3.26,3.26,0,0,0,.95,2.13,3.09,3.09,0,0,0,2.15.73,2.7,2.7,0,0,0,2.23-.94,4.18,4.18,0,0,0,.75-2.67,3.61,3.61,0,0,0-.84-2.47,2.93,2.93,0,0,0-2.3-1,4.5,4.5,0,0,0-1.4.2,3.88,3.88,0,0,0-1.26.79Z" style="fill: #fff"/>
      <path d="M151.65,204.12v1h-.13a5.18,5.18,0,0,0-3.89,1.45,6.11,6.11,0,0,0-1.57,4,3.88,3.88,0,0,1,1.45-1.21,4.35,4.35,0,0,1,2-.43,3.63,3.63,0,0,1,2.89,1.25,4.9,4.9,0,0,1,1.07,3.28,5.72,5.72,0,0,1-.5,2.42,4,4,0,0,1-1.44,1.68,3.88,3.88,0,0,1-2.14.6,4,4,0,0,1-3.21-1.43,5.45,5.45,0,0,1-1.24-3.71v-1.13a8.74,8.74,0,0,1,1.68-5.73,6,6,0,0,1,4.78-2.06Zm-2.35,5.81a3.53,3.53,0,0,0-2,.64,3.12,3.12,0,0,0-1.25,1.62v1a4.51,4.51,0,0,0,.92,2.93,3,3,0,0,0,2.4,1.14,2.57,2.57,0,0,0,2.14-1.05,4.15,4.15,0,0,0,.82-2.65,3.9,3.9,0,0,0-.82-2.6A2.7,2.7,0,0,0,149.3,209.93Z" style="fill: #fff"/>
      <path d="M164.19,204.87,158.31,218h-1.18L163,205.18h-7.83v-1h9.05Z" style="fill: #fff"/>
      <path d="M174.56,207.77a3.16,3.16,0,0,1-.62,1.91,3.68,3.68,0,0,1-1.65,1.25,4.08,4.08,0,0,1,1.91,1.31,3.3,3.3,0,0,1,.72,2.1,3.5,3.5,0,0,1-1.2,2.8,4.65,4.65,0,0,1-3.18,1,4.71,4.71,0,0,1-3.19-1,3.51,3.51,0,0,1-1.2-2.81,3.39,3.39,0,0,1,.69-2.09,3.83,3.83,0,0,1,1.89-1.32,3.49,3.49,0,0,1-1.62-1.25,3.15,3.15,0,0,1-.61-1.91,3.56,3.56,0,0,1,1.1-2.73,4.72,4.72,0,0,1,5.85,0A3.52,3.52,0,0,1,174.56,207.77Zm-.77,6.58a2.71,2.71,0,0,0-.92-2.11,3.75,3.75,0,0,0-4.68,0,2.7,2.7,0,0,0-.91,2.13,2.63,2.63,0,0,0,.88,2.09,3.4,3.4,0,0,0,2.38.79,3.46,3.46,0,0,0,2.36-.78A2.66,2.66,0,0,0,173.79,214.35Zm-.36-6.59a2.67,2.67,0,0,0-.82-2,2.91,2.91,0,0,0-2.09-.78,2.87,2.87,0,0,0-2.08.76,2.59,2.59,0,0,0-.8,2,2.53,2.53,0,0,0,.8,2,3.34,3.34,0,0,0,4.18,0A2.5,2.5,0,0,0,173.43,207.76Z" style="fill: #fff"/>
      <path d="M184.25,211.62a4.29,4.29,0,0,1-1.51,1.37,4,4,0,0,1-2,.49,3.58,3.58,0,0,1-2.07-.61,4,4,0,0,1-1.39-1.67,5.48,5.48,0,0,1-.49-2.34,5.59,5.59,0,0,1,.53-2.47,4,4,0,0,1,1.46-1.74,4.24,4.24,0,0,1,5.4.83,6.48,6.48,0,0,1,1.15,4.12v1a8.46,8.46,0,0,1-1.59,5.6,6,6,0,0,1-4.85,1.88h-.21v-1h.4a5,5,0,0,0,3.75-1.4A6,6,0,0,0,184.25,211.62Zm-3.31.88a3.31,3.31,0,0,0,2-.68,3.65,3.65,0,0,0,1.29-1.75v-.65a5.3,5.3,0,0,0-.88-3.25A2.81,2.81,0,0,0,181,205a2.68,2.68,0,0,0-2.2,1.08,4.21,4.21,0,0,0-.86,2.73,4.1,4.1,0,0,0,.82,2.62A2.61,2.61,0,0,0,180.94,212.5Z" style="fill: #fff"/>
      <path d="M196.22,212.25a7.55,7.55,0,0,1-1.07,4.42,3.6,3.6,0,0,1-3.15,1.51,3.65,3.65,0,0,1-3.13-1.48,7.39,7.39,0,0,1-1.11-4.31v-2.47a7.58,7.58,0,0,1,1.07-4.4,4.1,4.1,0,0,1,6.28-.05,7.23,7.23,0,0,1,1.11,4.25Zm-1.13-2.47a6.71,6.71,0,0,0-.77-3.57A2.59,2.59,0,0,0,192,205a2.55,2.55,0,0,0-2.3,1.18,6.45,6.45,0,0,0-.8,3.49v2.7a6.78,6.78,0,0,0,.8,3.61,2.6,2.6,0,0,0,2.32,1.25,2.57,2.57,0,0,0,2.3-1.22,6.81,6.81,0,0,0,.79-3.58Z" style="fill: #fff"/>
      <path d="M204.48,214.11h-3l-.73,3.88h-.94l.73-3.88h-2.41v-.88h2.57l.79-4.17h-2.64v-.91h2.81l.75-3.93h.93l-.75,3.93h3l.75-3.93h1l-.75,3.93h2.17v.91h-2.34l-.79,4.17H208v.88h-2.59L204.7,218h-.95Zm-2.81-.88h3l.78-4.17h-3Z" style="fill: #fff"/>
      <path d="M214.58,211h4.19v1.06h-4.19v4.56h-1.14v-4.56h-4.11V211h4.11v-4.41h1.14Z" style="fill: #fff"/>
      <path d="M227.9,219h-8.33v-1h8.33Z" style="fill: #fff"/>
      <path d="M244.51,213.14a7.69,7.69,0,0,1-.51,2.58,4.11,4.11,0,0,1-1.29,1.82,2.94,2.94,0,0,1-1.89.64,2.29,2.29,0,0,1-1.5-.48,2.32,2.32,0,0,1-.76-1.35,3.12,3.12,0,0,1-2.82,1.83,2.15,2.15,0,0,1-2-1.14,5.36,5.36,0,0,1-.48-3.09,8.29,8.29,0,0,1,.7-2.75,5,5,0,0,1,1.47-1.88,3.17,3.17,0,0,1,1.93-.67,3.55,3.55,0,0,1,1.28.2,4.7,4.7,0,0,1,1.28.82l-.48,5.4a2.71,2.71,0,0,0,.28,1.7,1.29,1.29,0,0,0,1.19.61,2.16,2.16,0,0,0,1.89-1.14,6.31,6.31,0,0,0,.81-3.09q.18-3.84-1.46-5.77a6.13,6.13,0,0,0-5-1.94,6.58,6.58,0,0,0-3.59,1,6.81,6.81,0,0,0-2.53,2.82,10.33,10.33,0,0,0-1.05,4.21,9.94,9.94,0,0,0,.63,4.2,5.94,5.94,0,0,0,2.25,2.78,6.4,6.4,0,0,0,3.57,1,7,7,0,0,0,1.71-.2,5.46,5.46,0,0,0,1.41-.54l.29.75a5.1,5.1,0,0,1-1.5.61,8.13,8.13,0,0,1-2,.24,7.53,7.53,0,0,1-4.07-1.07,6.55,6.55,0,0,1-2.55-3.06,10.78,10.78,0,0,1-.73-4.68,11,11,0,0,1,1.16-4.66,8.14,8.14,0,0,1,11.08-3.24,6,6,0,0,1,2.48,2.94A11.05,11.05,0,0,1,244.51,213.14Zm-10.23,2.15a2.81,2.81,0,0,0,.53,1.47,1.41,1.41,0,0,0,1.13.51c1.16,0,2-.8,2.58-2.42L239,210a2.47,2.47,0,0,0-1.5-.46,2.39,2.39,0,0,0-1.82.84,5.21,5.21,0,0,0-1.13,2.31A7.52,7.52,0,0,0,234.28,215.29Z" style="fill: #fff"/>
      <path d="M254.9,210.15H247v-1h7.89Zm0,3.89H247v-1h7.89Z" style="fill: #fff"/>
      <path d="M257.35,206.87a2.89,2.89,0,0,1,.76-2,2.56,2.56,0,0,1,1.94-.81,2.52,2.52,0,0,1,1.93.81,2.93,2.93,0,0,1,.77,2.09v.68a2.88,2.88,0,0,1-.76,2,2.53,2.53,0,0,1-1.92.8,2.59,2.59,0,0,1-1.94-.79,2.87,2.87,0,0,1-.78-2.1Zm.92.72a2.12,2.12,0,0,0,.49,1.45,1.63,1.63,0,0,0,1.31.57,1.59,1.59,0,0,0,1.28-.57,2.24,2.24,0,0,0,.48-1.49v-.69a2.13,2.13,0,0,0-.5-1.45,1.6,1.6,0,0,0-1.28-.58,1.62,1.62,0,0,0-1.28.57,2.24,2.24,0,0,0-.5,1.52Zm2.16,9.26-.71-.46,6.72-10.76.71.45Zm3.86-2.24a2.84,2.84,0,0,1,.76-2,2.73,2.73,0,0,1,3.86,0,2.9,2.9,0,0,1,.77,2.1v.67a2.89,2.89,0,0,1-.76,2,2.73,2.73,0,0,1-3.86,0,2.85,2.85,0,0,1-.77-2.08Zm.9.74a2.2,2.2,0,0,0,.49,1.46,1.64,1.64,0,0,0,1.31.57,1.58,1.58,0,0,0,1.29-.58,2.25,2.25,0,0,0,.48-1.5v-.69a2.08,2.08,0,0,0-.49-1.46,1.64,1.64,0,0,0-1.3-.56,1.62,1.62,0,0,0-1.28.56,2.17,2.17,0,0,0-.5,1.5Z" style="fill: #fff"/>
      <path d="M272,219.17h-1l5.75-14.95h1Z" style="fill: #fff"/>
      <path d="M286.22,211.76l-6.72-2.87v-1.16l8,3.57v.92l-8,3.59v-1.18Z" style="fill: #fff"/>
      <path d="M289.68,212.43a15.38,15.38,0,0,1,.53-4,13.19,13.19,0,0,1,1.55-3.55,7,7,0,0,1,2.2-2.32l.27.77a5.77,5.77,0,0,0-1.24,1.3,9.57,9.57,0,0,0-1.09,2,13.24,13.24,0,0,0-.78,2.64,16.46,16.46,0,0,0-.3,3.31,15.76,15.76,0,0,0,.45,3.8,12.85,12.85,0,0,0,1.23,3.22,6.57,6.57,0,0,0,1.73,2.1l-.27.73a7,7,0,0,1-2.22-2.33,12.11,12.11,0,0,1-1.54-3.52A15.8,15.8,0,0,1,289.68,212.43Z" style="fill: #fff"/>
      <path d="M299.2,203.22h-2V220h2v1h-3.12V202.25h3.12Z" style="fill: #fff"/>
      <path d="M302.74,214.16a4.86,4.86,0,0,1,.3-1.79,5.29,5.29,0,0,1,1.22-1.61,11.38,11.38,0,0,0,1.2-1.3,3.3,3.3,0,0,0,.42-.84,3.37,3.37,0,0,0,.15-1.05,2.61,2.61,0,0,0-.63-1.85,2.3,2.3,0,0,0-1.76-.68,2.61,2.61,0,0,0-1.83.65,2.35,2.35,0,0,0-.71,1.76H300a3.3,3.3,0,0,1,1-2.49,3.77,3.77,0,0,1,2.62-.93,3.26,3.26,0,0,1,3.51,3.53,4.08,4.08,0,0,1-.46,1.91,8.4,8.4,0,0,1-1.76,2.08,3.23,3.23,0,0,0-1.07,2.61Zm-.16,3.16a.76.76,0,0,1,.21-.54.72.72,0,0,1,.57-.23.75.75,0,0,1,.57.23.77.77,0,0,1,.22.54.75.75,0,0,1-.79.75.71.71,0,0,1-.57-.22A.72.72,0,0,1,302.58,217.32Z" style="fill: #fff"/>
      <path d="M308,202.25h3.13v18.69H308v-1h2V203.22h-2Z" style="fill: #fff"/>
      <path d="M317.48,212.57a15.63,15.63,0,0,1-.51,4,13,13,0,0,1-1.53,3.52,7.1,7.1,0,0,1-2.23,2.34l-.28-.73a6.35,6.35,0,0,0,1.72-2.05,12.5,12.5,0,0,0,1.24-3.24,16.49,16.49,0,0,0,.46-4,15.29,15.29,0,0,0-.46-3.78,13.16,13.16,0,0,0-1.25-3.25,6.23,6.23,0,0,0-1.71-2.09l.28-.73a7.2,7.2,0,0,1,2.2,2.33,13,13,0,0,1,1.54,3.55A15.45,15.45,0,0,1,317.48,212.57Z" style="fill: #fff"/>
    </g>
    <g>
      <path d="M480.17,167.38h-5.76l-1.3,3.61h-1.87l5.26-13.78h1.58L483.35,171h-1.86ZM475,165.9h4.69l-2.35-6.44Z" style="fill: #fff"/>
      <path d="M491.25,171a4.09,4.09,0,0,1-.25-1.08,3.9,3.9,0,0,1-2.91,1.26,3.59,3.59,0,0,1-2.48-.85,2.77,2.77,0,0,1-1-2.17,2.87,2.87,0,0,1,1.21-2.48,5.75,5.75,0,0,1,3.42-.89H491V164a2,2,0,0,0-.55-1.46,2.19,2.19,0,0,0-1.62-.55,2.59,2.59,0,0,0-1.57.47,1.41,1.41,0,0,0-.63,1.15h-1.76a2.41,2.41,0,0,1,.54-1.48,3.7,3.7,0,0,1,1.48-1.13,4.91,4.91,0,0,1,2.05-.42,4.06,4.06,0,0,1,2.77.89,3.23,3.23,0,0,1,1,2.43v4.71a5.72,5.72,0,0,0,.36,2.24V171Zm-2.9-1.34a3.1,3.1,0,0,0,1.56-.42,2.65,2.65,0,0,0,1.07-1.11V166h-1.37c-2.15,0-3.22.63-3.22,1.88a1.59,1.59,0,0,0,.55,1.29A2.08,2.08,0,0,0,488.35,169.65Z" style="fill: #fff"/>
      <path d="M495.74,171V157.21h4.51a5.21,5.21,0,0,1,3.37.93,3.35,3.35,0,0,1,1.13,2.74,2.76,2.76,0,0,1-.55,1.71,3.53,3.53,0,0,1-1.49,1.15,3.17,3.17,0,0,1,1.76,1.19,3.41,3.41,0,0,1,.65,2.08,3.7,3.7,0,0,1-1.2,2.92,5,5,0,0,1-3.4,1.06Zm1.82-7.9h2.74a2.87,2.87,0,0,0,1.91-.6,2,2,0,0,0,.71-1.62,2,2,0,0,0-.66-1.65,3.2,3.2,0,0,0-2-.52h-2.69Zm0,1.45v5h3a2.89,2.89,0,0,0,2-.66,2.29,2.29,0,0,0,.73-1.81q0-2.49-2.7-2.49Z" style="fill: #fff"/>
      <path d="M516.19,166a6.13,6.13,0,0,1-1.07,3.77,3.45,3.45,0,0,1-2.9,1.42,3.56,3.56,0,0,1-3-1.37l-.08,1.19h-1.61V156.46h1.75v5.42a3.54,3.54,0,0,1,2.92-1.32,3.47,3.47,0,0,1,2.93,1.41,6.27,6.27,0,0,1,1.06,3.86Zm-1.75-.2a4.73,4.73,0,0,0-.69-2.76,2.27,2.27,0,0,0-2-1,2.55,2.55,0,0,0-2.49,1.61v4.42a2.65,2.65,0,0,0,2.51,1.61,2.26,2.26,0,0,0,1.95-1A5,5,0,0,0,514.44,165.78Z" style="fill: #fff"/>
      <path d="M528.8,166.62a5.09,5.09,0,0,1-1.61,3.37,5.3,5.3,0,0,1-3.61,1.18,4.86,4.86,0,0,1-3.91-1.74,7.06,7.06,0,0,1-1.47-4.69v-1.32a8,8,0,0,1,.68-3.38,5.21,5.21,0,0,1,2-2.24,5.41,5.41,0,0,1,2.91-.78,5,5,0,0,1,3.52,1.23,5.13,5.13,0,0,1,1.54,3.39H527a3.94,3.94,0,0,0-1-2.39,3.12,3.12,0,0,0-2.21-.74A3.25,3.25,0,0,0,521,159.8a5.9,5.9,0,0,0-1,3.66v1.34a6.08,6.08,0,0,0,.94,3.56,3,3,0,0,0,2.62,1.33,3.47,3.47,0,0,0,2.32-.69,3.79,3.79,0,0,0,1.08-2.38Z" style="fill: #fff"/>
      <path d="M535.11,169.75a2.52,2.52,0,0,0,1.64-.57,2,2,0,0,0,.77-1.42h1.66a3.16,3.16,0,0,1-.61,1.67,3.94,3.94,0,0,1-1.49,1.27,4.55,4.55,0,0,1-5.29-.92,5.52,5.52,0,0,1-1.24-3.82v-.29a6.11,6.11,0,0,1,.55-2.66,4.14,4.14,0,0,1,1.58-1.8,4.44,4.44,0,0,1,2.42-.65,4.13,4.13,0,0,1,2.86,1,3.69,3.69,0,0,1,1.22,2.68h-1.66a2.4,2.4,0,0,0-.75-1.63,2.33,2.33,0,0,0-1.67-.64,2.42,2.42,0,0,0-2.06,1,4.51,4.51,0,0,0-.74,2.78v.33a4.38,4.38,0,0,0,.73,2.72A2.46,2.46,0,0,0,535.11,169.75Z" style="fill: #fff"/>
      <path d="M541.42,171V157.21h3.89a6.31,6.31,0,0,1,3.18.8,5.35,5.35,0,0,1,2.13,2.26,7.43,7.43,0,0,1,.76,3.37v.88a7.39,7.39,0,0,1-.75,3.41,5.25,5.25,0,0,1-2.15,2.25,6.66,6.66,0,0,1-3.25.81Zm1.82-12.29v10.8h1.91a4.1,4.1,0,0,0,3.26-1.31,5.39,5.39,0,0,0,1.17-3.72v-.8a5.5,5.5,0,0,0-1.1-3.65,3.91,3.91,0,0,0-3.13-1.32Z" style="fill: #fff"/>
      <path d="M553.42,165.78a5.93,5.93,0,0,1,1.12-3.78,3.79,3.79,0,0,1,5.77-.21v-5.33h1.75V171h-1.61l-.08-1.1a3.56,3.56,0,0,1-2.93,1.28,3.5,3.5,0,0,1-2.9-1.45,6.11,6.11,0,0,1-1.12-3.8Zm1.75.2a4.56,4.56,0,0,0,.72,2.73,2.34,2.34,0,0,0,2,1,2.56,2.56,0,0,0,2.43-1.49v-4.71a2.57,2.57,0,0,0-2.41-1.44,2.34,2.34,0,0,0-2,1A5,5,0,0,0,555.17,166Z" style="fill: #fff"/>
      <path d="M572.83,164.62h-6v4.88h6.94V171h-8.75V157.21h8.65v1.49h-6.84v4.44h6Z" style="fill: #fff"/>
      <path d="M579.85,171.17a4.47,4.47,0,0,1-3.39-1.36,5.07,5.07,0,0,1-1.3-3.66v-.32a6.14,6.14,0,0,1,.58-2.72,4.51,4.51,0,0,1,1.63-1.87,4.08,4.08,0,0,1,2.26-.68,3.85,3.85,0,0,1,3.11,1.32,5.72,5.72,0,0,1,1.1,3.76v.73h-6.93a3.61,3.61,0,0,0,.88,2.44,2.78,2.78,0,0,0,2.16.94,3.09,3.09,0,0,0,1.57-.38,4.08,4.08,0,0,0,1.12-1l1.07.83A4.29,4.29,0,0,1,579.85,171.17Zm-.22-9.17a2.36,2.36,0,0,0-1.78.77,3.72,3.72,0,0,0-.88,2.16h5.12v-.13a3.33,3.33,0,0,0-.72-2.07A2.19,2.19,0,0,0,579.63,162Z" style="fill: #fff"/>
      <path d="M593.74,164.9H588V171h-1.82V157.21h8.53v1.49H588v4.72h5.78Z" style="fill: #fff"/>
      <path d="M597.43,171V162.1h-1.61v-1.35h1.61V159.7a3.5,3.5,0,0,1,.88-2.54,3.33,3.33,0,0,1,2.49-.9,4.4,4.4,0,0,1,1.2.16l-.09,1.41a4.79,4.79,0,0,0-.95-.09,1.72,1.72,0,0,0-1.31.5,2,2,0,0,0-.47,1.43v1.08h2.19v1.35h-2.19V171Z" style="fill: #fff"/>
      <path d="M613.74,169.18a4.22,4.22,0,0,1-2,1.5,7.94,7.94,0,0,1-2.92.49,5.72,5.72,0,0,1-3-.78,5.33,5.33,0,0,1-2-2.25,7.82,7.82,0,0,1-.73-3.38v-1.2a7.23,7.23,0,0,1,1.45-4.82,5.07,5.07,0,0,1,4.08-1.72,5.18,5.18,0,0,1,3.47,1.11,4.74,4.74,0,0,1,1.61,3.12h-1.82a3,3,0,0,0-3.25-2.74,3.23,3.23,0,0,0-2.77,1.28,6.37,6.37,0,0,0-.95,3.72v1.12a5.91,5.91,0,0,0,1.06,3.69,3.45,3.45,0,0,0,2.87,1.37,6.38,6.38,0,0,0,1.79-.23,2.7,2.7,0,0,0,1.26-.76v-3.09h-3.18v-1.48h5Z" style="fill: #fff"/>
      <path d="M616.08,165.78a6,6,0,0,1,1.1-3.8,3.54,3.54,0,0,1,2.94-1.42,3.5,3.5,0,0,1,2.92,1.33l.08-1.14h1.6v10a4.18,4.18,0,0,1-1.17,3.13,4.37,4.37,0,0,1-3.17,1.15,5.14,5.14,0,0,1-2.16-.48,3.72,3.72,0,0,1-1.62-1.29l.91-1.05a3.43,3.43,0,0,0,2.75,1.39,2.68,2.68,0,0,0,2-.72,2.75,2.75,0,0,0,.71-2V170a3.58,3.58,0,0,1-2.86,1.21,3.5,3.5,0,0,1-2.91-1.44A6.35,6.35,0,0,1,616.08,165.78Zm1.76.2a4.53,4.53,0,0,0,.71,2.72,2.29,2.29,0,0,0,2,1,2.55,2.55,0,0,0,2.43-1.5v-4.68a2.59,2.59,0,0,0-2.41-1.46,2.32,2.32,0,0,0-2,1A5,5,0,0,0,617.84,166Z" style="fill: #fff"/>
      <path d="M638.22,171H636.4v-6.37h-6.95V171h-1.81V157.21h1.81v5.93h6.95v-5.93h1.82Z" style="fill: #fff"/>
      <path d="M642.92,162a3.74,3.74,0,0,1,3-1.43q3.24,0,3.27,3.66V171h-1.75v-6.78a2.37,2.37,0,0,0-.5-1.63,2,2,0,0,0-1.55-.53,2.56,2.56,0,0,0-1.5.45,3.15,3.15,0,0,0-1,1.19V171h-1.75V156.46h1.75Z" style="fill: #fff"/>
      <path d="M654.06,171h-1.81V157.21h1.81Z" style="fill: #fff"/>
      <path d="M657.12,158a1,1,0,0,1,.26-.72,1,1,0,0,1,.77-.3,1,1,0,0,1,.78.3,1.11,1.11,0,0,1,0,1.43,1,1,0,0,1-.78.28,1,1,0,0,1-.77-.28A1,1,0,0,1,657.12,158ZM659,171h-1.75V160.75H659Z" style="fill: #fff"/>
      <path d="M667.85,157.21h1.83V167a4.06,4.06,0,0,1-1.19,3.09,4.43,4.43,0,0,1-3.16,1.11,4.57,4.57,0,0,1-3.2-1,3.78,3.78,0,0,1-1.14-2.94h1.81a2.54,2.54,0,0,0,.65,1.85,2.52,2.52,0,0,0,1.88.66,2.44,2.44,0,0,0,1.82-.71,2.72,2.72,0,0,0,.7-2Z" style="fill: #fff"/>
      <path d="M674.31,160.75v11.42c0,2-.9,3-2.68,3a3.33,3.33,0,0,1-1.07-.17v-1.39a3.44,3.44,0,0,0,.79.07,1.2,1.2,0,0,0,.9-.31,1.6,1.6,0,0,0,.31-1.11V160.75ZM672.38,158a1,1,0,0,1,.26-.72.94.94,0,0,1,.76-.3,1,1,0,0,1,.77.3,1.08,1.08,0,0,1,0,1.43,1.2,1.2,0,0,1-1.54,0A1,1,0,0,1,672.38,158Z" style="fill: #fff"/>
      <path d="M680.9,164.58l-1.69,1.75V171H677.4V157.21h1.81V164l6.12-6.81h2.2l-5.42,6.09L688,171h-2.17Z" style="fill: #fff"/>
      <path d="M692.13,166.25l-1.1,1.14V171h-1.75V156.46H691v8.78l.93-1.12,3.19-3.37h2.13l-4,4.28,4.44,6h-2Z" style="fill: #fff"/>
      <path d="M701.19,169.5h6.52V171h-8.35V157.21h1.83Z" style="fill: #fff"/>
      <path d="M711.41,171h-1.75V156.46h1.75Z" style="fill: #fff"/>
      <path d="M716.83,157.21l4.5,11.24,4.51-11.24h2.35V171h-1.81v-5.37l.17-5.79L722,171h-1.39l-4.51-11.13.18,5.76V171h-1.81V157.21Z" style="fill: #fff"/>
      <path d="M732.77,160.75l.05,1.14a3.75,3.75,0,0,1,3-1.33,2.93,2.93,0,0,1,2.93,1.65,3.84,3.84,0,0,1,3.26-1.65c2.24,0,3.39,1.19,3.42,3.57V171h-1.75v-6.76a2.32,2.32,0,0,0-.5-1.64,2.2,2.2,0,0,0-1.68-.54,2.32,2.32,0,0,0-1.62.58,2.36,2.36,0,0,0-.75,1.56V171H737.4v-6.71a2,2,0,0,0-2.18-2.23,2.36,2.36,0,0,0-2.36,1.46V171h-1.75V160.75Z" style="fill: #fff"/>
      <path d="M759,171h-1.82l-6.94-10.62V171h-1.82V157.21h1.82l6.95,10.66V157.21H759Z" style="fill: #fff"/>
      <path d="M474,184l.06,1.28a3.73,3.73,0,0,1,3.06-1.47q3.26,0,3.28,3.66v6.76H478.6v-6.77a2.4,2.4,0,0,0-.51-1.64,2,2,0,0,0-1.55-.53,2.48,2.48,0,0,0-1.49.46,3.06,3.06,0,0,0-1,1.19v7.29H472.3V184Z" style="fill: #fff"/>
      <path d="M493.85,187.79a8.55,8.55,0,0,1-.68,3.53,5.15,5.15,0,0,1-1.93,2.31,5.69,5.69,0,0,1-5.8,0,5.21,5.21,0,0,1-1.95-2.28,8.2,8.2,0,0,1-.71-3.43v-1a8.46,8.46,0,0,1,.69-3.51,5.3,5.3,0,0,1,1.95-2.33,5.22,5.22,0,0,1,2.89-.81,5.37,5.37,0,0,1,2.92.8,5.08,5.08,0,0,1,1.94,2.32,8.62,8.62,0,0,1,.68,3.53Zm-1.8-.89a6.15,6.15,0,0,0-1-3.76,3.5,3.5,0,0,0-5.46,0,6.05,6.05,0,0,0-1,3.64v1a6.21,6.21,0,0,0,1,3.73,3.49,3.49,0,0,0,5.47.08,6.13,6.13,0,0,0,1-3.68Z" style="fill: #fff"/>
      <path d="M495.84,189a6.16,6.16,0,0,1,.59-2.71,4.37,4.37,0,0,1,1.65-1.85,4.49,4.49,0,0,1,2.4-.65,4.29,4.29,0,0,1,3.38,1.45,5.54,5.54,0,0,1,1.3,3.84v.13a6.13,6.13,0,0,1-.58,2.68,4.32,4.32,0,0,1-1.63,1.85,4.56,4.56,0,0,1-2.45.66,4.28,4.28,0,0,1-3.37-1.45,5.53,5.53,0,0,1-1.29-3.83Zm1.76.21a4.36,4.36,0,0,0,.79,2.73,2.68,2.68,0,0,0,4.23,0,4.84,4.84,0,0,0,.79-2.93,4.4,4.4,0,0,0-.8-2.73,2.54,2.54,0,0,0-2.13-1,2.51,2.51,0,0,0-2.09,1A4.73,4.73,0,0,0,497.6,189.23Z" style="fill: #fff"/>
      <path d="M509.44,188.84v5.39h-1.82V180.46h5.08a5.12,5.12,0,0,1,3.55,1.15,3.93,3.93,0,0,1,1.28,3.06,3.86,3.86,0,0,1-1.26,3.09,5.33,5.33,0,0,1-3.59,1.08Zm0-1.49h3.26a3.28,3.28,0,0,0,2.24-.68,2.54,2.54,0,0,0,.77-2,2.61,2.61,0,0,0-.77-2,3.09,3.09,0,0,0-2.13-.77h-3.37Z" style="fill: #fff"/>
      <path d="M528.22,189.23a6.12,6.12,0,0,1-1.07,3.76,3.45,3.45,0,0,1-2.9,1.43,3.74,3.74,0,0,1-2.93-1.18v4.93h-1.75V184h1.6l.08,1.13a3.63,3.63,0,0,1,3-1.32,3.48,3.48,0,0,1,2.92,1.39,6.16,6.16,0,0,1,1.08,3.87Zm-1.75-.2a4.51,4.51,0,0,0-.74-2.73,2.38,2.38,0,0,0-2-1,2.57,2.57,0,0,0-2.38,1.41v4.89a2.56,2.56,0,0,0,2.4,1.4,2.35,2.35,0,0,0,2-1A4.87,4.87,0,0,0,526.47,189Z" style="fill: #fff"/>
      <path d="M541.23,187.79a8.56,8.56,0,0,1-.63,3.44,5.37,5.37,0,0,1-1.78,2.25l2.46,1.93L540,196.56l-2.91-2.31a6,6,0,0,1-1.43.17,5.3,5.3,0,0,1-2.89-.8,5.21,5.21,0,0,1-1.95-2.28,8.2,8.2,0,0,1-.71-3.43v-1a8.3,8.3,0,0,1,.69-3.51,5.3,5.3,0,0,1,1.95-2.33,5.22,5.22,0,0,1,2.89-.81,5.41,5.41,0,0,1,2.93.8,5.18,5.18,0,0,1,1.94,2.32,8.53,8.53,0,0,1,.68,3.52Zm-1.81-.89a6.3,6.3,0,0,0-1-3.75,3.5,3.5,0,0,0-5.47,0,6.05,6.05,0,0,0-1,3.64v1a6.23,6.23,0,0,0,1,3.73,3.49,3.49,0,0,0,5.47.08,6.2,6.2,0,0,0,1-3.68Z" style="fill: #fff"/>
      <path d="M543.33,189a6,6,0,0,1,1.11-3.82,3.61,3.61,0,0,1,3-1.4,3.55,3.55,0,0,1,2.86,1.22l.08-1H552v14.17h-1.75v-4.88a3.71,3.71,0,0,1-2.82,1.13,3.54,3.54,0,0,1-3-1.44,6.18,6.18,0,0,1-1.1-3.83Zm1.75.2a4.59,4.59,0,0,0,.74,2.76,2.37,2.37,0,0,0,2,1,2.63,2.63,0,0,0,2.39-1.38v-5a2.64,2.64,0,0,0-2.37-1.35,2.38,2.38,0,0,0-2,1A5,5,0,0,0,545.08,189.23Z" style="fill: #fff"/>
      <path d="M560.09,188.66h-3.23v5.57H555V180.46h4.56a5.39,5.39,0,0,1,3.58,1.06,3.79,3.79,0,0,1,1.25,3.08,3.7,3.7,0,0,1-.69,2.24,4.08,4.08,0,0,1-1.94,1.43l3.24,5.85v.11h-1.95Zm-3.23-1.48h2.79a3.13,3.13,0,0,0,2.15-.71,2.36,2.36,0,0,0,.8-1.87,2.5,2.5,0,0,0-.76-2,3.22,3.22,0,0,0-2.2-.7h-2.78Z" style="fill: #fff"/>
      <path d="M571.64,185.57a4.68,4.68,0,0,0-.86-.07,2.31,2.31,0,0,0-2.34,1.47v7.26h-1.75V184h1.71l0,1.18a2.74,2.74,0,0,1,2.44-1.37,1.77,1.77,0,0,1,.78.13Z" style="fill: #fff"/>
      <path d="M577.58,188.09a8.46,8.46,0,0,1-3.4-1.65,3.14,3.14,0,0,1-1.06-2.41,3.33,3.33,0,0,1,1.3-2.7,5.2,5.2,0,0,1,3.38-1.06,5.6,5.6,0,0,1,2.53.55,4.16,4.16,0,0,1,1.72,1.51,3.87,3.87,0,0,1,.61,2.11h-1.83a2.53,2.53,0,0,0-.79-2,3.22,3.22,0,0,0-2.24-.71,3.3,3.3,0,0,0-2.1.59A2,2,0,0,0,575,184a1.78,1.78,0,0,0,.72,1.43,6.84,6.84,0,0,0,2.43,1.06,11.41,11.41,0,0,1,2.68,1.07,4,4,0,0,1,1.44,1.36,3.45,3.45,0,0,1,.47,1.82,3.21,3.21,0,0,1-1.31,2.68,5.57,5.57,0,0,1-3.49,1,6.46,6.46,0,0,1-2.64-.54,4.44,4.44,0,0,1-1.9-1.49,3.61,3.61,0,0,1-.67-2.15h1.83a2.35,2.35,0,0,0,.92,2,3.89,3.89,0,0,0,2.46.73,3.59,3.59,0,0,0,2.21-.59,1.9,1.9,0,0,0,.76-1.6,1.84,1.84,0,0,0-.71-1.56A8.11,8.11,0,0,0,577.58,188.09Z" style="fill: #fff"/>
      <path d="M590.7,191.52a1.32,1.32,0,0,0-.53-1.11,5.25,5.25,0,0,0-1.87-.67,9.18,9.18,0,0,1-2.11-.68,3,3,0,0,1-1.15-.95,2.23,2.23,0,0,1-.37-1.3,2.65,2.65,0,0,1,1.06-2.13,4.17,4.17,0,0,1,2.72-.87,4.26,4.26,0,0,1,2.82.9,2.86,2.86,0,0,1,1.09,2.3H590.6a1.59,1.59,0,0,0-.61-1.24,2.28,2.28,0,0,0-1.54-.52,2.39,2.39,0,0,0-1.5.41,1.3,1.3,0,0,0-.53,1.09,1,1,0,0,0,.5.95,6,6,0,0,0,1.81.62,9.72,9.72,0,0,1,2.12.7,3.12,3.12,0,0,1,1.21,1,2.42,2.42,0,0,1,.39,1.39,2.62,2.62,0,0,1-1.1,2.2,4.6,4.6,0,0,1-2.84.83,5.17,5.17,0,0,1-2.18-.43,3.57,3.57,0,0,1-1.48-1.22,2.89,2.89,0,0,1-.53-1.69h1.75a1.81,1.81,0,0,0,.7,1.4,2.77,2.77,0,0,0,1.74.51,2.8,2.8,0,0,0,1.59-.4A1.24,1.24,0,0,0,590.7,191.52Z" style="fill: #fff"/>
      <path d="M604.52,181.94h-4.43v12.29h-1.8V181.94h-4.42v-1.48h10.65Z" style="fill: #fff"/>
      <path d="M608.66,181.52V184h1.91v1.35h-1.91v6.35a1.45,1.45,0,0,0,.26.93,1.09,1.09,0,0,0,.87.31,4,4,0,0,0,.83-.12v1.41a4.92,4.92,0,0,1-1.34.19,2.2,2.2,0,0,1-1.77-.71,3,3,0,0,1-.6-2v-6.35h-1.86V184h1.86v-2.48Z" style="fill: #fff"/>
      <path d="M622.59,180.46v9.36a4.41,4.41,0,0,1-1.23,3.19,4.92,4.92,0,0,1-3.3,1.39l-.48,0a5.16,5.16,0,0,1-3.6-1.22,4.33,4.33,0,0,1-1.36-3.36v-9.38h1.79v9.33a3.18,3.18,0,1,0,6.35,0v-9.34Z" style="fill: #fff"/>
      <path d="M631.5,193.22a3.75,3.75,0,0,1-3,1.2,3.23,3.23,0,0,1-2.5-.95,4.12,4.12,0,0,1-.86-2.81V184h1.75v6.61c0,1.55.63,2.33,1.89,2.33a2.62,2.62,0,0,0,2.67-1.5V184h1.75v10.23h-1.67Z" style="fill: #fff"/>
      <path d="M640.69,191.82l3.93-11.36h2l-5.11,13.77h-1.61l-5.09-13.77h2Z" style="fill: #fff"/>
      <path d="M651.45,191.86,654,184h1.79l-3.67,10.23h-1.34L647.06,184h1.79Z" style="fill: #fff"/>
      <path d="M660.7,189.89l.27,1.82.39-1.64,2.72-9.61h1.53l2.66,9.61.38,1.66.29-1.85,2.14-9.42h1.83l-3.34,13.77h-1.66l-2.84-10-.21-1-.22,1-2.94,10H660l-3.33-13.77h1.82Z" style="fill: #fff"/>
      <path d="M683.71,191.82l2-7.82h1.74l-3,10.23H683l-2.49-7.75-2.42,7.75H676.7l-3-10.23h1.74l2,7.66,2.39-7.66h1.41Z" style="fill: #fff"/>
      <path d="M694,185.74l3.3-5.28h2.14l-4.35,6.83,4.45,6.94h-2.15L694,188.86l-3.4,5.37h-2.15l4.46-6.94-4.36-6.83h2.13Z" style="fill: #fff"/>
      <path d="M704.78,187.73l2.27-3.73h2l-3.34,5.06,3.45,5.17h-2l-2.36-3.83-2.36,3.83h-2l3.45-5.17L700.52,184h2Z" style="fill: #fff"/>
      <path d="M715.42,187.37l3.6-6.91h2.06l-4.75,8.64v5.13h-1.82V189.1l-4.74-8.64h2.08Z" style="fill: #fff"/>
      <path d="M725.74,191.67l2.39-7.67H730l-4.12,11.81c-.63,1.7-1.65,2.55-3,2.55l-.33,0-.66-.13v-1.42l.48,0a2.31,2.31,0,0,0,1.38-.36,2.55,2.55,0,0,0,.82-1.31l.39-1L721.28,184h1.91Z" style="fill: #fff"/>
      <path d="M733.2,192.75h7.87v1.48h-10v-1.36l7.55-10.93h-7.43v-1.48h9.6v1.32Z" style="fill: #fff"/>
      <path d="M744.8,192.8h6v1.43h-8.13V193l5.65-7.51h-5.56V184h7.75v1.24Z" style="fill: #fff"/>
      <path d="M477.87,217.48h-1.76V205.81l-3.53,1.3v-1.59l5-1.88h.28Z" style="fill: #fff"/>
      <path d="M492,217.48h-9v-1.26l4.77-5.3a11.23,11.23,0,0,0,1.46-1.95,3.23,3.23,0,0,0,.4-1.56,2.45,2.45,0,0,0-.65-1.77,2.27,2.27,0,0,0-1.74-.69,2.7,2.7,0,0,0-2,.75,2.82,2.82,0,0,0-.72,2.06h-1.75a4.08,4.08,0,0,1,1.22-3.07,4.56,4.56,0,0,1,3.28-1.17,4.39,4.39,0,0,1,3,1,3.47,3.47,0,0,1,1.11,2.69c0,1.35-.86,3-2.59,4.84l-3.69,4H492Z" style="fill: #fff"/>
      <path d="M496.42,209.74h1.31a2.88,2.88,0,0,0,1.95-.65,2.21,2.21,0,0,0,.71-1.71A2.14,2.14,0,0,0,498,205a2.51,2.51,0,0,0-1.81.65,2.25,2.25,0,0,0-.68,1.72h-1.75a3.51,3.51,0,0,1,1.2-2.72,4.35,4.35,0,0,1,3-1.08,4.28,4.28,0,0,1,3,1,3.7,3.7,0,0,1,1.11,2.86,3.07,3.07,0,0,1-.58,1.74,3.56,3.56,0,0,1-1.59,1.26,3.44,3.44,0,0,1,1.76,1.19,3.36,3.36,0,0,1,.62,2,3.79,3.79,0,0,1-1.21,2.94,4.57,4.57,0,0,1-3.15,1.09,4.65,4.65,0,0,1-3.16-1,3.49,3.49,0,0,1-1.21-2.77h1.75a2.28,2.28,0,0,0,.71,1.74,2.75,2.75,0,0,0,1.91.65,2.63,2.63,0,0,0,1.93-.66,2.57,2.57,0,0,0,.68-1.91,2.32,2.32,0,0,0-.74-1.84,3.19,3.19,0,0,0-2.13-.66h-1.31Z" style="fill: #fff"/>
      <path d="M512.14,212.85h1.91v1.43h-1.91v3.2h-1.76v-3.2h-6.27v-1l6.16-9.54h1.87Zm-6.05,0h4.29V206.1l-.21.38Z" style="fill: #fff"/>
      <path d="M516.43,210.57l.7-6.86h7.06v1.61h-5.57l-.42,3.76a4.41,4.41,0,0,1,2.3-.6,3.81,3.81,0,0,1,3,1.25,4.91,4.91,0,0,1,1.1,3.36,4.68,4.68,0,0,1-1.15,3.35,4.16,4.16,0,0,1-3.21,1.23,4.35,4.35,0,0,1-3-1,4,4,0,0,1-1.31-2.8h1.65a2.78,2.78,0,0,0,.85,1.79,2.6,2.6,0,0,0,1.79.6,2.38,2.38,0,0,0,1.92-.83,3.53,3.53,0,0,0,.69-2.3,3.21,3.21,0,0,0-.75-2.22,2.55,2.55,0,0,0-2-.84,2.94,2.94,0,0,0-1.8.5l-.46.38Z" style="fill: #fff"/>
      <path d="M533.37,203.7v1.48h-.32a4.62,4.62,0,0,0-3.25,1.21,5,5,0,0,0-1.4,3.3,3.73,3.73,0,0,1,3-1.25,3.6,3.6,0,0,1,2.87,1.27,5.56,5.56,0,0,1-.09,6.68,4,4,0,0,1-3.11,1.28,3.94,3.94,0,0,1-3.2-1.52,6,6,0,0,1-1.23-3.91v-.67a9.09,9.09,0,0,1,1.62-5.82,6,6,0,0,1,4.83-2.05Zm-2.3,6.2a2.95,2.95,0,0,0-2.7,1.89v.65a4.52,4.52,0,0,0,.76,2.74,2.31,2.31,0,0,0,1.91,1,2.22,2.22,0,0,0,1.86-.87,3.62,3.62,0,0,0,.68-2.28,3.57,3.57,0,0,0-.69-2.29A2.17,2.17,0,0,0,531.07,209.9Z" style="fill: #fff"/>
      <path d="M546.27,204.69l-5.7,12.79h-1.84l5.69-12.34H537v-1.43h9.31Z" style="fill: #fff"/>
      <path d="M556.61,207.3a3.18,3.18,0,0,1-.54,1.83,3.76,3.76,0,0,1-1.47,1.26,3.89,3.89,0,0,1,1.7,1.36,3.38,3.38,0,0,1,.63,2,3.62,3.62,0,0,1-1.2,2.85,4.7,4.7,0,0,1-3.18,1.06,4.62,4.62,0,0,1-3.18-1.07,3.6,3.6,0,0,1-1.2-2.84,3.53,3.53,0,0,1,.61-2,3.83,3.83,0,0,1,1.69-1.37,3.59,3.59,0,0,1-1.44-1.25,3.22,3.22,0,0,1-.53-1.83,3.56,3.56,0,0,1,1.11-2.76,4.75,4.75,0,0,1,5.88,0A3.54,3.54,0,0,1,556.61,207.3Zm-1.43,6.42a2.53,2.53,0,0,0-.73-1.88,2.59,2.59,0,0,0-1.92-.73,2.47,2.47,0,0,0-2.61,2.61,2.48,2.48,0,0,0,.7,1.85,2.69,2.69,0,0,0,1.93.67,2.66,2.66,0,0,0,1.93-.68A2.42,2.42,0,0,0,555.18,213.72ZM552.55,205a2.3,2.3,0,0,0-1.67.64,2.68,2.68,0,0,0,0,3.44,2.52,2.52,0,0,0,3.36,0,2.59,2.59,0,0,0,0-3.41A2.22,2.22,0,0,0,552.55,205Z" style="fill: #fff"/>
      <path d="M565.84,211.42a4.05,4.05,0,0,1-1.31,1.05,3.46,3.46,0,0,1-1.67.4,3.59,3.59,0,0,1-2.07-.59,3.79,3.79,0,0,1-1.37-1.65,6.08,6.08,0,0,1,0-4.83,3.88,3.88,0,0,1,1.49-1.7,4.29,4.29,0,0,1,2.25-.58,3.84,3.84,0,0,1,3.22,1.52,6.64,6.64,0,0,1,1.18,4.17v.51q0,4-1.59,5.87a6.1,6.1,0,0,1-4.79,1.9h-.34V216h.37a4.16,4.16,0,0,0,4.59-4.58Zm-2.69,0a2.72,2.72,0,0,0,1.62-.54,3.16,3.16,0,0,0,1.08-1.33v-.7a4.87,4.87,0,0,0-.74-2.8,2.28,2.28,0,0,0-3.75-.19,3.61,3.61,0,0,0-.7,2.33,3.74,3.74,0,0,0,.68,2.32A2.13,2.13,0,0,0,563.15,211.42Z" style="fill: #fff"/>
      <path d="M578.65,211.6a8,8,0,0,1-1,4.57,3.72,3.72,0,0,1-3.28,1.5,3.77,3.77,0,0,1-3.27-1.47,7.57,7.57,0,0,1-1.09-4.36V209.5a7.84,7.84,0,0,1,1-4.51,4.45,4.45,0,0,1,6.56-.05,7.55,7.55,0,0,1,1.08,4.39Zm-1.75-2.39a6.5,6.5,0,0,0-.62-3.24,2.16,2.16,0,0,0-2-1,2.11,2.11,0,0,0-2,1,6.21,6.21,0,0,0-.63,3.11v2.8a6.52,6.52,0,0,0,.64,3.29,2.16,2.16,0,0,0,2,1.07,2.13,2.13,0,0,0,1.92-1,6.31,6.31,0,0,0,.66-3.16Z" style="fill: #fff"/>
      <path d="M587,213.61h-2.49l-.76,3.87h-1.35l.75-3.87h-2.26V212.3h2.51L584,209h-2.44v-1.31h2.7l.77-3.93h1.36l-.78,3.93h2.5l.77-3.93h1.36l-.77,3.93h1.93V209h-2.19l-.65,3.35h2.13v1.31h-2.38l-.75,3.87h-1.36Zm-2.25-1.31h2.5l.65-3.35h-2.5Z" style="fill: #fff"/>
      <path d="M598,210.09h3.84v1.66H598v4.35h-1.76v-4.35h-3.84v-1.66h3.84v-4H598Z" style="fill: #fff"/>
      <path d="M611.36,218.91h-8.67v-1.43h8.67Z" style="fill: #fff"/>
      <path d="M627.83,212.73a6.25,6.25,0,0,1-1.13,3.61,3.26,3.26,0,0,1-2.73,1.33,2.14,2.14,0,0,1-2.27-1.59,3.6,3.6,0,0,1-1.17,1.19,2.55,2.55,0,0,1-1.36.4,2.26,2.26,0,0,1-2-1.1,4.82,4.82,0,0,1-.51-3,8.17,8.17,0,0,1,.71-2.78,5.05,5.05,0,0,1,1.48-1.93,3.07,3.07,0,0,1,1.89-.7,4.15,4.15,0,0,1,1.37.21,4.58,4.58,0,0,1,1.37.8l-.5,5.24c-.12,1.45.29,2.18,1.22,2.18a2,2,0,0,0,1.73-1.06,5.46,5.46,0,0,0,.71-2.76,8.15,8.15,0,0,0-1.36-5.61,5.66,5.66,0,0,0-4.71-1.93,6.08,6.08,0,0,0-3.37.94,6.44,6.44,0,0,0-2.33,2.72,10.49,10.49,0,0,0-1,4.11,9.92,9.92,0,0,0,.57,4.07,5.42,5.42,0,0,0,2.08,2.64,6,6,0,0,0,3.37.91,7.15,7.15,0,0,0,1.71-.21,5.4,5.4,0,0,0,1.42-.54l.35,1.09a5.23,5.23,0,0,1-1.56.61,8.61,8.61,0,0,1-2,.23,7.52,7.52,0,0,1-4.07-1.06,6.45,6.45,0,0,1-2.54-3.07,10.71,10.71,0,0,1-.74-4.67,11.53,11.53,0,0,1,1.16-4.68,7.9,7.9,0,0,1,2.85-3.21,7.5,7.5,0,0,1,4.06-1.13,7.4,7.4,0,0,1,4,1.06,6.34,6.34,0,0,1,2.5,3.06A10.84,10.84,0,0,1,627.83,212.73Zm-9.7.8a3.6,3.6,0,0,0,.25,2.06,1.29,1.29,0,0,0,1.22.72,1.62,1.62,0,0,0,1.09-.48,3.44,3.44,0,0,0,.86-1.38v-.08l.44-4.76a2.35,2.35,0,0,0-1.14-.28,2.15,2.15,0,0,0-1.83,1.13A6.85,6.85,0,0,0,618.13,213.53Z" style="fill: #fff"/>
      <path d="M638.12,209.78h-7.89v-1.53h7.89Zm0,3.92h-7.89v-1.51h7.89Z" style="fill: #fff"/>
      <path d="M640.42,206.35a2.79,2.79,0,0,1,.79-2,3,3,0,0,1,4.06,0,2.86,2.86,0,0,1,.78,2.09v.67a2.76,2.76,0,0,1-.79,2,2.69,2.69,0,0,1-2,.79,2.75,2.75,0,0,1-2-.79,2.8,2.8,0,0,1-.8-2.1Zm1.3.73a1.79,1.79,0,0,0,.42,1.22,1.51,1.51,0,0,0,2.2,0,1.86,1.86,0,0,0,.41-1.27v-.69a1.84,1.84,0,0,0-.41-1.22,1.49,1.49,0,0,0-2.21,0,1.89,1.89,0,0,0-.41,1.26Zm1.93,9.36-1-.63,6.72-10.76,1,.62Zm3.47-2.34a2.77,2.77,0,0,1,.79-2,3,3,0,0,1,4.06,0,2.85,2.85,0,0,1,.8,2.11v.67a2.83,2.83,0,0,1-.79,2,2.74,2.74,0,0,1-2,.8,2.73,2.73,0,0,1-2.84-2.9Zm1.31.73a1.84,1.84,0,0,0,.41,1.23,1.41,1.41,0,0,0,1.12.48,1.39,1.39,0,0,0,1.09-.47,1.88,1.88,0,0,0,.4-1.27v-.71a1.78,1.78,0,0,0-.41-1.22,1.39,1.39,0,0,0-1.1-.47,1.37,1.37,0,0,0-1.09.47,1.81,1.81,0,0,0-.42,1.26Z" style="fill: #fff"/>
      <path d="M655.28,218.66h-1.5l5.75-14.95H661Z" style="fill: #fff"/>
      <path d="M669.11,211.33l-6.25-2.45v-1.8l8.08,3.58V212l-8.08,3.58v-1.81Z" style="fill: #fff"/>
      <path d="M673,211.89a14.68,14.68,0,0,1,.57-4.11,12.27,12.27,0,0,1,1.71-3.57,7.14,7.14,0,0,1,2.36-2.27l.36,1.15a7.51,7.51,0,0,0-2.27,3.24,14.07,14.07,0,0,0-1,4.87v.8a14.11,14.11,0,0,0,1.34,6.34,7.4,7.4,0,0,0,1.91,2.51l-.36,1.07a7.55,7.55,0,0,1-2.41-2.34A13.22,13.22,0,0,1,673,211.89Z" style="fill: #fff"/>
      <path d="M683.28,203.18h-1.8V219h1.8v1.44h-3.56V201.74h3.56Z" style="fill: #fff"/>
      <path d="M686.85,213.58a5.75,5.75,0,0,1,.25-1.77,4.51,4.51,0,0,1,1-1.45l1.24-1.27a2.86,2.86,0,0,0,.79-1.93,2.17,2.17,0,0,0-.52-1.55,2,2,0,0,0-1.51-.56,2.26,2.26,0,0,0-1.55.51,1.7,1.7,0,0,0-.59,1.37h-1.75a3.18,3.18,0,0,1,1.09-2.47,4.09,4.09,0,0,1,2.8-.94,3.87,3.87,0,0,1,2.78.95,3.47,3.47,0,0,1,1,2.63,4.74,4.74,0,0,1-1.53,3.26l-1,1a3.19,3.19,0,0,0-.69,2.2Zm-.08,3a1,1,0,0,1,.26-.72,1,1,0,0,1,.77-.29,1,1,0,0,1,.78.29,1.11,1.11,0,0,1,0,1.43,1,1,0,0,1-.78.28,1,1,0,0,1-.77-.28A1,1,0,0,1,686.77,216.59Z" style="fill: #fff"/>
      <path d="M692.7,201.74h3.58v18.69H692.7V219h1.83V203.18H692.7Z" style="fill: #fff"/>
      <path d="M703.12,212a14.62,14.62,0,0,1-.56,4.05,12.19,12.19,0,0,1-1.69,3.57,7.42,7.42,0,0,1-2.39,2.32l-.37-1.07a7.61,7.61,0,0,0,2.34-3.46,15.2,15.2,0,0,0,.91-5.22v-.3a15.47,15.47,0,0,0-.42-3.7,12.63,12.63,0,0,0-1.16-3.06,6.88,6.88,0,0,0-1.67-2.1l.37-1.07a7.43,7.43,0,0,1,2.38,2.3,12,12,0,0,1,1.69,3.57A14.8,14.8,0,0,1,703.12,212Z" style="fill: #fff"/>
    </g>
    <g>
      <path d="M99.11,360.85H93.77l-1.11,3.2H90.17l5.2-13.77h2.15l5.21,13.77h-2.5Zm-4.66-1.93h4l-2-5.71Z" style="fill: #fff"/>
      <path d="M110.19,364.05a3.26,3.26,0,0,1-.27-.95,3.87,3.87,0,0,1-5.2.26,2.8,2.8,0,0,1-1-2.17,2.91,2.91,0,0,1,1.22-2.51,5.85,5.85,0,0,1,3.48-.88h1.4v-.67a1.6,1.6,0,0,0-1.79-1.75,2,2,0,0,0-1.29.39,1.25,1.25,0,0,0-.5,1H104a2.56,2.56,0,0,1,.56-1.57,3.72,3.72,0,0,1,1.52-1.15,5.27,5.27,0,0,1,2.14-.42,4.33,4.33,0,0,1,2.87.9,3.24,3.24,0,0,1,1.09,2.54v4.62a5.16,5.16,0,0,0,.39,2.2v.16Zm-2.53-1.65a2.62,2.62,0,0,0,1.28-.33,2.2,2.2,0,0,0,.9-.89v-1.93h-1.23a3.4,3.4,0,0,0-1.92.44A1.45,1.45,0,0,0,106,361a1.37,1.37,0,0,0,.44,1.06A1.73,1.73,0,0,0,107.66,362.4Z" style="fill: #fff"/>
      <path d="M114.77,364.05V350.28h4.72a5.79,5.79,0,0,1,3.56.94,3.3,3.3,0,0,1,1.22,2.79,3,3,0,0,1-.51,1.7,3.27,3.27,0,0,1-1.5,1.18A3.06,3.06,0,0,1,124,358a3.31,3.31,0,0,1,.61,2,3.68,3.68,0,0,1-1.24,3,5.39,5.39,0,0,1-3.57,1Zm2.4-8h2.34a2.78,2.78,0,0,0,1.75-.5,1.77,1.77,0,0,0,.62-1.44,1.74,1.74,0,0,0-.58-1.47,2.87,2.87,0,0,0-1.81-.46h-2.32Zm0,1.76v4.3h2.65a2.58,2.58,0,0,0,1.76-.55,2,2,0,0,0,.64-1.56,2,2,0,0,0-2.2-2.19Z" style="fill: #fff"/>
      <path d="M135.75,359a6.11,6.11,0,0,1-1.06,3.79,3.47,3.47,0,0,1-2.93,1.41A3.34,3.34,0,0,1,129,363l-.11,1.1h-2.08V349.53h2.29v5.27a3.35,3.35,0,0,1,2.68-1.17,3.49,3.49,0,0,1,2.94,1.39,6.21,6.21,0,0,1,1.07,3.89Zm-2.3-.2a4.32,4.32,0,0,0-.58-2.49,2,2,0,0,0-1.71-.84,2.15,2.15,0,0,0-2.1,1.31V361a2.16,2.16,0,0,0,2.12,1.33,2,2,0,0,0,1.67-.8,4.22,4.22,0,0,0,.6-2.43Z" style="fill: #fff"/>
      <path d="M148.41,359.57a5,5,0,0,1-1.63,3.44,5.56,5.56,0,0,1-3.77,1.23,5.36,5.36,0,0,1-2.9-.78,5.17,5.17,0,0,1-1.94-2.21,8.12,8.12,0,0,1-.71-3.34v-1.29a8,8,0,0,1,.69-3.43,5.19,5.19,0,0,1,2-2.29,5.48,5.48,0,0,1,3-.81,5.34,5.34,0,0,1,3.67,1.24,5.14,5.14,0,0,1,1.62,3.49H146a3.4,3.4,0,0,0-.86-2.14,2.84,2.84,0,0,0-2-.66,2.8,2.8,0,0,0-2.4,1.14,5.68,5.68,0,0,0-.85,3.35v1.22a6,6,0,0,0,.8,3.41,2.65,2.65,0,0,0,2.34,1.17,3.08,3.08,0,0,0,2.11-.63,3.22,3.22,0,0,0,.9-2.11Z" style="fill: #fff"/>
      <path d="M154.53,362.41a2.11,2.11,0,0,0,1.43-.5,1.73,1.73,0,0,0,.6-1.24h2.17a3.42,3.42,0,0,1-.6,1.78,3.93,3.93,0,0,1-1.51,1.31,4.55,4.55,0,0,1-2.06.48,4.35,4.35,0,0,1-3.41-1.39,5.49,5.49,0,0,1-1.26-3.84v-.23a5.42,5.42,0,0,1,1.25-3.74,4.32,4.32,0,0,1,3.41-1.41,4.21,4.21,0,0,1,3,1.07,3.79,3.79,0,0,1,1.21,2.79h-2.17A2.06,2.06,0,0,0,156,356a1.92,1.92,0,0,0-1.43-.56,2,2,0,0,0-1.72.8,4.12,4.12,0,0,0-.62,2.46v.37a4.18,4.18,0,0,0,.6,2.48A2,2,0,0,0,154.53,362.41Z" style="fill: #fff"/>
      <path d="M160.68,364.05V350.28h4.07a6.29,6.29,0,0,1,3.24.82,5.59,5.59,0,0,1,2.19,2.3,7.32,7.32,0,0,1,.78,3.43v.69a7.3,7.3,0,0,1-.78,3.44,5.47,5.47,0,0,1-2.23,2.29,6.61,6.61,0,0,1-3.3.8Zm2.4-11.84v9.93h1.56a3.61,3.61,0,0,0,2.89-1.17,5.15,5.15,0,0,0,1-3.38v-.77a5.27,5.27,0,0,0-1-3.43,3.48,3.48,0,0,0-2.83-1.18Z" style="fill: #fff"/>
      <path d="M172.69,358.86a6.06,6.06,0,0,1,1.1-3.8,3.52,3.52,0,0,1,2.94-1.43,3.34,3.34,0,0,1,2.63,1.14v-5.24h2.29v14.52h-2.08l-.11-1.05a3.38,3.38,0,0,1-2.75,1.24,3.5,3.5,0,0,1-2.91-1.44A6.34,6.34,0,0,1,172.69,358.86Zm2.3.2a4.29,4.29,0,0,0,.6,2.44,2,2,0,0,0,1.7.87,2.19,2.19,0,0,0,2.07-1.26v-4.37a2.15,2.15,0,0,0-2.05-1.23,2,2,0,0,0-1.72.89A4.78,4.78,0,0,0,175,359.06Z" style="fill: #fff"/>
      <path d="M192.32,357.91h-5.65v4.23h6.61v1.91h-9V350.28h8.94v1.93h-6.54V356h5.65Z" style="fill: #fff"/>
      <path d="M199.33,364.24a4.75,4.75,0,0,1-3.54-1.37,5,5,0,0,1-1.36-3.67v-.28a6.2,6.2,0,0,1,.59-2.74,4.6,4.6,0,0,1,1.66-1.88,4.49,4.49,0,0,1,2.39-.67A4,4,0,0,1,202.3,355a5.65,5.65,0,0,1,1.14,3.78v.93h-6.69a3,3,0,0,0,.85,2,2.53,2.53,0,0,0,1.87.74,3.11,3.11,0,0,0,2.57-1.28l1.24,1.18a4.14,4.14,0,0,1-1.64,1.43A5.15,5.15,0,0,1,199.33,364.24Zm-.27-8.76a2,2,0,0,0-1.53.66,3.41,3.41,0,0,0-.74,1.84h4.38v-.17a2.76,2.76,0,0,0-.62-1.74A1.89,1.89,0,0,0,199.06,355.48Z" style="fill: #fff"/>
      <path d="M213.38,358.22h-5.54v5.83h-2.4V350.28h8.75v1.93h-6.35v4.1h5.54Z" style="fill: #fff"/>
      <path d="M216.67,364.05v-8.53h-1.56v-1.7h1.56v-.94a3.53,3.53,0,0,1,1-2.63,3.65,3.65,0,0,1,2.65-.92,5,5,0,0,1,1.28.17l-.05,1.8a3.94,3.94,0,0,0-.88-.08,1.48,1.48,0,0,0-1.65,1.69v.91h2.08v1.7H219v8.53Z" style="fill: #fff"/>
      <path d="M233.51,362.27a4.55,4.55,0,0,1-2.07,1.47,8.37,8.37,0,0,1-3,.5,6,6,0,0,1-3.07-.78,5.15,5.15,0,0,1-2.05-2.25,7.75,7.75,0,0,1-.76-3.41v-1.08a7.26,7.26,0,0,1,1.5-4.87,5.18,5.18,0,0,1,4.17-1.76,5.48,5.48,0,0,1,3.65,1.14,4.93,4.93,0,0,1,1.63,3.28h-2.35a2.63,2.63,0,0,0-2.88-2.49,2.85,2.85,0,0,0-2.45,1.16,5.91,5.91,0,0,0-.86,3.4v1.06a5.58,5.58,0,0,0,.94,3.46,3.11,3.11,0,0,0,2.61,1.23,3.41,3.41,0,0,0,2.61-.83v-2.69h-2.83V357h5.22Z" style="fill: #fff"/>
      <path d="M235.51,358.86a6,6,0,0,1,1.12-3.81,3.63,3.63,0,0,1,3-1.42,3.37,3.37,0,0,1,2.75,1.22l.1-1h2.08v9.92a4.1,4.1,0,0,1-1.26,3.18,4.74,4.74,0,0,1-3.38,1.16,5.5,5.5,0,0,1-2.2-.46,4,4,0,0,1-1.63-1.23l1.09-1.38a3.29,3.29,0,0,0,2.61,1.26,2.58,2.58,0,0,0,1.81-.62,2.37,2.37,0,0,0,.66-1.82v-.69a3.38,3.38,0,0,1-2.65,1.1,3.59,3.59,0,0,1-2.94-1.42A6.2,6.2,0,0,1,235.51,358.86Zm2.29.2a4.12,4.12,0,0,0,.63,2.43,2,2,0,0,0,1.75.88,2.22,2.22,0,0,0,2.06-1.19v-4.5a2.19,2.19,0,0,0-2-1.17,2,2,0,0,0-1.77.9A4.61,4.61,0,0,0,237.8,359.06Z" style="fill: #fff"/>
      <path d="M258.05,364.05h-2.38v-6.11h-6.16v6.11h-2.39V350.28h2.39V356h6.16v-5.73h2.38Z" style="fill: #fff"/>
      <path d="M262.92,354.94a3.6,3.6,0,0,1,2.85-1.31q3.27,0,3.32,3.74v6.68h-2.3v-6.6a2,2,0,0,0-.46-1.5,1.86,1.86,0,0,0-1.34-.44,2.23,2.23,0,0,0-2.07,1.23v7.31h-2.29V349.53h2.29Z" style="fill: #fff"/>
      <path d="M274.16,364.05h-2.38V350.28h2.38Z" style="fill: #fff"/>
      <path d="M276.89,351.16a1.25,1.25,0,0,1,.33-.88,1.28,1.28,0,0,1,1-.35,1.31,1.31,0,0,1,1,.35,1.26,1.26,0,0,1,.34.88,1.22,1.22,0,0,1-.34.87,1.3,1.3,0,0,1-1,.34,1.28,1.28,0,0,1-1-.34A1.21,1.21,0,0,1,276.89,351.16Zm2.44,12.89H277V353.82h2.3Z" style="fill: #fff"/>
      <path d="M287.69,350.28h2.38v9.66a4.12,4.12,0,0,1-1.23,3.14,4.55,4.55,0,0,1-3.26,1.16,4.73,4.73,0,0,1-3.33-1.08,4,4,0,0,1-1.17-3h2.38a2.28,2.28,0,0,0,.54,1.65,2.12,2.12,0,0,0,1.58.55,1.94,1.94,0,0,0,1.53-.64,2.49,2.49,0,0,0,.58-1.76Z" style="fill: #fff"/>
      <path d="M295,353.82V365a3.37,3.37,0,0,1-.78,2.4,3,3,0,0,1-2.28.83,4.85,4.85,0,0,1-1.22-.16v-1.82a3.29,3.29,0,0,0,.81.09c.76,0,1.15-.42,1.17-1.25V353.82Zm-2.5-2.66a1.21,1.21,0,0,1,.34-.88,1.27,1.27,0,0,1,1-.35,1.28,1.28,0,0,1,1,.35,1.21,1.21,0,0,1,.34.88,1.18,1.18,0,0,1-.34.87,1.28,1.28,0,0,1-1,.34,1.26,1.26,0,0,1-1-.34A1.18,1.18,0,0,1,292.48,351.16Z" style="fill: #fff"/>
      <path d="M301.61,358.11l-1.56,1.65v4.29h-2.39V350.28h2.39v6.46l1.32-1.63,4-4.83h2.9l-5.12,6.1,5.41,7.67h-2.84Z" style="fill: #fff"/>
      <path d="M313,359.67l-1,1.05v3.33h-2.3V349.53H312v8.38l.72-.9,2.83-3.19h2.76l-3.8,4.27,4.2,6H316Z" style="fill: #fff"/>
      <path d="M322.37,362.14h6.25v1.91H320V350.28h2.39Z" style="fill: #fff"/>
      <path d="M332.68,364.05h-2.3V349.53h2.3Z" style="fill: #fff"/>
      <path d="M338.51,350.28l4,10.56,4-10.56h3.1v13.77h-2.39v-4.54l.24-6.07-4.07,10.61h-1.71l-4.06-10.6.24,6.06v4.54h-2.38V350.28Z" style="fill: #fff"/>
      <path d="M354.3,353.82l.07,1.07a3.68,3.68,0,0,1,2.95-1.26,2.82,2.82,0,0,1,2.81,1.57,3.62,3.62,0,0,1,3.14-1.57,3.17,3.17,0,0,1,2.52.94,4.1,4.1,0,0,1,.85,2.76v6.72h-2.3V357.4a2.05,2.05,0,0,0-.42-1.43,1.85,1.85,0,0,0-1.41-.46,1.93,1.93,0,0,0-1.29.42,2.24,2.24,0,0,0-.69,1.11v7h-2.3v-6.73a1.64,1.64,0,0,0-1.84-1.81,2,2,0,0,0-2,1.13v7.41h-2.3V353.82Z" style="fill: #fff"/>
      <path d="M380.15,364.05h-2.4l-6.14-9.77v9.77h-2.39V350.28h2.39l6.16,9.81v-9.81h2.38Z" style="fill: #fff"/>
      <path d="M93.31,377.07l.07,1.18a3.65,3.65,0,0,1,3-1.37q3.19,0,3.25,3.66v6.76h-2.3v-6.63a2.1,2.1,0,0,0-.42-1.44,1.78,1.78,0,0,0-1.38-.47A2.23,2.23,0,0,0,93.44,380v7.28h-2.3V377.07Z" style="fill: #fff"/>
      <path d="M113.16,380.77a8.44,8.44,0,0,1-.7,3.56,5.23,5.23,0,0,1-2,2.34,5.84,5.84,0,0,1-6,0,5.33,5.33,0,0,1-2-2.33,8.18,8.18,0,0,1-.72-3.49v-.78a8.46,8.46,0,0,1,.71-3.55,5.34,5.34,0,0,1,2-2.36,5.42,5.42,0,0,1,3-.82,5.56,5.56,0,0,1,3,.81,5.36,5.36,0,0,1,2,2.33,8.27,8.27,0,0,1,.71,3.53Zm-2.39-.71a6.06,6.06,0,0,0-.86-3.51,3.06,3.06,0,0,0-4.88,0,5.84,5.84,0,0,0-.9,3.44v.79a6,6,0,0,0,.89,3.51,3.06,3.06,0,0,0,4.9,0,6.11,6.11,0,0,0,.85-3.54Z" style="fill: #fff"/>
      <path d="M114.9,382.09a6,6,0,0,1,.59-2.71,4.4,4.4,0,0,1,1.68-1.86,4.69,4.69,0,0,1,2.47-.64,4.47,4.47,0,0,1,3.37,1.33,5.26,5.26,0,0,1,1.39,3.54v.54a6,6,0,0,1-.58,2.7,4.33,4.33,0,0,1-1.66,1.85,4.84,4.84,0,0,1-2.51.65,4.42,4.42,0,0,1-3.46-1.44,5.52,5.52,0,0,1-1.3-3.85Zm2.29.2a4.09,4.09,0,0,0,.66,2.47,2.28,2.28,0,0,0,3.62,0,4.5,4.5,0,0,0,.65-2.66,4.08,4.08,0,0,0-.66-2.46,2.13,2.13,0,0,0-1.82-.91,2.09,2.09,0,0,0-1.78.9A4.45,4.45,0,0,0,117.19,382.29Z" style="fill: #fff"/>
      <path d="M129,382.19v5.11h-2.39V373.53h5.26a5.34,5.34,0,0,1,3.67,1.2,4,4,0,0,1,1.36,3.18,4,4,0,0,1-1.33,3.16,5.6,5.6,0,0,1-3.72,1.12Zm0-1.93h2.87a2.81,2.81,0,0,0,1.95-.6,2.2,2.2,0,0,0,.67-1.73,2.37,2.37,0,0,0-.68-1.79,2.61,2.61,0,0,0-1.87-.68H129Z" style="fill: #fff"/>
      <path d="M147.7,382.29a6.11,6.11,0,0,1-1.08,3.79,3.75,3.75,0,0,1-5.59.3v4.86h-2.3V377.07h2.12l.09,1a3.4,3.4,0,0,1,2.76-1.23,3.47,3.47,0,0,1,2.93,1.39,6.26,6.26,0,0,1,1.07,3.88Zm-2.29-.2a4.25,4.25,0,0,0-.61-2.43,2,2,0,0,0-1.75-.9,2.12,2.12,0,0,0-2,1.16v4.54a2.13,2.13,0,0,0,2,1.19,2,2,0,0,0,1.72-.88A4.71,4.71,0,0,0,145.41,382.09Z" style="fill: #fff"/>
      <path d="M160.81,380.77a8.51,8.51,0,0,1-.62,3.39,5.52,5.52,0,0,1-1.74,2.28l2.37,1.84-1.55,1.4-2.94-2.31a6,6,0,0,1-1.24.12,5.44,5.44,0,0,1-3-.82,5.31,5.31,0,0,1-2-2.33,8.18,8.18,0,0,1-.73-3.49v-.78a8.31,8.31,0,0,1,.72-3.55,5.26,5.26,0,0,1,2-2.36,5.45,5.45,0,0,1,3-.82,5.57,5.57,0,0,1,3,.81,5.23,5.23,0,0,1,2,2.33,8.42,8.42,0,0,1,.72,3.53Zm-2.4-.71a6,6,0,0,0-.87-3.53,2.88,2.88,0,0,0-2.46-1.2,2.81,2.81,0,0,0-2.42,1.21,6,6,0,0,0-.9,3.43v.8a6,6,0,0,0,.88,3.49,3.06,3.06,0,0,0,4.91.05,6.1,6.1,0,0,0,.86-3.54Z" style="fill: #fff"/>
      <path d="M162.59,382.1a6.05,6.05,0,0,1,1.09-3.81,3.59,3.59,0,0,1,3-1.41,3.37,3.37,0,0,1,2.72,1.2l.13-1h2v14.17h-2.29v-4.81a3.43,3.43,0,0,1-2.62,1.06,3.55,3.55,0,0,1-2.94-1.43A6.4,6.4,0,0,1,162.59,382.1Zm2.29.2a4.3,4.3,0,0,0,.62,2.46,2,2,0,0,0,1.72.89,2.18,2.18,0,0,0,2-1.16v-4.65a2.19,2.19,0,0,0-2-1.12,2,2,0,0,0-1.73.88A4.68,4.68,0,0,0,164.88,382.3Z" style="fill: #fff"/>
      <path d="M179.3,382h-2.67v5.3h-2.39V373.53h4.84a5.64,5.64,0,0,1,3.68,1.07,3.78,3.78,0,0,1,1.3,3.09,3.91,3.91,0,0,1-.67,2.32,4.16,4.16,0,0,1-1.86,1.43l3.09,5.74v.12h-2.56Zm-2.67-1.93h2.46a2.7,2.7,0,0,0,1.89-.61,2.09,2.09,0,0,0,.68-1.67,2.31,2.31,0,0,0-.62-1.71,2.69,2.69,0,0,0-1.88-.62h-2.53Z" style="fill: #fff"/>
      <path d="M191.46,379.17a5.64,5.64,0,0,0-.93-.08,2.1,2.1,0,0,0-2.13,1.21v7h-2.3V377.07h2.19l.06,1.14a2.6,2.6,0,0,1,2.31-1.33,2.08,2.08,0,0,1,.81.13Z" style="fill: #fff"/>
      <path d="M200.34,383.75a1.69,1.69,0,0,0-.64-1.4,7.9,7.9,0,0,0-2.31-1,10.76,10.76,0,0,1-2.64-1.12,3.51,3.51,0,0,1-1.89-3.08,3.37,3.37,0,0,1,1.36-2.74,5.5,5.5,0,0,1,3.52-1.08,6,6,0,0,1,2.57.53,4.22,4.22,0,0,1,1.77,1.51,3.84,3.84,0,0,1,.64,2.17h-2.38a2.17,2.17,0,0,0-.68-1.69,2.78,2.78,0,0,0-1.93-.61,2.92,2.92,0,0,0-1.82.5,1.66,1.66,0,0,0-.65,1.4,1.48,1.48,0,0,0,.7,1.26,7.88,7.88,0,0,0,2.3,1,10.49,10.49,0,0,1,2.59,1.09,4.09,4.09,0,0,1,1.43,1.4,3.64,3.64,0,0,1,.45,1.84,3.27,3.27,0,0,1-1.32,2.74,5.71,5.71,0,0,1-3.58,1,6.72,6.72,0,0,1-2.75-.55,4.71,4.71,0,0,1-2-1.53,3.84,3.84,0,0,1-.69-2.27h2.39a2.2,2.2,0,0,0,.78,1.81,3.38,3.38,0,0,0,2.22.65,3,3,0,0,0,1.88-.51A1.63,1.63,0,0,0,200.34,383.75Z" style="fill: #fff"/>
      <path d="M210.34,384.52a1.06,1.06,0,0,0-.5-.94,5.48,5.48,0,0,0-1.68-.56,9,9,0,0,1-2-.63,2.6,2.6,0,0,1-1.72-2.41,2.72,2.72,0,0,1,1.11-2.21,4.39,4.39,0,0,1,2.84-.89,4.58,4.58,0,0,1,3,.91,2.88,2.88,0,0,1,1.13,2.35h-2.3a1.4,1.4,0,0,0-.49-1.1,1.92,1.92,0,0,0-1.31-.44,2.06,2.06,0,0,0-1.23.35,1.09,1.09,0,0,0-.48.93.94.94,0,0,0,.45.83,6.21,6.21,0,0,0,1.79.59,8.5,8.5,0,0,1,2.13.71,3,3,0,0,1,1.14,1,2.5,2.5,0,0,1,.37,1.4,2.66,2.66,0,0,1-1.14,2.23,4.88,4.88,0,0,1-3,.86,5.3,5.3,0,0,1-2.24-.45,3.68,3.68,0,0,1-1.53-1.25,2.92,2.92,0,0,1-.55-1.71h2.23a1.61,1.61,0,0,0,.62,1.25,2.39,2.39,0,0,0,1.5.44,2.34,2.34,0,0,0,1.38-.35A1.05,1.05,0,0,0,210.34,384.52Z" style="fill: #fff"/>
      <path d="M224.78,375.46h-4.3V387.3h-2.37V375.46h-4.26v-1.93h10.93Z" style="fill: #fff"/>
      <path d="M229.24,374.58v2.49h1.81v1.7h-1.81v5.71a1.29,1.29,0,0,0,.23.85,1.1,1.1,0,0,0,.83.26,3.13,3.13,0,0,0,.8-.1v1.78a5.41,5.41,0,0,1-1.51.22c-1.76,0-2.65-1-2.65-2.92v-5.8h-1.68v-1.7h1.68v-2.49Z" style="fill: #fff"/>
      <path d="M243.1,373.53v9.2a4.47,4.47,0,0,1-1.41,3.48,6.16,6.16,0,0,1-7.49,0,4.49,4.49,0,0,1-1.39-3.51v-9.19h2.38v9.21a2.91,2.91,0,0,0,.7,2.11,2.71,2.71,0,0,0,2.06.73q2.76,0,2.76-2.91v-9.14Z" style="fill: #fff"/>
      <path d="M251.63,386.3a3.57,3.57,0,0,1-2.88,1.19,3.18,3.18,0,0,1-2.52-1,4.15,4.15,0,0,1-.85-2.82v-6.63h2.3v6.6c0,1.3.54,1.95,1.61,1.95a2.27,2.27,0,0,0,2.26-1.2v-7.35h2.3V387.3h-2.16Z" style="fill: #fff"/>
      <path d="M261.27,384.3l3.5-10.77h2.63l-5,13.77h-2.32l-4.93-13.77h2.62Z" style="fill: #fff"/>
      <path d="M272.23,384.39l2.17-7.32h2.37l-3.55,10.23h-2l-3.58-10.23H270Z" style="fill: #fff"/>
      <path d="M289.23,383.9l2.12-10.37h2.37l-3.18,13.77h-2.29l-2.62-10.05L283,387.3h-2.3l-3.18-13.77h2.38L282,383.88l2.63-10.35h2Z" style="fill: #fff"/>
      <path d="M304.24,384.13l1.63-7.06h2.24l-2.79,10.23h-1.89l-2.2-7-2.15,7h-1.9l-2.8-10.23h2.24l1.66,7,2.1-7h1.73Z" style="fill: #fff"/>
      <path d="M314.61,378.5l2.89-5h2.76l-4.16,6.83,4.26,6.94h-2.79l-3-5.05-3,5.05h-2.78l4.26-6.94L309,373.53h2.76Z" style="fill: #fff"/>
      <path d="M325.58,380.43l1.95-3.36h2.55l-3.13,5,3.24,5.19h-2.54l-2-3.5-2,3.5H321l3.23-5.19-3.12-5h2.54Z" style="fill: #fff"/>
      <path d="M336.36,380.06l3.17-6.53h2.65l-4.62,8.7v5.07h-2.4v-5.07l-4.62-8.7h2.65Z" style="fill: #fff"/>
      <path d="M346.84,384l2.08-6.94h2.45l-4.06,11.78q-.94,2.58-3.18,2.58a3.85,3.85,0,0,1-1.11-.17v-1.78l.44,0a2.26,2.26,0,0,0,1.31-.31,2.12,2.12,0,0,0,.69-1.07l.33-.87-3.59-10.18h2.48Z" style="fill: #fff"/>
      <path d="M355.17,385.39h7.35v1.91H352.27v-1.55l7.12-10.29h-7.07v-1.93h10V375Z" style="fill: #fff"/>
      <path d="M366.81,385.47h5.45v1.83H364v-1.5l5.2-6.88h-5.1v-1.85h8v1.45Z" style="fill: #fff"/>
      <path d="M97.25,410.55H95V399.48l-3.38,1.15V398.7l5.37-2h.29Z" style="fill: #fff"/>
      <path d="M111.3,410.55H102V409l4.59-5a10.91,10.91,0,0,0,1.41-1.85,3,3,0,0,0,.42-1.49,2.24,2.24,0,0,0-.55-1.58,1.91,1.91,0,0,0-1.49-.61,2.23,2.23,0,0,0-1.73.68,2.68,2.68,0,0,0-.62,1.86h-2.29a4.52,4.52,0,0,1,.57-2.26,4,4,0,0,1,1.63-1.57,5.25,5.25,0,0,1,2.46-.55,4.64,4.64,0,0,1,3.16,1,3.51,3.51,0,0,1,1.16,2.79,4.67,4.67,0,0,1-.58,2.16,12.29,12.29,0,0,1-1.91,2.57l-3.36,3.6h6.39Z" style="fill: #fff"/>
      <path d="M115.71,402.61h1.4a2.55,2.55,0,0,0,1.68-.55,2,2,0,0,0,.62-1.56,2.13,2.13,0,0,0-.52-1.53,2.08,2.08,0,0,0-1.57-.54,2.24,2.24,0,0,0-1.53.53,1.83,1.83,0,0,0-.59,1.4h-2.3a3.51,3.51,0,0,1,.56-1.93,3.87,3.87,0,0,1,1.57-1.36,5.2,5.2,0,0,1,2.26-.48,4.76,4.76,0,0,1,3.24,1,3.65,3.65,0,0,1,1.18,2.88,2.92,2.92,0,0,1-.6,1.75,3.74,3.74,0,0,1-1.52,1.23,3.41,3.41,0,0,1,1.72,1.22,3.32,3.32,0,0,1,.59,2,3.7,3.7,0,0,1-1.27,2.95,5.58,5.58,0,0,1-6.6,0,3.51,3.51,0,0,1-1.26-2.82h2.3a1.91,1.91,0,0,0,.61,1.47,2.29,2.29,0,0,0,1.64.57,2.37,2.37,0,0,0,1.68-.57,2.12,2.12,0,0,0,.62-1.64A2.15,2.15,0,0,0,119,405a2.75,2.75,0,0,0-1.91-.58h-1.35Z" style="fill: #fff"/>
      <path d="M131.84,405.64h1.71v1.84h-1.71v3.07h-2.3v-3.07h-5.95l-.07-1.4,5.94-9.31h2.38Zm-5.91,0h3.61v-5.75l-.17.3Z" style="fill: #fff"/>
      <path d="M135.69,403.72l.74-7h7.4v2h-5.49l-.37,3.29a4.27,4.27,0,0,1,2.15-.55,3.84,3.84,0,0,1,3.06,1.26,5,5,0,0,1,1.09,3.39,4.57,4.57,0,0,1-1.21,3.34,4.4,4.4,0,0,1-3.32,1.25,4.6,4.6,0,0,1-3.13-1.08,3.87,3.87,0,0,1-1.35-2.83h2.22a2.46,2.46,0,0,0,.72,1.54,2.21,2.21,0,0,0,1.53.53,2,2,0,0,0,1.65-.76,3.22,3.22,0,0,0,.6-2.06,2.86,2.86,0,0,0-.66-2,2.26,2.26,0,0,0-1.79-.73,3,3,0,0,0-1.06.16,3,3,0,0,0-.95.65Z" style="fill: #fff"/>
      <path d="M153.23,396.71v1.9H153a4.57,4.57,0,0,0-3.09,1.06,4.45,4.45,0,0,0-1.37,2.92,3.75,3.75,0,0,1,2.83-1.16,3.53,3.53,0,0,1,2.88,1.28,5.1,5.1,0,0,1,1.06,3.32,4.74,4.74,0,0,1-1.24,3.4,4.25,4.25,0,0,1-3.24,1.31,4.15,4.15,0,0,1-3.34-1.53,5.94,5.94,0,0,1-1.28-4v-.78a8.41,8.41,0,0,1,1.76-5.68,6.33,6.33,0,0,1,5.08-2.05Zm-2.47,6.57a2.37,2.37,0,0,0-1.38.43,2.43,2.43,0,0,0-.92,1.13v.7a4.13,4.13,0,0,0,.64,2.44,2,2,0,0,0,3.28.14,3.21,3.21,0,0,0,.6-2,3.25,3.25,0,0,0-.61-2A1.91,1.91,0,0,0,150.76,403.28Z" style="fill: #fff"/>
      <path d="M166.26,398.05l-5.51,12.5h-2.41l5.49-11.93h-7.12v-1.85h9.55Z" style="fill: #fff"/>
      <path d="M176.77,400.41a3.19,3.19,0,0,1-.52,1.8,3.58,3.58,0,0,1-1.42,1.24,4,4,0,0,1,1.67,1.37,3.53,3.53,0,0,1,.58,2,3.61,3.61,0,0,1-1.23,2.88,5.56,5.56,0,0,1-6.56,0,3.6,3.6,0,0,1-1.24-2.88,3.53,3.53,0,0,1,.59-2,3.82,3.82,0,0,1,1.65-1.35,3.55,3.55,0,0,1-1.41-1.24,3.26,3.26,0,0,1-.51-1.8,3.55,3.55,0,0,1,1.13-2.79,5.09,5.09,0,0,1,6.14,0A3.55,3.55,0,0,1,176.77,400.41Zm-2,6.27a2.26,2.26,0,0,0-.61-1.65,2.39,2.39,0,0,0-3.22,0,2.3,2.3,0,0,0-.6,1.66,2.26,2.26,0,0,0,.59,1.62,2.2,2.2,0,0,0,1.63.6,2.16,2.16,0,0,0,1.63-.59A2.24,2.24,0,0,0,174.78,406.68Zm-.29-6.19A2.13,2.13,0,0,0,174,399a1.76,1.76,0,0,0-1.4-.58,1.8,1.8,0,0,0-1.39.55,2.47,2.47,0,0,0,0,3,2,2,0,0,0,2.79,0A2.18,2.18,0,0,0,174.49,400.49Z" style="fill: #fff"/>
      <path d="M185.63,404.79a3.75,3.75,0,0,1-5.59-.06,5,5,0,0,1-1.08-3.34,5.43,5.43,0,0,1,.55-2.47,4,4,0,0,1,1.56-1.72,4.39,4.39,0,0,1,2.34-.61,4,4,0,0,1,3.3,1.55,6.47,6.47,0,0,1,1.23,4.15v.64a8.51,8.51,0,0,1-1.69,5.69,6.34,6.34,0,0,1-5,2H181v-1.9h.34a4.69,4.69,0,0,0,3.12-1A4.09,4.09,0,0,0,185.63,404.79Zm-2.22-.58a2.29,2.29,0,0,0,1.3-.4,2.68,2.68,0,0,0,.94-1.1v-.89a4.26,4.26,0,0,0-.63-2.45,1.87,1.87,0,0,0-1.62-.93,1.84,1.84,0,0,0-1.58.82,3.44,3.44,0,0,0-.59,2.06,3.37,3.37,0,0,0,.6,2.09A1.87,1.87,0,0,0,183.41,404.21Z" style="fill: #fff"/>
      <path d="M199.1,404.75a7.53,7.53,0,0,1-1.11,4.48,4.56,4.56,0,0,1-6.75,0,7.21,7.21,0,0,1-1.16-4.35v-2.38a7.42,7.42,0,0,1,1.11-4.46,4.65,4.65,0,0,1,6.77,0,7.2,7.2,0,0,1,1.14,4.33Zm-2.3-2.57a5.9,5.9,0,0,0-.53-2.85,2,2,0,0,0-3.34,0,5.42,5.42,0,0,0-.56,2.67v3.12a5.93,5.93,0,0,0,.54,2.87,2,2,0,0,0,3.33.08,5.7,5.7,0,0,0,.56-2.74Z" style="fill: #fff"/>
      <path d="M206.9,406.67h-2.12l-.72,3.88h-1.59l.72-3.88H201v-1.5h2.47l.55-3h-2.3v-1.49h2.58l.74-3.94h1.58l-.74,3.94H208l.73-3.94h1.58l-.73,3.94h2v1.49h-2.25l-.55,3h2.09v1.5h-2.37l-.72,3.88h-1.58Zm-1.83-1.5h2.11l.55-3h-2.12Z" style="fill: #fff"/>
      <path d="M218.41,403H222v2.1h-3.6v4.1h-2.23v-4.1h-3.61V403h3.61v-3.83h2.23Z" style="fill: #fff"/>
      <path d="M231.42,412.35h-8.68v-1.8h8.68Z" style="fill: #fff"/>
      <path d="M247.92,405.65a6.48,6.48,0,0,1-1.16,3.73,3.4,3.4,0,0,1-2.85,1.36,2.23,2.23,0,0,1-2.29-1.45,3.28,3.28,0,0,1-1.12,1.08,2.67,2.67,0,0,1-1.34.36,2.31,2.31,0,0,1-2.09-1.14,4.76,4.76,0,0,1-.54-3,8.21,8.21,0,0,1,.75-2.78,5,5,0,0,1,1.52-1.91,3.28,3.28,0,0,1,2-.68,4.66,4.66,0,0,1,1.41.2,5.33,5.33,0,0,1,1.43.82l-.49,5.33c-.12,1.25.24,1.87,1.08,1.87a1.81,1.81,0,0,0,1.58-1,5.64,5.64,0,0,0,.68-2.69,7.71,7.71,0,0,0-1.35-5.34,5.5,5.5,0,0,0-4.54-1.85,6,6,0,0,0-3.28.92,6.42,6.42,0,0,0-2.28,2.68,10,10,0,0,0-.92,4,9.23,9.23,0,0,0,.54,3.93,5.12,5.12,0,0,0,2,2.51,6,6,0,0,0,3.32.86,7.55,7.55,0,0,0,1.66-.19,5.26,5.26,0,0,0,1.47-.51l.36,1.3a5.12,5.12,0,0,1-1.56.61,8.76,8.76,0,0,1-2,.23,7.92,7.92,0,0,1-4.12-1,6.24,6.24,0,0,1-2.58-2.94,10.57,10.57,0,0,1-.79-4.78,11.32,11.32,0,0,1,1.16-4.66,8,8,0,0,1,2.87-3.21,8.29,8.29,0,0,1,8.2-.11,6.31,6.31,0,0,1,2.54,3A10.1,10.1,0,0,1,247.92,405.65Zm-9.54.9a3.55,3.55,0,0,0,.23,2,1.16,1.16,0,0,0,1.11.66,1.37,1.37,0,0,0,1-.44,3.24,3.24,0,0,0,.73-1.24l.43-4.66a2.55,2.55,0,0,0-.92-.18,2,2,0,0,0-1.71,1A6.37,6.37,0,0,0,238.38,406.55Z" style="fill: #fff"/>
      <path d="M258.31,403.17h-8.16v-1.91h8.16Zm0,4h-8.16v-1.9h8.16Z" style="fill: #fff"/>
      <path d="M260.56,399.42a2.77,2.77,0,0,1,.8-2,2.92,2.92,0,0,1,5,2.09v.68a2.73,2.73,0,0,1-.8,2,2.88,2.88,0,0,1-2.11.8,2.93,2.93,0,0,1-2.1-.78,2.73,2.73,0,0,1-.83-2.11Zm1.61.73a1.5,1.5,0,0,0,.36,1.05,1.32,1.32,0,0,0,1.91,0,1.56,1.56,0,0,0,.36-1.09v-.69a1.49,1.49,0,0,0-.37-1.06,1.32,1.32,0,0,0-1.91,0,1.64,1.64,0,0,0-.35,1.09Zm1.79,9.37-1.18-.69,6.73-10.76,1.18.68Zm3.22-2.35a2.72,2.72,0,0,1,.82-2.05,3.2,3.2,0,0,1,4.21,0,2.82,2.82,0,0,1,.82,2.12v.67a2.81,2.81,0,0,1-.79,2,2.87,2.87,0,0,1-2.12.8A3,3,0,0,1,268,410a2.8,2.8,0,0,1-.81-2.09Zm1.61.73a1.48,1.48,0,0,0,.37,1.05,1.22,1.22,0,0,0,1,.41,1.19,1.19,0,0,0,.95-.39,1.61,1.61,0,0,0,.35-1.1v-.71a1.54,1.54,0,0,0-.37-1.06,1.33,1.33,0,0,0-1.9,0,1.58,1.58,0,0,0-.36,1.1Z" style="fill: #fff"/>
      <path d="M275.67,411.73h-1.8l5.42-15h1.8Z" style="fill: #fff"/>
      <path d="M288.57,404.53l-5.85-2.15v-2.26l8.17,3.52v1.83L282.72,409v-2.27Z" style="fill: #fff"/>
      <path d="M292.8,405a14.45,14.45,0,0,1,.59-4.15,11.49,11.49,0,0,1,1.72-3.51,7,7,0,0,1,2.4-2.17l.46,1.34a7.06,7.06,0,0,0-2.16,3.09,14.08,14.08,0,0,0-.91,4.75v.82a15,15,0,0,0,.81,5.11,7.54,7.54,0,0,0,2.27,3.42l-.46,1.28a7,7,0,0,1-2.4-2.18,11.26,11.26,0,0,1-1.72-3.51A15,15,0,0,1,292.8,405Z" style="fill: #fff"/>
      <path d="M303.45,396.47h-1.56v15.35h1.56v1.79H299.6V394.67h3.85Z" style="fill: #fff"/>
      <path d="M307,406.51a5.28,5.28,0,0,1,.32-2,5.1,5.1,0,0,1,1.23-1.64,9.94,9.94,0,0,0,1.17-1.28,2.23,2.23,0,0,0,.38-1.24,1.93,1.93,0,0,0-.44-1.36,1.71,1.71,0,0,0-1.29-.47A1.87,1.87,0,0,0,307,399a1.58,1.58,0,0,0-.5,1.24h-2.3a3.36,3.36,0,0,1,1.14-2.65,4.37,4.37,0,0,1,3-1,4.27,4.27,0,0,1,3,1,3.45,3.45,0,0,1,1.07,2.7,4.42,4.42,0,0,1-1.44,3l-1.17,1.14a3.17,3.17,0,0,0-.64,2.08Zm-.16,2.93a1.22,1.22,0,0,1,.35-.9,1.35,1.35,0,0,1,1-.34,1.29,1.29,0,0,1,.95.35,1.21,1.21,0,0,1,.35.89,1.18,1.18,0,0,1-.34.87,1.28,1.28,0,0,1-1,.35,1.27,1.27,0,0,1-1-.35A1.22,1.22,0,0,1,306.8,409.44Z" style="fill: #fff"/>
      <path d="M313.19,394.67h3.88v18.94h-3.88v-1.79h1.58V396.47h-1.58Z" style="fill: #fff"/>
      <path d="M324,405.1a14,14,0,0,1-.58,4,11.26,11.26,0,0,1-1.75,3.56,6.85,6.85,0,0,1-2.45,2.22l-.45-1.28A7.31,7.31,0,0,0,321,410.3a15,15,0,0,0,.82-5.15v-.22a15.05,15.05,0,0,0-.72-4.79,8.42,8.42,0,0,0-2.06-3.47l-.29-.26.45-1.29a6.74,6.74,0,0,1,2.35,2.08,11.19,11.19,0,0,1,1.74,3.34,14.13,14.13,0,0,1,.68,3.82Z" style="fill: #fff"/>
    </g>
    <g>
      <path d="M480,361.22h-5l-.94,2.83h-3l5.12-13.77h2.63L484,364.05h-3Zm-4.21-2.3h3.44l-1.73-5.16Z" style="fill: #fff"/>
      <path d="M491,364.05a3,3,0,0,1-.28-.91,3.29,3.29,0,0,1-2.58,1.1,3.63,3.63,0,0,1-2.49-.87,2.79,2.79,0,0,1-1-2.19,2.88,2.88,0,0,1,1.21-2.5,6,6,0,0,1,3.48-.88h1.26v-.58a1.65,1.65,0,0,0-.37-1.14,1.43,1.43,0,0,0-1.15-.42A1.62,1.62,0,0,0,488,356a1.12,1.12,0,0,0-.39.9h-2.73a2.75,2.75,0,0,1,.54-1.64,3.66,3.66,0,0,1,1.56-1.19,5.54,5.54,0,0,1,2.25-.43,4.48,4.48,0,0,1,3,.95,3.34,3.34,0,0,1,1.11,2.67v4.44a4.83,4.83,0,0,0,.41,2.2v.16Zm-2.26-1.9a2.34,2.34,0,0,0,1.11-.27,1.83,1.83,0,0,0,.76-.72V359.4h-1c-1.37,0-2.1.47-2.19,1.42V361a1.09,1.09,0,0,0,.36.84A1.41,1.41,0,0,0,488.73,362.15Z" style="fill: #fff"/>
      <path d="M495.62,364.05V350.28h4.83a6.34,6.34,0,0,1,3.8,1,3.29,3.29,0,0,1,1.29,2.82,3.08,3.08,0,0,1-.52,1.78,3,3,0,0,1-1.44,1.13,2.94,2.94,0,0,1,1.67,1.07,3.21,3.21,0,0,1,.61,2,3.64,3.64,0,0,1-1.27,3,5.65,5.65,0,0,1-3.62,1Zm2.84-8h2.1c1.43,0,2.15-.59,2.15-1.71a1.61,1.61,0,0,0-.55-1.35,2.87,2.87,0,0,0-1.71-.41h-2Zm0,2v3.72h2.43a2.36,2.36,0,0,0,1.57-.48A1.66,1.66,0,0,0,503,360a1.73,1.73,0,0,0-2-1.92Z" style="fill: #fff"/>
      <path d="M517,359a6.22,6.22,0,0,1-1,3.84,3.47,3.47,0,0,1-2.94,1.37,3.18,3.18,0,0,1-2.65-1.27l-.13,1.08H507.8V349.53h2.74v5.21a3.11,3.11,0,0,1,2.49-1.11A3.5,3.5,0,0,1,516,355a6.21,6.21,0,0,1,1.07,3.87Zm-2.74-.2a4,4,0,0,0-.49-2.26,1.67,1.67,0,0,0-1.47-.72,1.8,1.8,0,0,0-1.79,1.07v4a1.82,1.82,0,0,0,1.81,1.08,1.68,1.68,0,0,0,1.74-1.31A6.42,6.42,0,0,0,514.29,358.83Z" style="fill: #fff"/>
      <path d="M529.7,359.47a4.87,4.87,0,0,1-1.64,3.5,5.78,5.78,0,0,1-3.9,1.27,5.17,5.17,0,0,1-4.17-1.78,7.32,7.32,0,0,1-1.52-4.89v-.85a8.38,8.38,0,0,1,.7-3.5,5.36,5.36,0,0,1,2-2.32,6.25,6.25,0,0,1,6.87.47,5.24,5.24,0,0,1,1.68,3.59h-2.84a2.87,2.87,0,0,0-.74-1.94,2.75,2.75,0,0,0-1.94-.6,2.42,2.42,0,0,0-2.13,1,5.68,5.68,0,0,0-.72,3.15v1a6,6,0,0,0,.68,3.27,2.38,2.38,0,0,0,2.13,1,2.79,2.79,0,0,0,2-.6,2.71,2.71,0,0,0,.74-1.86Z" style="fill: #fff"/>
      <path d="M535.64,362a1.77,1.77,0,0,0,1.23-.42,1.41,1.41,0,0,0,.49-1.1h2.57a3.53,3.53,0,0,1-.57,1.9,3.72,3.72,0,0,1-1.53,1.35,4.9,4.9,0,0,1-2.14.47,4.43,4.43,0,0,1-3.46-1.39A5.51,5.51,0,0,1,531,359v-.18a5.45,5.45,0,0,1,1.26-3.77,4.39,4.39,0,0,1,3.45-1.41,4.34,4.34,0,0,1,3.08,1.09,3.91,3.91,0,0,1,1.18,2.91h-2.57a1.87,1.87,0,0,0-.49-1.3,1.84,1.84,0,0,0-2.69.2,4.09,4.09,0,0,0-.49,2.26v.28a4.11,4.11,0,0,0,.48,2.28A1.69,1.69,0,0,0,535.64,362Z" style="fill: #fff"/>
      <path d="M541.67,364.05V350.28h4.23a6.48,6.48,0,0,1,3.25.82,5.72,5.72,0,0,1,2.24,2.33,7.12,7.12,0,0,1,.8,3.43v.63a7.19,7.19,0,0,1-.79,3.42,5.68,5.68,0,0,1-2.22,2.31,6.41,6.41,0,0,1-3.25.83Zm2.83-11.47v9.2h1.37a3.1,3.1,0,0,0,2.55-1.09,4.88,4.88,0,0,0,.9-3.11v-.73a5,5,0,0,0-.87-3.19,3.08,3.08,0,0,0-2.55-1.08Z" style="fill: #fff"/>
      <path d="M553.65,358.86a6.22,6.22,0,0,1,1.07-3.81,3.49,3.49,0,0,1,2.94-1.42,3.12,3.12,0,0,1,2.47,1.12v-5.22h2.74v14.52H560.4l-.13-1.08a3.22,3.22,0,0,1-2.63,1.27,3.48,3.48,0,0,1-2.9-1.42A6.36,6.36,0,0,1,553.65,358.86Zm2.73.21a4,4,0,0,0,.51,2.2,1.63,1.63,0,0,0,1.45.77,1.84,1.84,0,0,0,1.79-1.07v-4.05a1.81,1.81,0,0,0-1.77-1.07C557,355.85,556.38,356.92,556.38,359.07Z" style="fill: #fff"/>
      <path d="M573.46,358.09H568v3.69h6.39v2.27h-9.23V350.28h9.21v2.3H568v3.28h5.45Z" style="fill: #fff"/>
      <path d="M580.42,364.24a5.05,5.05,0,0,1-3.67-1.38,4.9,4.9,0,0,1-1.41-3.68v-.26a6.15,6.15,0,0,1,.6-2.76,4.37,4.37,0,0,1,1.68-1.87,4.74,4.74,0,0,1,2.5-.66,4.21,4.21,0,0,1,3.3,1.33,5.34,5.34,0,0,1,1.21,3.75v1.12h-6.52a2.54,2.54,0,0,0,.8,1.6,2.39,2.39,0,0,0,1.69.61,3,3,0,0,0,2.47-1.14l1.34,1.5a4.14,4.14,0,0,1-1.66,1.36A5.55,5.55,0,0,1,580.42,364.24Zm-.31-8.4a1.68,1.68,0,0,0-1.32.55,2.77,2.77,0,0,0-.65,1.57h3.8v-.22a2.07,2.07,0,0,0-.49-1.41A1.77,1.77,0,0,0,580.11,355.84Z" style="fill: #fff"/>
      <path d="M594.64,358.43H589.2v5.62h-2.84V350.28h9v2.3H589.2v3.56h5.44Z" style="fill: #fff"/>
      <path d="M597.54,364.05v-8.22H596v-2h1.52V353a3.52,3.52,0,0,1,1-2.67,3.79,3.79,0,0,1,2.76-.95,6.09,6.09,0,0,1,1.39.19l0,2.12a3.37,3.37,0,0,0-.84-.09c-1,0-1.54.48-1.54,1.45v.82h2v2h-2v8.22Z" style="fill: #fff"/>
      <path d="M614.81,362.31a4.86,4.86,0,0,1-2.17,1.43,9,9,0,0,1-3.1.5,6.11,6.11,0,0,1-3.13-.78,5.13,5.13,0,0,1-2.08-2.26,8.08,8.08,0,0,1-.76-3.49v-.94a8.55,8.55,0,0,1,.7-3.57,5.21,5.21,0,0,1,2-2.31,5.83,5.83,0,0,1,3.07-.8,5.73,5.73,0,0,1,3.83,1.17,5,5,0,0,1,1.64,3.4h-2.76a2.78,2.78,0,0,0-.84-1.73,2.69,2.69,0,0,0-1.78-.55,2.54,2.54,0,0,0-2.21,1.09,5.72,5.72,0,0,0-.76,3.24v.88a5.44,5.44,0,0,0,.82,3.27,2.8,2.8,0,0,0,2.41,1.1,3.11,3.11,0,0,0,2.28-.68v-2.37h-2.58v-2.09h5.42Z" style="fill: #fff"/>
      <path d="M616.53,358.86a6,6,0,0,1,1.12-3.79,3.64,3.64,0,0,1,3-1.44,3.17,3.17,0,0,1,2.62,1.16l.12-1h2.48v9.89a4.43,4.43,0,0,1-.61,2.34,3.9,3.9,0,0,1-1.72,1.51,6,6,0,0,1-2.59.52,5.66,5.66,0,0,1-2.2-.45,3.78,3.78,0,0,1-1.61-1.15l1.21-1.67a3.2,3.2,0,0,0,2.47,1.15,2.36,2.36,0,0,0,1.7-.59,2.17,2.17,0,0,0,.6-1.65v-.54a3.16,3.16,0,0,1-2.48,1.06,3.64,3.64,0,0,1-3-1.44,6,6,0,0,1-1.14-3.82Zm2.73.21a3.76,3.76,0,0,0,.56,2.18,1.79,1.79,0,0,0,1.54.79,1.88,1.88,0,0,0,1.78-.94v-4.31a1.89,1.89,0,0,0-1.77-.94,1.77,1.77,0,0,0-1.54.81A4.18,4.18,0,0,0,619.26,359.07Z" style="fill: #fff"/>
      <path d="M639.37,364.05h-2.83v-5.9H631v5.9h-2.83V350.28H631v5.58h5.54v-5.58h2.83Z" style="fill: #fff"/>
      <path d="M644.34,354.94a3.43,3.43,0,0,1,2.73-1.31q3.33,0,3.38,3.87v6.55h-2.73v-6.47a1.9,1.9,0,0,0-.38-1.3,1.59,1.59,0,0,0-1.26-.43,1.86,1.86,0,0,0-1.74.93v7.27h-2.73V349.53h2.73Z" style="fill: #fff"/>
      <path d="M655.71,364.05h-2.84V350.28h2.84Z" style="fill: #fff"/>
      <path d="M658.14,351.17a1.35,1.35,0,0,1,.41-1,1.77,1.77,0,0,1,2.24,0,1.32,1.32,0,0,1,.42,1,1.33,1.33,0,0,1-.43,1,1.74,1.74,0,0,1-2.22,0A1.33,1.33,0,0,1,658.14,351.17Zm2.9,12.88H658.3V353.82H661Z" style="fill: #fff"/>
      <path d="M669,350.28h2.84v9.54a4.55,4.55,0,0,1-.59,2.32,3.92,3.92,0,0,1-1.64,1.56,5.16,5.16,0,0,1-2.39.54,4.89,4.89,0,0,1-3.41-1.11,4,4,0,0,1-1.22-3.14h2.86a2.17,2.17,0,0,0,.43,1.49,1.7,1.7,0,0,0,1.34.48,1.65,1.65,0,0,0,1.3-.55,2.4,2.4,0,0,0,.48-1.59Z" style="fill: #fff"/>
      <path d="M677,353.82v10.79a3.67,3.67,0,0,1-.9,2.64,3.44,3.44,0,0,1-2.59.94,5.94,5.94,0,0,1-1.35-.16v-2.17a4.84,4.84,0,0,0,.86.09c.82,0,1.24-.44,1.24-1.32V353.82Zm-3-2.65a1.35,1.35,0,0,1,.41-1,1.58,1.58,0,0,1,1.12-.4,1.55,1.55,0,0,1,1.12.4,1.31,1.31,0,0,1,.41,1,1.33,1.33,0,0,1-.42,1,1.74,1.74,0,0,1-2.22,0A1.33,1.33,0,0,1,674.05,351.17Z" style="fill: #fff"/>
      <path d="M683.64,358.53l-1.47,1.59v3.93h-2.84V350.28h2.84v6.25l1.24-1.72,3.51-4.53h3.49l-4.89,6.12,5,7.65h-3.38Z" style="fill: #fff"/>
      <path d="M695.16,360l-1,1v3.12h-2.74V349.53h2.74v8.05l.53-.69,2.62-3.07h3.28l-3.7,4.27,4,6h-3.14Z" style="fill: #fff"/>
      <path d="M704.81,361.78h6v2.27H702V350.28h2.84Z" style="fill: #fff"/>
      <path d="M715.17,364.05h-2.75V349.53h2.75Z" style="fill: #fff"/>
      <path d="M721.31,350.28l3.53,10,3.52-10h3.73v13.77h-2.85v-3.76l.29-6.5-3.72,10.26h-1.95l-3.71-10.25.29,6.49v3.76H717.6V350.28Z" style="fill: #fff"/>
      <path d="M737,353.82,737,355a3.6,3.6,0,0,1,2.94-1.33,2.73,2.73,0,0,1,2.71,1.56,3.53,3.53,0,0,1,3.08-1.56,3,3,0,0,1,2.47,1,4.42,4.42,0,0,1,.82,2.92v6.53h-2.75v-6.52a1.91,1.91,0,0,0-.34-1.27,1.48,1.48,0,0,0-1.2-.41,1.71,1.71,0,0,0-1.7,1.18v7h-2.73v-6.51a2,2,0,0,0-.35-1.29,1.56,1.56,0,0,0-1.2-.4,1.78,1.78,0,0,0-1.68,1v7.23h-2.73V353.82Z" style="fill: #fff"/>
      <path d="M762.54,364.05H759.7L754.17,355v9.06h-2.83V350.28h2.83l5.54,9.08v-9.08h2.83Z" style="fill: #fff"/>
      <path d="M474.54,377.07l.08,1.18a3.55,3.55,0,0,1,2.94-1.37,3,3,0,0,1,2.43.95,4.45,4.45,0,0,1,.81,2.86v6.61h-2.73v-6.54a1.8,1.8,0,0,0-.38-1.27,1.7,1.7,0,0,0-1.26-.39,1.88,1.88,0,0,0-1.73,1v7.22H472V377.07Z" style="fill: #fff"/>
      <path d="M494.36,380.73a8.29,8.29,0,0,1-.72,3.56,5.41,5.41,0,0,1-2.05,2.37,6.11,6.11,0,0,1-6.13,0,5.54,5.54,0,0,1-2.08-2.35,8.17,8.17,0,0,1-.75-3.52v-.68a8.27,8.27,0,0,1,.74-3.58,5.46,5.46,0,0,1,2.07-2.37,6.06,6.06,0,0,1,6.12,0,5.46,5.46,0,0,1,2.07,2.37,8.22,8.22,0,0,1,.73,3.57Zm-2.87-.63a5.77,5.77,0,0,0-.78-3.29,2.51,2.51,0,0,0-2.21-1.12,2.55,2.55,0,0,0-2.21,1.11,5.8,5.8,0,0,0-.78,3.26v.67a5.86,5.86,0,0,0,.78,3.27,2.71,2.71,0,0,0,4.42,0,5.86,5.86,0,0,0,.78-3.27Z" style="fill: #fff"/>
      <path d="M495.82,382.09a6,6,0,0,1,.59-2.72,4.28,4.28,0,0,1,1.68-1.84,4.9,4.9,0,0,1,2.56-.65,4.67,4.67,0,0,1,3.38,1.26,5.13,5.13,0,0,1,1.47,3.45v.7a5.34,5.34,0,0,1-1.31,3.78,5.1,5.1,0,0,1-7.06,0,5.43,5.43,0,0,1-1.32-3.86Zm2.73.19a3.84,3.84,0,0,0,.55,2.23,2,2,0,0,0,3.12,0,4.2,4.2,0,0,0,.56-2.44,3.78,3.78,0,0,0-.56-2.21,1.94,1.94,0,0,0-3.12,0A4.3,4.3,0,0,0,498.55,382.28Z" style="fill: #fff"/>
      <path d="M510.22,382.45v4.85h-2.84V373.53h5.37a6.2,6.2,0,0,1,2.73.57,4.12,4.12,0,0,1,1.81,1.61,4.53,4.53,0,0,1,.63,2.38,4,4,0,0,1-1.38,3.19,5.76,5.76,0,0,1-3.84,1.17Zm0-2.3h2.53a2.53,2.53,0,0,0,1.72-.53,1.94,1.94,0,0,0,.59-1.51,2.27,2.27,0,0,0-.6-1.64,2.17,2.17,0,0,0-1.64-.64h-2.6Z" style="fill: #fff"/>
      <path d="M528.91,382.28a6.13,6.13,0,0,1-1.08,3.79,3.43,3.43,0,0,1-2.9,1.42,3.17,3.17,0,0,1-2.5-1.08v4.83h-2.74V377.07h2.54l.09,1a3.22,3.22,0,0,1,2.6-1.19,3.45,3.45,0,0,1,2.94,1.4,6.3,6.3,0,0,1,1,3.86Zm-2.74-.2a4.07,4.07,0,0,0-.5-2.2,1.65,1.65,0,0,0-1.47-.78,1.79,1.79,0,0,0-1.77,1v4.19a1.81,1.81,0,0,0,1.78,1C525.52,385.29,526.17,384.22,526.17,382.08Z" style="fill: #fff"/>
      <path d="M542.07,380.73a8.24,8.24,0,0,1-.62,3.35,5.72,5.72,0,0,1-1.73,2.28l2.29,1.8-1.81,1.6-2.93-2.36a5.92,5.92,0,0,1-1,.09,5.75,5.75,0,0,1-3.06-.82,5.54,5.54,0,0,1-2.08-2.35,8.17,8.17,0,0,1-.75-3.52v-.68a8.27,8.27,0,0,1,.74-3.58,5.46,5.46,0,0,1,2.07-2.37,6.06,6.06,0,0,1,6.12,0,5.46,5.46,0,0,1,2.07,2.37,8.22,8.22,0,0,1,.73,3.57Zm-2.87-.63a5.77,5.77,0,0,0-.78-3.29,2.51,2.51,0,0,0-2.21-1.12A2.55,2.55,0,0,0,534,376.8a5.8,5.8,0,0,0-.78,3.26v.67A5.86,5.86,0,0,0,534,384a2.71,2.71,0,0,0,4.42,0,5.86,5.86,0,0,0,.78-3.27Z" style="fill: #fff"/>
      <path d="M543.55,382.09a6.14,6.14,0,0,1,1.07-3.81,3.5,3.5,0,0,1,3-1.4,3.14,3.14,0,0,1,2.62,1.26l.18-1.07h2.4v14.17H550v-4.82a3.17,3.17,0,0,1-2.48,1.07,3.46,3.46,0,0,1-2.91-1.42A6.37,6.37,0,0,1,543.55,382.09Zm2.73.19a4,4,0,0,0,.52,2.24,1.64,1.64,0,0,0,1.45.77,1.85,1.85,0,0,0,1.78-1v-4.23a1.82,1.82,0,0,0-1.76-1,1.69,1.69,0,0,0-1.47.77A4.48,4.48,0,0,0,546.28,382.28Z" style="fill: #fff"/>
      <path d="M560.2,382.26h-2.26v5H555.1V373.53h5.11a5.76,5.76,0,0,1,3.77,1.09,3.75,3.75,0,0,1,1.32,3.07,4.21,4.21,0,0,1-.61,2.35,4.08,4.08,0,0,1-1.85,1.5l3,5.63v.13h-3Zm-2.26-2.3h2.28a2.35,2.35,0,0,0,1.66-.54,2,2,0,0,0,.59-1.5,2.07,2.07,0,0,0-.56-1.53,2.26,2.26,0,0,0-1.7-.56h-2.27Z" style="fill: #fff"/>
      <path d="M573,379.63a7.55,7.55,0,0,0-1-.08,2,2,0,0,0-2,1.05v6.7h-2.73V377.07h2.58l.08,1.22a2.54,2.54,0,0,1,2.28-1.41,3,3,0,0,1,.85.12Z" style="fill: #fff"/>
      <path d="M581.67,383.69a1.46,1.46,0,0,0-.57-1.24,7.75,7.75,0,0,0-2-.91,13.39,13.39,0,0,1-2.34-.94,3.82,3.82,0,0,1-2.35-3.41,3.32,3.32,0,0,1,.63-2,4.06,4.06,0,0,1,1.81-1.37,6.75,6.75,0,0,1,2.64-.49,6.27,6.27,0,0,1,2.63.53,4.17,4.17,0,0,1,1.79,1.51,3.93,3.93,0,0,1,.64,2.22h-2.83a1.85,1.85,0,0,0-.6-1.47,2.46,2.46,0,0,0-1.67-.53,2.62,2.62,0,0,0-1.62.44,1.37,1.37,0,0,0-.58,1.16,1.32,1.32,0,0,0,.68,1.12,7.47,7.47,0,0,0,2,.86,8.57,8.57,0,0,1,3.53,1.8,3.6,3.6,0,0,1,1.1,2.69,3.3,3.3,0,0,1-1.35,2.8,5.89,5.89,0,0,1-3.64,1,7.05,7.05,0,0,1-2.9-.58,4.58,4.58,0,0,1-2-1.6A4.1,4.1,0,0,1,574,383h2.85c0,1.52.9,2.28,2.72,2.28a2.7,2.7,0,0,0,1.58-.41A1.35,1.35,0,0,0,581.67,383.69Z" style="fill: #fff"/>
      <path d="M591.8,384.47a.9.9,0,0,0-.5-.79,5.67,5.67,0,0,0-1.59-.51c-2.44-.51-3.65-1.55-3.65-3.11a2.8,2.8,0,0,1,1.13-2.27,4.52,4.52,0,0,1,2.95-.91,4.93,4.93,0,0,1,3.12.91,2.91,2.91,0,0,1,1.17,2.39h-2.74a1.29,1.29,0,0,0-.38-1,1.57,1.57,0,0,0-1.18-.38,1.64,1.64,0,0,0-1.07.31,1,1,0,0,0-.38.79.86.86,0,0,0,.44.74,4.63,4.63,0,0,0,1.45.48,11.32,11.32,0,0,1,1.72.46,2.83,2.83,0,0,1,2.17,2.75,2.67,2.67,0,0,1-1.21,2.26,5.15,5.15,0,0,1-3.1.87,5.31,5.31,0,0,1-2.28-.46,3.73,3.73,0,0,1-1.57-1.26,2.91,2.91,0,0,1-.57-1.72h2.6a1.41,1.41,0,0,0,.53,1.11,2.16,2.16,0,0,0,1.35.39,1.94,1.94,0,0,0,1.18-.3A.93.93,0,0,0,591.8,384.47Z" style="fill: #fff"/>
      <path d="M606.76,375.83h-4.22V387.3H599.7V375.83h-4.16v-2.3h11.22Z" style="fill: #fff"/>
      <path d="M611.47,374.55v2.52h1.75v2h-1.75v5.11a1.17,1.17,0,0,0,.22.81,1.05,1.05,0,0,0,.83.25,4,4,0,0,0,.81-.07v2.07a5.48,5.48,0,0,1-1.66.25,2.61,2.61,0,0,1-2.93-2.9v-5.52h-1.5v-2h1.5v-2.52Z" style="fill: #fff"/>
      <path d="M625.35,373.53v9.07a4.6,4.6,0,0,1-1.42,3.57,5.43,5.43,0,0,1-3.86,1.32,5.5,5.5,0,0,1-3.83-1.28,4.55,4.55,0,0,1-1.45-3.51v-9.17h2.84v9.09a2.59,2.59,0,0,0,.65,2,2.5,2.5,0,0,0,1.79.62q2.4,0,2.43-2.52v-9.16Z" style="fill: #fff"/>
      <path d="M633.62,386.26a3.41,3.41,0,0,1-2.8,1.23,3.25,3.25,0,0,1-2.51-.95,4,4,0,0,1-.88-2.77v-6.7h2.73v6.62c0,1.06.49,1.6,1.46,1.6a2,2,0,0,0,1.91-1v-7.25h2.74V387.3H633.7Z" style="fill: #fff"/>
      <path d="M643.6,383.89l3.12-10.36h3.16l-4.79,13.77h-3l-4.78-13.77h3.15Z" style="fill: #fff"/>
      <path d="M654.73,384l1.9-6.89h2.85L656,387.3h-2.61L650,377.07h2.86Z" style="fill: #fff"/>
      <path d="M671.59,383.33l1.85-9.8h2.83l-3,13.77h-2.86l-2.24-9.21-2.24,9.21H663l-3-13.77h2.82l1.87,9.78,2.27-9.78h2.4Z" style="fill: #fff"/>
      <path d="M686.53,383.58l1.34-6.51h2.64L687.9,387.3h-2.29l-1.94-6.44-1.94,6.44h-2.28l-2.61-10.23h2.64l1.33,6.5,1.88-6.5h2Z" style="fill: #fff"/>
      <path d="M697,378.28l2.58-4.75h3.26l-4,6.83,4.12,6.94h-3.3L697,382.48l-2.65,4.82H691l4.11-6.94-4-6.83h3.27Z" style="fill: #fff"/>
      <path d="M708.06,380.12l1.72-3.05h2.93l-2.92,5,3,5.22H709.9l-1.83-3.22-1.81,3.22h-3l3-5.22-2.9-5h2.93Z" style="fill: #fff"/>
      <path d="M719,379.73l2.87-6.2h3.1l-4.52,8.78v5h-2.89v-5L713,373.53h3.11Z" style="fill: #fff"/>
      <path d="M729.63,383.43l1.89-6.36h2.93l-4.11,11.82-.23.54a3.11,3.11,0,0,1-3,2,4.33,4.33,0,0,1-1.21-.18v-2.07h.42a2.35,2.35,0,0,0,1.16-.23,1.62,1.62,0,0,0,.6-.79l.32-.84-3.58-10.26h2.94Z" style="fill: #fff"/>
      <path d="M738.72,385h6.94v2.28H735.17v-1.66l6.81-9.81h-6.8v-2.3h10.33v1.63Z" style="fill: #fff"/>
      <path d="M750.41,385.1h5v2.2h-8.49v-1.66l4.81-6.37h-4.67v-2.2h8.2v1.61Z" style="fill: #fff"/>
      <path d="M478.55,410.55h-2.74V400l-3.26,1V398.8l5.7-2h.3Z" style="fill: #fff"/>
      <path d="M492.46,410.55H483v-1.88l4.46-4.74a11.23,11.23,0,0,0,1.35-1.75,2.78,2.78,0,0,0,.44-1.42,2.1,2.1,0,0,0-.46-1.45,1.67,1.67,0,0,0-1.32-.52,1.78,1.78,0,0,0-1.46.64,2.49,2.49,0,0,0-.54,1.68h-2.74a4.51,4.51,0,0,1,.6-2.3,4.11,4.11,0,0,1,1.7-1.63,5.08,5.08,0,0,1,2.48-.59,4.91,4.91,0,0,1,3.31,1,3.62,3.62,0,0,1,1.18,2.88,4.65,4.65,0,0,1-.53,2.08,11.68,11.68,0,0,1-1.82,2.47l-3.13,3.3h5.92Z" style="fill: #fff"/>
      <path d="M496.92,402.45h1.45a2.06,2.06,0,0,0,1.55-.52,1.93,1.93,0,0,0,.5-1.38,1.69,1.69,0,0,0-.5-1.3,1.93,1.93,0,0,0-1.37-.46,2,2,0,0,0-1.31.43,1.36,1.36,0,0,0-.53,1.12H494a3.34,3.34,0,0,1,.59-1.93,3.85,3.85,0,0,1,1.62-1.34,5.49,5.49,0,0,1,2.31-.48,5.14,5.14,0,0,1,3.42,1,3.56,3.56,0,0,1,1.24,2.88,2.87,2.87,0,0,1-.58,1.74,3.7,3.7,0,0,1-1.51,1.22,3.41,3.41,0,0,1,1.73,1.25,3.32,3.32,0,0,1,.58,2,3.64,3.64,0,0,1-1.34,2.94,5.36,5.36,0,0,1-3.54,1.11,5.16,5.16,0,0,1-3.38-1.09,3.58,3.58,0,0,1-1.31-2.88h2.74a1.58,1.58,0,0,0,.58,1.27,2.14,2.14,0,0,0,1.43.49,2.18,2.18,0,0,0,1.53-.51,1.79,1.79,0,0,0,.55-1.37c0-1.38-.75-2.06-2.27-2.06h-1.44Z" style="fill: #fff"/>
      <path d="M513.34,405.36h1.56v2.21h-1.56v3H510.6v-3H505l-.13-1.72,5.75-9.08h2.76Zm-5.78,0h3V400.5l-.18.31Z" style="fill: #fff"/>
      <path d="M516.77,403.77l.8-7h7.71v2.28h-5.47l-.34,3a4.41,4.41,0,0,1,2.07-.52,4,4,0,0,1,3.08,1.22,4.88,4.88,0,0,1,1.12,3.42,5,5,0,0,1-.57,2.39,3.89,3.89,0,0,1-1.61,1.63,5,5,0,0,1-2.48.59,5.28,5.28,0,0,1-2.31-.51,4.07,4.07,0,0,1-1.69-1.42,4,4,0,0,1-.66-2.09h2.71a1.93,1.93,0,0,0,.6,1.33,1.88,1.88,0,0,0,1.34.48,1.66,1.66,0,0,0,1.43-.67A3,3,0,0,0,523,406a2.59,2.59,0,0,0-.57-1.8,2.11,2.11,0,0,0-1.64-.62,2.36,2.36,0,0,0-1.58.51l-.26.24Z" style="fill: #fff"/>
      <path d="M534.89,396.63v2.25h-.26a4.64,4.64,0,0,0-3,1,3.91,3.91,0,0,0-1.35,2.6,3.73,3.73,0,0,1,2.77-1.12,3.51,3.51,0,0,1,2.86,1.29A5.2,5.2,0,0,1,537,406a5.07,5.07,0,0,1-.58,2.43,4.11,4.11,0,0,1-1.64,1.69,4.82,4.82,0,0,1-2.41.61,4.46,4.46,0,0,1-3.51-1.52,5.83,5.83,0,0,1-1.34-4v-1a8.94,8.94,0,0,1,.84-4,6.28,6.28,0,0,1,2.44-2.66,7.21,7.21,0,0,1,3.67-.95Zm-2.66,6.91a2.16,2.16,0,0,0-1.2.34,2.13,2.13,0,0,0-.8.91v.83a3.66,3.66,0,0,0,.54,2.14,1.72,1.72,0,0,0,1.51.77,1.74,1.74,0,0,0,1.43-.69,2.84,2.84,0,0,0,.54-1.8,2.79,2.79,0,0,0-.55-1.81A1.78,1.78,0,0,0,532.23,403.54Z" style="fill: #fff"/>
      <path d="M548,398.3l-5.33,12.25h-2.88L545.08,399h-6.85v-2.21H548Z" style="fill: #fff"/>
      <path d="M558.68,400.43a3.22,3.22,0,0,1-.5,1.78,3.54,3.54,0,0,1-1.38,1.24,4,4,0,0,1,1.59,1.33,3.43,3.43,0,0,1,.59,2,3.61,3.61,0,0,1-1.25,2.9,5.94,5.94,0,0,1-6.8,0,3.62,3.62,0,0,1-1.26-2.9,3.41,3.41,0,0,1,.58-2,4,4,0,0,1,1.58-1.33,3.58,3.58,0,0,1-1.37-1.24,3.22,3.22,0,0,1-.5-1.78,3.57,3.57,0,0,1,1.17-2.8,5.42,5.42,0,0,1,6.37,0A3.54,3.54,0,0,1,558.68,400.43Zm-2.45,6.14a2,2,0,0,0-.52-1.43,2.09,2.09,0,0,0-2.79,0,2,2,0,0,0-.52,1.44,2,2,0,0,0,.51,1.42,2.14,2.14,0,0,0,2.82,0A2,2,0,0,0,556.23,406.57Zm-.28-6a1.85,1.85,0,0,0-.43-1.29,1.48,1.48,0,0,0-1.2-.49,1.53,1.53,0,0,0-1.19.47,1.91,1.91,0,0,0-.43,1.31,2,2,0,0,0,.43,1.32,1.69,1.69,0,0,0,2.4,0A2,2,0,0,0,556,400.57Z" style="fill: #fff"/>
      <path d="M567.21,405a3.44,3.44,0,0,1-2.49,1,3.73,3.73,0,0,1-2.93-1.25,5,5,0,0,1-1.09-3.38,5.23,5.23,0,0,1,.59-2.49,4.31,4.31,0,0,1,1.65-1.76,4.57,4.57,0,0,1,2.38-.62,4.31,4.31,0,0,1,2.42.68,4.42,4.42,0,0,1,1.65,2,7.16,7.16,0,0,1,.6,2.93v1a7.93,7.93,0,0,1-1.72,5.41,6.48,6.48,0,0,1-4.85,2.1h-.67V408.4h.61C565.73,408.28,567,407.17,567.21,405Zm-1.82-1a1.9,1.9,0,0,0,1.14-.34,2.24,2.24,0,0,0,.72-.82v-1.13a3.67,3.67,0,0,0-.53-2.15,1.62,1.62,0,0,0-1.42-.77,1.59,1.59,0,0,0-1.35.75,3.22,3.22,0,0,0-.53,1.89,3.09,3.09,0,0,0,.52,1.85A1.67,1.67,0,0,0,565.39,404Z" style="fill: #fff"/>
      <path d="M581.2,404.85a7,7,0,0,1-1.18,4.37,4.71,4.71,0,0,1-6.9,0A6.75,6.75,0,0,1,571.9,405v-2.53a6.89,6.89,0,0,1,1.19-4.38,4.74,4.74,0,0,1,6.89,0,6.7,6.7,0,0,1,1.22,4.25Zm-2.73-2.78a5.07,5.07,0,0,0-.47-2.5,1.58,1.58,0,0,0-1.46-.78,1.55,1.55,0,0,0-1.42.74,4.7,4.7,0,0,0-.49,2.33v3.35a5.21,5.21,0,0,0,.46,2.5,1.73,1.73,0,0,0,2.92,0,5.26,5.26,0,0,0,.46-2.41Z" style="fill: #fff"/>
      <path d="M588.42,406.67h-1.83l-.68,3.88h-1.73l.68-3.88h-2.14V405h2.43l.47-2.68h-2.19v-1.65h2.48l.69-3.94h1.73l-.7,3.94h1.84l.69-3.94h1.73l-.69,3.94h2.07v1.65h-2.36l-.48,2.68h2.12v1.63h-2.4l-.68,3.88h-1.73ZM586.88,405h1.82l.48-2.68h-1.84Z" style="fill: #fff"/>
      <path d="M600.22,402.84h3.41v2.47h-3.41v3.86h-2.61v-3.86h-3.42v-2.47h3.42v-3.7h2.61Z" style="fill: #fff"/>
      <path d="M612.85,412.68h-8.61v-2.13h8.61Z" style="fill: #fff"/>
      <path d="M629.41,405.48a6.64,6.64,0,0,1-1.19,3.84,3.51,3.51,0,0,1-2.94,1.42,2.62,2.62,0,0,1-1.4-.35,2.14,2.14,0,0,1-.9-1,2.89,2.89,0,0,1-2.47,1.33,2.39,2.39,0,0,1-2.13-1.17,4.61,4.61,0,0,1-.57-3.07,8,8,0,0,1,.79-2.78,4.94,4.94,0,0,1,1.56-1.87,3.58,3.58,0,0,1,2.05-.65,4.06,4.06,0,0,1,2.3.63l.6.4-.48,5.47a1.71,1.71,0,0,0,.16,1.14.92.92,0,0,0,.83.4,1.71,1.71,0,0,0,1.46-1,5.77,5.77,0,0,0,.64-2.67,7.06,7.06,0,0,0-1.33-5.07,5.44,5.44,0,0,0-4.41-1.78,5.81,5.81,0,0,0-3.25.93,6.31,6.31,0,0,0-2.26,2.64,10.13,10.13,0,0,0-.92,3.91,7.42,7.42,0,0,0,1.34,5.18,5.45,5.45,0,0,0,4.48,1.83A8,8,0,0,0,623,413a6.7,6.7,0,0,0,1.49-.47l.36,1.46a5.23,5.23,0,0,1-1.56.61,8.76,8.76,0,0,1-2,.23,8.34,8.34,0,0,1-4.26-1,6.15,6.15,0,0,1-2.62-3,10.45,10.45,0,0,1-.76-4.68,11.18,11.18,0,0,1,1.2-4.69,7.77,7.77,0,0,1,7.13-4.33,7.82,7.82,0,0,1,4.08,1,6.29,6.29,0,0,1,2.57,2.91A9.73,9.73,0,0,1,629.41,405.48Zm-9.5,1a3.66,3.66,0,0,0,.22,1.9,1.07,1.07,0,0,0,1,.64,1.25,1.25,0,0,0,.88-.4,3.28,3.28,0,0,0,.69-1.18l.39-4.47a2.36,2.36,0,0,0-.75-.12,1.91,1.91,0,0,0-1.69.92A6.2,6.2,0,0,0,619.91,406.48Z" style="fill: #fff"/>
      <path d="M640,403.49H631.5v-2.23H640Zm0,4.1H631.5v-2.24H640Z" style="fill: #fff"/>
      <path d="M642.19,399.42a2.7,2.7,0,0,1,.83-2.05,3,3,0,0,1,2.15-.79,3,3,0,0,1,2.18.78,2.76,2.76,0,0,1,.82,2.11v.68a2.67,2.67,0,0,1-.82,2.05,3.39,3.39,0,0,1-4.33,0,2.76,2.76,0,0,1-.83-2.11Zm1.82.73a1.26,1.26,0,0,0,.33.91,1.11,1.11,0,0,0,.85.35,1.07,1.07,0,0,0,.84-.35,1.35,1.35,0,0,0,.32-.94v-.7a1.29,1.29,0,0,0-.32-.91,1.05,1.05,0,0,0-.86-.35,1.11,1.11,0,0,0-.84.34,1.37,1.37,0,0,0-.32,1Zm1.72,9.37-1.33-.72L651.12,398l1.34.72Zm3-2.35a2.68,2.68,0,0,1,.83-2.06,3,3,0,0,1,2.16-.78,3.1,3.1,0,0,1,2.17.77,2.77,2.77,0,0,1,.82,2.13v.68a2.74,2.74,0,0,1-.81,2,3,3,0,0,1-2.17.78,3.05,3.05,0,0,1-2.18-.79,2.73,2.73,0,0,1-.82-2.08Zm1.81.74a1.32,1.32,0,0,0,.34.89,1.13,1.13,0,0,0,.85.37c.77,0,1.16-.43,1.16-1.28v-.72a1.29,1.29,0,0,0-.32-.91,1.22,1.22,0,0,0-1.71,0,1.34,1.34,0,0,0-.32.94Z" style="fill: #fff"/>
      <path d="M657.51,411.73h-2l5.07-15h2Z" style="fill: #fff"/>
      <path d="M669.46,404.67,664,402.75v-2.63l8.24,3.46v2.22L664,409.26v-2.64Z" style="fill: #fff"/>
      <path d="M674,405a14.72,14.72,0,0,1,.58-4.13,10.75,10.75,0,0,1,1.7-3.46,6.37,6.37,0,0,1,2.44-2.1l.53,1.48a6.51,6.51,0,0,0-2.15,3.16,14.52,14.52,0,0,0-.78,5v.29a15,15,0,0,0,.77,5,6.68,6.68,0,0,0,2.16,3.2l-.53,1.45a6.33,6.33,0,0,1-2.4-2,10.67,10.67,0,0,1-1.69-3.37,14.6,14.6,0,0,1-.63-4Z" style="fill: #fff"/>
      <path d="M684.86,396.63h-1.34v15h1.34v2.11h-4.08V394.52h4.08Z" style="fill: #fff"/>
      <path d="M688.3,406.33a5.52,5.52,0,0,1,.33-2.11,4.23,4.23,0,0,1,1.17-1.55,6.09,6.09,0,0,0,1.14-1.24,2,2,0,0,0,.29-1c0-1.07-.49-1.6-1.48-1.6a1.49,1.49,0,0,0-1.12.43,1.68,1.68,0,0,0-.44,1.19h-2.74a3.62,3.62,0,0,1,1.17-2.83,5.39,5.39,0,0,1,6.24-.05A3.44,3.44,0,0,1,694,400.3a3.36,3.36,0,0,1-.36,1.52,6.35,6.35,0,0,1-1.26,1.58l-.76.73a2.6,2.6,0,0,0-.83,1.62l0,.58Zm-.27,2.9a1.4,1.4,0,0,1,.43-1.05,1.69,1.69,0,0,1,2.21,0,1.42,1.42,0,0,1,.42,1.05,1.36,1.36,0,0,1-.42,1,1.71,1.71,0,0,1-2.22,0A1.36,1.36,0,0,1,688,409.23Z" style="fill: #fff"/>
      <path d="M694.78,394.52h4.09v19.23h-4.09v-2.11h1.36v-15h-1.36Z" style="fill: #fff"/>
      <path d="M705.8,405.16a13.79,13.79,0,0,1-.61,4.12,11.15,11.15,0,0,1-1.77,3.49,6.36,6.36,0,0,1-2.47,2.08l-.53-1.45a6.59,6.59,0,0,0,2.12-3.12,14.12,14.12,0,0,0,.8-4.85v-.5a14.65,14.65,0,0,0-.77-5,6.94,6.94,0,0,0-2.15-3.23l.53-1.45a6.34,6.34,0,0,1,2.43,2,10.92,10.92,0,0,1,1.77,3.41,13.72,13.72,0,0,1,.65,4Z" style="fill: #fff"/>
    </g>
  </g>
</svg>
