<svg xmlns="http://www.w3.org/2000/svg" viewBox="0 0 426 252">
  <title>material-40</title>
  <g id="Isolation_Mode" data-name="Isolation Mode">
    <g>
      <path d="M211.18,125.81a13.75,13.75,0,0,1-9.29-3q-3.55-3-3.55-8.88v-4.75a14.19,14.19,0,0,1,.55-4.25,6.74,6.74,0,0,1,2-3.08h-2.75q-4.76,0-7.05,2.2a7.8,7.8,0,0,0-2.29,5.88V146H182V109.63a15.69,15.69,0,0,1,1-5.63,13.92,13.92,0,0,1,3.05-4.75,14.86,14.86,0,0,1,5-3.29,18.19,18.19,0,0,1,7-1.25h15.09a15.21,15.21,0,0,1,5.76,1,10.27,10.27,0,0,1,3.79,2.58,9.61,9.61,0,0,1,2.08,3.71,14.94,14.94,0,0,1,.63,4.34v7.33a12.51,12.51,0,0,1-1.09,5.46,10.12,10.12,0,0,1-3,3.8,13.07,13.07,0,0,1-4.54,2.21A21.23,21.23,0,0,1,211.18,125.81Zm.59-7.34A8.31,8.31,0,0,0,217,117a5.26,5.26,0,0,0,1.83-4.38V108a6.55,6.55,0,0,0-1.37-4.16,5.33,5.33,0,0,0-4.46-1.75h-2.34a5.32,5.32,0,0,0-4.46,1.75,6.89,6.89,0,0,0-1.37,4.41v4.17a5.85,5.85,0,0,0,1.71,4.51Q208.26,118.47,211.77,118.47Z"/>
      <path d="M242,138.73a16,16,0,0,0,6-1,12.43,12.43,0,0,0,4.29-2.8,12.08,12.08,0,0,0,2.63-4.08,16.46,16.46,0,0,0,1.08-5H249a22.49,22.49,0,0,1-7-.92,9.91,9.91,0,0,1-4.34-2.67,9.76,9.76,0,0,1-2.21-4.29,23.85,23.85,0,0,1-.62-5.71,19.83,19.83,0,0,1,.91-6,15.2,15.2,0,0,1,2.67-5,12.78,12.78,0,0,1,4.38-3.46,13.72,13.72,0,0,1,6.12-1.29,15.54,15.54,0,0,1,5.3.91,11.86,11.86,0,0,1,4.46,2.88,13.85,13.85,0,0,1,3,5.13,23,23,0,0,1,1.13,7.67v5.5h7.42a1.37,1.37,0,0,1,1.37.87,7.32,7.32,0,0,1,.38,2.71,8,8,0,0,1-.38,2.84,1.37,1.37,0,0,1-1.37.92h-7.59a23.46,23.46,0,0,1-1.62,7.75A20.48,20.48,0,0,1,257,140a19.24,19.24,0,0,1-6.25,4.38,20,20,0,0,1-8.17,1.62h-8.67l-.5-7.25Zm-.75-26.93q0,3.58,1.71,5.13c1.14,1,3.34,1.54,6.63,1.54h6.58V113.3c0-3.5-.68-6-2-7.54a7.25,7.25,0,0,0-5.71-2.3,6.58,6.58,0,0,0-5.3,2.21A9.2,9.2,0,0,0,241.28,111.8Z"/>
      <path d="M277.79,118.47a6.69,6.69,0,0,0,4.71-1.58,5.85,5.85,0,0,0,1.71-4.51V101.71h6.84v11q0,6.33-3.38,9.71t-9.38,3.38h-8.08a1.44,1.44,0,0,1-1.46-.88,7,7,0,0,1-.38-2.63,8.23,8.23,0,0,1,.38-2.91,1.43,1.43,0,0,1,1.46-.92Zm.17,23.84h-7.42v-7H278Zm11.34,0H282v-7h7.34Z"/>
      <path d="M316.39,118.47q3.33,0,4.67-1.42a4.11,4.11,0,0,0,1.34-2.75,9,9,0,0,0-.3-2c-.19-.83-.57-2.11-1.12-3.84s-1.36-4-2.42-7-2.42-6.71-4.08-11.38l6.5-2.66,8.75,24.76a11.42,11.42,0,0,0,2.75,4.83,6.78,6.78,0,0,0,4.67,1.42h1.09c1.22,0,1.83,1.2,1.83,3.58s-.61,3.76-1.83,3.76h-1.09a14.45,14.45,0,0,1-5.29-1,10.06,10.06,0,0,1-4.63-4.42,9.32,9.32,0,0,1-4.38,4.29,14.33,14.33,0,0,1-5.71,1.13H299.22l-.42-7.34Z"/>
      <path d="M339.32,118.47q6.33,0,6.33-5.34v-2.58q0-7.08,3.71-11.21t10.3-4.13a14.9,14.9,0,0,1,6,1.12A12.19,12.19,0,0,1,370,99.46a13,13,0,0,1,2.62,4.79,20.27,20.27,0,0,1,.88,6.13q0,7.34-3.75,11.38t-10.34,4a16,16,0,0,1-6.38-1.3,9.46,9.46,0,0,1-4.71-4.37,9.57,9.57,0,0,1-1.83,2.87,9.28,9.28,0,0,1-2.25,1.75,7.8,7.8,0,0,1-2.46.84,15.33,15.33,0,0,1-2.46.21h-1.09a1.46,1.46,0,0,1-1.46-.88,7,7,0,0,1-.37-2.63,8.28,8.28,0,0,1,.37-2.91,1.45,1.45,0,0,1,1.46-.92Zm27.51-7.59a10.24,10.24,0,0,0-1.63-6c-1.08-1.56-3-2.33-5.71-2.33q-3.75,0-5.54,2.25a9.9,9.9,0,0,0-1.79,6.33,7,7,0,0,0,2,5.51,7.51,7.51,0,0,0,5.21,1.83q3.75,0,5.59-2A8,8,0,0,0,366.83,110.88Z"/>
    </g>
    <g>
      <path d="M336.1,177.76a3.66,3.66,0,0,0,2.66-.89,3.09,3.09,0,0,0,.93-2.35v-5.67h2v5.67a3.49,3.49,0,0,0,.3,1.54,3,3,0,0,0,.81,1,3.32,3.32,0,0,0,1.12.54,5.26,5.26,0,0,0,1.24.15h.58a.73.73,0,0,1,.67.27,1.32,1.32,0,0,1,.18.73,1.41,1.41,0,0,1-.18.8.78.78,0,0,1-.67.25h-.62a6.23,6.23,0,0,1-2.59-.54,4.06,4.06,0,0,1-1.92-2,4.71,4.71,0,0,1-2,2,5.82,5.82,0,0,1-2.45.54h-14a6.81,6.81,0,0,1-2.72-.49,4.85,4.85,0,0,1-2.89-3.18,7.76,7.76,0,0,1-.33-2.28v-5.05h1.89v4.63a4.62,4.62,0,0,0,1,3.14,4.38,4.38,0,0,0,3.46,1.18Zm-8.18-12.38h-2.66v-2.32h2.66Zm4.63,0h-2.66v-2.32h2.66Z"/>
      <path d="M349.14,177.76a3.77,3.77,0,0,0,2.62-.89,3,3,0,0,0,1-2.35v-5.67h1.89v5.59a5.2,5.2,0,0,1-1.49,4,5.44,5.44,0,0,1-3.91,1.41h-3.55a.8.8,0,0,1-.68-.25,1.32,1.32,0,0,1-.17-.72A1.58,1.58,0,0,1,345,178a.75.75,0,0,1,.68-.27Zm-.46,8.91h-2.55v-2.31h2.55Zm4.74,0h-2.5v-2.31h2.5Z"/>
      <path d="M359.67,155.88h1.93v21.88h5.83a3.83,3.83,0,0,0,2.58-.83,2.8,2.8,0,0,0,1-2.26V155.88h1.93v18.79a5.42,5.42,0,0,1-.41,2.15,4.75,4.75,0,0,1-1.12,1.62,4.67,4.67,0,0,1-1.69,1,6.35,6.35,0,0,1-2.11.35h-7.91Z"/>
    </g>
  </g>
</svg>
