<svg xmlns="http://www.w3.org/2000/svg" viewBox="0 0 504 504"><defs><style>.cls-1{fill:#efefef;}.cls-2{fill:#ffc200;}.cls-3{fill:#005de5;}.cls-4{fill:#fff;}.cls-5{fill:#c1a191;}.cls-6{fill:#a3a3a3;}.cls-7{fill:#e2bda8;}.cls-8{fill:#ccc;}.cls-9{fill:#ff4800;}.cls-10{fill:#ab3100;}.cls-11{fill:#e2e2e2;}.cls-12{fill:#bfbfbf;}.cls-13{fill:#9dc4ff;}</style></defs><title>material-85</title><g id="Layer_1" data-name="Layer 1"><path class="cls-1" d="M291.16,119H291a21.52,21.52,0,0,0-29.64-16.77,9,9,0,0,1-11.45-4,31.64,31.64,0,0,0-55.57,0,9,9,0,0,1-11.45,4A21.52,21.52,0,0,0,153.2,119H153a21.5,21.5,0,0,0,0,43h.22a21.5,21.5,0,0,0,29.64,16.76,9,9,0,0,1,11.45,4,31.63,31.63,0,0,0,55.57,0,9,9,0,0,1,11.45-4A21.5,21.5,0,0,0,291,162h.21a21.5,21.5,0,1,0,0-43Z"/><polygon class="cls-2" points="307.62 238.3 194.54 238.3 138.03 317.16 138.03 422.3 251.03 422.3 251.03 317.16 307.62 238.3"/><polygon class="cls-3" points="364.12 317.16 307.62 238.3 250.91 317.16 250.91 422.3 364.12 422.3 364.12 317.16"/><ellipse class="cls-4" cx="198.38" cy="317.3" rx="34.56" ry="18.16"/><circle cx="198.38" cy="317.3" r="9.12"/><rect class="cls-5" x="207.07" y="238.3" width="30" height="27.11"/><rect class="cls-6" x="229.57" y="238.3" width="7.5" height="27.11"/><rect class="cls-7" x="207.07" y="223.42" width="30" height="14.89"/><rect class="cls-8" x="229.57" y="223.42" width="7.5" height="14.89"/><rect x="207.07" y="212.92" width="30" height="10.5"/><polygon class="cls-9" points="373.96 288.3 291.97 288.3 250.92 345.77 250.92 422.3 332.92 422.3 332.92 345.77 373.96 288.3"/><polygon class="cls-10" points="358.73 309.63 343.44 288.3 291.97 288.3 250.92 345.77 250.92 422.3 332.92 422.3 332.92 345.77 358.73 309.63"/><polygon class="cls-3" points="414.92 345.77 374 288.6 332.92 345.77 332.92 422.3 414.92 422.3 414.92 345.77"/><ellipse class="cls-4" cx="294.75" cy="345.88" rx="25.05" ry="13.17"/><circle cx="294.75" cy="345.88" r="6.61"/><ellipse class="cls-4" cx="373.88" cy="345.88" rx="25.05" ry="13.17"/><circle cx="373.88" cy="345.88" r="6.61"/><polygon class="cls-11" points="162.54 342.3 113.59 342.3 89.08 376.62 89.08 422.3 138.03 422.3 138.03 376.62 162.54 342.3"/><polygon class="cls-12" points="138.03 342.3 138.03 376.62 162.54 342.3 138.03 342.3"/><polygon class="cls-13" points="186.99 376.62 162.56 342.48 138.03 376.62 138.03 422.3 186.99 422.3 186.99 376.62"/><ellipse class="cls-4" cx="115.25" cy="376.68" rx="14.96" ry="7.86"/><circle cx="115.25" cy="376.68" r="3.95"/><ellipse class="cls-4" cx="162.49" cy="376.68" rx="14.96" ry="7.86"/><circle cx="162.49" cy="376.68" r="3.95"/><path class="cls-9" d="M153.05,400.56a15.76,15.76,0,0,1-30,0Z"/></g></svg>