<svg xmlns="http://www.w3.org/2000/svg" xmlns:xlink="http://www.w3.org/1999/xlink" viewBox="0 0 504 504"><defs><style>.cls-1{fill:none;}.cls-2{fill:#c3f2fa;}.cls-3{fill:#fff;}.cls-4{fill:#f8d373;}.cls-5{fill:#2056e9;}.cls-6{clip-path:url(#clip-path);}.cls-7{fill:#ff4000;}</style><clipPath id="clip-path"><path class="cls-1" d="M384,429.64V358.07c0-72.95-59.45-132.63-132.39-132.63h.55C179.18,225.44,120,285.12,120,358.07v71.57Z"/></clipPath></defs><title>material-75</title><g id="Layer_2" data-name="Layer 2"><rect class="cls-2" width="504" height="504"/></g><g id="Layer_1" data-name="Layer 1"><path class="cls-3" d="M384,429.64V358.07c0-72.95-59.45-132.63-132.39-132.63h.55C179.18,225.44,120,285.12,120,358.07v71.57Z"/><path d="M251.81,225.44a131.75,131.75,0,0,0-78.44,25.88,315.56,315.56,0,0,0,78.44,9.52,315.56,315.56,0,0,0,78.44-9.52,131.75,131.75,0,0,0-78.44-25.88Z"/><path d="M251.81,225.44a131.75,131.75,0,0,0-78.44,25.88,315.56,315.56,0,0,0,78.44,9.52,315.56,315.56,0,0,0,78.44-9.52,131.75,131.75,0,0,0-78.44-25.88Z"/><polyline class="cls-3" points="252.97 231.71 350.97 231.71 350.97 140.59 301.28 72.58 202.34 72.58 153.03 140.59 153.03 231.71 252.97 231.71"/><polygon class="cls-4" points="252 140.5 301.28 72.58 350.97 140.5 350.97 231.71 252 231.71 252 140.5"/><rect class="cls-5" x="153" y="140.59" width="99" height="91.12"/><g class="cls-6"><path class="cls-7" d="M188.68,350.48a33,33,0,1,0-41-43.75,13.23,13.23,0,0,1-12.5,8.43A45.86,45.86,0,1,0,180,362.41,12.93,12.93,0,0,1,188.68,350.48Z"/><circle class="cls-7" cx="330.25" cy="332.48" r="33.77"/><path class="cls-7" d="M308.06,394.22a27.27,27.27,0,0,0-2.2-9.93c-4.67-11-15.44-18.66-27.43-18.52A28.85,28.85,0,0,0,254,379.12c-1.37,2.18-3.8,3-6.38,3h-.05c-23.63,0-42.63,20.21-41.33,44.12,1.16,21.34,19,38.77,40.34,39.28A41.09,41.09,0,0,0,277,453.25a7.33,7.33,0,0,1,7.84-1.52A29.23,29.23,0,0,0,311.14,400,7.08,7.08,0,0,1,308.06,394.22Z"/></g></g></svg>