<svg xmlns="http://www.w3.org/2000/svg" viewBox="0 0 858 504"><defs><style>.cls-1{isolation:isolate;}.cls-2{fill:#dbd4d3;}.cls-3{fill:#c7c0bf;}.cls-4{fill:#f5eceb;}.cls-5{fill:#a8a3a2;}.cls-6{fill:#414142;}.cls-7{fill:#ead9ce;}.cls-8{fill:#7c7cd8;}.cls-9{fill:#c8fce3;}.cls-10{fill:#ccc;mix-blend-mode:multiply;}.cls-11{fill:#fff;}</style></defs><title>material-77</title><g class="cls-1"><g id="Layer_2" data-name="Layer 2"><rect class="cls-2" width="858" height="504"/></g><g id="Layer_1" data-name="Layer 1"><path class="cls-3" d="M436,143.25h-.21a21,21,0,0,0-28.9-16.35A8.8,8.8,0,0,1,395.75,123a30.87,30.87,0,0,0-54.21,0,8.8,8.8,0,0,1-11.17,3.92,21,21,0,0,0-28.9,16.35h-.22a21,21,0,0,0,0,41.93h.22a21,21,0,0,0,28.9,16.35,8.8,8.8,0,0,1,11.17,3.92,30.87,30.87,0,0,0,54.21,0,8.8,8.8,0,0,1,11.17-3.92,21,21,0,0,0,28.9-16.35H436a21,21,0,1,0,0-41.93Z"/><polygon class="cls-4" points="341.24 224.98 388.28 159.75 435.32 224.98 435.32 312.1 341.24 312.1 341.24 224.98"/><polygon class="cls-5" points="529.83 224.9 482.96 159.73 388.27 159.73 435.14 224.9 529.83 224.9"/><rect class="cls-3" x="435.32" y="224.9" width="94.54" height="87.2" transform="translate(965.19 537.01) rotate(180)"/><circle class="cls-6" cx="388.27" cy="208.58" r="12.97"/><path class="cls-3" d="M209.67,233.48h-.12a11.44,11.44,0,0,0-15.77-8.91,4.81,4.81,0,0,1-6.09-2.14,16.83,16.83,0,0,0-29.57,0,4.82,4.82,0,0,1-6.1,2.14,11.32,11.32,0,0,0-4.44-.9,11.45,11.45,0,0,0-11.33,9.81h-.11a11.44,11.44,0,1,0,0,22.88h.11A11.46,11.46,0,0,0,152,265.28a4.8,4.8,0,0,1,6.1,2.14,16.84,16.84,0,0,0,29.57,0,4.79,4.79,0,0,1,6.09-2.14,11.46,11.46,0,0,0,15.77-8.92h.12a11.44,11.44,0,0,0,0-22.88Z"/><polygon class="cls-7" points="318.29 310.15 271.48 244.92 224.67 310.15 224.67 397.01 318.29 397.01 318.29 310.15"/><polygon class="cls-8" points="129.99 310.27 176.85 245.1 271.54 245.1 224.67 310.27 129.99 310.27"/><rect class="cls-9" x="130.12" y="310.27" width="94.54" height="86.74"/><polygon class="cls-4" points="318.29 310.15 271.48 244.92 224.67 310.15 224.67 397.01 318.29 397.01 318.29 310.15"/><polygon class="cls-5" points="129.99 310.27 176.85 245.1 271.54 245.1 224.67 310.27 129.99 310.27"/><rect class="cls-3" x="130.12" y="310.27" width="94.54" height="86.74"/><rect class="cls-6" x="271.48" y="349.28" width="19.73" height="47.73"/><polygon class="cls-10" points="291.24 349.05 318.29 373.14 318.29 396.89 291.24 397.12 291.24 349.05"/><path class="cls-6" d="M252,310.27a20.62,20.62,0,0,0,39.3,0Z"/><path class="cls-6" d="M372.8,288.7a16.24,16.24,0,0,0,30.95,0Z"/><rect class="cls-6" x="383" y="230.41" width="11.01" height="47.73" rx="5.43"/><polygon class="cls-7" points="472.5 276.82 537.44 186.6 602.38 276.82 602.38 397.01 472.5 397.01 472.5 276.82"/><polygon class="cls-8" points="733.3 276.76 668.47 186.81 537.5 186.81 602.33 276.76 733.3 276.76"/><rect class="cls-9" x="602.38" y="276.76" width="130.8" height="120.24" transform="translate(1335.56 673.77) rotate(180)"/><polygon class="cls-4" points="472.5 276.82 537.44 186.6 602.38 276.82 602.38 397.01 472.5 397.01 472.5 276.82"/><polygon class="cls-5" points="733.3 276.76 668.47 186.81 537.5 186.81 602.33 276.76 733.3 276.76"/><rect class="cls-3" x="602.38" y="276.76" width="130.8" height="120.24" transform="translate(1335.56 673.77) rotate(180)"/><rect class="cls-4" x="621.66" y="149.64" width="27.54" height="66.09"/><rect class="cls-3" x="642.31" y="149.64" width="6.88" height="66.09"/><rect x="621.66" y="140" width="27.54" height="9.64"/><path class="cls-6" d="M560.28,349.85a24,24,0,0,1-45.82,0Z"/><circle class="cls-6" cx="503.18" cy="276.6" r="9.17"/><circle class="cls-6" cx="571.82" cy="276.6" r="9.17"/><path class="cls-11" d="M503.18,286a9.29,9.29,0,0,1-3.6-.72l.2-.46a9,9,0,0,0,3.8.67l0,.5Zm3.42-.64-.18-.47a9,9,0,0,0,3.21-2.15l.36.35A9.59,9.59,0,0,1,506.6,285.38ZM497,283.69a9.69,9.69,0,0,1-2.42-3.29l.46-.2a8.89,8.89,0,0,0,2.29,3.11Zm14.74-3.11-.45-.21a8.93,8.93,0,0,0,.83-3.77A9.28,9.28,0,0,0,512,275l.49-.08a9.15,9.15,0,0,1,.15,1.66A9.4,9.4,0,0,1,511.72,280.58Zm-17.92-3.15c0-.27,0-.55,0-.83a9.2,9.2,0,0,1,.57-3.21l.46.17a8.92,8.92,0,0,0-.53,3c0,.26,0,.53,0,.79ZM511,272.29a9.09,9.09,0,0,0-2.55-2.9l.29-.4a9.43,9.43,0,0,1,2.7,3.06ZM496.22,271l-.39-.32a9.46,9.46,0,0,1,3.17-2.55l.22.44A9.17,9.17,0,0,0,496.22,271Zm9.62-2.95a9.07,9.07,0,0,0-3.84-.32l-.07-.5a9.46,9.46,0,0,1,4.06.35Z"/><path class="cls-11" d="M571.82,286a9.22,9.22,0,0,1-3.6-.72l.19-.46a9,9,0,0,0,3.8.67l0,.5Zm3.42-.64-.18-.47a8.91,8.91,0,0,0,3.2-2.15l.36.35A9.46,9.46,0,0,1,575.24,285.38Zm-9.62-1.69a9.56,9.56,0,0,1-2.42-3.29l.46-.2a8.89,8.89,0,0,0,2.29,3.11Zm14.74-3.11-.46-.21a8.79,8.79,0,0,0,.84-3.77,9.28,9.28,0,0,0-.14-1.58l.49-.08a9.15,9.15,0,0,1,.15,1.66A9.4,9.4,0,0,1,580.36,280.58Zm-17.92-3.15a7.56,7.56,0,0,1,0-.83,9.47,9.47,0,0,1,.56-3.21l.47.17a8.92,8.92,0,0,0-.53,3,7,7,0,0,0,0,.79Zm17.19-5.14a9.12,9.12,0,0,0-2.56-2.9l.3-.4a9.59,9.59,0,0,1,2.69,3.05ZM564.85,271l-.39-.31a9.4,9.4,0,0,1,3.18-2.56l.22.45A9,9,0,0,0,564.85,271Zm9.63-2.95a9.07,9.07,0,0,0-3.84-.32l-.07-.5a9.46,9.46,0,0,1,4.06.35Z"/><polyline class="cls-6" points="520.56 318.53 554.1 318.53 537.21 251.83"/><path class="cls-11" d="M382.8,399.89l-2.34-3.24.41-.29,2.34,3.24Zm-4.09-5.68L376.37,391l.41-.29,2.34,3.24Zm-4.09-5.68-2.34-3.24.41-.29,2.33,3.24Zm-4.09-5.68-2.34-3.24.41-.29,2.33,3.24Zm-4.09-5.68-2.34-3.24.4-.29,2.34,3.24Zm-4.09-5.68L360,368.25l.4-.29,2.34,3.24Zm-4.1-5.68-2.33-3.24.4-.29,2.34,3.24Zm-4.09-5.68-2.33-3.24.4-.29,2.34,3.24Zm-4.09-5.68-2.34-3.24.41-.29,2.34,3.24ZM346,348.77l-2.34-3.24.41-.29,2.34,3.24Zm-4.09-5.68-2.34-3.24.41-.29,2.34,3.24Zm-4.09-5.68-2.34-3.24.41-.29,2.33,3.24Zm-4.09-5.68-2.34-3.24.41-.29,2.33,3.24Zm-4.09-5.68-2.34-3.24.4-.29,2.34,3.24Zm-4.1-5.68-2.33-3.24.4-.29,2.34,3.24Zm-4.09-5.68-2.33-3.24.4-.29,2.34,3.24ZM317.34,309,315,305.77l.41-.29,2.34,3.24Zm-4.09-5.68-2.34-3.24.41-.29,2.34,3.24Zm-4.09-5.68-2.34-3.24.41-.29,2.34,3.24ZM305.07,292l-2.34-3.24.41-.29,2.33,3.24ZM301,286.29l-2.34-3.24.41-.29,2.33,3.24Zm-4.09-5.68-2.34-3.24.4-.29,2.34,3.24Zm-4.09-5.68-2.34-3.24.4-.29,2.34,3.24Zm-4.1-5.68L286.37,266l.4-.29,2.34,3.24Zm-4.09-5.68-2.33-3.24.4-.29,2.34,3.24Zm-4.09-5.68-2.34-3.24.41-.29,2.34,3.24Zm-4.09-5.68L274.09,249l.41-.29,2.34,3.24Zm-4.09-5.68-1.06-1.47.4-.29,1.07,1.47Z"/><path class="cls-11" d="M308.49,504.15l-.4-.3,2.34-3.24.4.29Zm4.1-5.68-.41-.29,2.34-3.25.41.29Zm4.09-5.68-.4-.29,2.34-3.25.4.3Zm4.1-5.68-.41-.29,2.34-3.24.41.29Zm4.09-5.67-.4-.3,2.34-3.24.4.29Zm4.1-5.68-.41-.29,2.34-3.25.41.3Zm4.09-5.68-.4-.29,2.34-3.24.4.29Zm4.1-5.67-.41-.3,2.34-3.24.41.29Zm4.09-5.68-.4-.29,2.34-3.25.4.29Zm4.1-5.68-.41-.29,2.34-3.25.41.3Zm4.09-5.68-.4-.29,2.34-3.24.4.29Zm4.1-5.67-.41-.3,2.34-3.24.41.29Zm4.09-5.68-.4-.29,2.34-3.25.4.29Zm4.1-5.68-.41-.29,2.34-3.25.41.3Zm4.09-5.68-.4-.29,2.34-3.24.4.29Zm4.1-5.67-.41-.3,2.34-3.24.41.29Zm4.09-5.68-.4-.29,2.34-3.25.4.29Zm4.1-5.68-.41-.29,2.34-3.25.41.3ZM382.2,402l-.4-.29,2.34-3.24.4.29Zm4.1-5.67-.41-.3,2.34-3.24.41.29Zm4.09-5.68-.4-.29,2.34-3.25.4.3Zm4.1-5.68-.41-.29,2.34-3.24.41.29Zm4.09-5.68-.4-.29,2.34-3.24.4.29Zm4.1-5.67-.41-.29,2.34-3.25.41.29Zm4.09-5.68-.41-.29,2.34-3.25.41.3Zm4.1-5.68-.41-.29,2.34-3.24.41.29Zm4.09-5.67-.41-.3,2.34-3.24.41.29Zm4.1-5.68-.41-.29,2.34-3.25.4.29Zm4.09-5.68-.41-.29,2.34-3.25.41.3Zm4.09-5.68-.4-.29,2.34-3.24.4.29Zm4.1-5.67-.41-.3,2.34-3.24.41.29Zm4.09-5.68-.4-.29,2.34-3.25.4.29Zm4.1-5.68-.41-.29,2.34-3.25.41.3Zm4.09-5.68-.4-.29,2.34-3.24.4.29Zm4.1-5.67-.41-.3,2.34-3.24.41.29Zm4.09-5.68-.4-.29,2.34-3.25.4.3Zm4.1-5.68-.41-.29,2.34-3.24.41.29Zm4.09-5.68-.4-.29,2.34-3.24.4.29Zm4.1-5.67-.41-.3,2.34-3.24.41.29Zm4.09-5.68-.4-.29,2.34-3.25.4.3Zm4.1-5.68-.41-.29,2.34-3.24.41.29Zm4.09-5.67-.4-.3,2.34-3.24.4.29Zm4.1-5.68-.41-.29,2.34-3.25.41.29Zm4.09-5.68-.4-.29,2.34-3.25.4.3Zm4.1-5.68-.41-.29,2.34-3.24.41.29Zm4.09-5.67-.4-.3,2.34-3.24.4.29Zm4.1-5.68-.41-.29,2.34-3.25.41.29Zm4.09-5.68-.4-.29,2.34-3.25.4.3Zm4.1-5.68-.41-.29L507,228.1l.41.29Zm4.09-5.67-.4-.3,2.34-3.24.4.29Zm4.1-5.68-.41-.29,2.34-3.25.41.3Zm4.09-5.68-.4-.29,2.34-3.24.4.29Zm4.1-5.68-.41-.29,2.34-3.24.41.29Zm4.09-5.67-.4-.3,2.34-3.24.4.29Zm4.1-5.68-.41-.29,2.34-3.25.41.3Zm4.09-5.68-.4-.29,2.34-3.24.4.29Zm4.1-5.67-.41-.3,2.34-3.24.41.29Zm4.09-5.68-.4-.29,2.34-3.25.4.29Zm4.1-5.68-.41-.29,2.34-3.25.41.3Zm4.09-5.68-.4-.29,2.34-3.24.4.29Zm4.1-5.67-.41-.3,2.34-3.24.41.29Zm4.09-5.68-.41-.29,2.35-3.25.4.29Zm4.1-5.68-.41-.29,2.34-3.25.41.3Zm4.09-5.68-.41-.29,2.34-3.24.41.29Zm4.09-5.67-.4-.3,2.34-3.24.4.29Zm4.1-5.68-.41-.29,2.34-3.25.41.29Zm4.09-5.68-.4-.29,2.34-3.24.4.29Zm4.1-5.68-.41-.29,2.34-3.24.41.29Zm4.09-5.67-.4-.3,2.34-3.24.4.29Zm4.1-5.68-.41-.29,2.34-3.25.41.3Zm4.09-5.68-.4-.29,2.34-3.24.4.29Zm4.1-5.68-.41-.29,2.34-3.24.41.29Zm4.09-5.67-.4-.29,2.34-3.25.4.29Zm4.1-5.68-.41-.29,2.34-3.25.41.3ZM611.51,84l-.4-.29,2.34-3.24.4.29Zm4.1-5.67-.41-.3,2.34-3.24.41.29Zm4.09-5.68-.4-.29,2.34-3.25.4.29ZM623.8,67l-.41-.29,2.34-3.25.41.3Zm4.09-5.68-.4-.29,2.34-3.24.4.29Zm4.1-5.67-.41-.3,2.34-3.24.41.29ZM636.08,50l-.4-.29L638,46.42l.4.29Zm4.1-5.68-.41-.29,2.34-3.25.41.3Zm4.09-5.68-.4-.29,2.34-3.24.4.29Zm4.1-5.67-.41-.3,2.34-3.24.41.29Zm4.09-5.68-.4-.29,2.34-3.25.4.3Zm4.1-5.68-.41-.29L658.49,18l.41.29Zm4.09-5.68-.4-.29,2.34-3.24.4.29Zm4.1-5.67-.41-.3,2.34-3.24.41.29Zm4.09-5.68-.4-.29,2.18-3,.41.29Z"/><path class="cls-11" d="M472.3,277,470,273.73l.4-.3,2.34,3.25Zm-4.1-5.68-2.34-3.24.41-.29,2.34,3.24Zm-4.1-5.67-2.34-3.25.41-.29,2.34,3.24ZM460,259.94l-2.34-3.24.4-.3,2.34,3.25Zm-4.1-5.68L453.57,251l.41-.29,2.34,3.24Zm-4.09-5.67-2.34-3.25.4-.29,2.34,3.24Zm-4.1-5.68-2.34-3.24.41-.3,2.34,3.25Zm-4.09-5.68L441.29,234l.4-.29,2.34,3.24Zm-4.1-5.67-2.34-3.25.4-.29,2.35,3.24Zm-4.1-5.68-2.34-3.24.41-.3,2.34,3.25Zm-4.09-5.68L429,217l.4-.29,2.34,3.24Zm-4.1-5.67-2.34-3.25.41-.29,2.34,3.24Zm-4.09-5.68-2.34-3.24.4-.3,2.34,3.25Zm-4.1-5.68-2.34-3.24.41-.29,2.34,3.24ZM415,197.5l-2.34-3.25.4-.29,2.34,3.24Zm-4.1-5.68-2.34-3.24.4-.3,2.35,3.25Zm-4.1-5.68-2.34-3.24.41-.29,2.34,3.24Zm-4.09-5.67-2.34-3.25.4-.29,2.34,3.24Zm-4.1-5.68-2.34-3.24.41-.3L399,174.5Zm-4.09-5.68-2.34-3.24.4-.29,2.34,3.24Zm-4.1-5.67L388,160.19l.41-.29,2.34,3.24Zm-4.09-5.68L384,154.52l.4-.3,2.34,3.25Zm-4.1-5.68-2.34-3.24.4-.29,2.35,3.24Zm-4.1-5.67-2.34-3.25.41-.29,2.34,3.24ZM374,140.73l-2.34-3.24.4-.3,2.34,3.25Zm-4.1-5.68-2.34-3.24.41-.29,2.34,3.24Zm-4.09-5.67-2.34-3.25.4-.29,2.34,3.24Zm-4.1-5.68-2.34-3.24.41-.3,2.34,3.25ZM357.62,118l-2.34-3.24.4-.29,2.34,3.24Zm-4.1-5.67-2.34-3.25.4-.29,2.35,3.24Zm-4.1-5.68-2.34-3.24.41-.3,2.34,3.25ZM345.33,101,343,97.75l.4-.29,2.34,3.24Zm-4.1-5.67-2.34-3.25.41-.29L341.64,95Zm-4.09-5.68L334.8,86.4l.4-.3,2.34,3.25ZM333,84l-2.34-3.24.41-.29,2.34,3.24ZM329,78.29,326.6,75l.41-.29L329.35,78Zm-4.1-5.68-2.34-3.24.4-.3,2.34,3.25Zm-4.1-5.68-2.34-3.24.41-.29,2.34,3.24Zm-4.09-5.67L314.32,58l.4-.29L317.06,61Zm-4.1-5.68-2.34-3.24.41-.3L313,55.29Zm-4.09-5.68-2.34-3.24.4-.29,2.34,3.24Zm-4.1-5.67L302,41l.41-.29,2.34,3.24Zm-4.09-5.68-2.35-3.25.41-.29,2.34,3.25Zm-4.1-5.68-2.34-3.24.4-.29,2.34,3.24Zm-4.1-5.67L289.74,24l.41-.29,2.34,3.24ZM288,21.52l-2.34-3.25.4-.29,2.34,3.25Zm-4.1-5.68-2.34-3.24.41-.29,2.34,3.24Zm-4.09-5.67-2.34-3.25.4-.29,2.34,3.24Zm-4.1-5.68-2.15-3,.41-.29,2.15,3Z"/><path class="cls-11" d="M519.45,211.46l-2.34-3.25.41-.29,2.34,3.24Zm-4.09-5.68L513,202.54l.4-.3,2.34,3.25Zm-4.1-5.68-2.34-3.24.41-.29,2.34,3.24Zm-4.1-5.67-2.34-3.25.41-.29,2.34,3.24Zm-4.09-5.68-2.34-3.24.4-.3,2.34,3.25Zm-4.1-5.68-2.34-3.24.41-.29,2.34,3.24Zm-4.09-5.67-2.34-3.25.4-.29,2.34,3.24Zm-4.1-5.68-2.34-3.24.41-.3,2.34,3.25ZM486.69,166l-2.34-3.24.4-.29,2.34,3.24Zm-4.1-5.67-2.34-3.25.4-.29,2.35,3.24Zm-4.1-5.68-2.34-3.25.41-.29,2.34,3.25ZM474.4,149l-2.34-3.24.4-.29,2.34,3.24Zm-4.1-5.67L468,140.09l.41-.29,2.34,3.24Zm-4.09-5.68-2.34-3.25.4-.29,2.34,3.25Zm-4.1-5.68-2.34-3.24.41-.29,2.34,3.24ZM458,126.31l-2.34-3.25.4-.29,2.34,3.24Zm-4.1-5.68-2.34-3.25.4-.29,2.35,3.25Zm-4.1-5.68-2.34-3.24.41-.29,2.34,3.24Zm-4.09-5.68L443.39,106l.4-.29,2.34,3.24Zm-4.1-5.67-2.34-3.25.41-.29,2.34,3.25Zm-4.09-5.68-2.34-3.24.4-.29,2.34,3.24Zm-4.1-5.68L431.1,89l.41-.29L433.85,92Zm-4.09-5.67L427,83.32l.4-.29,2.34,3.25Zm-4.1-5.68-2.34-3.24.4-.29,2.35,3.24Zm-4.1-5.68L418.81,72l.41-.29,2.34,3.24Zm-4.09-5.67-2.34-3.25.4-.29,2.34,3.25ZM413,63.86l-2.34-3.24.41-.29,2.34,3.24Zm-4.09-5.68-2.34-3.24.4-.29,2.34,3.24Zm-4.1-5.67-2.34-3.25.41-.29,2.34,3.25Zm-4.09-5.68-2.34-3.24.4-.3,2.34,3.25Zm-4.1-5.68-2.34-3.24.4-.29L397,40.86Zm-4.1-5.67-2.34-3.25.41-.29,2.34,3.25Zm-4.09-5.68-2.34-3.24.4-.3,2.34,3.25Zm-4.1-5.68L382,20.88l.41-.29,2.34,3.24Zm-4.09-5.67-2.34-3.25.4-.29,2.34,3.25Zm-4.1-5.68-2.34-3.24.41-.3,2.34,3.25ZM372,7.09l-2.34-3.24.4-.29,2.34,3.24Z"/><path class="cls-11" d="M766.07,504.15l-2.33-3.25.4-.29,2.34,3.24ZM762,498.47l-2.34-3.25.41-.29,2.34,3.25Zm-4.09-5.68-2.34-3.24.4-.3,2.34,3.25Zm-4.1-5.68-2.34-3.24.41-.3,2.34,3.25Zm-4.09-5.68-2.34-3.24.41-.29,2.33,3.24Zm-4.09-5.67-2.34-3.25.4-.29,2.34,3.24Zm-4.1-5.68-2.34-3.25.41-.29,2.34,3.25Zm-4.09-5.68-2.34-3.25.4-.29,2.34,3.25Zm-4.1-5.68L731,455.48l.4-.3,2.34,3.25ZM729.23,453l-2.34-3.24.41-.29,2.34,3.24Zm-4.09-5.67-2.34-3.25.4-.29,2.34,3.24Zm-4.1-5.68-2.34-3.25.41-.29,2.34,3.24ZM717,436l-2.34-3.25.41-.29,2.33,3.25Zm-4.09-5.68-2.34-3.24.4-.3,2.34,3.25Zm-4.1-5.68-2.34-3.24.41-.29,2.34,3.24ZM704.67,419l-2.34-3.24.4-.29,2.34,3.24Zm-4.1-5.67-2.34-3.25.41-.29L701,413Zm-4.09-5.68-2.34-3.25.41-.29,2.34,3.25Zm-4.09-5.68-2.34-3.24.4-.3,2.34,3.25Zm-4.1-5.68L686,393l.41-.29L688.7,396Zm-4.09-5.68-2.34-3.24.41-.29,2.33,3.24Zm-4.09-5.67-2.34-3.25.4-.29,2.34,3.24Zm-4.1-5.68L673.67,376l.41-.29,2.34,3.25Zm-4.09-5.68-2.34-3.25.4-.29,2.34,3.25Zm-4.1-5.68-2.34-3.24.41-.3,2.34,3.25Zm-4.09-5.68L661.39,359l.41-.29,2.34,3.24Zm-4.09-5.67-2.34-3.25.4-.29,2.34,3.24Zm-4.1-5.68-2.34-3.25.41-.29,2.34,3.24Zm-4.09-5.68-2.34-3.25.4-.29,2.34,3.25Zm-4.1-5.68L645,336.24l.4-.3,2.34,3.25Zm-4.09-5.68-2.34-3.24.41-.29,2.34,3.24Zm-4.09-5.68-2.34-3.24.4-.29,2.34,3.24Zm-4.1-5.67-2.34-3.25.41-.29,2.34,3.24ZM631,316.77l-2.34-3.25.41-.29,2.34,3.25Zm-4.09-5.68-2.34-3.24.4-.3,2.34,3.25Zm-4.1-5.68-2.34-3.24.41-.29,2.34,3.24Zm-4.09-5.68-2.34-3.24.4-.29,2.34,3.24Zm-4.1-5.67-2.33-3.25.4-.29,2.34,3.24Zm-4.09-5.68-2.34-3.25.41-.29,2.34,3.25Zm-4.09-5.68-2.34-3.24.4-.3,2.34,3.25Zm-4.1-5.68L600,273.78l.41-.3,2.34,3.25Zm-4.09-5.68-2.34-3.24.41-.29,2.33,3.24Zm-4.09-5.67-2.34-3.25.4-.29,2.34,3.24ZM590,260l-2.34-3.25.41-.29,2.34,3.25ZM586,254.31l-2.34-3.25.4-.29,2.34,3.25Zm-4.1-5.68-2.33-3.24.4-.3,2.34,3.25ZM577.76,243l-2.34-3.24.41-.29,2.34,3.24Zm-4.09-5.67L571.33,234l.4-.29,2.34,3.24Zm-4.1-5.68-2.34-3.25.41-.29L570,231.3Zm-4.09-5.68-2.34-3.25.41-.29,2.33,3.25Zm-4.09-5.68L559.05,217l.4-.3,2.34,3.25Zm-4.1-5.68L555,211.32l.41-.29,2.34,3.24Zm-4.09-5.68-2.34-3.24.4-.29,2.34,3.24Zm-4.1-5.67L546.77,200l.4-.29,2.34,3.24ZM545,197.53l-2.34-3.25.41-.29,2.34,3.25Zm-4.09-5.68-2.34-3.24.4-.3,2.34,3.25Z"/><path class="cls-11" d="M857.8,449.84l-2.34-3.25.4-.29,2.34,3.25Zm-4.1-5.68-2.34-3.24.41-.3,2.34,3.25Zm-4.09-5.68-2.34-3.24.41-.29,2.34,3.24Zm-4.09-5.68-2.34-3.24.4-.29,2.34,3.24Zm-4.1-5.67-2.34-3.25.41-.29,2.34,3.24Zm-4.09-5.68L835,418.2l.4-.29,2.34,3.25Zm-4.1-5.68-2.33-3.24.4-.3,2.34,3.25Zm-4.09-5.68-2.34-3.24.41-.3,2.34,3.25Zm-4.09-5.68-2.34-3.24.4-.29,2.34,3.24Zm-4.1-5.67-2.34-3.25.41-.29,2.34,3.24Zm-4.09-5.68-2.34-3.25.41-.29,2.33,3.24Zm-4.09-5.68-2.34-3.25.4-.29,2.34,3.25Zm-4.1-5.68-2.34-3.24.41-.3,2.34,3.25ZM804.58,376l-2.34-3.24.4-.29,2.34,3.24Zm-4.1-5.68-2.33-3.24.4-.29,2.34,3.24Zm-4.09-5.67-2.34-3.25.41-.29,2.34,3.24ZM792.3,359,790,355.74l.4-.29,2.34,3.25Zm-4.1-5.68-2.34-3.24.41-.3,2.34,3.25Zm-4.09-5.68-2.34-3.24.41-.29,2.33,3.24ZM780,342l-2.34-3.24.4-.29,2.34,3.24Zm-4.1-5.67L773.58,333l.41-.29,2.34,3.24Zm-4.09-5.68-2.34-3.25.4-.29,2.34,3.25Zm-4.1-5.68-2.33-3.24.4-.3,2.34,3.25Zm-4.09-5.68L761.3,316l.41-.3,2.34,3.25Zm-4.09-5.68-2.34-3.24.4-.29,2.34,3.24Zm-4.1-5.67-2.34-3.25.41-.29,2.34,3.24Zm-4.09-5.68L749,299l.4-.29,2.34,3.25Zm-4.09-5.68-2.34-3.25.4-.29,2.34,3.25Zm-4.1-5.68-2.34-3.24.41-.3,2.34,3.25Zm-4.09-5.68-2.34-3.24.4-.29,2.34,3.24ZM735,279.5l-2.34-3.25.41-.29,2.34,3.24Zm-4.09-5.68-2.34-3.25.41-.29,2.34,3.24Zm-4.09-5.68-2.34-3.25.4-.29,2.34,3.25Zm-4.1-5.68-2.34-3.24.41-.3,2.34,3.25Zm-4.09-5.68-2.34-3.24.4-.29,2.34,3.24Zm-4.09-5.68-2.34-3.24.4-.29,2.34,3.24Zm-4.1-5.67-2.34-3.25.41-.29,2.34,3.24Zm-4.09-5.68L704,236.5l.4-.29,2.34,3.25Zm-4.1-5.68-2.34-3.24.41-.3,2.34,3.25Zm-4.09-5.68-2.34-3.24.41-.3,2.33,3.25Zm-4.09-5.68-2.34-3.24.4-.29,2.34,3.24ZM690,217l-2.34-3.25.41-.29,2.34,3.24Zm-4.09-5.68-2.34-3.25.4-.29,2.34,3.25Zm-4.1-5.68-2.33-3.24.4-.3,2.34,3.25ZM677.67,200l-2.34-3.24.41-.3,2.34,3.25Zm-4.09-5.68-2.34-3.24.4-.29L674,194Zm-4.1-5.67L668.27,187l.4-.3,1.22,1.69Z"/><path class="cls-11" d="M299.31,283.07l-.4-.3,2.34-3.24.4.29Zm4.1-5.68-.41-.29,2.34-3.25.41.29Zm4.09-5.68-.4-.29,2.34-3.25.4.3Zm4.1-5.68-.41-.29,2.34-3.24.41.29Zm4.09-5.67-.41-.3,2.34-3.24.41.29Zm4.1-5.68-.41-.29,2.34-3.25.41.3Zm4.09-5.68-.41-.29,2.34-3.24.41.29Zm4.1-5.68-.41-.29,2.34-3.24.41.29Zm4.09-5.67-.41-.3,2.34-3.24.41.29Zm4.1-5.68-.41-.29,2.34-3.25.4.3Zm4.09-5.68-.41-.29,2.34-3.24.41.29Zm4.09-5.67-.4-.3,2.34-3.24.4.29Zm4.1-5.68-.41-.29,2.34-3.25.41.29Zm4.09-5.68-.4-.29,2.34-3.25.4.3Zm4.1-5.68-.41-.29,2.34-3.24.41.29Zm4.09-5.67-.4-.3,2.34-3.24.4.29Zm4.1-5.68-.41-.29,2.34-3.25.41.29Zm4.09-5.68-.4-.29,2.34-3.25.4.3Zm4.1-5.68-.41-.29,2.34-3.24.41.29Zm4.09-5.67-.4-.3,2.34-3.24.4.29Zm4.1-5.68-.41-.29,2.34-3.25.41.3Zm4.09-5.68-.4-.29,2.34-3.24.4.29Zm4.1-5.68-.41-.29,2.34-3.24.41.29Zm4.09-5.67-.4-.29,2.34-3.25.4.29Zm4.1-5.68-.41-.29,2.34-3.25.41.3Zm4.09-5.68-.4-.29,2.34-3.24.4.29Zm4.1-5.67-.41-.3,2.34-3.24.41.29Zm4.09-5.68-.4-.29,2.34-3.25.4.29Zm4.1-5.68-.41-.29,2.34-3.25.41.3Zm4.09-5.68-.4-.29,2.34-3.24.4.29Zm4.1-5.67-.41-.3,2.34-3.24.41.29Zm4.09-5.68-.4-.29,2.34-3.25.4.29Zm4.1-5.68-.41-.29,2.34-3.25.41.3Zm4.09-5.68-.4-.29,2.34-3.24.4.29Zm4.1-5.67-.41-.3,2.34-3.24.41.29Zm4.09-5.68-.4-.29,2.34-3.25.4.3Zm4.1-5.68-.41-.29,2.34-3.24.41.29ZM450.82,73l-.4-.29,2.34-3.24.4.29Zm4.1-5.67-.41-.3,2.34-3.24.41.29ZM459,61.65l-.4-.29L461,58.11l.4.3Zm4.1-5.68-.41-.29L465,52.44l.41.29Zm4.09-5.67-.41-.3,2.34-3.24.41.29Zm4.09-5.68-.4-.29,2.34-3.25.41.29Zm4.1-5.68-.41-.29,2.34-3.25.41.3Zm4.09-5.68-.4-.29,2.34-3.24.4.29Zm4.1-5.67-.41-.3,2.34-3.24.41.29Zm4.09-5.68-.4-.29,2.34-3.25.4.29Zm4.1-5.68-.41-.29,2.34-3.25.41.3Zm4.09-5.68-.4-.29L497.8,7l.4.29ZM500,4.88l-.41-.3,2.34-3.24.41.29Z"/><path class="cls-11" d="M85.35,504.15l-.4-.3,2.34-3.24.4.29Zm4.09-5.68-.4-.3,2.34-3.24.4.29Zm4.09-5.69-.4-.29,2.34-3.24.4.29Zm4.09-5.68-.4-.29,2.34-3.25.4.3Zm4.09-5.68-.4-.29,2.34-3.25.4.3Zm4.09-5.68-.4-.29,2.33-3.25.41.29Zm4.09-5.68-.4-.29,2.33-3.25.41.29Zm4.09-5.68-.4-.29,2.33-3.25.41.29Zm4.09-5.68-.4-.29,2.33-3.25.41.29Zm4.09-5.68-.4-.29,2.33-3.25.41.29Zm4.09-5.68-.4-.3,2.33-3.24.41.29Zm4.09-5.68-.4-.3,2.33-3.24.41.29Zm4.09-5.69-.4-.29,2.33-3.24.41.29Zm4.09-5.68-.4-.29,2.33-3.24.41.29Zm4.09-5.68-.4-.29,2.33-3.25.41.3Zm4.09-5.68-.4-.29,2.33-3.25.41.3Zm4.09-5.68-.4-.29,2.33-3.25.41.29Zm4.09-5.68-.4-.29,2.33-3.25.41.29Zm4.09-5.68-.4-.29,2.33-3.25.41.29Zm4.09-5.68-.4-.29,2.33-3.25.41.29Zm4.09-5.68-.4-.3,2.33-3.24.41.29Zm4.09-5.68-.4-.3,2.33-3.24.41.29Zm4.09-5.68-.4-.3,2.33-3.24.41.29Zm4.09-5.69-.41-.29,2.34-3.24.41.29Zm4.09-5.68-.41-.29,2.34-3.25.41.3Zm4.09-5.68-.41-.29,2.34-3.25.41.3Zm4.09-5.68-.41-.29,2.34-3.25.41.29Zm4.09-5.68-.41-.29,2.34-3.25.41.29Zm4.09-5.68-.41-.29,2.34-3.25.41.29ZM204,339.4l-.41-.29,2.34-3.25.41.29Zm4.09-5.68-.41-.29,2.34-3.25.41.29Zm4.09-5.68-.41-.3,2.34-3.24.41.29Zm4.09-5.68-.41-.3,2.34-3.24.41.29Zm4.09-5.69-.41-.29,2.34-3.24.41.29Zm4.09-5.68-.41-.29,2.34-3.24.41.29Zm4.09-5.68-.41-.29,2.34-3.25.41.3Zm4.09-5.68-.41-.29,2.34-3.25.41.3Zm4.09-5.68-.41-.29,2.34-3.25.41.29Zm4.09-5.68-.41-.29,2.34-3.25.41.29Zm4.09-5.68-.41-.29,2.34-3.25.41.29Zm4.09-5.68-.41-.29,2.34-3.25.4.29Zm4.09-5.68-.41-.3,2.34-3.24.4.29Zm4.09-5.68-.41-.3,2.34-3.24.4.29Zm4.09-5.69-.41-.29,2.34-3.24.4.29Zm4.09-5.68-.41-.29,2.34-3.24.4.29Zm4.09-5.68-.41-.29,2.34-3.25.4.3Z"/><path class="cls-11" d="M.2,489.32-.2,489l2.34-3.24.4.29Zm4.1-5.67-.41-.3,2.34-3.24.41.29ZM8.39,478l-.4-.29,2.34-3.25.4.29Zm4.1-5.68-.41-.29,2.34-3.25.41.3Zm4.09-5.68-.4-.29,2.34-3.24.4.29Zm4.1-5.67-.41-.3,2.34-3.24.41.29Zm4.09-5.68-.4-.29,2.34-3.25.4.29Zm4.1-5.68-.41-.29L30.8,446l.41.3ZM33,443.9l-.4-.29,2.34-3.24.4.29Zm4.1-5.67-.41-.3L39,434.69l.41.29Zm4.09-5.68-.4-.29L43.09,429l.4.3Zm4.1-5.68-.41-.29,2.34-3.24.41.29Zm4.09-5.68-.4-.29,2.34-3.24.4.29Zm4.1-5.67-.41-.3L55.37,412l.41.29Zm4.09-5.68-.4-.29,2.34-3.25.4.3Zm4.1-5.68-.41-.29,2.34-3.24.41.29Zm4.09-5.67-.41-.3L67.66,395l.4.29Zm4.1-5.68-.41-.29,2.34-3.25.41.29Zm4.09-5.68-.41-.29,2.34-3.25.41.3ZM78,381.45l-.4-.29,2.34-3.24.4.29Zm4.1-5.67-.41-.3L84,372.24l.41.29Zm4.09-5.68-.4-.29,2.34-3.25.4.29Zm4.1-5.68-.41-.29,2.34-3.25.41.3Zm4.09-5.68-.4-.29,2.34-3.24.4.29Zm4.1-5.67-.41-.3,2.34-3.24.41.29Zm4.09-5.68-.4-.29,2.34-3.25.4.3Zm4.1-5.68-.41-.29,2.34-3.24.41.29Zm4.09-5.68-.4-.29,2.34-3.24.4.29Zm4.1-5.67-.41-.3,2.34-3.24.41.29Zm4.09-5.68-.4-.29,2.34-3.25.4.3Zm4.1-5.68-.41-.29,2.34-3.24.41.29Zm4.09-5.67-.4-.3,2.34-3.24.4.29Zm4.1-5.68-.41-.29,2.34-3.25.41.29Zm4.09-5.68-.4-.29,2.34-3.25.4.3Zm4.1-5.68L139,296l2.34-3.24.41.29Zm4.09-5.67-.4-.3,2.34-3.24.4.29Zm4.1-5.68-.41-.29,2.34-3.25.41.29Zm4.09-5.68-.4-.29,2.34-3.25.4.3Zm4.1-5.68-.41-.29,2.34-3.24.41.29Zm4.09-5.67-.4-.3,2.34-3.24.4.29Zm4.1-5.68-.41-.29,2.34-3.25.41.3Zm4.09-5.68-.4-.29L170,253l.4.29Zm4.1-5.68-.41-.29,2.34-3.24.41.29Zm4.09-5.67-.4-.29,2.34-3.25.4.29Zm4.1-5.68-.41-.29,2.34-3.25.41.3Zm4.09-5.68-.4-.29,2.34-3.24.4.29Zm4.1-5.67-.41-.3,2.34-3.24.41.29Zm4.09-5.68-.4-.29L194.6,219l.4.29Zm4.1-5.68-.41-.29,2.34-3.25.41.3Zm4.09-5.68-.4-.29,2.34-3.24.4.29Zm4.1-5.67-.41-.3,2.34-3.24.41.29Zm4.09-5.68-.4-.29,2.34-3.25.4.29Zm4.1-5.68-.41-.29,2.34-3.25.41.3Zm4.09-5.68-.41-.29,2.34-3.24.41.29Zm4.1-5.67-.41-.3,2.34-3.24.4.29Zm4.09-5.68-.41-.29,2.34-3.25.41.3Zm4.09-5.68-.4-.29,2.34-3.24.4.29Zm4.1-5.68-.41-.29,2.34-3.24.41.29ZM237.7,160l-.4-.3,2.34-3.24.4.29Zm4.1-5.68-.41-.29,2.34-3.25.41.3Zm4.09-5.68-.4-.29,2.34-3.24.4.29ZM250,143l-.41-.3,2.34-3.24.41.29Zm4.09-5.68-.4-.29,2.34-3.25.4.29Zm4.1-5.68-.41-.29,2.34-3.25.41.3Zm4.09-5.68-.4-.29,2.34-3.24.4.29Zm4.1-5.67L266,120l2.34-3.24.41.29Zm4.09-5.68-.4-.29,2.34-3.25.4.29Zm4.1-5.68-.41-.29,2.34-3.25.41.3Zm4.09-5.68-.4-.29,2.34-3.24.4.29Zm4.1-5.67-.41-.3,2.34-3.24.41.29Zm4.09-5.68-.4-.29,2.34-3.25.4.3Zm4.1-5.68-.41-.29,2.34-3.24.41.29ZM295,80.55l-.4-.29L297,77l.4.29Zm4.1-5.67-.41-.3,2.34-3.24.41.29Zm4.09-5.68-.4-.29,2.34-3.25.4.3Zm4.1-5.68-.41-.29L309.25,60l.41.29Zm4.09-5.67-.4-.3,2.34-3.24.4.29Zm4.1-5.68-.41-.29,2.34-3.25.41.29Zm4.09-5.68-.4-.29L321.54,43l.4.3Zm4.1-5.68-.41-.29,2.34-3.24.41.29Zm4.09-5.67-.4-.3,2.34-3.24.4.29Zm4.1-5.68-.41-.29,2.34-3.25.41.29ZM336,23.78l-.4-.29,2.34-3.25.4.3Zm4.1-5.68-.41-.29L342,14.57l.41.29Zm4.09-5.67-.4-.3,2.34-3.24.4.29Zm4.1-5.68-.41-.29,2.34-3.25.41.3Z"/><path class="cls-11" d="M270,245.16h-4v-.5h4Zm-7,0h-4v-.5h4Zm-7,0h-4v-.5h4Zm-7,0h-4v-.5h4Zm-7,0h-4v-.5h4Zm-7,0h-4v-.5h4Zm-7,0h-4v-.5h4Zm-7,0h-4v-.5h4Zm-7,0h-4v-.5h4Zm-7,0h-4v-.5h4Zm-7,0h-4v-.5h4Zm-7,0h-4v-.5h4Zm-7,0h-4v-.5h4Zm-7,0h-4v-.5h4Zm-7,0h-4v-.5h4Zm-7,0h-4v-.5h4Zm-7,0h-4v-.5h4Zm-7,0h-4v-.5h4Zm-7,0h-4v-.5h4Zm-7,0h-4v-.5h4Zm-7,0h-4v-.5h4Zm-7,0h-4v-.5h4Zm-7,0h-4v-.5h4Zm-7,0h-4v-.5h4Zm-7,0H98v-.5h4Zm-7,0H91v-.5h4Zm-7,0H84v-.5h4Zm-7,0H77v-.5h4Zm-7,0H70v-.5h4Zm-7,0H63v-.5h4Zm-7,0H56v-.5h4Zm-7,0H49v-.5h4Zm-7,0H42v-.5h4Zm-7,0H35v-.5h4Zm-7,0H28v-.5h4Zm-7,0H21v-.5h4Zm-7,0H14v-.5h4Zm-7,0H7v-.5h4Zm-7,0H0v-.5H4Z"/><path class="cls-11" d="M271.64,324.9h-.36v-.5h.36a21.45,21.45,0,0,0,3.58-.31l.08.49A21.28,21.28,0,0,1,271.64,324.9Zm-3.38-.27a21,21,0,0,1-3.91-1l.17-.47a20.07,20.07,0,0,0,3.82,1Zm10-.79-.16-.47a20.73,20.73,0,0,0,3.61-1.59l.25.43A21.34,21.34,0,0,1,278.25,323.84Zm-16.66-1.48a21.85,21.85,0,0,1-3.35-2.26l.31-.39a21.09,21.09,0,0,0,3.27,2.21Zm22.89-1.81-.31-.4a20.47,20.47,0,0,0,2.89-2.69l.38.33A21.47,21.47,0,0,1,284.48,320.55ZM256,318a21.16,21.16,0,0,1-2.43-3.23l.43-.26a20.13,20.13,0,0,0,2.37,3.15Zm33.24-2.62-.42-.28a20.1,20.1,0,0,0,1.85-3.49l.46.19A21.11,21.11,0,0,1,289.28,315.39Zm-37.06-3.31a21.57,21.57,0,0,1-1.23-3.85l.49-.1a20.82,20.82,0,0,0,1.2,3.76Zm39.9-3.15-.49-.12a20.41,20.41,0,0,0,.59-3.9l.5,0A20.56,20.56,0,0,1,292.12,308.93Zm-41.55-3.7c0-.48,0-1,0-1.45a22.37,22.37,0,0,1,.16-2.59l.5.06a21.35,21.35,0,0,0-.16,2.53c0,.47,0,1,0,1.41Zm42.18-1.45h-.5a20.5,20.5,0,0,0-.37-3.92l.49-.1A21.64,21.64,0,0,1,292.75,303.78Zm-41-5.43-.48-.14a20.45,20.45,0,0,1,1.43-3.77l.45.22A20.3,20.3,0,0,0,251.75,298.35ZM291.11,297a20.8,20.8,0,0,0-1.65-3.59l.43-.25a21,21,0,0,1,1.69,3.67Zm-36.46-4.89-.41-.29a20.17,20.17,0,0,1,2.6-3.09l.35.35A20.4,20.4,0,0,0,254.65,292.11ZM287.79,291a20.44,20.44,0,0,0-2.74-2.84l.32-.38a20.89,20.89,0,0,1,2.81,2.91Zm-28.35-3.81-.3-.4a21.78,21.78,0,0,1,3.47-2.07l.22.45A21.07,21.07,0,0,0,259.44,287.16Zm23.23-.79a20.44,20.44,0,0,0-3.52-1.79l.18-.46a20.4,20.4,0,0,1,3.61,1.83Zm-17.08-2.3-.15-.48a21.39,21.39,0,0,1,4-.8l.05.49A21.15,21.15,0,0,0,265.59,284.07Zm10.73-.37a21.26,21.26,0,0,0-3.91-.52l0-.5a20.8,20.8,0,0,1,4,.54Z"/><path class="cls-11" d="M388.41,300.27v-.5a15.84,15.84,0,0,0,3.89-.51l.13.48A16.49,16.49,0,0,1,388.41,300.27Zm-3-.25a17,17,0,0,1-3.87-1.19l.21-.46a15.83,15.83,0,0,0,3.75,1.16Zm9.91-1.31-.21-.45a16.21,16.21,0,0,0,3.33-2.09l.31.39A16.47,16.47,0,0,1,395.29,298.71Zm-16.43-1.37a16.49,16.49,0,0,1-3-2.7l.37-.33a15.85,15.85,0,0,0,2.94,2.61Zm22-2.91-.38-.32a16.46,16.46,0,0,0,2.16-3.28l.45.22A16.48,16.48,0,0,1,400.89,294.43Zm-26.84-2.24a16.58,16.58,0,0,1-1.64-3.71l.48-.15a15.85,15.85,0,0,0,1.59,3.6Zm30.16-4-.48-.14a16.33,16.33,0,0,0,.59-3.88l.5,0A16.41,16.41,0,0,1,404.21,288.21Zm-32.4-2.71a17.73,17.73,0,0,1-.09-1.79,17,17,0,0,1,.15-2.26l.5.06a16.26,16.26,0,0,0-.15,2.2,16.56,16.56,0,0,0,.09,1.73Zm33-1.79h-.5a15.88,15.88,0,0,0-.48-3.89l.49-.12A16.8,16.8,0,0,1,404.83,283.71ZM373,278.64l-.48-.15a16.39,16.39,0,0,1,1.74-3.66l.43.27A15.76,15.76,0,0,0,373,278.64ZM402.88,277a16,16,0,0,0-2.07-3.34l.39-.31a16.56,16.56,0,0,1,2.13,3.44Zm-26.35-4.26-.36-.35a16.45,16.45,0,0,1,3.1-2.6l.27.42A16.16,16.16,0,0,0,376.53,272.77Zm22.24-1.21a16.13,16.13,0,0,0-3.26-2.18l.22-.45a16.22,16.22,0,0,1,3.36,2.26Zm-16.62-2.69-.19-.46a16.56,16.56,0,0,1,3.91-1.08l.07.5A16,16,0,0,0,382.15,268.87Zm10.61-.57a15.81,15.81,0,0,0-3.87-.63v-.5a16.31,16.31,0,0,1,4,.65Z"/><path class="cls-11" d="M388.46,221.79v-.49a12.48,12.48,0,0,0,3.75-.61l.16.46A13.22,13.22,0,0,1,388.46,221.79Zm-2.95-.29a12.93,12.93,0,0,1-3.7-1.39l.24-.43a12.58,12.58,0,0,0,3.56,1.35Zm9.55-1.58-.25-.42a12.6,12.6,0,0,0,2.93-2.42l.36.33A13.34,13.34,0,0,1,395.06,219.92Zm-15.65-1.55a12.9,12.9,0,0,1-2.5-3.06l.41-.24a13.36,13.36,0,0,0,2.41,2.94ZM399.83,215l-.43-.23a12.71,12.71,0,0,0,1.33-3.57l.47.1A13.19,13.19,0,0,1,399.83,215Zm-24.14-2.38a13.2,13.2,0,0,1-.62-3.9h.48a12.91,12.91,0,0,0,.6,3.76Zm25.79-4H401a12.6,12.6,0,0,0-.57-3.76l.47-.14A13.49,13.49,0,0,1,401.48,208.58Zm-25.64-2.72-.47-.1a13.11,13.11,0,0,1,1.41-3.69l.42.24A12.85,12.85,0,0,0,375.84,205.86Zm23.44-3.66a12.59,12.59,0,0,0-2.38-3l.33-.36A13.07,13.07,0,0,1,399.7,202ZM378.89,200l-.36-.33a13.15,13.15,0,0,1,3.07-2.49l.24.42A12.88,12.88,0,0,0,378.89,200Zm15.71-2.46a12.62,12.62,0,0,0-3.54-1.37l.1-.48a13.21,13.21,0,0,1,3.68,1.43Zm-10.14-1.09-.15-.47a13.18,13.18,0,0,1,3.9-.6v.48A12.51,12.51,0,0,0,384.46,196.45Z"/><path class="cls-11" d="M537.37,366.87c-.48,0-1,0-1.44,0l0-.5a24.82,24.82,0,0,0,3.95-.09l.05.49A24.82,24.82,0,0,1,537.37,366.87Zm-4.45-.41A23.8,23.8,0,0,1,529,365.4l.17-.47a23.85,23.85,0,0,0,3.81,1Zm10-.23-.12-.49a23.57,23.57,0,0,0,3.76-1.22l.2.46A24.6,24.6,0,0,1,543,366.23Zm-16.7-2a25.76,25.76,0,0,1-3.42-2.14l.3-.4a24.31,24.31,0,0,0,3.35,2.09Zm23.25-.56-.25-.43a24.19,24.19,0,0,0,3.25-2.26l.32.39A25.18,25.18,0,0,1,549.5,363.63Zm-29-3.54a24.84,24.84,0,0,1-2.67-3l.41-.3a23,23,0,0,0,2.61,3Zm34.51-.83-.36-.34a25.34,25.34,0,0,0,2.47-3.09l.41.28A24.5,24.5,0,0,1,555,359.26Zm-38.83-4.73a25.34,25.34,0,0,1-1.69-3.67l.47-.17a24.28,24.28,0,0,0,1.66,3.59Zm42.88-1-.44-.23a24.16,24.16,0,0,0,1.48-3.66l.47.14A23,23,0,0,1,559.08,353.5ZM513.66,348a23.35,23.35,0,0,1-.56-4l.49,0a24.54,24.54,0,0,0,.55,3.91Zm47.65-1.14-.5-.09a23.45,23.45,0,0,0,.36-3.93h.5A24.52,24.52,0,0,1,561.31,346.81Zm.37-4.25h-.5a23.54,23.54,0,0,0-.33-3.94l.49-.08A24.51,24.51,0,0,1,561.68,342.56ZM513.61,341l-.5,0a24.16,24.16,0,0,1,.6-4l.49.11A23.36,23.36,0,0,0,513.61,341Zm46.57-5.23a24.21,24.21,0,0,0-1.44-3.68l.44-.22a23.3,23.3,0,0,1,1.48,3.76Zm-45.12-1.52-.47-.17a23.86,23.86,0,0,1,1.73-3.65l.43.25A23.76,23.76,0,0,0,515.06,334.21Zm42.2-4.73a22.88,22.88,0,0,0-2.44-3.11l.37-.34a24.64,24.64,0,0,1,2.49,3.17Zm-38.87-1.31-.4-.3a24.8,24.8,0,0,1,2.7-3l.34.36A26.26,26.26,0,0,0,518.39,328.17Zm34.28-3.85a24,24,0,0,0-3.22-2.28l.25-.43a24.18,24.18,0,0,1,3.29,2.33Zm-29.36-1-.29-.41a24.14,24.14,0,0,1,3.44-2.1l.23.44A23.9,23.9,0,0,0,523.31,323.34Zm23.49-2.65a24.54,24.54,0,0,0-3.74-1.26l.12-.48a24.48,24.48,0,0,1,3.82,1.28Zm-17.38-.58-.17-.47a25.17,25.17,0,0,1,3.9-1l.09.5A22.84,22.84,0,0,0,529.42,320.11Zm10.72-1.2a24.85,24.85,0,0,0-3.95-.13l0-.5a24.77,24.77,0,0,1,4,.13Z"/><path class="cls-11" d="M858,397.37h-4v-.5h4Zm-7,0h-4v-.5h4Zm-7,0h-4v-.5h4Zm-7,0h-4v-.5h4Zm-7,0h-4v-.5h4Zm-7,0h-4v-.5h4Zm-7,0h-4v-.5h4Zm-7,0h-4v-.5h4Zm-7,0h-4v-.5h4Zm-7,0h-4v-.5h4Zm-7,0h-4v-.5h4Zm-7,0h-4v-.5h4Zm-7,0h-4v-.5h4Zm-7,0h-4v-.5h4Zm-7,0h-4v-.5h4Zm-7,0h-4v-.5h4Zm-7,0h-4v-.5h4Zm-7,0h-4v-.5h4Zm-7,0h-4v-.5h4Zm-7,0h-4v-.5h4Zm-7,0h-4v-.5h4Zm-7,0h-4v-.5h4Zm-7,0h-4v-.5h4Zm-7,0h-4v-.5h4Zm-7,0h-4v-.5h4Zm-7,0h-4v-.5h4Zm-7,0h-4v-.5h4Zm-7,0h-4v-.5h4Zm-7,0h-4v-.5h4Zm-7,0h-4v-.5h4Zm-7,0h-4v-.5h4Zm-7,0h-4v-.5h4Zm-7,0h-4v-.5h4Zm-7,0h-4v-.5h4Zm-7,0h-4v-.5h4Zm-7,0h-4v-.5h4Zm-7,0h-4v-.5h4Zm-7,0h-4v-.5h4Zm-7,0h-4v-.5h4Zm-7,0h-4v-.5h4Zm-7,0h-4v-.5h4Zm-7,0h-4v-.5h4Zm-7,0h-4v-.5h4Zm-7,0h-4v-.5h4Zm-7,0h-4v-.5h4Zm-7,0h-4v-.5h4Zm-7,0h-4v-.5h4Zm-7,0h-4v-.5h4Zm-7,0h-4v-.5h4Zm-7,0h-4v-.5h4Zm-7,0h-4v-.5h4Zm-7,0h-4v-.5h4Zm-7,0h-4v-.5h4Zm-7,0h-4v-.5h4Zm-7,0h-4v-.5h4Zm-7,0h-4v-.5h4Zm-7,0h-4v-.5h4Zm-7,0h-4v-.5h4Zm-7,0h-4v-.5h4Zm-7,0h-4v-.5h4Zm-7,0h-4v-.5h4Zm-7,0h-4v-.5h4Zm-7,0h-4v-.5h4Zm-7,0h-4v-.5h4Zm-7,0h-4v-.5h4Zm-7,0h-4v-.5h4Zm-7,0h-4v-.5h4Zm-7,0h-4v-.5h4Zm-7,0h-4v-.5h4Zm-7,0h-4v-.5h4Zm-7,0h-4v-.5h4Zm-7,0h-4v-.5h4Zm-7,0h-4v-.5h4Zm-7,0h-4v-.5h4Zm-7,0h-4v-.5h4Zm-7,0h-4v-.5h4Zm-7,0h-4v-.5h4Zm-7,0h-4v-.5h4Zm-7,0h-4v-.5h4Zm-7,0h-4v-.5h4Zm-7,0h-4v-.5h4Zm-7,0h-4v-.5h4Zm-7,0h-4v-.5h4Zm-7,0h-4v-.5h4Zm-7,0h-4v-.5h4Zm-7,0h-4v-.5h4Zm-7,0h-4v-.5h4Zm-7,0h-4v-.5h4Zm-7,0h-4v-.5h4Zm-7,0h-4v-.5h4Zm-7,0h-4v-.5h4Zm-7,0h-4v-.5h4Zm-7,0h-4v-.5h4Zm-7,0h-4v-.5h4Zm-7,0h-4v-.5h4Zm-7,0h-4v-.5h4Zm-7,0h-4v-.5h4Zm-7,0h-4v-.5h4Zm-7,0h-4v-.5h4Zm-7,0h-4v-.5h4Zm-7,0h-4v-.5h4Zm-7,0h-4v-.5h4Zm-7,0h-4v-.5h4Zm-7,0h-4v-.5h4Zm-7,0h-4v-.5h4Zm-7,0h-4v-.5h4Zm-7,0h-4v-.5h4Zm-7,0h-4v-.5h4Zm-7,0H98v-.5h4Zm-7,0H91v-.5h4Zm-7,0H84v-.5h4Zm-7,0H77v-.5h4Zm-7,0H70v-.5h4Zm-7,0H63v-.5h4Zm-7,0H56v-.5h4Zm-7,0H49v-.5h4Zm-7,0H42v-.5h4Zm-7,0H35v-.5h4Zm-7,0H28v-.5h4Zm-7,0H21v-.5h4Zm-7,0H14v-.5h4Zm-7,0H7v-.5h4Zm-7,0H0v-.5H4Z"/><path class="cls-11" d="M602.38,277v-.5H606v.5Zm6.62,0v-.5h4v.5Zm7,0v-.5h4v.5Zm7,0v-.5h4v.5Zm7,0v-.5h4v.5Zm7,0v-.5h4v.5Zm7,0v-.5h4v.5Zm7,0v-.5h4v.5Zm7,0v-.5h4v.5Zm7,0v-.5h4v.5Zm7,0v-.5h4v.5Zm7,0v-.5h4v.5Zm7,0v-.5h4v.5Zm7,0v-.5h4v.5Zm7,0v-.5h4v.5Zm7,0v-.5h4v.5Zm7,0v-.5h4v.5Zm7,0v-.5h4v.5Zm7,0v-.5h4v.5Zm7,0v-.5h4v.5Zm7,0v-.5h4v.5Zm7,0v-.5h4v.5Zm7,0v-.5h4v.5Zm7,0v-.5h4v.5Zm7,0v-.5h4v.5Zm7,0v-.5h4v.5Zm7,0v-.5h4v.5Zm7,0v-.5h4v.5Zm7,0v-.5h4v.5Zm7,0v-.5h4v.5Zm7,0v-.5h4v.5Zm7,0v-.5h4v.5Zm7,0v-.5h4v.5Zm7,0v-.5h4v.5Zm7,0v-.5h4v.5Zm7,0v-.5h4v.5Zm7,0v-.5h4v.5Z"/><path class="cls-11" d="M539,186.85v-.5h4v.5Zm7,0v-.5h4v.5Zm7,0v-.5h4v.5Zm7,0v-.5h4v.5Zm7,0v-.5h4v.5Zm7,0v-.5h4v.5Zm7,0v-.5h4v.5Zm7,0v-.5h4v.5Zm7,0v-.5h4v.5Zm7,0v-.5h4v.5Zm7,0v-.5h4v.5Zm7,0v-.5h4v.5Zm7,0v-.5h4v.5Zm7,0v-.5h4v.5Zm7,0v-.5h4v.5Zm7,0v-.5h4v.5Zm7,0v-.5h4v.5Zm7,0v-.5h4v.5Zm7,0v-.5h4v.5Zm7,0v-.5h4v.5Zm7,0v-.5h4v.5Zm7,0v-.5h4v.5Zm7,0v-.5h4v.5Zm7,0v-.5h4v.5Zm7,0v-.5h4v.5Zm7,0v-.5h4v.5Zm7,0v-.5h4v.5Zm7,0v-.5h4v.5Zm7,0v-.5h4v.5Zm7,0v-.5h4v.5Zm7,0v-.5h4v.5Zm7,0v-.5h4v.5Zm7,0v-.5h4v.5Zm7,0v-.5h4v.5Zm7,0v-.5h4v.5Zm7,0v-.5h4v.5Zm7,0v-.5h4v.5Zm7,0v-.5h4v.5Zm7,0v-.5h4v.5Zm7,0v-.5h4v.5Zm7,0v-.5h4v.5Zm7,0v-.5h4v.5Zm7,0v-.5h4v.5Zm7,0v-.5h4v.5Zm7,0v-.5h4v.5Zm7,0v-.5h4v.5Z"/><path class="cls-11" d="M858,159.86h-4v-.5h4Zm-7,0h-4v-.5h4Zm-7,0h-4v-.5h4Zm-7,0h-4v-.5h4Zm-7,0h-4v-.5h4Zm-7,0h-4v-.5h4Zm-7,0h-4v-.5h4Zm-7,0h-4v-.5h4Zm-7,0h-4v-.5h4Zm-7,0h-4v-.5h4Zm-7,0h-4v-.5h4Zm-7,0h-4v-.5h4Zm-7,0h-4v-.5h4Zm-7,0h-4v-.5h4Zm-7,0h-4v-.5h4Zm-7,0h-4v-.5h4Zm-7,0h-4v-.5h4Zm-7,0h-4v-.5h4Zm-7,0h-4v-.5h4Zm-7,0h-4v-.5h4Zm-7,0h-4v-.5h4Zm-7,0h-4v-.5h4Zm-7,0h-4v-.5h4Zm-7,0h-4v-.5h4Zm-7,0h-4v-.5h4Zm-7,0h-4v-.5h4Zm-7,0h-4v-.5h4Zm-7,0h-4v-.5h4Zm-7,0h-4v-.5h4Zm-7,0h-4v-.5h4Zm-7,0h-4v-.5h4Zm-7,0h-4v-.5h4Zm-7,0h-4v-.5h4Zm-7,0h-4v-.5h4Zm-7,0h-4v-.5h4Zm-7,0h-4v-.5h4Zm-7,0h-4v-.5h4Zm-7,0h-4v-.5h4Zm-7,0h-4v-.5h4Zm-7,0h-4v-.5h4Zm-7,0h-4v-.5h4Zm-7,0h-4v-.5h4Zm-7,0h-4v-.5h4Zm-7,0h-4v-.5h4Zm-7,0h-4v-.5h4Zm-7,0h-4v-.5h4Zm-7,0h-4v-.5h4Zm-7,0h-4v-.5h4Zm-7,0h-4v-.5h4Zm-7,0h-4v-.5h4Zm-7,0h-4v-.5h4Zm-7,0h-4v-.5h4Zm-7,0h-4v-.5h4Zm-7,0h-4v-.5h4Zm-7,0h-4v-.5h4Zm-7,0h-4v-.5h4Zm-7,0h-4v-.5h4Zm-7,0h-4v-.5h4Zm-7,0h-4v-.5h4Zm-7,0h-4v-.5h4Zm-7,0h-4v-.5h4Zm-7,0h-4v-.5h4Zm-7,0h-4v-.5h4Zm-7,0h-4v-.5h4Zm-7,0h-4v-.5h4Zm-7,0h-4v-.5h4Zm-7,0h-4v-.5h4Zm-7,0h-.72v-.5H389Z"/><path class="cls-11" d="M318.29,310.52h-4V310h4Zm-7,0h-4V310h4Zm-7,0h-4V310h4Zm-7,0h-4V310h4Zm-7,0h-4V310h4Zm-7,0h-4V310h4Zm-7,0h-4V310h4Zm-7,0h-4V310h4Zm-7,0h-4V310h4Zm-7,0h-4V310h4Zm-7,0h-4V310h4Zm-7,0h-4V310h4Zm-7,0h-4V310h4Zm-7,0h-4V310h4Zm-7,0h-4V310h4Zm-7,0h-4V310h4Zm-7,0h-4V310h4Zm-7,0h-4V310h4Zm-7,0h-4V310h4Zm-7,0h-4V310h4Zm-7,0h-4V310h4Zm-7,0h-4V310h4Zm-7,0h-4V310h4Zm-7,0h-4V310h4Zm-7,0h-4V310h4Zm-7,0h-4V310h4Zm-7,0h-4V310h4Zm-7,0h-4V310h4Zm-7,0h-4V310h4Zm-7,0h-4V310h4Zm-7,0h-4V310h4Zm-7,0h-4V310h4Zm-7,0h-4V310h4Zm-7,0h-4V310h4Zm-7,0h-4V310h4Zm-7,0h-4V310h4Zm-7,0h-4V310h4Zm-7,0h-4V310h4Zm-7,0h-4V310h4Zm-7,0h-4V310h4Zm-7,0h-4V310h4Zm-7,0h-4V310h4Zm-7,0h-4V310h4Zm-7,0h-4V310h4Zm-7,0h-4V310h4Zm-7,0H0V310H3.29Z"/><path class="cls-11" d="M318.29,349.3h-4v-.5h4Zm-7,0h-4v-.5h4Zm-7,0h-4v-.5h4Zm-7,0h-4v-.5h4Zm-7,0h-4v-.5h4Zm-7,0h-4v-.5h4Zm-7,0h-4v-.5h4Zm-7,0h-4v-.5h4Zm-7,0h-4v-.5h4Zm-7,0h-4v-.5h4Zm-7,0h-4v-.5h4Zm-7,0h-4v-.5h4Zm-7,0h-4v-.5h4Zm-7,0h-4v-.5h4Zm-7,0h-4v-.5h4Zm-7,0h-4v-.5h4Zm-7,0h-4v-.5h4Zm-7,0h-4v-.5h4Zm-7,0h-4v-.5h4Zm-7,0h-4v-.5h4Zm-7,0h-4v-.5h4Zm-7,0h-4v-.5h4Zm-7,0h-4v-.5h4Zm-7,0h-4v-.5h4Zm-7,0h-4v-.5h4Zm-7,0h-4v-.5h4Zm-7,0h-4v-.5h4Zm-7,0h-4v-.5h4Zm-7,0h-4v-.5h4Zm-7,0h-4v-.5h4Zm-7,0h-4v-.5h4Zm-7,0h-4v-.5h4Zm-7,0h-4v-.5h4Zm-7,0h-4v-.5h4Zm-7,0h-4v-.5h4Zm-7,0h-4v-.5h4Zm-7,0h-4v-.5h4Zm-7,0h-4v-.5h4Zm-7,0h-4v-.5h4Zm-7,0h-4v-.5h4Zm-7,0h-4v-.5h4Zm-7,0h-4v-.5h4Zm-7,0h-4v-.5h4Zm-7,0h-4v-.5h4Zm-7,0h-4v-.5h4Zm-7,0H0v-.5H3.29Z"/><path class="cls-11" d="M472.75,504h-.5v-3.18h.5Zm0-6.18h-.5v-4h.5Zm0-7h-.5v-4h.5Zm0-7h-.5v-4h.5Zm0-7h-.5v-4h.5Zm0-7h-.5v-4h.5Zm0-7h-.5v-4h.5Zm0-7h-.5v-4h.5Zm0-7h-.5v-4h.5Zm0-7h-.5v-4h.5Zm0-7h-.5v-4h.5Zm0-7h-.5v-4h.5Zm0-7h-.5v-4h.5Zm0-7h-.5v-4h.5Zm0-7h-.5v-4h.5Zm0-7h-.5v-4h.5Zm0-7h-.5v-4h.5Zm0-7h-.5v-4h.5Zm0-7h-.5v-4h.5Zm0-7h-.5v-4h.5Zm0-7h-.5v-4h.5Zm0-7h-.5v-4h.5Zm0-7h-.5v-4h.5Zm0-7h-.5v-4h.5Zm0-7h-.5v-4h.5Zm0-7h-.5v-4h.5Zm0-7h-.5v-4h.5Zm0-7h-.5v-4h.5Zm0-7h-.5v-4h.5Zm0-7h-.5v-4h.5Zm0-7h-.5v-4h.5Zm0-7h-.5v-4h.5Zm0-7h-.5v-4h.5Z"/><path class="cls-11" d="M602.26,504h-.5v-3.18h.5Zm0-6.18h-.5v-4h.5Zm0-7h-.5v-4h.5Zm0-7h-.5v-4h.5Zm0-7h-.5v-4h.5Zm0-7h-.5v-4h.5Zm0-7h-.5v-4h.5Zm0-7h-.5v-4h.5Zm0-7h-.5v-4h.5Zm0-7h-.5v-4h.5Zm0-7h-.5v-4h.5Zm0-7h-.5v-4h.5Zm0-7h-.5v-4h.5Zm0-7h-.5v-4h.5Zm0-7h-.5v-4h.5Zm0-7h-.5v-4h.5Zm0-7h-.5v-4h.5Zm0-7h-.5v-4h.5Zm0-7h-.5v-4h.5Zm0-7h-.5v-4h.5Zm0-7h-.5v-4h.5Zm0-7h-.5v-4h.5Zm0-7h-.5v-4h.5Zm0-7h-.5v-4h.5Zm0-7h-.5v-4h.5Zm0-7h-.5v-4h.5Zm0-7h-.5v-4h.5Zm0-7h-.5v-4h.5Zm0-7h-.5v-4h.5Zm0-7h-.5v-4h.5Zm0-7h-.5v-4h.5Zm0-7h-.5v-4h.5Zm0-7h-.5v-4h.5Z"/><path class="cls-11" d="M733.55,504h-.5v-3.18h.5Zm0-6.18h-.5v-4h.5Zm0-7h-.5v-4h.5Zm0-7h-.5v-4h.5Zm0-7h-.5v-4h.5Zm0-7h-.5v-4h.5Zm0-7h-.5v-4h.5Zm0-7h-.5v-4h.5Zm0-7h-.5v-4h.5Zm0-7h-.5v-4h.5Zm0-7h-.5v-4h.5Zm0-7h-.5v-4h.5Zm0-7h-.5v-4h.5Zm0-7h-.5v-4h.5Zm0-7h-.5v-4h.5Zm0-7h-.5v-4h.5Zm0-7h-.5v-4h.5Zm0-7h-.5v-4h.5Zm0-7h-.5v-4h.5Zm0-7h-.5v-4h.5Zm0-7h-.5v-4h.5Zm0-7h-.5v-4h.5Zm0-7h-.5v-4h.5Zm0-7h-.5v-4h.5Zm0-7h-.5v-4h.5Zm0-7h-.5v-4h.5Zm0-7h-.5v-4h.5Zm0-7h-.5v-4h.5Zm0-7h-.5v-4h.5Zm0-7h-.5v-4h.5Zm0-7h-.5v-4h.5Zm0-7h-.5v-4h.5Zm0-7h-.5v-4h.5Z"/><path class="cls-11" d="M601.77,504.06l-.34-1.32.48-.13.34,1.33Zm-1.09-4.23-1-3.87.48-.13,1,3.88Zm-1.74-6.78-1-3.87.49-.13,1,3.88Zm-1.74-6.78-1-3.87.49-.12,1,3.87Zm-1.75-6.78-1-3.87.48-.12,1,3.87Zm-1.74-6.78-1-3.87.48-.12,1,3.87ZM592,465.93l-1-3.87.49-.12,1,3.87Zm-1.74-6.78-1-3.87.49-.12,1,3.87Zm-1.74-6.77-1-3.88.48-.12,1,3.87Zm-1.75-6.78-1-3.88.48-.12,1,3.87ZM585,438.82l-1-3.88.48-.12,1,3.87ZM583.26,432l-1-3.88.49-.12,1,3.87Zm-1.74-6.78-1-3.88.49-.12,1,3.87Zm-1.75-6.78-1-3.88.48-.12,1,3.87ZM578,411.7l-1-3.88.48-.12,1,3.87Zm-1.74-6.78-1-3.88.49-.12,1,3.87Zm-1.74-6.78-1-3.88.49-.12,1,3.87Zm-1.74-6.78-1-3.88.48-.12,1,3.87Zm-1.75-6.78-1-3.88.48-.12,1,3.87Zm-1.74-6.78-1-3.88.48-.12,1,3.87ZM567.58,371l-1-3.88.49-.12,1,3.87Zm-1.74-6.78-1-3.88.49-.12,1,3.87Zm-1.74-6.78-1-3.88.48-.12,1,3.87Zm-1.75-6.78-1-3.88.48-.12,1,3.87Zm-1.74-6.78-1-3.88.48-.12,1,3.87Zm-1.74-6.78-1-3.87.49-.13,1,3.87Zm-1.74-6.78-1-3.87.49-.13,1,3.88Zm-1.75-6.78-1-3.87.48-.13,1,3.88Zm-1.74-6.78-1-3.87.48-.13,1,3.88ZM551.9,310l-1-3.87.49-.13,1,3.88Zm-1.74-6.78-1-3.87.49-.13,1,3.88Zm-1.74-6.78-1-3.87.48-.13,1,3.88Zm-1.75-6.78-1-3.87.48-.13,1,3.88Zm-1.74-6.78-1-3.87.48-.13,1,3.88Zm-1.74-6.78-1-3.87.49-.13,1,3.88Zm-1.74-6.78-1-3.87.49-.13,1,3.88Zm-1.74-6.78-1-3.87.48-.13,1,3.88ZM538,255.76l-1-3.87.48-.13,1,3.88Z"/><path class="cls-11" d="M472.74,504.06l-.48-.12,1-3.88.48.13Zm1.74-6.78-.48-.12,1-3.88.49.13Zm1.74-6.78-.48-.12,1-3.88.48.13Zm1.74-6.78-.48-.12,1-3.88.48.13Zm1.74-6.78-.48-.12,1-3.88.48.13Zm1.74-6.78L481,470l1-3.88.48.13Zm1.74-6.78-.48-.12,1-3.88.48.13Zm1.74-6.78-.48-.12,1-3.88.48.13Zm1.74-6.78-.48-.12,1-3.88.48.13ZM488.4,443l-.48-.13,1-3.87.48.13Zm1.74-6.78-.48-.13,1-3.87.48.12Zm1.74-6.78-.48-.13,1-3.87.48.12Zm1.74-6.78-.48-.13,1-3.87.48.12Zm1.74-6.78-.48-.13,1-3.87.48.12Zm1.74-6.78-.48-.13,1-3.87.48.12Zm1.74-6.78-.49-.13,1-3.87.48.12Zm1.74-6.78-.48-.13,1-3.87.48.12Zm1.74-6.78-.49-.13,1-3.87.48.12Zm1.74-6.78-.48-.13,1-3.87.48.12Zm1.74-6.78-.49-.13,1-3.87.48.12Zm1.74-6.78-.49-.13,1-3.87.48.12Zm1.74-6.78-.49-.13,1-3.87.48.12ZM511,354.9l-.49-.13,1-3.87.48.12Zm1.74-6.79-.49-.12,1-3.87.48.12Zm1.74-6.78-.49-.12,1-3.87.48.12Zm1.74-6.78-.49-.12,1-3.87.48.12Zm1.74-6.78-.49-.12,1-3.87.48.12Zm1.74-6.78-.49-.12,1-3.88.48.13Zm1.74-6.78-.49-.12,1-3.88.48.13Zm1.74-6.78-.49-.12,1-3.88.48.13Zm1.74-6.78-.49-.12,1-3.88.48.13Zm1.74-6.78-.49-.12,1-3.88.48.13Zm1.74-6.78-.49-.12,1-3.88.48.13Zm1.74-6.78-.49-.12,1-3.88.48.13Zm1.74-6.78-.49-.12,1-3.88.48.13Zm1.74-6.78-.49-.12,1-3.88.48.13Zm1.74-6.78-.49-.12,1-3.88.48.13Zm1.74-6.78-.49-.12.34-1.31.48.13Z"/><path class="cls-11" d="M367.81,168.44a31.62,31.62,0,0,1-4-.37l.08-.49a32.57,32.57,0,0,0,3.95.36Zm3-.07,0-.5a30.42,30.42,0,0,0,3.93-.53l.1.49A29.88,29.88,0,0,1,370.84,168.37Zm-10-.91a32.26,32.26,0,0,1-3.82-1.27l.19-.46A30.63,30.63,0,0,0,361,167Zm16.92-.38-.15-.47a30.67,30.67,0,0,0,3.7-1.42l.21.46A30,30,0,0,1,377.76,167.08Zm-23.48-2.17a31,31,0,0,1-3.44-2.1l.29-.41a30,30,0,0,0,3.38,2.07Zm29.92-.66-.25-.43a31.5,31.5,0,0,0,3.29-2.21l.3.39A30,30,0,0,1,384.2,164.25ZM348.46,161a32.06,32.06,0,0,1-2.88-2.83l.38-.33a32.16,32.16,0,0,0,2.82,2.78Zm41.38-.91-.34-.36a32.08,32.08,0,0,0,2.7-2.9l.39.31A30.68,30.68,0,0,1,389.84,160Zm-46.16-4.27a32.39,32.39,0,0,1-2.16-3.39l.44-.24a30,30,0,0,0,2.13,3.34Zm50.7-1.11-.41-.28a31.48,31.48,0,0,0,2-3.43l.45.22A31,31,0,0,1,394.38,154.66Zm-54.18-5a30,30,0,0,1-1.33-3.8l.48-.14a29.07,29.07,0,0,0,1.31,3.74Zm57.39-1.27-.46-.17a29.64,29.64,0,0,0,1.14-3.8l.49.11A28.63,28.63,0,0,1,397.59,148.39Zm-59.39-5.48a31.52,31.52,0,0,1-.44-4l.5,0a30.43,30.43,0,0,0,.43,3.94Zm61.09-1.35-.49-.06a30.85,30.85,0,0,0,.25-4,29.88,29.88,0,0,0-.22-3.67l.5-.06a30.86,30.86,0,0,1,.22,3.73A29.93,29.93,0,0,1,399.29,141.56Zm-61-5.65-.5,0a31.62,31.62,0,0,1,.47-4l.49.09A30.67,30.67,0,0,0,338.28,135.91Zm60.06-5a31.35,31.35,0,0,0-1.11-3.81l.47-.17a30.57,30.57,0,0,1,1.12,3.87Zm-58.91-1.86-.48-.14a30.06,30.06,0,0,1,1.37-3.79l.46.2A29.13,29.13,0,0,0,339.43,129.08Zm56.64-4.69a30.76,30.76,0,0,0-1.94-3.45l.42-.27a30.92,30.92,0,0,1,2,3.51Zm-54-1.7-.43-.25a32,32,0,0,1,2.19-3.38l.4.3A31.58,31.58,0,0,0,342.1,122.69Zm50.28-4.16a30.7,30.7,0,0,0-2.67-2.92l.35-.36a31.7,31.7,0,0,1,2.71,3Zm-46.22-1.46-.37-.34a29.4,29.4,0,0,1,2.9-2.79l.32.38A29.63,29.63,0,0,0,346.16,117.07Zm41.31-3.42a31.51,31.51,0,0,0-3.27-2.24l.26-.43a31,31,0,0,1,3.32,2.28Zm-36.1-1.14-.29-.41a32,32,0,0,1,3.46-2.07l.23.44A31.53,31.53,0,0,0,351.37,112.51Zm30.21-2.5a30.84,30.84,0,0,0-3.7-1.45l.16-.48a32.44,32.44,0,0,1,3.75,1.48Zm-24.1-.76-.19-.47a32.36,32.36,0,0,1,3.84-1.23l.12.49A29,29,0,0,0,357.48,109.25ZM375,107.8a28.7,28.7,0,0,0-3.92-.57l0-.5a31,31,0,0,1,4,.58Zm-10.84-.34-.08-.5a31.72,31.72,0,0,1,4-.32v.5A30.64,30.64,0,0,0,364.17,107.46Z"/><path class="cls-11" d="M300.6,185.25a19.24,19.24,0,0,1-2.73-.25l.05-.33a20.07,20.07,0,0,0,2.69.24Zm2.06,0,0-.34a21.84,21.84,0,0,0,2.68-.36l.06.33A22.35,22.35,0,0,1,302.66,185.21Zm-6.81-.63a19.79,19.79,0,0,1-2.6-.86l.13-.31a22.58,22.58,0,0,0,2.56.85Zm11.52-.25-.1-.32a20.79,20.79,0,0,0,2.52-1l.14.31A21.42,21.42,0,0,1,307.37,184.33Zm-16-1.48a20.05,20.05,0,0,1-2.34-1.43l.2-.28a19.41,19.41,0,0,0,2.3,1.41Zm20.38-.45-.17-.29a20.78,20.78,0,0,0,2.23-1.51l.21.27A20,20,0,0,1,311.76,182.4Zm-24.34-2.25a20.89,20.89,0,0,1-2-1.92l.26-.23a20.26,20.26,0,0,0,1.92,1.9Zm28.18-.62-.24-.24a20.25,20.25,0,0,0,1.84-2l.27.22A22.12,22.12,0,0,1,315.6,179.53Zm-31.43-2.9a20,20,0,0,1-1.47-2.31l.3-.17a19.9,19.9,0,0,0,1.44,2.28Zm34.52-.76-.28-.19a20,20,0,0,0,1.34-2.34l.31.15A20.09,20.09,0,0,1,318.69,175.87Zm-36.89-3.4a19.89,19.89,0,0,1-.91-2.59l.33-.09a20.65,20.65,0,0,0,.89,2.54Zm39.08-.87-.32-.11a22,22,0,0,0,.78-2.59l.33.08A21.38,21.38,0,0,1,320.88,171.6Zm-40.45-3.73a22.34,22.34,0,0,1-.29-2.73h.34a21.74,21.74,0,0,0,.29,2.68ZM322,167l-.33,0a22.12,22.12,0,0,0,.17-2.7,21,21,0,0,0-.15-2.5l.34,0a21.64,21.64,0,0,1,.15,2.54A20.78,20.78,0,0,1,322,167Zm-41.54-3.85h-.34a20.75,20.75,0,0,1,.32-2.73l.33.06A21.77,21.77,0,0,0,280.49,163.1Zm40.89-3.38a20.77,20.77,0,0,0-.75-2.59L321,157a20.37,20.37,0,0,1,.76,2.64Zm-40.11-1.27-.33-.09a20.89,20.89,0,0,1,.94-2.58l.31.14A20.66,20.66,0,0,0,281.27,158.45Zm38.57-3.19a20.8,20.8,0,0,0-1.32-2.35l.28-.18a21.43,21.43,0,0,1,1.35,2.38Zm-36.75-1.16-.3-.16a20.62,20.62,0,0,1,1.5-2.3l.27.2A20.81,20.81,0,0,0,283.09,154.1Zm34.24-2.83a21.47,21.47,0,0,0-1.82-2l.23-.24a20.79,20.79,0,0,1,1.85,2Zm-31.48-1-.25-.23a20.88,20.88,0,0,1,2-1.91l.22.26A21.48,21.48,0,0,0,285.85,150.28ZM314,148a20.84,20.84,0,0,0-2.22-1.53l.17-.29a21.53,21.53,0,0,1,2.26,1.55Zm-24.58-.78-.19-.28a21.49,21.49,0,0,1,2.35-1.41l.16.31A20.85,20.85,0,0,0,289.4,147.17Zm20.57-1.7a20.76,20.76,0,0,0-2.51-1l.1-.32a19.27,19.27,0,0,1,2.55,1ZM293.56,145l-.13-.32a23.51,23.51,0,0,1,2.62-.84l.08.34A19.67,19.67,0,0,0,293.56,145Zm11.94-1a22,22,0,0,0-2.67-.38l0-.34a20.57,20.57,0,0,1,2.71.39Zm-7.39-.23,0-.33a20.66,20.66,0,0,1,2.73-.23v.34A22.17,22.17,0,0,0,298.11,143.73Z"/><path class="cls-11" d="M435.62,185.25a19.24,19.24,0,0,1-2.73-.25l.05-.33a20.21,20.21,0,0,0,2.69.24Zm2.06,0,0-.34a21.84,21.84,0,0,0,2.68-.36l.06.33A20.53,20.53,0,0,1,437.68,185.21Zm-6.81-.63a21.39,21.39,0,0,1-2.6-.86l.13-.31a22.58,22.58,0,0,0,2.56.85Zm11.52-.25-.1-.32a20.79,20.79,0,0,0,2.52-1l.14.31A21.42,21.42,0,0,1,442.39,184.33Zm-16-1.48a20.05,20.05,0,0,1-2.34-1.43l.2-.28a19.41,19.41,0,0,0,2.3,1.41Zm20.38-.45-.17-.29a20.78,20.78,0,0,0,2.23-1.51l.21.27A20,20,0,0,1,446.78,182.4Zm-24.34-2.25a20.89,20.89,0,0,1-2-1.92l.26-.23a20.26,20.26,0,0,0,1.92,1.9Zm28.18-.62-.24-.24a20.16,20.16,0,0,0,1.84-2l.27.22A22.12,22.12,0,0,1,450.62,179.53Zm-31.43-2.9a21.46,21.46,0,0,1-1.47-2.31l.3-.17a19.9,19.9,0,0,0,1.44,2.28Zm34.52-.76-.28-.19a20,20,0,0,0,1.34-2.34l.31.15A20.09,20.09,0,0,1,453.71,175.87Zm-36.89-3.4a19.89,19.89,0,0,1-.91-2.59l.33-.09a20.65,20.65,0,0,0,.89,2.54Zm39.08-.87-.32-.11a22,22,0,0,0,.78-2.59l.33.08A21.38,21.38,0,0,1,455.9,171.6Zm-40.45-3.73a22.34,22.34,0,0,1-.29-2.73h.34a21.74,21.74,0,0,0,.29,2.68Zm41.6-.92-.33,0a22,22,0,0,0,.17-2.7,21,21,0,0,0-.15-2.5l.34,0a21.64,21.64,0,0,1,.15,2.54A20.78,20.78,0,0,1,457.05,167Zm-41.54-3.85h-.34a20.75,20.75,0,0,1,.32-2.73l.33.06A21.77,21.77,0,0,0,415.51,163.1Zm40.89-3.38a20.77,20.77,0,0,0-.75-2.59L456,157a19.93,19.93,0,0,1,.76,2.64Zm-40.11-1.27-.33-.09a20.89,20.89,0,0,1,.94-2.58l.31.13A21.43,21.43,0,0,0,416.29,158.45Zm38.57-3.19a21.71,21.71,0,0,0-1.32-2.35l.28-.18a20.69,20.69,0,0,1,1.35,2.39Zm-36.75-1.16-.3-.16a21.72,21.72,0,0,1,1.5-2.31l.27.21A22.42,22.42,0,0,0,418.11,154.1Zm34.24-2.83a21.47,21.47,0,0,0-1.82-2l.23-.24a20.79,20.79,0,0,1,1.85,2Zm-31.48-1-.25-.23a20.88,20.88,0,0,1,2-1.91l.22.26A21.48,21.48,0,0,0,420.87,150.28ZM449,148a20.84,20.84,0,0,0-2.22-1.53l.17-.29a21.53,21.53,0,0,1,2.26,1.55Zm-24.58-.78-.19-.28a21.49,21.49,0,0,1,2.35-1.41l.16.31A20.85,20.85,0,0,0,424.42,147.17Zm20.57-1.7a20.76,20.76,0,0,0-2.51-1l.1-.32a19.27,19.27,0,0,1,2.55,1ZM428.58,145l-.12-.32a22.7,22.7,0,0,1,2.61-.84l.08.34A19.67,19.67,0,0,0,428.58,145Zm11.94-1a21.72,21.72,0,0,0-2.67-.38l0-.34a20.57,20.57,0,0,1,2.71.39Zm-7.38-.23-.05-.33a20.8,20.8,0,0,1,2.73-.23v.34A21.84,21.84,0,0,0,433.14,143.73Z"/><path class="cls-11" d="M321.62,167.11a19.24,19.24,0,0,1-2.73-.25l.05-.33a20.07,20.07,0,0,0,2.69.24Zm2.06,0,0-.34a21.84,21.84,0,0,0,2.68-.36l.06.33A20.53,20.53,0,0,1,323.68,167.07Zm-6.81-.62a19.83,19.83,0,0,1-2.6-.87l.13-.31a22.58,22.58,0,0,0,2.56.85Zm11.52-.26-.1-.32a20.79,20.79,0,0,0,2.52-1l.14.31A21.42,21.42,0,0,1,328.39,166.19Zm-16-1.48a20.92,20.92,0,0,1-2.34-1.43l.2-.28a19.41,19.41,0,0,0,2.3,1.41Zm20.38-.45-.17-.29a20.78,20.78,0,0,0,2.23-1.51l.21.27A20,20,0,0,1,332.78,164.26ZM308.44,162a20.89,20.89,0,0,1-2-1.92l.26-.23a21.52,21.52,0,0,0,1.92,1.9Zm28.18-.62-.24-.24a20.25,20.25,0,0,0,1.84-2l.27.22A22.12,22.12,0,0,1,336.62,161.39Zm-31.43-2.9a20.52,20.52,0,0,1-1.47-2.31l.3-.17a19.9,19.9,0,0,0,1.44,2.28Zm34.52-.76-.28-.19a20,20,0,0,0,1.34-2.34l.31.15A20.09,20.09,0,0,1,339.71,157.73Zm-36.89-3.4a19.89,19.89,0,0,1-.91-2.59l.33-.09a20.65,20.65,0,0,0,.89,2.54Zm39.08-.86-.32-.12a21.42,21.42,0,0,0,.78-2.59l.33.08A22.07,22.07,0,0,1,341.9,153.47Zm-40.45-3.74a22.34,22.34,0,0,1-.29-2.73h.34a21.74,21.74,0,0,0,.29,2.68Zm41.6-.92-.33,0a22,22,0,0,0,.17-2.69,20.72,20.72,0,0,0-.15-2.5l.34,0a21.38,21.38,0,0,1,.15,2.54A20.75,20.75,0,0,1,343.05,148.81ZM301.51,145h-.34a20.75,20.75,0,0,1,.32-2.73l.33.06A22,22,0,0,0,301.51,145Zm40.89-3.38a20.77,20.77,0,0,0-.75-2.59l.32-.12a20.37,20.37,0,0,1,.76,2.64Zm-40.11-1.27-.33-.09a20.89,20.89,0,0,1,.94-2.58l.31.14A20.66,20.66,0,0,0,302.29,140.31Zm38.57-3.19a21.71,21.71,0,0,0-1.32-2.35l.28-.18a20.69,20.69,0,0,1,1.35,2.39ZM304.11,136l-.3-.16a20.62,20.62,0,0,1,1.5-2.3l.27.2A22.42,22.42,0,0,0,304.11,136Zm34.24-2.83a21.47,21.47,0,0,0-1.82-2l.23-.24a20.79,20.79,0,0,1,1.85,2Zm-31.48-1-.25-.23a20.88,20.88,0,0,1,2-1.91l.22.26A21.48,21.48,0,0,0,306.87,132.14ZM335,129.81a21.31,21.31,0,0,0-2.22-1.53L333,128a23.17,23.17,0,0,1,2.26,1.55ZM310.42,129l-.19-.28a21.49,21.49,0,0,1,2.35-1.41l.16.31A20.85,20.85,0,0,0,310.42,129Zm20.57-1.7a22.55,22.55,0,0,0-2.51-1l.1-.32a20.75,20.75,0,0,1,2.55,1Zm-16.41-.52-.13-.32a21.55,21.55,0,0,1,2.62-.83l.08.33A19.67,19.67,0,0,0,314.58,126.81Zm11.94-1a22,22,0,0,0-2.67-.38l0-.34a20.57,20.57,0,0,1,2.71.39Zm-7.38-.23-.05-.33a20.8,20.8,0,0,1,2.73-.23v.34A21.84,21.84,0,0,0,319.14,125.59Z"/><path class="cls-11" d="M414.56,167.11a19.24,19.24,0,0,1-2.73-.25l.05-.33a20.21,20.21,0,0,0,2.69.24Zm2.06,0,0-.34a20.07,20.07,0,0,0,2.68-.36l.06.33A20.53,20.53,0,0,1,416.62,167.07Zm-6.81-.62a19.83,19.83,0,0,1-2.6-.87l.13-.31a22.58,22.58,0,0,0,2.56.85Zm11.52-.26-.1-.32a20.17,20.17,0,0,0,2.52-1l.14.31A21.42,21.42,0,0,1,421.33,166.19Zm-16-1.48a20.92,20.92,0,0,1-2.34-1.43l.2-.28a19.41,19.41,0,0,0,2.3,1.41Zm20.38-.45-.17-.29a20.78,20.78,0,0,0,2.23-1.51l.21.27A20,20,0,0,1,425.72,164.26ZM401.38,162a20.89,20.89,0,0,1-2-1.92l.26-.23a21.52,21.52,0,0,0,1.92,1.9Zm28.18-.62-.24-.24a20.25,20.25,0,0,0,1.84-2l.27.22A22.12,22.12,0,0,1,429.56,161.39Zm-31.43-2.9a19.19,19.19,0,0,1-1.47-2.31l.3-.17a19.9,19.9,0,0,0,1.44,2.28Zm34.52-.76-.28-.19a18.63,18.63,0,0,0,1.34-2.34l.31.15A20.09,20.09,0,0,1,432.65,157.73Zm-36.89-3.4a19.89,19.89,0,0,1-.91-2.59l.33-.09a20.65,20.65,0,0,0,.89,2.54Zm39.08-.86-.32-.12a21.42,21.42,0,0,0,.78-2.59l.33.08A22.07,22.07,0,0,1,434.84,153.47Zm-40.45-3.74a22.34,22.34,0,0,1-.29-2.73h.34a21.74,21.74,0,0,0,.29,2.68Zm41.6-.92-.33,0a22,22,0,0,0,.17-2.69,20.72,20.72,0,0,0-.15-2.5l.34-.05a21.68,21.68,0,0,1,.15,2.55A20.75,20.75,0,0,1,436,148.81ZM394.45,145h-.34a20.75,20.75,0,0,1,.32-2.73l.34.06A20.2,20.2,0,0,0,394.45,145Zm40.89-3.38a20.77,20.77,0,0,0-.75-2.59l.32-.12a19.93,19.93,0,0,1,.76,2.64Zm-40.11-1.26-.33-.1a21.49,21.49,0,0,1,.94-2.58l.31.14A20.22,20.22,0,0,0,395.23,140.32Zm38.57-3.2a20.8,20.8,0,0,0-1.32-2.35l.28-.18a20.69,20.69,0,0,1,1.35,2.39ZM397.05,136l-.3-.16a20.62,20.62,0,0,1,1.5-2.3l.27.2A22.42,22.42,0,0,0,397.05,136Zm34.24-2.83a21.47,21.47,0,0,0-1.82-2l.23-.24a20.79,20.79,0,0,1,1.85,2Zm-31.48-1-.25-.23a20.88,20.88,0,0,1,2-1.91l.22.26A21.48,21.48,0,0,0,399.81,132.14Zm28.13-2.33a21.31,21.31,0,0,0-2.22-1.53l.17-.29a22,22,0,0,1,2.26,1.55ZM403.36,129l-.19-.28a21.49,21.49,0,0,1,2.35-1.41l.16.31A20.85,20.85,0,0,0,403.36,129Zm20.57-1.7a22.55,22.55,0,0,0-2.51-1l.1-.32a20.75,20.75,0,0,1,2.55,1Zm-16.41-.52-.13-.32a21.55,21.55,0,0,1,2.62-.83l.08.33A19.2,19.2,0,0,0,407.52,126.81Zm11.94-1a22,22,0,0,0-2.67-.38l0-.34a20.57,20.57,0,0,1,2.71.39Zm-7.38-.23-.05-.33a20.51,20.51,0,0,1,2.73-.23v.34A21.68,21.68,0,0,0,412.08,125.59Z"/><path class="cls-11" d="M333,127.74a8.6,8.6,0,0,1-2.67-.72l.14-.31a8.53,8.53,0,0,0,2.57.7Zm2.08,0,0-.34a8.35,8.35,0,0,0,2.55-.76l.15.3A8.55,8.55,0,0,1,335.09,127.72Zm-6.52-1.79a8.65,8.65,0,0,1-1.88-2l.29-.19a8.39,8.39,0,0,0,1.8,2Zm10.91-.13-.21-.27a8.75,8.75,0,0,0,1.75-2l.29.18A9.06,9.06,0,0,1,339.48,125.8ZM325.76,122a8.61,8.61,0,0,1-.5-2.71h.34a8.31,8.31,0,0,0,.48,2.61Zm16.43-.2-.32-.11a8.31,8.31,0,0,0,.42-2.62,9.66,9.66,0,0,0-.07-1.09l.34,0a10.73,10.73,0,0,1,.07,1.14A8.72,8.72,0,0,1,342.19,121.84Zm-16.41-4.51-.33-.07a8.83,8.83,0,0,1,1-2.58l.29.18A8.48,8.48,0,0,0,325.78,117.33Zm15.94-1.25a8.24,8.24,0,0,0-1.34-2.29l.26-.22A8.58,8.58,0,0,1,342,116ZM328,113.27l-.24-.24a8.52,8.52,0,0,1,2.22-1.64l.15.3A8.25,8.25,0,0,0,328,113.27Zm11-.86a8.38,8.38,0,0,0-2.35-1.23l.11-.32a8.56,8.56,0,0,1,2.45,1.28ZM332,111l-.08-.33a8.84,8.84,0,0,1,2.05-.24,4.26,4.26,0,0,1,.71,0l0,.34a3.87,3.87,0,0,0-.68,0A8.63,8.63,0,0,0,332,111Z"/><path class="cls-11" d="M402.39,127.74a8.46,8.46,0,0,1-2.67-.72l.14-.31a8.39,8.39,0,0,0,2.56.7Zm2.07,0,0-.34a8.37,8.37,0,0,0,2.54-.76l.15.3A8.39,8.39,0,0,1,404.46,127.72Zm-6.52-1.79a8.41,8.41,0,0,1-1.87-2l.28-.19a8.61,8.61,0,0,0,1.8,2Zm10.92-.13-.22-.27a8.29,8.29,0,0,0,1.75-2l.29.18A9,9,0,0,1,408.86,125.8ZM395.14,122a8.34,8.34,0,0,1-.51-2.71H395a8.32,8.32,0,0,0,.49,2.61Zm16.43-.2-.33-.11a8.31,8.31,0,0,0,.42-2.62,7.78,7.78,0,0,0-.07-1.09l.34,0a8.62,8.62,0,0,1,.07,1.14A8.71,8.71,0,0,1,411.57,121.84Zm-16.41-4.51-.34-.07a8.58,8.58,0,0,1,1-2.58l.29.18A8.21,8.21,0,0,0,395.16,117.33Zm15.94-1.25a8.28,8.28,0,0,0-1.35-2.29l.27-.22a8.83,8.83,0,0,1,1.4,2.39Zm-13.76-2.81-.24-.24a8.69,8.69,0,0,1,2.22-1.64l.16.3A8.47,8.47,0,0,0,397.34,113.27Zm11-.86a8.43,8.43,0,0,0-2.36-1.23l.11-.32a8.43,8.43,0,0,1,2.45,1.28Zm-7-1.42-.08-.33a8.69,8.69,0,0,1,2-.24,4.34,4.34,0,0,1,.72,0l0,.34c-.23,0-.45,0-.68,0h0A8.61,8.61,0,0,0,401.35,111Z"/><path class="cls-11" d="M333,218a8.62,8.62,0,0,1-2.67-.73l.14-.31a8.25,8.25,0,0,0,2.57.7Zm2.08,0,0-.33a8.37,8.37,0,0,0,2.55-.77l.15.31A8.81,8.81,0,0,1,335.09,218Zm-6.52-1.78a9.06,9.06,0,0,1-1.88-2L327,214a8.34,8.34,0,0,0,1.8,2Zm10.91-.14-.21-.26a8.59,8.59,0,0,0,1.75-2l.29.18A8.66,8.66,0,0,1,339.48,216Zm-13.72-3.75a8.67,8.67,0,0,1-.5-2.72h.34a8.2,8.2,0,0,0,.48,2.61Zm16.43-.21-.32-.11a8.26,8.26,0,0,0,.42-2.62,10,10,0,0,0-.07-1.09l.34,0a10.55,10.55,0,0,1,.07,1.13A8.72,8.72,0,0,1,342.19,212.07Zm-16.41-4.51-.33-.07a8.88,8.88,0,0,1,1-2.57l.29.17A8.48,8.48,0,0,0,325.78,207.56Zm15.94-1.24a8.24,8.24,0,0,0-1.34-2.29l.26-.22a8.67,8.67,0,0,1,1.4,2.38ZM328,203.51l-.24-.24a8.56,8.56,0,0,1,2.22-1.65l.15.3A8.52,8.52,0,0,0,328,203.51Zm11-.86a8.12,8.12,0,0,0-2.35-1.23l.11-.33a8.85,8.85,0,0,1,2.45,1.29Zm-7-1.42-.08-.34a8.84,8.84,0,0,1,2.05-.24l.71,0,0,.34c-.22,0-.45,0-.68,0h0A8.11,8.11,0,0,0,332,201.23Z"/><path class="cls-11" d="M321.62,203.1a19.24,19.24,0,0,1-2.73-.25l.05-.33a20.07,20.07,0,0,0,2.69.24Zm2.06,0,0-.34a21.84,21.84,0,0,0,2.68-.36l.06.33A20.53,20.53,0,0,1,323.68,203.06Zm-6.81-.62a21.44,21.44,0,0,1-2.6-.87l.13-.31a22.58,22.58,0,0,0,2.56.85Zm11.52-.26-.1-.32a20.79,20.79,0,0,0,2.52-1l.14.31A21.42,21.42,0,0,1,328.39,202.18Zm-16-1.48a20.05,20.05,0,0,1-2.34-1.43l.2-.28a19.41,19.41,0,0,0,2.3,1.41Zm20.38-.45-.17-.29a20.78,20.78,0,0,0,2.23-1.51l.21.27A20,20,0,0,1,332.78,200.25ZM308.44,198a20.89,20.89,0,0,1-2-1.92l.26-.23a21.52,21.52,0,0,0,1.92,1.9Zm28.18-.62-.24-.24a20.25,20.25,0,0,0,1.84-2l.27.22A22.12,22.12,0,0,1,336.62,197.38Zm-31.43-2.9a20,20,0,0,1-1.47-2.31l.3-.17a19.9,19.9,0,0,0,1.44,2.28Zm34.52-.76-.28-.19a20,20,0,0,0,1.34-2.34l.31.15A20.09,20.09,0,0,1,339.71,193.72Zm-36.89-3.4a19.89,19.89,0,0,1-.91-2.59l.33-.09a20.65,20.65,0,0,0,.89,2.54Zm39.08-.86-.32-.12a22,22,0,0,0,.78-2.59l.33.08A22.07,22.07,0,0,1,341.9,189.46Zm-40.45-3.74a22.34,22.34,0,0,1-.29-2.73h.34a21.74,21.74,0,0,0,.29,2.68Zm41.6-.92-.33,0a22,22,0,0,0,.17-2.69,20.72,20.72,0,0,0-.15-2.5l.34,0a21.68,21.68,0,0,1,.15,2.55A20.75,20.75,0,0,1,343.05,184.8ZM301.51,181h-.34a20.75,20.75,0,0,1,.32-2.73l.33.06A21.77,21.77,0,0,0,301.51,181Zm40.89-3.38a20.77,20.77,0,0,0-.75-2.59l.32-.12a20.37,20.37,0,0,1,.76,2.64Zm-40.11-1.27-.33-.09a20.89,20.89,0,0,1,.94-2.58l.31.14A20.66,20.66,0,0,0,302.29,176.3Zm38.57-3.19a21.71,21.71,0,0,0-1.32-2.35l.28-.18a20.69,20.69,0,0,1,1.35,2.39ZM304.11,172l-.3-.16a20.62,20.62,0,0,1,1.5-2.3l.27.2A22.42,22.42,0,0,0,304.11,172Zm34.24-2.83a21.47,21.47,0,0,0-1.82-2l.23-.24a20.79,20.79,0,0,1,1.85,2Zm-31.48-1-.25-.23a20.88,20.88,0,0,1,2-1.91l.22.26A21.48,21.48,0,0,0,306.87,168.13ZM335,165.8a19.87,19.87,0,0,0-2.22-1.53L333,164a23.17,23.17,0,0,1,2.26,1.55ZM310.42,165l-.19-.28a21.49,21.49,0,0,1,2.35-1.41l.16.31A20.85,20.85,0,0,0,310.42,165Zm20.57-1.7a20.76,20.76,0,0,0-2.51-1l.1-.32a20.75,20.75,0,0,1,2.55,1Zm-16.41-.52-.12-.32a20.86,20.86,0,0,1,2.61-.83l.08.33A19.67,19.67,0,0,0,314.58,162.8Zm11.94-1a21.72,21.72,0,0,0-2.67-.38l0-.34a20.57,20.57,0,0,1,2.71.39Zm-7.38-.23-.05-.33a20.8,20.8,0,0,1,2.73-.23v.34A21.84,21.84,0,0,0,319.14,161.58Z"/><path class="cls-11" d="M367.81,222.15a31.62,31.62,0,0,1-4-.37l.08-.49a32.57,32.57,0,0,0,3.95.36Zm3-.07,0-.5a30.42,30.42,0,0,0,3.93-.53l.1.49A31.61,31.61,0,0,1,370.84,222.08Zm-10-.92A30.49,30.49,0,0,1,357,219.9l.19-.47a29.07,29.07,0,0,0,3.76,1.25Zm16.92-.37-.15-.48a29,29,0,0,0,3.7-1.41l.21.46A31.6,31.6,0,0,1,377.76,220.79Zm-23.48-2.17a31,31,0,0,1-3.44-2.1l.29-.41a30,30,0,0,0,3.38,2.07ZM384.2,218l-.25-.43a30.09,30.09,0,0,0,3.29-2.22l.3.4A30,30,0,0,1,384.2,218Zm-35.74-3.3a32.06,32.06,0,0,1-2.88-2.83l.38-.33a32.16,32.16,0,0,0,2.82,2.78Zm41.38-.91-.34-.37a29.61,29.61,0,0,0,2.7-2.9l.39.32A31.91,31.91,0,0,1,389.84,213.75Zm-46.16-4.27a31.51,31.51,0,0,1-2.16-3.4l.44-.24a30.07,30.07,0,0,0,2.13,3.35Zm50.7-1.11-.41-.28a32.46,32.46,0,0,0,2-3.43l.45.22A31.93,31.93,0,0,1,394.38,208.37Zm-54.18-5a32.43,32.43,0,0,1-1.33-3.81l.48-.13a29.07,29.07,0,0,0,1.31,3.74Zm57.39-1.27-.46-.17a30.13,30.13,0,0,0,1.14-3.8l.49.11A29.07,29.07,0,0,1,397.59,202.1Zm-59.39-5.48a31.72,31.72,0,0,1-.44-4l.5,0a32.29,32.29,0,0,0,.43,3.94Zm61.09-1.35-.49-.07a30.58,30.58,0,0,0,.25-3.95,29.88,29.88,0,0,0-.22-3.67l.5-.06a30.86,30.86,0,0,1,.22,3.73A30,30,0,0,1,399.29,195.27Zm-61-5.65-.5,0a31.41,31.41,0,0,1,.47-4l.49.09A30.47,30.47,0,0,0,338.28,189.62Zm60.06-5a31.35,31.35,0,0,0-1.11-3.81l.47-.17a30.57,30.57,0,0,1,1.12,3.87Zm-58.91-1.86-.48-.14a30.06,30.06,0,0,1,1.37-3.79l.46.2A29.13,29.13,0,0,0,339.43,182.79Zm56.64-4.69a29.9,29.9,0,0,0-1.94-3.45l.42-.28a32.75,32.75,0,0,1,2,3.51Zm-54-1.7-.43-.25a31,31,0,0,1,2.19-3.38l.4.3A31.58,31.58,0,0,0,342.1,176.4Zm50.28-4.16a30.81,30.81,0,0,0-2.67-2.93l.35-.36a30.6,30.6,0,0,1,2.71,3Zm-46.22-1.46-.37-.34a30.7,30.7,0,0,1,2.9-2.8l.32.39A28.48,28.48,0,0,0,346.16,170.78Zm41.31-3.42a31.6,31.6,0,0,0-3.27-2.25l.26-.43a32.63,32.63,0,0,1,3.32,2.29Zm-36.1-1.14-.29-.41a30.41,30.41,0,0,1,3.46-2.07l.23.44A30,30,0,0,0,351.37,166.22Zm30.21-2.5a29.25,29.25,0,0,0-3.7-1.45l.16-.48a32.37,32.37,0,0,1,3.75,1.47Zm-24.1-.77-.19-.46a30.63,30.63,0,0,1,3.84-1.23l.12.48A30.65,30.65,0,0,0,357.48,163ZM375,161.51a30.37,30.37,0,0,0-3.92-.58l0-.49a29.36,29.36,0,0,1,4,.58Zm-10.84-.35-.08-.49a31.73,31.73,0,0,1,4-.33v.5A30.64,30.64,0,0,0,364.17,161.16Z"/><path class="cls-11" d="M130.23,503.27h-.5v-4h.5Zm0-7h-.5v-4h.5Zm0-7h-.5v-4h.5Zm0-7h-.5v-4h.5Zm0-7h-.5v-4h.5Zm0-7h-.5v-4h.5Zm0-7h-.5v-4h.5Zm0-7h-.5v-4h.5Zm0-7h-.5v-4h.5Zm0-7h-.5v-4h.5Zm0-7h-.5v-4h.5Zm0-7h-.5v-4h.5Zm0-7h-.5v-4h.5Zm0-7h-.5v-4h.5Zm0-7h-.5v-4h.5Zm0-7h-.5v-4h.5Zm0-7h-.5v-4h.5Zm0-7h-.5v-4h.5Zm0-7h-.5v-4h.5Zm0-7h-.5v-4h.5Zm0-7h-.5v-4h.5Zm0-7h-.5v-4h.5Zm0-7h-.5v-4h.5Zm0-7h-.5v-4h.5Zm0-7h-.5v-4h.5Zm0-7h-.5v-4h.5Zm0-7h-.5v-4h.5Zm0-7h-.5v-4h.5Z"/><path class="cls-11" d="M224.92,503.27h-.5v-4h.5Zm0-7h-.5v-4h.5Zm0-7h-.5v-4h.5Zm0-7h-.5v-4h.5Zm0-7h-.5v-4h.5Zm0-7h-.5v-4h.5Zm0-7h-.5v-4h.5Zm0-7h-.5v-4h.5Zm0-7h-.5v-4h.5Zm0-7h-.5v-4h.5Zm0-7h-.5v-4h.5Zm0-7h-.5v-4h.5Zm0-7h-.5v-4h.5Zm0-7h-.5v-4h.5Zm0-7h-.5v-4h.5Zm0-7h-.5v-4h.5Zm0-7h-.5v-4h.5Zm0-7h-.5v-4h.5Zm0-7h-.5v-4h.5Zm0-7h-.5v-4h.5Zm0-7h-.5v-4h.5Zm0-7h-.5v-4h.5Zm0-7h-.5v-4h.5Zm0-7h-.5v-4h.5Zm0-7h-.5v-4h.5Zm0-7h-.5v-4h.5Zm0-7h-.5v-4h.5Zm0-7h-.5v-4h.5Z"/><path class="cls-11" d="M318.53,503.27H318v-4h.5Zm0-7H318v-4h.5Zm0-7H318v-4h.5Zm0-7H318v-4h.5Zm0-7H318v-4h.5Zm0-7H318v-4h.5Zm0-7H318v-4h.5Zm0-7H318v-4h.5Zm0-7H318v-4h.5Zm0-7H318v-4h.5Zm0-7H318v-4h.5Zm0-7H318v-4h.5Zm0-7H318v-4h.5Zm0-7H318v-4h.5Zm0-7H318v-4h.5Zm0-7H318v-4h.5Zm0-7H318v-4h.5Zm0-7H318v-4h.5Zm0-7H318v-4h.5Zm0-7H318v-4h.5Zm0-7H318v-4h.5Zm0-7H318v-4h.5Zm0-7H318v-4h.5Zm0-7H318v-4h.5Zm0-7H318v-4h.5Zm0-7H318v-4h.5Zm0-7H318v-4h.5Zm0-7H318v-4h.5Z"/><path class="cls-11" d="M291.44,502.87H291v-3.58h.45Zm0-6.26H291V493h.45Zm0-6.26H291v-3.58h.45Zm0-6.26H291v-3.58h.45Zm0-6.26H291v-3.58h.45Zm0-6.26H291V468h.45Zm0-6.26H291v-3.58h.45Zm0-6.26H291v-3.58h.45Zm0-6.26H291v-3.58h.45Zm0-6.26H291V443h.45Zm0-6.26H291v-3.58h.45Zm0-6.26H291v-3.58h.45Zm0-6.26H291v-3.58h.45Zm0-6.26H291v-3.58h.45Zm0-6.26H291v-3.58h.45Zm0-6.26H291v-3.58h.45Zm0-6.26H291v-3.58h.45Zm0-6.26H291v-3.58h.45Zm0-6.26H291v-3.58h.45Zm0-6.26H291v-3.58h.45Zm0-6.26H291v-3.58h.45Zm0-6.27H291v-3.57h.45Zm0-6.26H291v-3.57h.45Zm0-6.26H291v-3.57h.45Zm0-6.26H291v-3.57h.45Z"/><path class="cls-11" d="M271.86,502.87h-.45v-3.58h.45Zm0-6.26h-.45V493h.45Zm0-6.26h-.45v-3.58h.45Zm0-6.26h-.45v-3.58h.45Zm0-6.26h-.45v-3.58h.45Zm0-6.26h-.45V468h.45Zm0-6.26h-.45v-3.58h.45Zm0-6.26h-.45v-3.58h.45Zm0-6.26h-.45v-3.58h.45Zm0-6.26h-.45V443h.45Zm0-6.26h-.45v-3.58h.45Zm0-6.26h-.45v-3.58h.45Zm0-6.26h-.45v-3.58h.45Zm0-6.26h-.45v-3.58h.45Zm0-6.26h-.45v-3.58h.45Zm0-6.26h-.45v-3.58h.45Zm0-6.26h-.45v-3.58h.45Zm0-6.26h-.45v-3.58h.45Zm0-6.26h-.45v-3.58h.45Zm0-6.26h-.45v-3.58h.45Zm0-6.26h-.45v-3.58h.45Zm0-6.27h-.45v-3.57h.45Zm0-6.26h-.45v-3.57h.45Zm0-6.26h-.45v-3.57h.45Zm0-6.26h-.45v-3.57h.45Z"/><path class="cls-11" d="M621.91,215.72h-.5v-4h.5Zm0-7h-.5v-4h.5Zm0-7h-.5v-4h.5Zm0-7h-.5v-4h.5Zm0-7h-.5v-4h.5Zm0-7h-.5v-4h.5Zm0-7h-.5v-4h.5Zm0-7h-.5v-4h.5Zm0-7h-.5v-4h.5Zm0-7h-.5v-4h.5Zm0-7h-.5v-4h.5Zm0-7h-.5v-4h.5Zm0-7h-.5v-4h.5Zm0-7h-.5v-4h.5Zm0-7h-.5v-4h.5Zm0-7h-.5v-4h.5Zm0-7h-.5v-4h.5Zm0-7h-.5v-4h.5Zm0-7h-.5v-4h.5Zm0-7h-.5v-4h.5Zm0-7h-.5v-4h.5Z"/><path class="cls-11" d="M649.44,215.72h-.5v-4h.5Zm0-7h-.5v-4h.5Zm0-7h-.5v-4h.5Zm0-7h-.5v-4h.5Zm0-7h-.5v-4h.5Zm0-7h-.5v-4h.5Zm0-7h-.5v-4h.5Zm0-7h-.5v-4h.5Zm0-7h-.5v-4h.5Zm0-7h-.5v-4h.5Zm0-7h-.5v-4h.5Zm0-7h-.5v-4h.5Zm0-7h-.5v-4h.5Zm0-7h-.5v-4h.5Zm0-7h-.5v-4h.5Zm0-7h-.5v-4h.5Zm0-7h-.5v-4h.5Zm0-7h-.5v-4h.5Zm0-7h-.5v-4h.5Zm0-7h-.5v-4h.5Zm0-7h-.5v-4h.5Zm0-7h-.5v-4h.5Zm0-7h-.5v-4h.5Zm0-7h-.5v-4h.5Zm0-7h-.5v-4h.5Zm0-7h-.5v-4h.5Zm0-7h-.5V31.35h.5Z"/><path class="cls-11" d="M642.56,215.72h-.5v-4h.5Zm0-7h-.5v-4h.5Zm0-7h-.5v-4h.5Zm0-7h-.5v-4h.5Zm0-7h-.5v-4h.5Zm0-7h-.5v-4h.5Zm0-7h-.5v-4h.5Zm0-7h-.5v-4h.5Zm0-7h-.5v-4h.5Zm0-7h-.5v-4h.5Zm0-7h-.5v-4h.5Zm0-7h-.5v-4h.5Zm0-7h-.5v-4h.5Zm0-7h-.5v-4h.5Zm0-7h-.5v-4h.5Zm0-7h-.5v-4h.5Zm0-7h-.5v-4h.5Zm0-7h-.5v-4h.5Zm0-7h-.5v-4h.5Zm0-7h-.5v-4h.5Zm0-7h-.5v-4h.5Zm0-7h-.5v-4h.5Zm0-7h-.5v-4h.5Zm0-7h-.5v-4h.5Zm0-7h-.5v-4h.5Zm0-7h-.5v-4h.5Zm0-7h-.5V31.35h.5Z"/></g></g></svg>