<svg xmlns="http://www.w3.org/2000/svg" viewBox="0 0 504 504"><defs><style>.cls-1{isolation:isolate;}.cls-2{fill:#efefef;}.cls-3{fill:#ffc200;}.cls-4{fill:#005de5;}.cls-5{fill:#e2bda8;}.cls-6{fill:#ccc;mix-blend-mode:multiply;}.cls-7{fill:#e2e2e2;}.cls-8{fill:#ff4800;}.cls-9{fill:#fff;}.cls-10,.cls-11,.cls-12{stroke:#000;stroke-miterlimit:10;}.cls-10{stroke-width:3px;}.cls-11{stroke-width:5.02px;}.cls-12{stroke-width:2.18px;}</style></defs><title>material-81</title><g class="cls-1"><g id="Layer_1" data-name="Layer 1"><path class="cls-2" d="M291.16,119H291a21.52,21.52,0,0,0-29.64-16.77,9,9,0,0,1-11.45-4,31.64,31.64,0,0,0-55.57,0,9,9,0,0,1-11.45,4A21.52,21.52,0,0,0,153.2,119H153a21.5,21.5,0,0,0,0,43h.22a21.5,21.5,0,0,0,29.64,16.76,9,9,0,0,1,11.45,4,31.63,31.63,0,0,0,55.57,0,9,9,0,0,1,11.45-4A21.5,21.5,0,0,0,291,162h.21a21.5,21.5,0,1,0,0-43Z"/><polygon class="cls-3" points="307.62 238.3 194.54 238.3 138.03 317.16 138.03 422.3 251.03 422.3 251.03 317.16 307.62 238.3"/><polygon class="cls-4" points="364.12 317.16 307.62 238.3 250.91 317.16 250.91 422.3 364.12 422.3 364.12 317.16"/><rect class="cls-5" x="207.07" y="223.42" width="30" height="42"/><rect class="cls-6" x="229.57" y="223.42" width="7.5" height="42"/><rect x="202.63" y="212.92" width="38.89" height="10.5" rx="5.25"/><polygon class="cls-7" points="162.54 342.3 113.59 342.3 89.08 376.62 89.08 422.3 138.03 422.3 138.03 376.62 162.54 342.3"/><polygon class="cls-4" points="186.99 376.62 162.56 342.48 138.03 376.62 138.03 422.3 186.99 422.3 186.99 376.62"/><path class="cls-8" d="M153.05,400.56a15.76,15.76,0,0,1-30,0Z"/><rect class="cls-9" x="127.7" y="400.56" width="3.31" height="3.31"/><rect class="cls-9" x="131.94" y="400.56" width="3.31" height="3.31"/><rect class="cls-9" x="136.18" y="400.56" width="3.31" height="3.31"/><rect class="cls-9" x="140.42" y="400.56" width="3.31" height="3.31"/><rect class="cls-9" x="144.66" y="400.56" width="3.31" height="3.31"/><line class="cls-10" x1="154.02" y1="364.32" x2="170.96" y2="364.32"/><line class="cls-10" x1="106.78" y1="364.32" x2="123.72" y2="364.32"/><line class="cls-11" x1="174.68" y1="288.6" x2="222.07" y2="288.6"/><path d="M236.55,368.48a12.63,12.63,0,0,0-1.18.7,31.15,31.15,0,0,1-32.13-3.36,31.14,31.14,0,0,0,45.61,26h0a13.2,13.2,0,0,0-12.31-23.36Z"/><polygon class="cls-8" points="373.96 288.3 291.97 288.3 250.92 345.77 250.92 422.3 332.92 422.3 332.92 345.77 373.96 288.3"/><polygon class="cls-4" points="414.92 345.77 374 288.6 332.92 345.77 332.92 422.3 414.92 422.3 414.92 345.77"/><line class="cls-12" x1="294.75" y1="332.71" x2="294.75" y2="319.3"/><line class="cls-12" x1="299.25" y1="333.5" x2="303.83" y2="320.89"/><line class="cls-12" x1="303.24" y1="335.81" x2="311.89" y2="325.56"/><line class="cls-12" x1="290.26" y1="333.5" x2="285.68" y2="320.89"/><line class="cls-12" x1="286.27" y1="335.81" x2="277.62" y2="325.56"/><line class="cls-12" x1="373.88" y1="332.71" x2="373.88" y2="319.3"/><line class="cls-12" x1="378.38" y1="333.5" x2="382.96" y2="320.89"/><line class="cls-12" x1="382.37" y1="335.81" x2="391.02" y2="325.56"/><line class="cls-12" x1="369.38" y1="333.5" x2="364.8" y2="320.89"/><line class="cls-12" x1="365.39" y1="335.81" x2="356.75" y2="325.56"/><rect x="363.95" y="376.68" width="22.75" height="45.63"/><path class="cls-9" d="M198.38,299.14a41.49,41.49,0,0,0-34.29,18.16,41.44,41.44,0,0,0,68.58,0A41.5,41.5,0,0,0,198.38,299.14Z"/><circle cx="198.38" cy="317.3" r="9.12"/><path class="cls-9" d="M294.75,332.71a30.37,30.37,0,0,0-25.05,13.17,30.42,30.42,0,0,0,50.11,0A30.37,30.37,0,0,0,294.75,332.71Z"/><circle cx="294.75" cy="345.88" r="6.61"/><path class="cls-9" d="M373.88,332.71a30.36,30.36,0,0,0-25.05,13.17,30.42,30.42,0,0,0,50.11,0A30.37,30.37,0,0,0,373.88,332.71Z"/><circle cx="373.88" cy="345.88" r="6.61"/><path class="cls-9" d="M100.14,376.68a18.45,18.45,0,0,0,30.22,0Z"/><path class="cls-9" d="M147.25,376.68a18.7,18.7,0,0,0,30.48,0Z"/><path class="cls-9" d="M115.25,368.81a18.52,18.52,0,0,0-15.11,7.87l15.11,3.94,15.11-3.94A18.52,18.52,0,0,0,115.25,368.81Z"/><path class="cls-9" d="M162.49,368.81a18.72,18.72,0,0,0-15.24,7.87l15.24,3.94,15.24-3.94A18.73,18.73,0,0,0,162.49,368.81Z"/><circle cx="162.49" cy="376.68" r="3.95"/><circle cx="115.25" cy="376.68" r="3.95"/></g></g></svg>