<svg xmlns="http://www.w3.org/2000/svg" xmlns:xlink="http://www.w3.org/1999/xlink" viewBox="0 0 504 504"><defs><style>.cls-1{fill:none;}.cls-2{fill:#f7e9e2;}.cls-3{fill:#fff;}.cls-4{clip-path:url(#clip-path);}.cls-5{fill:#2056e9;}.cls-6{fill:#ff4800;}.cls-7{clip-path:url(#clip-path-2);}.cls-8{clip-path:url(#clip-path-3);}.cls-9{fill:#fbad9b;}.cls-10{fill:#efc6ad;}.cls-11{clip-path:url(#clip-path-4);}.cls-12{fill:#0c4f24;}.cls-13{fill:#fdc215;}</style><clipPath id="clip-path"><path class="cls-1" d="M256,396.77v-49c0-50.66,41.33-92.11,92-92.11h-.14c50.66,0,92,41.45,92,92.11v49Z"/></clipPath><clipPath id="clip-path-2"><path class="cls-1" d="M281.31,396.77V339.11c0-59.56-49.09-108.29-108.66-108.29h-.06c-59.56,0-108.36,48.73-108.36,108.29v57.66Z"/></clipPath><clipPath id="clip-path-3"><path class="cls-1" d="M280.52,397.56V339.91c0-59.57-48.93-108.3-108.5-108.3h-.14c-59.56,0-108.44,48.73-108.44,108.3v57.65Z"/></clipPath><clipPath id="clip-path-4"><path class="cls-1" d="M335.19,397.77v-33a62.28,62.28,0,0,0-62.08-62.19h.33c-34.2,0-61.85,28-61.85,62.19v33Z"/></clipPath></defs><title>material-78</title><g id="Layer_2" data-name="Layer 2"><rect class="cls-2" width="504" height="504"/></g><g id="Layer_1" data-name="Layer 1"><path class="cls-3" d="M280.52,397.56V339.11c0-59.56-48.7-108.29-108.26-108.29H172c-59.57,0-108.56,48.73-108.56,108.29v58.45Z"/><path class="cls-3" d="M255.17,397.56V347.75c0-50.66,41.73-92.11,92.39-92.11H348c50.66,0,92.56,41.45,92.56,92.11v49.81Z"/><g class="cls-4"><ellipse cx="347.83" cy="219.48" rx="119.94" ry="60.75"/></g><polyline class="cls-3" points="366.93 257.83 299.94 269.64 288.98 207.49 314.25 154.97 381.92 143.04 423.64 183.75 434.6 245.9 366.93 257.83"/><polygon class="cls-5" points="366.93 257.83 355.97 195.68 314.25 154.97 288.98 207.49 299.94 269.64 366.93 257.83"/><circle class="cls-6" cx="347.87" cy="336.76" r="40.66"/><g class="cls-7"><ellipse cx="172.29" cy="188.3" rx="141.02" ry="71.43"/></g><g class="cls-8"><rect class="cls-9" x="42.84" y="373.54" width="258.28" height="10"/><rect class="cls-9" x="42.84" y="346.61" width="258.28" height="10"/><rect class="cls-9" x="42.84" y="321.25" width="258.28" height="10"/><rect class="cls-9" x="42.84" y="294.32" width="258.28" height="10"/><rect class="cls-9" x="42.84" y="268.96" width="258.28" height="10"/></g><polyline class="cls-3" points="170.92 241.2 249.68 255.09 262.57 182.01 232.85 120.26 153.29 106.23 104.24 154.1 91.36 227.17 170.92 241.2"/><polygon class="cls-10" points="170.92 241.2 183.8 168.13 232.85 120.26 262.57 182.01 249.68 255.09 170.92 241.2"/><polygon class="cls-5" points="183.8 168.13 104.24 154.1 153.29 106.23 232.85 120.26 183.8 168.13"/><path class="cls-3" d="M335.6,397.77v-33a62.28,62.28,0,0,0-62.08-62.19h.33c-34.2,0-61.85,28-61.85,62.19v33Z"/><rect class="cls-10" x="360.93" y="189.23" width="68.71" height="63.11" transform="translate(-32.33 71.99) rotate(-10)"/><g class="cls-11"><ellipse cx="273.22" cy="278.12" rx="80.98" ry="41.01"/><circle class="cls-12" cx="211.59" cy="377.49" r="11.99"/></g><circle class="cls-12" cx="244.83" cy="336.03" r="11.99"/><circle class="cls-12" cx="273.39" cy="376.99" r="11.99"/><circle class="cls-12" cx="303.7" cy="352.52" r="11.99"/><polyline class="cls-3" points="270.46 304.22 315.69 296.25 308.29 254.28 280.13 226.8 234.44 234.85 217.38 270.31 224.78 312.28 270.46 304.22"/><polygon class="cls-13" points="270.46 304.22 263.06 262.26 280.13 226.8 308.29 254.28 315.69 296.25 270.46 304.22"/></g></svg>