<svg xmlns="http://www.w3.org/2000/svg" viewBox="0 0 504 504"><defs><style>.cls-1{isolation:isolate;}.cls-2{fill:#e9f919;}.cls-3{fill:#000060;}.cls-4{fill:#e2bda8;}.cls-5{fill:#ccc;mix-blend-mode:multiply;}.cls-6{fill:#ff7f00;}.cls-7{fill:#1ccdf7;}.cls-8{fill:#fff;}</style></defs><title>material-80</title><g class="cls-1"><g id="Layer_1" data-name="Layer 1"><path d="M291.16,119H291a21.52,21.52,0,0,0-29.64-16.77,9,9,0,0,1-11.45-4,31.64,31.64,0,0,0-55.57,0,9,9,0,0,1-11.45,4A21.52,21.52,0,0,0,153.2,119H153a21.5,21.5,0,0,0,0,43h.22a21.5,21.5,0,0,0,29.64,16.76,9,9,0,0,1,11.45,4,31.63,31.63,0,0,0,55.57,0,9,9,0,0,1,11.45-4A21.5,21.5,0,0,0,291,162h.21a21.5,21.5,0,1,0,0-43Z"/><polygon class="cls-2" points="307.62 238.3 194.54 238.3 138.03 317.16 138.03 422.3 251.03 422.3 251.03 317.16 307.62 238.3"/><polygon class="cls-3" points="364.12 317.16 307.62 238.3 250.91 317.16 250.91 422.3 364.12 422.3 364.12 317.16"/><rect class="cls-4" x="207.07" y="223.42" width="30" height="42"/><rect class="cls-5" x="229.57" y="223.42" width="7.5" height="42"/><rect x="207.07" y="212.92" width="30" height="10.5"/><polygon class="cls-6" points="373.96 288.3 291.97 288.3 250.92 345.77 250.92 422.3 348.83 422.3 348.83 345.77 373.96 288.3"/><polygon class="cls-3" points="414.92 345.77 374 288.6 332.92 345.77 332.92 422.3 414.92 422.3 414.92 345.77"/><polygon class="cls-3" points="162.54 342.3 113.59 342.3 89.08 376.62 89.08 422.3 138.03 422.3 138.03 376.62 162.54 342.3"/><polygon class="cls-7" points="186.99 376.62 162.56 342.48 138.03 376.62 138.03 422.3 186.99 422.3 186.99 376.62"/><path class="cls-6" d="M153.05,400.56a15.76,15.76,0,0,1-30,0Z"/><path class="cls-8" d="M198.38,299.14a41.49,41.49,0,0,0-34.29,18.16,41.44,41.44,0,0,0,68.58,0A41.5,41.5,0,0,0,198.38,299.14Z"/><circle cx="198.38" cy="317.3" r="9.12"/><path class="cls-8" d="M294.75,332.71a30.37,30.37,0,0,0-25.05,13.17,30.42,30.42,0,0,0,50.11,0A30.37,30.37,0,0,0,294.75,332.71Z"/><circle cx="294.75" cy="345.88" r="6.61"/><path class="cls-8" d="M373.88,332.71a30.36,30.36,0,0,0-25.05,13.17,30.42,30.42,0,0,0,50.11,0A30.37,30.37,0,0,0,373.88,332.71Z"/><circle cx="373.88" cy="345.88" r="6.61"/><path class="cls-8" d="M100.14,376.68a18.45,18.45,0,0,0,30.22,0Z"/><path class="cls-8" d="M147.25,376.68a18.7,18.7,0,0,0,30.48,0Z"/><path class="cls-8" d="M115.25,368.81a18.52,18.52,0,0,0-15.11,7.87l15.11,3.94,15.11-3.94A18.52,18.52,0,0,0,115.25,368.81Z"/><path class="cls-8" d="M162.49,368.81a18.72,18.72,0,0,0-15.24,7.87l15.24,3.94,15.24-3.94A18.73,18.73,0,0,0,162.49,368.81Z"/><circle cx="162.49" cy="376.68" r="3.95"/><circle cx="115.25" cy="376.68" r="3.95"/></g></g></svg>