<svg xmlns="http://www.w3.org/2000/svg" xmlns:xlink="http://www.w3.org/1999/xlink" viewBox="0 0 858 504"><defs><style>.cls-1{fill:none;}.cls-2{fill:#f7e9e2;}.cls-3{fill:#fff;}.cls-4{clip-path:url(#clip-path);}.cls-5{fill:#2056e9;}.cls-6{fill:#ff4800;}.cls-7{clip-path:url(#clip-path-2);}.cls-8{clip-path:url(#clip-path-3);}.cls-9{fill:#fbad9b;}.cls-10{fill:#efc6ad;}.cls-11{clip-path:url(#clip-path-4);}.cls-12{fill:#0c4f24;}.cls-13{fill:#fdc215;}</style><clipPath id="clip-path"><path class="cls-1" d="M434.09,428.42V368.69c0-61.74,50.37-112.25,112.11-112.25H546c61.74,0,112.07,50.51,112.07,112.25v59.73Z"/></clipPath><clipPath id="clip-path-2"><path class="cls-1" d="M465,428.42V358.16c0-72.59-59.83-132-132.42-132h-.08c-72.59,0-132,59.39-132,132v70.26Z"/></clipPath><clipPath id="clip-path-3"><path class="cls-1" d="M464,429.39V359.13c0-72.59-59.63-132-132.22-132h-.18c-72.58,0-132.15,59.39-132.15,132v70.26Z"/></clipPath><clipPath id="clip-path-4"><path class="cls-1" d="M530.64,429.64V389.37c0-41.68-34-75.79-75.65-75.79h.41c-41.68,0-75.38,34.11-75.38,75.79v40.27Z"/></clipPath></defs><title>material-78</title><g id="Layer_2" data-name="Layer 2"><rect class="cls-2" width="858" height="504"/></g><g id="Layer_1" data-name="Layer 1"><path class="cls-3" d="M464,429.39V358.16c0-72.59-59.35-132-131.94-132h-.31c-72.59,0-132.3,59.39-132.3,132v71.23Z"/><path class="cls-3" d="M433.13,429.39v-60.7c0-61.74,50.85-112.25,112.59-112.25h.54c61.74,0,112.8,50.51,112.8,112.25v60.7Z"/><g class="cls-4"><ellipse cx="546.05" cy="212.37" rx="146.17" ry="74.03"/></g><polyline class="cls-3" points="569.32 259.11 487.68 273.5 474.33 197.76 505.13 133.75 587.6 119.21 638.43 168.82 651.79 244.57 569.32 259.11"/><polygon class="cls-5" points="569.32 259.11 555.97 183.37 505.13 133.75 474.33 197.76 487.68 273.5 569.32 259.11"/><circle class="cls-6" cx="546.09" cy="355.29" r="49.55"/><g class="cls-7"><ellipse cx="332.12" cy="174.37" rx="171.85" ry="87.04"/></g><g class="cls-8"><rect class="cls-9" x="174.37" y="400.12" width="314.76" height="12.19"/><rect class="cls-9" x="174.37" y="367.29" width="314.76" height="12.19"/><rect class="cls-9" x="174.37" y="336.4" width="314.76" height="12.19"/><rect class="cls-9" x="174.37" y="303.57" width="314.76" height="12.19"/><rect class="cls-9" x="174.37" y="272.67" width="314.76" height="12.19"/></g><polyline class="cls-3" points="330.45 238.84 426.44 255.76 442.14 166.71 405.92 91.46 308.97 74.36 249.2 132.69 233.5 221.74 330.45 238.84"/><polygon class="cls-10" points="330.45 238.84 346.15 149.79 405.92 91.46 442.14 166.71 426.44 255.76 330.45 238.84"/><polygon class="cls-5" points="346.15 149.79 249.2 132.69 308.97 74.36 405.92 91.46 346.15 149.79"/><path class="cls-3" d="M531.14,429.64V389.37c0-41.68-34-75.79-75.65-75.79h.41c-41.68,0-75.38,34.11-75.38,75.79v40.27Z"/><rect class="cls-10" x="562.01" y="175.51" width="83.74" height="76.91" transform="translate(-27.98 108.11) rotate(-10)"/><g class="cls-11"><ellipse cx="455.12" cy="283.83" rx="98.68" ry="49.98"/><circle class="cls-12" cx="380.02" cy="404.92" r="14.61"/></g><circle class="cls-12" cx="420.53" cy="354.4" r="14.61"/><circle class="cls-12" cx="455.33" cy="404.32" r="14.61"/><circle class="cls-12" cx="492.27" cy="374.49" r="14.61"/><polyline class="cls-3" points="451.76 315.64 506.88 305.92 497.86 254.78 463.54 221.29 407.87 231.11 387.07 274.32 396.09 325.46 451.76 315.64"/><polygon class="cls-13" points="451.76 315.64 442.74 264.5 463.54 221.29 497.86 254.78 506.88 305.92 451.76 315.64"/></g></svg>