<svg xmlns="http://www.w3.org/2000/svg" viewBox="0 0 858 504"><defs><style>.cls-1{fill:#c3f2fa;}.cls-2{fill:#fff;}.cls-3{fill:#136d35;}.cls-4{fill:#043113;}.cls-5{fill:#efc6ad;}.cls-6{fill:#ff4000;}.cls-7{fill:#2056e9;}.cls-8{fill:#f8d373;}</style></defs><title>material-73</title><g id="Layer_2" data-name="Layer 2"><rect class="cls-1" width="858" height="504"/></g><g id="Layer_1" data-name="Layer 1"><path class="cls-2" d="M475.21,171H475a21,21,0,0,0-28.91-16.35,8.8,8.8,0,0,1-11.17-3.92,30.87,30.87,0,0,0-54.22,0,8.8,8.8,0,0,1-11.17,3.92A21,21,0,0,0,340.62,171h-.21a21,21,0,0,0,0,41.94h.21a21,21,0,0,0,28.91,16.35,8.8,8.8,0,0,1,11.17,3.92,30.87,30.87,0,0,0,54.22,0,8.8,8.8,0,0,1,11.17-3.92A21,21,0,0,0,475,212.89h.21a21,21,0,1,0,0-41.94Z"/><path class="cls-2" d="M337.21,131.74h-.11a11.09,11.09,0,0,0-15.28-8.64,4.66,4.66,0,0,1-5.91-2.08,16.32,16.32,0,0,0-28.66,0,4.66,4.66,0,0,1-5.9,2.08,11.09,11.09,0,0,0-15.28,8.64H266a11.09,11.09,0,1,0,0,22.17h.11a11.09,11.09,0,0,0,15.28,8.65,4.64,4.64,0,0,1,5.9,2.07,16.32,16.32,0,0,0,28.66,0,4.65,4.65,0,0,1,5.91-2.07,11.09,11.09,0,0,0,15.28-8.65h.11a11.09,11.09,0,0,0,0-22.17Z"/><path class="cls-3" d="M259.55,336.22l16.81-155.33,16.81,155.33a16.91,16.91,0,1,1-33.62,3.64A17.71,17.71,0,0,1,259.55,336.22Z"/><path class="cls-3" d="M293.17,298.48,276.36,444,259.55,298.48a16.92,16.92,0,1,1,33.62-3.88A18,18,0,0,1,293.17,298.48Z"/><path class="cls-4" d="M316,340l13.44-109.25L342.92,340A13.55,13.55,0,1,1,316,340Z"/><path class="cls-4" d="M342.92,293.42,329.47,444,316,293.42A13.5,13.5,0,1,1,342.92,291,13.85,13.85,0,0,1,342.92,293.42Z"/><path d="M734.57,452.13c0,4.57-165.65,8.27-370,8.27s-262.34-3.7-262.34-8.27,58-8.28,262.34-8.28S734.57,447.56,734.57,452.13Z"/><path class="cls-5" d="M598.69,384.54,457.27,297.63c-26.7-16.41-60.8,4.12-58.78,35.4l5.73,89-46.05,26.78a1.79,1.79,0,0,0,.86,3.37l52.22-.26,36.26.19V354.71l83,97.05"/><polygon points="441.77 347.32 447.51 354.71 447.51 432.35 442.18 432.32 441.77 347.32"/><path class="cls-5" d="M420.77,220.64h0a2.23,2.23,0,0,0,1.1,2.75l14.3,7.09h0a11.86,11.86,0,0,0,5.24,15.28l112.9,60.53,16.15-26.93-146.76-60A2.23,2.23,0,0,0,420.77,220.64Z"/><path class="cls-2" d="M622.57,324l58.2,128.22h39.35a1.82,1.82,0,0,0,.76-3.46l-29.17-13.57-35.18-128.5a54,54,0,0,0-52.34-39.62h0a53.85,53.85,0,0,0-53.14,49.08l-7.72,90.63L156.64,419.49l-27.36-51.42a1.8,1.8,0,0,0-3.37.87l.26,82.82,323.89.45H535.8l76.9-.12a22.32,22.32,0,0,0,22.22-20.35l5.72-67.88"/><polygon points="636.14 417.89 631.32 343.21 640.64 363.86 636.14 417.89"/><path d="M606.05,276.63a99.06,99.06,0,0,0,24.33-3,53.74,53.74,0,0,0-50.47-.49A98.4,98.4,0,0,0,606.05,276.63Z"/><polygon class="cls-6" points="597.73 202.55 572.03 225.79 564.46 263.39 604.83 271.53 612.41 233.93 597.73 202.55"/><polygon class="cls-2" points="635.33 210.13 597.73 202.55 612.41 233.93 634.28 238.34 650.01 241.5 635.33 210.13"/><rect class="cls-7" x="608.24" y="237.34" width="38.36" height="38.36" transform="translate(63.05 -118.9) rotate(11.39)"/><path class="cls-8" d="M575.32,44.72h0a5.65,5.65,0,0,0,8.57,1.35h0a5.64,5.64,0,0,1,9.22,3h0A5.66,5.66,0,0,0,600.85,53h0a5.65,5.65,0,0,1,7.85,5.7h0a5.64,5.64,0,0,0,6.13,6.14h0a5.65,5.65,0,0,1,5.7,7.85h0a5.66,5.66,0,0,0,3.94,7.73h0a5.65,5.65,0,0,1,3,9.23h0a5.65,5.65,0,0,0,1.36,8.57h0a5.65,5.65,0,0,1,0,9.7h0a5.65,5.65,0,0,0-1.36,8.57h0a5.65,5.65,0,0,1-3,9.23h0a5.66,5.66,0,0,0-3.94,7.73h0a5.64,5.64,0,0,1-5.7,7.85h0a5.65,5.65,0,0,0-6.13,6.14h0a5.65,5.65,0,0,1-7.85,5.7h0a5.66,5.66,0,0,0-7.74,3.94h0a5.64,5.64,0,0,1-9.22,3h0a5.65,5.65,0,0,0-8.57,1.36h0a5.66,5.66,0,0,1-9.71,0h0a5.65,5.65,0,0,0-8.57-1.36h0a5.65,5.65,0,0,1-9.23-3h0a5.65,5.65,0,0,0-7.73-3.94h0a5.65,5.65,0,0,1-7.85-5.7h0a5.65,5.65,0,0,0-6.13-6.14h0a5.65,5.65,0,0,1-5.71-7.85h0a5.65,5.65,0,0,0-3.94-7.73h0a5.65,5.65,0,0,1-3-9.23h0a5.65,5.65,0,0,0-1.36-8.57h0a5.64,5.64,0,0,1,0-9.7h0a5.65,5.65,0,0,0,1.36-8.57h0a5.65,5.65,0,0,1,3-9.23h0a5.65,5.65,0,0,0,3.94-7.73h0a5.65,5.65,0,0,1,5.71-7.85h0a5.64,5.64,0,0,0,6.13-6.14h0a5.65,5.65,0,0,1,7.85-5.7h0a5.65,5.65,0,0,0,7.73-3.94h0a5.65,5.65,0,0,1,9.23-3h0a5.65,5.65,0,0,0,8.57-1.35h0A5.65,5.65,0,0,1,575.32,44.72Z"/></g></svg>