<svg xmlns="http://www.w3.org/2000/svg" viewBox="0 0 504 504"><defs><style>.cls-1{isolation:isolate;}.cls-2{fill:#efefef;}.cls-3{fill:#ffc200;}.cls-4{fill:#005de5;}.cls-5{fill:#e2bda8;}.cls-6{fill:#ccc;mix-blend-mode:multiply;}.cls-7{fill:#e2e2e2;}.cls-8{fill:#fff;}.cls-9{fill:#ff4800;}</style></defs><title>material-81</title><g class="cls-1"><g id="Layer_1" data-name="Layer 1"><path class="cls-2" d="M291.16,119H291a21.52,21.52,0,0,0-29.64-16.77,9,9,0,0,1-11.45-4,31.64,31.64,0,0,0-55.57,0,9,9,0,0,1-11.45,4A21.52,21.52,0,0,0,153.2,119H153a21.5,21.5,0,0,0,0,43h.22a21.5,21.5,0,0,0,29.64,16.76,9,9,0,0,1,11.45,4,31.63,31.63,0,0,0,55.57,0,9,9,0,0,1,11.45-4A21.5,21.5,0,0,0,291,162h.21a21.5,21.5,0,1,0,0-43Z"/><polygon class="cls-3" points="307.62 238.3 194.54 238.3 138.03 317.16 138.03 422.3 251.03 422.3 251.03 317.16 307.62 238.3"/><polygon class="cls-4" points="364.12 317.16 307.62 238.3 250.91 317.16 250.91 422.3 364.12 422.3 364.12 317.16"/><rect class="cls-5" x="207.07" y="223.42" width="30" height="42"/><rect class="cls-6" x="229.57" y="223.42" width="7.5" height="42"/><rect x="202.63" y="212.92" width="38.89" height="10.5" rx="5.25"/><polygon class="cls-7" points="162.54 342.3 113.59 342.3 89.08 376.62 89.08 422.3 138.03 422.3 138.03 376.62 162.54 342.3"/><polygon class="cls-4" points="186.99 376.62 162.56 342.48 138.03 376.62 138.03 422.3 186.99 422.3 186.99 376.62"/><ellipse class="cls-8" cx="115.25" cy="376.68" rx="14.96" ry="7.86"/><circle cx="115.25" cy="376.68" r="3.95"/><ellipse class="cls-8" cx="162.49" cy="376.68" rx="14.96" ry="7.86"/><circle cx="162.49" cy="376.68" r="3.95"/><path class="cls-9" d="M153.05,400.56a15.76,15.76,0,0,1-30,0Z"/><ellipse class="cls-8" cx="198.38" cy="317.3" rx="34.56" ry="18.16"/><circle cx="198.38" cy="317.3" r="9.12"/><rect class="cls-8" x="127.7" y="400.56" width="3.31" height="3.31"/><rect class="cls-8" x="131.94" y="400.56" width="3.31" height="3.31"/><rect class="cls-8" x="136.18" y="400.56" width="3.31" height="3.31"/><rect class="cls-8" x="140.42" y="400.56" width="3.31" height="3.31"/><rect class="cls-8" x="144.66" y="400.56" width="3.31" height="3.31"/><rect x="154.02" y="362.82" width="16.94" height="3"/><rect x="106.78" y="362.82" width="16.94" height="3"/><rect x="174.68" y="286.09" width="47.39" height="5.02"/><path d="M236.55,368.48a12.63,12.63,0,0,0-1.18.7,31.15,31.15,0,0,1-32.13-3.36,31.14,31.14,0,0,0,45.61,26h0a13.2,13.2,0,0,0-12.31-23.36Z"/><ellipse class="cls-8" cx="307.52" cy="317.3" rx="34.56" ry="18.16"/><circle cx="307.52" cy="317.3" r="9.12"/><polygon class="cls-9" points="373.96 288.3 291.97 288.3 250.92 345.77 250.92 422.3 332.92 422.3 332.92 345.77 373.96 288.3"/><polygon class="cls-4" points="414.92 345.77 374 288.6 332.92 345.77 332.92 422.3 414.92 422.3 414.92 345.77"/><rect x="293.67" y="319.3" width="2.17" height="13.41"/><line x1="299.25" y1="333.5" x2="303.83" y2="320.89"/><rect x="294.84" y="326.11" width="13.41" height="2.17" transform="translate(-108.96 498.87) rotate(-70.03)"/><line x1="303.24" y1="335.81" x2="311.89" y2="325.56"/><rect x="300.86" y="329.59" width="13.41" height="2.18" transform="translate(-143.5 352.72) rotate(-49.87)"/><line x1="290.26" y1="333.5" x2="285.68" y2="320.89"/><rect x="286.88" y="320.49" width="2.17" height="13.41" transform="translate(-94.43 118.01) rotate(-19.97)"/><line x1="286.27" y1="335.81" x2="277.62" y2="325.56"/><rect x="280.86" y="323.98" width="2.18" height="13.41" transform="translate(-146.77 259.62) rotate(-40.14)"/><ellipse class="cls-8" cx="294.75" cy="345.88" rx="25.05" ry="13.17"/><circle cx="294.75" cy="345.88" r="6.61"/><rect x="372.79" y="319.3" width="2.17" height="13.41"/><line x1="378.38" y1="333.5" x2="382.96" y2="320.89"/><rect x="373.96" y="326.11" width="13.41" height="2.17" transform="translate(-56.86 573.24) rotate(-70.03)"/><line x1="382.37" y1="335.81" x2="391.02" y2="325.56"/><rect x="379.99" y="329.59" width="13.41" height="2.18" transform="translate(-115.37 413.22) rotate(-49.87)"/><line x1="369.38" y1="333.5" x2="364.8" y2="320.89"/><rect x="366.01" y="320.49" width="2.17" height="13.41" transform="translate(-89.67 145.03) rotate(-19.97)"/><line x1="365.39" y1="335.81" x2="356.75" y2="325.56"/><rect x="359.98" y="323.98" width="2.18" height="13.41" transform="translate(-128.13 310.63) rotate(-40.14)"/><ellipse class="cls-8" cx="373.88" cy="345.88" rx="25.05" ry="13.17"/><circle cx="373.88" cy="345.88" r="6.61"/><rect x="363.95" y="376.68" width="22.75" height="45.63"/></g></g></svg>