<svg xmlns="http://www.w3.org/2000/svg" xmlns:xlink="http://www.w3.org/1999/xlink" viewBox="0 0 504 504"><defs><style>.cls-1{isolation:isolate;}.cls-2{fill:#efefef;}.cls-3{fill:url(#linear-gradient);}.cls-4{fill:url(#linear-gradient-2);}.cls-5{fill:#e2bda8;}.cls-6{fill:#ccc;mix-blend-mode:multiply;}.cls-7{fill:url(#linear-gradient-3);}.cls-8{fill:url(#linear-gradient-4);}.cls-9{fill:url(#linear-gradient-5);}.cls-10{fill:url(#linear-gradient-6);}.cls-11{fill:#ff4800;}.cls-12{fill:#fff;}</style><linearGradient id="linear-gradient" x1="138.03" y1="330.3" x2="307.62" y2="330.3" gradientUnits="userSpaceOnUse"><stop offset="0" stop-color="#ff0"/><stop offset="1" stop-color="#ff4000"/></linearGradient><linearGradient id="linear-gradient-2" x1="250.91" y1="330.3" x2="364.12" y2="330.3" xlink:href="#linear-gradient"/><linearGradient id="linear-gradient-3" x1="250.92" y1="355.3" x2="373.96" y2="355.3" gradientUnits="userSpaceOnUse"><stop offset="0" stop-color="#ff4000"/><stop offset="1" stop-color="#841c00"/></linearGradient><linearGradient id="linear-gradient-4" x1="332.92" y1="355.45" x2="414.92" y2="355.45" xlink:href="#linear-gradient-3"/><linearGradient id="linear-gradient-5" x1="89.08" y1="382.3" x2="162.54" y2="382.3" gradientUnits="userSpaceOnUse"><stop offset="0" stop-color="#747279"/><stop offset="1" stop-color="#e6dddd"/></linearGradient><linearGradient id="linear-gradient-6" x1="138.03" y1="382.39" x2="186.99" y2="382.39" xlink:href="#linear-gradient-5"/></defs><title>material-84</title><g class="cls-1"><g id="Layer_1" data-name="Layer 1"><path class="cls-2" d="M291.16,119H291a21.52,21.52,0,0,0-29.64-16.77,9,9,0,0,1-11.45-4,31.64,31.64,0,0,0-55.57,0,9,9,0,0,1-11.45,4A21.52,21.52,0,0,0,153.2,119H153a21.5,21.5,0,0,0,0,43h.22a21.5,21.5,0,0,0,29.64,16.76,9,9,0,0,1,11.45,4,31.63,31.63,0,0,0,55.57,0,9,9,0,0,1,11.45-4A21.5,21.5,0,0,0,291,162h.21a21.5,21.5,0,1,0,0-43Z"/><polygon class="cls-3" points="307.62 238.3 194.54 238.3 138.03 317.16 138.03 422.3 251.03 422.3 251.03 317.16 307.62 238.3"/><polygon class="cls-4" points="364.12 317.16 307.62 238.3 250.91 317.16 250.91 422.3 364.12 422.3 364.12 317.16"/><rect class="cls-5" x="207.07" y="223.42" width="30" height="42"/><rect class="cls-6" x="229.57" y="223.42" width="7.5" height="42"/><rect x="207.07" y="212.92" width="30" height="10.5"/><polygon class="cls-7" points="373.96 288.3 291.97 288.3 250.92 345.77 250.92 422.3 332.92 422.3 332.92 345.77 373.96 288.3"/><polygon class="cls-8" points="414.92 345.77 374 288.6 332.92 345.77 332.92 422.3 414.92 422.3 414.92 345.77"/><polygon class="cls-9" points="162.54 342.3 113.59 342.3 89.08 376.62 89.08 422.3 138.03 422.3 138.03 376.62 162.54 342.3"/><polygon class="cls-10" points="186.99 376.62 162.56 342.48 138.03 376.62 138.03 422.3 186.99 422.3 186.99 376.62"/><path class="cls-11" d="M153.05,400.56a15.76,15.76,0,0,1-30,0Z"/><path class="cls-12" d="M198.38,299.14a41.49,41.49,0,0,0-34.29,18.16,41.44,41.44,0,0,0,68.58,0A41.5,41.5,0,0,0,198.38,299.14Z"/><circle cx="198.38" cy="317.3" r="9.12"/><path class="cls-12" d="M294.75,332.71a30.37,30.37,0,0,0-25.05,13.17,30.42,30.42,0,0,0,50.11,0A30.37,30.37,0,0,0,294.75,332.71Z"/><circle cx="294.75" cy="345.88" r="6.61"/><path class="cls-12" d="M373.88,332.71a30.36,30.36,0,0,0-25.05,13.17,30.42,30.42,0,0,0,50.11,0A30.37,30.37,0,0,0,373.88,332.71Z"/><circle cx="373.88" cy="345.88" r="6.61"/><path class="cls-12" d="M100.14,376.68a18.45,18.45,0,0,0,30.22,0Z"/><path class="cls-12" d="M147.25,376.68a18.7,18.7,0,0,0,30.48,0Z"/><path class="cls-12" d="M115.25,368.81a18.52,18.52,0,0,0-15.11,7.87l15.11,3.94,15.11-3.94A18.52,18.52,0,0,0,115.25,368.81Z"/><path class="cls-12" d="M162.49,368.81a18.72,18.72,0,0,0-15.24,7.87l15.24,3.94,15.24-3.94A18.73,18.73,0,0,0,162.49,368.81Z"/><circle cx="162.49" cy="376.68" r="3.95"/><circle cx="115.25" cy="376.68" r="3.95"/></g></g></svg>