<svg xmlns="http://www.w3.org/2000/svg" viewBox="0 0 858 504"><defs><style>.cls-1{fill:#c3f2fa;}.cls-2{fill:#fdc215;}.cls-3{fill:#2056e9;}.cls-4{fill:#fff;}.cls-5{fill:#20a651;}.cls-6{fill:#f1eada;}</style></defs><title>material-74</title><g id="Layer_2" data-name="Layer 2"><rect class="cls-1" x="0.89" width="857.11" height="504"/></g><g id="Layer_1" data-name="Layer 1"><rect class="cls-2" x="296.8" y="74.36" width="264.39" height="355.28"/><rect class="cls-3" x="328.93" y="138.62" width="200.13" height="251.54"/><path class="cls-4" d="M383.35,178.06a47.43,47.43,0,0,0-39.12,20.56,47.49,47.49,0,0,0,78.23,0A47.42,47.42,0,0,0,383.35,178.06Z"/><circle cx="383.35" cy="198.62" r="10.33"/><path class="cls-4" d="M475.29,178.06a47.44,47.44,0,0,0-39.12,20.56,47.49,47.49,0,0,0,78.23,0A47.42,47.42,0,0,0,475.29,178.06Z"/><circle cx="475.29" cy="198.62" r="10.33"/><polygon class="cls-5" points="414.8 361.55 383.08 329.83 394.11 318.8 414.8 339.48 481.41 272.87 492.44 283.91 414.8 361.55"/><rect class="cls-6" x="373" y="74.36" width="112.92" height="33.97"/></g></svg>