<svg xmlns="http://www.w3.org/2000/svg" viewBox="0 0 504 504"><defs><style>.cls-1{isolation:isolate;}.cls-2{fill:none;}.cls-2,.cls-3,.cls-4{stroke:#000;stroke-miterlimit:10;stroke-width:3px;}.cls-3,.cls-4{fill:#fff;}.cls-4{mix-blend-mode:multiply;}</style></defs><title>material-82</title><g class="cls-1"><g id="Layer_1" data-name="Layer 1"><path class="cls-2" d="M291.16,119H291a21.52,21.52,0,0,0-29.64-16.77,9,9,0,0,1-11.45-4,31.64,31.64,0,0,0-55.57,0,9,9,0,0,1-11.45,4A21.52,21.52,0,0,0,153.2,119H153a21.5,21.5,0,0,0,0,43h.22a21.5,21.5,0,0,0,29.64,16.76,9,9,0,0,1,11.45,4,31.63,31.63,0,0,0,55.57,0,9,9,0,0,1,11.45-4A21.5,21.5,0,0,0,291,162h.21a21.5,21.5,0,1,0,0-43Z"/><polygon class="cls-2" points="307.62 238.3 307.62 238.3 194.54 238.3 138.03 317.16 138.03 422.3 250.91 422.3 251.03 422.3 364.12 422.3 364.12 317.16 307.62 238.3"/><path class="cls-2" d="M198.38,299.14a41.91,41.91,0,0,0-34.56,18.16,41.94,41.94,0,0,0,69.11,0A41.89,41.89,0,0,0,198.38,299.14Z"/><circle class="cls-2" cx="198.38" cy="317.3" r="9.12"/><rect class="cls-3" x="207.07" y="223.42" width="30" height="42"/><rect class="cls-4" x="229.57" y="223.42" width="7.5" height="42"/><rect class="cls-3" x="207.07" y="212.92" width="30" height="10.5"/><polyline class="cls-3" points="332.92 422.3 414.92 422.3 414.92 345.77 374 288.6 291.97 288.3 250.92 345.77 250.92 422.3 332.92 422.3"/><path class="cls-3" d="M294.75,332.71a30.37,30.37,0,0,0-25.05,13.17,30.42,30.42,0,0,0,50.11,0A30.37,30.37,0,0,0,294.75,332.71Z"/><circle class="cls-3" cx="294.75" cy="345.88" r="6.61"/><path class="cls-3" d="M373.88,332.71a30.36,30.36,0,0,0-25.05,13.17,30.42,30.42,0,0,0,50.11,0A30.37,30.37,0,0,0,373.88,332.71Z"/><circle class="cls-3" cx="373.88" cy="345.88" r="6.61"/><polyline class="cls-2" points="332.92 422.3 332.92 345.77 374 288.6"/><polyline class="cls-3" points="137.97 422.3 186.99 422.3 186.99 376.56 162.53 342.38 113.5 342.2 88.96 376.56 88.96 422.3 137.97 422.3"/><polyline class="cls-2" points="137.97 422.3 137.97 376.56 162.53 342.38"/><path class="cls-2" d="M115.25,384.54a18.18,18.18,0,0,0,15-7.86,18.16,18.16,0,0,0-15-7.87"/><path class="cls-2" d="M115.25,368.81a18.15,18.15,0,0,0-15,7.87,18.16,18.16,0,0,0,15,7.86"/><circle class="cls-2" cx="115.25" cy="376.68" r="3.95"/><path class="cls-2" d="M162.49,384.54a18.18,18.18,0,0,0,15-7.86,18.16,18.16,0,0,0-15-7.87"/><path class="cls-2" d="M162.49,368.81a18.15,18.15,0,0,0-15,7.87,18.16,18.16,0,0,0,15,7.86"/><circle class="cls-2" cx="162.49" cy="376.68" r="3.95"/><path class="cls-3" d="M153.05,400.56a15.76,15.76,0,0,1-30,0Z"/><polyline class="cls-2" points="251.03 422.3 251.03 317.16 307.62 238.3"/></g></g></svg>