<svg xmlns="http://www.w3.org/2000/svg" viewBox="0 0 858 504"><defs><style>.cls-1{isolation:isolate;}.cls-2{fill:#f1eada;}.cls-3{fill:#fff;}.cls-4{fill:#efc6ad;}.cls-5{fill:#d5a60f;}.cls-6{fill:#2056e9;}.cls-7{fill:#414142;}.cls-8{fill:#ead9ce;}.cls-9{fill:#7c7cd8;}.cls-10{fill:#c8fce3;}.cls-11{fill:#ccc;mix-blend-mode:multiply;}.cls-12{fill:#e2bda8;}</style></defs><title>material-76</title><g class="cls-1"><g id="Layer_2" data-name="Layer 2"><rect class="cls-2" width="858" height="504"/></g><g id="Layer_1" data-name="Layer 1"><path class="cls-3" d="M436,143.25h-.21a21,21,0,0,0-28.9-16.35A8.8,8.8,0,0,1,395.75,123a30.87,30.87,0,0,0-54.21,0,8.8,8.8,0,0,1-11.17,3.92,21,21,0,0,0-28.9,16.35h-.22a21,21,0,0,0,0,41.93h.22a21,21,0,0,0,28.9,16.35,8.8,8.8,0,0,1,11.17,3.92,30.87,30.87,0,0,0,54.21,0,8.8,8.8,0,0,1,11.17-3.92,21,21,0,0,0,28.9-16.35H436a21,21,0,1,0,0-41.93Z"/><polygon class="cls-4" points="341.24 224.98 388.28 159.75 435.32 224.98 435.32 312.1 341.24 312.1 341.24 224.98"/><polygon class="cls-5" points="529.83 224.9 482.96 159.73 388.27 159.73 435.14 224.9 529.83 224.9"/><rect class="cls-6" x="435.32" y="224.9" width="94.54" height="87.2" transform="translate(965.19 537.01) rotate(180)"/><circle class="cls-7" cx="388.27" cy="208.58" r="12.97"/><path class="cls-3" d="M209.67,233.48h-.12a11.44,11.44,0,0,0-15.77-8.91,4.81,4.81,0,0,1-6.09-2.14,16.83,16.83,0,0,0-29.57,0,4.82,4.82,0,0,1-6.1,2.14,11.32,11.32,0,0,0-4.44-.9,11.45,11.45,0,0,0-11.33,9.81h-.11a11.44,11.44,0,1,0,0,22.88h.11A11.46,11.46,0,0,0,152,265.28a4.8,4.8,0,0,1,6.1,2.14,16.84,16.84,0,0,0,29.57,0,4.79,4.79,0,0,1,6.09-2.14,11.46,11.46,0,0,0,15.77-8.92h.12a11.44,11.44,0,0,0,0-22.88Z"/><polygon class="cls-8" points="318.29 310.15 271.48 244.92 224.67 310.15 224.67 397.01 318.29 397.01 318.29 310.15"/><polygon class="cls-9" points="129.99 310.27 176.85 245.1 271.54 245.1 224.67 310.27 129.99 310.27"/><rect class="cls-10" x="130.12" y="310.27" width="94.54" height="86.74"/><polygon class="cls-4" points="318.29 310.15 271.48 244.92 224.67 310.15 224.67 397.01 318.29 397.01 318.29 310.15"/><polygon class="cls-5" points="129.99 310.27 176.85 245.1 271.54 245.1 224.67 310.27 129.99 310.27"/><rect class="cls-6" x="130.12" y="310.27" width="94.54" height="86.74"/><rect class="cls-7" x="271.48" y="349.28" width="19.73" height="47.73"/><polygon class="cls-11" points="291.24 349.05 318.29 373.14 318.29 396.89 291.24 397.12 291.24 349.05"/><path class="cls-7" d="M252,310.27a20.62,20.62,0,0,0,39.3,0Z"/><path class="cls-7" d="M372.8,288.7a16.24,16.24,0,0,0,30.95,0Z"/><rect class="cls-7" x="383" y="230.41" width="11.01" height="47.73" rx="5.43"/><polygon class="cls-8" points="472.5 276.82 537.44 186.6 602.38 276.82 602.38 397.01 472.5 397.01 472.5 276.82"/><polygon class="cls-9" points="733.3 276.76 668.47 186.81 537.5 186.81 602.33 276.76 733.3 276.76"/><rect class="cls-10" x="602.38" y="276.76" width="130.8" height="120.24" transform="translate(1335.56 673.77) rotate(180)"/><polygon class="cls-4" points="472.5 276.82 537.44 186.6 602.38 276.82 602.38 397.01 472.5 397.01 472.5 276.82"/><polygon class="cls-5" points="733.3 276.76 668.47 186.81 537.5 186.81 602.33 276.76 733.3 276.76"/><rect class="cls-6" x="602.38" y="276.76" width="130.8" height="120.24" transform="translate(1335.56 673.77) rotate(180)"/><rect class="cls-12" x="621.66" y="149.64" width="27.54" height="66.09"/><rect class="cls-11" x="642.31" y="149.64" width="6.88" height="66.09"/><rect x="621.66" y="140" width="27.54" height="9.64"/><path class="cls-7" d="M560.28,349.85a24,24,0,0,1-45.82,0Z"/><circle class="cls-7" cx="503.18" cy="276.6" r="9.17"/><circle class="cls-7" cx="571.82" cy="276.6" r="9.17"/><polyline class="cls-7" points="520.56 318.53 554.1 318.53 537.21 251.83"/></g></g></svg>