<svg xmlns="http://www.w3.org/2000/svg" viewBox="0 0 504 504"><defs><style>.cls-1{isolation:isolate;}.cls-2{fill:#fff;}.cls-3{mix-blend-mode:multiply;}</style></defs><title>material-82</title><g class="cls-1"><g id="Layer_1" data-name="Layer 1"><path d="M222.07,200.76A33.15,33.15,0,0,1,193,183.47a7.53,7.53,0,0,0-9.55-3.36,22.78,22.78,0,0,1-8.94,1.81,23.11,23.11,0,0,1-22.55-18.47,23,23,0,0,1,0-45.94,23,23,0,0,1,31.49-16.67A7.52,7.52,0,0,0,193,97.49a33.14,33.14,0,0,1,58.21,0,7.52,7.52,0,0,0,9.55,3.35,23,23,0,0,1,31.48,16.67,23,23,0,0,1,0,45.94,23.1,23.1,0,0,1-22.54,18.47,22.78,22.78,0,0,1-8.94-1.81,7.53,7.53,0,0,0-9.55,3.36A33.16,33.16,0,0,1,222.07,200.76Zm-35.71-24.25A10.53,10.53,0,0,1,195.6,182a30.14,30.14,0,0,0,52.94,0,10.52,10.52,0,0,1,13.36-4.68,19.83,19.83,0,0,0,7.77,1.57,20.08,20.08,0,0,0,19.79-17.16l.19-1.3h1.51a20,20,0,1,0,0-40l-1.51,0-.19-1.3A20.08,20.08,0,0,0,269.67,102a19.83,19.83,0,0,0-7.77,1.57,10.52,10.52,0,0,1-13.36-4.69,30.15,30.15,0,0,0-52.94,0,10.51,10.51,0,0,1-13.35,4.69,19.83,19.83,0,0,0-7.77-1.57,20.07,20.07,0,0,0-19.79,17.16l-.19,1.3-1.52,0a20,20,0,0,0,0,40l1.44,0,.27,1.31a20.07,20.07,0,0,0,19.79,17.16,19.83,19.83,0,0,0,7.77-1.57A10.5,10.5,0,0,1,186.36,176.51Z"/><path d="M252.53,423.8h-116V316.68l.28-.39,57-79.49H310.55l-58,80.84Zm-113-3h110V316.68L304.7,239.8H195.31l-55.78,77.84Z"/><path d="M365.62,423.8H249.41V316.68l58.22-81,58,81Zm-113.21-3H362.62V317.64l-55-76.77-55.21,76.77Z"/><path d="M198.38,337a43.48,43.48,0,0,1-35.79-18.82l-.59-.85.59-.85a43.45,43.45,0,0,1,71.58,0l.58.85-.58.85A43.51,43.51,0,0,1,198.38,337ZM165.66,317.3a40.44,40.44,0,0,0,65.43,0,40.45,40.45,0,0,0-65.43,0Z"/><path d="M198.38,327.92A10.62,10.62,0,1,1,209,317.3,10.63,10.63,0,0,1,198.38,327.92Zm0-18.24A7.62,7.62,0,1,0,206,317.3,7.62,7.62,0,0,0,198.38,309.68Z"/><path d="M307.52,337a43.48,43.48,0,0,1-35.79-18.82l-.59-.85.59-.85a43.45,43.45,0,0,1,71.58,0l.58.85-.58.85A43.51,43.51,0,0,1,307.52,337ZM274.8,317.3a40.44,40.44,0,0,0,65.43,0,40.45,40.45,0,0,0-65.43,0Z"/><path d="M307.52,327.92a10.62,10.62,0,1,1,10.62-10.62A10.63,10.63,0,0,1,307.52,327.92Zm0-18.24a7.62,7.62,0,1,0,7.62,7.62A7.62,7.62,0,0,0,307.52,309.68Z"/><rect class="cls-2" x="207.07" y="223.42" width="30" height="42"/><path d="M238.57,266.91h-33v-45h33Zm-30-3h27v-39h-27Z"/><g class="cls-3"><rect class="cls-2" x="229.57" y="223.42" width="7.5" height="42"/><path d="M238.57,266.91h-10.5v-45h10.5Zm-7.5-3h4.5v-39h-4.5Z"/></g><rect class="cls-2" x="207.07" y="212.92" width="30" height="10.5"/><path d="M238.57,224.92h-33v-13.5h33Zm-30-3h27v-7.5h-27Z"/><polyline class="cls-2" points="332.92 422.3 414.92 422.3 414.92 345.77 374 288.6 291.97 288.3 250.92 345.77 250.92 422.3 332.92 422.3"/><path d="M416.42,423.8h-167V345.29L291.2,286.8l83.57.3,41.65,58.19Zm-164-3h161V346.26l-40.2-56.16-80.48-.3-40.32,56.46Z"/><ellipse class="cls-2" cx="294.75" cy="345.88" rx="25.05" ry="13.17"/><path d="M294.75,360.55a31.93,31.93,0,0,1-26.28-13.82l-.59-.85.59-.85A31.91,31.91,0,0,1,321,345l.59.85-.59.85A31.93,31.93,0,0,1,294.75,360.55Zm-23.2-14.67a28.91,28.91,0,0,0,46.41,0,28.91,28.91,0,0,0-46.41,0Z"/><circle class="cls-2" cx="294.75" cy="345.88" r="6.61"/><path d="M294.75,354a8.12,8.12,0,1,1,8.12-8.11A8.12,8.12,0,0,1,294.75,354Zm0-13.23a5.12,5.12,0,1,0,5.12,5.12A5.12,5.12,0,0,0,294.75,340.76Z"/><ellipse class="cls-2" cx="373.88" cy="345.88" rx="25.05" ry="13.17"/><path d="M373.88,360.55a32,32,0,0,1-26.29-13.82l-.58-.85.58-.85a31.92,31.92,0,0,1,52.58,0l.59.85-.59.85A32,32,0,0,1,373.88,360.55Zm-23.21-14.67a28.92,28.92,0,0,0,46.42,0,28.92,28.92,0,0,0-46.42,0Z"/><circle class="cls-2" cx="373.88" cy="345.88" r="6.61"/><path d="M373.88,354a8.12,8.12,0,1,1,8.12-8.11A8.12,8.12,0,0,1,373.88,354Zm0-13.23a5.12,5.12,0,1,0,5.12,5.12A5.12,5.12,0,0,0,373.88,340.76Z"/><polygon points="334.42 422.3 331.42 422.3 331.42 345.29 372.78 287.73 375.22 289.48 334.42 346.26 334.42 422.3"/><polyline class="cls-2" points="137.97 422.3 186.99 422.3 186.99 376.56 162.53 342.38 113.5 342.2 88.96 376.56 88.96 422.3 137.97 422.3"/><path d="M188.49,423.8h-101V376.08l25.27-35.38,50.57.19,25.19,35.19Zm-98-3h95V377l-23.74-33.16-47.48-.17L90.46,377Z"/><polygon points="139.47 422.3 136.47 422.3 136.47 376.08 161.31 341.51 163.75 343.26 139.47 377.04 139.47 422.3"/><path d="M115.25,386a19.66,19.66,0,0,1-16.19-8.51l-.59-.85.59-.86a19.66,19.66,0,0,1,32.38,0l.59.86-.59.85A19.66,19.66,0,0,1,115.25,386Zm-13.09-9.36a16.65,16.65,0,0,0,26.18,0,16.63,16.63,0,0,0-26.18,0Z"/><path d="M115.25,382.12a5.45,5.45,0,1,1,5.45-5.44A5.45,5.45,0,0,1,115.25,382.12Zm0-7.89a2.45,2.45,0,1,0,2.45,2.45A2.45,2.45,0,0,0,115.25,374.23Z"/><path d="M162.49,386a19.66,19.66,0,0,1-16.19-8.51l-.59-.85.59-.86a19.66,19.66,0,0,1,32.38,0l.59.86-.59.85A19.66,19.66,0,0,1,162.49,386Zm-13.09-9.36a16.65,16.65,0,0,0,26.18,0,16.63,16.63,0,0,0-26.18,0Z"/><path d="M162.49,382.12a5.45,5.45,0,1,1,5.45-5.44A5.45,5.45,0,0,1,162.49,382.12Zm0-7.89a2.45,2.45,0,1,0,2.45,2.45A2.45,2.45,0,0,0,162.49,374.23Z"/><path class="cls-2" d="M153.05,400.56a15.76,15.76,0,0,1-30,0Z"/><path d="M138,413.05A17,17,0,0,1,121.58,401l-.59-1.94h34.09l-.59,1.94A17,17,0,0,1,138,413.05Zm-12.84-11a14.32,14.32,0,0,0,25.69,0Z"/></g></g></svg>